<?xml version="1.0" encoding="utf-8"?>
<svg xmlns="http://www.w3.org/2000/svg" xmlns:xlink="http://www.w3.org/1999/xlink" width="500" height="320" viewBox="0 0 2000 1280">
<defs>
  <clipPath id="clip000">
    <rect x="0" y="0" width="2000" height="1280"/>
  </clipPath>
</defs>
<path clip-path="url(#clip000)" d="M0 1280 L2000 1280 L2000 0 L0 0  Z" fill="#ffffff" fill-rule="evenodd" fill-opacity="1"/>
<defs>
  <clipPath id="clip001">
    <rect x="400" y="0" width="1401" height="1280"/>
  </clipPath>
</defs>
<path clip-path="url(#clip000)" d="M238.55 1109.66 L1952.76 1109.66 L1952.76 121.053 L238.55 121.053  Z" fill="#ffffff" fill-rule="evenodd" fill-opacity="1"/>
<defs>
  <clipPath id="clip002">
    <rect x="238" y="121" width="1715" height="990"/>
  </clipPath>
</defs>
<polyline clip-path="url(#clip002)" style="stroke:#000000; stroke-linecap:round; stroke-linejoin:round; stroke-width:2; stroke-opacity:0.1; fill:none" points="238.55,1109.66 238.55,121.053 "/>
<polyline clip-path="url(#clip002)" style="stroke:#000000; stroke-linecap:round; stroke-linejoin:round; stroke-width:2; stroke-opacity:0.1; fill:none" points="667.122,1109.66 667.122,121.053 "/>
<polyline clip-path="url(#clip002)" style="stroke:#000000; stroke-linecap:round; stroke-linejoin:round; stroke-width:2; stroke-opacity:0.1; fill:none" points="1095.69,1109.66 1095.69,121.053 "/>
<polyline clip-path="url(#clip002)" style="stroke:#000000; stroke-linecap:round; stroke-linejoin:round; stroke-width:2; stroke-opacity:0.1; fill:none" points="1524.26,1109.66 1524.26,121.053 "/>
<polyline clip-path="url(#clip000)" style="stroke:#000000; stroke-linecap:round; stroke-linejoin:round; stroke-width:4; stroke-opacity:1; fill:none" points="238.55,1109.66 1952.76,1109.66 "/>
<polyline clip-path="url(#clip000)" style="stroke:#000000; stroke-linecap:round; stroke-linejoin:round; stroke-width:4; stroke-opacity:1; fill:none" points="238.55,1109.66 238.55,1090.77 "/>
<polyline clip-path="url(#clip000)" style="stroke:#000000; stroke-linecap:round; stroke-linejoin:round; stroke-width:4; stroke-opacity:1; fill:none" points="667.122,1109.66 667.122,1090.77 "/>
<polyline clip-path="url(#clip000)" style="stroke:#000000; stroke-linecap:round; stroke-linejoin:round; stroke-width:4; stroke-opacity:1; fill:none" points="1095.69,1109.66 1095.69,1090.77 "/>
<polyline clip-path="url(#clip000)" style="stroke:#000000; stroke-linecap:round; stroke-linejoin:round; stroke-width:4; stroke-opacity:1; fill:none" points="1524.26,1109.66 1524.26,1090.77 "/>
<path clip-path="url(#clip000)" d="M215.934 1137.38 Q212.323 1137.38 210.495 1140.95 Q208.689 1144.49 208.689 1151.62 Q208.689 1158.72 210.495 1162.29 Q212.323 1165.83 215.934 1165.83 Q219.569 1165.83 221.374 1162.29 Q223.203 1158.72 223.203 1151.62 Q223.203 1144.49 221.374 1140.95 Q219.569 1137.38 215.934 1137.38 M215.934 1133.68 Q221.745 1133.68 224.8 1138.28 Q227.879 1142.87 227.879 1151.62 Q227.879 1160.34 224.8 1164.95 Q221.745 1169.53 215.934 1169.53 Q210.124 1169.53 207.046 1164.95 Q203.99 1160.34 203.99 1151.62 Q203.99 1142.87 207.046 1138.28 Q210.124 1133.68 215.934 1133.68 Z" fill="#000000" fill-rule="nonzero" fill-opacity="1" /><path clip-path="url(#clip000)" d="M236.096 1162.98 L240.981 1162.98 L240.981 1168.86 L236.096 1168.86 L236.096 1162.98 Z" fill="#000000" fill-rule="nonzero" fill-opacity="1" /><path clip-path="url(#clip000)" d="M261.166 1137.38 Q257.555 1137.38 255.726 1140.95 Q253.92 1144.49 253.92 1151.62 Q253.92 1158.72 255.726 1162.29 Q257.555 1165.83 261.166 1165.83 Q264.8 1165.83 266.606 1162.29 Q268.434 1158.72 268.434 1151.62 Q268.434 1144.49 266.606 1140.95 Q264.8 1137.38 261.166 1137.38 M261.166 1133.68 Q266.976 1133.68 270.031 1138.28 Q273.11 1142.87 273.11 1151.62 Q273.11 1160.34 270.031 1164.95 Q266.976 1169.53 261.166 1169.53 Q255.356 1169.53 252.277 1164.95 Q249.221 1160.34 249.221 1151.62 Q249.221 1142.87 252.277 1138.28 Q255.356 1133.68 261.166 1133.68 Z" fill="#000000" fill-rule="nonzero" fill-opacity="1" /><path clip-path="url(#clip000)" d="M645.004 1137.38 Q641.393 1137.38 639.564 1140.95 Q637.758 1144.49 637.758 1151.62 Q637.758 1158.72 639.564 1162.29 Q641.393 1165.83 645.004 1165.83 Q648.638 1165.83 650.443 1162.29 Q652.272 1158.72 652.272 1151.62 Q652.272 1144.49 650.443 1140.95 Q648.638 1137.38 645.004 1137.38 M645.004 1133.68 Q650.814 1133.68 653.869 1138.28 Q656.948 1142.87 656.948 1151.62 Q656.948 1160.34 653.869 1164.95 Q650.814 1169.53 645.004 1169.53 Q639.193 1169.53 636.115 1164.95 Q633.059 1160.34 633.059 1151.62 Q633.059 1142.87 636.115 1138.28 Q639.193 1133.68 645.004 1133.68 Z" fill="#000000" fill-rule="nonzero" fill-opacity="1" /><path clip-path="url(#clip000)" d="M665.166 1162.98 L670.05 1162.98 L670.05 1168.86 L665.166 1168.86 L665.166 1162.98 Z" fill="#000000" fill-rule="nonzero" fill-opacity="1" /><path clip-path="url(#clip000)" d="M680.281 1134.3 L698.638 1134.3 L698.638 1138.24 L684.564 1138.24 L684.564 1146.71 Q685.582 1146.36 686.601 1146.2 Q687.619 1146.02 688.638 1146.02 Q694.425 1146.02 697.804 1149.19 Q701.184 1152.36 701.184 1157.78 Q701.184 1163.35 697.712 1166.46 Q694.239 1169.53 687.92 1169.53 Q685.744 1169.53 683.476 1169.16 Q681.23 1168.79 678.823 1168.05 L678.823 1163.35 Q680.906 1164.49 683.128 1165.04 Q685.351 1165.6 687.827 1165.6 Q691.832 1165.6 694.17 1163.49 Q696.508 1161.39 696.508 1157.78 Q696.508 1154.16 694.17 1152.06 Q691.832 1149.95 687.827 1149.95 Q685.952 1149.95 684.077 1150.37 Q682.226 1150.78 680.281 1151.66 L680.281 1134.3 Z" fill="#000000" fill-rule="nonzero" fill-opacity="1" /><path clip-path="url(#clip000)" d="M1062.85 1164.93 L1070.48 1164.93 L1070.48 1138.56 L1062.17 1140.23 L1062.17 1135.97 L1070.44 1134.3 L1075.11 1134.3 L1075.11 1164.93 L1082.75 1164.93 L1082.75 1168.86 L1062.85 1168.86 L1062.85 1164.93 Z" fill="#000000" fill-rule="nonzero" fill-opacity="1" /><path clip-path="url(#clip000)" d="M1092.2 1162.98 L1097.08 1162.98 L1097.08 1168.86 L1092.2 1168.86 L1092.2 1162.98 Z" fill="#000000" fill-rule="nonzero" fill-opacity="1" /><path clip-path="url(#clip000)" d="M1117.27 1137.38 Q1113.66 1137.38 1111.83 1140.95 Q1110.02 1144.49 1110.02 1151.62 Q1110.02 1158.72 1111.83 1162.29 Q1113.66 1165.83 1117.27 1165.83 Q1120.9 1165.83 1122.71 1162.29 Q1124.54 1158.72 1124.54 1151.62 Q1124.54 1144.49 1122.71 1140.95 Q1120.9 1137.38 1117.27 1137.38 M1117.27 1133.68 Q1123.08 1133.68 1126.13 1138.28 Q1129.21 1142.87 1129.21 1151.62 Q1129.21 1160.34 1126.13 1164.95 Q1123.08 1169.53 1117.27 1169.53 Q1111.46 1169.53 1108.38 1164.95 Q1105.32 1160.34 1105.32 1151.62 Q1105.32 1142.87 1108.38 1138.28 Q1111.46 1133.68 1117.27 1133.68 Z" fill="#000000" fill-rule="nonzero" fill-opacity="1" /><path clip-path="url(#clip000)" d="M1491.92 1164.93 L1499.55 1164.93 L1499.55 1138.56 L1491.24 1140.23 L1491.24 1135.97 L1499.51 1134.3 L1504.18 1134.3 L1504.18 1164.93 L1511.82 1164.93 L1511.82 1168.86 L1491.92 1168.86 L1491.92 1164.93 Z" fill="#000000" fill-rule="nonzero" fill-opacity="1" /><path clip-path="url(#clip000)" d="M1521.27 1162.98 L1526.15 1162.98 L1526.15 1168.86 L1521.27 1168.86 L1521.27 1162.98 Z" fill="#000000" fill-rule="nonzero" fill-opacity="1" /><path clip-path="url(#clip000)" d="M1536.38 1134.3 L1554.74 1134.3 L1554.74 1138.24 L1540.66 1138.24 L1540.66 1146.71 Q1541.68 1146.36 1542.7 1146.2 Q1543.72 1146.02 1544.74 1146.02 Q1550.53 1146.02 1553.91 1149.19 Q1557.29 1152.36 1557.29 1157.78 Q1557.29 1163.35 1553.81 1166.46 Q1550.34 1169.53 1544.02 1169.53 Q1541.85 1169.53 1539.58 1169.16 Q1537.33 1168.79 1534.92 1168.05 L1534.92 1163.35 Q1537.01 1164.49 1539.23 1165.04 Q1541.45 1165.6 1543.93 1165.6 Q1547.93 1165.6 1550.27 1163.49 Q1552.61 1161.39 1552.61 1157.78 Q1552.61 1154.16 1550.27 1152.06 Q1547.93 1149.95 1543.93 1149.95 Q1542.05 1149.95 1540.18 1150.37 Q1538.33 1150.78 1536.38 1151.66 L1536.38 1134.3 Z" fill="#000000" fill-rule="nonzero" fill-opacity="1" /><path clip-path="url(#clip000)" d="M1094.71 1202.76 L1094.71 1212.88 L1106.78 1212.88 L1106.78 1217.43 L1094.71 1217.43 L1094.71 1236.78 Q1094.71 1241.14 1095.89 1242.38 Q1097.1 1243.63 1100.76 1243.63 L1106.78 1243.63 L1106.78 1248.53 L1100.76 1248.53 Q1093.98 1248.53 1091.4 1246.01 Q1088.83 1243.47 1088.83 1236.78 L1088.83 1217.43 L1084.53 1217.43 L1084.53 1212.88 L1088.83 1212.88 L1088.83 1202.76 L1094.71 1202.76 Z" fill="#000000" fill-rule="nonzero" fill-opacity="1" /><polyline clip-path="url(#clip002)" style="stroke:#000000; stroke-linecap:round; stroke-linejoin:round; stroke-width:2; stroke-opacity:0.1; fill:none" points="238.55,1063.14 1952.76,1063.14 "/>
<polyline clip-path="url(#clip002)" style="stroke:#000000; stroke-linecap:round; stroke-linejoin:round; stroke-width:2; stroke-opacity:0.1; fill:none" points="238.55,447.208 1952.76,447.208 "/>
<polyline clip-path="url(#clip000)" style="stroke:#000000; stroke-linecap:round; stroke-linejoin:round; stroke-width:4; stroke-opacity:1; fill:none" points="238.55,1109.66 238.55,121.053 "/>
<polyline clip-path="url(#clip000)" style="stroke:#000000; stroke-linecap:round; stroke-linejoin:round; stroke-width:4; stroke-opacity:1; fill:none" points="238.55,1063.14 257.448,1063.14 "/>
<polyline clip-path="url(#clip000)" style="stroke:#000000; stroke-linecap:round; stroke-linejoin:round; stroke-width:4; stroke-opacity:1; fill:none" points="238.55,447.208 257.448,447.208 "/>
<path clip-path="url(#clip000)" d="M137.844 1082.93 L145.483 1082.93 L145.483 1056.57 L137.173 1058.24 L137.173 1053.98 L145.437 1052.31 L150.113 1052.31 L150.113 1082.93 L157.752 1082.93 L157.752 1086.87 L137.844 1086.87 L137.844 1082.93 Z" fill="#000000" fill-rule="nonzero" fill-opacity="1" /><path clip-path="url(#clip000)" d="M177.196 1055.39 Q173.585 1055.39 171.756 1058.95 Q169.951 1062.49 169.951 1069.62 Q169.951 1076.73 171.756 1080.3 Q173.585 1083.84 177.196 1083.84 Q180.83 1083.84 182.636 1080.3 Q184.465 1076.73 184.465 1069.62 Q184.465 1062.49 182.636 1058.95 Q180.83 1055.39 177.196 1055.39 M177.196 1051.68 Q183.006 1051.68 186.062 1056.29 Q189.14 1060.87 189.14 1069.62 Q189.14 1078.35 186.062 1082.96 Q183.006 1087.54 177.196 1087.54 Q171.386 1087.54 168.307 1082.96 Q165.252 1078.35 165.252 1069.62 Q165.252 1060.87 168.307 1056.29 Q171.386 1051.68 177.196 1051.68 Z" fill="#000000" fill-rule="nonzero" fill-opacity="1" /><path clip-path="url(#clip000)" d="M198.845 1033.88 Q195.911 1033.88 194.425 1036.78 Q192.958 1039.65 192.958 1045.45 Q192.958 1051.22 194.425 1054.12 Q195.911 1057 198.845 1057 Q201.798 1057 203.265 1054.12 Q204.751 1051.22 204.751 1045.45 Q204.751 1039.65 203.265 1036.78 Q201.798 1033.88 198.845 1033.88 M198.845 1030.87 Q203.566 1030.87 206.049 1034.61 Q208.55 1038.34 208.55 1045.45 Q208.55 1052.54 206.049 1056.28 Q203.566 1060 198.845 1060 Q194.125 1060 191.623 1056.28 Q189.14 1052.54 189.14 1045.45 Q189.14 1038.34 191.623 1034.61 Q194.125 1030.87 198.845 1030.87 Z" fill="#000000" fill-rule="nonzero" fill-opacity="1" /><path clip-path="url(#clip000)" d="M115.031 467 L122.669 467 L122.669 440.635 L114.359 442.301 L114.359 438.042 L122.623 436.376 L127.299 436.376 L127.299 467 L134.938 467 L134.938 470.936 L115.031 470.936 L115.031 467 Z" fill="#000000" fill-rule="nonzero" fill-opacity="1" /><path clip-path="url(#clip000)" d="M154.382 439.454 Q150.771 439.454 148.943 443.019 Q147.137 446.561 147.137 453.69 Q147.137 460.797 148.943 464.362 Q150.771 467.903 154.382 467.903 Q158.017 467.903 159.822 464.362 Q161.651 460.797 161.651 453.69 Q161.651 446.561 159.822 443.019 Q158.017 439.454 154.382 439.454 M154.382 435.751 Q160.192 435.751 163.248 440.357 Q166.327 444.94 166.327 453.69 Q166.327 462.417 163.248 467.024 Q160.192 471.607 154.382 471.607 Q148.572 471.607 145.493 467.024 Q142.438 462.417 142.438 453.69 Q142.438 444.94 145.493 440.357 Q148.572 435.751 154.382 435.751 Z" fill="#000000" fill-rule="nonzero" fill-opacity="1" /><path clip-path="url(#clip000)" d="M166.872 440.328 L173.079 440.328 L173.079 418.906 L166.327 420.26 L166.327 416.799 L173.041 415.445 L176.84 415.445 L176.84 440.328 L183.047 440.328 L183.047 443.525 L166.872 443.525 L166.872 440.328 Z" fill="#000000" fill-rule="nonzero" fill-opacity="1" /><path clip-path="url(#clip000)" d="M198.845 417.947 Q195.911 417.947 194.425 420.843 Q192.958 423.721 192.958 429.513 Q192.958 435.287 194.425 438.184 Q195.911 441.061 198.845 441.061 Q201.798 441.061 203.265 438.184 Q204.751 435.287 204.751 429.513 Q204.751 423.721 203.265 420.843 Q201.798 417.947 198.845 417.947 M198.845 414.937 Q203.566 414.937 206.049 418.68 Q208.55 422.404 208.55 429.513 Q208.55 436.604 206.049 440.347 Q203.566 444.071 198.845 444.071 Q194.125 444.071 191.623 440.347 Q189.14 436.604 189.14 429.513 Q189.14 422.404 191.623 418.68 Q194.125 414.937 198.845 414.937 Z" fill="#000000" fill-rule="nonzero" fill-opacity="1" /><path clip-path="url(#clip000)" d="M34.4554 598.743 L51.802 611.634 L70.1034 598.075 L70.1034 604.982 L56.0988 615.358 L70.1034 625.734 L70.1034 632.641 L51.4518 618.795 L34.4554 631.463 L34.4554 624.556 L47.155 615.103 L34.4554 605.65 L34.4554 598.743 Z" fill="#000000" fill-rule="nonzero" fill-opacity="1" /><path clip-path="url(#clip000)" d="M745.695 12.096 L756.714 12.096 L783.531 62.6918 L783.531 12.096 L791.471 12.096 L791.471 72.576 L780.452 72.576 L753.635 21.9802 L753.635 72.576 L745.695 72.576 L745.695 12.096 Z" fill="#000000" fill-rule="nonzero" fill-opacity="1" /><path clip-path="url(#clip000)" d="M825.012 32.4315 Q819.017 32.4315 815.533 37.1306 Q812.049 41.7891 812.049 49.9314 Q812.049 58.0738 815.492 62.7728 Q818.976 67.4314 825.012 67.4314 Q830.967 67.4314 834.451 62.7323 Q837.934 58.0333 837.934 49.9314 Q837.934 41.8701 834.451 37.1711 Q830.967 32.4315 825.012 32.4315 M825.012 26.1121 Q834.734 26.1121 840.284 32.4315 Q845.834 38.7509 845.834 49.9314 Q845.834 61.0714 840.284 67.4314 Q834.734 73.7508 825.012 73.7508 Q815.249 73.7508 809.7 67.4314 Q804.19 61.0714 804.19 49.9314 Q804.19 38.7509 809.7 32.4315 Q815.249 26.1121 825.012 26.1121 Z" fill="#000000" fill-rule="nonzero" fill-opacity="1" /><path clip-path="url(#clip000)" d="M895.903 45.1919 L895.903 72.576 L888.449 72.576 L888.449 45.4349 Q888.449 38.994 885.938 35.7938 Q883.426 32.5936 878.403 32.5936 Q872.367 32.5936 868.883 36.4419 Q865.4 40.2903 865.4 46.9338 L865.4 72.576 L857.905 72.576 L857.905 27.2059 L865.4 27.2059 L865.4 34.2544 Q868.073 30.163 871.679 28.1376 Q875.324 26.1121 880.064 26.1121 Q887.882 26.1121 891.893 30.9732 Q895.903 35.7938 895.903 45.1919 Z" fill="#000000" fill-rule="nonzero" fill-opacity="1" /><path clip-path="url(#clip000)" d="M910.77 9.54393 L918.223 9.54393 L918.223 72.576 L910.77 72.576 L910.77 9.54393 Z" fill="#000000" fill-rule="nonzero" fill-opacity="1" /><path clip-path="url(#clip000)" d="M933.819 27.2059 L941.273 27.2059 L941.273 72.576 L933.819 72.576 L933.819 27.2059 M933.819 9.54393 L941.273 9.54393 L941.273 18.9825 L933.819 18.9825 L933.819 9.54393 Z" fill="#000000" fill-rule="nonzero" fill-opacity="1" /><path clip-path="url(#clip000)" d="M994.583 45.1919 L994.583 72.576 L987.129 72.576 L987.129 45.4349 Q987.129 38.994 984.618 35.7938 Q982.106 32.5936 977.083 32.5936 Q971.047 32.5936 967.563 36.4419 Q964.08 40.2903 964.08 46.9338 L964.08 72.576 L956.585 72.576 L956.585 27.2059 L964.08 27.2059 L964.08 34.2544 Q966.753 30.163 970.359 28.1376 Q974.004 26.1121 978.744 26.1121 Q986.562 26.1121 990.573 30.9732 Q994.583 35.7938 994.583 45.1919 Z" fill="#000000" fill-rule="nonzero" fill-opacity="1" /><path clip-path="url(#clip000)" d="M1048.26 48.0275 L1048.26 51.6733 L1013.99 51.6733 Q1014.47 59.3701 1018.6 63.421 Q1022.78 67.4314 1030.19 67.4314 Q1034.48 67.4314 1038.49 66.3781 Q1042.55 65.3249 1046.52 63.2184 L1046.52 70.267 Q1042.51 71.9684 1038.29 72.8596 Q1034.08 73.7508 1029.74 73.7508 Q1018.89 73.7508 1012.53 67.4314 Q1006.21 61.1119 1006.21 50.3365 Q1006.21 39.1965 1012.2 32.6746 Q1018.24 26.1121 1028.45 26.1121 Q1037.6 26.1121 1042.91 32.0264 Q1048.26 37.9003 1048.26 48.0275 M1040.8 45.84 Q1040.72 39.7232 1037.36 36.0774 Q1034.04 32.4315 1028.53 32.4315 Q1022.29 32.4315 1018.52 35.9558 Q1014.8 39.4801 1014.23 45.8805 L1040.8 45.84 Z" fill="#000000" fill-rule="nonzero" fill-opacity="1" /><path clip-path="url(#clip000)" d="M1081.11 49.7694 Q1072.08 49.7694 1068.59 51.8354 Q1065.11 53.9013 1065.11 58.8839 Q1065.11 62.8538 1067.7 65.2034 Q1070.33 67.5124 1074.83 67.5124 Q1081.03 67.5124 1084.76 63.1374 Q1088.52 58.7219 1088.52 51.4303 L1088.52 49.7694 L1081.11 49.7694 M1095.98 46.6907 L1095.98 72.576 L1088.52 72.576 L1088.52 65.6895 Q1085.97 69.8214 1082.16 71.8063 Q1078.36 73.7508 1072.85 73.7508 Q1065.88 73.7508 1061.75 69.8619 Q1057.66 65.9325 1057.66 59.3701 Q1057.66 51.7138 1062.76 47.825 Q1067.9 43.9361 1078.07 43.9361 L1088.52 43.9361 L1088.52 43.2069 Q1088.52 38.0623 1085.12 35.2672 Q1081.76 32.4315 1075.64 32.4315 Q1071.75 32.4315 1068.07 33.3632 Q1064.38 34.295 1060.98 36.1584 L1060.98 29.2718 Q1065.07 27.692 1068.92 26.9223 Q1072.77 26.1121 1076.41 26.1121 Q1086.25 26.1121 1091.12 31.2163 Q1095.98 36.3204 1095.98 46.6907 Z" fill="#000000" fill-rule="nonzero" fill-opacity="1" /><path clip-path="url(#clip000)" d="M1137.62 34.1734 Q1136.36 33.4443 1134.87 33.1202 Q1133.41 32.7556 1131.63 32.7556 Q1125.31 32.7556 1121.9 36.8875 Q1118.54 40.9789 1118.54 48.6757 L1118.54 72.576 L1111.05 72.576 L1111.05 27.2059 L1118.54 27.2059 L1118.54 34.2544 Q1120.89 30.1225 1124.66 28.1376 Q1128.42 26.1121 1133.81 26.1121 Q1134.58 26.1121 1135.51 26.2337 Q1136.45 26.3147 1137.58 26.5172 L1137.62 34.1734 Z" fill="#000000" fill-rule="nonzero" fill-opacity="1" /><path clip-path="url(#clip000)" d="M1201.67 49.3643 Q1201.67 41.2625 1198.3 36.8065 Q1194.98 32.3505 1188.95 32.3505 Q1182.95 32.3505 1179.59 36.8065 Q1176.27 41.2625 1176.27 49.3643 Q1176.27 57.4256 1179.59 61.8816 Q1182.95 66.3376 1188.95 66.3376 Q1194.98 66.3376 1198.3 61.8816 Q1201.67 57.4256 1201.67 49.3643 M1209.12 66.9452 Q1209.12 78.5308 1203.97 84.1616 Q1198.83 89.8329 1188.22 89.8329 Q1184.29 89.8329 1180.8 89.2252 Q1177.32 88.6581 1174.04 87.4428 L1174.04 80.1917 Q1177.32 81.9741 1180.52 82.8248 Q1183.72 83.6755 1187.04 83.6755 Q1194.37 83.6755 1198.02 79.8271 Q1201.67 76.0193 1201.67 68.282 L1201.67 64.5957 Q1199.36 68.6061 1195.75 70.5911 Q1192.15 72.576 1187.12 72.576 Q1178.78 72.576 1173.67 66.2161 Q1168.57 59.8562 1168.57 49.3643 Q1168.57 38.832 1173.67 32.472 Q1178.78 26.1121 1187.12 26.1121 Q1192.15 26.1121 1195.75 28.0971 Q1199.36 30.082 1201.67 34.0924 L1201.67 27.2059 L1209.12 27.2059 L1209.12 66.9452 Z" fill="#000000" fill-rule="nonzero" fill-opacity="1" /><path clip-path="url(#clip000)" d="M1250.76 34.1734 Q1249.51 33.4443 1248.01 33.1202 Q1246.55 32.7556 1244.77 32.7556 Q1238.45 32.7556 1235.04 36.8875 Q1231.68 40.9789 1231.68 48.6757 L1231.68 72.576 L1224.19 72.576 L1224.19 27.2059 L1231.68 27.2059 L1231.68 34.2544 Q1234.03 30.1225 1237.8 28.1376 Q1241.57 26.1121 1246.95 26.1121 Q1247.72 26.1121 1248.66 26.2337 Q1249.59 26.3147 1250.72 26.5172 L1250.76 34.1734 Z" fill="#000000" fill-rule="nonzero" fill-opacity="1" /><path clip-path="url(#clip000)" d="M1274.34 32.4315 Q1268.34 32.4315 1264.86 37.1306 Q1261.38 41.7891 1261.38 49.9314 Q1261.38 58.0738 1264.82 62.7728 Q1268.3 67.4314 1274.34 67.4314 Q1280.29 67.4314 1283.78 62.7323 Q1287.26 58.0333 1287.26 49.9314 Q1287.26 41.8701 1283.78 37.1711 Q1280.29 32.4315 1274.34 32.4315 M1274.34 26.1121 Q1284.06 26.1121 1289.61 32.4315 Q1295.16 38.7509 1295.16 49.9314 Q1295.16 61.0714 1289.61 67.4314 Q1284.06 73.7508 1274.34 73.7508 Q1264.58 73.7508 1259.03 67.4314 Q1253.52 61.0714 1253.52 49.9314 Q1253.52 38.7509 1259.03 32.4315 Q1264.58 26.1121 1274.34 26.1121 Z" fill="#000000" fill-rule="nonzero" fill-opacity="1" /><path clip-path="url(#clip000)" d="M1303.18 27.2059 L1310.63 27.2059 L1319.95 62.6108 L1329.23 27.2059 L1338.02 27.2059 L1347.34 62.6108 L1356.61 27.2059 L1364.07 27.2059 L1352.2 72.576 L1343.41 72.576 L1333.64 35.3887 L1323.84 72.576 L1315.05 72.576 L1303.18 27.2059 Z" fill="#000000" fill-rule="nonzero" fill-opacity="1" /><path clip-path="url(#clip000)" d="M1382.74 14.324 L1382.74 27.2059 L1398.09 27.2059 L1398.09 32.9987 L1382.74 32.9987 L1382.74 57.6282 Q1382.74 63.1779 1384.24 64.7578 Q1385.78 66.3376 1390.44 66.3376 L1398.09 66.3376 L1398.09 72.576 L1390.44 72.576 Q1381.81 72.576 1378.53 69.3758 Q1375.25 66.1351 1375.25 57.6282 L1375.25 32.9987 L1369.78 32.9987 L1369.78 27.2059 L1375.25 27.2059 L1375.25 14.324 L1382.74 14.324 Z" fill="#000000" fill-rule="nonzero" fill-opacity="1" /><path clip-path="url(#clip000)" d="M1445.61 45.1919 L1445.61 72.576 L1438.16 72.576 L1438.16 45.4349 Q1438.16 38.994 1435.65 35.7938 Q1433.13 32.5936 1428.11 32.5936 Q1422.07 32.5936 1418.59 36.4419 Q1415.11 40.2903 1415.11 46.9338 L1415.11 72.576 L1407.61 72.576 L1407.61 9.54393 L1415.11 9.54393 L1415.11 34.2544 Q1417.78 30.163 1421.39 28.1376 Q1425.03 26.1121 1429.77 26.1121 Q1437.59 26.1121 1441.6 30.9732 Q1445.61 35.7938 1445.61 45.1919 Z" fill="#000000" fill-rule="nonzero" fill-opacity="1" /><polyline clip-path="url(#clip002)" style="stroke:#009af9; stroke-linecap:round; stroke-linejoin:round; stroke-width:8; stroke-opacity:1; fill:none" points="238.55,1081.68 240.266,1081.66 241.982,1081.63 243.698,1081.6 245.414,1081.58 247.13,1081.55 248.846,1081.52 250.562,1081.5 252.277,1081.47 253.993,1081.44 255.709,1081.41 257.425,1081.39 259.141,1081.36 260.857,1081.33 262.573,1081.31 264.289,1081.28 266.005,1081.25 267.721,1081.22 269.437,1081.2 271.153,1081.17 272.869,1081.14 274.584,1081.12 276.3,1081.09 278.016,1081.06 279.732,1081.03 281.448,1081.01 283.164,1080.98 284.88,1080.95 286.596,1080.92 288.312,1080.9 290.028,1080.87 291.744,1080.84 293.46,1080.81 295.176,1080.79 296.891,1080.76 298.607,1080.73 300.323,1080.7 302.039,1080.67 303.755,1080.65 305.471,1080.62 307.187,1080.59 308.903,1080.56 310.619,1080.53 312.335,1080.51 314.051,1080.48 315.767,1080.45 317.483,1080.42 319.198,1080.39 320.914,1080.37 322.63,1080.34 324.346,1080.31 326.062,1080.28 327.778,1080.25 329.494,1080.23 331.21,1080.2 332.926,1080.17 334.642,1080.14 336.358,1080.11 338.074,1080.08 339.789,1080.06 341.505,1080.03 343.221,1080 344.937,1079.97 346.653,1079.94 348.369,1079.91 350.085,1079.88 351.801,1079.86 353.517,1079.83 355.233,1079.8 356.949,1079.77 358.665,1079.74 360.381,1079.71 362.096,1079.68 363.812,1079.65 365.528,1079.62 367.244,1079.6 368.96,1079.57 370.676,1079.54 372.392,1079.51 374.108,1079.48 375.824,1079.45 377.54,1079.42 379.256,1079.39 380.972,1079.36 382.688,1079.33 384.403,1079.3 386.119,1079.28 387.835,1079.25 389.551,1079.22 391.267,1079.19 392.983,1079.16 394.699,1079.13 396.415,1079.1 398.131,1079.07 399.847,1079.04 401.563,1079.01 403.279,1078.98 404.995,1078.95 406.71,1078.92 408.426,1078.89 410.142,1078.86 411.858,1078.83 413.574,1078.8 415.29,1078.77 417.006,1078.74 418.722,1078.71 420.438,1078.68 422.154,1078.65 423.87,1078.62 425.586,1078.59 427.302,1078.56 429.017,1078.53 430.733,1078.5 432.449,1078.47 434.165,1078.44 435.881,1078.41 437.597,1078.38 439.313,1078.35 441.029,1078.32 442.745,1078.29 444.461,1078.26 446.177,1078.23 447.893,1078.2 449.608,1078.17 451.324,1078.14 453.04,1078.11 454.756,1078.08 456.472,1078.05 458.188,1078.02 459.904,1077.99 461.62,1077.95 463.336,1077.92 465.052,1077.89 466.768,1077.86 468.484,1077.83 470.2,1077.8 471.915,1077.77 473.631,1077.74 475.347,1077.71 477.063,1077.68 478.779,1077.64 480.495,1077.61 482.211,1077.58 483.927,1077.55 485.643,1077.52 487.359,1077.49 489.075,1077.46 490.791,1077.43 492.507,1077.39 494.222,1077.36 495.938,1077.33 497.654,1077.3 499.37,1077.27 501.086,1077.24 502.802,1077.21 504.518,1077.17 506.234,1077.14 507.95,1077.11 509.666,1077.08 511.382,1077.05 513.098,1077.01 514.814,1076.98 516.529,1076.95 518.245,1076.92 519.961,1076.89 521.677,1076.85 523.393,1076.82 525.109,1076.79 526.825,1076.76 528.541,1076.73 530.257,1076.69 531.973,1076.66 533.689,1076.63 535.405,1076.6 537.12,1076.56 538.836,1076.53 540.552,1076.5 542.268,1076.47 543.984,1076.43 545.7,1076.4 547.416,1076.37 549.132,1076.34 550.848,1076.3 552.564,1076.27 554.28,1076.24 555.996,1076.21 557.712,1076.17 559.427,1076.14 561.143,1076.11 562.859,1076.07 564.575,1076.04 566.291,1076.01 568.007,1075.97 569.723,1075.94 571.439,1075.91 573.155,1075.88 574.871,1075.84 576.587,1075.81 578.303,1075.78 580.019,1075.74 581.734,1075.71 583.45,1075.67 585.166,1075.64 586.882,1075.61 588.598,1075.57 590.314,1075.54 592.03,1075.51 593.746,1075.47 595.462,1075.44 597.178,1075.41 598.894,1075.37 600.61,1075.34 602.326,1075.3 604.041,1075.27 605.757,1075.24 607.473,1075.2 609.189,1075.17 610.905,1075.13 612.621,1075.1 614.337,1075.06 616.053,1075.03 617.769,1075 619.485,1074.96 621.201,1074.93 622.917,1074.89 624.632,1074.86 626.348,1074.82 628.064,1074.79 629.78,1074.75 631.496,1074.72 633.212,1074.68 634.928,1074.65 636.644,1074.61 638.36,1074.58 640.076,1074.54 641.792,1074.51 643.508,1074.47 645.224,1074.44 646.939,1074.4 648.655,1074.37 650.371,1074.33 652.087,1074.3 653.803,1074.26 655.519,1074.23 657.235,1074.19 658.951,1074.16 660.667,1074.12 662.383,1074.09 664.099,1074.05 665.815,1074.01 667.531,1073.98 669.246,1073.94 670.962,1073.91 672.678,1073.87 674.394,1073.84 676.11,1073.8 677.826,1073.76 679.542,1073.73 681.258,1073.69 682.974,1073.66 684.69,1073.62 686.406,1073.58 688.122,1073.55 689.838,1073.51 691.553,1073.47 693.269,1073.44 694.985,1073.4 696.701,1073.36 698.417,1073.33 700.133,1073.29 701.849,1073.25 703.565,1073.22 705.281,1073.18 706.997,1073.14 708.713,1073.11 710.429,1073.07 712.145,1073.03 713.86,1073 715.576,1072.96 717.292,1072.92 719.008,1072.89 720.724,1072.85 722.44,1072.81 724.156,1072.77 725.872,1072.74 727.588,1072.7 729.304,1072.66 731.02,1072.62 732.736,1072.59 734.451,1072.55 736.167,1072.51 737.883,1072.47 739.599,1072.44 741.315,1072.4 743.031,1072.36 744.747,1072.32 746.463,1072.28 748.179,1072.25 749.895,1072.21 751.611,1072.17 753.327,1072.13 755.043,1072.09 756.758,1072.05 758.474,1072.02 760.19,1071.98 761.906,1071.94 763.622,1071.9 765.338,1071.86 767.054,1071.82 768.77,1071.78 770.486,1071.75 772.202,1071.71 773.918,1071.67 775.634,1071.63 777.35,1071.59 779.065,1071.55 780.781,1071.51 782.497,1071.47 784.213,1071.43 785.929,1071.39 787.645,1071.35 789.361,1071.32 791.077,1071.28 792.793,1071.24 794.509,1071.2 796.225,1071.16 797.941,1071.12 799.657,1071.08 801.372,1071.04 803.088,1071 804.804,1070.96 806.52,1070.92 808.236,1070.88 809.952,1070.84 811.668,1070.8 813.384,1070.76 815.1,1070.72 816.816,1070.68 818.532,1070.64 820.248,1070.6 821.963,1070.56 823.679,1070.51 825.395,1070.47 827.111,1070.43 828.827,1070.39 830.543,1070.35 832.259,1070.31 833.975,1070.27 835.691,1070.23 837.407,1070.19 839.123,1070.15 840.839,1070.11 842.555,1070.06 844.27,1070.02 845.986,1069.98 847.702,1069.94 849.418,1069.9 851.134,1069.86 852.85,1069.82 854.566,1069.77 856.282,1069.73 857.998,1069.69 859.714,1069.65 861.43,1069.61 863.146,1069.56 864.862,1069.52 866.577,1069.48 868.293,1069.44 870.009,1069.39 871.725,1069.35 873.441,1069.31 875.157,1069.27 876.873,1069.22 878.589,1069.18 880.305,1069.14 882.021,1069.1 883.737,1069.05 885.453,1069.01 887.169,1068.97 888.884,1068.92 890.6,1068.88 892.316,1068.84 894.032,1068.79 895.748,1068.75 897.464,1068.71 899.18,1068.66 900.896,1068.62 902.612,1068.58 904.328,1068.53 906.044,1068.49 907.76,1068.45 909.476,1068.4 911.191,1068.36 912.907,1068.31 914.623,1068.27 916.339,1068.23 918.055,1068.18 919.771,1068.14 921.487,1068.09 923.203,1068.05 924.919,1068 926.635,1067.96 928.351,1067.91 930.067,1067.87 931.782,1067.82 933.498,1067.78 935.214,1067.73 936.93,1067.69 938.646,1067.64 940.362,1067.6 942.078,1067.55 943.794,1067.51 945.51,1067.46 947.226,1067.42 948.942,1067.37 950.658,1067.32 952.374,1067.28 954.089,1067.23 955.805,1067.19 957.521,1067.14 959.237,1067.09 960.953,1067.05 962.669,1067 964.385,1066.96 966.101,1066.91 967.817,1066.86 969.533,1066.82 971.249,1066.77 972.965,1066.72 974.681,1066.67 976.396,1066.63 978.112,1066.58 979.828,1066.53 981.544,1066.49 983.26,1066.44 984.976,1066.39 986.692,1066.34 988.408,1066.3 990.124,1066.25 991.84,1066.2 993.556,1066.15 995.272,1066.11 996.988,1066.06 998.703,1066.01 1000.42,1065.96 1002.14,1065.91 1003.85,1065.86 1005.57,1065.82 1007.28,1065.77 1009,1065.72 1010.71,1065.67 1012.43,1065.62 1014.15,1065.57 1015.86,1065.52 1017.58,1065.47 1019.29,1065.42 1021.01,1065.38 1022.73,1065.33 1024.44,1065.28 1026.16,1065.23 1027.87,1065.18 1029.59,1065.13 1031.31,1065.08 1033.02,1065.03 1034.74,1064.98 1036.45,1064.93 1038.17,1064.88 1039.89,1064.83 1041.6,1064.78 1043.32,1064.72 1045.03,1064.67 1046.75,1064.62 1048.47,1064.57 1050.18,1064.52 1051.9,1064.47 1053.61,1064.42 1055.33,1064.37 1057.04,1064.32 1058.76,1064.27 1060.48,1064.21 1062.19,1064.16 1063.91,1064.11 1065.62,1064.06 1067.34,1064.01 1069.06,1063.95 1070.77,1063.9 1072.49,1063.85 1074.2,1063.8 1075.92,1063.75 1077.64,1063.69 1079.35,1063.64 1081.07,1063.59 1082.78,1063.53 1084.5,1063.48 1086.22,1063.43 1087.93,1063.38 1089.65,1063.32 1091.36,1063.27 1093.08,1063.22 1094.8,1063.16 1096.51,1063.11 1098.23,1063.06 1099.94,1063 1101.66,1062.95 1103.37,1062.89 1105.09,1062.84 1106.81,1062.79 1108.52,1062.73 1110.24,1062.68 1111.95,1062.62 1113.67,1062.57 1115.39,1062.51 1117.1,1062.46 1118.82,1062.4 1120.53,1062.35 1122.25,1062.29 1123.97,1062.24 1125.68,1062.18 1127.4,1062.13 1129.11,1062.07 1130.83,1062.02 1132.55,1061.96 1134.26,1061.9 1135.98,1061.85 1137.69,1061.79 1139.41,1061.74 1141.12,1061.68 1142.84,1061.62 1144.56,1061.57 1146.27,1061.51 1147.99,1061.45 1149.7,1061.4 1151.42,1061.34 1153.14,1061.28 1154.85,1061.23 1156.57,1061.17 1158.28,1061.11 1160,1061.05 1161.72,1060.99 1163.43,1060.94 1165.15,1060.88 1166.86,1060.82 1168.58,1060.76 1170.3,1060.7 1172.01,1060.65 1173.73,1060.59 1175.44,1060.53 1177.16,1060.47 1178.88,1060.41 1180.59,1060.35 1182.31,1060.29 1184.02,1060.23 1185.74,1060.17 1187.45,1060.11 1189.17,1060.05 1190.89,1059.99 1192.6,1059.93 1194.32,1059.87 1196.03,1059.81 1197.75,1059.75 1199.47,1059.69 1201.18,1059.63 1202.9,1059.57 1204.61,1059.51 1206.33,1059.45 1208.05,1059.39 1209.76,1059.32 1211.48,1059.26 1213.19,1059.2 1214.91,1059.14 1216.63,1059.08 1218.34,1059.01 1220.06,1058.95 1221.77,1058.89 1223.49,1058.83 1225.21,1058.76 1226.92,1058.7 1228.64,1058.64 1230.35,1058.57 1232.07,1058.51 1233.78,1058.45 1235.5,1058.38 1237.22,1058.32 1238.93,1058.26 1240.65,1058.19 1242.36,1058.13 1244.08,1058.06 1245.8,1058 1247.51,1057.93 1249.23,1057.87 1250.94,1057.8 1252.66,1057.74 1254.38,1057.67 1256.09,1057.6 1257.81,1057.54 1259.52,1057.47 1261.24,1057.41 1262.96,1057.34 1264.67,1057.27 1266.39,1057.21 1268.1,1057.14 1269.82,1057.07 1271.53,1057.01 1273.25,1056.94 1274.97,1056.87 1276.68,1056.8 1278.4,1056.73 1280.11,1056.67 1281.83,1056.6 1283.55,1056.53 1285.26,1056.46 1286.98,1056.39 1288.69,1056.32 1290.41,1056.25 1292.13,1056.18 1293.84,1056.11 1295.56,1056.04 1297.27,1055.97 1298.99,1055.9 1300.71,1055.83 1302.42,1055.76 1304.14,1055.69 1305.85,1055.62 1307.57,1055.55 1309.29,1055.48 1311,1055.41 1312.72,1055.34 1314.43,1055.26 1316.15,1055.19 1317.86,1055.12 1319.58,1055.05 1321.3,1054.97 1323.01,1054.9 1324.73,1054.83 1326.44,1054.75 1328.16,1054.68 1329.88,1054.61 1331.59,1054.53 1333.31,1054.46 1335.02,1054.38 1336.74,1054.31 1338.46,1054.24 1340.17,1054.16 1341.89,1054.09 1343.6,1054.01 1345.32,1053.93 1347.04,1053.86 1348.75,1053.78 1350.47,1053.71 1352.18,1053.63 1353.9,1053.55 1355.62,1053.48 1357.33,1053.4 1359.05,1053.32 1360.76,1053.24 1362.48,1053.17 1364.19,1053.09 1365.91,1053.01 1367.63,1052.93 1369.34,1052.85 1371.06,1052.77 1372.77,1052.68 1374.49,1052.6 1376.21,1052.52 1377.92,1052.44 1379.64,1052.36 1381.35,1052.27 1383.07,1052.19 1384.79,1052.11 1386.5,1052.02 1388.22,1051.94 1389.93,1051.85 1391.65,1051.77 1393.37,1051.68 1395.08,1051.6 1396.8,1051.51 1398.51,1051.43 1400.23,1051.34 1401.95,1051.25 1403.66,1051.17 1405.38,1051.08 1407.09,1051 1408.81,1050.91 1410.52,1050.82 1412.24,1050.73 1413.96,1050.65 1415.67,1050.56 1417.39,1050.47 1419.1,1050.38 1420.82,1050.29 1422.54,1050.2 1424.25,1050.12 1425.97,1050.03 1427.68,1049.94 1429.4,1049.85 1431.12,1049.76 1432.83,1049.67 1434.55,1049.58 1436.26,1049.49 1437.98,1049.4 1439.7,1049.31 1441.41,1049.22 1443.13,1049.13 1444.84,1049.04 1446.56,1048.95 1448.27,1048.85 1449.99,1048.76 1451.71,1048.67 1453.42,1048.58 1455.14,1048.49 1456.85,1048.4 1458.57,1048.3 1460.29,1048.21 1462,1048.12 1463.72,1048.02 1465.43,1047.93 1467.15,1047.84 1468.87,1047.74 1470.58,1047.65 1472.3,1047.56 1474.01,1047.46 1475.73,1047.37 1477.45,1047.27 1479.16,1047.18 1480.88,1047.08 1482.59,1046.99 1484.31,1046.89 1486.03,1046.8 1487.74,1046.7 1489.46,1046.6 1491.17,1046.51 1492.89,1046.41 1494.6,1046.31 1496.32,1046.21 1498.04,1046.12 1499.75,1046.02 1501.47,1045.92 1503.18,1045.82 1504.9,1045.72 1506.62,1045.62 1508.33,1045.52 1510.05,1045.42 1511.76,1045.32 1513.48,1045.22 1515.2,1045.12 1516.91,1045.01 1518.63,1044.91 1520.34,1044.81 1522.06,1044.71 1523.78,1044.6 1525.49,1044.5 1527.21,1044.39 1528.92,1044.29 1530.64,1044.18 1532.36,1044.08 1534.07,1043.97 1535.79,1043.87 1537.5,1043.76 1539.22,1043.65 1540.93,1043.54 1542.65,1043.44 1544.37,1043.33 1546.08,1043.22 1547.8,1043.11 1549.51,1043 1551.23,1042.88 1552.95,1042.77 1554.66,1042.66 1556.38,1042.55 1558.09,1042.43 1559.81,1042.32 1561.53,1042.21 1563.24,1042.09 1564.96,1041.97 1566.67,1041.86 1568.39,1041.74 1570.11,1041.62 1571.82,1041.51 1573.54,1041.39 1575.25,1041.27 1576.97,1041.15 1578.68,1041.03 1580.4,1040.9 1582.12,1040.78 1583.83,1040.66 1585.55,1040.54 1587.26,1040.41 1588.98,1040.29 1590.7,1040.16 1592.41,1040.03 1594.13,1039.91 1595.84,1039.78 1597.56,1039.65 1599.28,1039.52 1600.99,1039.39 1602.71,1039.26 1604.42,1039.13 1606.14,1039 1607.86,1038.86 1609.57,1038.73 1611.29,1038.59 1613,1038.46 1614.72,1038.32 1616.44,1038.19 1618.15,1038.05 1619.87,1037.91 1621.58,1037.77 1623.3,1037.63 1625.01,1037.49 1626.73,1037.35 1628.45,1037.2 1630.16,1037.06 1631.88,1036.92 1633.59,1036.77 1635.31,1036.62 1637.03,1036.48 1638.74,1036.33 1640.46,1036.18 1642.17,1036.03 1643.89,1035.88 1645.61,1035.73 1647.32,1035.58 1649.04,1035.42 1650.75,1035.27 1652.47,1035.12 1654.19,1034.96 1655.9,1034.8 1657.62,1034.65 1659.33,1034.49 1661.05,1034.33 1662.77,1034.17 1664.48,1034.01 1666.2,1033.85 1667.91,1033.68 1669.63,1033.52 1671.34,1033.36 1673.06,1033.19 1674.78,1033.03 1676.49,1032.86 1678.21,1032.69 1679.92,1032.52 1681.64,1032.35 1683.36,1032.18 1685.07,1032.01 1686.79,1031.84 1688.5,1031.67 1690.22,1031.49 1691.94,1031.31 1693.65,1031.14 1695.37,1030.96 1697.08,1030.78 1698.8,1030.59 1700.52,1030.41 1702.23,1030.23 1703.95,1030.04 1705.66,1029.85 1707.38,1029.66 1709.1,1029.47 1710.81,1029.28 1712.53,1029.09 1714.24,1028.9 1715.96,1028.7 1717.67,1028.51 1719.39,1028.31 1721.11,1028.11 1722.82,1027.91 1724.54,1027.71 1726.25,1027.51 1727.97,1027.31 1729.69,1027.11 1731.4,1026.9 1733.12,1026.69 1734.83,1026.48 1736.55,1026.27 1738.27,1026.06 1739.98,1025.85 1741.7,1025.64 1743.41,1025.42 1745.13,1025.2 1746.85,1024.98 1748.56,1024.76 1750.28,1024.54 1751.99,1024.31 1753.71,1024.08 1755.42,1023.86 1757.14,1023.62 1758.86,1023.39 1760.57,1023.15 1762.29,1022.92 1764,1022.68 1765.72,1022.43 1767.44,1022.19 1769.15,1021.94 1770.87,1021.69 1772.58,1021.44 1774.3,1021.18 1776.02,1020.93 1777.73,1020.67 1779.45,1020.4 1781.16,1020.14 1782.88,1019.87 1784.6,1019.59 1786.31,1019.32 1788.03,1019.04 1789.74,1018.76 1791.46,1018.48 1793.18,1018.19 1794.89,1017.9 1796.61,1017.6 1798.32,1017.31 1800.04,1017.01 1801.75,1016.7 1803.47,1016.39 1805.19,1016.08 1806.9,1015.77 1808.62,1015.45 1810.33,1015.13 1812.05,1014.81 1813.77,1014.48 1815.48,1014.14 1817.2,1013.8 1818.91,1013.46 1820.63,1013.11 1822.35,1012.75 1824.06,1012.4 1825.78,1012.04 1827.49,1011.67 1829.21,1011.3 1830.93,1010.93 1832.64,1010.55 1834.36,1010.16 1836.07,1009.78 1837.79,1009.38 1839.51,1008.98 1841.22,1008.58 1842.94,1008.17 1844.65,1007.75 1846.37,1007.33 1848.08,1006.9 1849.8,1006.46 1851.52,1006.01 1853.23,1005.56 1854.95,1005.1 1856.66,1004.62 1858.38,1004.14 1860.1,1003.65 1861.81,1003.15 1863.53,1002.64 1865.24,1002.12 1866.96,1001.59 1868.68,1001.04 1870.39,1000.49 1872.11,999.923 1873.82,999.346 1875.54,998.757 1877.26,998.154 1878.97,997.531 1880.69,996.892 1882.4,996.237 1884.12,995.569 1885.83,994.887 1887.55,994.191 1889.27,993.481 1890.98,992.754 1892.7,992.009 1894.41,991.244 1896.13,990.457 1897.85,989.644 1899.56,988.804 1901.28,987.934 1902.99,987.03 1904.71,986.092 1906.43,985.116 1908.14,984.1 1909.86,983.044 1911.57,981.945 1913.29,980.803 1915.01,979.606 1916.72,978.345 1918.44,977.03 1920.15,975.659 1921.87,974.226 1923.59,972.715 1925.3,971.109 1927.02,969.391 1928.73,967.543 1930.45,965.549 1932.16,963.4 1933.88,961.048 1935.6,958.491 1937.31,955.7 1939.03,952.575 1940.74,948.994 1942.46,944.846 1944.18,939.958 1945.89,934.036 1947.61,926.29 1949.32,915.49 1951.04,896.941 1952.76,149.032 "/>
</svg>
