<?xml version="1.0" encoding="utf-8"?>
<svg xmlns="http://www.w3.org/2000/svg" xmlns:xlink="http://www.w3.org/1999/xlink" width="500" height="320" viewBox="0 0 2000 1280">
<defs>
  <clipPath id="clip760">
    <rect x="0" y="0" width="2000" height="1280"/>
  </clipPath>
</defs>
<path clip-path="url(#clip760)" d="M0 1280 L2000 1280 L2000 0 L0 0  Z" fill="#ffffff" fill-rule="evenodd" fill-opacity="1"/>
<defs>
  <clipPath id="clip761">
    <rect x="400" y="0" width="1401" height="1280"/>
  </clipPath>
</defs>
<path clip-path="url(#clip760)" d="M236.234 1109.66 L1952.76 1109.66 L1952.76 121.053 L236.234 121.053  Z" fill="#ffffff" fill-rule="evenodd" fill-opacity="1"/>
<defs>
  <clipPath id="clip762">
    <rect x="236" y="121" width="1718" height="990"/>
  </clipPath>
</defs>
<polyline clip-path="url(#clip762)" style="stroke:#000000; stroke-linecap:round; stroke-linejoin:round; stroke-width:2; stroke-opacity:0.1; fill:none" points="284.815,1109.66 284.815,121.053 "/>
<polyline clip-path="url(#clip762)" style="stroke:#000000; stroke-linecap:round; stroke-linejoin:round; stroke-width:2; stroke-opacity:0.1; fill:none" points="824.601,1109.66 824.601,121.053 "/>
<polyline clip-path="url(#clip762)" style="stroke:#000000; stroke-linecap:round; stroke-linejoin:round; stroke-width:2; stroke-opacity:0.1; fill:none" points="1364.39,1109.66 1364.39,121.053 "/>
<polyline clip-path="url(#clip762)" style="stroke:#000000; stroke-linecap:round; stroke-linejoin:round; stroke-width:2; stroke-opacity:0.1; fill:none" points="1904.18,1109.66 1904.18,121.053 "/>
<polyline clip-path="url(#clip760)" style="stroke:#000000; stroke-linecap:round; stroke-linejoin:round; stroke-width:4; stroke-opacity:1; fill:none" points="236.234,1109.66 1952.76,1109.66 "/>
<polyline clip-path="url(#clip760)" style="stroke:#000000; stroke-linecap:round; stroke-linejoin:round; stroke-width:4; stroke-opacity:1; fill:none" points="284.815,1109.66 284.815,1090.77 "/>
<polyline clip-path="url(#clip760)" style="stroke:#000000; stroke-linecap:round; stroke-linejoin:round; stroke-width:4; stroke-opacity:1; fill:none" points="824.601,1109.66 824.601,1090.77 "/>
<polyline clip-path="url(#clip760)" style="stroke:#000000; stroke-linecap:round; stroke-linejoin:round; stroke-width:4; stroke-opacity:1; fill:none" points="1364.39,1109.66 1364.39,1090.77 "/>
<polyline clip-path="url(#clip760)" style="stroke:#000000; stroke-linecap:round; stroke-linejoin:round; stroke-width:4; stroke-opacity:1; fill:none" points="1904.18,1109.66 1904.18,1090.77 "/>
<path clip-path="url(#clip760)" d="M275.197 1164.93 L282.836 1164.93 L282.836 1138.56 L274.525 1140.23 L274.525 1135.97 L282.789 1134.3 L287.465 1134.3 L287.465 1164.93 L295.104 1164.93 L295.104 1168.86 L275.197 1168.86 L275.197 1164.93 Z" fill="#000000" fill-rule="nonzero" fill-opacity="1" /><path clip-path="url(#clip760)" d="M819.254 1164.93 L835.574 1164.93 L835.574 1168.86 L813.629 1168.86 L813.629 1164.93 Q816.291 1162.17 820.875 1157.54 Q825.481 1152.89 826.662 1151.55 Q828.907 1149.03 829.787 1147.29 Q830.689 1145.53 830.689 1143.84 Q830.689 1141.09 828.745 1139.35 Q826.824 1137.61 823.722 1137.61 Q821.523 1137.61 819.069 1138.38 Q816.639 1139.14 813.861 1140.69 L813.861 1135.97 Q816.685 1134.84 819.139 1134.26 Q821.592 1133.68 823.629 1133.68 Q829 1133.68 832.194 1136.36 Q835.388 1139.05 835.388 1143.54 Q835.388 1145.67 834.578 1147.59 Q833.791 1149.49 831.685 1152.08 Q831.106 1152.75 828.004 1155.97 Q824.902 1159.16 819.254 1164.93 Z" fill="#000000" fill-rule="nonzero" fill-opacity="1" /><path clip-path="url(#clip760)" d="M1368.64 1150.23 Q1371.99 1150.95 1373.87 1153.21 Q1375.77 1155.48 1375.77 1158.82 Q1375.77 1163.93 1372.25 1166.73 Q1368.73 1169.53 1362.25 1169.53 Q1360.07 1169.53 1357.76 1169.09 Q1355.46 1168.68 1353.01 1167.82 L1353.01 1163.31 Q1354.96 1164.44 1357.27 1165.02 Q1359.59 1165.6 1362.11 1165.6 Q1366.51 1165.6 1368.8 1163.86 Q1371.11 1162.13 1371.11 1158.82 Q1371.11 1155.76 1368.96 1154.05 Q1366.83 1152.31 1363.01 1152.31 L1358.98 1152.31 L1358.98 1148.47 L1363.2 1148.47 Q1366.65 1148.47 1368.47 1147.1 Q1370.3 1145.72 1370.3 1143.12 Q1370.3 1140.46 1368.4 1139.05 Q1366.53 1137.61 1363.01 1137.61 Q1361.09 1137.61 1358.89 1138.03 Q1356.69 1138.45 1354.05 1139.33 L1354.05 1135.16 Q1356.71 1134.42 1359.03 1134.05 Q1361.37 1133.68 1363.43 1133.68 Q1368.75 1133.68 1371.85 1136.11 Q1374.96 1138.52 1374.96 1142.64 Q1374.96 1145.51 1373.31 1147.5 Q1371.67 1149.46 1368.64 1150.23 Z" fill="#000000" fill-rule="nonzero" fill-opacity="1" /><path clip-path="url(#clip760)" d="M1907.18 1138.38 L1895.38 1156.83 L1907.18 1156.83 L1907.18 1138.38 M1905.96 1134.3 L1911.84 1134.3 L1911.84 1156.83 L1916.77 1156.83 L1916.77 1160.71 L1911.84 1160.71 L1911.84 1168.86 L1907.18 1168.86 L1907.18 1160.71 L1891.58 1160.71 L1891.58 1156.2 L1905.96 1134.3 Z" fill="#000000" fill-rule="nonzero" fill-opacity="1" /><path clip-path="url(#clip760)" d="M1093.56 1202.76 L1093.56 1212.88 L1105.62 1212.88 L1105.62 1217.43 L1093.56 1217.43 L1093.56 1236.78 Q1093.56 1241.14 1094.73 1242.38 Q1095.94 1243.63 1099.6 1243.63 L1105.62 1243.63 L1105.62 1248.53 L1099.6 1248.53 Q1092.82 1248.53 1090.25 1246.01 Q1087.67 1243.47 1087.67 1236.78 L1087.67 1217.43 L1083.37 1217.43 L1083.37 1212.88 L1087.67 1212.88 L1087.67 1202.76 L1093.56 1202.76 Z" fill="#000000" fill-rule="nonzero" fill-opacity="1" /><polyline clip-path="url(#clip762)" style="stroke:#000000; stroke-linecap:round; stroke-linejoin:round; stroke-width:2; stroke-opacity:0.1; fill:none" points="236.234,1109.66 1952.76,1109.66 "/>
<polyline clip-path="url(#clip762)" style="stroke:#000000; stroke-linecap:round; stroke-linejoin:round; stroke-width:2; stroke-opacity:0.1; fill:none" points="236.234,944.895 1952.76,944.895 "/>
<polyline clip-path="url(#clip762)" style="stroke:#000000; stroke-linecap:round; stroke-linejoin:round; stroke-width:2; stroke-opacity:0.1; fill:none" points="236.234,780.126 1952.76,780.126 "/>
<polyline clip-path="url(#clip762)" style="stroke:#000000; stroke-linecap:round; stroke-linejoin:round; stroke-width:2; stroke-opacity:0.1; fill:none" points="236.234,615.358 1952.76,615.358 "/>
<polyline clip-path="url(#clip762)" style="stroke:#000000; stroke-linecap:round; stroke-linejoin:round; stroke-width:2; stroke-opacity:0.1; fill:none" points="236.234,450.59 1952.76,450.59 "/>
<polyline clip-path="url(#clip762)" style="stroke:#000000; stroke-linecap:round; stroke-linejoin:round; stroke-width:2; stroke-opacity:0.1; fill:none" points="236.234,285.821 1952.76,285.821 "/>
<polyline clip-path="url(#clip762)" style="stroke:#000000; stroke-linecap:round; stroke-linejoin:round; stroke-width:2; stroke-opacity:0.1; fill:none" points="236.234,121.053 1952.76,121.053 "/>
<polyline clip-path="url(#clip760)" style="stroke:#000000; stroke-linecap:round; stroke-linejoin:round; stroke-width:4; stroke-opacity:1; fill:none" points="236.234,1109.66 236.234,121.053 "/>
<polyline clip-path="url(#clip760)" style="stroke:#000000; stroke-linecap:round; stroke-linejoin:round; stroke-width:4; stroke-opacity:1; fill:none" points="236.234,1109.66 255.132,1109.66 "/>
<polyline clip-path="url(#clip760)" style="stroke:#000000; stroke-linecap:round; stroke-linejoin:round; stroke-width:4; stroke-opacity:1; fill:none" points="236.234,944.895 255.132,944.895 "/>
<polyline clip-path="url(#clip760)" style="stroke:#000000; stroke-linecap:round; stroke-linejoin:round; stroke-width:4; stroke-opacity:1; fill:none" points="236.234,780.126 255.132,780.126 "/>
<polyline clip-path="url(#clip760)" style="stroke:#000000; stroke-linecap:round; stroke-linejoin:round; stroke-width:4; stroke-opacity:1; fill:none" points="236.234,615.358 255.132,615.358 "/>
<polyline clip-path="url(#clip760)" style="stroke:#000000; stroke-linecap:round; stroke-linejoin:round; stroke-width:4; stroke-opacity:1; fill:none" points="236.234,450.59 255.132,450.59 "/>
<polyline clip-path="url(#clip760)" style="stroke:#000000; stroke-linecap:round; stroke-linejoin:round; stroke-width:4; stroke-opacity:1; fill:none" points="236.234,285.821 255.132,285.821 "/>
<polyline clip-path="url(#clip760)" style="stroke:#000000; stroke-linecap:round; stroke-linejoin:round; stroke-width:4; stroke-opacity:1; fill:none" points="236.234,121.053 255.132,121.053 "/>
<path clip-path="url(#clip760)" d="M114.359 1110.11 L144.035 1110.11 L144.035 1114.05 L114.359 1114.05 L114.359 1110.11 Z" fill="#000000" fill-rule="nonzero" fill-opacity="1" /><path clip-path="url(#clip760)" d="M164.706 1107.8 Q161.558 1107.8 159.706 1109.95 Q157.878 1112.11 157.878 1115.86 Q157.878 1119.58 159.706 1121.76 Q161.558 1123.91 164.706 1123.91 Q167.854 1123.91 169.683 1121.76 Q171.535 1119.58 171.535 1115.86 Q171.535 1112.11 169.683 1109.95 Q167.854 1107.8 164.706 1107.8 M173.989 1093.15 L173.989 1097.41 Q172.229 1096.57 170.424 1096.13 Q168.641 1095.69 166.882 1095.69 Q162.253 1095.69 159.799 1098.82 Q157.368 1101.94 157.021 1108.26 Q158.387 1106.25 160.447 1105.18 Q162.507 1104.1 164.984 1104.1 Q170.192 1104.1 173.202 1107.27 Q176.234 1110.42 176.234 1115.86 Q176.234 1121.18 173.086 1124.4 Q169.938 1127.61 164.706 1127.61 Q158.711 1127.61 155.54 1123.03 Q152.368 1118.42 152.368 1109.7 Q152.368 1101.5 156.257 1096.64 Q160.146 1091.76 166.697 1091.76 Q168.456 1091.76 170.239 1092.11 Q172.044 1092.45 173.989 1093.15 Z" fill="#000000" fill-rule="nonzero" fill-opacity="1" /><path clip-path="url(#clip760)" d="M194.289 1095.46 Q190.678 1095.46 188.85 1099.03 Q187.044 1102.57 187.044 1109.7 Q187.044 1116.8 188.85 1120.37 Q190.678 1123.91 194.289 1123.91 Q197.924 1123.91 199.729 1120.37 Q201.558 1116.8 201.558 1109.7 Q201.558 1102.57 199.729 1099.03 Q197.924 1095.46 194.289 1095.46 M194.289 1091.76 Q200.1 1091.76 203.155 1096.36 Q206.234 1100.95 206.234 1109.7 Q206.234 1118.42 203.155 1123.03 Q200.1 1127.61 194.289 1127.61 Q188.479 1127.61 185.401 1123.03 Q182.345 1118.42 182.345 1109.7 Q182.345 1100.95 185.401 1096.36 Q188.479 1091.76 194.289 1091.76 Z" fill="#000000" fill-rule="nonzero" fill-opacity="1" /><path clip-path="url(#clip760)" d="M114.359 945.346 L144.035 945.346 L144.035 949.281 L114.359 949.281 L114.359 945.346 Z" fill="#000000" fill-rule="nonzero" fill-opacity="1" /><path clip-path="url(#clip760)" d="M166.975 931.689 L155.169 950.138 L166.975 950.138 L166.975 931.689 M165.748 927.615 L171.628 927.615 L171.628 950.138 L176.558 950.138 L176.558 954.027 L171.628 954.027 L171.628 962.175 L166.975 962.175 L166.975 954.027 L151.373 954.027 L151.373 949.513 L165.748 927.615 Z" fill="#000000" fill-rule="nonzero" fill-opacity="1" /><path clip-path="url(#clip760)" d="M194.289 930.693 Q190.678 930.693 188.85 934.258 Q187.044 937.8 187.044 944.929 Q187.044 952.036 188.85 955.601 Q190.678 959.142 194.289 959.142 Q197.924 959.142 199.729 955.601 Q201.558 952.036 201.558 944.929 Q201.558 937.8 199.729 934.258 Q197.924 930.693 194.289 930.693 M194.289 926.99 Q200.1 926.99 203.155 931.596 Q206.234 936.179 206.234 944.929 Q206.234 953.656 203.155 958.263 Q200.1 962.846 194.289 962.846 Q188.479 962.846 185.401 958.263 Q182.345 953.656 182.345 944.929 Q182.345 936.179 185.401 931.596 Q188.479 926.99 194.289 926.99 Z" fill="#000000" fill-rule="nonzero" fill-opacity="1" /><path clip-path="url(#clip760)" d="M114.359 780.578 L144.035 780.578 L144.035 784.513 L114.359 784.513 L114.359 780.578 Z" fill="#000000" fill-rule="nonzero" fill-opacity="1" /><path clip-path="url(#clip760)" d="M158.155 793.471 L174.475 793.471 L174.475 797.406 L152.53 797.406 L152.53 793.471 Q155.192 790.717 159.776 786.087 Q164.382 781.434 165.563 780.092 Q167.808 777.568 168.688 775.832 Q169.591 774.073 169.591 772.383 Q169.591 769.629 167.646 767.893 Q165.725 766.157 162.623 766.157 Q160.424 766.157 157.97 766.92 Q155.54 767.684 152.762 769.235 L152.762 764.513 Q155.586 763.379 158.04 762.8 Q160.493 762.221 162.53 762.221 Q167.901 762.221 171.095 764.907 Q174.29 767.592 174.29 772.082 Q174.29 774.212 173.479 776.133 Q172.692 778.031 170.586 780.624 Q170.007 781.295 166.905 784.513 Q163.804 787.707 158.155 793.471 Z" fill="#000000" fill-rule="nonzero" fill-opacity="1" /><path clip-path="url(#clip760)" d="M194.289 765.925 Q190.678 765.925 188.85 769.49 Q187.044 773.031 187.044 780.161 Q187.044 787.268 188.85 790.832 Q190.678 794.374 194.289 794.374 Q197.924 794.374 199.729 790.832 Q201.558 787.268 201.558 780.161 Q201.558 773.031 199.729 769.49 Q197.924 765.925 194.289 765.925 M194.289 762.221 Q200.1 762.221 203.155 766.828 Q206.234 771.411 206.234 780.161 Q206.234 788.888 203.155 793.494 Q200.1 798.078 194.289 798.078 Q188.479 798.078 185.401 793.494 Q182.345 788.888 182.345 780.161 Q182.345 771.411 185.401 766.828 Q188.479 762.221 194.289 762.221 Z" fill="#000000" fill-rule="nonzero" fill-opacity="1" /><path clip-path="url(#clip760)" d="M194.289 601.157 Q190.678 601.157 188.85 604.721 Q187.044 608.263 187.044 615.393 Q187.044 622.499 188.85 626.064 Q190.678 629.606 194.289 629.606 Q197.924 629.606 199.729 626.064 Q201.558 622.499 201.558 615.393 Q201.558 608.263 199.729 604.721 Q197.924 601.157 194.289 601.157 M194.289 597.453 Q200.1 597.453 203.155 602.059 Q206.234 606.643 206.234 615.393 Q206.234 624.12 203.155 628.726 Q200.1 633.309 194.289 633.309 Q188.479 633.309 185.401 628.726 Q182.345 624.12 182.345 615.393 Q182.345 606.643 185.401 602.059 Q188.479 597.453 194.289 597.453 Z" fill="#000000" fill-rule="nonzero" fill-opacity="1" /><path clip-path="url(#clip760)" d="M158.155 463.934 L174.475 463.934 L174.475 467.87 L152.53 467.87 L152.53 463.934 Q155.192 461.18 159.776 456.55 Q164.382 451.897 165.563 450.555 Q167.808 448.032 168.688 446.296 Q169.591 444.536 169.591 442.847 Q169.591 440.092 167.646 438.356 Q165.725 436.62 162.623 436.62 Q160.424 436.62 157.97 437.384 Q155.54 438.148 152.762 439.698 L152.762 434.976 Q155.586 433.842 158.04 433.263 Q160.493 432.685 162.53 432.685 Q167.901 432.685 171.095 435.37 Q174.29 438.055 174.29 442.546 Q174.29 444.675 173.479 446.597 Q172.692 448.495 170.586 451.087 Q170.007 451.759 166.905 454.976 Q163.804 458.171 158.155 463.934 Z" fill="#000000" fill-rule="nonzero" fill-opacity="1" /><path clip-path="url(#clip760)" d="M194.289 436.388 Q190.678 436.388 188.85 439.953 Q187.044 443.495 187.044 450.624 Q187.044 457.731 188.85 461.296 Q190.678 464.837 194.289 464.837 Q197.924 464.837 199.729 461.296 Q201.558 457.731 201.558 450.624 Q201.558 443.495 199.729 439.953 Q197.924 436.388 194.289 436.388 M194.289 432.685 Q200.1 432.685 203.155 437.291 Q206.234 441.874 206.234 450.624 Q206.234 459.351 203.155 463.958 Q200.1 468.541 194.289 468.541 Q188.479 468.541 185.401 463.958 Q182.345 459.351 182.345 450.624 Q182.345 441.874 185.401 437.291 Q188.479 432.685 194.289 432.685 Z" fill="#000000" fill-rule="nonzero" fill-opacity="1" /><path clip-path="url(#clip760)" d="M166.975 272.615 L155.169 291.064 L166.975 291.064 L166.975 272.615 M165.748 268.541 L171.628 268.541 L171.628 291.064 L176.558 291.064 L176.558 294.953 L171.628 294.953 L171.628 303.101 L166.975 303.101 L166.975 294.953 L151.373 294.953 L151.373 290.439 L165.748 268.541 Z" fill="#000000" fill-rule="nonzero" fill-opacity="1" /><path clip-path="url(#clip760)" d="M194.289 271.62 Q190.678 271.62 188.85 275.185 Q187.044 278.726 187.044 285.856 Q187.044 292.962 188.85 296.527 Q190.678 300.069 194.289 300.069 Q197.924 300.069 199.729 296.527 Q201.558 292.962 201.558 285.856 Q201.558 278.726 199.729 275.185 Q197.924 271.62 194.289 271.62 M194.289 267.916 Q200.1 267.916 203.155 272.523 Q206.234 277.106 206.234 285.856 Q206.234 294.583 203.155 299.189 Q200.1 303.773 194.289 303.773 Q188.479 303.773 185.401 299.189 Q182.345 294.583 182.345 285.856 Q182.345 277.106 185.401 272.523 Q188.479 267.916 194.289 267.916 Z" fill="#000000" fill-rule="nonzero" fill-opacity="1" /><path clip-path="url(#clip760)" d="M164.706 119.19 Q161.558 119.19 159.706 121.342 Q157.878 123.495 157.878 127.245 Q157.878 130.972 159.706 133.148 Q161.558 135.301 164.706 135.301 Q167.854 135.301 169.683 133.148 Q171.535 130.972 171.535 127.245 Q171.535 123.495 169.683 121.342 Q167.854 119.19 164.706 119.19 M173.989 104.537 L173.989 108.796 Q172.229 107.963 170.424 107.523 Q168.641 107.083 166.882 107.083 Q162.253 107.083 159.799 110.208 Q157.368 113.333 157.021 119.652 Q158.387 117.639 160.447 116.574 Q162.507 115.486 164.984 115.486 Q170.192 115.486 173.202 118.657 Q176.234 121.805 176.234 127.245 Q176.234 132.569 173.086 135.787 Q169.938 139.004 164.706 139.004 Q158.711 139.004 155.54 134.421 Q152.368 129.814 152.368 121.088 Q152.368 112.893 156.257 108.032 Q160.146 103.148 166.697 103.148 Q168.456 103.148 170.239 103.495 Q172.044 103.842 173.989 104.537 Z" fill="#000000" fill-rule="nonzero" fill-opacity="1" /><path clip-path="url(#clip760)" d="M194.289 106.852 Q190.678 106.852 188.85 110.416 Q187.044 113.958 187.044 121.088 Q187.044 128.194 188.85 131.759 Q190.678 135.301 194.289 135.301 Q197.924 135.301 199.729 131.759 Q201.558 128.194 201.558 121.088 Q201.558 113.958 199.729 110.416 Q197.924 106.852 194.289 106.852 M194.289 103.148 Q200.1 103.148 203.155 107.754 Q206.234 112.338 206.234 121.088 Q206.234 129.814 203.155 134.421 Q200.1 139.004 194.289 139.004 Q188.479 139.004 185.401 134.421 Q182.345 129.814 182.345 121.088 Q182.345 112.338 185.401 107.754 Q188.479 103.148 194.289 103.148 Z" fill="#000000" fill-rule="nonzero" fill-opacity="1" /><path clip-path="url(#clip760)" d="M34.4554 598.743 L51.802 611.634 L70.1034 598.075 L70.1034 604.982 L56.0988 615.358 L70.1034 625.734 L70.1034 632.641 L51.4518 618.795 L34.4554 631.463 L34.4554 624.556 L47.155 615.103 L34.4554 605.65 L34.4554 598.743 Z" fill="#000000" fill-rule="nonzero" fill-opacity="1" /><path clip-path="url(#clip760)" d="M418.966 18.8205 L418.966 41.5461 L429.255 41.5461 Q434.967 41.5461 438.086 38.5889 Q441.206 35.6318 441.206 30.163 Q441.206 24.7348 438.086 21.7777 Q434.967 18.8205 429.255 18.8205 L418.966 18.8205 M410.783 12.096 L429.255 12.096 Q439.423 12.096 444.608 16.714 Q449.834 21.2916 449.834 30.163 Q449.834 39.1155 444.608 43.6931 Q439.423 48.2706 429.255 48.2706 L418.966 48.2706 L418.966 72.576 L410.783 72.576 L410.783 12.096 Z" fill="#000000" fill-rule="nonzero" fill-opacity="1" /><path clip-path="url(#clip760)" d="M458.665 27.2059 L466.119 27.2059 L466.119 72.576 L458.665 72.576 L458.665 27.2059 M458.665 9.54393 L466.119 9.54393 L466.119 18.9825 L458.665 18.9825 L458.665 9.54393 Z" fill="#000000" fill-rule="nonzero" fill-opacity="1" /><path clip-path="url(#clip760)" d="M514.365 28.9478 L514.365 35.9153 Q511.205 34.1734 508.005 33.3227 Q504.845 32.4315 501.605 32.4315 Q494.353 32.4315 490.343 37.0496 Q486.333 41.6271 486.333 49.9314 Q486.333 58.2358 490.343 62.8538 Q494.353 67.4314 501.605 67.4314 Q504.845 67.4314 508.005 66.5807 Q511.205 65.6895 514.365 63.9476 L514.365 70.8341 Q511.246 72.2924 507.883 73.0216 Q504.562 73.7508 500.794 73.7508 Q490.546 73.7508 484.51 67.3098 Q478.474 60.8689 478.474 49.9314 Q478.474 38.832 484.55 32.472 Q490.667 26.1121 501.28 26.1121 Q504.724 26.1121 508.005 26.8413 Q511.286 27.5299 514.365 28.9478 Z" fill="#000000" fill-rule="nonzero" fill-opacity="1" /><path clip-path="url(#clip760)" d="M527.044 9.54393 L534.538 9.54393 L534.538 46.7717 L556.778 27.2059 L566.297 27.2059 L542.235 48.4326 L567.31 72.576 L557.588 72.576 L534.538 50.4176 L534.538 72.576 L527.044 72.576 L527.044 9.54393 Z" fill="#000000" fill-rule="nonzero" fill-opacity="1" /><path clip-path="url(#clip760)" d="M575.372 27.2059 L582.825 27.2059 L582.825 72.576 L575.372 72.576 L575.372 27.2059 M575.372 9.54393 L582.825 9.54393 L582.825 18.9825 L575.372 18.9825 L575.372 9.54393 Z" fill="#000000" fill-rule="nonzero" fill-opacity="1" /><path clip-path="url(#clip760)" d="M636.135 45.1919 L636.135 72.576 L628.681 72.576 L628.681 45.4349 Q628.681 38.994 626.17 35.7938 Q623.658 32.5936 618.635 32.5936 Q612.599 32.5936 609.116 36.4419 Q605.632 40.2903 605.632 46.9338 L605.632 72.576 L598.138 72.576 L598.138 27.2059 L605.632 27.2059 L605.632 34.2544 Q608.305 30.163 611.911 28.1376 Q615.556 26.1121 620.296 26.1121 Q628.114 26.1121 632.125 30.9732 Q636.135 35.7938 636.135 45.1919 Z" fill="#000000" fill-rule="nonzero" fill-opacity="1" /><path clip-path="url(#clip760)" d="M680.857 49.3643 Q680.857 41.2625 677.495 36.8065 Q674.173 32.3505 668.137 32.3505 Q662.142 32.3505 658.78 36.8065 Q655.458 41.2625 655.458 49.3643 Q655.458 57.4256 658.78 61.8816 Q662.142 66.3376 668.137 66.3376 Q674.173 66.3376 677.495 61.8816 Q680.857 57.4256 680.857 49.3643 M688.311 66.9452 Q688.311 78.5308 683.166 84.1616 Q678.021 89.8329 667.408 89.8329 Q663.479 89.8329 659.995 89.2252 Q656.511 88.6581 653.23 87.4428 L653.23 80.1917 Q656.511 81.9741 659.711 82.8248 Q662.912 83.6755 666.233 83.6755 Q673.565 83.6755 677.211 79.8271 Q680.857 76.0193 680.857 68.282 L680.857 64.5957 Q678.548 68.6061 674.943 70.5911 Q671.337 72.576 666.314 72.576 Q657.969 72.576 652.865 66.2161 Q647.761 59.8562 647.761 49.3643 Q647.761 38.832 652.865 32.472 Q657.969 26.1121 666.314 26.1121 Q671.337 26.1121 674.943 28.0971 Q678.548 30.082 680.857 34.0924 L680.857 27.2059 L688.311 27.2059 L688.311 66.9452 Z" fill="#000000" fill-rule="nonzero" fill-opacity="1" /><path clip-path="url(#clip760)" d="M737.408 14.324 L737.408 27.2059 L752.761 27.2059 L752.761 32.9987 L737.408 32.9987 L737.408 57.6282 Q737.408 63.1779 738.907 64.7578 Q740.446 66.3376 745.104 66.3376 L752.761 66.3376 L752.761 72.576 L745.104 72.576 Q736.476 72.576 733.195 69.3758 Q729.914 66.1351 729.914 57.6282 L729.914 32.9987 L724.445 32.9987 L724.445 27.2059 L729.914 27.2059 L729.914 14.324 L737.408 14.324 Z" fill="#000000" fill-rule="nonzero" fill-opacity="1" /><path clip-path="url(#clip760)" d="M800.278 45.1919 L800.278 72.576 L792.824 72.576 L792.824 45.4349 Q792.824 38.994 790.312 35.7938 Q787.801 32.5936 782.778 32.5936 Q776.742 32.5936 773.258 36.4419 Q769.774 40.2903 769.774 46.9338 L769.774 72.576 L762.28 72.576 L762.28 9.54393 L769.774 9.54393 L769.774 34.2544 Q772.448 30.163 776.053 28.1376 Q779.699 26.1121 784.439 26.1121 Q792.257 26.1121 796.267 30.9732 Q800.278 35.7938 800.278 45.1919 Z" fill="#000000" fill-rule="nonzero" fill-opacity="1" /><path clip-path="url(#clip760)" d="M853.952 48.0275 L853.952 51.6733 L819.682 51.6733 Q820.168 59.3701 824.3 63.421 Q828.472 67.4314 835.885 67.4314 Q840.179 67.4314 844.19 66.3781 Q848.24 65.3249 852.21 63.2184 L852.21 70.267 Q848.2 71.9684 843.987 72.8596 Q839.774 73.7508 835.44 73.7508 Q824.583 73.7508 818.223 67.4314 Q811.904 61.1119 811.904 50.3365 Q811.904 39.1965 817.899 32.6746 Q823.935 26.1121 834.143 26.1121 Q843.298 26.1121 848.605 32.0264 Q853.952 37.9003 853.952 48.0275 M846.499 45.84 Q846.418 39.7232 843.055 36.0774 Q839.734 32.4315 834.224 32.4315 Q827.986 32.4315 824.219 35.9558 Q820.492 39.4801 819.925 45.8805 L846.499 45.84 Z" fill="#000000" fill-rule="nonzero" fill-opacity="1" /><path clip-path="url(#clip760)" d="M921.481 28.5427 L921.481 35.5912 Q918.321 33.9709 914.918 33.1607 Q911.516 32.3505 907.87 32.3505 Q902.32 32.3505 899.525 34.0519 Q896.77 35.7533 896.77 39.156 Q896.77 41.7486 898.755 43.2475 Q900.74 44.7058 906.735 46.0426 L909.288 46.6097 Q917.227 48.3111 920.549 51.4303 Q923.911 54.509 923.911 60.0587 Q923.911 66.3781 918.888 70.0644 Q913.906 73.7508 905.156 73.7508 Q901.51 73.7508 897.54 73.0216 Q893.611 72.3329 889.236 70.9151 L889.236 63.2184 Q893.367 65.3654 897.378 66.4591 Q901.388 67.5124 905.318 67.5124 Q910.584 67.5124 913.419 65.73 Q916.255 63.9071 916.255 60.6258 Q916.255 57.5877 914.189 55.9673 Q912.164 54.3469 905.237 52.8481 L902.644 52.2405 Q895.717 50.7821 892.638 47.7845 Q889.56 44.7463 889.56 39.4801 Q889.56 33.0797 894.097 29.5959 Q898.634 26.1121 906.979 26.1121 Q911.11 26.1121 914.756 26.7198 Q918.402 27.3274 921.481 28.5427 Z" fill="#000000" fill-rule="nonzero" fill-opacity="1" /><path clip-path="url(#clip760)" d="M953.361 32.4315 Q947.366 32.4315 943.882 37.1306 Q940.398 41.7891 940.398 49.9314 Q940.398 58.0738 943.842 62.7728 Q947.326 67.4314 953.361 67.4314 Q959.316 67.4314 962.8 62.7323 Q966.284 58.0333 966.284 49.9314 Q966.284 41.8701 962.8 37.1711 Q959.316 32.4315 953.361 32.4315 M953.361 26.1121 Q963.084 26.1121 968.633 32.4315 Q974.183 38.7509 974.183 49.9314 Q974.183 61.0714 968.633 67.4314 Q963.084 73.7508 953.361 73.7508 Q943.599 73.7508 938.049 67.4314 Q932.54 61.0714 932.54 49.9314 Q932.54 38.7509 938.049 32.4315 Q943.599 26.1121 953.361 26.1121 Z" fill="#000000" fill-rule="nonzero" fill-opacity="1" /><path clip-path="url(#clip760)" d="M986.538 9.54393 L993.992 9.54393 L993.992 72.576 L986.538 72.576 L986.538 9.54393 Z" fill="#000000" fill-rule="nonzero" fill-opacity="1" /><path clip-path="url(#clip760)" d="M1008.82 54.671 L1008.82 27.2059 L1016.27 27.2059 L1016.27 54.3874 Q1016.27 60.8284 1018.78 64.0691 Q1021.3 67.2693 1026.32 67.2693 Q1032.35 67.2693 1035.84 63.421 Q1039.36 59.5726 1039.36 52.9291 L1039.36 27.2059 L1046.82 27.2059 L1046.82 72.576 L1039.36 72.576 L1039.36 65.6084 Q1036.65 69.7404 1033.04 71.7658 Q1029.48 73.7508 1024.74 73.7508 Q1016.92 73.7508 1012.87 68.8897 Q1008.82 64.0286 1008.82 54.671 M1027.57 26.1121 L1027.57 26.1121 Z" fill="#000000" fill-rule="nonzero" fill-opacity="1" /><path clip-path="url(#clip760)" d="M1069.54 14.324 L1069.54 27.2059 L1084.89 27.2059 L1084.89 32.9987 L1069.54 32.9987 L1069.54 57.6282 Q1069.54 63.1779 1071.04 64.7578 Q1072.58 66.3376 1077.24 66.3376 L1084.89 66.3376 L1084.89 72.576 L1077.24 72.576 Q1068.61 72.576 1065.33 69.3758 Q1062.05 66.1351 1062.05 57.6282 L1062.05 32.9987 L1056.58 32.9987 L1056.58 27.2059 L1062.05 27.2059 L1062.05 14.324 L1069.54 14.324 Z" fill="#000000" fill-rule="nonzero" fill-opacity="1" /><path clip-path="url(#clip760)" d="M1094.7 27.2059 L1102.15 27.2059 L1102.15 72.576 L1094.7 72.576 L1094.7 27.2059 M1094.7 9.54393 L1102.15 9.54393 L1102.15 18.9825 L1094.7 18.9825 L1094.7 9.54393 Z" fill="#000000" fill-rule="nonzero" fill-opacity="1" /><path clip-path="url(#clip760)" d="M1135.33 32.4315 Q1129.33 32.4315 1125.85 37.1306 Q1122.37 41.7891 1122.37 49.9314 Q1122.37 58.0738 1125.81 62.7728 Q1129.29 67.4314 1135.33 67.4314 Q1141.28 67.4314 1144.77 62.7323 Q1148.25 58.0333 1148.25 49.9314 Q1148.25 41.8701 1144.77 37.1711 Q1141.28 32.4315 1135.33 32.4315 M1135.33 26.1121 Q1145.05 26.1121 1150.6 32.4315 Q1156.15 38.7509 1156.15 49.9314 Q1156.15 61.0714 1150.6 67.4314 Q1145.05 73.7508 1135.33 73.7508 Q1125.57 73.7508 1120.02 67.4314 Q1114.51 61.0714 1114.51 49.9314 Q1114.51 38.7509 1120.02 32.4315 Q1125.57 26.1121 1135.33 26.1121 Z" fill="#000000" fill-rule="nonzero" fill-opacity="1" /><path clip-path="url(#clip760)" d="M1206.22 45.1919 L1206.22 72.576 L1198.77 72.576 L1198.77 45.4349 Q1198.77 38.994 1196.25 35.7938 Q1193.74 32.5936 1188.72 32.5936 Q1182.68 32.5936 1179.2 36.4419 Q1175.72 40.2903 1175.72 46.9338 L1175.72 72.576 L1168.22 72.576 L1168.22 27.2059 L1175.72 27.2059 L1175.72 34.2544 Q1178.39 30.163 1181.99 28.1376 Q1185.64 26.1121 1190.38 26.1121 Q1198.2 26.1121 1202.21 30.9732 Q1206.22 35.7938 1206.22 45.1919 Z" fill="#000000" fill-rule="nonzero" fill-opacity="1" /><path clip-path="url(#clip760)" d="M1243.12 27.2059 L1250.58 27.2059 L1259.89 62.6108 L1269.17 27.2059 L1277.96 27.2059 L1287.28 62.6108 L1296.55 27.2059 L1304.01 27.2059 L1292.14 72.576 L1283.35 72.576 L1273.59 35.3887 L1263.78 72.576 L1254.99 72.576 L1243.12 27.2059 Z" fill="#000000" fill-rule="nonzero" fill-opacity="1" /><path clip-path="url(#clip760)" d="M1315.31 27.2059 L1322.76 27.2059 L1322.76 72.576 L1315.31 72.576 L1315.31 27.2059 M1315.31 9.54393 L1322.76 9.54393 L1322.76 18.9825 L1315.31 18.9825 L1315.31 9.54393 Z" fill="#000000" fill-rule="nonzero" fill-opacity="1" /><path clip-path="url(#clip760)" d="M1345.73 14.324 L1345.73 27.2059 L1361.08 27.2059 L1361.08 32.9987 L1345.73 32.9987 L1345.73 57.6282 Q1345.73 63.1779 1347.23 64.7578 Q1348.77 66.3376 1353.43 66.3376 L1361.08 66.3376 L1361.08 72.576 L1353.43 72.576 Q1344.8 72.576 1341.52 69.3758 Q1338.24 66.1351 1338.24 57.6282 L1338.24 32.9987 L1332.77 32.9987 L1332.77 27.2059 L1338.24 27.2059 L1338.24 14.324 L1345.73 14.324 Z" fill="#000000" fill-rule="nonzero" fill-opacity="1" /><path clip-path="url(#clip760)" d="M1408.6 45.1919 L1408.6 72.576 L1401.15 72.576 L1401.15 45.4349 Q1401.15 38.994 1398.64 35.7938 Q1396.13 32.5936 1391.1 32.5936 Q1385.07 32.5936 1381.58 36.4419 Q1378.1 40.2903 1378.1 46.9338 L1378.1 72.576 L1370.6 72.576 L1370.6 9.54393 L1378.1 9.54393 L1378.1 34.2544 Q1380.77 30.163 1384.38 28.1376 Q1388.02 26.1121 1392.76 26.1121 Q1400.58 26.1121 1404.59 30.9732 Q1408.6 35.7938 1408.6 45.1919 Z" fill="#000000" fill-rule="nonzero" fill-opacity="1" /><path clip-path="url(#clip760)" d="M1487.55 27.2059 L1471.15 49.2833 L1488.4 72.576 L1479.61 72.576 L1466.41 54.752 L1453.2 72.576 L1444.41 72.576 L1462.03 48.8377 L1445.91 27.2059 L1454.7 27.2059 L1466.73 43.369 L1478.76 27.2059 L1487.55 27.2059 Z" fill="#000000" fill-rule="nonzero" fill-opacity="1" /><path clip-path="url(#clip760)" d="M1516.84 9.62495 Q1511.41 18.942 1508.78 28.0566 Q1506.15 37.1711 1506.15 46.5287 Q1506.15 55.8863 1508.78 65.0818 Q1511.45 74.2369 1516.84 83.5134 L1510.36 83.5134 Q1504.28 73.9938 1501.25 64.7983 Q1498.25 55.6027 1498.25 46.5287 Q1498.25 37.4952 1501.25 28.3401 Q1504.24 19.1851 1510.36 9.62495 L1516.84 9.62495 Z" fill="#000000" fill-rule="nonzero" fill-opacity="1" /><path clip-path="url(#clip760)" d="M1557.15 39.9662 Q1563.02 41.222 1566.3 45.1919 Q1569.63 49.1618 1569.63 54.9951 Q1569.63 63.9476 1563.47 68.8492 Q1557.31 73.7508 1545.97 73.7508 Q1542.16 73.7508 1538.11 72.9811 Q1534.1 72.2519 1529.81 70.7531 L1529.81 62.8538 Q1533.21 64.8388 1537.26 65.8515 Q1541.31 66.8642 1545.73 66.8642 Q1553.42 66.8642 1557.43 63.826 Q1561.48 60.7879 1561.48 54.9951 Q1561.48 49.6479 1557.72 46.6502 Q1553.99 43.612 1547.3 43.612 L1540.26 43.612 L1540.26 36.8875 L1547.63 36.8875 Q1553.66 36.8875 1556.87 34.4975 Q1560.07 32.067 1560.07 27.5299 Q1560.07 22.8714 1556.74 20.4004 Q1553.46 17.8888 1547.3 17.8888 Q1543.94 17.8888 1540.09 18.618 Q1536.25 19.3471 1531.63 20.8865 L1531.63 13.5948 Q1536.29 12.2985 1540.34 11.6504 Q1544.43 11.0023 1548.03 11.0023 Q1557.35 11.0023 1562.78 15.2557 Q1568.21 19.4686 1568.21 26.6793 Q1568.21 31.7024 1565.33 35.1862 Q1562.46 38.6294 1557.15 39.9662 Z" fill="#000000" fill-rule="nonzero" fill-opacity="1" /><path clip-path="url(#clip760)" d="M1582.91 9.62495 L1589.39 9.62495 Q1595.47 19.1851 1598.47 28.3401 Q1601.51 37.4952 1601.51 46.5287 Q1601.51 55.6027 1598.47 64.7983 Q1595.47 73.9938 1589.39 83.5134 L1582.91 83.5134 Q1588.3 74.2369 1590.93 65.0818 Q1593.61 55.8863 1593.61 46.5287 Q1593.61 37.1711 1590.93 28.0566 Q1588.3 18.942 1582.91 9.62495 Z" fill="#000000" fill-rule="nonzero" fill-opacity="1" /><path clip-path="url(#clip760)" d="M1617.43 34.9026 L1669.36 34.9026 L1669.36 41.7081 L1617.43 41.7081 L1617.43 34.9026 M1617.43 51.4303 L1669.36 51.4303 L1669.36 58.3168 L1617.43 58.3168 L1617.43 51.4303 Z" fill="#000000" fill-rule="nonzero" fill-opacity="1" /><path clip-path="url(#clip760)" d="M1694.07 65.6895 L1722.63 65.6895 L1722.63 72.576 L1684.23 72.576 L1684.23 65.6895 Q1688.88 60.8689 1696.9 52.7671 Q1704.97 44.6248 1707.03 42.2752 Q1710.96 37.8598 1712.5 34.8216 Q1714.08 31.7429 1714.08 28.7857 Q1714.08 23.9651 1710.68 20.927 Q1707.32 17.8888 1701.89 17.8888 Q1698.04 17.8888 1693.75 19.2256 Q1689.49 20.5624 1684.63 23.2765 L1684.63 15.0127 Q1689.57 13.0277 1693.87 12.015 Q1698.16 11.0023 1701.73 11.0023 Q1711.12 11.0023 1716.71 15.7013 Q1722.3 20.4004 1722.3 28.2591 Q1722.3 31.9859 1720.89 35.3482 Q1719.51 38.6699 1715.82 43.2069 Q1714.81 44.3817 1709.38 50.0125 Q1703.95 55.6027 1694.07 65.6895 Z" fill="#000000" fill-rule="nonzero" fill-opacity="1" /><path clip-path="url(#clip760)" d="M1757.3 17.4837 Q1750.98 17.4837 1747.78 23.7221 Q1744.62 29.92 1744.62 42.3968 Q1744.62 54.833 1747.78 61.0714 Q1750.98 67.2693 1757.3 67.2693 Q1763.66 67.2693 1766.82 61.0714 Q1770.02 54.833 1770.02 42.3968 Q1770.02 29.92 1766.82 23.7221 Q1763.66 17.4837 1757.3 17.4837 M1757.3 11.0023 Q1767.47 11.0023 1772.82 19.0636 Q1778.21 27.0843 1778.21 42.3968 Q1778.21 57.6687 1772.82 65.73 Q1767.47 73.7508 1757.3 73.7508 Q1747.14 73.7508 1741.75 65.73 Q1736.4 57.6687 1736.4 42.3968 Q1736.4 27.0843 1741.75 19.0636 Q1747.14 11.0023 1757.3 11.0023 Z" fill="#000000" fill-rule="nonzero" fill-opacity="1" /><polyline clip-path="url(#clip762)" style="stroke:#009af9; stroke-linecap:round; stroke-linejoin:round; stroke-width:8; stroke-opacity:1; fill:none" points="284.815,644.113 295.358,644.824 392.842,652.286 451.426,657.652 500.958,662.792 554.764,669.086 604.368,675.626 657.549,683.525 719.165,693.979 773.921,704.608 821.937,715.105 874.288,727.961 926.95,742.566 985.175,760.927 1040.57,780.853 1098.18,804.469 1146.67,826.942 1176.26,841.953 1205.86,858.03 1232.98,873.756 1260.09,890.501 1285.14,906.93 1310.18,924.339 1335.55,943.033 1360.92,962.859 1389.35,986.507 1417.78,1011.76 1443.54,1036.13 1469.3,1062 1498.8,1093.57 1528.29,1127.38 1555.6,1160.81 1582.91,1196.42 1609.84,1233.8 1636.76,1273.59 1662.91,1314.67 1689.05,1358.31 1702.45,1381.73 1715.85,1405.88 1729.25,1430.79 1742.65,1456.49 1757.33,1485.58 1772.01,1515.67 1786.69,1546.81 1801.37,1579.02 1822.7,1627.8 1844.02,1679.06 1865.35,1732.91 1886.67,1789.49 1891.05,1801.44 1895.42,1813.52 1899.8,1825.72 1904.18,1838.05 "/>
<polyline clip-path="url(#clip762)" style="stroke:#e26f46; stroke-linecap:round; stroke-linejoin:round; stroke-width:8; stroke-opacity:1; fill:none" points="284.815,634.528 295.358,635.002 392.842,639.977 451.426,643.554 500.958,646.981 554.764,651.177 604.368,655.537 657.549,660.803 719.165,667.772 773.921,674.858 821.937,681.856 874.288,690.427 926.95,700.163 985.175,712.404 1040.57,725.688 1098.18,741.432 1146.67,756.414 1176.26,766.421 1205.86,777.139 1232.98,787.623 1260.09,798.787 1285.14,809.739 1310.18,821.345 1335.55,833.808 1360.92,847.025 1389.35,862.791 1417.78,879.629 1443.54,895.875 1469.3,913.119 1498.8,934.169 1528.29,956.706 1555.6,978.992 1582.91,1002.73 1609.84,1027.65 1636.76,1054.18 1662.91,1081.57 1689.05,1110.66 1702.45,1126.27 1715.85,1142.37 1729.25,1158.98 1742.65,1176.12 1757.33,1195.51 1772.01,1215.57 1786.69,1236.33 1801.37,1257.8 1822.7,1290.32 1844.02,1324.49 1865.35,1360.39 1886.67,1398.11 1891.05,1406.08 1895.42,1414.13 1899.8,1422.27 1904.18,1430.48 "/>
<polyline clip-path="url(#clip762)" style="stroke:#3da44d; stroke-linecap:round; stroke-linejoin:round; stroke-width:8; stroke-opacity:1; fill:none" points="284.815,624.943 295.358,625.18 392.842,627.667 451.426,629.456 500.958,631.169 554.764,633.267 604.368,635.447 657.549,638.08 719.165,641.565 773.921,645.108 821.937,648.607 874.288,652.892 926.95,657.761 985.175,663.881 1040.57,670.523 1098.18,678.395 1146.67,685.886 1176.26,690.89 1205.86,696.249 1232.98,701.491 1260.09,707.072 1285.14,712.549 1310.18,718.351 1335.55,724.583 1360.92,731.192 1389.35,739.074 1417.78,747.494 1443.54,755.616 1469.3,764.239 1498.8,774.763 1528.29,786.032 1555.6,797.175 1582.91,809.045 1609.84,821.506 1636.76,834.769 1662.91,848.462 1689.05,863.01 1702.45,870.815 1715.85,878.866 1729.25,887.17 1742.65,895.737 1757.33,905.432 1772.01,915.464 1786.69,925.842 1801.37,936.578 1822.7,952.84 1844.02,969.925 1865.35,987.876 1886.67,1006.73 1891.05,1010.72 1895.42,1014.75 1899.8,1018.81 1904.18,1022.92 "/>
<polyline clip-path="url(#clip762)" style="stroke:#c271d2; stroke-linecap:round; stroke-linejoin:round; stroke-width:8; stroke-opacity:1; fill:none" points="284.815,615.358 295.358,615.358 392.842,615.358 451.426,615.358 500.958,615.358 554.764,615.358 604.368,615.358 657.549,615.358 719.165,615.358 773.921,615.358 821.937,615.358 874.288,615.358 926.95,615.358 985.175,615.358 1040.57,615.358 1098.18,615.358 1146.67,615.358 1205.86,615.358 1260.09,615.358 1310.18,615.358 1360.92,615.358 1417.78,615.358 1469.3,615.358 1528.29,615.358 1582.91,615.358 1636.76,615.358 1689.05,615.358 1742.65,615.358 1801.37,615.358 1886.67,615.358 1904.18,615.358 "/>
<polyline clip-path="url(#clip762)" style="stroke:#ac8d18; stroke-linecap:round; stroke-linejoin:round; stroke-width:8; stroke-opacity:1; fill:none" points="284.815,605.773 295.358,605.536 392.842,603.049 451.426,601.26 500.958,599.547 554.764,597.449 604.368,595.269 657.549,592.636 719.165,589.151 773.921,585.608 821.937,582.109 874.288,577.824 926.95,572.955 985.175,566.835 1040.57,560.193 1098.18,552.321 1146.67,544.83 1176.26,539.826 1205.86,534.467 1232.98,529.225 1260.09,523.643 1285.14,518.167 1310.18,512.364 1335.55,506.133 1360.92,499.524 1389.35,491.642 1417.78,483.222 1443.54,475.099 1469.3,466.477 1498.8,455.953 1528.29,444.684 1555.6,433.541 1582.91,421.671 1609.84,409.21 1636.76,395.947 1662.91,382.254 1689.05,367.706 1702.45,359.901 1715.85,351.85 1729.25,343.546 1742.65,334.979 1757.33,325.283 1772.01,315.252 1786.69,304.874 1801.37,294.138 1822.7,277.876 1844.02,260.791 1865.35,242.84 1886.67,223.982 1891.05,219.996 1895.42,215.97 1899.8,211.903 1904.18,207.795 "/>
<polyline clip-path="url(#clip762)" style="stroke:#00a9ad; stroke-linecap:round; stroke-linejoin:round; stroke-width:8; stroke-opacity:1; fill:none" points="284.815,596.188 295.358,595.714 392.842,590.739 451.426,587.162 500.958,583.735 554.764,579.539 604.368,575.179 657.549,569.913 719.165,562.944 773.921,555.858 821.937,548.86 874.288,540.289 926.95,530.553 985.175,518.312 1040.57,505.028 1098.18,489.284 1146.67,474.302 1176.26,464.295 1205.86,453.577 1232.98,443.093 1260.09,431.929 1285.14,420.977 1310.18,409.371 1335.55,396.908 1360.92,383.691 1389.35,367.925 1417.78,351.087 1443.54,334.841 1469.3,317.596 1498.8,296.547 1528.29,274.01 1555.6,251.724 1582.91,227.984 1609.84,203.062 1636.76,176.536 1662.91,149.15 1689.05,120.055 1702.45,104.445 1715.85,88.3429 1729.25,71.7335 1742.65,54.6006 1757.33,35.209 1772.01,15.1468 1786.69,-5.60908 1801.37,-27.0828 1822.7,-59.6066 1844.02,-93.7769 1865.35,-129.677 1886.67,-167.395 1891.05,-175.366 1895.42,-183.418 1899.8,-191.552 1904.18,-199.768 "/>
<polyline clip-path="url(#clip762)" style="stroke:#ed5d92; stroke-linecap:round; stroke-linejoin:round; stroke-width:8; stroke-opacity:1; fill:none" points="284.815,586.603 295.358,585.892 392.842,578.43 451.426,573.064 500.958,567.924 554.764,561.63 604.368,555.09 657.549,547.191 719.165,536.736 773.921,526.108 821.937,515.611 874.288,502.755 926.95,488.15 985.175,469.789 1040.57,449.863 1098.18,426.247 1146.67,403.774 1176.26,388.763 1205.86,372.686 1232.98,356.96 1260.09,340.214 1285.14,323.786 1310.18,306.377 1335.55,287.683 1360.92,267.857 1389.35,244.209 1417.78,218.951 1443.54,194.582 1469.3,168.716 1498.8,137.142 1528.29,103.336 1555.6,69.9076 1582.91,34.2968 1609.84,-3.08655 1636.76,-42.875 1662.91,-83.954 1689.05,-127.597 1702.45,-151.012 1715.85,-175.165 1729.25,-200.079 1742.65,-225.778 1757.33,-254.865 1772.01,-284.959 1786.69,-316.093 1801.37,-348.303 1822.7,-397.089 1844.02,-448.344 1865.35,-502.195 1886.67,-558.771 1891.05,-570.727 1895.42,-582.805 1899.8,-595.006 1904.18,-607.332 "/>
<circle clip-path="url(#clip762)" cx="1364.39" cy="450.59" r="28.8" fill="#000000" fill-rule="evenodd" fill-opacity="1" stroke="none"/>
<polyline clip-path="url(#clip762)" style="stroke:#000000; stroke-linecap:round; stroke-linejoin:round; stroke-width:10; stroke-opacity:1; fill:none" points="284.815,601.833 295.358,601.499 392.842,597.989 451.426,595.465 500.958,593.047 554.764,590.087 604.368,587.01 657.549,583.295 719.165,578.378 773.921,573.379 821.937,568.441 874.288,562.395 926.95,555.525 985.175,546.889 1040.57,537.517 1098.18,526.409 1146.67,515.839 1176.26,508.778 1205.86,501.216 1232.98,493.819 1260.09,485.943 1285.14,478.216 1310.18,470.027 1335.55,461.234 1360.92,451.909 1389.35,440.786 1417.78,428.906 1443.54,417.444 1469.3,405.278 1498.8,390.427 1528.29,374.526 1555.6,358.803 1582.91,342.053 1609.84,324.47 1636.76,305.755 1662.91,286.433 1689.05,265.906 1702.45,254.892 1715.85,243.532 1729.25,231.813 1742.65,219.725 1757.33,206.044 1772.01,191.89 1786.69,177.246 1801.37,162.095 1822.7,139.149 1844.02,115.04 1865.35,89.7116 1886.67,63.1006 1891.05,57.4769 1895.42,51.796 1899.8,46.0572 1904.18,40.2599 "/>
</svg>
