<?xml version="1.0" encoding="utf-8"?>
<svg xmlns="http://www.w3.org/2000/svg" xmlns:xlink="http://www.w3.org/1999/xlink" width="500" height="320" viewBox="0 0 2000 1280">
<defs>
  <clipPath id="clip940">
    <rect x="0" y="0" width="2000" height="1280"/>
  </clipPath>
</defs>
<path clip-path="url(#clip940)" d="M0 1280 L2000 1280 L2000 0 L0 0  Z" fill="#ffffff" fill-rule="evenodd" fill-opacity="1"/>
<defs>
  <clipPath id="clip941">
    <rect x="400" y="0" width="1401" height="1280"/>
  </clipPath>
</defs>
<path clip-path="url(#clip940)" d="M238.55 1109.66 L1952.76 1109.66 L1952.76 121.053 L238.55 121.053  Z" fill="#ffffff" fill-rule="evenodd" fill-opacity="1"/>
<defs>
  <clipPath id="clip942">
    <rect x="238" y="121" width="1715" height="990"/>
  </clipPath>
</defs>
<polyline clip-path="url(#clip942)" style="stroke:#000000; stroke-linecap:round; stroke-linejoin:round; stroke-width:2; stroke-opacity:0.1; fill:none" points="238.55,1109.66 238.55,121.053 "/>
<polyline clip-path="url(#clip942)" style="stroke:#000000; stroke-linecap:round; stroke-linejoin:round; stroke-width:2; stroke-opacity:0.1; fill:none" points="581.391,1109.66 581.391,121.053 "/>
<polyline clip-path="url(#clip942)" style="stroke:#000000; stroke-linecap:round; stroke-linejoin:round; stroke-width:2; stroke-opacity:0.1; fill:none" points="924.232,1109.66 924.232,121.053 "/>
<polyline clip-path="url(#clip942)" style="stroke:#000000; stroke-linecap:round; stroke-linejoin:round; stroke-width:2; stroke-opacity:0.1; fill:none" points="1267.07,1109.66 1267.07,121.053 "/>
<polyline clip-path="url(#clip942)" style="stroke:#000000; stroke-linecap:round; stroke-linejoin:round; stroke-width:2; stroke-opacity:0.1; fill:none" points="1609.91,1109.66 1609.91,121.053 "/>
<polyline clip-path="url(#clip942)" style="stroke:#000000; stroke-linecap:round; stroke-linejoin:round; stroke-width:2; stroke-opacity:0.1; fill:none" points="1952.76,1109.66 1952.76,121.053 "/>
<polyline clip-path="url(#clip940)" style="stroke:#000000; stroke-linecap:round; stroke-linejoin:round; stroke-width:4; stroke-opacity:1; fill:none" points="238.55,1109.66 1952.76,1109.66 "/>
<polyline clip-path="url(#clip940)" style="stroke:#000000; stroke-linecap:round; stroke-linejoin:round; stroke-width:4; stroke-opacity:1; fill:none" points="238.55,1109.66 238.55,1090.77 "/>
<polyline clip-path="url(#clip940)" style="stroke:#000000; stroke-linecap:round; stroke-linejoin:round; stroke-width:4; stroke-opacity:1; fill:none" points="581.391,1109.66 581.391,1090.77 "/>
<polyline clip-path="url(#clip940)" style="stroke:#000000; stroke-linecap:round; stroke-linejoin:round; stroke-width:4; stroke-opacity:1; fill:none" points="924.232,1109.66 924.232,1090.77 "/>
<polyline clip-path="url(#clip940)" style="stroke:#000000; stroke-linecap:round; stroke-linejoin:round; stroke-width:4; stroke-opacity:1; fill:none" points="1267.07,1109.66 1267.07,1090.77 "/>
<polyline clip-path="url(#clip940)" style="stroke:#000000; stroke-linecap:round; stroke-linejoin:round; stroke-width:4; stroke-opacity:1; fill:none" points="1609.91,1109.66 1609.91,1090.77 "/>
<polyline clip-path="url(#clip940)" style="stroke:#000000; stroke-linecap:round; stroke-linejoin:round; stroke-width:4; stroke-opacity:1; fill:none" points="1952.76,1109.66 1952.76,1090.77 "/>
<path clip-path="url(#clip940)" d="M238.55 1137.38 Q234.939 1137.38 233.11 1140.95 Q231.305 1144.49 231.305 1151.62 Q231.305 1158.72 233.11 1162.29 Q234.939 1165.83 238.55 1165.83 Q242.184 1165.83 243.99 1162.29 Q245.819 1158.72 245.819 1151.62 Q245.819 1144.49 243.99 1140.95 Q242.184 1137.38 238.55 1137.38 M238.55 1133.68 Q244.36 1133.68 247.416 1138.28 Q250.494 1142.87 250.494 1151.62 Q250.494 1160.34 247.416 1164.95 Q244.36 1169.53 238.55 1169.53 Q232.74 1169.53 229.661 1164.95 Q226.606 1160.34 226.606 1151.62 Q226.606 1142.87 229.661 1138.28 Q232.74 1133.68 238.55 1133.68 Z" fill="#000000" fill-rule="nonzero" fill-opacity="1" /><path clip-path="url(#clip940)" d="M571.773 1164.93 L579.412 1164.93 L579.412 1138.56 L571.102 1140.23 L571.102 1135.97 L579.366 1134.3 L584.042 1134.3 L584.042 1164.93 L591.681 1164.93 L591.681 1168.86 L571.773 1168.86 L571.773 1164.93 Z" fill="#000000" fill-rule="nonzero" fill-opacity="1" /><path clip-path="url(#clip940)" d="M918.885 1164.93 L935.205 1164.93 L935.205 1168.86 L913.26 1168.86 L913.26 1164.93 Q915.922 1162.17 920.506 1157.54 Q925.112 1152.89 926.293 1151.55 Q928.538 1149.03 929.418 1147.29 Q930.32 1145.53 930.32 1143.84 Q930.32 1141.09 928.376 1139.35 Q926.455 1137.61 923.353 1137.61 Q921.154 1137.61 918.7 1138.38 Q916.27 1139.14 913.492 1140.69 L913.492 1135.97 Q916.316 1134.84 918.769 1134.26 Q921.223 1133.68 923.26 1133.68 Q928.631 1133.68 931.825 1136.36 Q935.019 1139.05 935.019 1143.54 Q935.019 1145.67 934.209 1147.59 Q933.422 1149.49 931.316 1152.08 Q930.737 1152.75 927.635 1155.97 Q924.533 1159.16 918.885 1164.93 Z" fill="#000000" fill-rule="nonzero" fill-opacity="1" /><path clip-path="url(#clip940)" d="M1271.32 1150.23 Q1274.68 1150.95 1276.55 1153.21 Q1278.45 1155.48 1278.45 1158.82 Q1278.45 1163.93 1274.93 1166.73 Q1271.41 1169.53 1264.93 1169.53 Q1262.76 1169.53 1260.44 1169.09 Q1258.15 1168.68 1255.7 1167.82 L1255.7 1163.31 Q1257.64 1164.44 1259.96 1165.02 Q1262.27 1165.6 1264.79 1165.6 Q1269.19 1165.6 1271.48 1163.86 Q1273.8 1162.13 1273.8 1158.82 Q1273.8 1155.76 1271.65 1154.05 Q1269.52 1152.31 1265.7 1152.31 L1261.67 1152.31 L1261.67 1148.47 L1265.88 1148.47 Q1269.33 1148.47 1271.16 1147.1 Q1272.99 1145.72 1272.99 1143.12 Q1272.99 1140.46 1271.09 1139.05 Q1269.21 1137.61 1265.7 1137.61 Q1263.77 1137.61 1261.58 1138.03 Q1259.38 1138.45 1256.74 1139.33 L1256.74 1135.16 Q1259.4 1134.42 1261.71 1134.05 Q1264.05 1133.68 1266.11 1133.68 Q1271.44 1133.68 1274.54 1136.11 Q1277.64 1138.52 1277.64 1142.64 Q1277.64 1145.51 1276 1147.5 Q1274.35 1149.46 1271.32 1150.23 Z" fill="#000000" fill-rule="nonzero" fill-opacity="1" /><path clip-path="url(#clip940)" d="M1612.92 1138.38 L1601.12 1156.83 L1612.92 1156.83 L1612.92 1138.38 M1611.7 1134.3 L1617.58 1134.3 L1617.58 1156.83 L1622.51 1156.83 L1622.51 1160.71 L1617.58 1160.71 L1617.58 1168.86 L1612.92 1168.86 L1612.92 1160.71 L1597.32 1160.71 L1597.32 1156.2 L1611.7 1134.3 Z" fill="#000000" fill-rule="nonzero" fill-opacity="1" /><path clip-path="url(#clip940)" d="M1943.03 1134.3 L1961.39 1134.3 L1961.39 1138.24 L1947.32 1138.24 L1947.32 1146.71 Q1948.33 1146.36 1949.35 1146.2 Q1950.37 1146.02 1951.39 1146.02 Q1957.18 1146.02 1960.56 1149.19 Q1963.94 1152.36 1963.94 1157.78 Q1963.94 1163.35 1960.46 1166.46 Q1956.99 1169.53 1950.67 1169.53 Q1948.5 1169.53 1946.23 1169.16 Q1943.98 1168.79 1941.58 1168.05 L1941.58 1163.35 Q1943.66 1164.49 1945.88 1165.04 Q1948.1 1165.6 1950.58 1165.6 Q1954.58 1165.6 1956.92 1163.49 Q1959.26 1161.39 1959.26 1157.78 Q1959.26 1154.16 1956.92 1152.06 Q1954.58 1149.95 1950.58 1149.95 Q1948.71 1149.95 1946.83 1150.37 Q1944.98 1150.78 1943.03 1151.66 L1943.03 1134.3 Z" fill="#000000" fill-rule="nonzero" fill-opacity="1" /><path clip-path="url(#clip940)" d="M1094.71 1202.76 L1094.71 1212.88 L1106.78 1212.88 L1106.78 1217.43 L1094.71 1217.43 L1094.71 1236.78 Q1094.71 1241.14 1095.89 1242.38 Q1097.1 1243.63 1100.76 1243.63 L1106.78 1243.63 L1106.78 1248.53 L1100.76 1248.53 Q1093.98 1248.53 1091.4 1246.01 Q1088.83 1243.47 1088.83 1236.78 L1088.83 1217.43 L1084.53 1217.43 L1084.53 1212.88 L1088.83 1212.88 L1088.83 1202.76 L1094.71 1202.76 Z" fill="#000000" fill-rule="nonzero" fill-opacity="1" /><polyline clip-path="url(#clip942)" style="stroke:#000000; stroke-linecap:round; stroke-linejoin:round; stroke-width:2; stroke-opacity:0.1; fill:none" points="238.55,1081.68 1952.76,1081.68 "/>
<polyline clip-path="url(#clip942)" style="stroke:#000000; stroke-linecap:round; stroke-linejoin:round; stroke-width:2; stroke-opacity:0.1; fill:none" points="238.55,652.012 1952.76,652.012 "/>
<polyline clip-path="url(#clip942)" style="stroke:#000000; stroke-linecap:round; stroke-linejoin:round; stroke-width:2; stroke-opacity:0.1; fill:none" points="238.55,222.341 1952.76,222.341 "/>
<polyline clip-path="url(#clip940)" style="stroke:#000000; stroke-linecap:round; stroke-linejoin:round; stroke-width:4; stroke-opacity:1; fill:none" points="238.55,1109.66 238.55,121.053 "/>
<polyline clip-path="url(#clip940)" style="stroke:#000000; stroke-linecap:round; stroke-linejoin:round; stroke-width:4; stroke-opacity:1; fill:none" points="238.55,1081.68 257.448,1081.68 "/>
<polyline clip-path="url(#clip940)" style="stroke:#000000; stroke-linecap:round; stroke-linejoin:round; stroke-width:4; stroke-opacity:1; fill:none" points="238.55,652.012 257.448,652.012 "/>
<polyline clip-path="url(#clip940)" style="stroke:#000000; stroke-linecap:round; stroke-linejoin:round; stroke-width:4; stroke-opacity:1; fill:none" points="238.55,222.341 257.448,222.341 "/>
<path clip-path="url(#clip940)" d="M137.844 1101.48 L145.483 1101.48 L145.483 1075.11 L137.173 1076.78 L137.173 1072.52 L145.437 1070.85 L150.113 1070.85 L150.113 1101.48 L157.752 1101.48 L157.752 1105.41 L137.844 1105.41 L137.844 1101.48 Z" fill="#000000" fill-rule="nonzero" fill-opacity="1" /><path clip-path="url(#clip940)" d="M177.196 1073.93 Q173.585 1073.93 171.756 1077.49 Q169.951 1081.04 169.951 1088.17 Q169.951 1095.27 171.756 1098.84 Q173.585 1102.38 177.196 1102.38 Q180.83 1102.38 182.636 1098.84 Q184.465 1095.27 184.465 1088.17 Q184.465 1081.04 182.636 1077.49 Q180.83 1073.93 177.196 1073.93 M177.196 1070.23 Q183.006 1070.23 186.062 1074.83 Q189.14 1079.42 189.14 1088.17 Q189.14 1096.89 186.062 1101.5 Q183.006 1106.08 177.196 1106.08 Q171.386 1106.08 168.307 1101.5 Q165.252 1096.89 165.252 1088.17 Q165.252 1079.42 168.307 1074.83 Q171.386 1070.23 177.196 1070.23 Z" fill="#000000" fill-rule="nonzero" fill-opacity="1" /><path clip-path="url(#clip940)" d="M198.845 1052.42 Q195.911 1052.42 194.425 1055.32 Q192.958 1058.2 192.958 1063.99 Q192.958 1069.76 194.425 1072.66 Q195.911 1075.54 198.845 1075.54 Q201.798 1075.54 203.265 1072.66 Q204.751 1069.76 204.751 1063.99 Q204.751 1058.2 203.265 1055.32 Q201.798 1052.42 198.845 1052.42 M198.845 1049.41 Q203.566 1049.41 206.049 1053.16 Q208.55 1056.88 208.55 1063.99 Q208.55 1071.08 206.049 1074.82 Q203.566 1078.55 198.845 1078.55 Q194.125 1078.55 191.623 1074.82 Q189.14 1071.08 189.14 1063.99 Q189.14 1056.88 191.623 1053.16 Q194.125 1049.41 198.845 1049.41 Z" fill="#000000" fill-rule="nonzero" fill-opacity="1" /><path clip-path="url(#clip940)" d="M139.086 671.805 L146.725 671.805 L146.725 645.439 L138.414 647.106 L138.414 642.846 L146.678 641.18 L151.354 641.18 L151.354 671.805 L158.993 671.805 L158.993 675.74 L139.086 675.74 L139.086 671.805 Z" fill="#000000" fill-rule="nonzero" fill-opacity="1" /><path clip-path="url(#clip940)" d="M178.437 644.258 Q174.826 644.258 172.998 647.823 Q171.192 651.365 171.192 658.494 Q171.192 665.601 172.998 669.166 Q174.826 672.707 178.437 672.707 Q182.072 672.707 183.877 669.166 Q185.706 665.601 185.706 658.494 Q185.706 651.365 183.877 647.823 Q182.072 644.258 178.437 644.258 M178.437 640.555 Q184.248 640.555 187.303 645.161 Q190.382 649.744 190.382 658.494 Q190.382 667.221 187.303 671.828 Q184.248 676.411 178.437 676.411 Q172.627 676.411 169.549 671.828 Q166.493 667.221 166.493 658.494 Q166.493 649.744 169.549 645.161 Q172.627 640.555 178.437 640.555 Z" fill="#000000" fill-rule="nonzero" fill-opacity="1" /><path clip-path="url(#clip940)" d="M191.567 620.249 L206.481 620.249 L206.481 623.447 L195.046 623.447 L195.046 630.33 Q195.874 630.048 196.701 629.916 Q197.529 629.766 198.356 629.766 Q203.058 629.766 205.804 632.343 Q208.55 634.919 208.55 639.32 Q208.55 643.853 205.729 646.373 Q202.908 648.875 197.773 648.875 Q196.005 648.875 194.162 648.574 Q192.338 648.273 190.382 647.671 L190.382 643.853 Q192.075 644.775 193.88 645.226 Q195.686 645.677 197.698 645.677 Q200.952 645.677 202.851 643.966 Q204.751 642.254 204.751 639.32 Q204.751 636.386 202.851 634.675 Q200.952 632.963 197.698 632.963 Q196.175 632.963 194.651 633.302 Q193.147 633.64 191.567 634.355 L191.567 620.249 Z" fill="#000000" fill-rule="nonzero" fill-opacity="1" /><path clip-path="url(#clip940)" d="M115.031 242.133 L122.669 242.133 L122.669 215.768 L114.359 217.434 L114.359 213.175 L122.623 211.508 L127.299 211.508 L127.299 242.133 L134.938 242.133 L134.938 246.068 L115.031 246.068 L115.031 242.133 Z" fill="#000000" fill-rule="nonzero" fill-opacity="1" /><path clip-path="url(#clip940)" d="M154.382 214.587 Q150.771 214.587 148.943 218.152 Q147.137 221.693 147.137 228.823 Q147.137 235.929 148.943 239.494 Q150.771 243.036 154.382 243.036 Q158.017 243.036 159.822 239.494 Q161.651 235.929 161.651 228.823 Q161.651 221.693 159.822 218.152 Q158.017 214.587 154.382 214.587 M154.382 210.883 Q160.192 210.883 163.248 215.49 Q166.327 220.073 166.327 228.823 Q166.327 237.55 163.248 242.156 Q160.192 246.74 154.382 246.74 Q148.572 246.74 145.493 242.156 Q142.438 237.55 142.438 228.823 Q142.438 220.073 145.493 215.49 Q148.572 210.883 154.382 210.883 Z" fill="#000000" fill-rule="nonzero" fill-opacity="1" /><path clip-path="url(#clip940)" d="M166.872 215.461 L173.079 215.461 L173.079 194.038 L166.327 195.393 L166.327 191.932 L173.041 190.578 L176.84 190.578 L176.84 215.461 L183.047 215.461 L183.047 218.658 L166.872 218.658 L166.872 215.461 Z" fill="#000000" fill-rule="nonzero" fill-opacity="1" /><path clip-path="url(#clip940)" d="M198.845 193.079 Q195.911 193.079 194.425 195.976 Q192.958 198.853 192.958 204.646 Q192.958 210.42 194.425 213.316 Q195.911 216.194 198.845 216.194 Q201.798 216.194 203.265 213.316 Q204.751 210.42 204.751 204.646 Q204.751 198.853 203.265 195.976 Q201.798 193.079 198.845 193.079 M198.845 190.07 Q203.566 190.07 206.049 193.813 Q208.55 197.537 208.55 204.646 Q208.55 211.737 206.049 215.479 Q203.566 219.203 198.845 219.203 Q194.125 219.203 191.623 215.479 Q189.14 211.737 189.14 204.646 Q189.14 197.537 191.623 193.813 Q194.125 190.07 198.845 190.07 Z" fill="#000000" fill-rule="nonzero" fill-opacity="1" /><path clip-path="url(#clip940)" d="M34.4554 598.743 L51.802 611.634 L70.1034 598.075 L70.1034 604.982 L56.0988 615.358 L70.1034 625.734 L70.1034 632.641 L51.4518 618.795 L34.4554 631.463 L34.4554 624.556 L47.155 615.103 L34.4554 605.65 L34.4554 598.743 Z" fill="#000000" fill-rule="nonzero" fill-opacity="1" /><path clip-path="url(#clip940)" d="M718.21 63.9476 L718.21 47.7034 L704.842 47.7034 L704.842 40.9789 L726.312 40.9789 L726.312 66.9452 Q721.572 70.3075 715.86 72.0494 Q710.149 73.7508 703.667 73.7508 Q689.489 73.7508 681.468 65.4869 Q673.488 57.1826 673.488 42.3968 Q673.488 27.5705 681.468 19.3066 Q689.489 11.0023 703.667 11.0023 Q709.582 11.0023 714.888 12.4606 Q720.235 13.9189 724.732 16.7545 L724.732 25.464 Q720.195 21.6156 715.091 19.6712 Q709.987 17.7268 704.356 17.7268 Q693.256 17.7268 687.666 23.9246 Q682.116 30.1225 682.116 42.3968 Q682.116 54.6305 687.666 60.8284 Q693.256 67.0263 704.356 67.0263 Q708.69 67.0263 712.093 66.2971 Q715.496 65.5274 718.21 63.9476 Z" fill="#000000" fill-rule="nonzero" fill-opacity="1" /><path clip-path="url(#clip940)" d="M767.226 34.1734 Q765.97 33.4443 764.471 33.1202 Q763.013 32.7556 761.231 32.7556 Q754.911 32.7556 751.508 36.8875 Q748.146 40.9789 748.146 48.6757 L748.146 72.576 L740.652 72.576 L740.652 27.2059 L748.146 27.2059 L748.146 34.2544 Q750.496 30.1225 754.263 28.1376 Q758.03 26.1121 763.418 26.1121 Q764.188 26.1121 765.119 26.2337 Q766.051 26.3147 767.185 26.5172 L767.226 34.1734 Z" fill="#000000" fill-rule="nonzero" fill-opacity="1" /><path clip-path="url(#clip940)" d="M790.802 32.4315 Q784.807 32.4315 781.323 37.1306 Q777.839 41.7891 777.839 49.9314 Q777.839 58.0738 781.283 62.7728 Q784.766 67.4314 790.802 67.4314 Q796.757 67.4314 800.241 62.7323 Q803.725 58.0333 803.725 49.9314 Q803.725 41.8701 800.241 37.1711 Q796.757 32.4315 790.802 32.4315 M790.802 26.1121 Q800.524 26.1121 806.074 32.4315 Q811.624 38.7509 811.624 49.9314 Q811.624 61.0714 806.074 67.4314 Q800.524 73.7508 790.802 73.7508 Q781.04 73.7508 775.49 67.4314 Q769.981 61.0714 769.981 49.9314 Q769.981 38.7509 775.49 32.4315 Q781.04 26.1121 790.802 26.1121 Z" fill="#000000" fill-rule="nonzero" fill-opacity="1" /><path clip-path="url(#clip940)" d="M819.645 27.2059 L827.098 27.2059 L836.415 62.6108 L845.692 27.2059 L854.482 27.2059 L863.8 62.6108 L873.076 27.2059 L880.53 27.2059 L868.661 72.576 L859.87 72.576 L850.107 35.3887 L840.304 72.576 L831.514 72.576 L819.645 27.2059 Z" fill="#000000" fill-rule="nonzero" fill-opacity="1" /><path clip-path="url(#clip940)" d="M891.832 27.2059 L899.285 27.2059 L899.285 72.576 L891.832 72.576 L891.832 27.2059 M891.832 9.54393 L899.285 9.54393 L899.285 18.9825 L891.832 18.9825 L891.832 9.54393 Z" fill="#000000" fill-rule="nonzero" fill-opacity="1" /><path clip-path="url(#clip940)" d="M952.595 45.1919 L952.595 72.576 L945.142 72.576 L945.142 45.4349 Q945.142 38.994 942.63 35.7938 Q940.119 32.5936 935.095 32.5936 Q929.06 32.5936 925.576 36.4419 Q922.092 40.2903 922.092 46.9338 L922.092 72.576 L914.598 72.576 L914.598 27.2059 L922.092 27.2059 L922.092 34.2544 Q924.766 30.163 928.371 28.1376 Q932.017 26.1121 936.756 26.1121 Q944.575 26.1121 948.585 30.9732 Q952.595 35.7938 952.595 45.1919 Z" fill="#000000" fill-rule="nonzero" fill-opacity="1" /><path clip-path="url(#clip940)" d="M997.317 49.3643 Q997.317 41.2625 993.955 36.8065 Q990.633 32.3505 984.597 32.3505 Q978.602 32.3505 975.24 36.8065 Q971.918 41.2625 971.918 49.3643 Q971.918 57.4256 975.24 61.8816 Q978.602 66.3376 984.597 66.3376 Q990.633 66.3376 993.955 61.8816 Q997.317 57.4256 997.317 49.3643 M1004.77 66.9452 Q1004.77 78.5308 999.626 84.1616 Q994.482 89.8329 983.868 89.8329 Q979.939 89.8329 976.455 89.2252 Q972.971 88.6581 969.69 87.4428 L969.69 80.1917 Q972.971 81.9741 976.172 82.8248 Q979.372 83.6755 982.694 83.6755 Q990.026 83.6755 993.671 79.8271 Q997.317 76.0193 997.317 68.282 L997.317 64.5957 Q995.008 68.6061 991.403 70.5911 Q987.798 72.576 982.775 72.576 Q974.43 72.576 969.326 66.2161 Q964.221 59.8562 964.221 49.3643 Q964.221 38.832 969.326 32.472 Q974.43 26.1121 982.775 26.1121 Q987.798 26.1121 991.403 28.0971 Q995.008 30.082 997.317 34.0924 L997.317 27.2059 L1004.77 27.2059 L1004.77 66.9452 Z" fill="#000000" fill-rule="nonzero" fill-opacity="1" /><path clip-path="url(#clip940)" d="M1076.35 49.3643 Q1076.35 41.2625 1072.99 36.8065 Q1069.67 32.3505 1063.63 32.3505 Q1057.64 32.3505 1054.27 36.8065 Q1050.95 41.2625 1050.95 49.3643 Q1050.95 57.4256 1054.27 61.8816 Q1057.64 66.3376 1063.63 66.3376 Q1069.67 66.3376 1072.99 61.8816 Q1076.35 57.4256 1076.35 49.3643 M1083.8 66.9452 Q1083.8 78.5308 1078.66 84.1616 Q1073.51 89.8329 1062.9 89.8329 Q1058.97 89.8329 1055.49 89.2252 Q1052 88.6581 1048.72 87.4428 L1048.72 80.1917 Q1052 81.9741 1055.2 82.8248 Q1058.4 83.6755 1061.73 83.6755 Q1069.06 83.6755 1072.7 79.8271 Q1076.35 76.0193 1076.35 68.282 L1076.35 64.5957 Q1074.04 68.6061 1070.44 70.5911 Q1066.83 72.576 1061.81 72.576 Q1053.46 72.576 1048.36 66.2161 Q1043.25 59.8562 1043.25 49.3643 Q1043.25 38.832 1048.36 32.472 Q1053.46 26.1121 1061.81 26.1121 Q1066.83 26.1121 1070.44 28.0971 Q1074.04 30.082 1076.35 34.0924 L1076.35 27.2059 L1083.8 27.2059 L1083.8 66.9452 Z" fill="#000000" fill-rule="nonzero" fill-opacity="1" /><path clip-path="url(#clip940)" d="M1125.45 34.1734 Q1124.19 33.4443 1122.69 33.1202 Q1121.23 32.7556 1119.45 32.7556 Q1113.13 32.7556 1109.73 36.8875 Q1106.37 40.9789 1106.37 48.6757 L1106.37 72.576 L1098.87 72.576 L1098.87 27.2059 L1106.37 27.2059 L1106.37 34.2544 Q1108.72 30.1225 1112.48 28.1376 Q1116.25 26.1121 1121.64 26.1121 Q1122.41 26.1121 1123.34 26.2337 Q1124.27 26.3147 1125.41 26.5172 L1125.45 34.1734 Z" fill="#000000" fill-rule="nonzero" fill-opacity="1" /><path clip-path="url(#clip940)" d="M1149.02 32.4315 Q1143.03 32.4315 1139.54 37.1306 Q1136.06 41.7891 1136.06 49.9314 Q1136.06 58.0738 1139.5 62.7728 Q1142.99 67.4314 1149.02 67.4314 Q1154.98 67.4314 1158.46 62.7323 Q1161.95 58.0333 1161.95 49.9314 Q1161.95 41.8701 1158.46 37.1711 Q1154.98 32.4315 1149.02 32.4315 M1149.02 26.1121 Q1158.75 26.1121 1164.3 32.4315 Q1169.85 38.7509 1169.85 49.9314 Q1169.85 61.0714 1164.3 67.4314 Q1158.75 73.7508 1149.02 73.7508 Q1139.26 73.7508 1133.71 67.4314 Q1128.2 61.0714 1128.2 49.9314 Q1128.2 38.7509 1133.71 32.4315 Q1139.26 26.1121 1149.02 26.1121 Z" fill="#000000" fill-rule="nonzero" fill-opacity="1" /><path clip-path="url(#clip940)" d="M1177.87 27.2059 L1185.32 27.2059 L1194.64 62.6108 L1203.91 27.2059 L1212.7 27.2059 L1222.02 62.6108 L1231.3 27.2059 L1238.75 27.2059 L1226.88 72.576 L1218.09 72.576 L1208.33 35.3887 L1198.53 72.576 L1189.74 72.576 L1177.87 27.2059 Z" fill="#000000" fill-rule="nonzero" fill-opacity="1" /><path clip-path="url(#clip940)" d="M1257.43 14.324 L1257.43 27.2059 L1272.78 27.2059 L1272.78 32.9987 L1257.43 32.9987 L1257.43 57.6282 Q1257.43 63.1779 1258.92 64.7578 Q1260.46 66.3376 1265.12 66.3376 L1272.78 66.3376 L1272.78 72.576 L1265.12 72.576 Q1256.49 72.576 1253.21 69.3758 Q1249.93 66.1351 1249.93 57.6282 L1249.93 32.9987 L1244.46 32.9987 L1244.46 27.2059 L1249.93 27.2059 L1249.93 14.324 L1257.43 14.324 Z" fill="#000000" fill-rule="nonzero" fill-opacity="1" /><path clip-path="url(#clip940)" d="M1320.3 45.1919 L1320.3 72.576 L1312.84 72.576 L1312.84 45.4349 Q1312.84 38.994 1310.33 35.7938 Q1307.82 32.5936 1302.8 32.5936 Q1296.76 32.5936 1293.28 36.4419 Q1289.79 40.2903 1289.79 46.9338 L1289.79 72.576 L1282.3 72.576 L1282.3 9.54393 L1289.79 9.54393 L1289.79 34.2544 Q1292.47 30.163 1296.07 28.1376 Q1299.72 26.1121 1304.46 26.1121 Q1312.28 26.1121 1316.29 30.9732 Q1320.3 35.7938 1320.3 45.1919 Z" fill="#000000" fill-rule="nonzero" fill-opacity="1" /><path clip-path="url(#clip940)" d="M1387.82 34.1734 Q1386.57 33.4443 1385.07 33.1202 Q1383.61 32.7556 1381.83 32.7556 Q1375.51 32.7556 1372.11 36.8875 Q1368.74 40.9789 1368.74 48.6757 L1368.74 72.576 L1361.25 72.576 L1361.25 27.2059 L1368.74 27.2059 L1368.74 34.2544 Q1371.09 30.1225 1374.86 28.1376 Q1378.63 26.1121 1384.02 26.1121 Q1384.79 26.1121 1385.72 26.2337 Q1386.65 26.3147 1387.78 26.5172 L1387.82 34.1734 Z" fill="#000000" fill-rule="nonzero" fill-opacity="1" /><path clip-path="url(#clip940)" d="M1416.26 49.7694 Q1407.23 49.7694 1403.74 51.8354 Q1400.26 53.9013 1400.26 58.8839 Q1400.26 62.8538 1402.85 65.2034 Q1405.49 67.5124 1409.98 67.5124 Q1416.18 67.5124 1419.91 63.1374 Q1423.67 58.7219 1423.67 51.4303 L1423.67 49.7694 L1416.26 49.7694 M1431.13 46.6907 L1431.13 72.576 L1423.67 72.576 L1423.67 65.6895 Q1421.12 69.8214 1417.32 71.8063 Q1413.51 73.7508 1408 73.7508 Q1401.03 73.7508 1396.9 69.8619 Q1392.81 65.9325 1392.81 59.3701 Q1392.81 51.7138 1397.91 47.825 Q1403.06 43.9361 1413.22 43.9361 L1423.67 43.9361 L1423.67 43.2069 Q1423.67 38.0623 1420.27 35.2672 Q1416.91 32.4315 1410.79 32.4315 Q1406.9 32.4315 1403.22 33.3632 Q1399.53 34.295 1396.13 36.1584 L1396.13 29.2718 Q1400.22 27.692 1404.07 26.9223 Q1407.92 26.1121 1411.56 26.1121 Q1421.41 26.1121 1426.27 31.2163 Q1431.13 36.3204 1431.13 46.6907 Z" fill="#000000" fill-rule="nonzero" fill-opacity="1" /><path clip-path="url(#clip940)" d="M1453.85 14.324 L1453.85 27.2059 L1469.21 27.2059 L1469.21 32.9987 L1453.85 32.9987 L1453.85 57.6282 Q1453.85 63.1779 1455.35 64.7578 Q1456.89 66.3376 1461.55 66.3376 L1469.21 66.3376 L1469.21 72.576 L1461.55 72.576 Q1452.92 72.576 1449.64 69.3758 Q1446.36 66.1351 1446.36 57.6282 L1446.36 32.9987 L1440.89 32.9987 L1440.89 27.2059 L1446.36 27.2059 L1446.36 14.324 L1453.85 14.324 Z" fill="#000000" fill-rule="nonzero" fill-opacity="1" /><path clip-path="url(#clip940)" d="M1517.82 48.0275 L1517.82 51.6733 L1483.55 51.6733 Q1484.03 59.3701 1488.17 63.421 Q1492.34 67.4314 1499.75 67.4314 Q1504.04 67.4314 1508.06 66.3781 Q1512.11 65.3249 1516.08 63.2184 L1516.08 70.267 Q1512.07 71.9684 1507.85 72.8596 Q1503.64 73.7508 1499.31 73.7508 Q1488.45 73.7508 1482.09 67.4314 Q1475.77 61.1119 1475.77 50.3365 Q1475.77 39.1965 1481.76 32.6746 Q1487.8 26.1121 1498.01 26.1121 Q1507.16 26.1121 1512.47 32.0264 Q1517.82 37.9003 1517.82 48.0275 M1510.36 45.84 Q1510.28 39.7232 1506.92 36.0774 Q1503.6 32.4315 1498.09 32.4315 Q1491.85 32.4315 1488.08 35.9558 Q1484.36 39.4801 1483.79 45.8805 L1510.36 45.84 Z" fill="#000000" fill-rule="nonzero" fill-opacity="1" /><polyline clip-path="url(#clip942)" style="stroke:#009af9; stroke-linecap:round; stroke-linejoin:round; stroke-width:8; stroke-opacity:1; fill:none" points="238.55,1081.68 240.266,1081.68 241.982,1081.68 243.698,1081.68 245.414,1081.67 247.13,1081.66 248.846,1081.65 250.562,1081.64 252.277,1081.62 253.993,1081.61 255.709,1081.59 257.425,1081.57 259.141,1081.55 260.857,1081.53 262.573,1081.5 264.289,1081.47 266.005,1081.44 267.721,1081.41 269.437,1081.38 271.153,1081.35 272.869,1081.31 274.584,1081.27 276.3,1081.23 278.016,1081.19 279.732,1081.14 281.448,1081.1 283.164,1081.05 284.88,1081 286.596,1080.95 288.312,1080.9 290.028,1080.84 291.744,1080.78 293.46,1080.73 295.176,1080.67 296.891,1080.6 298.607,1080.54 300.323,1080.47 302.039,1080.4 303.755,1080.33 305.471,1080.26 307.187,1080.19 308.903,1080.11 310.619,1080.03 312.335,1079.95 314.051,1079.87 315.767,1079.79 317.483,1079.7 319.198,1079.62 320.914,1079.53 322.63,1079.44 324.346,1079.35 326.062,1079.25 327.778,1079.16 329.494,1079.06 331.21,1078.96 332.926,1078.86 334.642,1078.75 336.358,1078.65 338.074,1078.54 339.789,1078.43 341.505,1078.32 343.221,1078.2 344.937,1078.09 346.653,1077.97 348.369,1077.85 350.085,1077.73 351.801,1077.61 353.517,1077.49 355.233,1077.36 356.949,1077.23 358.665,1077.1 360.381,1076.97 362.096,1076.84 363.812,1076.7 365.528,1076.56 367.244,1076.42 368.96,1076.28 370.676,1076.14 372.392,1076 374.108,1075.85 375.824,1075.7 377.54,1075.55 379.256,1075.4 380.972,1075.24 382.688,1075.09 384.403,1074.93 386.119,1074.77 387.835,1074.61 389.551,1074.44 391.267,1074.28 392.983,1074.11 394.699,1073.94 396.415,1073.77 398.131,1073.6 399.847,1073.42 401.563,1073.24 403.279,1073.06 404.995,1072.88 406.71,1072.7 408.426,1072.51 410.142,1072.33 411.858,1072.14 413.574,1071.95 415.29,1071.75 417.006,1071.56 418.722,1071.36 420.438,1071.17 422.154,1070.97 423.87,1070.77 425.586,1070.56 427.302,1070.36 429.017,1070.15 430.733,1069.94 432.449,1069.73 434.165,1069.52 435.881,1069.3 437.597,1069.09 439.313,1068.87 441.029,1068.65 442.745,1068.43 444.461,1068.21 446.177,1067.98 447.893,1067.75 449.608,1067.53 451.324,1067.3 453.04,1067.06 454.756,1066.83 456.472,1066.59 458.188,1066.35 459.904,1066.12 461.62,1065.87 463.336,1065.63 465.052,1065.39 466.768,1065.14 468.484,1064.89 470.2,1064.64 471.915,1064.39 473.631,1064.13 475.347,1063.88 477.063,1063.62 478.779,1063.36 480.495,1063.09 482.211,1062.83 483.927,1062.57 485.643,1062.3 487.359,1062.03 489.075,1061.76 490.791,1061.48 492.507,1061.21 494.222,1060.93 495.938,1060.65 497.654,1060.37 499.37,1060.09 501.086,1059.8 502.802,1059.52 504.518,1059.23 506.234,1058.94 507.95,1058.64 509.666,1058.35 511.382,1058.05 513.098,1057.75 514.814,1057.45 516.529,1057.15 518.245,1056.85 519.961,1056.54 521.677,1056.23 523.393,1055.93 525.109,1055.61 526.825,1055.3 528.541,1054.98 530.257,1054.67 531.973,1054.35 533.689,1054.03 535.405,1053.7 537.12,1053.38 538.836,1053.05 540.552,1052.72 542.268,1052.39 543.984,1052.06 545.7,1051.73 547.416,1051.39 549.132,1051.05 550.848,1050.71 552.564,1050.37 554.28,1050.03 555.996,1049.68 557.712,1049.34 559.427,1048.99 561.143,1048.64 562.859,1048.28 564.575,1047.93 566.291,1047.57 568.007,1047.21 569.723,1046.85 571.439,1046.49 573.155,1046.13 574.871,1045.76 576.587,1045.4 578.303,1045.03 580.019,1044.65 581.734,1044.28 583.45,1043.91 585.166,1043.53 586.882,1043.15 588.598,1042.77 590.314,1042.39 592.03,1042 593.746,1041.62 595.462,1041.23 597.178,1040.84 598.894,1040.45 600.61,1040.06 602.326,1039.66 604.041,1039.26 605.757,1038.87 607.473,1038.47 609.189,1038.06 610.905,1037.66 612.621,1037.25 614.337,1036.84 616.053,1036.43 617.769,1036.02 619.485,1035.61 621.201,1035.19 622.917,1034.77 624.632,1034.35 626.348,1033.93 628.064,1033.51 629.78,1033.08 631.496,1032.66 633.212,1032.23 634.928,1031.8 636.644,1031.36 638.36,1030.93 640.076,1030.49 641.792,1030.05 643.508,1029.61 645.224,1029.17 646.939,1028.73 648.655,1028.28 650.371,1027.83 652.087,1027.38 653.803,1026.93 655.519,1026.48 657.235,1026.02 658.951,1025.56 660.667,1025.11 662.383,1024.64 664.099,1024.18 665.815,1023.72 667.531,1023.25 669.246,1022.78 670.962,1022.31 672.678,1021.83 674.394,1021.36 676.11,1020.88 677.826,1020.4 679.542,1019.92 681.258,1019.44 682.974,1018.95 684.69,1018.47 686.406,1017.98 688.122,1017.49 689.838,1017 691.553,1016.51 693.269,1016.01 694.985,1015.51 696.701,1015.02 698.417,1014.52 700.133,1014.02 701.849,1013.51 703.565,1013.01 705.281,1012.5 706.997,1011.99 708.713,1011.48 710.429,1010.97 712.145,1010.46 713.86,1009.94 715.576,1009.42 717.292,1008.9 719.008,1008.38 720.724,1007.86 722.44,1007.33 724.156,1006.81 725.872,1006.28 727.588,1005.75 729.304,1005.22 731.02,1004.68 732.736,1004.14 734.451,1003.61 736.167,1003.07 737.883,1002.52 739.599,1001.98 741.315,1001.43 743.031,1000.88 744.747,1000.33 746.463,999.782 748.179,999.228 749.895,998.672 751.611,998.114 753.327,997.553 755.043,996.991 756.758,996.427 758.474,995.861 760.19,995.293 761.906,994.723 763.622,994.151 765.338,993.577 767.054,993.001 768.77,992.423 770.486,991.844 772.202,991.262 773.918,990.679 775.634,990.094 777.35,989.507 779.065,988.918 780.781,988.327 782.497,987.735 784.213,987.141 785.929,986.546 787.645,985.948 789.361,985.348 791.077,984.746 792.793,984.141 794.509,983.535 796.225,982.927 797.941,982.317 799.657,981.705 801.372,981.091 803.088,980.475 804.804,979.858 806.52,979.239 808.236,978.618 809.952,977.996 811.668,977.372 813.384,976.747 815.1,976.12 816.816,975.491 818.532,974.86 820.248,974.228 821.963,973.594 823.679,972.959 825.395,972.322 827.111,971.683 828.827,971.042 830.543,970.4 832.259,969.756 833.975,969.11 835.691,968.462 837.407,967.812 839.123,967.16 840.839,966.507 842.555,965.851 844.27,965.194 845.986,964.535 847.702,963.873 849.418,963.21 851.134,962.545 852.85,961.877 854.566,961.208 856.282,960.536 857.998,959.863 859.714,959.187 861.43,958.51 863.146,957.83 864.862,957.149 866.577,956.465 868.293,955.779 870.009,955.091 871.725,954.402 873.441,953.71 875.157,953.016 876.873,952.321 878.589,951.623 880.305,950.923 882.021,950.222 883.737,949.519 885.453,948.813 887.169,948.106 888.884,947.398 890.6,946.687 892.316,945.975 894.032,945.261 895.748,944.545 897.464,943.828 899.18,943.109 900.896,942.387 902.612,941.662 904.328,940.935 906.044,940.207 907.76,939.476 909.476,938.744 911.191,938.009 912.907,937.274 914.623,936.536 916.339,935.797 918.055,935.057 919.771,934.315 921.487,933.572 923.203,932.827 924.919,932.08 926.635,931.333 928.351,930.583 930.067,929.832 931.782,929.08 933.498,928.326 935.214,927.57 936.93,926.813 938.646,926.054 940.362,925.293 942.078,924.53 943.794,923.766 945.51,923 947.226,922.232 948.942,921.461 950.658,920.689 952.374,919.915 954.089,919.139 955.805,918.361 957.521,917.58 959.237,916.798 960.953,916.014 962.669,915.227 964.385,914.438 966.101,913.647 967.817,912.854 969.533,912.058 971.249,911.261 972.965,910.461 974.681,909.66 976.396,908.856 978.112,908.05 979.828,907.241 981.544,906.431 983.26,905.619 984.976,904.805 986.692,903.989 988.408,903.17 990.124,902.35 991.84,901.528 993.556,900.705 995.272,899.879 996.988,899.052 998.703,898.223 1000.42,897.393 1002.14,896.561 1003.85,895.728 1005.57,894.892 1007.28,894.055 1009,893.214 1010.71,892.371 1012.43,891.526 1014.15,890.679 1015.86,889.83 1017.58,888.98 1019.29,888.128 1021.01,887.275 1022.73,886.42 1024.44,885.564 1026.16,884.706 1027.87,883.848 1029.59,882.987 1031.31,882.126 1033.02,881.263 1034.74,880.399 1036.45,879.533 1038.17,878.666 1039.89,877.797 1041.6,876.927 1043.32,876.055 1045.03,875.181 1046.75,874.305 1048.47,873.428 1050.18,872.548 1051.9,871.667 1053.61,870.783 1055.33,869.898 1057.04,869.011 1058.76,868.121 1060.48,867.229 1062.19,866.335 1063.91,865.439 1065.62,864.54 1067.34,863.639 1069.06,862.736 1070.77,861.831 1072.49,860.923 1074.2,860.013 1075.92,859.101 1077.64,858.187 1079.35,857.27 1081.07,856.351 1082.78,855.43 1084.5,854.507 1086.22,853.582 1087.93,852.655 1089.65,851.726 1091.36,850.795 1093.08,849.862 1094.8,848.927 1096.51,847.991 1098.23,847.053 1099.94,846.114 1101.66,845.173 1103.37,844.23 1105.09,843.287 1106.81,842.341 1108.52,841.392 1110.24,840.441 1111.95,839.487 1113.67,838.531 1115.39,837.573 1117.1,836.614 1118.82,835.654 1120.53,834.692 1122.25,833.729 1123.97,832.764 1125.68,831.799 1127.4,830.832 1129.11,829.865 1130.83,828.896 1132.55,827.925 1134.26,826.954 1135.98,825.981 1137.69,825.006 1139.41,824.031 1141.12,823.053 1142.84,822.074 1144.56,821.092 1146.27,820.109 1147.99,819.125 1149.7,818.138 1151.42,817.149 1153.14,816.157 1154.85,815.164 1156.57,814.168 1158.28,813.17 1160,812.17 1161.72,811.167 1163.43,810.162 1165.15,809.154 1166.86,808.144 1168.58,807.132 1170.3,806.117 1172.01,805.1 1173.73,804.081 1175.44,803.059 1177.16,802.035 1178.88,801.009 1180.59,799.98 1182.31,798.95 1184.02,797.917 1185.74,796.883 1187.45,795.846 1189.17,794.808 1190.89,793.769 1192.6,792.727 1194.32,791.684 1196.03,790.64 1197.75,789.594 1199.47,788.548 1201.18,787.499 1202.9,786.447 1204.61,785.393 1206.33,784.336 1208.05,783.277 1209.76,782.216 1211.48,781.154 1213.19,780.091 1214.91,779.027 1216.63,777.962 1218.34,776.895 1220.06,775.828 1221.77,774.76 1223.49,773.69 1225.21,772.62 1226.92,771.548 1228.64,770.475 1230.35,769.401 1232.07,768.325 1233.78,767.247 1235.5,766.168 1237.22,765.086 1238.93,764.003 1240.65,762.918 1242.36,761.831 1244.08,760.741 1245.8,759.649 1247.51,758.555 1249.23,757.458 1250.94,756.359 1252.66,755.258 1254.38,754.154 1256.09,753.047 1257.81,751.938 1259.52,750.826 1261.24,749.712 1262.96,748.595 1264.67,747.476 1266.39,746.355 1268.1,745.231 1269.82,744.105 1271.53,742.977 1273.25,741.847 1274.97,740.714 1276.68,739.58 1278.4,738.444 1280.11,737.307 1281.83,736.168 1283.55,735.028 1285.26,733.886 1286.98,732.743 1288.69,731.6 1290.41,730.453 1292.13,729.303 1293.84,728.151 1295.56,726.997 1297.27,725.841 1298.99,724.683 1300.71,723.525 1302.42,722.365 1304.14,721.205 1305.85,720.043 1307.57,718.881 1309.29,717.718 1311,716.554 1312.72,715.389 1314.43,714.223 1316.15,713.055 1317.86,711.886 1319.58,710.716 1321.3,709.544 1323.01,708.37 1324.73,707.194 1326.44,706.016 1328.16,704.835 1329.88,703.653 1331.59,702.468 1333.31,701.281 1335.02,700.091 1336.74,698.898 1338.46,697.703 1340.17,696.505 1341.89,695.305 1343.6,694.102 1345.32,692.896 1347.04,691.688 1348.75,690.477 1350.47,689.264 1352.18,688.048 1353.9,686.83 1355.62,685.61 1357.33,684.388 1359.05,683.164 1360.76,681.937 1362.48,680.71 1364.19,679.48 1365.91,678.25 1367.63,677.018 1369.34,675.785 1371.06,674.551 1372.77,673.315 1374.49,672.076 1376.21,670.834 1377.92,669.59 1379.64,668.344 1381.35,667.097 1383.07,665.849 1384.79,664.6 1386.5,663.35 1388.22,662.1 1389.93,660.848 1391.65,659.596 1393.37,658.343 1395.08,657.089 1396.8,655.834 1398.51,654.577 1400.23,653.319 1401.95,652.06 1403.66,650.798 1405.38,649.535 1407.09,648.269 1408.81,647.001 1410.52,645.731 1412.24,644.459 1413.96,643.184 1415.67,641.906 1417.39,640.625 1419.1,639.342 1420.82,638.056 1422.54,636.767 1424.25,635.476 1425.97,634.181 1427.68,632.885 1429.4,631.585 1431.12,630.283 1432.83,628.979 1434.55,627.673 1436.26,626.364 1437.98,625.054 1439.7,623.741 1441.41,622.427 1443.13,621.112 1444.84,619.795 1446.56,618.477 1448.27,617.159 1449.99,615.839 1451.71,614.517 1453.42,613.191 1455.14,611.863 1456.85,610.533 1458.57,609.202 1460.29,607.87 1462,606.537 1463.72,605.203 1465.43,603.869 1467.15,602.534 1468.87,601.198 1470.58,599.862 1472.3,598.524 1474.01,597.185 1475.73,595.845 1477.45,594.503 1479.16,593.16 1480.88,591.815 1482.59,590.467 1484.31,589.117 1486.03,587.765 1487.74,586.41 1489.46,585.053 1491.17,583.692 1492.89,582.33 1494.6,580.964 1496.32,579.595 1498.04,578.224 1499.75,576.85 1501.47,575.473 1503.18,574.093 1504.9,572.711 1506.62,571.326 1508.33,569.939 1510.05,568.55 1511.76,567.159 1513.48,565.766 1515.2,564.372 1516.91,562.976 1518.63,561.579 1520.34,560.18 1522.06,558.782 1523.78,557.382 1525.49,555.978 1527.21,554.572 1528.92,553.163 1530.64,551.753 1532.36,550.343 1534.07,548.931 1535.79,547.519 1537.5,546.106 1539.22,544.693 1540.93,543.279 1542.65,541.864 1544.37,540.448 1546.08,539.031 1547.8,537.612 1549.51,536.192 1551.23,534.77 1552.95,533.346 1554.66,531.92 1556.38,530.491 1558.09,529.06 1559.81,527.626 1561.53,526.19 1563.24,524.75 1564.96,523.308 1566.67,521.863 1568.39,520.415 1570.11,518.964 1571.82,517.51 1573.54,516.053 1575.25,514.594 1576.97,513.133 1578.68,511.669 1580.4,510.203 1582.12,508.735 1583.83,507.266 1585.55,505.795 1587.26,504.323 1588.98,502.849 1590.7,501.376 1592.41,499.901 1594.13,498.423 1595.84,496.942 1597.56,495.459 1599.28,493.974 1600.99,492.489 1602.71,491.003 1604.42,489.517 1606.14,488.03 1607.86,486.542 1609.57,485.054 1611.29,483.565 1613,482.074 1614.72,480.583 1616.44,479.09 1618.15,477.595 1619.87,476.098 1621.58,474.599 1623.3,473.097 1625.01,471.593 1626.73,470.086 1628.45,468.576 1630.16,467.064 1631.88,465.548 1633.59,464.03 1635.31,462.508 1637.03,460.984 1638.74,459.457 1640.46,457.927 1642.17,456.395 1643.89,454.86 1645.61,453.323 1647.32,451.784 1649.04,450.243 1650.75,448.701 1652.47,447.158 1654.19,445.614 1655.9,444.069 1657.62,442.523 1659.33,440.974 1661.05,439.422 1662.77,437.868 1664.48,436.313 1666.2,434.757 1667.91,433.201 1669.63,431.644 1671.34,430.087 1673.06,428.529 1674.78,426.971 1676.49,425.411 1678.21,423.85 1679.92,422.287 1681.64,420.723 1683.36,419.157 1685.07,417.588 1686.79,416.017 1688.5,414.444 1690.22,412.868 1691.94,411.288 1693.65,409.706 1695.37,408.121 1697.08,406.533 1698.8,404.942 1700.52,403.348 1702.23,401.751 1703.95,400.151 1705.66,398.549 1707.38,396.945 1709.1,395.339 1710.81,393.731 1712.53,392.122 1714.24,390.511 1715.96,388.9 1717.67,387.288 1719.39,385.674 1721.11,384.058 1722.82,382.438 1724.54,380.818 1726.25,379.196 1727.97,377.574 1729.69,375.951 1731.4,374.328 1733.12,372.704 1734.83,371.079 1736.55,369.454 1738.27,367.827 1739.98,366.199 1741.7,364.569 1743.41,362.937 1745.13,361.303 1746.85,359.667 1748.56,358.027 1750.28,356.385 1751.99,354.74 1753.71,353.092 1755.42,351.441 1757.14,349.787 1758.86,348.13 1760.57,346.47 1762.29,344.808 1764,343.142 1765.72,341.475 1767.44,339.805 1769.15,338.134 1770.87,336.461 1772.58,334.786 1774.3,333.111 1776.02,331.436 1777.73,329.759 1779.45,328.079 1781.16,326.396 1782.88,324.712 1784.6,323.027 1786.31,321.342 1788.03,319.656 1789.74,317.97 1791.46,316.283 1793.18,314.595 1794.89,312.906 1796.61,311.216 1798.32,309.524 1800.04,307.83 1801.75,306.135 1803.47,304.436 1805.19,302.735 1806.9,301.031 1808.62,299.325 1810.33,297.615 1812.05,295.902 1813.77,294.186 1815.48,292.467 1817.2,290.745 1818.91,289.021 1820.63,287.294 1822.35,285.565 1824.06,283.833 1825.78,282.1 1827.49,280.366 1829.21,278.631 1830.93,276.895 1832.64,275.158 1834.36,273.418 1836.07,271.676 1837.79,269.932 1839.51,268.188 1841.22,266.442 1842.94,264.697 1844.65,262.95 1846.37,261.204 1848.08,259.456 1849.8,257.707 1851.52,255.957 1853.23,254.205 1854.95,252.452 1856.66,250.695 1858.38,248.937 1860.1,247.175 1861.81,245.411 1863.53,243.644 1865.24,241.873 1866.96,240.1 1868.68,238.323 1870.39,236.544 1872.11,234.761 1873.82,232.977 1875.54,231.19 1877.26,229.4 1878.97,227.61 1880.69,225.817 1882.4,224.024 1884.12,222.231 1885.83,220.436 1887.55,218.638 1889.27,216.838 1890.98,215.037 1892.7,213.235 1894.41,211.432 1896.13,209.629 1897.85,207.825 1899.56,206.021 1901.28,204.216 1902.99,202.409 1904.71,200.601 1906.43,198.791 1908.14,196.979 1909.86,195.164 1911.57,193.346 1913.29,191.526 1915.01,189.702 1916.72,187.876 1918.44,186.046 1920.15,184.213 1921.87,182.378 1923.59,180.539 1925.3,178.698 1927.02,176.855 1928.73,175.01 1930.45,173.164 1932.16,171.316 1933.88,169.467 1935.6,167.618 1937.31,165.768 1939.03,163.916 1940.74,162.062 1942.46,160.206 1944.18,158.349 1945.89,156.489 1947.61,154.628 1949.32,152.765 1951.04,150.899 1952.76,149.032 "/>
</svg>
