<?xml version="1.0" encoding="utf-8"?>
<svg xmlns="http://www.w3.org/2000/svg" xmlns:xlink="http://www.w3.org/1999/xlink" width="500" height="320" viewBox="0 0 2000 1280">
<defs>
  <clipPath id="clip880">
    <rect x="0" y="0" width="2000" height="1280"/>
  </clipPath>
</defs>
<path clip-path="url(#clip880)" d="M0 1280 L2000 1280 L2000 0 L0 0  Z" fill="#ffffff" fill-rule="evenodd" fill-opacity="1"/>
<defs>
  <clipPath id="clip881">
    <rect x="400" y="0" width="1401" height="1280"/>
  </clipPath>
</defs>
<path clip-path="url(#clip880)" d="M216.79 1109.66 L1952.76 1109.66 L1952.76 121.053 L216.79 121.053  Z" fill="#ffffff" fill-rule="evenodd" fill-opacity="1"/>
<defs>
  <clipPath id="clip882">
    <rect x="216" y="121" width="1737" height="990"/>
  </clipPath>
</defs>
<polyline clip-path="url(#clip882)" style="stroke:#000000; stroke-linecap:round; stroke-linejoin:round; stroke-width:2; stroke-opacity:0.1; fill:none" points="216.79,1109.66 216.79,121.053 "/>
<polyline clip-path="url(#clip882)" style="stroke:#000000; stroke-linecap:round; stroke-linejoin:round; stroke-width:2; stroke-opacity:0.1; fill:none" points="650.781,1109.66 650.781,121.053 "/>
<polyline clip-path="url(#clip882)" style="stroke:#000000; stroke-linecap:round; stroke-linejoin:round; stroke-width:2; stroke-opacity:0.1; fill:none" points="1084.77,1109.66 1084.77,121.053 "/>
<polyline clip-path="url(#clip882)" style="stroke:#000000; stroke-linecap:round; stroke-linejoin:round; stroke-width:2; stroke-opacity:0.1; fill:none" points="1518.76,1109.66 1518.76,121.053 "/>
<polyline clip-path="url(#clip882)" style="stroke:#000000; stroke-linecap:round; stroke-linejoin:round; stroke-width:2; stroke-opacity:0.1; fill:none" points="1952.76,1109.66 1952.76,121.053 "/>
<polyline clip-path="url(#clip880)" style="stroke:#000000; stroke-linecap:round; stroke-linejoin:round; stroke-width:4; stroke-opacity:1; fill:none" points="216.79,1109.66 1952.76,1109.66 "/>
<polyline clip-path="url(#clip880)" style="stroke:#000000; stroke-linecap:round; stroke-linejoin:round; stroke-width:4; stroke-opacity:1; fill:none" points="216.79,1109.66 216.79,1090.77 "/>
<polyline clip-path="url(#clip880)" style="stroke:#000000; stroke-linecap:round; stroke-linejoin:round; stroke-width:4; stroke-opacity:1; fill:none" points="650.781,1109.66 650.781,1090.77 "/>
<polyline clip-path="url(#clip880)" style="stroke:#000000; stroke-linecap:round; stroke-linejoin:round; stroke-width:4; stroke-opacity:1; fill:none" points="1084.77,1109.66 1084.77,1090.77 "/>
<polyline clip-path="url(#clip880)" style="stroke:#000000; stroke-linecap:round; stroke-linejoin:round; stroke-width:4; stroke-opacity:1; fill:none" points="1518.76,1109.66 1518.76,1090.77 "/>
<polyline clip-path="url(#clip880)" style="stroke:#000000; stroke-linecap:round; stroke-linejoin:round; stroke-width:4; stroke-opacity:1; fill:none" points="1952.76,1109.66 1952.76,1090.77 "/>
<path clip-path="url(#clip880)" d="M207.172 1164.93 L214.81 1164.93 L214.81 1138.56 L206.5 1140.23 L206.5 1135.97 L214.764 1134.3 L219.44 1134.3 L219.44 1164.93 L227.079 1164.93 L227.079 1168.86 L207.172 1168.86 L207.172 1164.93 Z" fill="#000000" fill-rule="nonzero" fill-opacity="1" /><path clip-path="url(#clip880)" d="M645.434 1164.93 L661.753 1164.93 L661.753 1168.86 L639.809 1168.86 L639.809 1164.93 Q642.471 1162.17 647.054 1157.54 Q651.661 1152.89 652.841 1151.55 Q655.087 1149.03 655.966 1147.29 Q656.869 1145.53 656.869 1143.84 Q656.869 1141.09 654.925 1139.35 Q653.003 1137.61 649.901 1137.61 Q647.702 1137.61 645.249 1138.38 Q642.818 1139.14 640.04 1140.69 L640.04 1135.97 Q642.864 1134.84 645.318 1134.26 Q647.772 1133.68 649.809 1133.68 Q655.179 1133.68 658.374 1136.36 Q661.568 1139.05 661.568 1143.54 Q661.568 1145.67 660.758 1147.59 Q659.971 1149.49 657.864 1152.08 Q657.286 1152.75 654.184 1155.97 Q651.082 1159.16 645.434 1164.93 Z" fill="#000000" fill-rule="nonzero" fill-opacity="1" /><path clip-path="url(#clip880)" d="M1089.02 1150.23 Q1092.38 1150.95 1094.25 1153.21 Q1096.15 1155.48 1096.15 1158.82 Q1096.15 1163.93 1092.63 1166.73 Q1089.11 1169.53 1082.63 1169.53 Q1080.46 1169.53 1078.14 1169.09 Q1075.85 1168.68 1073.4 1167.82 L1073.4 1163.31 Q1075.34 1164.44 1077.65 1165.02 Q1079.97 1165.6 1082.49 1165.6 Q1086.89 1165.6 1089.18 1163.86 Q1091.5 1162.13 1091.5 1158.82 Q1091.5 1155.76 1089.34 1154.05 Q1087.21 1152.31 1083.4 1152.31 L1079.37 1152.31 L1079.37 1148.47 L1083.58 1148.47 Q1087.03 1148.47 1088.86 1147.1 Q1090.69 1145.72 1090.69 1143.12 Q1090.69 1140.46 1088.79 1139.05 Q1086.91 1137.61 1083.4 1137.61 Q1081.47 1137.61 1079.28 1138.03 Q1077.08 1138.45 1074.44 1139.33 L1074.44 1135.16 Q1077.1 1134.42 1079.41 1134.05 Q1081.75 1133.68 1083.81 1133.68 Q1089.14 1133.68 1092.24 1136.11 Q1095.34 1138.52 1095.34 1142.64 Q1095.34 1145.51 1093.7 1147.5 Q1092.05 1149.46 1089.02 1150.23 Z" fill="#000000" fill-rule="nonzero" fill-opacity="1" /><path clip-path="url(#clip880)" d="M1521.77 1138.38 L1509.97 1156.83 L1521.77 1156.83 L1521.77 1138.38 M1520.55 1134.3 L1526.43 1134.3 L1526.43 1156.83 L1531.36 1156.83 L1531.36 1160.71 L1526.43 1160.71 L1526.43 1168.86 L1521.77 1168.86 L1521.77 1160.71 L1506.17 1160.71 L1506.17 1156.2 L1520.55 1134.3 Z" fill="#000000" fill-rule="nonzero" fill-opacity="1" /><path clip-path="url(#clip880)" d="M1943.03 1134.3 L1961.39 1134.3 L1961.39 1138.24 L1947.32 1138.24 L1947.32 1146.71 Q1948.33 1146.36 1949.35 1146.2 Q1950.37 1146.02 1951.39 1146.02 Q1957.18 1146.02 1960.56 1149.19 Q1963.94 1152.36 1963.94 1157.78 Q1963.94 1163.35 1960.46 1166.46 Q1956.99 1169.53 1950.67 1169.53 Q1948.5 1169.53 1946.23 1169.16 Q1943.98 1168.79 1941.58 1168.05 L1941.58 1163.35 Q1943.66 1164.49 1945.88 1165.04 Q1948.1 1165.6 1950.58 1165.6 Q1954.58 1165.6 1956.92 1163.49 Q1959.26 1161.39 1959.26 1157.78 Q1959.26 1154.16 1956.92 1152.06 Q1954.58 1149.95 1950.58 1149.95 Q1948.71 1149.95 1946.83 1150.37 Q1944.98 1150.78 1943.03 1151.66 L1943.03 1134.3 Z" fill="#000000" fill-rule="nonzero" fill-opacity="1" /><path clip-path="url(#clip880)" d="M1083.83 1202.76 L1083.83 1212.88 L1095.9 1212.88 L1095.9 1217.43 L1083.83 1217.43 L1083.83 1236.78 Q1083.83 1241.14 1085.01 1242.38 Q1086.22 1243.63 1089.88 1243.63 L1095.9 1243.63 L1095.9 1248.53 L1089.88 1248.53 Q1083.1 1248.53 1080.52 1246.01 Q1077.95 1243.47 1077.95 1236.78 L1077.95 1217.43 L1073.65 1217.43 L1073.65 1212.88 L1077.95 1212.88 L1077.95 1202.76 L1083.83 1202.76 Z" fill="#000000" fill-rule="nonzero" fill-opacity="1" /><polyline clip-path="url(#clip882)" style="stroke:#000000; stroke-linecap:round; stroke-linejoin:round; stroke-width:2; stroke-opacity:0.1; fill:none" points="216.79,672.877 1952.76,672.877 "/>
<polyline clip-path="url(#clip882)" style="stroke:#000000; stroke-linecap:round; stroke-linejoin:round; stroke-width:2; stroke-opacity:0.1; fill:none" points="216.79,135.989 1952.76,135.989 "/>
<polyline clip-path="url(#clip880)" style="stroke:#000000; stroke-linecap:round; stroke-linejoin:round; stroke-width:4; stroke-opacity:1; fill:none" points="216.79,1109.66 216.79,121.053 "/>
<polyline clip-path="url(#clip880)" style="stroke:#000000; stroke-linecap:round; stroke-linejoin:round; stroke-width:4; stroke-opacity:1; fill:none" points="216.79,672.877 235.687,672.877 "/>
<polyline clip-path="url(#clip880)" style="stroke:#000000; stroke-linecap:round; stroke-linejoin:round; stroke-width:4; stroke-opacity:1; fill:none" points="216.79,135.989 235.687,135.989 "/>
<path clip-path="url(#clip880)" d="M117.664 692.669 L125.303 692.669 L125.303 666.303 L116.992 667.97 L116.992 663.711 L125.256 662.044 L129.932 662.044 L129.932 692.669 L137.571 692.669 L137.571 696.604 L117.664 696.604 L117.664 692.669 Z" fill="#000000" fill-rule="nonzero" fill-opacity="1" /><path clip-path="url(#clip880)" d="M157.015 665.123 Q153.404 665.123 151.576 668.688 Q149.77 672.229 149.77 679.359 Q149.77 686.465 151.576 690.03 Q153.404 693.572 157.015 693.572 Q160.65 693.572 162.455 690.03 Q164.284 686.465 164.284 679.359 Q164.284 672.229 162.455 668.688 Q160.65 665.123 157.015 665.123 M157.015 661.419 Q162.826 661.419 165.881 666.026 Q168.96 670.609 168.96 679.359 Q168.96 688.086 165.881 692.692 Q162.826 697.275 157.015 697.275 Q151.205 697.275 148.127 692.692 Q145.071 688.086 145.071 679.359 Q145.071 670.609 148.127 666.026 Q151.205 661.419 157.015 661.419 Z" fill="#000000" fill-rule="nonzero" fill-opacity="1" /><path clip-path="url(#clip880)" d="M173.53 665.996 L186.79 665.996 L186.79 669.194 L168.96 669.194 L168.96 665.996 Q171.123 663.758 174.847 659.997 Q178.589 656.216 179.549 655.126 Q181.373 653.075 182.088 651.665 Q182.821 650.235 182.821 648.863 Q182.821 646.624 181.241 645.214 Q179.68 643.803 177.16 643.803 Q175.373 643.803 173.38 644.424 Q171.405 645.045 169.148 646.305 L169.148 642.468 Q171.442 641.546 173.436 641.076 Q175.43 640.606 177.085 640.606 Q181.448 640.606 184.044 642.788 Q186.639 644.969 186.639 648.618 Q186.639 650.348 185.981 651.909 Q185.341 653.452 183.63 655.558 Q183.16 656.104 180.639 658.718 Q178.119 661.313 173.53 665.996 Z" fill="#000000" fill-rule="nonzero" fill-opacity="1" /><path clip-path="url(#clip880)" d="M115.031 155.782 L122.669 155.782 L122.669 129.416 L114.359 131.083 L114.359 126.824 L122.623 125.157 L127.299 125.157 L127.299 155.782 L134.938 155.782 L134.938 159.717 L115.031 159.717 L115.031 155.782 Z" fill="#000000" fill-rule="nonzero" fill-opacity="1" /><path clip-path="url(#clip880)" d="M154.382 128.236 Q150.771 128.236 148.943 131.8 Q147.137 135.342 147.137 142.472 Q147.137 149.578 148.943 153.143 Q150.771 156.685 154.382 156.685 Q158.017 156.685 159.822 153.143 Q161.651 149.578 161.651 142.472 Q161.651 135.342 159.822 131.8 Q158.017 128.236 154.382 128.236 M154.382 124.532 Q160.192 124.532 163.248 129.138 Q166.327 133.722 166.327 142.472 Q166.327 151.199 163.248 155.805 Q160.192 160.388 154.382 160.388 Q148.572 160.388 145.493 155.805 Q142.438 151.199 142.438 142.472 Q142.438 133.722 145.493 129.138 Q148.572 124.532 154.382 124.532 Z" fill="#000000" fill-rule="nonzero" fill-opacity="1" /><path clip-path="url(#clip880)" d="M179.003 107.537 L169.411 122.527 L179.003 122.527 L179.003 107.537 M178.006 104.227 L182.783 104.227 L182.783 122.527 L186.79 122.527 L186.79 125.686 L182.783 125.686 L182.783 132.307 L179.003 132.307 L179.003 125.686 L166.327 125.686 L166.327 122.019 L178.006 104.227 Z" fill="#000000" fill-rule="nonzero" fill-opacity="1" /><path clip-path="url(#clip880)" d="M34.4554 598.743 L51.802 611.634 L70.1034 598.075 L70.1034 604.982 L56.0988 615.358 L70.1034 625.734 L70.1034 632.641 L51.4518 618.795 L34.4554 631.463 L34.4554 624.556 L47.155 615.103 L34.4554 605.65 L34.4554 598.743 Z" fill="#000000" fill-rule="nonzero" fill-opacity="1" /><path clip-path="url(#clip880)" d="M469.137 16.7545 L469.137 25.383 Q465.005 21.5346 460.306 19.6307 Q455.647 17.7268 450.381 17.7268 Q440.011 17.7268 434.501 24.0867 Q428.992 30.4061 428.992 42.3968 Q428.992 54.3469 434.501 60.7069 Q440.011 67.0263 450.381 67.0263 Q455.647 67.0263 460.306 65.1223 Q465.005 63.2184 469.137 59.3701 L469.137 67.9175 Q464.843 70.8341 460.022 72.2924 Q455.242 73.7508 449.895 73.7508 Q436.162 73.7508 428.263 65.3654 Q420.364 56.9395 420.364 42.3968 Q420.364 27.8135 428.263 19.4281 Q436.162 11.0023 449.895 11.0023 Q455.323 11.0023 460.103 12.4606 Q464.924 13.8784 469.137 16.7545 Z" fill="#000000" fill-rule="nonzero" fill-opacity="1" /><path clip-path="url(#clip880)" d="M499.032 32.4315 Q493.037 32.4315 489.553 37.1306 Q486.069 41.7891 486.069 49.9314 Q486.069 58.0738 489.513 62.7728 Q492.996 67.4314 499.032 67.4314 Q504.987 67.4314 508.471 62.7323 Q511.955 58.0333 511.955 49.9314 Q511.955 41.8701 508.471 37.1711 Q504.987 32.4315 499.032 32.4315 M499.032 26.1121 Q508.754 26.1121 514.304 32.4315 Q519.854 38.7509 519.854 49.9314 Q519.854 61.0714 514.304 67.4314 Q508.754 73.7508 499.032 73.7508 Q489.27 73.7508 483.72 67.4314 Q478.211 61.0714 478.211 49.9314 Q478.211 38.7509 483.72 32.4315 Q489.27 26.1121 499.032 26.1121 Z" fill="#000000" fill-rule="nonzero" fill-opacity="1" /><path clip-path="url(#clip880)" d="M569.923 45.1919 L569.923 72.576 L562.469 72.576 L562.469 45.4349 Q562.469 38.994 559.958 35.7938 Q557.446 32.5936 552.423 32.5936 Q546.387 32.5936 542.904 36.4419 Q539.42 40.2903 539.42 46.9338 L539.42 72.576 L531.926 72.576 L531.926 27.2059 L539.42 27.2059 L539.42 34.2544 Q542.093 30.163 545.699 28.1376 Q549.344 26.1121 554.084 26.1121 Q561.902 26.1121 565.913 30.9732 Q569.923 35.7938 569.923 45.1919 Z" fill="#000000" fill-rule="nonzero" fill-opacity="1" /><path clip-path="url(#clip880)" d="M613.713 28.5427 L613.713 35.5912 Q610.554 33.9709 607.151 33.1607 Q603.748 32.3505 600.102 32.3505 Q594.553 32.3505 591.757 34.0519 Q589.003 35.7533 589.003 39.156 Q589.003 41.7486 590.988 43.2475 Q592.973 44.7058 598.968 46.0426 L601.52 46.6097 Q609.46 48.3111 612.782 51.4303 Q616.144 54.509 616.144 60.0587 Q616.144 66.3781 611.121 70.0644 Q606.138 73.7508 597.388 73.7508 Q593.742 73.7508 589.772 73.0216 Q585.843 72.3329 581.468 70.9151 L581.468 63.2184 Q585.6 65.3654 589.61 66.4591 Q593.621 67.5124 597.55 67.5124 Q602.816 67.5124 605.652 65.73 Q608.488 63.9071 608.488 60.6258 Q608.488 57.5877 606.422 55.9673 Q604.396 54.3469 597.469 52.8481 L594.877 52.2405 Q587.95 50.7821 584.871 47.7845 Q581.792 44.7463 581.792 39.4801 Q581.792 33.0797 586.329 29.5959 Q590.866 26.1121 599.211 26.1121 Q603.343 26.1121 606.989 26.7198 Q610.635 27.3274 613.713 28.5427 Z" fill="#000000" fill-rule="nonzero" fill-opacity="1" /><path clip-path="url(#clip880)" d="M635.386 14.324 L635.386 27.2059 L650.739 27.2059 L650.739 32.9987 L635.386 32.9987 L635.386 57.6282 Q635.386 63.1779 636.884 64.7578 Q638.424 66.3376 643.082 66.3376 L650.739 66.3376 L650.739 72.576 L643.082 72.576 Q634.454 72.576 631.173 69.3758 Q627.891 66.1351 627.891 57.6282 L627.891 32.9987 L622.423 32.9987 L622.423 27.2059 L627.891 27.2059 L627.891 14.324 L635.386 14.324 Z" fill="#000000" fill-rule="nonzero" fill-opacity="1" /><path clip-path="url(#clip880)" d="M681.161 49.7694 Q672.127 49.7694 668.644 51.8354 Q665.16 53.9013 665.16 58.8839 Q665.16 62.8538 667.752 65.2034 Q670.385 67.5124 674.882 67.5124 Q681.08 67.5124 684.807 63.1374 Q688.574 58.7219 688.574 51.4303 L688.574 49.7694 L681.161 49.7694 M696.028 46.6907 L696.028 72.576 L688.574 72.576 L688.574 65.6895 Q686.022 69.8214 682.214 71.8063 Q678.406 73.7508 672.897 73.7508 Q665.929 73.7508 661.798 69.8619 Q657.706 65.9325 657.706 59.3701 Q657.706 51.7138 662.81 47.825 Q667.955 43.9361 678.123 43.9361 L688.574 43.9361 L688.574 43.2069 Q688.574 38.0623 685.171 35.2672 Q681.809 32.4315 675.692 32.4315 Q671.803 32.4315 668.117 33.3632 Q664.431 34.295 661.028 36.1584 L661.028 29.2718 Q665.119 27.692 668.968 26.9223 Q672.816 26.1121 676.462 26.1121 Q686.306 26.1121 691.167 31.2163 Q696.028 36.3204 696.028 46.6907 Z" fill="#000000" fill-rule="nonzero" fill-opacity="1" /><path clip-path="url(#clip880)" d="M749.095 45.1919 L749.095 72.576 L741.641 72.576 L741.641 45.4349 Q741.641 38.994 739.129 35.7938 Q736.618 32.5936 731.595 32.5936 Q725.559 32.5936 722.075 36.4419 Q718.591 40.2903 718.591 46.9338 L718.591 72.576 L711.097 72.576 L711.097 27.2059 L718.591 27.2059 L718.591 34.2544 Q721.265 30.163 724.87 28.1376 Q728.516 26.1121 733.256 26.1121 Q741.074 26.1121 745.084 30.9732 Q749.095 35.7938 749.095 45.1919 Z" fill="#000000" fill-rule="nonzero" fill-opacity="1" /><path clip-path="url(#clip880)" d="M771.334 14.324 L771.334 27.2059 L786.687 27.2059 L786.687 32.9987 L771.334 32.9987 L771.334 57.6282 Q771.334 63.1779 772.833 64.7578 Q774.372 66.3376 779.031 66.3376 L786.687 66.3376 L786.687 72.576 L779.031 72.576 Q770.402 72.576 767.121 69.3758 Q763.84 66.1351 763.84 57.6282 L763.84 32.9987 L758.371 32.9987 L758.371 27.2059 L763.84 27.2059 L763.84 14.324 L771.334 14.324 Z" fill="#000000" fill-rule="nonzero" fill-opacity="1" /><path clip-path="url(#clip880)" d="M852.717 49.3643 Q852.717 41.2625 849.354 36.8065 Q846.033 32.3505 839.997 32.3505 Q834.001 32.3505 830.639 36.8065 Q827.317 41.2625 827.317 49.3643 Q827.317 57.4256 830.639 61.8816 Q834.001 66.3376 839.997 66.3376 Q846.033 66.3376 849.354 61.8816 Q852.717 57.4256 852.717 49.3643 M860.17 66.9452 Q860.17 78.5308 855.026 84.1616 Q849.881 89.8329 839.268 89.8329 Q835.338 89.8329 831.855 89.2252 Q828.371 88.6581 825.09 87.4428 L825.09 80.1917 Q828.371 81.9741 831.571 82.8248 Q834.771 83.6755 838.093 83.6755 Q845.425 83.6755 849.071 79.8271 Q852.717 76.0193 852.717 68.282 L852.717 64.5957 Q850.408 68.6061 846.802 70.5911 Q843.197 72.576 838.174 72.576 Q829.829 72.576 824.725 66.2161 Q819.621 59.8562 819.621 49.3643 Q819.621 38.832 824.725 32.472 Q829.829 26.1121 838.174 26.1121 Q843.197 26.1121 846.802 28.0971 Q850.408 30.082 852.717 34.0924 L852.717 27.2059 L860.17 27.2059 L860.17 66.9452 Z" fill="#000000" fill-rule="nonzero" fill-opacity="1" /><path clip-path="url(#clip880)" d="M901.814 34.1734 Q900.558 33.4443 899.059 33.1202 Q897.601 32.7556 895.818 32.7556 Q889.499 32.7556 886.096 36.8875 Q882.734 40.9789 882.734 48.6757 L882.734 72.576 L875.24 72.576 L875.24 27.2059 L882.734 27.2059 L882.734 34.2544 Q885.083 30.1225 888.851 28.1376 Q892.618 26.1121 898.006 26.1121 Q898.775 26.1121 899.707 26.2337 Q900.639 26.3147 901.773 26.5172 L901.814 34.1734 Z" fill="#000000" fill-rule="nonzero" fill-opacity="1" /><path clip-path="url(#clip880)" d="M925.39 32.4315 Q919.395 32.4315 915.911 37.1306 Q912.427 41.7891 912.427 49.9314 Q912.427 58.0738 915.87 62.7728 Q919.354 67.4314 925.39 67.4314 Q931.345 67.4314 934.828 62.7323 Q938.312 58.0333 938.312 49.9314 Q938.312 41.8701 934.828 37.1711 Q931.345 32.4315 925.39 32.4315 M925.39 26.1121 Q935.112 26.1121 940.662 32.4315 Q946.212 38.7509 946.212 49.9314 Q946.212 61.0714 940.662 67.4314 Q935.112 73.7508 925.39 73.7508 Q915.627 73.7508 910.077 67.4314 Q904.568 61.0714 904.568 49.9314 Q904.568 38.7509 910.077 32.4315 Q915.627 26.1121 925.39 26.1121 Z" fill="#000000" fill-rule="nonzero" fill-opacity="1" /><path clip-path="url(#clip880)" d="M954.232 27.2059 L961.686 27.2059 L971.003 62.6108 L980.28 27.2059 L989.07 27.2059 L998.387 62.6108 L1007.66 27.2059 L1015.12 27.2059 L1003.25 72.576 L994.458 72.576 L984.695 35.3887 L974.892 72.576 L966.101 72.576 L954.232 27.2059 Z" fill="#000000" fill-rule="nonzero" fill-opacity="1" /><path clip-path="url(#clip880)" d="M1033.79 14.324 L1033.79 27.2059 L1049.15 27.2059 L1049.15 32.9987 L1033.79 32.9987 L1033.79 57.6282 Q1033.79 63.1779 1035.29 64.7578 Q1036.83 66.3376 1041.49 66.3376 L1049.15 66.3376 L1049.15 72.576 L1041.49 72.576 Q1032.86 72.576 1029.58 69.3758 Q1026.3 66.1351 1026.3 57.6282 L1026.3 32.9987 L1020.83 32.9987 L1020.83 27.2059 L1026.3 27.2059 L1026.3 14.324 L1033.79 14.324 Z" fill="#000000" fill-rule="nonzero" fill-opacity="1" /><path clip-path="url(#clip880)" d="M1096.66 45.1919 L1096.66 72.576 L1089.21 72.576 L1089.21 45.4349 Q1089.21 38.994 1086.7 35.7938 Q1084.19 32.5936 1079.16 32.5936 Q1073.13 32.5936 1069.64 36.4419 Q1066.16 40.2903 1066.16 46.9338 L1066.16 72.576 L1058.66 72.576 L1058.66 9.54393 L1066.16 9.54393 L1066.16 34.2544 Q1068.83 30.163 1072.44 28.1376 Q1076.08 26.1121 1080.82 26.1121 Q1088.64 26.1121 1092.65 30.9732 Q1096.66 35.7938 1096.66 45.1919 Z" fill="#000000" fill-rule="nonzero" fill-opacity="1" /><path clip-path="url(#clip880)" d="M1164.19 34.1734 Q1162.93 33.4443 1161.44 33.1202 Q1159.98 32.7556 1158.2 32.7556 Q1151.88 32.7556 1148.47 36.8875 Q1145.11 40.9789 1145.11 48.6757 L1145.11 72.576 L1137.62 72.576 L1137.62 27.2059 L1145.11 27.2059 L1145.11 34.2544 Q1147.46 30.1225 1151.23 28.1376 Q1155 26.1121 1160.38 26.1121 Q1161.15 26.1121 1162.08 26.2337 Q1163.02 26.3147 1164.15 26.5172 L1164.19 34.1734 Z" fill="#000000" fill-rule="nonzero" fill-opacity="1" /><path clip-path="url(#clip880)" d="M1192.63 49.7694 Q1183.59 49.7694 1180.11 51.8354 Q1176.63 53.9013 1176.63 58.8839 Q1176.63 62.8538 1179.22 65.2034 Q1181.85 67.5124 1186.35 67.5124 Q1192.55 67.5124 1196.27 63.1374 Q1200.04 58.7219 1200.04 51.4303 L1200.04 49.7694 L1192.63 49.7694 M1207.49 46.6907 L1207.49 72.576 L1200.04 72.576 L1200.04 65.6895 Q1197.49 69.8214 1193.68 71.8063 Q1189.87 73.7508 1184.36 73.7508 Q1177.4 73.7508 1173.26 69.8619 Q1169.17 65.9325 1169.17 59.3701 Q1169.17 51.7138 1174.28 47.825 Q1179.42 43.9361 1189.59 43.9361 L1200.04 43.9361 L1200.04 43.2069 Q1200.04 38.0623 1196.64 35.2672 Q1193.28 32.4315 1187.16 32.4315 Q1183.27 32.4315 1179.58 33.3632 Q1175.9 34.295 1172.5 36.1584 L1172.5 29.2718 Q1176.59 27.692 1180.43 26.9223 Q1184.28 26.1121 1187.93 26.1121 Q1197.77 26.1121 1202.63 31.2163 Q1207.49 36.3204 1207.49 46.6907 Z" fill="#000000" fill-rule="nonzero" fill-opacity="1" /><path clip-path="url(#clip880)" d="M1230.22 14.324 L1230.22 27.2059 L1245.57 27.2059 L1245.57 32.9987 L1230.22 32.9987 L1230.22 57.6282 Q1230.22 63.1779 1231.72 64.7578 Q1233.26 66.3376 1237.92 66.3376 L1245.57 66.3376 L1245.57 72.576 L1237.92 72.576 Q1229.29 72.576 1226.01 69.3758 Q1222.73 66.1351 1222.73 57.6282 L1222.73 32.9987 L1217.26 32.9987 L1217.26 27.2059 L1222.73 27.2059 L1222.73 14.324 L1230.22 14.324 Z" fill="#000000" fill-rule="nonzero" fill-opacity="1" /><path clip-path="url(#clip880)" d="M1294.18 48.0275 L1294.18 51.6733 L1259.91 51.6733 Q1260.4 59.3701 1264.53 63.421 Q1268.7 67.4314 1276.12 67.4314 Q1280.41 67.4314 1284.42 66.3781 Q1288.47 65.3249 1292.44 63.2184 L1292.44 70.267 Q1288.43 71.9684 1284.22 72.8596 Q1280.01 73.7508 1275.67 73.7508 Q1264.82 73.7508 1258.46 67.4314 Q1252.14 61.1119 1252.14 50.3365 Q1252.14 39.1965 1258.13 32.6746 Q1264.17 26.1121 1274.38 26.1121 Q1283.53 26.1121 1288.84 32.0264 Q1294.18 37.9003 1294.18 48.0275 M1286.73 45.84 Q1286.65 39.7232 1283.29 36.0774 Q1279.97 32.4315 1274.46 32.4315 Q1268.22 32.4315 1264.45 35.9558 Q1260.72 39.4801 1260.16 45.8805 L1286.73 45.84 Z" fill="#000000" fill-rule="nonzero" fill-opacity="1" /><path clip-path="url(#clip880)" d="M1350.69 9.62495 Q1345.27 18.942 1342.63 28.0566 Q1340 37.1711 1340 46.5287 Q1340 55.8863 1342.63 65.0818 Q1345.31 74.2369 1350.69 83.5134 L1344.21 83.5134 Q1338.14 73.9938 1335.1 64.7983 Q1332.1 55.6027 1332.1 46.5287 Q1332.1 37.4952 1335.1 28.3401 Q1338.1 19.1851 1344.21 9.62495 L1350.69 9.62495 Z" fill="#000000" fill-rule="nonzero" fill-opacity="1" /><path clip-path="url(#clip880)" d="M1365.16 9.54393 L1372.61 9.54393 L1372.61 72.576 L1365.16 72.576 L1365.16 9.54393 Z" fill="#000000" fill-rule="nonzero" fill-opacity="1" /><path clip-path="url(#clip880)" d="M1405.79 32.4315 Q1399.79 32.4315 1396.31 37.1306 Q1392.82 41.7891 1392.82 49.9314 Q1392.82 58.0738 1396.27 62.7728 Q1399.75 67.4314 1405.79 67.4314 Q1411.74 67.4314 1415.23 62.7323 Q1418.71 58.0333 1418.71 49.9314 Q1418.71 41.8701 1415.23 37.1711 Q1411.74 32.4315 1405.79 32.4315 M1405.79 26.1121 Q1415.51 26.1121 1421.06 32.4315 Q1426.61 38.7509 1426.61 49.9314 Q1426.61 61.0714 1421.06 67.4314 Q1415.51 73.7508 1405.79 73.7508 Q1396.02 73.7508 1390.47 67.4314 Q1384.96 61.0714 1384.96 49.9314 Q1384.96 38.7509 1390.47 32.4315 Q1396.02 26.1121 1405.79 26.1121 Z" fill="#000000" fill-rule="nonzero" fill-opacity="1" /><path clip-path="url(#clip880)" d="M1468.82 49.3643 Q1468.82 41.2625 1465.46 36.8065 Q1462.13 32.3505 1456.1 32.3505 Q1450.1 32.3505 1446.74 36.8065 Q1443.42 41.2625 1443.42 49.3643 Q1443.42 57.4256 1446.74 61.8816 Q1450.1 66.3376 1456.1 66.3376 Q1462.13 66.3376 1465.46 61.8816 Q1468.82 57.4256 1468.82 49.3643 M1476.27 66.9452 Q1476.27 78.5308 1471.13 84.1616 Q1465.98 89.8329 1455.37 89.8329 Q1451.44 89.8329 1447.96 89.2252 Q1444.47 88.6581 1441.19 87.4428 L1441.19 80.1917 Q1444.47 81.9741 1447.67 82.8248 Q1450.87 83.6755 1454.19 83.6755 Q1461.53 83.6755 1465.17 79.8271 Q1468.82 76.0193 1468.82 68.282 L1468.82 64.5957 Q1466.51 68.6061 1462.9 70.5911 Q1459.3 72.576 1454.28 72.576 Q1445.93 72.576 1440.83 66.2161 Q1435.72 59.8562 1435.72 49.3643 Q1435.72 38.832 1440.83 32.472 Q1445.93 26.1121 1454.28 26.1121 Q1459.3 26.1121 1462.9 28.0971 Q1466.51 30.082 1468.82 34.0924 L1468.82 27.2059 L1476.27 27.2059 L1476.27 66.9452 Z" fill="#000000" fill-rule="nonzero" fill-opacity="1" /><path clip-path="url(#clip880)" d="M1546.92 28.5427 L1546.92 35.5912 Q1543.76 33.9709 1540.36 33.1607 Q1536.95 32.3505 1533.31 32.3505 Q1527.76 32.3505 1524.96 34.0519 Q1522.21 35.7533 1522.21 39.156 Q1522.21 41.7486 1524.19 43.2475 Q1526.18 44.7058 1532.17 46.0426 L1534.73 46.6097 Q1542.67 48.3111 1545.99 51.4303 Q1549.35 54.509 1549.35 60.0587 Q1549.35 66.3781 1544.33 70.0644 Q1539.34 73.7508 1530.59 73.7508 Q1526.95 73.7508 1522.98 73.0216 Q1519.05 72.3329 1514.67 70.9151 L1514.67 63.2184 Q1518.81 65.3654 1522.82 66.4591 Q1526.83 67.5124 1530.76 67.5124 Q1536.02 67.5124 1538.86 65.73 Q1541.69 63.9071 1541.69 60.6258 Q1541.69 57.5877 1539.63 55.9673 Q1537.6 54.3469 1530.68 52.8481 L1528.08 52.2405 Q1521.16 50.7821 1518.08 47.7845 Q1515 44.7463 1515 39.4801 Q1515 33.0797 1519.54 29.5959 Q1524.07 26.1121 1532.42 26.1121 Q1536.55 26.1121 1540.2 26.7198 Q1543.84 27.3274 1546.92 28.5427 Z" fill="#000000" fill-rule="nonzero" fill-opacity="1" /><path clip-path="url(#clip880)" d="M1593.87 28.9478 L1593.87 35.9153 Q1590.71 34.1734 1587.51 33.3227 Q1584.35 32.4315 1581.11 32.4315 Q1573.86 32.4315 1569.85 37.0496 Q1565.84 41.6271 1565.84 49.9314 Q1565.84 58.2358 1569.85 62.8538 Q1573.86 67.4314 1581.11 67.4314 Q1584.35 67.4314 1587.51 66.5807 Q1590.71 65.6895 1593.87 63.9476 L1593.87 70.8341 Q1590.75 72.2924 1587.39 73.0216 Q1584.07 73.7508 1580.3 73.7508 Q1570.05 73.7508 1564.01 67.3098 Q1557.98 60.8689 1557.98 49.9314 Q1557.98 38.832 1564.06 32.472 Q1570.17 26.1121 1580.79 26.1121 Q1584.23 26.1121 1587.51 26.8413 Q1590.79 27.5299 1593.87 28.9478 Z" fill="#000000" fill-rule="nonzero" fill-opacity="1" /><path clip-path="url(#clip880)" d="M1627.45 49.7694 Q1618.42 49.7694 1614.93 51.8354 Q1611.45 53.9013 1611.45 58.8839 Q1611.45 62.8538 1614.04 65.2034 Q1616.68 67.5124 1621.17 67.5124 Q1627.37 67.5124 1631.1 63.1374 Q1634.87 58.7219 1634.87 51.4303 L1634.87 49.7694 L1627.45 49.7694 M1642.32 46.6907 L1642.32 72.576 L1634.87 72.576 L1634.87 65.6895 Q1632.31 69.8214 1628.51 71.8063 Q1624.7 73.7508 1619.19 73.7508 Q1612.22 73.7508 1608.09 69.8619 Q1604 65.9325 1604 59.3701 Q1604 51.7138 1609.1 47.825 Q1614.25 43.9361 1624.41 43.9361 L1634.87 43.9361 L1634.87 43.2069 Q1634.87 38.0623 1631.46 35.2672 Q1628.1 32.4315 1621.98 32.4315 Q1618.09 32.4315 1614.41 33.3632 Q1610.72 34.295 1607.32 36.1584 L1607.32 29.2718 Q1611.41 27.692 1615.26 26.9223 Q1619.11 26.1121 1622.75 26.1121 Q1632.6 26.1121 1637.46 31.2163 Q1642.32 36.3204 1642.32 46.6907 Z" fill="#000000" fill-rule="nonzero" fill-opacity="1" /><path clip-path="url(#clip880)" d="M1657.67 9.54393 L1665.13 9.54393 L1665.13 72.576 L1657.67 72.576 L1657.67 9.54393 Z" fill="#000000" fill-rule="nonzero" fill-opacity="1" /><path clip-path="url(#clip880)" d="M1719.53 48.0275 L1719.53 51.6733 L1685.26 51.6733 Q1685.74 59.3701 1689.88 63.421 Q1694.05 67.4314 1701.46 67.4314 Q1705.76 67.4314 1709.77 66.3781 Q1713.82 65.3249 1717.79 63.2184 L1717.79 70.267 Q1713.78 71.9684 1709.56 72.8596 Q1705.35 73.7508 1701.02 73.7508 Q1690.16 73.7508 1683.8 67.4314 Q1677.48 61.1119 1677.48 50.3365 Q1677.48 39.1965 1683.48 32.6746 Q1689.51 26.1121 1699.72 26.1121 Q1708.88 26.1121 1714.18 32.0264 Q1719.53 37.9003 1719.53 48.0275 M1712.08 45.84 Q1711.99 39.7232 1708.63 36.0774 Q1705.31 32.4315 1699.8 32.4315 Q1693.56 32.4315 1689.8 35.9558 Q1686.07 39.4801 1685.5 45.8805 L1712.08 45.84 Z" fill="#000000" fill-rule="nonzero" fill-opacity="1" /><path clip-path="url(#clip880)" d="M1730.59 9.62495 L1737.07 9.62495 Q1743.15 19.1851 1746.14 28.3401 Q1749.18 37.4952 1749.18 46.5287 Q1749.18 55.6027 1746.14 64.7983 Q1743.15 73.9938 1737.07 83.5134 L1730.59 83.5134 Q1735.98 74.2369 1738.61 65.0818 Q1741.28 55.8863 1741.28 46.5287 Q1741.28 37.1711 1738.61 28.0566 Q1735.98 18.942 1730.59 9.62495 Z" fill="#000000" fill-rule="nonzero" fill-opacity="1" /><polyline clip-path="url(#clip882)" style="stroke:#009af9; stroke-linecap:round; stroke-linejoin:round; stroke-width:8; stroke-opacity:1; fill:none" points="216.79,1081.68 218.527,1080.75 220.265,1079.82 222.003,1078.88 223.74,1077.95 225.478,1077.02 227.216,1076.08 228.953,1075.15 230.691,1074.21 232.429,1073.28 234.167,1072.35 235.904,1071.41 237.642,1070.48 239.38,1069.55 241.117,1068.61 242.855,1067.68 244.593,1066.75 246.33,1065.81 248.068,1064.88 249.806,1063.95 251.544,1063.01 253.281,1062.08 255.019,1061.14 256.757,1060.21 258.494,1059.28 260.232,1058.34 261.97,1057.41 263.708,1056.48 265.445,1055.54 267.183,1054.61 268.921,1053.68 270.658,1052.74 272.396,1051.81 274.134,1050.87 275.871,1049.94 277.609,1049.01 279.347,1048.07 281.085,1047.14 282.822,1046.21 284.56,1045.27 286.298,1044.34 288.035,1043.41 289.773,1042.47 291.511,1041.54 293.249,1040.61 294.986,1039.67 296.724,1038.74 298.462,1037.8 300.199,1036.87 301.937,1035.94 303.675,1035 305.412,1034.07 307.15,1033.14 308.888,1032.2 310.626,1031.27 312.363,1030.34 314.101,1029.4 315.839,1028.47 317.576,1027.53 319.314,1026.6 321.052,1025.67 322.789,1024.73 324.527,1023.8 326.265,1022.87 328.003,1021.93 329.74,1021 331.478,1020.07 333.216,1019.13 334.953,1018.2 336.691,1017.26 338.429,1016.33 340.167,1015.4 341.904,1014.46 343.642,1013.53 345.38,1012.6 347.117,1011.66 348.855,1010.73 350.593,1009.8 352.33,1008.86 354.068,1007.93 355.806,1007 357.544,1006.06 359.281,1005.13 361.019,1004.19 362.757,1003.26 364.494,1002.33 366.232,1001.39 367.97,1000.46 369.707,999.527 371.445,998.593 373.183,997.659 374.921,996.726 376.658,995.792 378.396,994.859 380.134,993.925 381.871,992.991 383.609,992.058 385.347,991.124 387.085,990.191 388.822,989.257 390.56,988.323 392.298,987.39 394.035,986.456 395.773,985.522 397.511,984.589 399.248,983.655 400.986,982.722 402.724,981.788 404.462,980.854 406.199,979.921 407.937,978.987 409.675,978.054 411.412,977.12 413.15,976.186 414.888,975.253 416.625,974.319 418.363,973.386 420.101,972.452 421.839,971.518 423.576,970.585 425.314,969.651 427.052,968.718 428.789,967.784 430.527,966.851 432.265,965.917 434.003,964.983 435.74,964.05 437.478,963.116 439.216,962.183 440.953,961.249 442.691,960.315 444.429,959.382 446.166,958.448 447.904,957.515 449.642,956.581 451.38,955.647 453.117,954.714 454.855,953.78 456.593,952.847 458.33,951.913 460.068,950.979 461.806,950.046 463.544,949.112 465.281,948.179 467.019,947.245 468.757,946.311 470.494,945.378 472.232,944.444 473.97,943.51 475.707,942.577 477.445,941.643 479.183,940.71 480.921,939.776 482.658,938.842 484.396,937.909 486.134,936.975 487.871,936.042 489.609,935.108 491.347,934.174 493.084,933.241 494.822,932.307 496.56,931.373 498.298,930.44 500.035,929.506 501.773,928.573 503.511,927.639 505.248,926.705 506.986,925.772 508.724,924.838 510.462,923.905 512.199,922.971 513.937,922.037 515.675,921.104 517.412,920.17 519.15,919.237 520.888,918.303 522.625,917.37 524.363,916.436 526.101,915.502 527.839,914.569 529.576,913.635 531.314,912.702 533.052,911.768 534.789,910.835 536.527,909.901 538.265,908.968 540.002,908.034 541.74,907.1 543.478,906.167 545.216,905.233 546.953,904.3 548.691,903.366 550.429,902.432 552.166,901.499 553.904,900.565 555.642,899.632 557.38,898.698 559.117,897.764 560.855,896.831 562.593,895.897 564.33,894.964 566.068,894.03 567.806,893.096 569.543,892.163 571.281,891.229 573.019,890.295 574.757,889.362 576.494,888.428 578.232,887.495 579.97,886.561 581.707,885.627 583.445,884.694 585.183,883.76 586.92,882.826 588.658,881.893 590.396,880.959 592.134,880.026 593.871,879.092 595.609,878.158 597.347,877.225 599.084,876.291 600.822,875.357 602.56,874.424 604.298,873.49 606.035,872.557 607.773,871.623 609.511,870.689 611.248,869.756 612.986,868.822 614.724,867.889 616.461,866.955 618.199,866.021 619.937,865.088 621.675,864.154 623.412,863.221 625.15,862.287 626.888,861.353 628.625,860.42 630.363,859.486 632.101,858.553 633.839,857.619 635.576,856.686 637.314,855.752 639.052,854.819 640.789,853.885 642.527,852.951 644.265,852.018 646.002,851.084 647.74,850.151 649.478,849.217 651.216,848.284 652.953,847.35 654.691,846.417 656.429,845.483 658.166,844.55 659.904,843.616 661.642,842.682 663.379,841.749 665.117,840.815 666.855,839.882 668.593,838.948 670.33,838.015 672.068,837.081 673.806,836.147 675.543,835.214 677.281,834.28 679.019,833.347 680.757,832.413 682.494,831.479 684.232,830.546 685.97,829.612 687.707,828.678 689.445,827.745 691.183,826.811 692.92,825.877 694.658,824.944 696.396,824.01 698.134,823.077 699.871,822.143 701.609,821.209 703.347,820.276 705.084,819.342 706.822,818.408 708.56,817.475 710.297,816.541 712.035,815.607 713.773,814.674 715.511,813.74 717.248,812.806 718.986,811.873 720.724,810.939 722.461,810.006 724.199,809.072 725.937,808.138 727.675,807.205 729.412,806.271 731.15,805.337 732.888,804.404 734.625,803.47 736.363,802.536 738.101,801.603 739.838,800.669 741.576,799.736 743.314,798.802 745.052,797.868 746.789,796.935 748.527,796.001 750.265,795.068 752.002,794.134 753.74,793.201 755.478,792.267 757.215,791.333 758.953,790.4 760.691,789.466 762.429,788.533 764.166,787.599 765.904,786.666 767.642,785.732 769.379,784.799 771.117,783.865 772.855,782.932 774.593,781.998 776.33,781.065 778.068,780.131 779.806,779.198 781.543,778.264 783.281,777.331 785.019,776.397 786.756,775.464 788.494,774.53 790.232,773.597 791.97,772.663 793.707,771.73 795.445,770.796 797.183,769.863 798.92,768.929 800.658,767.995 802.396,767.062 804.134,766.128 805.871,765.195 807.609,764.261 809.347,763.328 811.084,762.394 812.822,761.46 814.56,760.527 816.297,759.593 818.035,758.659 819.773,757.726 821.511,756.792 823.248,755.859 824.986,754.925 826.724,753.991 828.461,753.058 830.199,752.124 831.937,751.19 833.674,750.256 835.412,749.323 837.15,748.389 838.888,747.455 840.625,746.522 842.363,745.588 844.101,744.654 845.838,743.721 847.576,742.787 849.314,741.853 851.052,740.92 852.789,739.986 854.527,739.052 856.265,738.119 858.002,737.185 859.74,736.251 861.478,735.318 863.215,734.384 864.953,733.451 866.691,732.517 868.429,731.583 870.166,730.65 871.904,729.716 873.642,728.782 875.379,727.849 877.117,726.915 878.855,725.981 880.592,725.048 882.33,724.114 884.068,723.181 885.806,722.247 887.543,721.313 889.281,720.38 891.019,719.446 892.756,718.513 894.494,717.579 896.232,716.646 897.97,715.712 899.707,714.779 901.445,713.845 903.183,712.912 904.92,711.978 906.658,711.045 908.396,710.111 910.133,709.178 911.871,708.244 913.609,707.311 915.347,706.377 917.084,705.444 918.822,704.51 920.56,703.577 922.297,702.643 924.035,701.71 925.773,700.776 927.51,699.843 929.248,698.909 930.986,697.976 932.724,697.043 934.461,696.109 936.199,695.176 937.937,694.242 939.674,693.309 941.412,692.375 943.15,691.442 944.888,690.508 946.625,689.575 948.363,688.641 950.101,687.708 951.838,686.774 953.576,685.84 955.314,684.907 957.051,683.973 958.789,683.04 960.527,682.106 962.265,681.172 964.002,680.239 965.74,679.305 967.478,678.372 969.215,677.438 970.953,676.504 972.691,675.571 974.429,674.637 976.166,673.703 977.904,672.769 979.642,671.836 981.379,670.902 983.117,669.968 984.855,669.035 986.592,668.101 988.33,667.167 990.068,666.233 991.806,665.3 993.543,664.366 995.281,663.432 997.019,662.498 998.756,661.565 1000.49,660.631 1002.23,659.697 1003.97,658.764 1005.71,657.83 1007.44,656.896 1009.18,655.963 1010.92,655.029 1012.66,654.095 1014.4,653.162 1016.13,652.228 1017.87,651.294 1019.61,650.361 1021.35,649.427 1023.08,648.494 1024.82,647.56 1026.56,646.626 1028.3,645.693 1030.04,644.759 1031.77,643.825 1033.51,642.892 1035.25,641.958 1036.99,641.024 1038.72,640.091 1040.46,639.157 1042.2,638.223 1043.94,637.29 1045.67,636.356 1047.41,635.423 1049.15,634.489 1050.89,633.556 1052.63,632.622 1054.36,631.689 1056.1,630.755 1057.84,629.822 1059.58,628.888 1061.31,627.955 1063.05,627.021 1064.79,626.088 1066.53,625.154 1068.26,624.221 1070,623.288 1071.74,622.354 1073.48,621.421 1075.22,620.487 1076.95,619.554 1078.69,618.621 1080.43,617.687 1082.17,616.754 1083.9,615.82 1085.64,614.887 1087.38,613.954 1089.12,613.02 1090.85,612.087 1092.59,611.153 1094.33,610.22 1096.07,609.286 1097.81,608.353 1099.54,607.42 1101.28,606.486 1103.02,605.553 1104.76,604.619 1106.49,603.686 1108.23,602.752 1109.97,601.819 1111.71,600.885 1113.44,599.952 1115.18,599.018 1116.92,598.085 1118.66,597.151 1120.4,596.217 1122.13,595.284 1123.87,594.35 1125.61,593.417 1127.35,592.483 1129.08,591.549 1130.82,590.616 1132.56,589.682 1134.3,588.748 1136.03,587.814 1137.77,586.881 1139.51,585.947 1141.25,585.013 1142.99,584.08 1144.72,583.146 1146.46,582.212 1148.2,581.278 1149.94,580.344 1151.67,579.411 1153.41,578.477 1155.15,577.543 1156.89,576.609 1158.63,575.676 1160.36,574.742 1162.1,573.808 1163.84,572.874 1165.58,571.94 1167.31,571.007 1169.05,570.073 1170.79,569.139 1172.53,568.206 1174.26,567.272 1176,566.338 1177.74,565.405 1179.48,564.471 1181.22,563.537 1182.95,562.604 1184.69,561.67 1186.43,560.736 1188.17,559.803 1189.9,558.869 1191.64,557.935 1193.38,557.002 1195.12,556.068 1196.85,555.134 1198.59,554.201 1200.33,553.267 1202.07,552.333 1203.81,551.4 1205.54,550.466 1207.28,549.532 1209.02,548.599 1210.76,547.665 1212.49,546.732 1214.23,545.798 1215.97,544.865 1217.71,543.931 1219.44,542.998 1221.18,542.064 1222.92,541.131 1224.66,540.197 1226.4,539.264 1228.13,538.33 1229.87,537.397 1231.61,536.464 1233.35,535.53 1235.08,534.597 1236.82,533.663 1238.56,532.73 1240.3,531.797 1242.03,530.863 1243.77,529.93 1245.51,528.997 1247.25,528.063 1248.99,527.13 1250.72,526.197 1252.46,525.263 1254.2,524.33 1255.94,523.397 1257.67,522.463 1259.41,521.53 1261.15,520.597 1262.89,519.663 1264.63,518.73 1266.36,517.796 1268.1,516.863 1269.84,515.93 1271.58,514.996 1273.31,514.063 1275.05,513.129 1276.79,512.196 1278.53,511.263 1280.26,510.329 1282,509.396 1283.74,508.462 1285.48,507.529 1287.22,506.595 1288.95,505.662 1290.69,504.728 1292.43,503.794 1294.17,502.861 1295.9,501.927 1297.64,500.994 1299.38,500.06 1301.12,499.126 1302.85,498.193 1304.59,497.259 1306.33,496.325 1308.07,495.392 1309.81,494.458 1311.54,493.524 1313.28,492.59 1315.02,491.657 1316.76,490.723 1318.49,489.789 1320.23,488.855 1321.97,487.921 1323.71,486.988 1325.44,486.054 1327.18,485.12 1328.92,484.186 1330.66,483.252 1332.4,482.318 1334.13,481.385 1335.87,480.451 1337.61,479.517 1339.35,478.583 1341.08,477.649 1342.82,476.715 1344.56,475.782 1346.3,474.848 1348.03,473.914 1349.77,472.98 1351.51,472.047 1353.25,471.113 1354.99,470.179 1356.72,469.246 1358.46,468.312 1360.2,467.378 1361.94,466.445 1363.67,465.511 1365.41,464.577 1367.15,463.644 1368.89,462.71 1370.63,461.776 1372.36,460.843 1374.1,459.909 1375.84,458.975 1377.58,458.042 1379.31,457.108 1381.05,456.174 1382.79,455.241 1384.53,454.307 1386.26,453.373 1388,452.44 1389.74,451.506 1391.48,450.573 1393.22,449.639 1394.95,448.706 1396.69,447.772 1398.43,446.839 1400.17,445.905 1401.9,444.972 1403.64,444.038 1405.38,443.105 1407.12,442.172 1408.85,441.238 1410.59,440.305 1412.33,439.371 1414.07,438.438 1415.81,437.505 1417.54,436.572 1419.28,435.638 1421.02,434.705 1422.76,433.772 1424.49,432.838 1426.23,431.905 1427.97,430.972 1429.71,430.039 1431.44,429.105 1433.18,428.172 1434.92,427.239 1436.66,426.305 1438.4,425.372 1440.13,424.439 1441.87,423.506 1443.61,422.572 1445.35,421.639 1447.08,420.706 1448.82,419.772 1450.56,418.839 1452.3,417.906 1454.03,416.972 1455.77,416.039 1457.51,415.106 1459.25,414.172 1460.99,413.239 1462.72,412.305 1464.46,411.372 1466.2,410.439 1467.94,409.505 1469.67,408.572 1471.41,407.638 1473.15,406.705 1474.89,405.771 1476.62,404.837 1478.36,403.904 1480.1,402.97 1481.84,402.037 1483.58,401.103 1485.31,400.169 1487.05,399.236 1488.79,398.302 1490.53,397.368 1492.26,396.434 1494,395.501 1495.74,394.567 1497.48,393.633 1499.22,392.699 1500.95,391.765 1502.69,390.832 1504.43,389.898 1506.17,388.964 1507.9,388.03 1509.64,387.096 1511.38,386.162 1513.12,385.228 1514.85,384.294 1516.59,383.361 1518.33,382.427 1520.07,381.493 1521.81,380.559 1523.54,379.625 1525.28,378.691 1527.02,377.757 1528.76,376.823 1530.49,375.89 1532.23,374.956 1533.97,374.022 1535.71,373.088 1537.44,372.154 1539.18,371.221 1540.92,370.287 1542.66,369.353 1544.4,368.42 1546.13,367.486 1547.87,366.552 1549.61,365.619 1551.35,364.685 1553.08,363.751 1554.82,362.818 1556.56,361.884 1558.3,360.95 1560.03,360.017 1561.77,359.083 1563.51,358.149 1565.25,357.216 1566.99,356.282 1568.72,355.348 1570.46,354.415 1572.2,353.481 1573.94,352.547 1575.67,351.614 1577.41,350.68 1579.15,349.747 1580.89,348.813 1582.62,347.88 1584.36,346.946 1586.1,346.013 1587.84,345.079 1589.58,344.146 1591.31,343.212 1593.05,342.279 1594.79,341.346 1596.53,340.412 1598.26,339.479 1600,338.546 1601.74,337.612 1603.48,336.679 1605.22,335.746 1606.95,334.813 1608.69,333.879 1610.43,332.946 1612.17,332.013 1613.9,331.08 1615.64,330.146 1617.38,329.213 1619.12,328.28 1620.85,327.347 1622.59,326.414 1624.33,325.48 1626.07,324.547 1627.81,323.614 1629.54,322.681 1631.28,321.748 1633.02,320.814 1634.76,319.881 1636.49,318.948 1638.23,318.015 1639.97,317.081 1641.71,316.148 1643.44,315.215 1645.18,314.282 1646.92,313.348 1648.66,312.415 1650.4,311.482 1652.13,310.548 1653.87,309.615 1655.61,308.681 1657.35,307.748 1659.08,306.815 1660.82,305.881 1662.56,304.948 1664.3,304.014 1666.03,303.081 1667.77,302.147 1669.51,301.213 1671.25,300.28 1672.99,299.346 1674.72,298.413 1676.46,297.479 1678.2,296.545 1679.94,295.612 1681.67,294.678 1683.41,293.744 1685.15,292.81 1686.89,291.877 1688.62,290.943 1690.36,290.009 1692.1,289.075 1693.84,288.141 1695.58,287.207 1697.31,286.273 1699.05,285.34 1700.79,284.406 1702.53,283.472 1704.26,282.538 1706,281.604 1707.74,280.67 1709.48,279.736 1711.22,278.802 1712.95,277.868 1714.69,276.934 1716.43,276 1718.17,275.066 1719.9,274.132 1721.64,273.198 1723.38,272.264 1725.12,271.331 1726.85,270.397 1728.59,269.463 1730.33,268.529 1732.07,267.595 1733.81,266.661 1735.54,265.728 1737.28,264.794 1739.02,263.86 1740.76,262.927 1742.49,261.993 1744.23,261.059 1745.97,260.126 1747.71,259.192 1749.44,258.258 1751.18,257.325 1752.92,256.391 1754.66,255.457 1756.4,254.524 1758.13,253.59 1759.87,252.656 1761.61,251.722 1763.35,250.789 1765.08,249.855 1766.82,248.921 1768.56,247.988 1770.3,247.054 1772.03,246.121 1773.77,245.187 1775.51,244.253 1777.25,243.32 1778.99,242.386 1780.72,241.453 1782.46,240.52 1784.2,239.586 1785.94,238.653 1787.67,237.719 1789.41,236.786 1791.15,235.853 1792.89,234.919 1794.62,233.986 1796.36,233.053 1798.1,232.119 1799.84,231.186 1801.58,230.253 1803.31,229.32 1805.05,228.387 1806.79,227.453 1808.53,226.52 1810.26,225.587 1812,224.654 1813.74,223.721 1815.48,222.788 1817.21,221.855 1818.95,220.921 1820.69,219.988 1822.43,219.055 1824.17,218.122 1825.9,217.189 1827.64,216.256 1829.38,215.323 1831.12,214.39 1832.85,213.456 1834.59,212.523 1836.33,211.59 1838.07,210.657 1839.81,209.724 1841.54,208.79 1843.28,207.857 1845.02,206.924 1846.76,205.991 1848.49,205.057 1850.23,204.124 1851.97,203.191 1853.71,202.257 1855.44,201.324 1857.18,200.391 1858.92,199.457 1860.66,198.524 1862.4,197.59 1864.13,196.657 1865.87,195.723 1867.61,194.79 1869.35,193.856 1871.08,192.923 1872.82,191.989 1874.56,191.055 1876.3,190.122 1878.03,189.188 1879.77,188.254 1881.51,187.321 1883.25,186.387 1884.99,185.453 1886.72,184.519 1888.46,183.586 1890.2,182.652 1891.94,181.718 1893.67,180.784 1895.41,179.85 1897.15,178.916 1898.89,177.982 1900.62,177.048 1902.36,176.114 1904.1,175.18 1905.84,174.246 1907.58,173.312 1909.31,172.378 1911.05,171.444 1912.79,170.51 1914.53,169.576 1916.26,168.642 1918,167.708 1919.74,166.774 1921.48,165.84 1923.21,164.906 1924.95,163.972 1926.69,163.038 1928.43,162.105 1930.17,161.171 1931.9,160.237 1933.64,159.303 1935.38,158.369 1937.12,157.435 1938.85,156.502 1940.59,155.568 1942.33,154.634 1944.07,153.7 1945.81,152.767 1947.54,151.833 1949.28,150.9 1951.02,149.966 1952.76,149.032 "/>
</svg>
