<?xml version="1.0" encoding="utf-8"?>
<svg xmlns="http://www.w3.org/2000/svg" xmlns:xlink="http://www.w3.org/1999/xlink" width="500" height="320" viewBox="0 0 2000 1280">
<defs>
  <clipPath id="clip820">
    <rect x="0" y="0" width="2000" height="1280"/>
  </clipPath>
</defs>
<path clip-path="url(#clip820)" d="M0 1280 L2000 1280 L2000 0 L0 0  Z" fill="#ffffff" fill-rule="evenodd" fill-opacity="1"/>
<defs>
  <clipPath id="clip821">
    <rect x="400" y="0" width="1401" height="1280"/>
  </clipPath>
</defs>
<path clip-path="url(#clip820)" d="M259.544 1109.66 L1952.76 1109.66 L1952.76 121.053 L259.544 121.053  Z" fill="#ffffff" fill-rule="evenodd" fill-opacity="1"/>
<defs>
  <clipPath id="clip822">
    <rect x="259" y="121" width="1694" height="990"/>
  </clipPath>
</defs>
<polyline clip-path="url(#clip822)" style="stroke:#000000; stroke-linecap:round; stroke-linejoin:round; stroke-width:2; stroke-opacity:0.1; fill:none" points="259.544,1109.66 259.544,121.053 "/>
<polyline clip-path="url(#clip822)" style="stroke:#000000; stroke-linecap:round; stroke-linejoin:round; stroke-width:2; stroke-opacity:0.1; fill:none" points="682.847,1109.66 682.847,121.053 "/>
<polyline clip-path="url(#clip822)" style="stroke:#000000; stroke-linecap:round; stroke-linejoin:round; stroke-width:2; stroke-opacity:0.1; fill:none" points="1106.15,1109.66 1106.15,121.053 "/>
<polyline clip-path="url(#clip822)" style="stroke:#000000; stroke-linecap:round; stroke-linejoin:round; stroke-width:2; stroke-opacity:0.1; fill:none" points="1529.45,1109.66 1529.45,121.053 "/>
<polyline clip-path="url(#clip822)" style="stroke:#000000; stroke-linecap:round; stroke-linejoin:round; stroke-width:2; stroke-opacity:0.1; fill:none" points="1952.76,1109.66 1952.76,121.053 "/>
<polyline clip-path="url(#clip820)" style="stroke:#000000; stroke-linecap:round; stroke-linejoin:round; stroke-width:4; stroke-opacity:1; fill:none" points="259.544,1109.66 1952.76,1109.66 "/>
<polyline clip-path="url(#clip820)" style="stroke:#000000; stroke-linecap:round; stroke-linejoin:round; stroke-width:4; stroke-opacity:1; fill:none" points="259.544,1109.66 259.544,1090.77 "/>
<polyline clip-path="url(#clip820)" style="stroke:#000000; stroke-linecap:round; stroke-linejoin:round; stroke-width:4; stroke-opacity:1; fill:none" points="682.847,1109.66 682.847,1090.77 "/>
<polyline clip-path="url(#clip820)" style="stroke:#000000; stroke-linecap:round; stroke-linejoin:round; stroke-width:4; stroke-opacity:1; fill:none" points="1106.15,1109.66 1106.15,1090.77 "/>
<polyline clip-path="url(#clip820)" style="stroke:#000000; stroke-linecap:round; stroke-linejoin:round; stroke-width:4; stroke-opacity:1; fill:none" points="1529.45,1109.66 1529.45,1090.77 "/>
<polyline clip-path="url(#clip820)" style="stroke:#000000; stroke-linecap:round; stroke-linejoin:round; stroke-width:4; stroke-opacity:1; fill:none" points="1952.76,1109.66 1952.76,1090.77 "/>
<path clip-path="url(#clip820)" d="M249.926 1164.93 L257.565 1164.93 L257.565 1138.56 L249.255 1140.23 L249.255 1135.97 L257.518 1134.3 L262.194 1134.3 L262.194 1164.93 L269.833 1164.93 L269.833 1168.86 L249.926 1168.86 L249.926 1164.93 Z" fill="#000000" fill-rule="nonzero" fill-opacity="1" /><path clip-path="url(#clip820)" d="M677.5 1164.93 L693.819 1164.93 L693.819 1168.86 L671.875 1168.86 L671.875 1164.93 Q674.537 1162.17 679.12 1157.54 Q683.727 1152.89 684.907 1151.55 Q687.152 1149.03 688.032 1147.29 Q688.935 1145.53 688.935 1143.84 Q688.935 1141.09 686.99 1139.35 Q685.069 1137.61 681.967 1137.61 Q679.768 1137.61 677.315 1138.38 Q674.884 1139.14 672.106 1140.69 L672.106 1135.97 Q674.93 1134.84 677.384 1134.26 Q679.838 1133.68 681.875 1133.68 Q687.245 1133.68 690.439 1136.36 Q693.634 1139.05 693.634 1143.54 Q693.634 1145.67 692.824 1147.59 Q692.037 1149.49 689.93 1152.08 Q689.352 1152.75 686.25 1155.97 Q683.148 1159.16 677.5 1164.93 Z" fill="#000000" fill-rule="nonzero" fill-opacity="1" /><path clip-path="url(#clip820)" d="M1110.4 1150.23 Q1113.75 1150.95 1115.63 1153.21 Q1117.53 1155.48 1117.53 1158.82 Q1117.53 1163.93 1114.01 1166.73 Q1110.49 1169.53 1104.01 1169.53 Q1101.83 1169.53 1099.52 1169.09 Q1097.23 1168.68 1094.77 1167.82 L1094.77 1163.31 Q1096.72 1164.44 1099.03 1165.02 Q1101.35 1165.6 1103.87 1165.6 Q1108.27 1165.6 1110.56 1163.86 Q1112.87 1162.13 1112.87 1158.82 Q1112.87 1155.76 1110.72 1154.05 Q1108.59 1152.31 1104.77 1152.31 L1100.74 1152.31 L1100.74 1148.47 L1104.96 1148.47 Q1108.41 1148.47 1110.24 1147.1 Q1112.06 1145.72 1112.06 1143.12 Q1112.06 1140.46 1110.17 1139.05 Q1108.29 1137.61 1104.77 1137.61 Q1102.85 1137.61 1100.65 1138.03 Q1098.45 1138.45 1095.81 1139.33 L1095.81 1135.16 Q1098.48 1134.42 1100.79 1134.05 Q1103.13 1133.68 1105.19 1133.68 Q1110.51 1133.68 1113.62 1136.11 Q1116.72 1138.52 1116.72 1142.64 Q1116.72 1145.51 1115.07 1147.5 Q1113.43 1149.46 1110.4 1150.23 Z" fill="#000000" fill-rule="nonzero" fill-opacity="1" /><path clip-path="url(#clip820)" d="M1532.46 1138.38 L1520.66 1156.83 L1532.46 1156.83 L1532.46 1138.38 M1531.24 1134.3 L1537.11 1134.3 L1537.11 1156.83 L1542.05 1156.83 L1542.05 1160.71 L1537.11 1160.71 L1537.11 1168.86 L1532.46 1168.86 L1532.46 1160.71 L1516.86 1160.71 L1516.86 1156.2 L1531.24 1134.3 Z" fill="#000000" fill-rule="nonzero" fill-opacity="1" /><path clip-path="url(#clip820)" d="M1943.03 1134.3 L1961.39 1134.3 L1961.39 1138.24 L1947.32 1138.24 L1947.32 1146.71 Q1948.33 1146.36 1949.35 1146.2 Q1950.37 1146.02 1951.39 1146.02 Q1957.18 1146.02 1960.56 1149.19 Q1963.94 1152.36 1963.94 1157.78 Q1963.94 1163.35 1960.46 1166.46 Q1956.99 1169.53 1950.67 1169.53 Q1948.5 1169.53 1946.23 1169.16 Q1943.98 1168.79 1941.58 1168.05 L1941.58 1163.35 Q1943.66 1164.49 1945.88 1165.04 Q1948.1 1165.6 1950.58 1165.6 Q1954.58 1165.6 1956.92 1163.49 Q1959.26 1161.39 1959.26 1157.78 Q1959.26 1154.16 1956.92 1152.06 Q1954.58 1149.95 1950.58 1149.95 Q1948.71 1149.95 1946.83 1150.37 Q1944.98 1150.78 1943.03 1151.66 L1943.03 1134.3 Z" fill="#000000" fill-rule="nonzero" fill-opacity="1" /><path clip-path="url(#clip820)" d="M1105.21 1202.76 L1105.21 1212.88 L1117.27 1212.88 L1117.27 1217.43 L1105.21 1217.43 L1105.21 1236.78 Q1105.21 1241.14 1106.39 1242.38 Q1107.6 1243.63 1111.26 1243.63 L1117.27 1243.63 L1117.27 1248.53 L1111.26 1248.53 Q1104.48 1248.53 1101.9 1246.01 Q1099.32 1243.47 1099.32 1236.78 L1099.32 1217.43 L1095.03 1217.43 L1095.03 1212.88 L1099.32 1212.88 L1099.32 1202.76 L1105.21 1202.76 Z" fill="#000000" fill-rule="nonzero" fill-opacity="1" /><polyline clip-path="url(#clip822)" style="stroke:#000000; stroke-linecap:round; stroke-linejoin:round; stroke-width:2; stroke-opacity:0.1; fill:none" points="259.544,1082 1952.76,1082 "/>
<polyline clip-path="url(#clip822)" style="stroke:#000000; stroke-linecap:round; stroke-linejoin:round; stroke-width:2; stroke-opacity:0.1; fill:none" points="259.544,873.316 1952.76,873.316 "/>
<polyline clip-path="url(#clip822)" style="stroke:#000000; stroke-linecap:round; stroke-linejoin:round; stroke-width:2; stroke-opacity:0.1; fill:none" points="259.544,664.635 1952.76,664.635 "/>
<polyline clip-path="url(#clip822)" style="stroke:#000000; stroke-linecap:round; stroke-linejoin:round; stroke-width:2; stroke-opacity:0.1; fill:none" points="259.544,455.954 1952.76,455.954 "/>
<polyline clip-path="url(#clip822)" style="stroke:#000000; stroke-linecap:round; stroke-linejoin:round; stroke-width:2; stroke-opacity:0.1; fill:none" points="259.544,247.273 1952.76,247.273 "/>
<polyline clip-path="url(#clip820)" style="stroke:#000000; stroke-linecap:round; stroke-linejoin:round; stroke-width:4; stroke-opacity:1; fill:none" points="259.544,1109.66 259.544,121.053 "/>
<polyline clip-path="url(#clip820)" style="stroke:#000000; stroke-linecap:round; stroke-linejoin:round; stroke-width:4; stroke-opacity:1; fill:none" points="259.544,1082 278.442,1082 "/>
<polyline clip-path="url(#clip820)" style="stroke:#000000; stroke-linecap:round; stroke-linejoin:round; stroke-width:4; stroke-opacity:1; fill:none" points="259.544,873.316 278.442,873.316 "/>
<polyline clip-path="url(#clip820)" style="stroke:#000000; stroke-linecap:round; stroke-linejoin:round; stroke-width:4; stroke-opacity:1; fill:none" points="259.544,664.635 278.442,664.635 "/>
<polyline clip-path="url(#clip820)" style="stroke:#000000; stroke-linecap:round; stroke-linejoin:round; stroke-width:4; stroke-opacity:1; fill:none" points="259.544,455.954 278.442,455.954 "/>
<polyline clip-path="url(#clip820)" style="stroke:#000000; stroke-linecap:round; stroke-linejoin:round; stroke-width:4; stroke-opacity:1; fill:none" points="259.544,247.273 278.442,247.273 "/>
<path clip-path="url(#clip820)" d="M217.6 1067.8 Q213.988 1067.8 212.16 1071.36 Q210.354 1074.9 210.354 1082.03 Q210.354 1089.14 212.16 1092.7 Q213.988 1096.24 217.6 1096.24 Q221.234 1096.24 223.039 1092.7 Q224.868 1089.14 224.868 1082.03 Q224.868 1074.9 223.039 1071.36 Q221.234 1067.8 217.6 1067.8 M217.6 1064.09 Q223.41 1064.09 226.465 1068.7 Q229.544 1073.28 229.544 1082.03 Q229.544 1090.76 226.465 1095.36 Q223.41 1099.95 217.6 1099.95 Q211.789 1099.95 208.711 1095.36 Q205.655 1090.76 205.655 1082.03 Q205.655 1073.28 208.711 1068.7 Q211.789 1064.09 217.6 1064.09 Z" fill="#000000" fill-rule="nonzero" fill-opacity="1" /><path clip-path="url(#clip820)" d="M121.142 886.66 L137.461 886.66 L137.461 890.596 L115.517 890.596 L115.517 886.66 Q118.179 883.906 122.762 879.276 Q127.369 874.624 128.549 873.281 Q130.794 870.758 131.674 869.022 Q132.577 867.262 132.577 865.573 Q132.577 862.818 130.632 861.082 Q128.711 859.346 125.609 859.346 Q123.41 859.346 120.957 860.11 Q118.526 860.874 115.748 862.425 L115.748 857.702 Q118.572 856.568 121.026 855.989 Q123.48 855.411 125.517 855.411 Q130.887 855.411 134.081 858.096 Q137.276 860.781 137.276 865.272 Q137.276 867.401 136.466 869.323 Q135.679 871.221 133.572 873.813 Q132.994 874.485 129.892 877.702 Q126.79 880.897 121.142 886.66 Z" fill="#000000" fill-rule="nonzero" fill-opacity="1" /><path clip-path="url(#clip820)" d="M157.276 859.114 Q153.665 859.114 151.836 862.679 Q150.03 866.221 150.03 873.35 Q150.03 880.457 151.836 884.022 Q153.665 887.563 157.276 887.563 Q160.91 887.563 162.716 884.022 Q164.544 880.457 164.544 873.35 Q164.544 866.221 162.716 862.679 Q160.91 859.114 157.276 859.114 M157.276 855.411 Q163.086 855.411 166.141 860.017 Q169.22 864.6 169.22 873.35 Q169.22 882.077 166.141 886.684 Q163.086 891.267 157.276 891.267 Q151.466 891.267 148.387 886.684 Q145.331 882.077 145.331 873.35 Q145.331 864.6 148.387 860.017 Q151.466 855.411 157.276 855.411 Z" fill="#000000" fill-rule="nonzero" fill-opacity="1" /><path clip-path="url(#clip820)" d="M187.438 859.114 Q183.827 859.114 181.998 862.679 Q180.192 866.221 180.192 873.35 Q180.192 880.457 181.998 884.022 Q183.827 887.563 187.438 887.563 Q191.072 887.563 192.877 884.022 Q194.706 880.457 194.706 873.35 Q194.706 866.221 192.877 862.679 Q191.072 859.114 187.438 859.114 M187.438 855.411 Q193.248 855.411 196.303 860.017 Q199.382 864.6 199.382 873.35 Q199.382 882.077 196.303 886.684 Q193.248 891.267 187.438 891.267 Q181.628 891.267 178.549 886.684 Q175.493 882.077 175.493 873.35 Q175.493 864.6 178.549 860.017 Q181.628 855.411 187.438 855.411 Z" fill="#000000" fill-rule="nonzero" fill-opacity="1" /><path clip-path="url(#clip820)" d="M217.6 859.114 Q213.988 859.114 212.16 862.679 Q210.354 866.221 210.354 873.35 Q210.354 880.457 212.16 884.022 Q213.988 887.563 217.6 887.563 Q221.234 887.563 223.039 884.022 Q224.868 880.457 224.868 873.35 Q224.868 866.221 223.039 862.679 Q221.234 859.114 217.6 859.114 M217.6 855.411 Q223.41 855.411 226.465 860.017 Q229.544 864.6 229.544 873.35 Q229.544 882.077 226.465 886.684 Q223.41 891.267 217.6 891.267 Q211.789 891.267 208.711 886.684 Q205.655 882.077 205.655 873.35 Q205.655 864.6 208.711 860.017 Q211.789 855.411 217.6 855.411 Z" fill="#000000" fill-rule="nonzero" fill-opacity="1" /><path clip-path="url(#clip820)" d="M129.961 651.429 L118.156 669.878 L129.961 669.878 L129.961 651.429 M128.734 647.355 L134.614 647.355 L134.614 669.878 L139.544 669.878 L139.544 673.767 L134.614 673.767 L134.614 681.915 L129.961 681.915 L129.961 673.767 L114.359 673.767 L114.359 669.253 L128.734 647.355 Z" fill="#000000" fill-rule="nonzero" fill-opacity="1" /><path clip-path="url(#clip820)" d="M157.276 650.433 Q153.665 650.433 151.836 653.998 Q150.03 657.54 150.03 664.669 Q150.03 671.776 151.836 675.341 Q153.665 678.882 157.276 678.882 Q160.91 678.882 162.716 675.341 Q164.544 671.776 164.544 664.669 Q164.544 657.54 162.716 653.998 Q160.91 650.433 157.276 650.433 M157.276 646.73 Q163.086 646.73 166.141 651.336 Q169.22 655.92 169.22 664.669 Q169.22 673.396 166.141 678.003 Q163.086 682.586 157.276 682.586 Q151.466 682.586 148.387 678.003 Q145.331 673.396 145.331 664.669 Q145.331 655.92 148.387 651.336 Q151.466 646.73 157.276 646.73 Z" fill="#000000" fill-rule="nonzero" fill-opacity="1" /><path clip-path="url(#clip820)" d="M187.438 650.433 Q183.827 650.433 181.998 653.998 Q180.192 657.54 180.192 664.669 Q180.192 671.776 181.998 675.341 Q183.827 678.882 187.438 678.882 Q191.072 678.882 192.877 675.341 Q194.706 671.776 194.706 664.669 Q194.706 657.54 192.877 653.998 Q191.072 650.433 187.438 650.433 M187.438 646.73 Q193.248 646.73 196.303 651.336 Q199.382 655.92 199.382 664.669 Q199.382 673.396 196.303 678.003 Q193.248 682.586 187.438 682.586 Q181.628 682.586 178.549 678.003 Q175.493 673.396 175.493 664.669 Q175.493 655.92 178.549 651.336 Q181.628 646.73 187.438 646.73 Z" fill="#000000" fill-rule="nonzero" fill-opacity="1" /><path clip-path="url(#clip820)" d="M217.6 650.433 Q213.988 650.433 212.16 653.998 Q210.354 657.54 210.354 664.669 Q210.354 671.776 212.16 675.341 Q213.988 678.882 217.6 678.882 Q221.234 678.882 223.039 675.341 Q224.868 671.776 224.868 664.669 Q224.868 657.54 223.039 653.998 Q221.234 650.433 217.6 650.433 M217.6 646.73 Q223.41 646.73 226.465 651.336 Q229.544 655.92 229.544 664.669 Q229.544 673.396 226.465 678.003 Q223.41 682.586 217.6 682.586 Q211.789 682.586 208.711 678.003 Q205.655 673.396 205.655 664.669 Q205.655 655.92 208.711 651.336 Q211.789 646.73 217.6 646.73 Z" fill="#000000" fill-rule="nonzero" fill-opacity="1" /><path clip-path="url(#clip820)" d="M127.693 454.09 Q124.544 454.09 122.693 456.243 Q120.864 458.396 120.864 462.146 Q120.864 465.873 122.693 468.049 Q124.544 470.202 127.693 470.202 Q130.841 470.202 132.669 468.049 Q134.521 465.873 134.521 462.146 Q134.521 458.396 132.669 456.243 Q130.841 454.09 127.693 454.09 M136.975 439.438 L136.975 443.697 Q135.216 442.864 133.41 442.424 Q131.628 441.984 129.869 441.984 Q125.239 441.984 122.785 445.109 Q120.355 448.234 120.007 454.553 Q121.373 452.54 123.433 451.475 Q125.494 450.387 127.97 450.387 Q133.179 450.387 136.188 453.558 Q139.22 456.706 139.22 462.146 Q139.22 467.47 136.072 470.688 Q132.924 473.905 127.693 473.905 Q121.697 473.905 118.526 469.322 Q115.355 464.715 115.355 455.989 Q115.355 447.794 119.244 442.933 Q123.132 438.049 129.683 438.049 Q131.443 438.049 133.225 438.396 Q135.031 438.743 136.975 439.438 Z" fill="#000000" fill-rule="nonzero" fill-opacity="1" /><path clip-path="url(#clip820)" d="M157.276 441.753 Q153.665 441.753 151.836 445.317 Q150.03 448.859 150.03 455.989 Q150.03 463.095 151.836 466.66 Q153.665 470.202 157.276 470.202 Q160.91 470.202 162.716 466.66 Q164.544 463.095 164.544 455.989 Q164.544 448.859 162.716 445.317 Q160.91 441.753 157.276 441.753 M157.276 438.049 Q163.086 438.049 166.141 442.655 Q169.22 447.239 169.22 455.989 Q169.22 464.715 166.141 469.322 Q163.086 473.905 157.276 473.905 Q151.466 473.905 148.387 469.322 Q145.331 464.715 145.331 455.989 Q145.331 447.239 148.387 442.655 Q151.466 438.049 157.276 438.049 Z" fill="#000000" fill-rule="nonzero" fill-opacity="1" /><path clip-path="url(#clip820)" d="M187.438 441.753 Q183.827 441.753 181.998 445.317 Q180.192 448.859 180.192 455.989 Q180.192 463.095 181.998 466.66 Q183.827 470.202 187.438 470.202 Q191.072 470.202 192.877 466.66 Q194.706 463.095 194.706 455.989 Q194.706 448.859 192.877 445.317 Q191.072 441.753 187.438 441.753 M187.438 438.049 Q193.248 438.049 196.303 442.655 Q199.382 447.239 199.382 455.989 Q199.382 464.715 196.303 469.322 Q193.248 473.905 187.438 473.905 Q181.628 473.905 178.549 469.322 Q175.493 464.715 175.493 455.989 Q175.493 447.239 178.549 442.655 Q181.628 438.049 187.438 438.049 Z" fill="#000000" fill-rule="nonzero" fill-opacity="1" /><path clip-path="url(#clip820)" d="M217.6 441.753 Q213.988 441.753 212.16 445.317 Q210.354 448.859 210.354 455.989 Q210.354 463.095 212.16 466.66 Q213.988 470.202 217.6 470.202 Q221.234 470.202 223.039 466.66 Q224.868 463.095 224.868 455.989 Q224.868 448.859 223.039 445.317 Q221.234 441.753 217.6 441.753 M217.6 438.049 Q223.41 438.049 226.465 442.655 Q229.544 447.239 229.544 455.989 Q229.544 464.715 226.465 469.322 Q223.41 473.905 217.6 473.905 Q211.789 473.905 208.711 469.322 Q205.655 464.715 205.655 455.989 Q205.655 447.239 208.711 442.655 Q211.789 438.049 217.6 438.049 Z" fill="#000000" fill-rule="nonzero" fill-opacity="1" /><path clip-path="url(#clip820)" d="M127.114 248.141 Q123.781 248.141 121.859 249.923 Q119.961 251.706 119.961 254.831 Q119.961 257.956 121.859 259.738 Q123.781 261.521 127.114 261.521 Q130.447 261.521 132.369 259.738 Q134.29 257.933 134.29 254.831 Q134.29 251.706 132.369 249.923 Q130.47 248.141 127.114 248.141 M122.438 246.15 Q119.429 245.41 117.739 243.349 Q116.072 241.289 116.072 238.326 Q116.072 234.183 119.012 231.775 Q121.975 229.368 127.114 229.368 Q132.276 229.368 135.216 231.775 Q138.156 234.183 138.156 238.326 Q138.156 241.289 136.466 243.349 Q134.799 245.41 131.813 246.15 Q135.193 246.937 137.068 249.229 Q138.966 251.521 138.966 254.831 Q138.966 259.854 135.887 262.539 Q132.831 265.224 127.114 265.224 Q121.396 265.224 118.318 262.539 Q115.262 259.854 115.262 254.831 Q115.262 251.521 117.16 249.229 Q119.058 246.937 122.438 246.15 M120.725 238.766 Q120.725 241.451 122.392 242.956 Q124.082 244.461 127.114 244.461 Q130.123 244.461 131.813 242.956 Q133.526 241.451 133.526 238.766 Q133.526 236.081 131.813 234.576 Q130.123 233.072 127.114 233.072 Q124.082 233.072 122.392 234.576 Q120.725 236.081 120.725 238.766 Z" fill="#000000" fill-rule="nonzero" fill-opacity="1" /><path clip-path="url(#clip820)" d="M157.276 233.072 Q153.665 233.072 151.836 236.636 Q150.03 240.178 150.03 247.308 Q150.03 254.414 151.836 257.979 Q153.665 261.521 157.276 261.521 Q160.91 261.521 162.716 257.979 Q164.544 254.414 164.544 247.308 Q164.544 240.178 162.716 236.636 Q160.91 233.072 157.276 233.072 M157.276 229.368 Q163.086 229.368 166.141 233.974 Q169.22 238.558 169.22 247.308 Q169.22 256.035 166.141 260.641 Q163.086 265.224 157.276 265.224 Q151.466 265.224 148.387 260.641 Q145.331 256.035 145.331 247.308 Q145.331 238.558 148.387 233.974 Q151.466 229.368 157.276 229.368 Z" fill="#000000" fill-rule="nonzero" fill-opacity="1" /><path clip-path="url(#clip820)" d="M187.438 233.072 Q183.827 233.072 181.998 236.636 Q180.192 240.178 180.192 247.308 Q180.192 254.414 181.998 257.979 Q183.827 261.521 187.438 261.521 Q191.072 261.521 192.877 257.979 Q194.706 254.414 194.706 247.308 Q194.706 240.178 192.877 236.636 Q191.072 233.072 187.438 233.072 M187.438 229.368 Q193.248 229.368 196.303 233.974 Q199.382 238.558 199.382 247.308 Q199.382 256.035 196.303 260.641 Q193.248 265.224 187.438 265.224 Q181.628 265.224 178.549 260.641 Q175.493 256.035 175.493 247.308 Q175.493 238.558 178.549 233.974 Q181.628 229.368 187.438 229.368 Z" fill="#000000" fill-rule="nonzero" fill-opacity="1" /><path clip-path="url(#clip820)" d="M217.6 233.072 Q213.988 233.072 212.16 236.636 Q210.354 240.178 210.354 247.308 Q210.354 254.414 212.16 257.979 Q213.988 261.521 217.6 261.521 Q221.234 261.521 223.039 257.979 Q224.868 254.414 224.868 247.308 Q224.868 240.178 223.039 236.636 Q221.234 233.072 217.6 233.072 M217.6 229.368 Q223.41 229.368 226.465 233.974 Q229.544 238.558 229.544 247.308 Q229.544 256.035 226.465 260.641 Q223.41 265.224 217.6 265.224 Q211.789 265.224 208.711 260.641 Q205.655 256.035 205.655 247.308 Q205.655 238.558 208.711 233.974 Q211.789 229.368 217.6 229.368 Z" fill="#000000" fill-rule="nonzero" fill-opacity="1" /><path clip-path="url(#clip820)" d="M34.4554 598.743 L51.802 611.634 L70.1034 598.075 L70.1034 604.982 L56.0988 615.358 L70.1034 625.734 L70.1034 632.641 L51.4518 618.795 L34.4554 631.463 L34.4554 624.556 L47.155 615.103 L34.4554 605.65 L34.4554 598.743 Z" fill="#000000" fill-rule="nonzero" fill-opacity="1" /><path clip-path="url(#clip820)" d="M718.013 16.7545 L718.013 25.383 Q713.881 21.5346 709.182 19.6307 Q704.523 17.7268 699.257 17.7268 Q688.887 17.7268 683.377 24.0867 Q677.868 30.4061 677.868 42.3968 Q677.868 54.3469 683.377 60.7069 Q688.887 67.0263 699.257 67.0263 Q704.523 67.0263 709.182 65.1223 Q713.881 63.2184 718.013 59.3701 L718.013 67.9175 Q713.719 70.8341 708.898 72.2924 Q704.118 73.7508 698.771 73.7508 Q685.038 73.7508 677.139 65.3654 Q669.24 56.9395 669.24 42.3968 Q669.24 27.8135 677.139 19.4281 Q685.038 11.0023 698.771 11.0023 Q704.199 11.0023 708.979 12.4606 Q713.8 13.8784 718.013 16.7545 Z" fill="#000000" fill-rule="nonzero" fill-opacity="1" /><path clip-path="url(#clip820)" d="M747.908 32.4315 Q741.913 32.4315 738.429 37.1306 Q734.945 41.7891 734.945 49.9314 Q734.945 58.0738 738.389 62.7728 Q741.872 67.4314 747.908 67.4314 Q753.863 67.4314 757.347 62.7323 Q760.831 58.0333 760.831 49.9314 Q760.831 41.8701 757.347 37.1711 Q753.863 32.4315 747.908 32.4315 M747.908 26.1121 Q757.63 26.1121 763.18 32.4315 Q768.73 38.7509 768.73 49.9314 Q768.73 61.0714 763.18 67.4314 Q757.63 73.7508 747.908 73.7508 Q738.146 73.7508 732.596 67.4314 Q727.087 61.0714 727.087 49.9314 Q727.087 38.7509 732.596 32.4315 Q738.146 26.1121 747.908 26.1121 Z" fill="#000000" fill-rule="nonzero" fill-opacity="1" /><path clip-path="url(#clip820)" d="M818.799 45.1919 L818.799 72.576 L811.345 72.576 L811.345 45.4349 Q811.345 38.994 808.834 35.7938 Q806.322 32.5936 801.299 32.5936 Q795.263 32.5936 791.779 36.4419 Q788.296 40.2903 788.296 46.9338 L788.296 72.576 L780.802 72.576 L780.802 27.2059 L788.296 27.2059 L788.296 34.2544 Q790.969 30.163 794.575 28.1376 Q798.22 26.1121 802.96 26.1121 Q810.778 26.1121 814.789 30.9732 Q818.799 35.7938 818.799 45.1919 Z" fill="#000000" fill-rule="nonzero" fill-opacity="1" /><path clip-path="url(#clip820)" d="M862.589 28.5427 L862.589 35.5912 Q859.43 33.9709 856.027 33.1607 Q852.624 32.3505 848.978 32.3505 Q843.429 32.3505 840.633 34.0519 Q837.879 35.7533 837.879 39.156 Q837.879 41.7486 839.864 43.2475 Q841.849 44.7058 847.844 46.0426 L850.396 46.6097 Q858.336 48.3111 861.658 51.4303 Q865.02 54.509 865.02 60.0587 Q865.02 66.3781 859.997 70.0644 Q855.014 73.7508 846.264 73.7508 Q842.618 73.7508 838.648 73.0216 Q834.719 72.3329 830.344 70.9151 L830.344 63.2184 Q834.476 65.3654 838.486 66.4591 Q842.497 67.5124 846.426 67.5124 Q851.692 67.5124 854.528 65.73 Q857.364 63.9071 857.364 60.6258 Q857.364 57.5877 855.298 55.9673 Q853.272 54.3469 846.345 52.8481 L843.753 52.2405 Q836.826 50.7821 833.747 47.7845 Q830.668 44.7463 830.668 39.4801 Q830.668 33.0797 835.205 29.5959 Q839.742 26.1121 848.087 26.1121 Q852.219 26.1121 855.865 26.7198 Q859.511 27.3274 862.589 28.5427 Z" fill="#000000" fill-rule="nonzero" fill-opacity="1" /><path clip-path="url(#clip820)" d="M884.262 14.324 L884.262 27.2059 L899.615 27.2059 L899.615 32.9987 L884.262 32.9987 L884.262 57.6282 Q884.262 63.1779 885.76 64.7578 Q887.3 66.3376 891.958 66.3376 L899.615 66.3376 L899.615 72.576 L891.958 72.576 Q883.33 72.576 880.049 69.3758 Q876.767 66.1351 876.767 57.6282 L876.767 32.9987 L871.299 32.9987 L871.299 27.2059 L876.767 27.2059 L876.767 14.324 L884.262 14.324 Z" fill="#000000" fill-rule="nonzero" fill-opacity="1" /><path clip-path="url(#clip820)" d="M930.037 49.7694 Q921.003 49.7694 917.52 51.8354 Q914.036 53.9013 914.036 58.8839 Q914.036 62.8538 916.628 65.2034 Q919.261 67.5124 923.758 67.5124 Q929.956 67.5124 933.683 63.1374 Q937.45 58.7219 937.45 51.4303 L937.45 49.7694 L930.037 49.7694 M944.904 46.6907 L944.904 72.576 L937.45 72.576 L937.45 65.6895 Q934.898 69.8214 931.09 71.8063 Q927.282 73.7508 921.773 73.7508 Q914.805 73.7508 910.674 69.8619 Q906.582 65.9325 906.582 59.3701 Q906.582 51.7138 911.686 47.825 Q916.831 43.9361 926.999 43.9361 L937.45 43.9361 L937.45 43.2069 Q937.45 38.0623 934.047 35.2672 Q930.685 32.4315 924.568 32.4315 Q920.679 32.4315 916.993 33.3632 Q913.307 34.295 909.904 36.1584 L909.904 29.2718 Q913.995 27.692 917.844 26.9223 Q921.692 26.1121 925.338 26.1121 Q935.182 26.1121 940.043 31.2163 Q944.904 36.3204 944.904 46.6907 Z" fill="#000000" fill-rule="nonzero" fill-opacity="1" /><path clip-path="url(#clip820)" d="M997.971 45.1919 L997.971 72.576 L990.517 72.576 L990.517 45.4349 Q990.517 38.994 988.005 35.7938 Q985.494 32.5936 980.471 32.5936 Q974.435 32.5936 970.951 36.4419 Q967.467 40.2903 967.467 46.9338 L967.467 72.576 L959.973 72.576 L959.973 27.2059 L967.467 27.2059 L967.467 34.2544 Q970.141 30.163 973.746 28.1376 Q977.392 26.1121 982.131 26.1121 Q989.95 26.1121 993.96 30.9732 Q997.971 35.7938 997.971 45.1919 Z" fill="#000000" fill-rule="nonzero" fill-opacity="1" /><path clip-path="url(#clip820)" d="M1020.21 14.324 L1020.21 27.2059 L1035.56 27.2059 L1035.56 32.9987 L1020.21 32.9987 L1020.21 57.6282 Q1020.21 63.1779 1021.71 64.7578 Q1023.25 66.3376 1027.91 66.3376 L1035.56 66.3376 L1035.56 72.576 L1027.91 72.576 Q1019.28 72.576 1016 69.3758 Q1012.72 66.1351 1012.72 57.6282 L1012.72 32.9987 L1007.25 32.9987 L1007.25 27.2059 L1012.72 27.2059 L1012.72 14.324 L1020.21 14.324 Z" fill="#000000" fill-rule="nonzero" fill-opacity="1" /><path clip-path="url(#clip820)" d="M1101.59 49.3643 Q1101.59 41.2625 1098.23 36.8065 Q1094.91 32.3505 1088.87 32.3505 Q1082.88 32.3505 1079.52 36.8065 Q1076.19 41.2625 1076.19 49.3643 Q1076.19 57.4256 1079.52 61.8816 Q1082.88 66.3376 1088.87 66.3376 Q1094.91 66.3376 1098.23 61.8816 Q1101.59 57.4256 1101.59 49.3643 M1109.05 66.9452 Q1109.05 78.5308 1103.9 84.1616 Q1098.76 89.8329 1088.14 89.8329 Q1084.21 89.8329 1080.73 89.2252 Q1077.25 88.6581 1073.97 87.4428 L1073.97 80.1917 Q1077.25 81.9741 1080.45 82.8248 Q1083.65 83.6755 1086.97 83.6755 Q1094.3 83.6755 1097.95 79.8271 Q1101.59 76.0193 1101.59 68.282 L1101.59 64.5957 Q1099.28 68.6061 1095.68 70.5911 Q1092.07 72.576 1087.05 72.576 Q1078.71 72.576 1073.6 66.2161 Q1068.5 59.8562 1068.5 49.3643 Q1068.5 38.832 1073.6 32.472 Q1078.71 26.1121 1087.05 26.1121 Q1092.07 26.1121 1095.68 28.0971 Q1099.28 30.082 1101.59 34.0924 L1101.59 27.2059 L1109.05 27.2059 L1109.05 66.9452 Z" fill="#000000" fill-rule="nonzero" fill-opacity="1" /><path clip-path="url(#clip820)" d="M1150.69 34.1734 Q1149.43 33.4443 1147.93 33.1202 Q1146.48 32.7556 1144.69 32.7556 Q1138.37 32.7556 1134.97 36.8875 Q1131.61 40.9789 1131.61 48.6757 L1131.61 72.576 L1124.12 72.576 L1124.12 27.2059 L1131.61 27.2059 L1131.61 34.2544 Q1133.96 30.1225 1137.73 28.1376 Q1141.49 26.1121 1146.88 26.1121 Q1147.65 26.1121 1148.58 26.2337 Q1149.51 26.3147 1150.65 26.5172 L1150.69 34.1734 Z" fill="#000000" fill-rule="nonzero" fill-opacity="1" /><path clip-path="url(#clip820)" d="M1174.27 32.4315 Q1168.27 32.4315 1164.79 37.1306 Q1161.3 41.7891 1161.3 49.9314 Q1161.3 58.0738 1164.75 62.7728 Q1168.23 67.4314 1174.27 67.4314 Q1180.22 67.4314 1183.7 62.7323 Q1187.19 58.0333 1187.19 49.9314 Q1187.19 41.8701 1183.7 37.1711 Q1180.22 32.4315 1174.27 32.4315 M1174.27 26.1121 Q1183.99 26.1121 1189.54 32.4315 Q1195.09 38.7509 1195.09 49.9314 Q1195.09 61.0714 1189.54 67.4314 Q1183.99 73.7508 1174.27 73.7508 Q1164.5 73.7508 1158.95 67.4314 Q1153.44 61.0714 1153.44 49.9314 Q1153.44 38.7509 1158.95 32.4315 Q1164.5 26.1121 1174.27 26.1121 Z" fill="#000000" fill-rule="nonzero" fill-opacity="1" /><path clip-path="url(#clip820)" d="M1203.11 27.2059 L1210.56 27.2059 L1219.88 62.6108 L1229.16 27.2059 L1237.95 27.2059 L1247.26 62.6108 L1256.54 27.2059 L1263.99 27.2059 L1252.12 72.576 L1243.33 72.576 L1233.57 35.3887 L1223.77 72.576 L1214.98 72.576 L1203.11 27.2059 Z" fill="#000000" fill-rule="nonzero" fill-opacity="1" /><path clip-path="url(#clip820)" d="M1282.67 14.324 L1282.67 27.2059 L1298.02 27.2059 L1298.02 32.9987 L1282.67 32.9987 L1282.67 57.6282 Q1282.67 63.1779 1284.17 64.7578 Q1285.71 66.3376 1290.36 66.3376 L1298.02 66.3376 L1298.02 72.576 L1290.36 72.576 Q1281.74 72.576 1278.46 69.3758 Q1275.17 66.1351 1275.17 57.6282 L1275.17 32.9987 L1269.71 32.9987 L1269.71 27.2059 L1275.17 27.2059 L1275.17 14.324 L1282.67 14.324 Z" fill="#000000" fill-rule="nonzero" fill-opacity="1" /><path clip-path="url(#clip820)" d="M1345.54 45.1919 L1345.54 72.576 L1338.08 72.576 L1338.08 45.4349 Q1338.08 38.994 1335.57 35.7938 Q1333.06 32.5936 1328.04 32.5936 Q1322 32.5936 1318.52 36.4419 Q1315.03 40.2903 1315.03 46.9338 L1315.03 72.576 L1307.54 72.576 L1307.54 9.54393 L1315.03 9.54393 L1315.03 34.2544 Q1317.71 30.163 1321.31 28.1376 Q1324.96 26.1121 1329.7 26.1121 Q1337.52 26.1121 1341.53 30.9732 Q1345.54 35.7938 1345.54 45.1919 Z" fill="#000000" fill-rule="nonzero" fill-opacity="1" /><path clip-path="url(#clip820)" d="M1413.07 34.1734 Q1411.81 33.4443 1410.31 33.1202 Q1408.85 32.7556 1407.07 32.7556 Q1400.75 32.7556 1397.35 36.8875 Q1393.99 40.9789 1393.99 48.6757 L1393.99 72.576 L1386.49 72.576 L1386.49 27.2059 L1393.99 27.2059 L1393.99 34.2544 Q1396.34 30.1225 1400.1 28.1376 Q1403.87 26.1121 1409.26 26.1121 Q1410.03 26.1121 1410.96 26.2337 Q1411.89 26.3147 1413.03 26.5172 L1413.07 34.1734 Z" fill="#000000" fill-rule="nonzero" fill-opacity="1" /><path clip-path="url(#clip820)" d="M1441.5 49.7694 Q1432.47 49.7694 1428.99 51.8354 Q1425.5 53.9013 1425.5 58.8839 Q1425.5 62.8538 1428.1 65.2034 Q1430.73 67.5124 1435.23 67.5124 Q1441.42 67.5124 1445.15 63.1374 Q1448.92 58.7219 1448.92 51.4303 L1448.92 49.7694 L1441.5 49.7694 M1456.37 46.6907 L1456.37 72.576 L1448.92 72.576 L1448.92 65.6895 Q1446.37 69.8214 1442.56 71.8063 Q1438.75 73.7508 1433.24 73.7508 Q1426.27 73.7508 1422.14 69.8619 Q1418.05 65.9325 1418.05 59.3701 Q1418.05 51.7138 1423.15 47.825 Q1428.3 43.9361 1438.47 43.9361 L1448.92 43.9361 L1448.92 43.2069 Q1448.92 38.0623 1445.51 35.2672 Q1442.15 32.4315 1436.04 32.4315 Q1432.15 32.4315 1428.46 33.3632 Q1424.77 34.295 1421.37 36.1584 L1421.37 29.2718 Q1425.46 27.692 1429.31 26.9223 Q1433.16 26.1121 1436.8 26.1121 Q1446.65 26.1121 1451.51 31.2163 Q1456.37 36.3204 1456.37 46.6907 Z" fill="#000000" fill-rule="nonzero" fill-opacity="1" /><path clip-path="url(#clip820)" d="M1479.1 14.324 L1479.1 27.2059 L1494.45 27.2059 L1494.45 32.9987 L1479.1 32.9987 L1479.1 57.6282 Q1479.1 63.1779 1480.6 64.7578 Q1482.13 66.3376 1486.79 66.3376 L1494.45 66.3376 L1494.45 72.576 L1486.79 72.576 Q1478.16 72.576 1474.88 69.3758 Q1471.6 66.1351 1471.6 57.6282 L1471.6 32.9987 L1466.13 32.9987 L1466.13 27.2059 L1471.6 27.2059 L1471.6 14.324 L1479.1 14.324 Z" fill="#000000" fill-rule="nonzero" fill-opacity="1" /><path clip-path="url(#clip820)" d="M1543.06 48.0275 L1543.06 51.6733 L1508.79 51.6733 Q1509.28 59.3701 1513.41 63.421 Q1517.58 67.4314 1524.99 67.4314 Q1529.29 67.4314 1533.3 66.3781 Q1537.35 65.3249 1541.32 63.2184 L1541.32 70.267 Q1537.31 71.9684 1533.09 72.8596 Q1528.88 73.7508 1524.55 73.7508 Q1513.69 73.7508 1507.33 67.4314 Q1501.01 61.1119 1501.01 50.3365 Q1501.01 39.1965 1507.01 32.6746 Q1513.04 26.1121 1523.25 26.1121 Q1532.41 26.1121 1537.71 32.0264 Q1543.06 37.9003 1543.06 48.0275 M1535.61 45.84 Q1535.53 39.7232 1532.16 36.0774 Q1528.84 32.4315 1523.33 32.4315 Q1517.09 32.4315 1513.33 35.9558 Q1509.6 39.4801 1509.03 45.8805 L1535.61 45.84 Z" fill="#000000" fill-rule="nonzero" fill-opacity="1" /><polyline clip-path="url(#clip822)" style="stroke:#009af9; stroke-linecap:round; stroke-linejoin:round; stroke-width:8; stroke-opacity:1; fill:none" points="259.544,1081.68 261.239,1081.68 262.934,1081.68 264.629,1081.68 266.324,1081.67 268.018,1081.67 269.713,1081.67 271.408,1081.67 273.103,1081.66 274.798,1081.66 276.493,1081.66 278.188,1081.65 279.883,1081.65 281.578,1081.65 283.273,1081.65 284.968,1081.64 286.662,1081.64 288.357,1081.64 290.052,1081.63 291.747,1081.63 293.442,1081.63 295.137,1081.63 296.832,1081.62 298.527,1081.62 300.222,1081.62 301.917,1081.61 303.612,1081.61 305.306,1081.61 307.001,1081.6 308.696,1081.6 310.391,1081.6 312.086,1081.6 313.781,1081.59 315.476,1081.59 317.171,1081.59 318.866,1081.58 320.561,1081.58 322.255,1081.58 323.95,1081.57 325.645,1081.57 327.34,1081.57 329.035,1081.56 330.73,1081.56 332.425,1081.55 334.12,1081.55 335.815,1081.55 337.51,1081.54 339.205,1081.54 340.899,1081.54 342.594,1081.53 344.289,1081.53 345.984,1081.53 347.679,1081.52 349.374,1081.52 351.069,1081.51 352.764,1081.51 354.459,1081.51 356.154,1081.5 357.849,1081.5 359.543,1081.49 361.238,1081.49 362.933,1081.49 364.628,1081.48 366.323,1081.48 368.018,1081.47 369.713,1081.47 371.408,1081.47 373.103,1081.46 374.798,1081.46 376.493,1081.45 378.187,1081.45 379.882,1081.44 381.577,1081.44 383.272,1081.43 384.967,1081.43 386.662,1081.43 388.357,1081.42 390.052,1081.42 391.747,1081.41 393.442,1081.41 395.136,1081.4 396.831,1081.4 398.526,1081.39 400.221,1081.39 401.916,1081.38 403.611,1081.38 405.306,1081.37 407.001,1081.37 408.696,1081.36 410.391,1081.36 412.086,1081.35 413.78,1081.35 415.475,1081.34 417.17,1081.34 418.865,1081.33 420.56,1081.33 422.255,1081.32 423.95,1081.32 425.645,1081.31 427.34,1081.3 429.035,1081.3 430.73,1081.29 432.424,1081.29 434.119,1081.28 435.814,1081.28 437.509,1081.27 439.204,1081.27 440.899,1081.26 442.594,1081.25 444.289,1081.25 445.984,1081.24 447.679,1081.24 449.373,1081.23 451.068,1081.22 452.763,1081.22 454.458,1081.21 456.153,1081.2 457.848,1081.2 459.543,1081.19 461.238,1081.18 462.933,1081.18 464.628,1081.17 466.323,1081.17 468.017,1081.16 469.712,1081.15 471.407,1081.14 473.102,1081.14 474.797,1081.13 476.492,1081.12 478.187,1081.12 479.882,1081.11 481.577,1081.1 483.272,1081.1 484.967,1081.09 486.661,1081.08 488.356,1081.07 490.051,1081.07 491.746,1081.06 493.441,1081.05 495.136,1081.04 496.831,1081.04 498.526,1081.03 500.221,1081.02 501.916,1081.01 503.611,1081 505.305,1081 507,1080.99 508.695,1080.98 510.39,1080.97 512.085,1080.96 513.78,1080.96 515.475,1080.95 517.17,1080.94 518.865,1080.93 520.56,1080.92 522.254,1080.91 523.949,1080.9 525.644,1080.9 527.339,1080.89 529.034,1080.88 530.729,1080.87 532.424,1080.86 534.119,1080.85 535.814,1080.84 537.509,1080.83 539.204,1080.82 540.898,1080.81 542.593,1080.8 544.288,1080.79 545.983,1080.79 547.678,1080.78 549.373,1080.77 551.068,1080.76 552.763,1080.75 554.458,1080.74 556.153,1080.73 557.848,1080.72 559.542,1080.7 561.237,1080.69 562.932,1080.68 564.627,1080.67 566.322,1080.66 568.017,1080.65 569.712,1080.64 571.407,1080.63 573.102,1080.62 574.797,1080.61 576.492,1080.6 578.186,1080.59 579.881,1080.57 581.576,1080.56 583.271,1080.55 584.966,1080.54 586.661,1080.53 588.356,1080.52 590.051,1080.5 591.746,1080.49 593.441,1080.48 595.135,1080.47 596.83,1080.46 598.525,1080.44 600.22,1080.43 601.915,1080.42 603.61,1080.41 605.305,1080.39 607,1080.38 608.695,1080.37 610.39,1080.35 612.085,1080.34 613.779,1080.33 615.474,1080.31 617.169,1080.3 618.864,1080.29 620.559,1080.27 622.254,1080.26 623.949,1080.25 625.644,1080.23 627.339,1080.22 629.034,1080.2 630.729,1080.19 632.423,1080.17 634.118,1080.16 635.813,1080.14 637.508,1080.13 639.203,1080.11 640.898,1080.1 642.593,1080.08 644.288,1080.07 645.983,1080.05 647.678,1080.04 649.373,1080.02 651.067,1080.01 652.762,1079.99 654.457,1079.97 656.152,1079.96 657.847,1079.94 659.542,1079.92 661.237,1079.91 662.932,1079.89 664.627,1079.87 666.322,1079.86 668.016,1079.84 669.711,1079.82 671.406,1079.81 673.101,1079.79 674.796,1079.77 676.491,1079.75 678.186,1079.73 679.881,1079.72 681.576,1079.7 683.271,1079.68 684.966,1079.66 686.66,1079.64 688.355,1079.62 690.05,1079.6 691.745,1079.58 693.44,1079.56 695.135,1079.55 696.83,1079.53 698.525,1079.51 700.22,1079.49 701.915,1079.47 703.61,1079.45 705.304,1079.42 706.999,1079.4 708.694,1079.38 710.389,1079.36 712.084,1079.34 713.779,1079.32 715.474,1079.3 717.169,1079.28 718.864,1079.25 720.559,1079.23 722.254,1079.21 723.948,1079.19 725.643,1079.17 727.338,1079.14 729.033,1079.12 730.728,1079.1 732.423,1079.07 734.118,1079.05 735.813,1079.03 737.508,1079 739.203,1078.98 740.897,1078.95 742.592,1078.93 744.287,1078.9 745.982,1078.88 747.677,1078.85 749.372,1078.83 751.067,1078.8 752.762,1078.78 754.457,1078.75 756.152,1078.73 757.847,1078.7 759.541,1078.67 761.236,1078.65 762.931,1078.62 764.626,1078.59 766.321,1078.57 768.016,1078.54 769.711,1078.51 771.406,1078.48 773.101,1078.45 774.796,1078.43 776.491,1078.4 778.185,1078.37 779.88,1078.34 781.575,1078.31 783.27,1078.28 784.965,1078.25 786.66,1078.22 788.355,1078.19 790.05,1078.16 791.745,1078.13 793.44,1078.1 795.135,1078.06 796.829,1078.03 798.524,1078 800.219,1077.97 801.914,1077.94 803.609,1077.9 805.304,1077.87 806.999,1077.84 808.694,1077.8 810.389,1077.77 812.084,1077.74 813.778,1077.7 815.473,1077.67 817.168,1077.63 818.863,1077.6 820.558,1077.56 822.253,1077.53 823.948,1077.49 825.643,1077.46 827.338,1077.42 829.033,1077.38 830.728,1077.35 832.422,1077.31 834.117,1077.27 835.812,1077.23 837.507,1077.19 839.202,1077.15 840.897,1077.12 842.592,1077.08 844.287,1077.04 845.982,1077 847.677,1076.96 849.372,1076.92 851.066,1076.88 852.761,1076.83 854.456,1076.79 856.151,1076.75 857.846,1076.71 859.541,1076.67 861.236,1076.62 862.931,1076.58 864.626,1076.54 866.321,1076.49 868.015,1076.45 869.71,1076.4 871.405,1076.36 873.1,1076.31 874.795,1076.27 876.49,1076.22 878.185,1076.18 879.88,1076.13 881.575,1076.08 883.27,1076.03 884.965,1075.99 886.659,1075.94 888.354,1075.89 890.049,1075.84 891.744,1075.79 893.439,1075.74 895.134,1075.69 896.829,1075.64 898.524,1075.59 900.219,1075.54 901.914,1075.49 903.609,1075.43 905.303,1075.38 906.998,1075.33 908.693,1075.27 910.388,1075.22 912.083,1075.16 913.778,1075.11 915.473,1075.05 917.168,1075 918.863,1074.94 920.558,1074.89 922.253,1074.83 923.947,1074.77 925.642,1074.71 927.337,1074.65 929.032,1074.6 930.727,1074.54 932.422,1074.48 934.117,1074.42 935.812,1074.35 937.507,1074.29 939.202,1074.23 940.896,1074.17 942.591,1074.11 944.286,1074.04 945.981,1073.98 947.676,1073.91 949.371,1073.85 951.066,1073.78 952.761,1073.72 954.456,1073.65 956.151,1073.58 957.846,1073.52 959.54,1073.45 961.235,1073.38 962.93,1073.31 964.625,1073.24 966.32,1073.17 968.015,1073.1 969.71,1073.03 971.405,1072.95 973.1,1072.88 974.795,1072.81 976.49,1072.74 978.184,1072.66 979.879,1072.59 981.574,1072.51 983.269,1072.43 984.964,1072.36 986.659,1072.28 988.354,1072.2 990.049,1072.12 991.744,1072.04 993.439,1071.96 995.134,1071.88 996.828,1071.8 998.523,1071.72 1000.22,1071.64 1001.91,1071.55 1003.61,1071.47 1005.3,1071.38 1007,1071.3 1008.69,1071.21 1010.39,1071.13 1012.08,1071.04 1013.78,1070.95 1015.47,1070.86 1017.17,1070.77 1018.86,1070.68 1020.56,1070.59 1022.25,1070.5 1023.95,1070.41 1025.64,1070.31 1027.34,1070.22 1029.03,1070.13 1030.73,1070.03 1032.42,1069.93 1034.12,1069.84 1035.81,1069.74 1037.51,1069.64 1039.2,1069.54 1040.9,1069.44 1042.59,1069.34 1044.29,1069.24 1045.98,1069.14 1047.68,1069.03 1049.37,1068.93 1051.07,1068.82 1052.76,1068.72 1054.46,1068.61 1056.15,1068.5 1057.85,1068.39 1059.54,1068.28 1061.23,1068.17 1062.93,1068.06 1064.62,1067.95 1066.32,1067.84 1068.01,1067.72 1069.71,1067.61 1071.4,1067.49 1073.1,1067.38 1074.79,1067.26 1076.49,1067.14 1078.18,1067.02 1079.88,1066.9 1081.57,1066.78 1083.27,1066.66 1084.96,1066.53 1086.66,1066.41 1088.35,1066.28 1090.05,1066.16 1091.74,1066.03 1093.44,1065.9 1095.13,1065.77 1096.83,1065.64 1098.52,1065.51 1100.22,1065.38 1101.91,1065.25 1103.61,1065.11 1105.3,1064.98 1107,1064.84 1108.69,1064.7 1110.39,1064.56 1112.08,1064.42 1113.78,1064.28 1115.47,1064.14 1117.17,1063.99 1118.86,1063.85 1120.56,1063.7 1122.25,1063.56 1123.95,1063.41 1125.64,1063.26 1127.34,1063.11 1129.03,1062.96 1130.73,1062.8 1132.42,1062.65 1134.12,1062.49 1135.81,1062.34 1137.51,1062.18 1139.2,1062.02 1140.9,1061.86 1142.59,1061.7 1144.29,1061.53 1145.98,1061.37 1147.68,1061.2 1149.37,1061.04 1151.06,1060.87 1152.76,1060.7 1154.45,1060.53 1156.15,1060.35 1157.84,1060.18 1159.54,1060 1161.23,1059.83 1162.93,1059.65 1164.62,1059.47 1166.32,1059.29 1168.01,1059.11 1169.71,1058.92 1171.4,1058.74 1173.1,1058.55 1174.79,1058.36 1176.49,1058.17 1178.18,1057.98 1179.88,1057.79 1181.57,1057.59 1183.27,1057.39 1184.96,1057.2 1186.66,1057 1188.35,1056.8 1190.05,1056.59 1191.74,1056.39 1193.44,1056.18 1195.13,1055.98 1196.83,1055.77 1198.52,1055.56 1200.22,1055.34 1201.91,1055.13 1203.61,1054.91 1205.3,1054.69 1207,1054.47 1208.69,1054.25 1210.39,1054.03 1212.08,1053.81 1213.78,1053.58 1215.47,1053.35 1217.17,1053.12 1218.86,1052.89 1220.56,1052.65 1222.25,1052.42 1223.95,1052.18 1225.64,1051.94 1227.34,1051.7 1229.03,1051.46 1230.73,1051.21 1232.42,1050.96 1234.12,1050.71 1235.81,1050.46 1237.51,1050.21 1239.2,1049.95 1240.9,1049.69 1242.59,1049.43 1244.28,1049.17 1245.98,1048.91 1247.67,1048.64 1249.37,1048.38 1251.06,1048.1 1252.76,1047.83 1254.45,1047.56 1256.15,1047.28 1257.84,1047 1259.54,1046.72 1261.23,1046.44 1262.93,1046.15 1264.62,1045.86 1266.32,1045.57 1268.01,1045.28 1269.71,1044.98 1271.4,1044.69 1273.1,1044.39 1274.79,1044.09 1276.49,1043.78 1278.18,1043.47 1279.88,1043.16 1281.57,1042.85 1283.27,1042.54 1284.96,1042.22 1286.66,1041.9 1288.35,1041.58 1290.05,1041.25 1291.74,1040.93 1293.44,1040.6 1295.13,1040.26 1296.83,1039.93 1298.52,1039.59 1300.22,1039.25 1301.91,1038.9 1303.61,1038.56 1305.3,1038.21 1307,1037.86 1308.69,1037.5 1310.39,1037.14 1312.08,1036.78 1313.78,1036.42 1315.47,1036.05 1317.17,1035.68 1318.86,1035.31 1320.56,1034.94 1322.25,1034.56 1323.95,1034.18 1325.64,1033.79 1327.34,1033.4 1329.03,1033.01 1330.73,1032.62 1332.42,1032.22 1334.11,1031.82 1335.81,1031.42 1337.5,1031.01 1339.2,1030.6 1340.89,1030.19 1342.59,1029.77 1344.28,1029.35 1345.98,1028.93 1347.67,1028.5 1349.37,1028.07 1351.06,1027.64 1352.76,1027.2 1354.45,1026.76 1356.15,1026.32 1357.84,1025.87 1359.54,1025.42 1361.23,1024.96 1362.93,1024.5 1364.62,1024.04 1366.32,1023.57 1368.01,1023.1 1369.71,1022.63 1371.4,1022.15 1373.1,1021.67 1374.79,1021.19 1376.49,1020.7 1378.18,1020.21 1379.88,1019.71 1381.57,1019.21 1383.27,1018.7 1384.96,1018.19 1386.66,1017.68 1388.35,1017.16 1390.05,1016.64 1391.74,1016.12 1393.44,1015.59 1395.13,1015.05 1396.83,1014.52 1398.52,1013.97 1400.22,1013.43 1401.91,1012.87 1403.61,1012.32 1405.3,1011.76 1407,1011.19 1408.69,1010.62 1410.39,1010.05 1412.08,1009.47 1413.78,1008.89 1415.47,1008.3 1417.17,1007.71 1418.86,1007.11 1420.56,1006.51 1422.25,1005.9 1423.94,1005.29 1425.64,1004.68 1427.33,1004.05 1429.03,1003.43 1430.72,1002.8 1432.42,1002.16 1434.11,1001.52 1435.81,1000.87 1437.5,1000.22 1439.2,999.561 1440.89,998.899 1442.59,998.231 1444.28,997.557 1445.98,996.879 1447.67,996.195 1449.37,995.505 1451.06,994.81 1452.76,994.109 1454.45,993.403 1456.15,992.691 1457.84,991.973 1459.54,991.249 1461.23,990.52 1462.93,989.785 1464.62,989.043 1466.32,988.296 1468.01,987.543 1469.71,986.784 1471.4,986.018 1473.1,985.247 1474.79,984.469 1476.49,983.685 1478.18,982.895 1479.88,982.098 1481.57,981.295 1483.27,980.486 1484.96,979.669 1486.66,978.847 1488.35,978.017 1490.05,977.181 1491.74,976.339 1493.44,975.489 1495.13,974.633 1496.83,973.769 1498.52,972.899 1500.22,972.022 1501.91,971.138 1503.61,970.246 1505.3,969.348 1507,968.442 1508.69,967.528 1510.39,966.608 1512.08,965.68 1513.78,964.745 1515.47,963.802 1517.16,962.851 1518.86,961.893 1520.55,960.927 1522.25,959.953 1523.94,958.972 1525.64,957.982 1527.33,956.985 1529.03,955.979 1530.72,954.966 1532.42,953.944 1534.11,952.914 1535.81,951.876 1537.5,950.83 1539.2,949.775 1540.89,948.711 1542.59,947.639 1544.28,946.559 1545.98,945.47 1547.67,944.372 1549.37,943.265 1551.06,942.15 1552.76,941.025 1554.45,939.892 1556.15,938.749 1557.84,937.597 1559.54,936.436 1561.23,935.266 1562.93,934.086 1564.62,932.897 1566.32,931.698 1568.01,930.489 1569.71,929.271 1571.4,928.043 1573.1,926.805 1574.79,925.557 1576.49,924.299 1578.18,923.031 1579.88,921.753 1581.57,920.465 1583.27,919.166 1584.96,917.857 1586.66,916.537 1588.35,915.207 1590.05,913.866 1591.74,912.514 1593.44,911.152 1595.13,909.778 1596.83,908.394 1598.52,906.998 1600.22,905.592 1601.91,904.174 1603.61,902.744 1605.3,901.304 1606.99,899.851 1608.69,898.387 1610.38,896.911 1612.08,895.424 1613.77,893.924 1615.47,892.413 1617.16,890.889 1618.86,889.353 1620.55,887.805 1622.25,886.244 1623.94,884.671 1625.64,883.085 1627.33,881.487 1629.03,879.875 1630.72,878.251 1632.42,876.613 1634.11,874.963 1635.81,873.299 1637.5,871.622 1639.2,869.931 1640.89,868.227 1642.59,866.509 1644.28,864.777 1645.98,863.031 1647.67,861.271 1649.37,859.497 1651.06,857.709 1652.76,855.906 1654.45,854.089 1656.15,852.257 1657.84,850.41 1659.54,848.549 1661.23,846.672 1662.93,844.78 1664.62,842.874 1666.32,840.951 1668.01,839.014 1669.71,837.06 1671.4,835.091 1673.1,833.106 1674.79,831.105 1676.49,829.088 1678.18,827.055 1679.88,825.005 1681.57,822.938 1683.27,820.855 1684.96,818.756 1686.66,816.639 1688.35,814.505 1690.05,812.354 1691.74,810.186 1693.44,808 1695.13,805.796 1696.82,803.575 1698.52,801.336 1700.21,799.079 1701.91,796.803 1703.6,794.51 1705.3,792.198 1706.99,789.867 1708.69,787.517 1710.38,785.149 1712.08,782.761 1713.77,780.354 1715.47,777.928 1717.16,775.483 1718.86,773.017 1720.55,770.532 1722.25,768.027 1723.94,765.502 1725.64,762.956 1727.33,760.39 1729.03,757.804 1730.72,755.196 1732.42,752.568 1734.11,749.918 1735.81,747.248 1737.5,744.556 1739.2,741.842 1740.89,739.107 1742.59,736.35 1744.28,733.571 1745.98,730.769 1747.67,727.945 1749.37,725.098 1751.06,722.229 1752.76,719.336 1754.45,716.42 1756.15,713.48 1757.84,710.517 1759.54,707.529 1761.23,704.518 1762.93,701.483 1764.62,698.423 1766.32,695.339 1768.01,692.23 1769.71,689.096 1771.4,685.937 1773.1,682.752 1774.79,679.542 1776.49,676.306 1778.18,673.045 1779.88,669.757 1781.57,666.443 1783.27,663.102 1784.96,659.734 1786.66,656.34 1788.35,652.918 1790.04,649.469 1791.74,645.992 1793.43,642.488 1795.13,638.955 1796.82,635.394 1798.52,631.805 1800.21,628.186 1801.91,624.539 1803.6,620.862 1805.3,617.156 1806.99,613.42 1808.69,609.655 1810.38,605.859 1812.08,602.032 1813.77,598.175 1815.47,594.287 1817.16,590.368 1818.86,586.417 1820.55,582.434 1822.25,578.42 1823.94,574.373 1825.64,570.294 1827.33,566.182 1829.03,562.037 1830.72,557.858 1832.42,553.646 1834.11,549.4 1835.81,545.12 1837.5,540.806 1839.2,536.456 1840.89,532.072 1842.59,527.653 1844.28,523.197 1845.98,518.706 1847.67,514.179 1849.37,509.615 1851.06,505.015 1852.76,500.377 1854.45,495.702 1856.15,490.99 1857.84,486.239 1859.54,481.45 1861.23,476.623 1862.93,471.756 1864.62,466.851 1866.32,461.906 1868.01,456.92 1869.71,451.895 1871.4,446.829 1873.1,441.722 1874.79,436.575 1876.49,431.385 1878.18,426.154 1879.87,420.88 1881.57,415.564 1883.26,410.205 1884.96,404.803 1886.65,399.357 1888.35,393.867 1890.04,388.333 1891.74,382.755 1893.43,377.131 1895.13,371.462 1896.82,365.748 1898.52,359.987 1900.21,354.18 1901.91,348.326 1903.6,342.425 1905.3,336.476 1906.99,330.48 1908.69,324.435 1910.38,318.341 1912.08,312.199 1913.77,306.007 1915.47,299.765 1917.16,293.473 1918.86,287.131 1920.55,280.737 1922.25,274.292 1923.94,267.796 1925.64,261.247 1927.33,254.645 1929.03,247.991 1930.72,241.283 1932.42,234.522 1934.11,227.706 1935.81,220.836 1937.5,213.91 1939.2,206.93 1940.89,199.893 1942.59,192.8 1944.28,185.65 1945.98,178.444 1947.67,171.179 1949.37,163.856 1951.06,156.474 1952.76,149.032 "/>
</svg>
