<?xml version="1.0" encoding="utf-8"?>
<svg xmlns="http://www.w3.org/2000/svg" xmlns:xlink="http://www.w3.org/1999/xlink" width="600" height="200" viewBox="0 0 2400 800">
<defs>
  <clipPath id="clip350">
    <rect x="0" y="0" width="2400" height="800"/>
  </clipPath>
</defs>
<path clip-path="url(#clip350)" d="M0 800 L2400 800 L2400 0 L0 0  Z" fill="#ffffff" fill-rule="evenodd" fill-opacity="1"/>
<defs>
  <clipPath id="clip351">
    <rect x="480" y="0" width="1681" height="800"/>
  </clipPath>
</defs>
<path clip-path="url(#clip350)" d="M148.031 752.756 L651.969 752.756 L651.969 47.2441 L148.031 47.2441  Z" fill="#ffffff" fill-rule="evenodd" fill-opacity="1"/>
<defs>
  <clipPath id="clip352">
    <rect x="148" y="47" width="505" height="707"/>
  </clipPath>
</defs>
<polyline clip-path="url(#clip350)" style="stroke:#000000; stroke-linecap:round; stroke-linejoin:round; stroke-width:4; stroke-opacity:1; fill:none" points="148.031,400 651.969,400 "/>
<polyline clip-path="url(#clip350)" style="stroke:#000000; stroke-linecap:round; stroke-linejoin:round; stroke-width:4; stroke-opacity:1; fill:none" points="400,752.756 400,47.2441 "/>
<polyline clip-path="url(#clip352)" style="stroke:#000000; stroke-linecap:round; stroke-linejoin:round; stroke-width:4; stroke-opacity:0.5; fill:none" points="651.969,400 651.93,395.603 651.815,391.206 651.623,386.813 651.355,382.424 651.01,378.039 650.588,373.662 650.09,369.293 649.516,364.933 648.866,360.583 648.141,356.246 647.339,351.922 646.462,347.613 645.511,343.319 644.484,339.043 643.383,334.786 642.208,330.548 640.959,326.332 639.636,322.137 638.241,317.967 636.773,313.822 635.233,309.703 633.621,305.611 631.938,301.548 630.185,297.515 628.361,293.514 626.468,289.544 624.506,285.609 622.475,281.708 620.377,277.843 618.211,274.016 615.979,270.227 613.681,266.477 611.319,262.768 608.891,259.101 606.401,255.477 603.847,251.897 601.231,248.362 598.554,244.873 595.816,241.431 593.019,238.038 590.163,234.694 587.249,231.4 584.278,228.158 581.251,224.968 578.169,221.831 575.032,218.749 571.842,215.722 568.6,212.751 565.306,209.837 561.962,206.981 558.569,204.184 555.127,201.446 551.638,198.769 548.103,196.153 544.523,193.599 540.899,191.109 537.232,188.681 533.523,186.319 529.773,184.021 525.984,181.789 522.157,179.623 518.292,177.525 514.391,175.494 510.456,173.532 506.486,171.639 502.485,169.815 498.452,168.062 494.389,166.379 490.297,164.767 486.178,163.227 482.033,161.759 477.863,160.364 473.668,159.041 469.452,157.792 465.214,156.617 460.957,155.516 456.681,154.489 452.387,153.538 448.078,152.661 443.754,151.859 439.417,151.134 435.067,150.484 430.707,149.91 426.338,149.412 421.961,148.99 417.576,148.645 413.187,148.377 408.794,148.185 404.397,148.07 400,148.031 395.603,148.07 391.206,148.185 386.813,148.377 382.424,148.645 378.039,148.99 373.662,149.412 369.293,149.91 364.933,150.484 360.583,151.134 356.246,151.859 351.922,152.661 347.613,153.538 343.319,154.489 339.043,155.516 334.786,156.617 330.548,157.792 326.332,159.041 322.137,160.364 317.967,161.759 313.822,163.227 309.703,164.767 305.611,166.379 301.548,168.062 297.515,169.815 293.514,171.639 289.544,173.532 285.609,175.494 281.708,177.525 277.843,179.623 274.016,181.789 270.227,184.021 266.477,186.319 262.768,188.681 259.101,191.109 255.477,193.599 251.897,196.153 248.362,198.769 244.873,201.446 241.431,204.184 238.038,206.981 234.694,209.837 231.4,212.751 228.158,215.722 224.968,218.749 221.831,221.831 218.749,224.968 215.722,228.158 212.751,231.4 209.837,234.694 206.981,238.038 204.184,241.431 201.446,244.873 198.769,248.362 196.153,251.897 193.599,255.477 191.109,259.101 188.681,262.768 186.319,266.477 184.021,270.227 181.789,274.016 179.623,277.843 177.525,281.708 175.494,285.609 173.532,289.544 171.639,293.514 169.815,297.515 168.062,301.548 166.379,305.611 164.767,309.703 163.227,313.822 161.759,317.967 160.364,322.137 159.041,326.332 157.792,330.548 156.617,334.786 155.516,339.043 154.489,343.319 153.538,347.613 152.661,351.922 151.859,356.246 151.134,360.583 150.484,364.933 149.91,369.293 149.412,373.662 148.99,378.039 148.645,382.424 148.377,386.813 148.185,391.206 148.07,395.603 148.031,400 148.07,404.397 148.185,408.794 148.377,413.187 148.645,417.576 148.99,421.961 149.412,426.338 149.91,430.707 150.484,435.067 151.134,439.417 151.859,443.754 152.661,448.078 153.538,452.387 154.489,456.681 155.516,460.957 156.617,465.214 157.792,469.452 159.041,473.668 160.364,477.863 161.759,482.033 163.227,486.178 164.767,490.297 166.379,494.389 168.062,498.452 169.815,502.485 171.639,506.486 173.532,510.456 175.494,514.391 177.525,518.292 179.623,522.157 181.789,525.984 184.021,529.773 186.319,533.523 188.681,537.232 191.109,540.899 193.599,544.523 196.153,548.103 198.769,551.638 201.446,555.127 204.184,558.569 206.981,561.962 209.837,565.306 212.751,568.6 215.722,571.842 218.749,575.032 221.831,578.169 224.968,581.251 228.158,584.278 231.4,587.249 234.694,590.163 238.038,593.019 241.431,595.816 244.873,598.554 248.362,601.231 251.897,603.847 255.477,606.401 259.101,608.891 262.768,611.319 266.477,613.681 270.227,615.979 274.016,618.211 277.843,620.377 281.708,622.475 285.609,624.506 289.544,626.468 293.514,628.361 297.515,630.185 301.548,631.938 305.611,633.621 309.703,635.233 313.822,636.773 317.967,638.241 322.137,639.636 326.332,640.959 330.548,642.208 334.786,643.383 339.043,644.484 343.319,645.511 347.613,646.462 351.922,647.339 356.246,648.141 360.583,648.866 364.933,649.516 369.293,650.09 373.662,650.588 378.039,651.01 382.424,651.355 386.813,651.623 391.206,651.815 395.603,651.93 400,651.969 404.397,651.93 408.794,651.815 413.187,651.623 417.576,651.355 421.961,651.01 426.338,650.588 430.707,650.09 435.067,649.516 439.417,648.866 443.754,648.141 448.078,647.339 452.387,646.462 456.681,645.511 460.957,644.484 465.214,643.383 469.452,642.208 473.668,640.959 477.863,639.636 482.033,638.241 486.178,636.773 490.297,635.233 494.389,633.621 498.452,631.938 502.485,630.185 506.486,628.361 510.456,626.468 514.391,624.506 518.292,622.475 522.157,620.377 525.984,618.211 529.773,615.979 533.523,613.681 537.232,611.319 540.899,608.891 544.523,606.401 548.103,603.847 551.638,601.231 555.127,598.554 558.569,595.816 561.962,593.019 565.306,590.163 568.6,587.249 571.842,584.278 575.032,581.251 578.169,578.169 581.251,575.032 584.278,571.842 587.249,568.6 590.163,565.306 593.019,561.962 595.816,558.569 598.554,555.127 601.231,551.638 603.847,548.103 606.401,544.523 608.891,540.899 611.319,537.232 613.681,533.523 615.979,529.773 618.211,525.984 620.377,522.157 622.475,518.292 624.506,514.391 626.468,510.456 628.361,506.486 630.185,502.485 631.938,498.452 633.621,494.389 635.233,490.297 636.773,486.178 638.241,482.033 639.636,477.863 640.959,473.668 642.208,469.452 643.383,465.214 644.484,460.957 645.511,456.681 646.462,452.387 647.339,448.078 648.141,443.754 648.866,439.417 649.516,435.067 650.09,430.707 650.588,426.338 651.01,421.961 651.355,417.576 651.623,413.187 651.815,408.794 651.93,404.397 651.969,400 "/>
<polyline clip-path="url(#clip352)" style="stroke:#00008b; stroke-linecap:round; stroke-linejoin:round; stroke-width:12; stroke-opacity:1; fill:none" points="400,400 166.053,493.579 "/>
<polyline clip-path="url(#clip352)" style="stroke:#00008b; stroke-linecap:round; stroke-linejoin:round; stroke-width:12; stroke-opacity:1; fill:none" points="206.163,496.921 166.053,493.579 192.793,463.496 "/>
<polyline clip-path="url(#clip352)" style="stroke:#00008b; stroke-linecap:round; stroke-linejoin:round; stroke-width:12; stroke-opacity:1; fill:none" points="166.053,493.579 400,400 "/>
<polyline clip-path="url(#clip352)" style="stroke:#ff0000; stroke-linecap:round; stroke-linejoin:round; stroke-width:12; stroke-opacity:1; fill:none" points="400,400 516.973,72.4744 "/>
<polyline clip-path="url(#clip352)" style="stroke:#ff0000; stroke-linecap:round; stroke-linejoin:round; stroke-width:12; stroke-opacity:1; fill:none" points="487.914,100.323 516.973,72.4744 521.817,112.431 "/>
<polyline clip-path="url(#clip352)" style="stroke:#ff0000; stroke-linecap:round; stroke-linejoin:round; stroke-width:12; stroke-opacity:1; fill:none" points="516.973,72.4744 400,400 "/>
<path clip-path="url(#clip350)" d="M330.254 515.636 L321.031 515.39 L310.948 515.636 L310.948 511.701 L314.227 511.701 L305.004 500.798 L296.847 509.939 L296.274 510.758 Q296.274 511.127 297.216 511.414 Q298.2 511.701 299.348 511.701 L299.348 515.636 L290.699 515.39 L282.993 515.636 L282.993 511.701 Q285.575 511.701 286.764 511.66 Q287.994 511.578 289.387 511.209 Q290.781 510.84 291.478 510.103 L302.463 497.765 L289.387 482.312 L283.403 482.312 L283.403 478.377 L292.666 478.623 L302.791 478.377 L302.791 482.312 L299.43 482.312 L307.669 491.944 L314.719 484.074 Q314.76 484.033 315.416 483.05 Q314.104 482.312 312.218 482.312 L312.218 478.377 L320.867 478.623 L328.573 478.377 L328.573 482.312 Q325.212 482.312 323.449 482.558 Q321.728 482.763 321.195 483.05 Q320.703 483.337 320.006 484.074 L310.21 494.978 L324.31 511.701 L330.254 511.701 L330.254 515.636 Z" fill="#000000" fill-rule="nonzero" fill-opacity="1" /><path clip-path="url(#clip350)" d="M546.961 290.457 Q544.009 290.212 533.27 290.212 Q521.67 290.212 518.473 290.457 L518.473 286.522 L526.466 286.522 L521.424 274.267 L498.921 274.267 L494.74 284.432 L494.412 285.416 Q494.412 285.908 496.257 286.195 Q498.142 286.441 499.987 286.482 L501.872 286.522 L501.872 290.457 Q498.757 290.212 490.805 290.212 L480.968 290.457 L480.968 286.522 L482.73 286.522 Q485.805 286.522 487.321 286.277 Q488.838 286.031 489.207 285.703 Q489.576 285.375 489.862 284.596 L510.685 234.056 Q511.177 232.786 511.751 232.335 Q512.325 231.843 513.964 231.843 Q514.866 231.843 515.317 231.925 Q515.768 232.007 516.301 232.54 Q516.874 233.031 517.325 234.056 L538.804 286.522 L546.961 286.522 L546.961 290.457 M519.744 270.291 L510.193 246.968 L500.602 270.291 L519.744 270.291 Z" fill="#000000" fill-rule="nonzero" fill-opacity="1" /><path clip-path="url(#clip350)" d="M599.105 290.457 L589.882 290.212 L579.799 290.457 L579.799 286.522 L583.078 286.522 L573.855 275.619 L565.698 284.76 L565.125 285.58 Q565.125 285.949 566.067 286.236 Q567.051 286.522 568.199 286.522 L568.199 290.457 L559.55 290.212 L551.844 290.457 L551.844 286.522 Q554.426 286.522 555.615 286.482 Q556.845 286.4 558.238 286.031 Q559.632 285.662 560.329 284.924 L571.314 272.586 L558.238 257.133 L552.254 257.133 L552.254 253.198 L561.518 253.444 L571.642 253.198 L571.642 257.133 L568.281 257.133 L576.52 266.766 L583.57 258.896 Q583.611 258.855 584.267 257.871 Q582.955 257.133 581.069 257.133 L581.069 253.198 L589.718 253.444 L597.424 253.198 L597.424 257.133 Q594.063 257.133 592.3 257.379 Q590.579 257.584 590.046 257.871 Q589.554 258.158 588.857 258.896 L579.061 269.799 L593.161 286.522 L599.105 286.522 L599.105 290.457 Z" fill="#000000" fill-rule="nonzero" fill-opacity="1" /><path clip-path="url(#clip350)" d="M948.031 752.756 L1451.97 752.756 L1451.97 47.2441 L948.031 47.2441  Z" fill="#ffffff" fill-rule="evenodd" fill-opacity="1"/>
<defs>
  <clipPath id="clip353">
    <rect x="948" y="47" width="505" height="707"/>
  </clipPath>
</defs>
<polyline clip-path="url(#clip350)" style="stroke:#000000; stroke-linecap:round; stroke-linejoin:round; stroke-width:4; stroke-opacity:1; fill:none" points="948.031,400 1451.97,400 "/>
<polyline clip-path="url(#clip350)" style="stroke:#000000; stroke-linecap:round; stroke-linejoin:round; stroke-width:4; stroke-opacity:1; fill:none" points="1200,752.756 1200,47.2441 "/>
<polyline clip-path="url(#clip353)" style="stroke:#000000; stroke-linecap:round; stroke-linejoin:round; stroke-width:4; stroke-opacity:0.5; fill:none" points="1451.97,400 1451.93,395.603 1451.82,391.206 1451.62,386.813 1451.35,382.424 1451.01,378.039 1450.59,373.662 1450.09,369.293 1449.52,364.933 1448.87,360.583 1448.14,356.246 1447.34,351.922 1446.46,347.613 1445.51,343.319 1444.48,339.043 1443.38,334.786 1442.21,330.548 1440.96,326.332 1439.64,322.137 1438.24,317.967 1436.77,313.822 1435.23,309.703 1433.62,305.611 1431.94,301.548 1430.18,297.515 1428.36,293.514 1426.47,289.544 1424.51,285.609 1422.47,281.708 1420.38,277.843 1418.21,274.016 1415.98,270.227 1413.68,266.477 1411.32,262.768 1408.89,259.101 1406.4,255.477 1403.85,251.897 1401.23,248.362 1398.55,244.873 1395.82,241.431 1393.02,238.038 1390.16,234.694 1387.25,231.4 1384.28,228.158 1381.25,224.968 1378.17,221.831 1375.03,218.749 1371.84,215.722 1368.6,212.751 1365.31,209.837 1361.96,206.981 1358.57,204.184 1355.13,201.446 1351.64,198.769 1348.1,196.153 1344.52,193.599 1340.9,191.109 1337.23,188.681 1333.52,186.319 1329.77,184.021 1325.98,181.789 1322.16,179.623 1318.29,177.525 1314.39,175.494 1310.46,173.532 1306.49,171.639 1302.48,169.815 1298.45,168.062 1294.39,166.379 1290.3,164.767 1286.18,163.227 1282.03,161.759 1277.86,160.364 1273.67,159.041 1269.45,157.792 1265.21,156.617 1260.96,155.516 1256.68,154.489 1252.39,153.538 1248.08,152.661 1243.75,151.859 1239.42,151.134 1235.07,150.484 1230.71,149.91 1226.34,149.412 1221.96,148.99 1217.58,148.645 1213.19,148.377 1208.79,148.185 1204.4,148.07 1200,148.031 1195.6,148.07 1191.21,148.185 1186.81,148.377 1182.42,148.645 1178.04,148.99 1173.66,149.412 1169.29,149.91 1164.93,150.484 1160.58,151.134 1156.25,151.859 1151.92,152.661 1147.61,153.538 1143.32,154.489 1139.04,155.516 1134.79,156.617 1130.55,157.792 1126.33,159.041 1122.14,160.364 1117.97,161.759 1113.82,163.227 1109.7,164.767 1105.61,166.379 1101.55,168.062 1097.52,169.815 1093.51,171.639 1089.54,173.532 1085.61,175.494 1081.71,177.525 1077.84,179.623 1074.02,181.789 1070.23,184.021 1066.48,186.319 1062.77,188.681 1059.1,191.109 1055.48,193.599 1051.9,196.153 1048.36,198.769 1044.87,201.446 1041.43,204.184 1038.04,206.981 1034.69,209.837 1031.4,212.751 1028.16,215.722 1024.97,218.749 1021.83,221.831 1018.75,224.968 1015.72,228.158 1012.75,231.4 1009.84,234.694 1006.98,238.038 1004.18,241.431 1001.45,244.873 998.769,248.362 996.153,251.897 993.599,255.477 991.109,259.101 988.681,262.768 986.319,266.477 984.021,270.227 981.789,274.016 979.623,277.843 977.525,281.708 975.494,285.609 973.532,289.544 971.639,293.514 969.815,297.515 968.062,301.548 966.379,305.611 964.767,309.703 963.227,313.822 961.759,317.967 960.364,322.137 959.041,326.332 957.792,330.548 956.617,334.786 955.516,339.043 954.489,343.319 953.538,347.613 952.661,351.922 951.859,356.246 951.134,360.583 950.484,364.933 949.91,369.293 949.412,373.662 948.99,378.039 948.645,382.424 948.377,386.813 948.185,391.206 948.07,395.603 948.031,400 948.07,404.397 948.185,408.794 948.377,413.187 948.645,417.576 948.99,421.961 949.412,426.338 949.91,430.707 950.484,435.067 951.134,439.417 951.859,443.754 952.661,448.078 953.538,452.387 954.489,456.681 955.516,460.957 956.617,465.214 957.792,469.452 959.041,473.668 960.364,477.863 961.759,482.033 963.227,486.178 964.767,490.297 966.379,494.389 968.062,498.452 969.815,502.485 971.639,506.486 973.532,510.456 975.494,514.391 977.525,518.292 979.623,522.157 981.789,525.984 984.021,529.773 986.319,533.523 988.681,537.232 991.109,540.899 993.599,544.523 996.153,548.103 998.769,551.638 1001.45,555.127 1004.18,558.569 1006.98,561.962 1009.84,565.306 1012.75,568.6 1015.72,571.842 1018.75,575.032 1021.83,578.169 1024.97,581.251 1028.16,584.278 1031.4,587.249 1034.69,590.163 1038.04,593.019 1041.43,595.816 1044.87,598.554 1048.36,601.231 1051.9,603.847 1055.48,606.401 1059.1,608.891 1062.77,611.319 1066.48,613.681 1070.23,615.979 1074.02,618.211 1077.84,620.377 1081.71,622.475 1085.61,624.506 1089.54,626.468 1093.51,628.361 1097.52,630.185 1101.55,631.938 1105.61,633.621 1109.7,635.233 1113.82,636.773 1117.97,638.241 1122.14,639.636 1126.33,640.959 1130.55,642.208 1134.79,643.383 1139.04,644.484 1143.32,645.511 1147.61,646.462 1151.92,647.339 1156.25,648.141 1160.58,648.866 1164.93,649.516 1169.29,650.09 1173.66,650.588 1178.04,651.01 1182.42,651.355 1186.81,651.623 1191.21,651.815 1195.6,651.93 1200,651.969 1204.4,651.93 1208.79,651.815 1213.19,651.623 1217.58,651.355 1221.96,651.01 1226.34,650.588 1230.71,650.09 1235.07,649.516 1239.42,648.866 1243.75,648.141 1248.08,647.339 1252.39,646.462 1256.68,645.511 1260.96,644.484 1265.21,643.383 1269.45,642.208 1273.67,640.959 1277.86,639.636 1282.03,638.241 1286.18,636.773 1290.3,635.233 1294.39,633.621 1298.45,631.938 1302.48,630.185 1306.49,628.361 1310.46,626.468 1314.39,624.506 1318.29,622.475 1322.16,620.377 1325.98,618.211 1329.77,615.979 1333.52,613.681 1337.23,611.319 1340.9,608.891 1344.52,606.401 1348.1,603.847 1351.64,601.231 1355.13,598.554 1358.57,595.816 1361.96,593.019 1365.31,590.163 1368.6,587.249 1371.84,584.278 1375.03,581.251 1378.17,578.169 1381.25,575.032 1384.28,571.842 1387.25,568.6 1390.16,565.306 1393.02,561.962 1395.82,558.569 1398.55,555.127 1401.23,551.638 1403.85,548.103 1406.4,544.523 1408.89,540.899 1411.32,537.232 1413.68,533.523 1415.98,529.773 1418.21,525.984 1420.38,522.157 1422.47,518.292 1424.51,514.391 1426.47,510.456 1428.36,506.486 1430.18,502.485 1431.94,498.452 1433.62,494.389 1435.23,490.297 1436.77,486.178 1438.24,482.033 1439.64,477.863 1440.96,473.668 1442.21,469.452 1443.38,465.214 1444.48,460.957 1445.51,456.681 1446.46,452.387 1447.34,448.078 1448.14,443.754 1448.87,439.417 1449.52,435.067 1450.09,430.707 1450.59,426.338 1451.01,421.961 1451.35,417.576 1451.62,413.187 1451.82,408.794 1451.93,404.397 1451.97,400 "/>
<polyline clip-path="url(#clip353)" style="stroke:#ff0000; stroke-linecap:round; stroke-linejoin:round; stroke-width:12; stroke-opacity:1; fill:none" points="1200,400 1030.97,61.9488 "/>
<polyline clip-path="url(#clip353)" style="stroke:#ff0000; stroke-linecap:round; stroke-linejoin:round; stroke-width:12; stroke-opacity:1; fill:none" points="1030.97,102.198 1030.97,61.9488 1063.17,86.0983 "/>
<polyline clip-path="url(#clip353)" style="stroke:#ff0000; stroke-linecap:round; stroke-linejoin:round; stroke-width:12; stroke-opacity:1; fill:none" points="1030.97,61.9488 1200,400 "/>
<polyline clip-path="url(#clip353)" style="stroke:#00008b; stroke-linecap:round; stroke-linejoin:round; stroke-width:12; stroke-opacity:1; fill:none" points="1200,400 1087.32,174.633 "/>
<polyline clip-path="url(#clip353)" style="stroke:#00008b; stroke-linecap:round; stroke-linejoin:round; stroke-width:12; stroke-opacity:1; fill:none" points="1087.32,214.882 1087.32,174.633 1119.52,198.782 "/>
<polyline clip-path="url(#clip353)" style="stroke:#00008b; stroke-linecap:round; stroke-linejoin:round; stroke-width:12; stroke-opacity:1; fill:none" points="1087.32,174.633 1200,400 "/>
<path clip-path="url(#clip350)" d="M1748.03 752.756 L2251.97 752.756 L2251.97 47.2441 L1748.03 47.2441  Z" fill="#ffffff" fill-rule="evenodd" fill-opacity="1"/>
<defs>
  <clipPath id="clip354">
    <rect x="1748" y="47" width="505" height="707"/>
  </clipPath>
</defs>
<polyline clip-path="url(#clip350)" style="stroke:#000000; stroke-linecap:round; stroke-linejoin:round; stroke-width:4; stroke-opacity:1; fill:none" points="1748.03,400 2251.97,400 "/>
<polyline clip-path="url(#clip350)" style="stroke:#000000; stroke-linecap:round; stroke-linejoin:round; stroke-width:4; stroke-opacity:1; fill:none" points="2000,752.756 2000,47.2441 "/>
<polyline clip-path="url(#clip354)" style="stroke:#000000; stroke-linecap:round; stroke-linejoin:round; stroke-width:4; stroke-opacity:0.5; fill:none" points="2251.97,400 2251.93,395.603 2251.82,391.206 2251.62,386.813 2251.35,382.424 2251.01,378.039 2250.59,373.662 2250.09,369.293 2249.52,364.933 2248.87,360.583 2248.14,356.246 2247.34,351.922 2246.46,347.613 2245.51,343.319 2244.48,339.043 2243.38,334.786 2242.21,330.548 2240.96,326.332 2239.64,322.137 2238.24,317.967 2236.77,313.822 2235.23,309.703 2233.62,305.611 2231.94,301.548 2230.18,297.515 2228.36,293.514 2226.47,289.544 2224.51,285.609 2222.47,281.708 2220.38,277.843 2218.21,274.016 2215.98,270.227 2213.68,266.477 2211.32,262.768 2208.89,259.101 2206.4,255.477 2203.85,251.897 2201.23,248.362 2198.55,244.873 2195.82,241.431 2193.02,238.038 2190.16,234.694 2187.25,231.4 2184.28,228.158 2181.25,224.968 2178.17,221.831 2175.03,218.749 2171.84,215.722 2168.6,212.751 2165.31,209.837 2161.96,206.981 2158.57,204.184 2155.13,201.446 2151.64,198.769 2148.1,196.153 2144.52,193.599 2140.9,191.109 2137.23,188.681 2133.52,186.319 2129.77,184.021 2125.98,181.789 2122.16,179.623 2118.29,177.525 2114.39,175.494 2110.46,173.532 2106.49,171.639 2102.48,169.815 2098.45,168.062 2094.39,166.379 2090.3,164.767 2086.18,163.227 2082.03,161.759 2077.86,160.364 2073.67,159.041 2069.45,157.792 2065.21,156.617 2060.96,155.516 2056.68,154.489 2052.39,153.538 2048.08,152.661 2043.75,151.859 2039.42,151.134 2035.07,150.484 2030.71,149.91 2026.34,149.412 2021.96,148.99 2017.58,148.645 2013.19,148.377 2008.79,148.185 2004.4,148.07 2000,148.031 1995.6,148.07 1991.21,148.185 1986.81,148.377 1982.42,148.645 1978.04,148.99 1973.66,149.412 1969.29,149.91 1964.93,150.484 1960.58,151.134 1956.25,151.859 1951.92,152.661 1947.61,153.538 1943.32,154.489 1939.04,155.516 1934.79,156.617 1930.55,157.792 1926.33,159.041 1922.14,160.364 1917.97,161.759 1913.82,163.227 1909.7,164.767 1905.61,166.379 1901.55,168.062 1897.52,169.815 1893.51,171.639 1889.54,173.532 1885.61,175.494 1881.71,177.525 1877.84,179.623 1874.02,181.789 1870.23,184.021 1866.48,186.319 1862.77,188.681 1859.1,191.109 1855.48,193.599 1851.9,196.153 1848.36,198.769 1844.87,201.446 1841.43,204.184 1838.04,206.981 1834.69,209.837 1831.4,212.751 1828.16,215.722 1824.97,218.749 1821.83,221.831 1818.75,224.968 1815.72,228.158 1812.75,231.4 1809.84,234.694 1806.98,238.038 1804.18,241.431 1801.45,244.873 1798.77,248.362 1796.15,251.897 1793.6,255.477 1791.11,259.101 1788.68,262.768 1786.32,266.477 1784.02,270.227 1781.79,274.016 1779.62,277.843 1777.53,281.708 1775.49,285.609 1773.53,289.544 1771.64,293.514 1769.82,297.515 1768.06,301.548 1766.38,305.611 1764.77,309.703 1763.23,313.822 1761.76,317.967 1760.36,322.137 1759.04,326.332 1757.79,330.548 1756.62,334.786 1755.52,339.043 1754.49,343.319 1753.54,347.613 1752.66,351.922 1751.86,356.246 1751.13,360.583 1750.48,364.933 1749.91,369.293 1749.41,373.662 1748.99,378.039 1748.65,382.424 1748.38,386.813 1748.18,391.206 1748.07,395.603 1748.03,400 1748.07,404.397 1748.18,408.794 1748.38,413.187 1748.65,417.576 1748.99,421.961 1749.41,426.338 1749.91,430.707 1750.48,435.067 1751.13,439.417 1751.86,443.754 1752.66,448.078 1753.54,452.387 1754.49,456.681 1755.52,460.957 1756.62,465.214 1757.79,469.452 1759.04,473.668 1760.36,477.863 1761.76,482.033 1763.23,486.178 1764.77,490.297 1766.38,494.389 1768.06,498.452 1769.82,502.485 1771.64,506.486 1773.53,510.456 1775.49,514.391 1777.53,518.292 1779.62,522.157 1781.79,525.984 1784.02,529.773 1786.32,533.523 1788.68,537.232 1791.11,540.899 1793.6,544.523 1796.15,548.103 1798.77,551.638 1801.45,555.127 1804.18,558.569 1806.98,561.962 1809.84,565.306 1812.75,568.6 1815.72,571.842 1818.75,575.032 1821.83,578.169 1824.97,581.251 1828.16,584.278 1831.4,587.249 1834.69,590.163 1838.04,593.019 1841.43,595.816 1844.87,598.554 1848.36,601.231 1851.9,603.847 1855.48,606.401 1859.1,608.891 1862.77,611.319 1866.48,613.681 1870.23,615.979 1874.02,618.211 1877.84,620.377 1881.71,622.475 1885.61,624.506 1889.54,626.468 1893.51,628.361 1897.52,630.185 1901.55,631.938 1905.61,633.621 1909.7,635.233 1913.82,636.773 1917.97,638.241 1922.14,639.636 1926.33,640.959 1930.55,642.208 1934.79,643.383 1939.04,644.484 1943.32,645.511 1947.61,646.462 1951.92,647.339 1956.25,648.141 1960.58,648.866 1964.93,649.516 1969.29,650.09 1973.66,650.588 1978.04,651.01 1982.42,651.355 1986.81,651.623 1991.21,651.815 1995.6,651.93 2000,651.969 2004.4,651.93 2008.79,651.815 2013.19,651.623 2017.58,651.355 2021.96,651.01 2026.34,650.588 2030.71,650.09 2035.07,649.516 2039.42,648.866 2043.75,648.141 2048.08,647.339 2052.39,646.462 2056.68,645.511 2060.96,644.484 2065.21,643.383 2069.45,642.208 2073.67,640.959 2077.86,639.636 2082.03,638.241 2086.18,636.773 2090.3,635.233 2094.39,633.621 2098.45,631.938 2102.48,630.185 2106.49,628.361 2110.46,626.468 2114.39,624.506 2118.29,622.475 2122.16,620.377 2125.98,618.211 2129.77,615.979 2133.52,613.681 2137.23,611.319 2140.9,608.891 2144.52,606.401 2148.1,603.847 2151.64,601.231 2155.13,598.554 2158.57,595.816 2161.96,593.019 2165.31,590.163 2168.6,587.249 2171.84,584.278 2175.03,581.251 2178.17,578.169 2181.25,575.032 2184.28,571.842 2187.25,568.6 2190.16,565.306 2193.02,561.962 2195.82,558.569 2198.55,555.127 2201.23,551.638 2203.85,548.103 2206.4,544.523 2208.89,540.899 2211.32,537.232 2213.68,533.523 2215.98,529.773 2218.21,525.984 2220.38,522.157 2222.47,518.292 2224.51,514.391 2226.47,510.456 2228.36,506.486 2230.18,502.485 2231.94,498.452 2233.62,494.389 2235.23,490.297 2236.77,486.178 2238.24,482.033 2239.64,477.863 2240.96,473.668 2242.21,469.452 2243.38,465.214 2244.48,460.957 2245.51,456.681 2246.46,452.387 2247.34,448.078 2248.14,443.754 2248.87,439.417 2249.52,435.067 2250.09,430.707 2250.59,426.338 2251.01,421.961 2251.35,417.576 2251.62,413.187 2251.82,408.794 2251.93,404.397 2251.97,400 "/>
<polyline clip-path="url(#clip354)" style="stroke:#ff0000; stroke-linecap:round; stroke-linejoin:round; stroke-width:12; stroke-opacity:1; fill:none" points="2000,400 1821.83,578.169 "/>
<polyline clip-path="url(#clip354)" style="stroke:#ff0000; stroke-linecap:round; stroke-linejoin:round; stroke-width:12; stroke-opacity:1; fill:none" points="1860.02,565.441 1821.83,578.169 1834.56,539.985 "/>
<polyline clip-path="url(#clip354)" style="stroke:#ff0000; stroke-linecap:round; stroke-linejoin:round; stroke-width:12; stroke-opacity:1; fill:none" points="1821.83,578.169 2000,400 "/>
<polyline clip-path="url(#clip354)" style="stroke:#00008b; stroke-linecap:round; stroke-linejoin:round; stroke-width:12; stroke-opacity:1; fill:none" points="2000,400 2178.17,221.831 "/>
<polyline clip-path="url(#clip354)" style="stroke:#00008b; stroke-linecap:round; stroke-linejoin:round; stroke-width:12; stroke-opacity:1; fill:none" points="2139.98,234.559 2178.17,221.831 2165.44,260.015 "/>
<polyline clip-path="url(#clip354)" style="stroke:#00008b; stroke-linecap:round; stroke-linejoin:round; stroke-width:12; stroke-opacity:1; fill:none" points="2178.17,221.831 2000,400 "/>
</svg>
