<?xml version="1.0" encoding="utf-8"?>
<svg xmlns="http://www.w3.org/2000/svg" xmlns:xlink="http://www.w3.org/1999/xlink" width="600" height="400" viewBox="0 0 2400 1600">
<defs>
  <clipPath id="clip900">
    <rect x="0" y="0" width="2400" height="1600"/>
  </clipPath>
</defs>
<path clip-path="url(#clip900)" d="
M0 1600 L2400 1600 L2400 0 L0 0  Z
  " fill="#ffffff" fill-rule="evenodd" fill-opacity="1"/>
<defs>
  <clipPath id="clip901">
    <rect x="480" y="0" width="1681" height="1600"/>
  </clipPath>
</defs>
<defs>
  <clipPath id="clip902">
    <rect x="210" y="123" width="2143" height="1301"/>
  </clipPath>
</defs>
<path clip-path="url(#clip902)" d="
M210.746 1346.4 L210.746 353.805 L994.776 123.472 L2352.76 200.25 L2352.76 1192.85 L1568.73 1423.18 L210.746 1346.4  Z
  " fill="#ffffff" fill-rule="evenodd" fill-opacity="1"/>
<polyline clip-path="url(#clip902)" style="stroke:#000000; stroke-linecap:butt; stroke-linejoin:round; stroke-width:2; stroke-opacity:0.1; fill:none" points="
  210.746,1346.4 994.776,1116.07 
  "/>
<polyline clip-path="url(#clip902)" style="stroke:#000000; stroke-linecap:butt; stroke-linejoin:round; stroke-width:2; stroke-opacity:0.1; fill:none" points="
  994.776,1116.07 994.776,123.472 
  "/>
<polyline clip-path="url(#clip902)" style="stroke:#000000; stroke-linecap:butt; stroke-linejoin:round; stroke-width:2; stroke-opacity:0.1; fill:none" points="
  663.406,1371.99 1447.44,1141.66 
  "/>
<polyline clip-path="url(#clip902)" style="stroke:#000000; stroke-linecap:butt; stroke-linejoin:round; stroke-width:2; stroke-opacity:0.1; fill:none" points="
  1447.44,1141.66 1447.44,149.065 
  "/>
<polyline clip-path="url(#clip902)" style="stroke:#000000; stroke-linecap:butt; stroke-linejoin:round; stroke-width:2; stroke-opacity:0.1; fill:none" points="
  1116.07,1397.59 1900.1,1167.25 
  "/>
<polyline clip-path="url(#clip902)" style="stroke:#000000; stroke-linecap:butt; stroke-linejoin:round; stroke-width:2; stroke-opacity:0.1; fill:none" points="
  1900.1,1167.25 1900.1,174.657 
  "/>
<polyline clip-path="url(#clip902)" style="stroke:#000000; stroke-linecap:butt; stroke-linejoin:round; stroke-width:2; stroke-opacity:0.1; fill:none" points="
  1568.73,1423.18 2352.76,1192.85 
  "/>
<polyline clip-path="url(#clip902)" style="stroke:#000000; stroke-linecap:butt; stroke-linejoin:round; stroke-width:2; stroke-opacity:0.1; fill:none" points="
  2352.76,1192.85 2352.76,200.25 
  "/>
<polyline clip-path="url(#clip900)" style="stroke:#000000; stroke-linecap:butt; stroke-linejoin:round; stroke-width:4; stroke-opacity:1; fill:none" points="
  210.746,1346.4 1568.73,1423.18 
  "/>
<polyline clip-path="url(#clip900)" style="stroke:#000000; stroke-linecap:butt; stroke-linejoin:round; stroke-width:4; stroke-opacity:1; fill:none" points="
  210.746,1346.4 220.154,1343.64 
  "/>
<polyline clip-path="url(#clip900)" style="stroke:#000000; stroke-linecap:butt; stroke-linejoin:round; stroke-width:4; stroke-opacity:1; fill:none" points="
  663.406,1371.99 672.814,1369.23 
  "/>
<polyline clip-path="url(#clip900)" style="stroke:#000000; stroke-linecap:butt; stroke-linejoin:round; stroke-width:4; stroke-opacity:1; fill:none" points="
  1116.07,1397.59 1125.47,1394.82 
  "/>
<polyline clip-path="url(#clip900)" style="stroke:#000000; stroke-linecap:butt; stroke-linejoin:round; stroke-width:4; stroke-opacity:1; fill:none" points="
  1568.73,1423.18 1578.13,1420.42 
  "/>
<path clip-path="url(#clip900)" d="M186.746 1380.39 Q183.135 1380.39 181.306 1383.96 Q179.501 1387.5 179.501 1394.63 Q179.501 1401.74 181.306 1405.3 Q183.135 1408.84 186.746 1408.84 Q190.38 1408.84 192.186 1405.3 Q194.014 1401.74 194.014 1394.63 Q194.014 1387.5 192.186 1383.96 Q190.38 1380.39 186.746 1380.39 M186.746 1376.69 Q192.556 1376.69 195.612 1381.3 Q198.69 1385.88 198.69 1394.63 Q198.69 1403.36 195.612 1407.96 Q192.556 1412.55 186.746 1412.55 Q180.936 1412.55 177.857 1407.96 Q174.802 1403.36 174.802 1394.63 Q174.802 1385.88 177.857 1381.3 Q180.936 1376.69 186.746 1376.69 Z" fill="#000000" fill-rule="evenodd" fill-opacity="1" /><path clip-path="url(#clip900)" d="M614.094 1433.53 L621.732 1433.53 L621.732 1407.17 L613.422 1408.83 L613.422 1404.57 L621.686 1402.91 L626.362 1402.91 L626.362 1433.53 L634.001 1433.53 L634.001 1437.47 L614.094 1437.47 L614.094 1433.53 Z" fill="#000000" fill-rule="evenodd" fill-opacity="1" /><path clip-path="url(#clip900)" d="M653.445 1405.99 Q649.834 1405.99 648.005 1409.55 Q646.2 1413.09 646.2 1420.22 Q646.2 1427.33 648.005 1430.89 Q649.834 1434.43 653.445 1434.43 Q657.079 1434.43 658.885 1430.89 Q660.714 1427.33 660.714 1420.22 Q660.714 1413.09 658.885 1409.55 Q657.079 1405.99 653.445 1405.99 M653.445 1402.28 Q659.255 1402.28 662.311 1406.89 Q665.39 1411.47 665.39 1420.22 Q665.39 1428.95 662.311 1433.55 Q659.255 1438.14 653.445 1438.14 Q647.635 1438.14 644.556 1433.55 Q641.501 1428.95 641.501 1420.22 Q641.501 1411.47 644.556 1406.89 Q647.635 1402.28 653.445 1402.28 Z" fill="#000000" fill-rule="evenodd" fill-opacity="1" /><path clip-path="url(#clip900)" d="M1070.84 1459.12 L1087.16 1459.12 L1087.16 1463.06 L1065.21 1463.06 L1065.21 1459.12 Q1067.88 1456.37 1072.46 1451.74 Q1077.07 1447.09 1078.25 1445.74 Q1080.49 1443.22 1081.37 1441.49 Q1082.27 1439.73 1082.27 1438.04 Q1082.27 1435.28 1080.33 1433.55 Q1078.41 1431.81 1075.31 1431.81 Q1073.11 1431.81 1070.65 1432.57 Q1068.22 1433.34 1065.45 1434.89 L1065.45 1430.17 Q1068.27 1429.03 1070.72 1428.45 Q1073.18 1427.87 1075.21 1427.87 Q1080.58 1427.87 1083.78 1430.56 Q1086.97 1433.24 1086.97 1437.74 Q1086.97 1439.86 1086.16 1441.79 Q1085.38 1443.68 1083.27 1446.28 Q1082.69 1446.95 1079.59 1450.17 Q1076.49 1453.36 1070.84 1459.12 Z" fill="#000000" fill-rule="evenodd" fill-opacity="1" /><path clip-path="url(#clip900)" d="M1106.97 1431.58 Q1103.36 1431.58 1101.53 1435.14 Q1099.73 1438.68 1099.73 1445.81 Q1099.73 1452.92 1101.53 1456.49 Q1103.36 1460.03 1106.97 1460.03 Q1110.61 1460.03 1112.41 1456.49 Q1114.24 1452.92 1114.24 1445.81 Q1114.24 1438.68 1112.41 1435.14 Q1110.61 1431.58 1106.97 1431.58 M1106.97 1427.87 Q1112.78 1427.87 1115.84 1432.48 Q1118.92 1437.06 1118.92 1445.81 Q1118.92 1454.54 1115.84 1459.15 Q1112.78 1463.73 1106.97 1463.73 Q1101.16 1463.73 1098.08 1459.15 Q1095.03 1454.54 1095.03 1445.81 Q1095.03 1437.06 1098.08 1432.48 Q1101.16 1427.87 1106.97 1427.87 Z" fill="#000000" fill-rule="evenodd" fill-opacity="1" /><path clip-path="url(#clip900)" d="M1533.57 1470.02 Q1536.92 1470.74 1538.8 1473 Q1540.7 1475.27 1540.7 1478.61 Q1540.7 1483.72 1537.18 1486.52 Q1533.66 1489.32 1527.18 1489.32 Q1525 1489.32 1522.69 1488.88 Q1520.4 1488.47 1517.94 1487.61 L1517.94 1483.1 Q1519.89 1484.23 1522.2 1484.81 Q1524.52 1485.39 1527.04 1485.39 Q1531.44 1485.39 1533.73 1483.65 Q1536.05 1481.92 1536.05 1478.61 Q1536.05 1475.55 1533.89 1473.84 Q1531.76 1472.1 1527.94 1472.1 L1523.92 1472.1 L1523.92 1468.26 L1528.13 1468.26 Q1531.58 1468.26 1533.41 1466.89 Q1535.24 1465.5 1535.24 1462.91 Q1535.24 1460.25 1533.34 1458.84 Q1531.46 1457.4 1527.94 1457.4 Q1526.02 1457.4 1523.82 1457.82 Q1521.62 1458.24 1518.99 1459.11 L1518.99 1454.95 Q1521.65 1454.21 1523.96 1453.84 Q1526.3 1453.47 1528.36 1453.47 Q1533.68 1453.47 1536.79 1455.9 Q1539.89 1458.3 1539.89 1462.43 Q1539.89 1465.3 1538.24 1467.29 Q1536.6 1469.25 1533.57 1470.02 Z" fill="#000000" fill-rule="evenodd" fill-opacity="1" /><path clip-path="url(#clip900)" d="M1559.56 1457.17 Q1555.95 1457.17 1554.12 1460.74 Q1552.32 1464.28 1552.32 1471.41 Q1552.32 1478.51 1554.12 1482.08 Q1555.95 1485.62 1559.56 1485.62 Q1563.2 1485.62 1565 1482.08 Q1566.83 1478.51 1566.83 1471.41 Q1566.83 1464.28 1565 1460.74 Q1563.2 1457.17 1559.56 1457.17 M1559.56 1453.47 Q1565.37 1453.47 1568.43 1458.07 Q1571.51 1462.66 1571.51 1471.41 Q1571.51 1480.13 1568.43 1484.74 Q1565.37 1489.32 1559.56 1489.32 Q1553.75 1489.32 1550.67 1484.74 Q1547.62 1480.13 1547.62 1471.41 Q1547.62 1462.66 1550.67 1458.07 Q1553.75 1453.47 1559.56 1453.47 Z" fill="#000000" fill-rule="evenodd" fill-opacity="1" /><path clip-path="url(#clip900)" d="M688.493 1517.42 L728.692 1517.42 L728.692 1522.83 L711.823 1522.83 L711.823 1564.94 L705.362 1564.94 L705.362 1522.83 L688.493 1522.83 L688.493 1517.42 Z" fill="#000000" fill-rule="evenodd" fill-opacity="1" /><path clip-path="url(#clip900)" d="M732.639 1529.29 L738.495 1529.29 L738.495 1564.94 L732.639 1564.94 L732.639 1529.29 M732.639 1515.41 L738.495 1515.41 L738.495 1522.83 L732.639 1522.83 L732.639 1515.41 Z" fill="#000000" fill-rule="evenodd" fill-opacity="1" /><path clip-path="url(#clip900)" d="M778.504 1536.13 Q780.7 1532.18 783.756 1530.31 Q786.811 1528.43 790.949 1528.43 Q796.519 1528.43 799.543 1532.34 Q802.566 1536.23 802.566 1543.42 L802.566 1564.94 L796.678 1564.94 L796.678 1543.61 Q796.678 1538.49 794.864 1536 Q793.049 1533.52 789.326 1533.52 Q784.774 1533.52 782.132 1536.54 Q779.491 1539.57 779.491 1544.79 L779.491 1564.94 L773.602 1564.94 L773.602 1543.61 Q773.602 1538.45 771.788 1536 Q769.974 1533.52 766.186 1533.52 Q761.698 1533.52 759.057 1536.58 Q756.415 1539.6 756.415 1544.79 L756.415 1564.94 L750.527 1564.94 L750.527 1529.29 L756.415 1529.29 L756.415 1534.83 Q758.42 1531.55 761.221 1529.99 Q764.022 1528.43 767.873 1528.43 Q771.756 1528.43 774.462 1530.4 Q777.199 1532.37 778.504 1536.13 Z" fill="#000000" fill-rule="evenodd" fill-opacity="1" /><path clip-path="url(#clip900)" d="M844.739 1545.65 L844.739 1548.51 L817.812 1548.51 Q818.194 1554.56 821.441 1557.74 Q824.719 1560.89 830.544 1560.89 Q833.917 1560.89 837.068 1560.07 Q840.251 1559.24 843.37 1557.58 L843.37 1563.12 Q840.219 1564.46 836.909 1565.16 Q833.599 1565.86 830.193 1565.86 Q821.663 1565.86 816.666 1560.89 Q811.701 1555.93 811.701 1547.46 Q811.701 1538.71 816.412 1533.58 Q821.154 1528.43 829.175 1528.43 Q836.368 1528.43 840.538 1533.07 Q844.739 1537.69 844.739 1545.65 M838.883 1543.93 Q838.819 1539.12 836.177 1536.26 Q833.567 1533.39 829.239 1533.39 Q824.337 1533.39 821.377 1536.16 Q818.449 1538.93 818.003 1543.96 L838.883 1543.93 Z" fill="#000000" fill-rule="evenodd" fill-opacity="1" /><polyline clip-path="url(#clip902)" style="stroke:#000000; stroke-linecap:butt; stroke-linejoin:round; stroke-width:2; stroke-opacity:0.1; fill:none" points="
  1568.73,1423.18 210.746,1346.4 
  "/>
<polyline clip-path="url(#clip902)" style="stroke:#000000; stroke-linecap:butt; stroke-linejoin:round; stroke-width:2; stroke-opacity:0.1; fill:none" points="
  210.746,1346.4 210.746,353.805 
  "/>
<polyline clip-path="url(#clip902)" style="stroke:#000000; stroke-linecap:butt; stroke-linejoin:round; stroke-width:2; stroke-opacity:0.1; fill:none" points="
  1764.73,1365.6 406.753,1288.82 
  "/>
<polyline clip-path="url(#clip902)" style="stroke:#000000; stroke-linecap:butt; stroke-linejoin:round; stroke-width:2; stroke-opacity:0.1; fill:none" points="
  406.753,1288.82 406.753,296.222 
  "/>
<polyline clip-path="url(#clip902)" style="stroke:#000000; stroke-linecap:butt; stroke-linejoin:round; stroke-width:2; stroke-opacity:0.1; fill:none" points="
  1960.74,1308.01 602.761,1231.24 
  "/>
<polyline clip-path="url(#clip902)" style="stroke:#000000; stroke-linecap:butt; stroke-linejoin:round; stroke-width:2; stroke-opacity:0.1; fill:none" points="
  602.761,1231.24 602.761,238.639 
  "/>
<polyline clip-path="url(#clip902)" style="stroke:#000000; stroke-linecap:butt; stroke-linejoin:round; stroke-width:2; stroke-opacity:0.1; fill:none" points="
  2156.75,1250.43 798.768,1173.65 
  "/>
<polyline clip-path="url(#clip902)" style="stroke:#000000; stroke-linecap:butt; stroke-linejoin:round; stroke-width:2; stroke-opacity:0.1; fill:none" points="
  798.768,1173.65 798.768,181.055 
  "/>
<polyline clip-path="url(#clip902)" style="stroke:#000000; stroke-linecap:butt; stroke-linejoin:round; stroke-width:2; stroke-opacity:0.1; fill:none" points="
  2352.76,1192.85 994.776,1116.07 
  "/>
<polyline clip-path="url(#clip902)" style="stroke:#000000; stroke-linecap:butt; stroke-linejoin:round; stroke-width:2; stroke-opacity:0.1; fill:none" points="
  994.776,1116.07 994.776,123.472 
  "/>
<polyline clip-path="url(#clip900)" style="stroke:#000000; stroke-linecap:butt; stroke-linejoin:round; stroke-width:4; stroke-opacity:1; fill:none" points="
  1568.73,1423.18 2352.76,1192.85 
  "/>
<polyline clip-path="url(#clip900)" style="stroke:#000000; stroke-linecap:butt; stroke-linejoin:round; stroke-width:4; stroke-opacity:1; fill:none" points="
  1568.73,1423.18 1552.43,1422.26 
  "/>
<polyline clip-path="url(#clip900)" style="stroke:#000000; stroke-linecap:butt; stroke-linejoin:round; stroke-width:4; stroke-opacity:1; fill:none" points="
  1764.73,1365.6 1748.44,1364.68 
  "/>
<polyline clip-path="url(#clip900)" style="stroke:#000000; stroke-linecap:butt; stroke-linejoin:round; stroke-width:4; stroke-opacity:1; fill:none" points="
  1960.74,1308.01 1944.45,1307.09 
  "/>
<polyline clip-path="url(#clip900)" style="stroke:#000000; stroke-linecap:butt; stroke-linejoin:round; stroke-width:4; stroke-opacity:1; fill:none" points="
  2156.75,1250.43 2140.45,1249.51 
  "/>
<polyline clip-path="url(#clip900)" style="stroke:#000000; stroke-linecap:butt; stroke-linejoin:round; stroke-width:4; stroke-opacity:1; fill:none" points="
  2352.76,1192.85 2336.46,1191.93 
  "/>
<path clip-path="url(#clip900)" d="M1562.67 1471.82 L1592.34 1471.82 L1592.34 1475.76 L1562.67 1475.76 L1562.67 1471.82 Z" fill="#000000" fill-rule="evenodd" fill-opacity="1" /><path clip-path="url(#clip900)" d="M1606.46 1484.72 L1622.78 1484.72 L1622.78 1488.65 L1600.84 1488.65 L1600.84 1484.72 Q1603.5 1481.96 1608.08 1477.33 Q1612.69 1472.68 1613.87 1471.34 Q1616.12 1468.81 1617 1467.08 Q1617.9 1465.32 1617.9 1463.63 Q1617.9 1460.87 1615.95 1459.14 Q1614.03 1457.4 1610.93 1457.4 Q1608.73 1457.4 1606.28 1458.17 Q1603.85 1458.93 1601.07 1460.48 L1601.07 1455.76 Q1603.89 1454.62 1606.35 1454.05 Q1608.8 1453.47 1610.84 1453.47 Q1616.21 1453.47 1619.4 1456.15 Q1622.6 1458.84 1622.6 1463.33 Q1622.6 1465.46 1621.79 1467.38 Q1621 1469.28 1618.89 1471.87 Q1618.32 1472.54 1615.21 1475.76 Q1612.11 1478.95 1606.46 1484.72 Z" fill="#000000" fill-rule="evenodd" fill-opacity="1" /><path clip-path="url(#clip900)" d="M1758.49 1414.24 L1788.17 1414.24 L1788.17 1418.18 L1758.49 1418.18 L1758.49 1414.24 Z" fill="#000000" fill-rule="evenodd" fill-opacity="1" /><path clip-path="url(#clip900)" d="M1799.07 1427.13 L1806.71 1427.13 L1806.71 1400.77 L1798.4 1402.43 L1798.4 1398.18 L1806.66 1396.51 L1811.34 1396.51 L1811.34 1427.13 L1818.98 1427.13 L1818.98 1431.07 L1799.07 1431.07 L1799.07 1427.13 Z" fill="#000000" fill-rule="evenodd" fill-opacity="1" /><path clip-path="url(#clip900)" d="M1984.74 1342 Q1981.13 1342 1979.3 1345.57 Q1977.5 1349.11 1977.5 1356.24 Q1977.5 1363.35 1979.3 1366.91 Q1981.13 1370.45 1984.74 1370.45 Q1988.38 1370.45 1990.18 1366.91 Q1992.01 1363.35 1992.01 1356.24 Q1992.01 1349.11 1990.18 1345.57 Q1988.38 1342 1984.74 1342 M1984.74 1338.3 Q1990.55 1338.3 1993.61 1342.91 Q1996.69 1347.49 1996.69 1356.24 Q1996.69 1364.97 1993.61 1369.57 Q1990.55 1374.16 1984.74 1374.16 Q1978.93 1374.16 1975.85 1369.57 Q1972.8 1364.97 1972.8 1356.24 Q1972.8 1347.49 1975.85 1342.91 Q1978.93 1338.3 1984.74 1338.3 Z" fill="#000000" fill-rule="evenodd" fill-opacity="1" /><path clip-path="url(#clip900)" d="M2171.13 1311.97 L2178.77 1311.97 L2178.77 1285.6 L2170.46 1287.27 L2170.46 1283.01 L2178.72 1281.34 L2183.4 1281.34 L2183.4 1311.97 L2191.04 1311.97 L2191.04 1315.9 L2171.13 1315.9 L2171.13 1311.97 Z" fill="#000000" fill-rule="evenodd" fill-opacity="1" /><path clip-path="url(#clip900)" d="M2371.41 1254.38 L2387.73 1254.38 L2387.73 1258.32 L2365.78 1258.32 L2365.78 1254.38 Q2368.45 1251.63 2373.03 1247 Q2377.64 1242.35 2378.82 1241 Q2381.06 1238.48 2381.94 1236.74 Q2382.84 1234.99 2382.84 1233.3 Q2382.84 1230.54 2380.9 1228.81 Q2378.98 1227.07 2375.88 1227.07 Q2373.68 1227.07 2371.22 1227.83 Q2368.79 1228.6 2366.02 1230.15 L2366.02 1225.43 Q2368.84 1224.29 2371.29 1223.71 Q2373.75 1223.13 2375.78 1223.13 Q2381.15 1223.13 2384.35 1225.82 Q2387.54 1228.5 2387.54 1232.99 Q2387.54 1235.12 2386.73 1237.05 Q2385.95 1238.94 2383.84 1241.54 Q2383.26 1242.21 2380.16 1245.43 Q2377.06 1248.62 2371.41 1254.38 Z" fill="#000000" fill-rule="evenodd" fill-opacity="1" /><path clip-path="url(#clip900)" d="M1991.94 1465.88 Q1994.01 1466.58 1995.95 1468.87 Q1997.92 1471.16 1999.9 1475.17 L2006.42 1488.16 L1999.52 1488.16 L1993.44 1475.97 Q1991.08 1471.19 1988.85 1469.63 Q1986.66 1468.07 1982.84 1468.07 L1975.83 1468.07 L1975.83 1488.16 L1969.41 1488.16 L1969.41 1440.64 L1983.92 1440.64 Q1992.07 1440.64 1996.08 1444.04 Q2000.09 1447.45 2000.09 1454.32 Q2000.09 1458.81 1997.99 1461.77 Q1995.92 1464.73 1991.94 1465.88 M1975.83 1445.92 L1975.83 1462.79 L1983.92 1462.79 Q1988.57 1462.79 1990.92 1460.66 Q1993.31 1458.49 1993.31 1454.32 Q1993.31 1450.15 1990.92 1448.05 Q1988.57 1445.92 1983.92 1445.92 L1975.83 1445.92 Z" fill="#000000" fill-rule="evenodd" fill-opacity="1" /><path clip-path="url(#clip900)" d="M2042.01 1468.87 L2042.01 1471.73 L2015.08 1471.73 Q2015.46 1477.78 2018.71 1480.96 Q2021.99 1484.12 2027.81 1484.12 Q2031.18 1484.12 2034.34 1483.29 Q2037.52 1482.46 2040.64 1480.8 L2040.64 1486.34 Q2037.49 1487.68 2034.18 1488.38 Q2030.87 1489.08 2027.46 1489.08 Q2018.93 1489.08 2013.93 1484.12 Q2008.97 1479.15 2008.97 1470.68 Q2008.97 1461.93 2013.68 1456.81 Q2018.42 1451.65 2026.44 1451.65 Q2033.64 1451.65 2037.8 1456.3 Q2042.01 1460.91 2042.01 1468.87 M2036.15 1467.15 Q2036.09 1462.34 2033.44 1459.48 Q2030.83 1456.62 2026.51 1456.62 Q2021.6 1456.62 2018.64 1459.38 Q2015.72 1462.15 2015.27 1467.18 L2036.15 1467.15 Z" fill="#000000" fill-rule="evenodd" fill-opacity="1" /><path clip-path="url(#clip900)" d="M2078 1482.81 L2078 1501.72 L2072.12 1501.72 L2072.12 1452.51 L2078 1452.51 L2078 1457.92 Q2079.85 1454.74 2082.65 1453.21 Q2085.48 1451.65 2089.4 1451.65 Q2095.89 1451.65 2099.93 1456.81 Q2104.01 1461.96 2104.01 1470.37 Q2104.01 1478.77 2099.93 1483.92 Q2095.89 1489.08 2089.4 1489.08 Q2085.48 1489.08 2082.65 1487.55 Q2079.85 1485.99 2078 1482.81 M2097.93 1470.37 Q2097.93 1463.9 2095.26 1460.24 Q2092.61 1456.55 2087.97 1456.55 Q2083.32 1456.55 2080.65 1460.24 Q2078 1463.9 2078 1470.37 Q2078 1476.83 2080.65 1480.52 Q2083.32 1484.18 2087.97 1484.18 Q2092.61 1484.18 2095.26 1480.52 Q2097.93 1476.83 2097.93 1470.37 Z" fill="#000000" fill-rule="evenodd" fill-opacity="1" /><path clip-path="url(#clip900)" d="M2129.92 1470.24 Q2122.82 1470.24 2120.08 1471.86 Q2117.34 1473.48 2117.34 1477.4 Q2117.34 1480.52 2119.38 1482.36 Q2121.45 1484.18 2124.98 1484.18 Q2129.85 1484.18 2132.78 1480.74 Q2135.74 1477.27 2135.74 1471.54 L2135.74 1470.24 L2129.92 1470.24 M2141.6 1467.82 L2141.6 1488.16 L2135.74 1488.16 L2135.74 1482.75 Q2133.74 1485.99 2130.74 1487.55 Q2127.75 1489.08 2123.42 1489.08 Q2117.95 1489.08 2114.7 1486.02 Q2111.49 1482.94 2111.49 1477.78 Q2111.49 1471.77 2115.5 1468.71 Q2119.54 1465.65 2127.53 1465.65 L2135.74 1465.65 L2135.74 1465.08 Q2135.74 1461.04 2133.07 1458.84 Q2130.43 1456.62 2125.62 1456.62 Q2122.56 1456.62 2119.67 1457.35 Q2116.77 1458.08 2114.1 1459.54 L2114.1 1454.13 Q2117.31 1452.89 2120.34 1452.29 Q2123.36 1451.65 2126.22 1451.65 Q2133.96 1451.65 2137.78 1455.66 Q2141.6 1459.67 2141.6 1467.82 Z" fill="#000000" fill-rule="evenodd" fill-opacity="1" /><path clip-path="url(#clip900)" d="M2174.32 1457.98 Q2173.33 1457.41 2172.15 1457.16 Q2171.01 1456.87 2169.61 1456.87 Q2164.64 1456.87 2161.97 1460.12 Q2159.33 1463.33 2159.33 1469.38 L2159.33 1488.16 L2153.44 1488.16 L2153.44 1452.51 L2159.33 1452.51 L2159.33 1458.05 Q2161.17 1454.8 2164.13 1453.24 Q2167.09 1451.65 2171.33 1451.65 Q2171.93 1451.65 2172.66 1451.75 Q2173.39 1451.81 2174.29 1451.97 L2174.32 1457.98 Z" fill="#000000" fill-rule="evenodd" fill-opacity="1" /><path clip-path="url(#clip900)" d="M2186.25 1442.39 L2186.25 1452.51 L2198.32 1452.51 L2198.32 1457.06 L2186.25 1457.06 L2186.25 1476.41 Q2186.25 1480.77 2187.43 1482.01 Q2188.64 1483.26 2192.3 1483.26 L2198.32 1483.26 L2198.32 1488.16 L2192.3 1488.16 Q2185.52 1488.16 2182.94 1485.64 Q2180.36 1483.1 2180.36 1476.41 L2180.36 1457.06 L2176.07 1457.06 L2176.07 1452.51 L2180.36 1452.51 L2180.36 1442.39 L2186.25 1442.39 Z" fill="#000000" fill-rule="evenodd" fill-opacity="1" /><polyline clip-path="url(#clip902)" style="stroke:#000000; stroke-linecap:butt; stroke-linejoin:round; stroke-width:2; stroke-opacity:0.1; fill:none" points="
  210.746,1346.4 994.776,1116.07 
  "/>
<polyline clip-path="url(#clip902)" style="stroke:#000000; stroke-linecap:butt; stroke-linejoin:round; stroke-width:2; stroke-opacity:0.1; fill:none" points="
  994.776,1116.07 2352.76,1192.85 
  "/>
<polyline clip-path="url(#clip902)" style="stroke:#000000; stroke-linecap:butt; stroke-linejoin:round; stroke-width:2; stroke-opacity:0.1; fill:none" points="
  210.746,1098.25 994.776,867.92 
  "/>
<polyline clip-path="url(#clip902)" style="stroke:#000000; stroke-linecap:butt; stroke-linejoin:round; stroke-width:2; stroke-opacity:0.1; fill:none" points="
  994.776,867.92 2352.76,944.698 
  "/>
<polyline clip-path="url(#clip902)" style="stroke:#000000; stroke-linecap:butt; stroke-linejoin:round; stroke-width:2; stroke-opacity:0.1; fill:none" points="
  210.746,850.104 994.776,619.771 
  "/>
<polyline clip-path="url(#clip902)" style="stroke:#000000; stroke-linecap:butt; stroke-linejoin:round; stroke-width:2; stroke-opacity:0.1; fill:none" points="
  994.776,619.771 2352.76,696.548 
  "/>
<polyline clip-path="url(#clip902)" style="stroke:#000000; stroke-linecap:butt; stroke-linejoin:round; stroke-width:2; stroke-opacity:0.1; fill:none" points="
  210.746,601.954 994.776,371.621 
  "/>
<polyline clip-path="url(#clip902)" style="stroke:#000000; stroke-linecap:butt; stroke-linejoin:round; stroke-width:2; stroke-opacity:0.1; fill:none" points="
  994.776,371.621 2352.76,448.399 
  "/>
<polyline clip-path="url(#clip902)" style="stroke:#000000; stroke-linecap:butt; stroke-linejoin:round; stroke-width:2; stroke-opacity:0.1; fill:none" points="
  210.746,353.805 994.776,123.472 
  "/>
<polyline clip-path="url(#clip902)" style="stroke:#000000; stroke-linecap:butt; stroke-linejoin:round; stroke-width:2; stroke-opacity:0.1; fill:none" points="
  994.776,123.472 2352.76,200.25 
  "/>
<polyline clip-path="url(#clip900)" style="stroke:#000000; stroke-linecap:butt; stroke-linejoin:round; stroke-width:4; stroke-opacity:1; fill:none" points="
  210.746,1346.4 210.746,353.805 
  "/>
<polyline clip-path="url(#clip900)" style="stroke:#000000; stroke-linecap:butt; stroke-linejoin:round; stroke-width:4; stroke-opacity:1; fill:none" points="
  210.746,1346.4 220.154,1343.64 
  "/>
<polyline clip-path="url(#clip900)" style="stroke:#000000; stroke-linecap:butt; stroke-linejoin:round; stroke-width:4; stroke-opacity:1; fill:none" points="
  210.746,1098.25 220.154,1095.49 
  "/>
<polyline clip-path="url(#clip900)" style="stroke:#000000; stroke-linecap:butt; stroke-linejoin:round; stroke-width:4; stroke-opacity:1; fill:none" points="
  210.746,850.104 220.154,847.34 
  "/>
<polyline clip-path="url(#clip900)" style="stroke:#000000; stroke-linecap:butt; stroke-linejoin:round; stroke-width:4; stroke-opacity:1; fill:none" points="
  210.746,601.954 220.154,599.19 
  "/>
<polyline clip-path="url(#clip900)" style="stroke:#000000; stroke-linecap:butt; stroke-linejoin:round; stroke-width:4; stroke-opacity:1; fill:none" points="
  210.746,353.805 220.154,351.041 
  "/>
<path clip-path="url(#clip900)" d="M126.631 1346.85 L156.306 1346.85 L156.306 1350.79 L126.631 1350.79 L126.631 1346.85 Z" fill="#000000" fill-rule="evenodd" fill-opacity="1" /><path clip-path="url(#clip900)" d="M170.427 1359.75 L186.746 1359.75 L186.746 1363.68 L164.802 1363.68 L164.802 1359.75 Q167.464 1356.99 172.047 1352.36 Q176.653 1347.71 177.834 1346.37 Q180.079 1343.84 180.959 1342.11 Q181.862 1340.35 181.862 1338.66 Q181.862 1335.9 179.917 1334.17 Q177.996 1332.43 174.894 1332.43 Q172.695 1332.43 170.241 1333.2 Q167.811 1333.96 165.033 1335.51 L165.033 1330.79 Q167.857 1329.65 170.311 1329.08 Q172.765 1328.5 174.802 1328.5 Q180.172 1328.5 183.366 1331.18 Q186.561 1333.87 186.561 1338.36 Q186.561 1340.49 185.751 1342.41 Q184.964 1344.31 182.857 1346.9 Q182.278 1347.57 179.177 1350.79 Q176.075 1353.98 170.427 1359.75 Z" fill="#000000" fill-rule="evenodd" fill-opacity="1" /><path clip-path="url(#clip900)" d="M126.26 1098.7 L155.936 1098.7 L155.936 1102.64 L126.26 1102.64 L126.26 1098.7 Z" fill="#000000" fill-rule="evenodd" fill-opacity="1" /><path clip-path="url(#clip900)" d="M166.839 1111.6 L174.477 1111.6 L174.477 1085.23 L166.167 1086.9 L166.167 1082.64 L174.431 1080.97 L179.107 1080.97 L179.107 1111.6 L186.746 1111.6 L186.746 1115.53 L166.839 1115.53 L166.839 1111.6 Z" fill="#000000" fill-rule="evenodd" fill-opacity="1" /><path clip-path="url(#clip900)" d="M174.802 835.902 Q171.19 835.902 169.362 839.467 Q167.556 843.009 167.556 850.138 Q167.556 857.245 169.362 860.81 Q171.19 864.351 174.802 864.351 Q178.436 864.351 180.241 860.81 Q182.07 857.245 182.07 850.138 Q182.07 843.009 180.241 839.467 Q178.436 835.902 174.802 835.902 M174.802 832.199 Q180.612 832.199 183.667 836.805 Q186.746 841.388 186.746 850.138 Q186.746 858.865 183.667 863.472 Q180.612 868.055 174.802 868.055 Q168.991 868.055 165.913 863.472 Q162.857 858.865 162.857 850.138 Q162.857 841.388 165.913 836.805 Q168.991 832.199 174.802 832.199 Z" fill="#000000" fill-rule="evenodd" fill-opacity="1" /><path clip-path="url(#clip900)" d="M166.839 615.299 L174.477 615.299 L174.477 588.934 L166.167 590.6 L166.167 586.341 L174.431 584.674 L179.107 584.674 L179.107 615.299 L186.746 615.299 L186.746 619.234 L166.839 619.234 L166.839 615.299 Z" fill="#000000" fill-rule="evenodd" fill-opacity="1" /><path clip-path="url(#clip900)" d="M170.427 367.15 L186.746 367.15 L186.746 371.085 L164.802 371.085 L164.802 367.15 Q167.464 364.395 172.047 359.766 Q176.653 355.113 177.834 353.77 Q180.079 351.247 180.959 349.511 Q181.862 347.752 181.862 346.062 Q181.862 343.307 179.917 341.571 Q177.996 339.835 174.894 339.835 Q172.695 339.835 170.241 340.599 Q167.811 341.363 165.033 342.914 L165.033 338.192 Q167.857 337.057 170.311 336.479 Q172.765 335.9 174.802 335.9 Q180.172 335.9 183.366 338.585 Q186.561 341.27 186.561 345.761 Q186.561 347.891 185.751 349.812 Q184.964 351.71 182.857 354.303 Q182.278 354.974 179.177 358.192 Q176.075 361.386 170.427 367.15 Z" fill="#000000" fill-rule="evenodd" fill-opacity="1" /><path clip-path="url(#clip900)" d="M16.4842 964.686 L16.4842 958.257 L64.0042 958.257 L64.0042 964.686 L16.4842 964.686 Z" fill="#000000" fill-rule="evenodd" fill-opacity="1" /><path clip-path="url(#clip900)" d="M35.1993 917.962 Q31.2526 915.766 29.3747 912.71 Q27.4968 909.655 27.4968 905.517 Q27.4968 899.947 31.4117 896.923 Q35.2948 893.9 42.4881 893.9 L64.0042 893.9 L64.0042 899.788 L42.679 899.788 Q37.5546 899.788 35.072 901.602 Q32.5894 903.416 32.5894 907.14 Q32.5894 911.692 35.6131 914.334 Q38.6368 916.975 43.8567 916.975 L64.0042 916.975 L64.0042 922.864 L42.679 922.864 Q37.5228 922.864 35.072 924.678 Q32.5894 926.492 32.5894 930.28 Q32.5894 934.768 35.6449 937.409 Q38.6686 940.051 43.8567 940.051 L64.0042 940.051 L64.0042 945.939 L28.3562 945.939 L28.3562 940.051 L33.8944 940.051 Q30.616 938.046 29.0564 935.245 Q27.4968 932.444 27.4968 928.593 Q27.4968 924.71 29.4702 922.004 Q31.4436 919.267 35.1993 917.962 Z" fill="#000000" fill-rule="evenodd" fill-opacity="1" /><path clip-path="url(#clip900)" d="M58.657 855.833 L77.5631 855.833 L77.5631 861.721 L28.3562 861.721 L28.3562 855.833 L33.7671 855.833 Q30.5842 853.987 29.0564 851.186 Q27.4968 848.353 27.4968 844.438 Q27.4968 837.945 32.6531 833.903 Q37.8093 829.829 46.212 829.829 Q54.6147 829.829 59.771 833.903 Q64.9272 837.945 64.9272 844.438 Q64.9272 848.353 63.3994 851.186 Q61.8398 853.987 58.657 855.833 M46.212 835.908 Q39.7508 835.908 36.0905 838.582 Q32.3984 841.223 32.3984 845.87 Q32.3984 850.517 36.0905 853.191 Q39.7508 855.833 46.212 855.833 Q52.6732 855.833 56.3653 853.191 Q60.0256 850.517 60.0256 845.87 Q60.0256 841.223 56.3653 838.582 Q52.6732 835.908 46.212 835.908 Z" fill="#000000" fill-rule="evenodd" fill-opacity="1" /><path clip-path="url(#clip900)" d="M46.0847 803.92 Q46.0847 811.018 47.7079 813.755 Q49.3312 816.493 53.2461 816.493 Q56.3653 816.493 58.2114 814.456 Q60.0256 812.387 60.0256 808.854 Q60.0256 803.984 56.5881 801.056 Q53.1188 798.096 47.3897 798.096 L46.0847 798.096 L46.0847 803.92 M43.6657 792.239 L64.0042 792.239 L64.0042 798.096 L58.5933 798.096 Q61.8398 800.101 63.3994 803.093 Q64.9272 806.085 64.9272 810.413 Q64.9272 815.888 61.8716 819.134 Q58.7843 822.349 53.6281 822.349 Q47.6125 822.349 44.5569 818.339 Q41.5014 814.297 41.5014 806.308 L41.5014 798.096 L40.9285 798.096 Q36.8862 798.096 34.6901 800.769 Q32.4621 803.411 32.4621 808.217 Q32.4621 811.273 33.1941 814.169 Q33.9262 817.066 35.3903 819.739 L29.9795 819.739 Q28.7381 816.525 28.1334 813.501 Q27.4968 810.477 27.4968 807.613 Q27.4968 799.878 31.5072 796.059 Q35.5176 792.239 43.6657 792.239 Z" fill="#000000" fill-rule="evenodd" fill-opacity="1" /><path clip-path="url(#clip900)" d="M33.8307 759.52 Q33.2578 760.506 33.0032 761.684 Q32.7167 762.83 32.7167 764.23 Q32.7167 769.196 35.9632 771.869 Q39.1779 774.511 45.2253 774.511 L64.0042 774.511 L64.0042 780.399 L28.3562 780.399 L28.3562 774.511 L33.8944 774.511 Q30.6479 772.665 29.0883 769.705 Q27.4968 766.745 27.4968 762.512 Q27.4968 761.907 27.5923 761.175 Q27.656 760.443 27.8151 759.551 L33.8307 759.52 Z" fill="#000000" fill-rule="evenodd" fill-opacity="1" /><path clip-path="url(#clip900)" d="M18.2347 747.584 L28.3562 747.584 L28.3562 735.521 L32.9077 735.521 L32.9077 747.584 L52.2594 747.584 Q56.6199 747.584 57.8613 746.406 Q59.1026 745.197 59.1026 741.537 L59.1026 735.521 L64.0042 735.521 L64.0042 741.537 Q64.0042 748.316 61.4897 750.894 Q58.9434 753.472 52.2594 753.472 L32.9077 753.472 L32.9077 757.769 L28.3562 757.769 L28.3562 753.472 L18.2347 753.472 L18.2347 747.584 Z" fill="#000000" fill-rule="evenodd" fill-opacity="1" /><path clip-path="url(#clip900)" d="M917.818 49.7694 Q908.784 49.7694 905.3 51.8354 Q901.817 53.9013 901.817 58.8839 Q901.817 62.8538 904.409 65.2034 Q907.042 67.5124 911.539 67.5124 Q917.737 67.5124 921.464 63.1374 Q925.231 58.7219 925.231 51.4303 L925.231 49.7694 L917.818 49.7694 M932.685 46.6907 L932.685 72.576 L925.231 72.576 L925.231 65.6895 Q922.679 69.8214 918.871 71.8063 Q915.063 73.7508 909.554 73.7508 Q902.586 73.7508 898.454 69.8619 Q894.363 65.9325 894.363 59.3701 Q894.363 51.7138 899.467 47.825 Q904.612 43.9361 914.78 43.9361 L925.231 43.9361 L925.231 43.2069 Q925.231 38.0623 921.828 35.2672 Q918.466 32.4315 912.349 32.4315 Q908.46 32.4315 904.774 33.3632 Q901.087 34.295 897.685 36.1584 L897.685 29.2718 Q901.776 27.692 905.624 26.9223 Q909.473 26.1121 913.119 26.1121 Q922.962 26.1121 927.823 31.2163 Q932.685 36.3204 932.685 46.6907 Z" fill="#000000" fill-rule="evenodd" fill-opacity="1" /><path clip-path="url(#clip900)" d="M975.381 34.9026 L1027.31 34.9026 L1027.31 41.7081 L975.381 41.7081 L975.381 34.9026 M975.381 51.4303 L1027.31 51.4303 L1027.31 58.3168 L975.381 58.3168 L975.381 51.4303 Z" fill="#000000" fill-rule="evenodd" fill-opacity="1" /><path clip-path="url(#clip900)" d="M1088.85 17.4837 Q1082.53 17.4837 1079.33 23.7221 Q1076.17 29.92 1076.17 42.3968 Q1076.17 54.833 1079.33 61.0714 Q1082.53 67.2693 1088.85 67.2693 Q1095.21 67.2693 1098.37 61.0714 Q1101.57 54.833 1101.57 42.3968 Q1101.57 29.92 1098.37 23.7221 Q1095.21 17.4837 1088.85 17.4837 M1088.85 11.0023 Q1099.01 11.0023 1104.36 19.0636 Q1109.75 27.0843 1109.75 42.3968 Q1109.75 57.6687 1104.36 65.73 Q1099.01 73.7508 1088.85 73.7508 Q1078.68 73.7508 1073.29 65.73 Q1067.94 57.6687 1067.94 42.3968 Q1067.94 27.0843 1073.29 19.0636 Q1078.68 11.0023 1088.85 11.0023 Z" fill="#000000" fill-rule="evenodd" fill-opacity="1" /><path clip-path="url(#clip900)" d="M1124.13 62.2867 L1132.68 62.2867 L1132.68 72.576 L1124.13 72.576 L1124.13 62.2867 Z" fill="#000000" fill-rule="evenodd" fill-opacity="1" /><path clip-path="url(#clip900)" d="M1168 17.4837 Q1161.68 17.4837 1158.48 23.7221 Q1155.32 29.92 1155.32 42.3968 Q1155.32 54.833 1158.48 61.0714 Q1161.68 67.2693 1168 67.2693 Q1174.36 67.2693 1177.52 61.0714 Q1180.72 54.833 1180.72 42.3968 Q1180.72 29.92 1177.52 23.7221 Q1174.36 17.4837 1168 17.4837 M1168 11.0023 Q1178.17 11.0023 1183.52 19.0636 Q1188.9 27.0843 1188.9 42.3968 Q1188.9 57.6687 1183.52 65.73 Q1178.17 73.7508 1168 73.7508 Q1157.83 73.7508 1152.45 65.73 Q1147.1 57.6687 1147.1 42.3968 Q1147.1 27.0843 1152.45 19.0636 Q1157.83 11.0023 1168 11.0023 Z" fill="#000000" fill-rule="evenodd" fill-opacity="1" /><path clip-path="url(#clip900)" d="M1210.33 65.6895 L1238.89 65.6895 L1238.89 72.576 L1200.49 72.576 L1200.49 65.6895 Q1205.15 60.8689 1213.17 52.7671 Q1221.23 44.6248 1223.3 42.2752 Q1227.23 37.8598 1228.77 34.8216 Q1230.34 31.7429 1230.34 28.7857 Q1230.34 23.9651 1226.94 20.927 Q1223.58 17.8888 1218.15 17.8888 Q1214.3 17.8888 1210.01 19.2256 Q1205.76 20.5624 1200.89 23.2765 L1200.89 15.0127 Q1205.84 13.0277 1210.13 12.015 Q1214.42 11.0023 1217.99 11.0023 Q1227.39 11.0023 1232.98 15.7013 Q1238.57 20.4004 1238.57 28.2591 Q1238.57 31.9859 1237.15 35.3482 Q1235.77 38.6699 1232.09 43.2069 Q1231.07 44.3817 1225.65 50.0125 Q1220.22 55.6027 1210.33 65.6895 Z" fill="#000000" fill-rule="evenodd" fill-opacity="1" /><path clip-path="url(#clip900)" d="M1256.92 62.2867 L1265.47 62.2867 L1265.47 69.2543 L1258.82 82.2172 L1253.6 82.2172 L1256.92 69.2543 L1256.92 62.2867 Z" fill="#000000" fill-rule="evenodd" fill-opacity="1" /><path clip-path="url(#clip900)" d="M1322.22 73.7508 Q1305.41 73.7508 1305.41 49.6884 Q1305.41 40.1688 1311.69 27.2059 L1319.71 27.2059 Q1313.92 40.1688 1313.92 49.8909 Q1313.92 67.4314 1322.91 67.4314 Q1331.13 67.4314 1331.13 45.6375 L1338.02 45.6375 Q1338.02 67.4314 1346.24 67.4314 Q1355.23 67.4314 1355.23 49.8909 Q1355.23 40.1688 1349.44 27.2059 L1357.46 27.2059 Q1363.74 40.1688 1363.74 49.6884 Q1363.74 73.7508 1346.93 73.7508 Q1335.91 73.7508 1334.57 61.6386 Q1332.91 73.7508 1322.22 73.7508 Z" fill="#000000" fill-rule="evenodd" fill-opacity="1" /><path clip-path="url(#clip900)" d="M1404.57 34.9026 L1456.51 34.9026 L1456.51 41.7081 L1404.57 41.7081 L1404.57 34.9026 M1404.57 51.4303 L1456.51 51.4303 L1456.51 58.3168 L1404.57 58.3168 L1404.57 51.4303 Z" fill="#000000" fill-rule="evenodd" fill-opacity="1" /><path clip-path="url(#clip900)" d="M1518.04 17.4837 Q1511.72 17.4837 1508.52 23.7221 Q1505.36 29.92 1505.36 42.3968 Q1505.36 54.833 1508.52 61.0714 Q1511.72 67.2693 1518.04 67.2693 Q1524.4 67.2693 1527.56 61.0714 Q1530.76 54.833 1530.76 42.3968 Q1530.76 29.92 1527.56 23.7221 Q1524.4 17.4837 1518.04 17.4837 M1518.04 11.0023 Q1528.21 11.0023 1533.56 19.0636 Q1538.94 27.0843 1538.94 42.3968 Q1538.94 57.6687 1533.56 65.73 Q1528.21 73.7508 1518.04 73.7508 Q1507.87 73.7508 1502.48 65.73 Q1497.14 57.6687 1497.14 42.3968 Q1497.14 27.0843 1502.48 19.0636 Q1507.87 11.0023 1518.04 11.0023 Z" fill="#000000" fill-rule="evenodd" fill-opacity="1" /><path clip-path="url(#clip900)" d="M1553.32 62.2867 L1561.87 62.2867 L1561.87 72.576 L1553.32 72.576 L1553.32 62.2867 Z" fill="#000000" fill-rule="evenodd" fill-opacity="1" /><path clip-path="url(#clip900)" d="M1577.63 12.096 L1616.52 12.096 L1616.52 15.5798 L1594.56 72.576 L1586.01 72.576 L1606.67 18.9825 L1577.63 18.9825 L1577.63 12.096 Z" fill="#000000" fill-rule="evenodd" fill-opacity="1" /><path clip-path="url(#clip900)" d="M1632.56 12.096 L1664.68 12.096 L1664.68 18.9825 L1640.05 18.9825 L1640.05 33.8088 Q1641.84 33.2012 1643.62 32.9176 Q1645.4 32.5936 1647.18 32.5936 Q1657.31 32.5936 1663.22 38.1433 Q1669.14 43.6931 1669.14 53.1722 Q1669.14 62.9348 1663.06 68.3631 Q1656.99 73.7508 1645.93 73.7508 Q1642.12 73.7508 1638.15 73.1026 Q1634.22 72.4545 1630.01 71.1582 L1630.01 62.9348 Q1633.65 64.9198 1637.54 65.892 Q1641.43 66.8642 1645.77 66.8642 Q1652.77 66.8642 1656.86 63.1779 Q1660.96 59.4916 1660.96 53.1722 Q1660.96 46.8528 1656.86 43.1664 Q1652.77 39.4801 1645.77 39.4801 Q1642.48 39.4801 1639.2 40.2093 Q1635.96 40.9384 1632.56 42.4778 L1632.56 12.096 Z" fill="#000000" fill-rule="evenodd" fill-opacity="1" /><polyline clip-path="url(#clip902)" style="stroke:#009af9; stroke-linecap:butt; stroke-linejoin:round; stroke-width:8; stroke-opacity:1; fill:none" points="
  798.768,677.354 801.094,668.134 803.143,658.989 804.914,649.934 806.408,640.981 807.626,632.144 808.567,623.435 809.234,614.867 809.629,606.452 809.752,598.204 
  809.608,590.133 809.198,582.253 808.526,574.575 807.596,567.11 806.412,559.869 804.977,552.864 803.297,546.105 801.377,539.601 799.223,533.364 796.839,527.403 
  794.232,521.726 791.409,516.342 788.377,511.261 785.141,506.489 781.711,502.034 778.093,497.905 774.295,494.106 770.327,490.645 766.195,487.527 761.909,484.757 
  757.478,482.341 752.911,480.282 748.217,478.584 743.406,477.252 738.488,476.286 733.473,475.691 728.37,475.466 723.191,475.615 717.945,476.137 712.642,477.033 
  707.295,478.302 701.912,479.943 696.505,481.956 691.086,484.338 685.663,487.086 680.249,490.199 674.855,493.671 669.491,497.5 664.167,501.68 658.896,506.207 
  653.687,511.075 648.552,516.279 643.5,521.811 638.543,527.664 633.691,533.832 628.954,540.307 624.343,547.079 619.866,554.14 615.535,561.481 611.358,569.093 
  607.346,576.964 603.507,585.086 599.85,593.446 596.384,602.035 593.118,610.84 590.06,619.849 587.217,629.05 584.598,638.432 582.209,647.98 580.059,657.683 
  578.153,667.527 576.497,677.498 575.099,687.584 573.963,697.769 573.096,708.04 572.501,718.383 572.184,728.783 572.149,739.227 572.399,749.699 572.939,760.185 
  573.77,770.671 574.896,781.141 576.319,791.581 578.041,801.977 580.063,812.314 582.386,822.577 585.01,832.752 587.936,842.824 591.163,852.779 594.691,862.604 
  598.518,872.283 602.643,881.804 607.063,891.152 611.777,900.315 616.782,909.278 622.073,918.03 627.648,926.558 633.502,934.849 639.631,942.891 646.03,950.672 
  652.694,958.182 659.616,965.409 666.791,972.343 674.213,978.973 681.874,985.29 689.768,991.284 697.887,996.946 706.222,1002.27 714.767,1007.24 723.513,1011.86 
  732.45,1016.12 741.57,1020 750.864,1023.51 760.321,1026.64 769.932,1029.38 779.687,1031.74 789.576,1033.7 799.588,1035.26 809.713,1036.42 819.939,1037.17 
  830.255,1037.53 840.651,1037.47 851.115,1037.01 861.635,1036.15 872.2,1034.88 882.798,1033.2 893.418,1031.12 904.048,1028.65 914.676,1025.77 925.29,1022.5 
  935.878,1018.84 946.429,1014.79 956.93,1010.37 967.371,1005.56 977.739,1000.39 988.022,994.864 998.21,988.978 1008.29,982.745 1018.25,976.175 1028.09,969.274 
  1037.78,962.054 1047.32,954.522 1056.7,946.691 1065.9,938.57 1074.93,930.17 1083.76,921.503 1092.39,912.581 1100.81,903.416 1109.01,894.021 1116.98,884.409 
  1124.71,874.593 1132.19,864.586 1139.42,854.403 1146.39,844.058 1153.09,833.566 1159.52,822.941 1165.66,812.197 1171.51,801.351 1177.08,790.418 1182.34,779.412 
  1187.3,768.351 1191.95,757.248 1196.29,746.121 1200.31,734.984 1204.02,723.855 1207.4,712.748 1210.46,701.68 1213.19,690.666 1215.6,679.724 1217.68,668.867 
  1219.43,658.113 1220.85,647.476 1221.95,636.972 1222.72,626.617 1223.17,616.425 1223.29,606.412 1223.09,596.592 1222.57,586.979 1221.74,577.588 1220.6,568.433 
  1219.15,559.527 1217.41,550.884 1215.36,542.516 1213.02,534.437 1210.4,526.657 1207.5,519.19 1204.32,512.046 1200.88,505.236 1197.19,498.771 1193.24,492.661 
  1189.05,486.916 1184.63,481.544 1179.99,476.553 1175.13,471.953 1170.06,467.75 1164.81,463.952 1159.36,460.564 1153.75,457.592 1147.97,455.042 1142.03,452.919 
  1135.96,451.226 1129.76,449.967 1123.44,449.144 1117.01,448.761 1110.49,448.818 1103.89,449.316 1097.22,450.256 1090.5,451.638 1083.73,453.46 1076.93,455.722 
  1070.11,458.42 1063.28,461.553 1056.46,465.117 1049.66,469.107 1042.9,473.52 1036.18,478.35 1029.52,483.591 1022.93,489.237 1016.42,495.281 1010.01,501.716 
  1003.71,508.532 997.535,515.722 991.49,523.276 985.59,531.185 979.848,539.438 974.275,548.024 968.882,556.932 963.681,566.151 958.683,575.667 953.898,585.469 
  949.337,595.544 945.009,605.877 940.925,616.455 937.094,627.264 933.526,638.288 930.228,649.514 927.21,660.925 924.479,672.506 922.044,684.242 919.91,696.115 
  918.086,708.111 916.577,720.211 915.39,732.401 914.53,744.661 914.002,756.977 913.811,769.33 913.961,781.703 914.456,794.08 915.298,806.442 916.491,818.772 
  918.036,831.054 919.936,843.269 922.192,855.401 924.804,867.433 927.772,879.346 931.098,891.126 934.778,902.754 938.813,914.214 943.201,925.49 947.939,936.565 
  953.024,947.425 958.453,958.052 964.223,968.433 970.329,978.551 976.766,988.393 983.53,997.943 990.614,1007.19 998.012,1016.12 1005.72,1024.71 1013.72,1032.96 
  1022.02,1040.86 1030.61,1048.38 1039.47,1055.53 1048.6,1062.29 1057.99,1068.65 1067.62,1074.59 1077.5,1080.12 1087.61,1085.22 1097.93,1089.89 1108.46,1094.12 
  1119.19,1097.89 1130.1,1101.21 1141.19,1104.07 1152.43,1106.46 1163.83,1108.39 1175.36,1109.84 1187.01,1110.81 1198.77,1111.31 1210.63,1111.33 1222.57,1110.87 
  1234.58,1109.92 1246.65,1108.5 1258.76,1106.6 1270.9,1104.22 1283.06,1101.37 1295.21,1098.05 1307.35,1094.26 1319.47,1090 1331.54,1085.29 1343.56,1080.13 
  1355.5,1074.53 1367.37,1068.49 1379.14,1062.02 1390.8,1055.12 1402.33,1047.82 1413.73,1040.11 1424.97,1032.01 1436.06,1023.53 1446.96,1014.68 1457.68,1005.47 
  1468.2,995.922 1478.5,986.037 1488.58,975.833 1498.43,965.324 1508.02,954.525 1517.36,943.451 1526.43,932.116 1535.22,920.536 1543.72,908.729 1551.92,896.709 
  1559.81,884.494 1567.39,872.1 1574.65,859.546 1581.57,846.848 1588.15,834.025 1594.39,821.095 1600.28,808.075 1605.8,794.985 1610.97,781.843 1615.77,768.667 
  1620.19,755.477 1624.24,742.29 1627.91,729.127 1631.2,716.005 1634.1,702.944 1636.61,689.962 1638.74,677.078 1640.49,664.311 1641.84,651.679 1642.81,639.2 
  1643.39,626.893 1643.58,614.776 1643.4,602.865 1642.83,591.179 1641.89,579.736 1640.57,568.55 1638.89,557.64 1636.84,547.021 1634.43,536.709 1631.68,526.72 
  1628.57,517.068 1625.13,507.768 1621.35,498.835 1617.26,490.28 1612.84,482.118 1608.12,474.362 1603.11,467.022 1597.8,460.111 1592.22,453.639 1586.37,447.616 
  1580.27,442.053 1573.92,436.957 1567.34,432.338 1560.53,428.203 1553.52,424.559 1546.31,421.413 1538.92,418.769 1531.36,416.633 1523.65,415.01 1515.79,413.902 
  1507.81,413.312 1499.71,413.243 1491.51,413.696 1483.22,414.671 1474.87,416.168 1466.46,418.187 1458.01,420.725 1449.54,423.781 1441.05,427.351 1432.58,431.432 
  1424.12,436.018 1415.69,441.105 1407.32,446.686 1399.02,452.755 1390.79,459.305 1382.66,466.327 1374.65,473.812 1366.75,481.752 1359,490.135 1351.4,498.951 
  1343.98,508.189 1336.73,517.837 1329.68,527.882 1322.85,538.31 1316.23,549.109 1309.86,560.263 1303.73,571.758 1297.86,583.578 1292.27,595.708 1286.97,608.131 
  1281.96,620.83 1277.26,633.788 1272.87,646.988 1268.82,660.411 1265.1,674.04 1261.73,687.855 1258.72,701.837 1256.07,715.968 1253.79,730.227 1251.89,744.595 
  1250.37,759.052 1249.25,773.579 1248.52,788.154 1248.2,802.757 1248.28,817.369 1248.78,831.968 1249.68,846.534 1251.01,861.047 1252.75,875.485 1254.91,889.83 
  1257.49,904.06 1260.5,918.155 1263.93,932.096 1267.77,945.862 1272.04,959.434 1276.72,972.792 1281.82,985.917 1287.33,998.791 1293.25,1011.39 1299.57,1023.71 
  1306.29,1035.72 1313.41,1047.4 1320.91,1058.75 1328.79,1069.74 1337.04,1080.35 1345.66,1090.58 1354.64,1100.4 1363.96,1109.8 1373.63,1118.78 1383.62,1127.3 
  1393.94,1135.37 1404.56,1142.97 1415.48,1150.08 1426.68,1156.7 1438.16,1162.82 1449.9,1168.43 1461.88,1173.51 1474.11,1178.07 1486.55,1182.09 1499.2,1185.57 
  1512.04,1188.49 1525.06,1190.86 1538.25,1192.68 1551.58,1193.93 1565.05,1194.62 1578.64,1194.74 1592.32,1194.29 1606.1,1193.28 1619.94,1191.69 1633.84,1189.54 
  1647.77,1186.83 1661.73,1183.56 1675.68,1179.72 1689.63,1175.34 1703.55,1170.4 1717.42,1164.93 1731.23,1158.92 1744.97,1152.38 1758.6,1145.32 1772.13,1137.76 
  1785.53,1129.69 1798.79,1121.14 1811.89,1112.1 1824.81,1102.6 1837.55,1092.65 1850.08,1082.25 1862.39,1071.43 1874.46,1060.2 1886.29,1048.57 1897.85,1036.57 
  1909.14,1024.19 1920.13,1011.47 1930.83,998.425 1941.21,985.064 1951.26,971.41 1960.97,957.482 1970.33,943.299 1979.33,928.88 1987.96,914.247 1996.21,899.419 
  2004.07,884.416 2011.52,869.261 2018.58,853.975 2025.21,838.578 2031.43,823.093 2037.21,807.542 2042.57,791.946 2047.48,776.328 2051.95,760.71 2055.97,745.114 
  
  "/>
<polyline clip-path="url(#clip902)" style="stroke:#e26f46; stroke-linecap:butt; stroke-linejoin:round; stroke-width:8; stroke-opacity:1; fill:none" points="
  798.768,1049.58 801.094,1049.69 803.143,1049.88 804.914,1050.16 806.408,1050.51 807.626,1050.95 808.567,1051.47 809.234,1052.06 809.629,1052.74 809.752,1053.5 
  809.608,1054.34 809.198,1055.25 808.526,1056.24 807.596,1057.31 806.412,1058.45 804.977,1059.67 803.297,1060.96 801.377,1062.32 799.223,1063.74 796.839,1065.24 
  794.232,1066.8 791.409,1068.42 788.377,1070.11 785.141,1071.85 781.711,1073.66 778.093,1075.51 774.295,1077.42 770.327,1079.38 766.195,1081.39 761.909,1083.45 
  757.478,1085.54 752.911,1087.68 748.217,1089.85 743.406,1092.06 738.488,1094.3 733.473,1096.57 728.37,1098.86 723.191,1101.18 717.945,1103.51 712.642,1105.86 
  707.295,1108.23 701.912,1110.61 696.505,1112.99 691.086,1115.38 685.663,1117.76 680.249,1120.15 674.855,1122.53 669.491,1124.9 664.167,1127.26 658.896,1129.6 
  653.687,1131.92 648.552,1134.23 643.5,1136.5 638.543,1138.76 633.691,1140.98 628.954,1143.16 624.343,1145.31 619.866,1147.42 615.535,1149.49 611.358,1151.51 
  607.346,1153.48 603.507,1155.4 599.85,1157.27 596.384,1159.09 593.118,1160.84 590.06,1162.53 587.217,1164.16 584.598,1165.73 582.209,1167.22 580.059,1168.65 
  578.153,1170 576.497,1171.28 575.099,1172.49 573.963,1173.62 573.096,1174.67 572.501,1175.64 572.184,1176.52 572.149,1177.33 572.399,1178.05 572.939,1178.69 
  573.77,1179.24 574.896,1179.7 576.319,1180.08 578.041,1180.36 580.063,1180.56 582.386,1180.68 585.01,1180.7 587.936,1180.63 591.163,1180.48 594.691,1180.24 
  598.518,1179.91 602.643,1179.49 607.063,1178.99 611.777,1178.4 616.782,1177.72 622.073,1176.96 627.648,1176.12 633.502,1175.19 639.631,1174.19 646.03,1173.1 
  652.694,1171.94 659.616,1170.7 666.791,1169.39 674.213,1168 681.874,1166.54 689.768,1165.02 697.887,1163.43 706.222,1161.77 714.767,1160.06 723.513,1158.28 
  732.45,1156.45 741.57,1154.57 750.864,1152.63 760.321,1150.65 769.932,1148.62 779.687,1146.55 789.576,1144.44 799.588,1142.29 809.713,1140.11 819.939,1137.9 
  830.255,1135.66 840.651,1133.4 851.115,1131.12 861.635,1128.83 872.2,1126.52 882.798,1124.2 893.418,1121.87 904.048,1119.55 914.676,1117.22 925.29,1114.89 
  935.878,1112.58 946.429,1110.27 956.93,1107.98 967.371,1105.71 977.739,1103.46 988.022,1101.23 998.21,1099.03 1008.29,1096.87 1018.25,1094.73 1028.09,1092.64 
  1037.78,1090.59 1047.32,1088.58 1056.7,1086.62 1065.9,1084.71 1074.93,1082.85 1083.76,1081.05 1092.39,1079.31 1100.81,1077.63 1109.01,1076.02 1116.98,1074.47 
  1124.71,1072.99 1132.19,1071.59 1139.42,1070.26 1146.39,1069.01 1153.09,1067.83 1159.52,1066.74 1165.66,1065.73 1171.51,1064.8 1177.08,1063.96 1182.34,1063.21 
  1187.3,1062.55 1191.95,1061.98 1196.29,1061.5 1200.31,1061.11 1204.02,1060.82 1207.4,1060.62 1210.46,1060.51 1213.19,1060.5 1215.6,1060.59 1217.68,1060.77 
  1219.43,1061.05 1220.85,1061.43 1221.95,1061.9 1222.72,1062.47 1223.17,1063.13 1223.29,1063.89 1223.09,1064.75 1222.57,1065.69 1221.74,1066.73 1220.6,1067.86 
  1219.15,1069.08 1217.41,1070.39 1215.36,1071.78 1213.02,1073.27 1210.4,1074.83 1207.5,1076.48 1204.32,1078.2 1200.88,1080.01 1197.19,1081.89 1193.24,1083.84 
  1189.05,1085.87 1184.63,1087.96 1179.99,1090.12 1175.13,1092.34 1170.06,1094.62 1164.81,1096.96 1159.36,1099.36 1153.75,1101.8 1147.97,1104.29 1142.03,1106.83 
  1135.96,1109.41 1129.76,1112.03 1123.44,1114.68 1117.01,1117.36 1110.49,1120.07 1103.89,1122.8 1097.22,1125.56 1090.5,1128.33 1083.73,1131.11 1076.93,1133.9 
  1070.11,1136.7 1063.28,1139.5 1056.46,1142.3 1049.66,1145.09 1042.9,1147.87 1036.18,1150.64 1029.52,1153.39 1022.93,1156.12 1016.42,1158.83 1010.01,1161.51 
  1003.71,1164.15 997.535,1166.76 991.49,1169.33 985.59,1171.86 979.848,1174.34 974.275,1176.77 968.882,1179.15 963.681,1181.47 958.683,1183.74 953.898,1185.94 
  949.337,1188.07 945.009,1190.14 940.925,1192.13 937.094,1194.05 933.526,1195.89 930.228,1197.66 927.21,1199.34 924.479,1200.93 922.044,1202.44 919.91,1203.87 
  918.086,1205.2 916.577,1206.43 915.39,1207.58 914.53,1208.62 914.002,1209.57 913.811,1210.42 913.961,1211.18 914.456,1211.82 915.298,1212.37 916.491,1212.82 
  918.036,1213.16 919.936,1213.39 922.192,1213.52 924.804,1213.55 927.772,1213.47 931.098,1213.29 934.778,1213 938.813,1212.61 943.201,1212.12 947.939,1211.52 
  953.024,1210.82 958.453,1210.02 964.223,1209.12 970.329,1208.12 976.766,1207.02 983.53,1205.83 990.614,1204.55 998.012,1203.17 1005.72,1201.7 1013.72,1200.14 
  1022.02,1198.5 1030.61,1196.77 1039.47,1194.96 1048.6,1193.07 1057.99,1191.11 1067.62,1189.07 1077.5,1186.96 1087.61,1184.79 1097.93,1182.55 1108.46,1180.25 
  1119.19,1177.89 1130.1,1175.48 1141.19,1173.02 1152.43,1170.51 1163.83,1167.96 1175.36,1165.37 1187.01,1162.74 1198.77,1160.08 1210.63,1157.39 1222.57,1154.67 
  1234.58,1151.94 1246.65,1149.19 1258.76,1146.42 1270.9,1143.65 1283.06,1140.88 1295.21,1138.1 1307.35,1135.33 1319.47,1132.56 1331.54,1129.81 1343.56,1127.08 
  1355.5,1124.36 1367.37,1121.67 1379.14,1119.01 1390.8,1116.37 1402.33,1113.78 1413.73,1111.23 1424.97,1108.72 1436.06,1106.26 1446.96,1103.85 1457.68,1101.49 
  1468.2,1099.2 1478.5,1096.96 1488.58,1094.8 1498.43,1092.7 1508.02,1090.67 1517.36,1088.73 1526.43,1086.86 1535.22,1085.07 1543.72,1083.37 1551.92,1081.75 
  1559.81,1080.23 1567.39,1078.79 1574.65,1077.46 1581.57,1076.22 1588.15,1075.08 1594.39,1074.04 1600.28,1073.11 1605.8,1072.28 1610.97,1071.55 1615.77,1070.94 
  1620.19,1070.43 1624.24,1070.04 1627.91,1069.75 1631.2,1069.58 1634.1,1069.53 1636.61,1069.58 1638.74,1069.75 1640.49,1070.03 1641.84,1070.43 1642.81,1070.94 
  1643.39,1071.56 1643.58,1072.3 1643.4,1073.15 1642.83,1074.11 1641.89,1075.18 1640.57,1076.36 1638.89,1077.65 1636.84,1079.05 1634.43,1080.55 1631.68,1082.15 
  1628.57,1083.86 1625.13,1085.67 1621.35,1087.57 1617.26,1089.57 1612.84,1091.66 1608.12,1093.84 1603.11,1096.11 1597.8,1098.46 1592.22,1100.9 1586.37,1103.41 
  1580.27,1106 1573.92,1108.66 1567.34,1111.38 1560.53,1114.18 1553.52,1117.03 1546.31,1119.94 1538.92,1122.91 1531.36,1125.92 1523.65,1128.99 1515.79,1132.09 
  1507.81,1135.23 1499.71,1138.4 1491.51,1141.61 1483.22,1144.83 1474.87,1148.08 1466.46,1151.35 1458.01,1154.62 1449.54,1157.91 1441.05,1161.19 1432.58,1164.48 
  1424.12,1167.76 1415.69,1171.03 1407.32,1174.28 1399.02,1177.52 1390.79,1180.73 1382.66,1183.91 1374.65,1187.06 1366.75,1190.17 1359,1193.24 1351.4,1196.27 
  1343.98,1199.25 1336.73,1202.17 1329.68,1205.04 1322.85,1207.84 1316.23,1210.58 1309.86,1213.24 1303.73,1215.84 1297.86,1218.36 1292.27,1220.79 1286.97,1223.15 
  1281.96,1225.41 1277.26,1227.59 1272.87,1229.67 1268.82,1231.66 1265.1,1233.54 1261.73,1235.33 1258.72,1237.01 1256.07,1238.58 1253.79,1240.04 1251.89,1241.4 
  1250.37,1242.64 1249.25,1243.76 1248.52,1244.77 1248.2,1245.66 1248.28,1246.43 1248.78,1247.08 1249.68,1247.61 1251.01,1248.01 1252.75,1248.29 1254.91,1248.45 
  1257.49,1248.49 1260.5,1248.4 1263.93,1248.19 1267.77,1247.85 1272.04,1247.39 1276.72,1246.81 1281.82,1246.11 1287.33,1245.28 1293.25,1244.34 1299.57,1243.28 
  1306.29,1242.1 1313.41,1240.8 1320.91,1239.39 1328.79,1237.87 1337.04,1236.24 1345.66,1234.5 1354.64,1232.66 1363.96,1230.72 1373.63,1228.67 1383.62,1226.53 
  1393.94,1224.29 1404.56,1221.97 1415.48,1219.55 1426.68,1217.06 1438.16,1214.48 1449.9,1211.83 1461.88,1209.1 1474.11,1206.3 1486.55,1203.44 1499.2,1200.52 
  1512.04,1197.54 1525.06,1194.51 1538.25,1191.43 1551.58,1188.31 1565.05,1185.15 1578.64,1181.95 1592.32,1178.72 1606.1,1175.47 1619.94,1172.2 1633.84,1168.91 
  1647.77,1165.61 1661.73,1162.31 1675.68,1159 1689.63,1155.7 1703.55,1152.4 1717.42,1149.12 1731.23,1145.86 1744.97,1142.62 1758.6,1139.41 1772.13,1136.23 
  1785.53,1133.08 1798.79,1129.98 1811.89,1126.93 1824.81,1123.93 1837.55,1120.98 1850.08,1118.09 1862.39,1115.27 1874.46,1112.52 1886.29,1109.84 1897.85,1107.24 
  1909.14,1104.72 1920.13,1102.28 1930.83,1099.93 1941.21,1097.68 1951.26,1095.52 1960.97,1093.46 1970.33,1091.51 1979.33,1089.66 1987.96,1087.92 1996.21,1086.29 
  2004.07,1084.77 2011.52,1083.38 2018.58,1082.1 2025.21,1080.94 2031.43,1079.91 2037.21,1079.01 2042.57,1078.23 2047.48,1077.58 2051.95,1077.06 2055.97,1076.67 
  
  "/>
<polyline clip-path="url(#clip902)" style="stroke:#3da44d; stroke-linecap:butt; stroke-linejoin:round; stroke-width:8; stroke-opacity:1; fill:none" points="
  994.776,619.771 997.044,610.567 999.312,601.359 1001.58,592.158 1003.85,582.978 1006.12,573.832 1008.38,564.733 1010.65,555.694 1012.92,546.729 1015.19,537.851 
  1017.45,529.072 1019.72,520.405 1021.99,511.863 1024.26,503.459 1026.53,495.204 1028.79,487.111 1031.06,479.192 1033.33,471.458 1035.6,463.922 1037.86,456.594 
  1040.13,449.485 1042.4,442.606 1044.67,435.967 1046.94,429.578 1049.2,423.45 1051.47,417.591 1053.74,412.011 1056.01,406.717 1058.28,401.719 1060.54,397.024 
  1062.81,392.64 1065.08,388.573 1067.35,384.83 1069.61,381.418 1071.88,378.341 1074.15,375.606 1076.42,373.217 1078.69,371.177 1080.95,369.492 1083.22,368.164 
  1085.49,367.196 1087.76,366.59 1090.03,366.348 1092.29,366.471 1094.56,366.96 1096.83,367.816 1099.1,369.037 1101.36,370.623 1103.63,372.574 1105.9,374.886 
  1108.17,377.558 1110.44,380.586 1112.7,383.968 1114.97,387.699 1117.24,391.775 1119.51,396.192 1121.77,400.943 1124.04,406.023 1126.31,411.425 1128.58,417.143 
  1130.85,423.17 1133.11,429.498 1135.38,436.117 1137.65,443.021 1139.92,450.2 1142.19,457.645 1144.45,465.345 1146.72,473.291 1148.99,481.472 1151.26,489.876 
  1153.52,498.494 1155.79,507.313 1158.06,516.321 1160.33,525.506 1162.6,534.856 1164.86,544.358 1167.13,553.999 1169.4,563.766 1171.67,573.646 1173.94,583.624 
  1176.2,593.688 1178.47,603.822 1180.74,614.015 1183.01,624.25 1185.27,634.514 1187.54,644.794 1189.81,655.073 1192.08,665.339 1194.35,675.576 1196.61,685.77 
  1198.88,695.908 1201.15,705.974 1203.42,715.955 1205.68,725.836 1207.95,735.604 1210.22,745.244 1212.49,754.743 1214.76,764.087 1217.02,773.264 1219.29,782.259 
  1221.56,791.06 1223.83,799.655 1226.1,808.03 1228.36,816.174 1230.63,824.076 1232.9,831.723 1235.17,839.104 1237.43,846.208 1239.7,853.026 1241.97,859.548 
  1244.24,865.762 1246.51,871.661 1248.77,877.235 1251.04,882.477 1253.31,887.378 1255.58,891.93 1257.84,896.128 1260.11,899.964 1262.38,903.432 1264.65,906.527 
  1266.92,909.244 1269.18,911.579 1271.45,913.528 1273.72,915.087 1275.99,916.253 1278.26,917.025 1280.52,917.4 1282.79,917.378 1285.06,916.957 1287.33,916.139 
  1289.59,914.923 1291.86,913.31 1294.13,911.303 1296.4,908.903 1298.67,906.113 1300.93,902.936 1303.2,899.377 1305.47,895.44 1307.74,891.13 1310.01,886.452 
  1312.27,881.412 1314.54,876.018 1316.81,870.275 1319.08,864.193 1321.34,857.778 1323.61,851.04 1325.88,843.987 1328.15,836.629 1330.42,828.976 1332.68,821.038 
  1334.95,812.827 1337.22,804.353 1339.49,795.628 1341.75,786.664 1344.02,777.474 1346.29,768.07 1348.56,758.465 1350.83,748.673 1353.09,738.707 1355.36,728.582 
  1357.63,718.31 1359.9,707.908 1362.17,697.389 1364.43,686.768 1366.7,676.061 1368.97,665.282 1371.24,654.446 1373.5,643.57 1375.77,632.668 1378.04,621.756 
  1380.31,610.85 1382.58,599.965 1384.84,589.118 1387.11,578.322 1389.38,567.595 1391.65,556.951 1393.92,546.407 1396.18,535.976 1398.45,525.675 1400.72,515.519 
  1402.99,505.521 1405.25,495.698 1407.52,486.063 1409.79,476.63 1412.06,467.414 1414.33,458.427 1416.59,449.685 1418.86,441.198 1421.13,432.981 1423.4,425.046 
  1425.66,417.403 1427.93,410.066 1430.2,403.045 1432.47,396.351 1434.74,389.995 1437,383.985 1439.27,378.332 1441.54,373.044 1443.81,368.13 1446.08,363.598 
  1448.34,359.454 1450.61,355.707 1452.88,352.361 1455.15,349.424 1457.41,346.899 1459.68,344.792 1461.95,343.106 1464.22,341.846 1466.49,341.013 1468.75,340.61 
  1471.02,340.639 1473.29,341.1 1475.56,341.995 1477.82,343.322 1480.09,345.081 1482.36,347.271 1484.63,349.889 1486.9,352.933 1489.16,356.399 1491.43,360.284 
  1493.7,364.584 1495.97,369.292 1498.24,374.404 1500.5,379.913 1502.77,385.813 1505.04,392.096 1507.31,398.753 1509.57,405.778 1511.84,413.16 1514.11,420.89 
  1516.38,428.958 1518.65,437.353 1520.91,446.065 1523.18,455.082 1525.45,464.392 1527.72,473.983 1529.99,483.841 1532.25,493.954 1534.52,504.308 1536.79,514.888 
  1539.06,525.681 1541.32,536.673 1543.59,547.847 1545.86,559.189 1548.13,570.683 1550.4,582.314 1552.66,594.065 1554.93,605.92 1557.2,617.864 1559.47,629.878 
  1561.73,641.948 1564,654.055 1566.27,666.183 1568.54,678.316 1570.81,690.435 1573.07,702.525 1575.34,714.568 1577.61,726.548 1579.88,738.446 1582.15,750.248 
  1584.41,761.935 1586.68,773.491 1588.95,784.9 1591.22,796.146 1593.48,807.213 1595.75,818.084 1598.02,828.744 1600.29,839.178 1602.56,849.371 1604.82,859.308 
  1607.09,868.975 1609.36,878.358 1611.63,887.442 1613.9,896.215 1616.16,904.665 1618.43,912.777 1620.7,920.541 1622.97,927.946 1625.23,934.979 1627.5,941.631 
  1629.77,947.891 1632.04,953.75 1634.31,959.2 1636.57,964.231 1638.84,968.836 1641.11,973.009 1643.38,976.741 1645.64,980.028 1647.91,982.863 1650.18,985.243 
  1652.45,987.163 1654.72,988.619 1656.98,989.61 1659.25,990.132 1661.52,990.184 1663.79,989.766 1666.06,988.876 1668.32,987.517 1670.59,985.688 1672.86,983.392 
  1675.13,980.63 1677.39,977.408 1679.66,973.727 1681.93,969.593 1684.2,965.011 1686.47,959.986 1688.73,954.525 1691,948.634 1693.27,942.323 1695.54,935.598 
  1697.81,928.469 1700.07,920.945 1702.34,913.036 1704.61,904.752 1706.88,896.106 1709.14,887.108 1711.41,877.771 1713.68,868.107 1715.95,858.13 1718.22,847.854 
  1720.48,837.292 1722.75,826.458 1725.02,815.369 1727.29,804.039 1729.55,792.484 1731.82,780.72 1734.09,768.763 1736.36,756.631 1738.63,744.34 1740.89,731.907 
  1743.16,719.35 1745.43,706.687 1747.7,693.935 1749.97,681.113 1752.23,668.238 1754.5,655.329 1756.77,642.405 1759.04,629.483 1761.3,616.582 1763.57,603.721 
  1765.84,590.919 1768.11,578.192 1770.38,565.561 1772.64,553.042 1774.91,540.655 1777.18,528.417 1779.45,516.346 1781.71,504.459 1783.98,492.775 1786.25,481.309 
  1788.52,470.079 1790.79,459.102 1793.05,448.393 1795.32,437.968 1797.59,427.844 1799.86,418.034 1802.13,408.554 1804.39,399.418 1806.66,390.64 1808.93,382.233 
  1811.2,374.21 1813.46,366.583 1815.73,359.364 1818,352.564 1820.27,346.194 1822.54,340.264 1824.8,334.783 1827.07,329.76 1829.34,325.204 1831.61,321.121 
  1833.88,317.519 1836.14,314.405 1838.41,311.782 1840.68,309.658 1842.95,308.035 1845.21,306.917 1847.48,306.307 1849.75,306.207 1852.02,306.618 1854.29,307.541 
  1856.55,308.976 1858.82,310.923 1861.09,313.378 1863.36,316.341 1865.62,319.808 1867.89,323.776 1870.16,328.24 1872.43,333.194 1874.7,338.634 1876.96,344.552 
  1879.23,350.942 1881.5,357.795 1883.77,365.103 1886.04,372.857 1888.3,381.046 1890.57,389.661 1892.84,398.689 1895.11,408.12 1897.37,417.941 1899.64,428.139 
  1901.91,438.7 1904.18,449.611 1906.45,460.857 1908.71,472.423 1910.98,484.293 1913.25,496.452 1915.52,508.882 1917.79,521.568 1920.05,534.491 1922.32,547.635 
  1924.59,560.981 1926.86,574.511 1929.12,588.207 1931.39,602.049 1933.66,616.018 1935.93,630.096 1938.2,644.262 1940.46,658.497 1942.73,672.781 1945,687.095 
  1947.27,701.418 1949.53,715.73 1951.8,730.011 1954.07,744.241 1956.34,758.4 1958.61,772.468 1960.87,786.425 1963.14,800.251 1965.41,813.927 1967.68,827.434 
  1969.95,840.751 1972.21,853.86 1974.48,866.742 1976.75,879.379 1979.02,891.753 1981.28,903.845 1983.55,915.638 1985.82,927.116 1988.09,938.26 1990.36,949.056 
  1992.62,959.487 1994.89,969.538 1997.16,979.195 1999.43,988.442 2001.69,997.267 2003.96,1005.66 2006.23,1013.6 2008.5,1021.08 2010.77,1028.08 2013.03,1034.61 
  2015.3,1040.64 2017.57,1046.18 2019.84,1051.2 2022.11,1055.7 2024.37,1059.68 2026.64,1063.12 2028.91,1066.03 2031.18,1068.4 2033.44,1070.21 2035.71,1071.48 
  2037.98,1072.19 2040.25,1072.35 2042.52,1071.96 2044.78,1071 2047.05,1069.49 2049.32,1067.42 2051.59,1064.81 2053.86,1061.64 2056.12,1057.92 2058.39,1053.66 
  2060.66,1048.87 2062.93,1043.54 2065.19,1037.69 2067.46,1031.32 2069.73,1024.44 2072,1017.06 2074.27,1009.19 2076.53,1000.84 2078.8,992.017 2081.07,982.74 
  2083.34,973.017 2085.6,962.862 2087.87,952.288 2090.14,941.31 2092.41,929.943 2094.68,918.202 2096.94,906.102 2099.21,893.662 2101.48,880.897 2103.75,867.826 
  2106.02,854.465 2108.28,840.835 2110.55,826.954 2112.82,812.841 2115.09,798.515 2117.35,783.998 2119.62,769.308 2121.89,754.468 2124.16,739.496 2126.43,724.416 
  
  "/>
<polyline clip-path="url(#clip902)" style="stroke:#000000; stroke-linecap:butt; stroke-linejoin:round; stroke-width:8; stroke-opacity:1; fill:none" points="
  2156.75,754.132 2156.81,744.783 2156.59,735.511 2156.09,726.327 2155.32,717.246 2154.27,708.28 2152.94,699.443 2151.34,690.747 2149.47,682.204 2147.32,673.827 
  2144.91,665.629 2142.23,657.62 2139.29,649.814 2136.09,642.221 2132.64,634.852 2128.94,627.718 2124.99,620.831 2120.8,614.199 2116.38,607.834 2111.73,601.744 
  2106.86,595.939 2101.76,590.427 2096.46,585.217 2090.96,580.317 2085.26,575.735 2079.38,571.477 2073.31,567.55 2067.07,563.96 2060.68,560.714 2054.12,557.816 
  2047.42,555.272 2040.59,553.085 2033.63,551.259 2026.55,549.798 2019.36,548.704 2012.08,547.98 2004.71,547.628 1997.26,547.649 1989.75,548.042 1982.18,548.81 
  1974.56,549.951 1966.91,551.464 1959.24,553.349 1951.55,555.602 1943.86,558.222 1936.18,561.206 1928.51,564.551 1920.88,568.251 1913.29,572.303 1905.75,576.702 
  1898.28,581.442 1890.87,586.517 1883.55,591.921 1876.33,597.646 1869.21,603.686 1862.2,610.032 1855.32,616.676 1848.58,623.609 1841.98,630.822 1835.54,638.305 
  1829.26,646.049 1823.15,654.042 1817.22,662.274 1811.49,670.735 1805.96,679.411 1800.63,688.292 1795.52,697.365 1790.63,706.619 1785.98,716.039 1781.56,725.614 
  1777.38,735.329 1773.46,745.173 1769.79,755.13 1766.39,765.186 1763.26,775.329 1760.39,785.544 1757.81,795.816 1755.51,806.132 1753.49,816.476 1751.76,826.833 
  1750.32,837.191 1749.18,847.533 1748.34,857.845 1747.79,868.113 1747.54,878.321 1747.6,888.456 1747.96,898.502 1748.61,908.446 1749.57,918.274 1750.83,927.97 
  1752.39,937.521 1754.25,946.913 1756.4,956.133 1758.85,965.168 1761.59,974.003 1764.61,982.627 1767.92,991.026 1771.5,999.189 1775.36,1007.1 1779.49,1014.76 
  1783.89,1022.14 1788.54,1029.24 1793.45,1036.04 1798.61,1042.54 1804,1048.73 1809.62,1054.6 1815.48,1060.13 1821.54,1065.33 1827.82,1070.17 1834.3,1074.66 
  1840.97,1078.79 1847.82,1082.55 1854.85,1085.93 1862.04,1088.93 1869.38,1091.55 1876.87,1093.77 1884.49,1095.6 1892.23,1097.03 1900.09,1098.06 1908.05,1098.69 
  1916.09,1098.92 1924.22,1098.74 1932.42,1098.15 1940.67,1097.16 1948.97,1095.76 1957.3,1093.95 1965.65,1091.75 1974.01,1089.14 1982.37,1086.13 1990.72,1082.74 
  1999.04,1078.95 2007.32,1074.77 2015.56,1070.22 2023.73,1065.29 2031.83,1059.99 2039.84,1054.33 2047.76,1048.32 2055.58,1041.96 2063.27,1035.26 2070.84,1028.23 
  2078.26,1020.88 2085.53,1013.22 2092.65,1005.26 2099.58,997.012 2106.34,988.484 2112.9,979.689 2119.27,970.639 2125.42,961.346 2131.35,951.822 2137.05,942.082 
  2142.51,932.137 2147.73,922.003 2152.69,911.692 2157.39,901.219 2161.82,890.598 2165.98,879.844 2169.86,868.973 2173.44,857.999 2176.74,846.937 2179.73,835.803 
  2182.42,824.613 2184.81,813.382 2186.88,802.127 2188.63,790.862 2190.07,779.604 2191.19,768.369 2191.98,757.173 2192.44,746.031 2192.58,734.96 2192.39,723.976 
  2191.88,713.093 2191.03,702.328 2189.86,691.696 2188.37,681.213 2186.54,670.893 2184.4,660.751 2181.93,650.803 2179.15,641.062 2176.05,631.543 2172.64,622.26 
  2168.92,613.226 2164.91,604.454 2160.59,595.958 2155.99,587.75 2151.1,579.843 2145.93,572.247 2140.48,564.975 2134.78,558.037 2128.81,551.444 2122.6,545.206 
  2116.14,539.332 2109.45,533.831 2102.54,528.713 2095.42,523.984 2088.08,519.653 2080.56,515.726 2072.85,512.21 2064.96,509.111 2056.92,506.433 2048.72,504.181 
  2040.37,502.36 2031.9,500.973 2023.32,500.022 2014.62,499.51 2005.84,499.439 1996.97,499.809 1988.03,500.621 1979.04,501.874 1970,503.568 1960.93,505.701 
  1951.84,508.272 1942.75,511.276 1933.66,514.712 1924.6,518.574 1915.56,522.859 1906.57,527.561 1897.65,532.674 1888.79,538.192 1880.01,544.107 1871.34,550.413 
  1862.77,557.102 1854.32,564.163 1846.01,571.589 1837.84,579.37 1829.83,587.494 1821.99,595.952 1814.33,604.732 1806.86,613.823 1799.6,623.211 1792.54,632.885 
  1785.71,642.831 1779.12,653.036 1772.77,663.486 1766.67,674.166 1760.83,685.062 1755.27,696.16 1749.98,707.443 1744.98,718.896 1740.28,730.503 1735.88,742.248 
  1731.79,754.116 1728.01,766.088 1724.55,778.149 1721.43,790.282 1718.63,802.469 1716.17,814.694 1714.05,826.939 1712.28,839.187 1710.85,851.421 1709.78,863.623 
  1709.06,875.777 1708.69,887.864 1708.68,899.868 1709.02,911.771 1709.72,923.556 1710.78,935.207 1712.19,946.707 1713.96,958.039 1716.08,969.187 1718.55,980.134 
  1721.37,990.865 1724.53,1001.36 1728.03,1011.62 1731.87,1021.61 1736.04,1031.32 1740.53,1040.74 1745.35,1049.86 1750.48,1058.66 1755.92,1067.13 1761.66,1075.25 
  1767.69,1083.02 1774,1090.41 1780.6,1097.43 1787.46,1104.06 1794.58,1110.29 1801.95,1116.11 1809.56,1121.51 1817.39,1126.49 1825.45,1131.02 1833.71,1135.12 
  1842.17,1138.77 1850.82,1141.96 1859.64,1144.69 1868.61,1146.95 1877.74,1148.75 1887,1150.07 1896.39,1150.92 1905.88,1151.29 1915.47,1151.18 1925.15,1150.59 
  1934.89,1149.52 1944.69,1147.97 1954.54,1145.94 1964.41,1143.43 1974.29,1140.45 1984.18,1137 1994.05,1133.08 2003.9,1128.7 2013.7,1123.86 2023.45,1118.57 
  2033.13,1112.84 2042.73,1106.67 2052.23,1100.07 2061.62,1093.05 2070.89,1085.62 2080.02,1077.78 2089,1069.55 2097.81,1060.95 2106.45,1051.97 2114.9,1042.63 
  2123.15,1032.95 2131.19,1022.94 2139,1012.61 2146.57,1001.97 2153.9,991.042 2160.97,979.839 2167.77,968.376 2174.29,956.669 2180.52,944.733 2186.46,932.584 
  2192.09,920.241 2197.4,907.719 2202.38,895.037 2207.04,882.211 2211.35,869.26 2215.32,856.201 2218.94,843.054 2222.2,829.835 2225.1,816.565 2227.63,803.261 
  2229.79,789.942 2231.57,776.627 2232.97,763.336 2233.99,750.086 2234.62,736.896 2234.87,723.786 2234.73,710.774 2234.2,697.879 2233.29,685.118 2231.99,672.512 
  2230.3,660.076 2228.23,647.831 2225.78,635.792 2222.94,623.978 2219.73,612.406 2216.15,601.092 2212.2,590.054 2207.88,579.307 2203.21,568.867 2198.18,558.749 
  2192.81,548.969 2187.1,539.541 2181.06,530.479 2174.69,521.796 2168.01,513.506 2161.02,505.621 2153.74,498.154 2146.17,491.114 2138.32,484.514 2130.2,478.363 
  2121.83,472.671 2113.21,467.448 2104.36,462.701 2095.29,458.437 2086.01,454.665 2076.53,451.39 2066.88,448.618 2057.05,446.354 2047.07,444.603 2036.94,443.366 
  2026.69,442.649 2016.32,442.451 2005.85,442.776 1995.3,443.623 1984.68,444.992 1974,446.882 1963.29,449.293 1952.54,452.22 1941.79,455.662 1931.05,459.614 
  1920.32,464.072 1909.63,469.031 1898.99,474.484 1888.42,480.425 1877.92,486.846 1867.53,493.74 1857.24,501.097 1847.08,508.908 1837.06,517.164 1827.2,525.852 
  1817.5,534.962 1807.99,544.481 1798.67,554.398 1789.57,564.698 1780.69,575.368 1772.04,586.394 1763.65,597.761 1755.51,609.453 1747.65,621.454 1740.08,633.749 
  1732.8,646.32 1725.83,659.15 1719.18,672.222 1712.86,685.517 1706.88,699.017 1701.24,712.704 1695.96,726.558 1691.04,740.56 1686.49,754.691 1682.32,768.931 
  1678.54,783.26 1675.15,797.658 1672.16,812.105 1669.56,826.58 1667.38,841.064 1665.6,855.535 1664.24,869.972 1663.3,884.357 1662.77,898.667 1662.67,912.884 
  1662.98,926.986 1663.72,940.953 1664.88,954.765 1666.46,968.403 1668.46,981.846 1670.87,995.076 1673.7,1008.07 1676.95,1020.82 1680.6,1033.29 1684.65,1045.48 
  1689.1,1057.36 1693.95,1068.92 1699.18,1080.14 1704.8,1091 1710.78,1101.48 1717.13,1111.58 1723.84,1121.27 1730.9,1130.55 1738.3,1139.39 1746.02,1147.79 
  1754.07,1155.73 1762.42,1163.2 1771.07,1170.19 1780.01,1176.68 1789.22,1182.67 1798.69,1188.15 1808.41,1193.11 1818.36,1197.53 1828.54,1201.43 1838.92,1204.77 
  1849.5,1207.57 1860.25,1209.81 1871.17,1211.5 1882.24,1212.62 1893.43,1213.18 1904.75,1213.18 1916.17,1212.6 1927.68,1211.46 1939.25,1209.75 1950.88,1207.47 
  1962.55,1204.63 1974.23,1201.22 1985.92,1197.26 1997.6,1192.75 2009.25,1187.69 2020.86,1182.09 2032.4,1175.95 2043.87,1169.28 2055.24,1162.1 2066.5,1154.4 
  2077.63,1146.21 2088.62,1137.52 2099.45,1128.36 2110.11,1118.73 2120.57,1108.65 2130.84,1098.13 2140.88,1087.18 2150.68,1075.82 2160.24,1064.06 2169.54,1051.93 
  2178.56,1039.43 2187.29,1026.58 2195.71,1013.4 2203.82,999.912 2211.61,986.13 2219.05,972.073 2226.14,957.762 2232.87,943.215 2239.24,928.454 2245.22,913.497 
  2250.81,898.367 2256,883.083 2260.78,867.669 2265.15,852.144 2269.1,836.53 2272.62,820.851 2275.7,805.127 2278.35,789.38 2280.55,773.634 2282.3,757.91 
  
  "/>
</svg>
