<?xml version="1.0" encoding="utf-8"?>
<svg xmlns="http://www.w3.org/2000/svg" xmlns:xlink="http://www.w3.org/1999/xlink" width="400" height="280" viewBox="0 0 1600 1120">
<defs>
  <clipPath id="clip270">
    <rect x="0" y="0" width="1600" height="1120"/>
  </clipPath>
</defs>
<path clip-path="url(#clip270)" d="
M0 1120 L1600 1120 L1600 0 L0 0  Z
  " fill="#ffffff" fill-rule="evenodd" fill-opacity="1"/>
<defs>
  <clipPath id="clip271">
    <rect x="320" y="0" width="1121" height="1120"/>
  </clipPath>
</defs>
<path clip-path="url(#clip270)" d="
M493.478 943.876 L1310.86 943.876 L1310.86 126.496 L493.478 126.496  Z
  " fill="#ffffff" fill-rule="evenodd" fill-opacity="1"/>
<defs>
  <clipPath id="clip272">
    <rect x="493" y="126" width="818" height="818"/>
  </clipPath>
</defs>
<polyline clip-path="url(#clip272)" style="stroke:#000000; stroke-linecap:butt; stroke-linejoin:round; stroke-width:2; stroke-opacity:0.1; fill:none" points="
  530.632,943.876 530.632,126.496 
  "/>
<polyline clip-path="url(#clip272)" style="stroke:#000000; stroke-linecap:butt; stroke-linejoin:round; stroke-width:2; stroke-opacity:0.1; fill:none" points="
  716.4,943.876 716.4,126.496 
  "/>
<polyline clip-path="url(#clip272)" style="stroke:#000000; stroke-linecap:butt; stroke-linejoin:round; stroke-width:2; stroke-opacity:0.1; fill:none" points="
  902.168,943.876 902.168,126.496 
  "/>
<polyline clip-path="url(#clip272)" style="stroke:#000000; stroke-linecap:butt; stroke-linejoin:round; stroke-width:2; stroke-opacity:0.1; fill:none" points="
  1087.94,943.876 1087.94,126.496 
  "/>
<polyline clip-path="url(#clip272)" style="stroke:#000000; stroke-linecap:butt; stroke-linejoin:round; stroke-width:2; stroke-opacity:0.1; fill:none" points="
  1273.7,943.876 1273.7,126.496 
  "/>
<polyline clip-path="url(#clip270)" style="stroke:#000000; stroke-linecap:butt; stroke-linejoin:round; stroke-width:4; stroke-opacity:1; fill:none" points="
  493.478,943.876 1310.86,943.876 
  "/>
<polyline clip-path="url(#clip270)" style="stroke:#000000; stroke-linecap:butt; stroke-linejoin:round; stroke-width:4; stroke-opacity:1; fill:none" points="
  530.632,943.876 530.632,924.978 
  "/>
<polyline clip-path="url(#clip270)" style="stroke:#000000; stroke-linecap:butt; stroke-linejoin:round; stroke-width:4; stroke-opacity:1; fill:none" points="
  716.4,943.876 716.4,924.978 
  "/>
<polyline clip-path="url(#clip270)" style="stroke:#000000; stroke-linecap:butt; stroke-linejoin:round; stroke-width:4; stroke-opacity:1; fill:none" points="
  902.168,943.876 902.168,924.978 
  "/>
<polyline clip-path="url(#clip270)" style="stroke:#000000; stroke-linecap:butt; stroke-linejoin:round; stroke-width:4; stroke-opacity:1; fill:none" points="
  1087.94,943.876 1087.94,924.978 
  "/>
<polyline clip-path="url(#clip270)" style="stroke:#000000; stroke-linecap:butt; stroke-linejoin:round; stroke-width:4; stroke-opacity:1; fill:none" points="
  1273.7,943.876 1273.7,924.978 
  "/>
<path clip-path="url(#clip270)" d="M477.16 981.319 L506.836 981.319 L506.836 985.254 L477.16 985.254 L477.16 981.319 Z" fill="#000000" fill-rule="evenodd" fill-opacity="1" /><path clip-path="url(#clip270)" d="M517.738 994.213 L525.377 994.213 L525.377 967.847 L517.067 969.514 L517.067 965.255 L525.331 963.588 L530.007 963.588 L530.007 994.213 L537.646 994.213 L537.646 998.148 L517.738 998.148 L517.738 994.213 Z" fill="#000000" fill-rule="evenodd" fill-opacity="1" /><path clip-path="url(#clip270)" d="M547.09 992.268 L551.974 992.268 L551.974 998.148 L547.09 998.148 L547.09 992.268 Z" fill="#000000" fill-rule="evenodd" fill-opacity="1" /><path clip-path="url(#clip270)" d="M572.159 966.667 Q568.548 966.667 566.72 970.231 Q564.914 973.773 564.914 980.903 Q564.914 988.009 566.72 991.574 Q568.548 995.115 572.159 995.115 Q575.794 995.115 577.599 991.574 Q579.428 988.009 579.428 980.903 Q579.428 973.773 577.599 970.231 Q575.794 966.667 572.159 966.667 M572.159 962.963 Q577.969 962.963 581.025 967.569 Q584.104 972.153 584.104 980.903 Q584.104 989.629 581.025 994.236 Q577.969 998.819 572.159 998.819 Q566.349 998.819 563.27 994.236 Q560.215 989.629 560.215 980.903 Q560.215 972.153 563.27 967.569 Q566.349 962.963 572.159 962.963 Z" fill="#000000" fill-rule="evenodd" fill-opacity="1" /><path clip-path="url(#clip270)" d="M663.426 981.319 L693.101 981.319 L693.101 985.254 L663.426 985.254 L663.426 981.319 Z" fill="#000000" fill-rule="evenodd" fill-opacity="1" /><path clip-path="url(#clip270)" d="M713.194 966.667 Q709.583 966.667 707.754 970.231 Q705.949 973.773 705.949 980.903 Q705.949 988.009 707.754 991.574 Q709.583 995.115 713.194 995.115 Q716.828 995.115 718.634 991.574 Q720.462 988.009 720.462 980.903 Q720.462 973.773 718.634 970.231 Q716.828 966.667 713.194 966.667 M713.194 962.963 Q719.004 962.963 722.06 967.569 Q725.138 972.153 725.138 980.903 Q725.138 989.629 722.06 994.236 Q719.004 998.819 713.194 998.819 Q707.384 998.819 704.305 994.236 Q701.249 989.629 701.249 980.903 Q701.249 972.153 704.305 967.569 Q707.384 962.963 713.194 962.963 Z" fill="#000000" fill-rule="evenodd" fill-opacity="1" /><path clip-path="url(#clip270)" d="M733.356 992.268 L738.24 992.268 L738.24 998.148 L733.356 998.148 L733.356 992.268 Z" fill="#000000" fill-rule="evenodd" fill-opacity="1" /><path clip-path="url(#clip270)" d="M748.471 963.588 L766.828 963.588 L766.828 967.523 L752.754 967.523 L752.754 975.995 Q753.772 975.648 754.791 975.486 Q755.809 975.301 756.828 975.301 Q762.615 975.301 765.994 978.472 Q769.374 981.643 769.374 987.06 Q769.374 992.639 765.902 995.74 Q762.43 998.819 756.11 998.819 Q753.934 998.819 751.666 998.449 Q749.421 998.078 747.013 997.338 L747.013 992.639 Q749.096 993.773 751.319 994.328 Q753.541 994.884 756.018 994.884 Q760.022 994.884 762.36 992.778 Q764.698 990.671 764.698 987.06 Q764.698 983.449 762.36 981.342 Q760.022 979.236 756.018 979.236 Q754.143 979.236 752.268 979.653 Q750.416 980.069 748.471 980.949 L748.471 963.588 Z" fill="#000000" fill-rule="evenodd" fill-opacity="1" /><path clip-path="url(#clip270)" d="M879.552 966.667 Q875.941 966.667 874.113 970.231 Q872.307 973.773 872.307 980.903 Q872.307 988.009 874.113 991.574 Q875.941 995.115 879.552 995.115 Q883.187 995.115 884.992 991.574 Q886.821 988.009 886.821 980.903 Q886.821 973.773 884.992 970.231 Q883.187 966.667 879.552 966.667 M879.552 962.963 Q885.363 962.963 888.418 967.569 Q891.497 972.153 891.497 980.903 Q891.497 989.629 888.418 994.236 Q885.363 998.819 879.552 998.819 Q873.742 998.819 870.664 994.236 Q867.608 989.629 867.608 980.903 Q867.608 972.153 870.664 967.569 Q873.742 962.963 879.552 962.963 Z" fill="#000000" fill-rule="evenodd" fill-opacity="1" /><path clip-path="url(#clip270)" d="M899.714 992.268 L904.599 992.268 L904.599 998.148 L899.714 998.148 L899.714 992.268 Z" fill="#000000" fill-rule="evenodd" fill-opacity="1" /><path clip-path="url(#clip270)" d="M924.784 966.667 Q921.172 966.667 919.344 970.231 Q917.538 973.773 917.538 980.903 Q917.538 988.009 919.344 991.574 Q921.172 995.115 924.784 995.115 Q928.418 995.115 930.223 991.574 Q932.052 988.009 932.052 980.903 Q932.052 973.773 930.223 970.231 Q928.418 966.667 924.784 966.667 M924.784 962.963 Q930.594 962.963 933.649 967.569 Q936.728 972.153 936.728 980.903 Q936.728 989.629 933.649 994.236 Q930.594 998.819 924.784 998.819 Q918.973 998.819 915.895 994.236 Q912.839 989.629 912.839 980.903 Q912.839 972.153 915.895 967.569 Q918.973 962.963 924.784 962.963 Z" fill="#000000" fill-rule="evenodd" fill-opacity="1" /><path clip-path="url(#clip270)" d="M1065.82 966.667 Q1062.21 966.667 1060.38 970.231 Q1058.57 973.773 1058.57 980.903 Q1058.57 988.009 1060.38 991.574 Q1062.21 995.115 1065.82 995.115 Q1069.45 995.115 1071.26 991.574 Q1073.09 988.009 1073.09 980.903 Q1073.09 973.773 1071.26 970.231 Q1069.45 966.667 1065.82 966.667 M1065.82 962.963 Q1071.63 962.963 1074.68 967.569 Q1077.76 972.153 1077.76 980.903 Q1077.76 989.629 1074.68 994.236 Q1071.63 998.819 1065.82 998.819 Q1060.01 998.819 1056.93 994.236 Q1053.87 989.629 1053.87 980.903 Q1053.87 972.153 1056.93 967.569 Q1060.01 962.963 1065.82 962.963 Z" fill="#000000" fill-rule="evenodd" fill-opacity="1" /><path clip-path="url(#clip270)" d="M1085.98 992.268 L1090.86 992.268 L1090.86 998.148 L1085.98 998.148 L1085.98 992.268 Z" fill="#000000" fill-rule="evenodd" fill-opacity="1" /><path clip-path="url(#clip270)" d="M1101.1 963.588 L1119.45 963.588 L1119.45 967.523 L1105.38 967.523 L1105.38 975.995 Q1106.4 975.648 1107.42 975.486 Q1108.43 975.301 1109.45 975.301 Q1115.24 975.301 1118.62 978.472 Q1122 981.643 1122 987.06 Q1122 992.639 1118.53 995.74 Q1115.05 998.819 1108.73 998.819 Q1106.56 998.819 1104.29 998.449 Q1102.04 998.078 1099.64 997.338 L1099.64 992.639 Q1101.72 993.773 1103.94 994.328 Q1106.17 994.884 1108.64 994.884 Q1112.65 994.884 1114.98 992.778 Q1117.32 990.671 1117.32 987.06 Q1117.32 983.449 1114.98 981.342 Q1112.65 979.236 1108.64 979.236 Q1106.77 979.236 1104.89 979.653 Q1103.04 980.069 1101.1 980.949 L1101.1 963.588 Z" fill="#000000" fill-rule="evenodd" fill-opacity="1" /><path clip-path="url(#clip270)" d="M1240.86 994.213 L1248.5 994.213 L1248.5 967.847 L1240.19 969.514 L1240.19 965.255 L1248.45 963.588 L1253.13 963.588 L1253.13 994.213 L1260.76 994.213 L1260.76 998.148 L1240.86 998.148 L1240.86 994.213 Z" fill="#000000" fill-rule="evenodd" fill-opacity="1" /><path clip-path="url(#clip270)" d="M1270.21 992.268 L1275.09 992.268 L1275.09 998.148 L1270.21 998.148 L1270.21 992.268 Z" fill="#000000" fill-rule="evenodd" fill-opacity="1" /><path clip-path="url(#clip270)" d="M1295.28 966.667 Q1291.67 966.667 1289.84 970.231 Q1288.03 973.773 1288.03 980.903 Q1288.03 988.009 1289.84 991.574 Q1291.67 995.115 1295.28 995.115 Q1298.91 995.115 1300.72 991.574 Q1302.55 988.009 1302.55 980.903 Q1302.55 973.773 1300.72 970.231 Q1298.91 966.667 1295.28 966.667 M1295.28 962.963 Q1301.09 962.963 1304.14 967.569 Q1307.22 972.153 1307.22 980.903 Q1307.22 989.629 1304.14 994.236 Q1301.09 998.819 1295.28 998.819 Q1289.47 998.819 1286.39 994.236 Q1283.33 989.629 1283.33 980.903 Q1283.33 972.153 1286.39 967.569 Q1289.47 962.963 1295.28 962.963 Z" fill="#000000" fill-rule="evenodd" fill-opacity="1" /><path clip-path="url(#clip270)" d="M860.6 1054.46 Q862.669 1055.16 864.61 1057.45 Q866.584 1059.74 868.557 1063.75 L875.082 1076.74 L868.175 1076.74 L862.096 1064.55 Q859.741 1059.78 857.513 1058.22 Q855.316 1056.66 851.497 1056.66 L844.495 1056.66 L844.495 1076.74 L838.065 1076.74 L838.065 1029.22 L852.579 1029.22 Q860.727 1029.22 864.738 1032.63 Q868.748 1036.03 868.748 1042.91 Q868.748 1047.39 866.647 1050.35 Q864.578 1053.31 860.6 1054.46 M844.495 1034.5 L844.495 1051.37 L852.579 1051.37 Q857.226 1051.37 859.581 1049.24 Q861.969 1047.08 861.969 1042.91 Q861.969 1038.74 859.581 1036.64 Q857.226 1034.5 852.579 1034.5 L844.495 1034.5 Z" fill="#000000" fill-rule="evenodd" fill-opacity="1" /><path clip-path="url(#clip270)" d="M910.666 1057.45 L910.666 1060.32 L883.739 1060.32 Q884.121 1066.36 887.368 1069.55 Q890.646 1072.7 896.471 1072.7 Q899.844 1072.7 902.996 1071.87 Q906.178 1071.04 909.298 1069.39 L909.298 1074.93 Q906.147 1076.26 902.836 1076.96 Q899.526 1077.66 896.121 1077.66 Q887.59 1077.66 882.593 1072.7 Q877.628 1067.73 877.628 1059.27 Q877.628 1050.51 882.339 1045.39 Q887.081 1040.23 895.102 1040.23 Q902.295 1040.23 906.465 1044.88 Q910.666 1049.49 910.666 1057.45 M904.81 1055.73 Q904.746 1050.93 902.104 1048.06 Q899.494 1045.2 895.166 1045.2 Q890.264 1045.2 887.304 1047.97 Q884.376 1050.74 883.93 1055.76 L904.81 1055.73 Z" fill="#000000" fill-rule="evenodd" fill-opacity="1" /><path clip-path="url(#clip270)" d="M938.452 1041.09 L966.271 1041.09 L966.271 1046.44 L944.245 1072.06 L966.271 1072.06 L966.271 1076.74 L937.657 1076.74 L937.657 1071.39 L959.682 1045.77 L938.452 1045.77 L938.452 1041.09 Z" fill="#000000" fill-rule="evenodd" fill-opacity="1" /><polyline clip-path="url(#clip272)" style="stroke:#000000; stroke-linecap:butt; stroke-linejoin:round; stroke-width:2; stroke-opacity:0.1; fill:none" points="
  493.478,906.722 1310.86,906.722 
  "/>
<polyline clip-path="url(#clip272)" style="stroke:#000000; stroke-linecap:butt; stroke-linejoin:round; stroke-width:2; stroke-opacity:0.1; fill:none" points="
  493.478,720.954 1310.86,720.954 
  "/>
<polyline clip-path="url(#clip272)" style="stroke:#000000; stroke-linecap:butt; stroke-linejoin:round; stroke-width:2; stroke-opacity:0.1; fill:none" points="
  493.478,535.186 1310.86,535.186 
  "/>
<polyline clip-path="url(#clip272)" style="stroke:#000000; stroke-linecap:butt; stroke-linejoin:round; stroke-width:2; stroke-opacity:0.1; fill:none" points="
  493.478,349.418 1310.86,349.418 
  "/>
<polyline clip-path="url(#clip272)" style="stroke:#000000; stroke-linecap:butt; stroke-linejoin:round; stroke-width:2; stroke-opacity:0.1; fill:none" points="
  493.478,163.65 1310.86,163.65 
  "/>
<polyline clip-path="url(#clip270)" style="stroke:#000000; stroke-linecap:butt; stroke-linejoin:round; stroke-width:4; stroke-opacity:1; fill:none" points="
  493.478,943.876 493.478,126.496 
  "/>
<polyline clip-path="url(#clip270)" style="stroke:#000000; stroke-linecap:butt; stroke-linejoin:round; stroke-width:4; stroke-opacity:1; fill:none" points="
  493.478,906.722 505.349,906.722 
  "/>
<polyline clip-path="url(#clip270)" style="stroke:#000000; stroke-linecap:butt; stroke-linejoin:round; stroke-width:4; stroke-opacity:1; fill:none" points="
  493.478,720.954 505.349,720.954 
  "/>
<polyline clip-path="url(#clip270)" style="stroke:#000000; stroke-linecap:butt; stroke-linejoin:round; stroke-width:4; stroke-opacity:1; fill:none" points="
  493.478,535.186 505.349,535.186 
  "/>
<polyline clip-path="url(#clip270)" style="stroke:#000000; stroke-linecap:butt; stroke-linejoin:round; stroke-width:4; stroke-opacity:1; fill:none" points="
  493.478,349.418 505.349,349.418 
  "/>
<polyline clip-path="url(#clip270)" style="stroke:#000000; stroke-linecap:butt; stroke-linejoin:round; stroke-width:4; stroke-opacity:1; fill:none" points="
  493.478,163.65 505.349,163.65 
  "/>
<path clip-path="url(#clip270)" d="M362.534 907.174 L392.21 907.174 L392.21 911.109 L362.534 911.109 L362.534 907.174 Z" fill="#000000" fill-rule="evenodd" fill-opacity="1" /><path clip-path="url(#clip270)" d="M403.113 920.067 L410.752 920.067 L410.752 893.701 L402.441 895.368 L402.441 891.109 L410.705 889.442 L415.381 889.442 L415.381 920.067 L423.02 920.067 L423.02 924.002 L403.113 924.002 L403.113 920.067 Z" fill="#000000" fill-rule="evenodd" fill-opacity="1" /><path clip-path="url(#clip270)" d="M432.464 918.123 L437.349 918.123 L437.349 924.002 L432.464 924.002 L432.464 918.123 Z" fill="#000000" fill-rule="evenodd" fill-opacity="1" /><path clip-path="url(#clip270)" d="M457.534 892.521 Q453.923 892.521 452.094 896.086 Q450.288 899.627 450.288 906.757 Q450.288 913.863 452.094 917.428 Q453.923 920.97 457.534 920.97 Q461.168 920.97 462.974 917.428 Q464.802 913.863 464.802 906.757 Q464.802 899.627 462.974 896.086 Q461.168 892.521 457.534 892.521 M457.534 888.817 Q463.344 888.817 466.399 893.424 Q469.478 898.007 469.478 906.757 Q469.478 915.484 466.399 920.09 Q463.344 924.674 457.534 924.674 Q451.724 924.674 448.645 920.09 Q445.589 915.484 445.589 906.757 Q445.589 898.007 448.645 893.424 Q451.724 888.817 457.534 888.817 Z" fill="#000000" fill-rule="evenodd" fill-opacity="1" /><path clip-path="url(#clip270)" d="M363.53 721.405 L393.205 721.405 L393.205 725.341 L363.53 725.341 L363.53 721.405 Z" fill="#000000" fill-rule="evenodd" fill-opacity="1" /><path clip-path="url(#clip270)" d="M413.298 706.753 Q409.687 706.753 407.858 710.318 Q406.053 713.859 406.053 720.989 Q406.053 728.095 407.858 731.66 Q409.687 735.202 413.298 735.202 Q416.932 735.202 418.738 731.66 Q420.566 728.095 420.566 720.989 Q420.566 713.859 418.738 710.318 Q416.932 706.753 413.298 706.753 M413.298 703.049 Q419.108 703.049 422.164 707.656 Q425.242 712.239 425.242 720.989 Q425.242 729.716 422.164 734.322 Q419.108 738.905 413.298 738.905 Q407.488 738.905 404.409 734.322 Q401.353 729.716 401.353 720.989 Q401.353 712.239 404.409 707.656 Q407.488 703.049 413.298 703.049 Z" fill="#000000" fill-rule="evenodd" fill-opacity="1" /><path clip-path="url(#clip270)" d="M433.46 732.355 L438.344 732.355 L438.344 738.234 L433.46 738.234 L433.46 732.355 Z" fill="#000000" fill-rule="evenodd" fill-opacity="1" /><path clip-path="url(#clip270)" d="M448.575 703.674 L466.932 703.674 L466.932 707.609 L452.858 707.609 L452.858 716.081 Q453.876 715.734 454.895 715.572 Q455.913 715.387 456.932 715.387 Q462.719 715.387 466.098 718.558 Q469.478 721.73 469.478 727.146 Q469.478 732.725 466.006 735.827 Q462.534 738.905 456.214 738.905 Q454.038 738.905 451.77 738.535 Q449.525 738.165 447.117 737.424 L447.117 732.725 Q449.2 733.859 451.423 734.415 Q453.645 734.97 456.122 734.97 Q460.126 734.97 462.464 732.864 Q464.802 730.757 464.802 727.146 Q464.802 723.535 462.464 721.429 Q460.126 719.322 456.122 719.322 Q454.247 719.322 452.372 719.739 Q450.52 720.155 448.575 721.035 L448.575 703.674 Z" fill="#000000" fill-rule="evenodd" fill-opacity="1" /><path clip-path="url(#clip270)" d="M412.302 520.985 Q408.691 520.985 406.863 524.549 Q405.057 528.091 405.057 535.221 Q405.057 542.327 406.863 545.892 Q408.691 549.434 412.302 549.434 Q415.937 549.434 417.742 545.892 Q419.571 542.327 419.571 535.221 Q419.571 528.091 417.742 524.549 Q415.937 520.985 412.302 520.985 M412.302 517.281 Q418.113 517.281 421.168 521.887 Q424.247 526.471 424.247 535.221 Q424.247 543.948 421.168 548.554 Q418.113 553.137 412.302 553.137 Q406.492 553.137 403.414 548.554 Q400.358 543.948 400.358 535.221 Q400.358 526.471 403.414 521.887 Q406.492 517.281 412.302 517.281 Z" fill="#000000" fill-rule="evenodd" fill-opacity="1" /><path clip-path="url(#clip270)" d="M432.464 546.586 L437.349 546.586 L437.349 552.466 L432.464 552.466 L432.464 546.586 Z" fill="#000000" fill-rule="evenodd" fill-opacity="1" /><path clip-path="url(#clip270)" d="M457.534 520.985 Q453.923 520.985 452.094 524.549 Q450.288 528.091 450.288 535.221 Q450.288 542.327 452.094 545.892 Q453.923 549.434 457.534 549.434 Q461.168 549.434 462.974 545.892 Q464.802 542.327 464.802 535.221 Q464.802 528.091 462.974 524.549 Q461.168 520.985 457.534 520.985 M457.534 517.281 Q463.344 517.281 466.399 521.887 Q469.478 526.471 469.478 535.221 Q469.478 543.948 466.399 548.554 Q463.344 553.137 457.534 553.137 Q451.724 553.137 448.645 548.554 Q445.589 543.948 445.589 535.221 Q445.589 526.471 448.645 521.887 Q451.724 517.281 457.534 517.281 Z" fill="#000000" fill-rule="evenodd" fill-opacity="1" /><path clip-path="url(#clip270)" d="M413.298 335.217 Q409.687 335.217 407.858 338.781 Q406.053 342.323 406.053 349.453 Q406.053 356.559 407.858 360.124 Q409.687 363.665 413.298 363.665 Q416.932 363.665 418.738 360.124 Q420.566 356.559 420.566 349.453 Q420.566 342.323 418.738 338.781 Q416.932 335.217 413.298 335.217 M413.298 331.513 Q419.108 331.513 422.164 336.119 Q425.242 340.703 425.242 349.453 Q425.242 358.179 422.164 362.786 Q419.108 367.369 413.298 367.369 Q407.488 367.369 404.409 362.786 Q401.353 358.179 401.353 349.453 Q401.353 340.703 404.409 336.119 Q407.488 331.513 413.298 331.513 Z" fill="#000000" fill-rule="evenodd" fill-opacity="1" /><path clip-path="url(#clip270)" d="M433.46 360.818 L438.344 360.818 L438.344 366.698 L433.46 366.698 L433.46 360.818 Z" fill="#000000" fill-rule="evenodd" fill-opacity="1" /><path clip-path="url(#clip270)" d="M448.575 332.138 L466.932 332.138 L466.932 336.073 L452.858 336.073 L452.858 344.545 Q453.876 344.198 454.895 344.036 Q455.913 343.851 456.932 343.851 Q462.719 343.851 466.098 347.022 Q469.478 350.193 469.478 355.61 Q469.478 361.189 466.006 364.29 Q462.534 367.369 456.214 367.369 Q454.038 367.369 451.77 366.999 Q449.525 366.628 447.117 365.888 L447.117 361.189 Q449.2 362.323 451.423 362.878 Q453.645 363.434 456.122 363.434 Q460.126 363.434 462.464 361.328 Q464.802 359.221 464.802 355.61 Q464.802 351.999 462.464 349.892 Q460.126 347.786 456.122 347.786 Q454.247 347.786 452.372 348.203 Q450.52 348.619 448.575 349.499 L448.575 332.138 Z" fill="#000000" fill-rule="evenodd" fill-opacity="1" /><path clip-path="url(#clip270)" d="M403.113 176.995 L410.752 176.995 L410.752 150.629 L402.441 152.296 L402.441 148.036 L410.705 146.37 L415.381 146.37 L415.381 176.995 L423.02 176.995 L423.02 180.93 L403.113 180.93 L403.113 176.995 Z" fill="#000000" fill-rule="evenodd" fill-opacity="1" /><path clip-path="url(#clip270)" d="M432.464 175.05 L437.349 175.05 L437.349 180.93 L432.464 180.93 L432.464 175.05 Z" fill="#000000" fill-rule="evenodd" fill-opacity="1" /><path clip-path="url(#clip270)" d="M457.534 149.448 Q453.923 149.448 452.094 153.013 Q450.288 156.555 450.288 163.684 Q450.288 170.791 452.094 174.356 Q453.923 177.897 457.534 177.897 Q461.168 177.897 462.974 174.356 Q464.802 170.791 464.802 163.684 Q464.802 156.555 462.974 153.013 Q461.168 149.448 457.534 149.448 M457.534 145.745 Q463.344 145.745 466.399 150.351 Q469.478 154.935 469.478 163.684 Q469.478 172.411 466.399 177.018 Q463.344 181.601 457.534 181.601 Q451.724 181.601 448.645 177.018 Q445.589 172.411 445.589 163.684 Q445.589 154.935 448.645 150.351 Q451.724 145.745 457.534 145.745 Z" fill="#000000" fill-rule="evenodd" fill-opacity="1" /><path clip-path="url(#clip270)" d="M276.758 599.416 L276.758 592.987 L324.278 592.987 L324.278 599.416 L276.758 599.416 Z" fill="#000000" fill-rule="evenodd" fill-opacity="1" /><path clip-path="url(#clip270)" d="M295.473 552.692 Q291.527 550.496 289.649 547.44 Q287.771 544.384 287.771 540.247 Q287.771 534.677 291.686 531.653 Q295.569 528.629 302.762 528.629 L324.278 528.629 L324.278 534.518 L302.953 534.518 Q297.829 534.518 295.346 536.332 Q292.863 538.146 292.863 541.87 Q292.863 546.421 295.887 549.063 Q298.911 551.705 304.131 551.705 L324.278 551.705 L324.278 557.593 L302.953 557.593 Q297.797 557.593 295.346 559.407 Q292.863 561.222 292.863 565.009 Q292.863 569.497 295.919 572.139 Q298.943 574.781 304.131 574.781 L324.278 574.781 L324.278 580.669 L288.63 580.669 L288.63 574.781 L294.168 574.781 Q290.89 572.775 289.331 569.975 Q287.771 567.174 287.771 563.322 Q287.771 559.439 289.744 556.734 Q291.718 553.997 295.473 552.692 Z" fill="#000000" fill-rule="evenodd" fill-opacity="1" /><path clip-path="url(#clip270)" d="M288.63 498.774 L288.63 470.956 L293.977 470.956 L319.599 492.981 L319.599 470.956 L324.278 470.956 L324.278 499.57 L318.931 499.57 L293.309 477.545 L293.309 498.774 L288.63 498.774 Z" fill="#000000" fill-rule="evenodd" fill-opacity="1" /><path clip-path="url(#clip270)" d="M251.451 16.7545 L251.451 25.383 Q247.319 21.5346 242.62 19.6307 Q237.961 17.7268 232.695 17.7268 Q222.325 17.7268 216.816 24.0867 Q211.307 30.4061 211.307 42.3968 Q211.307 54.3469 216.816 60.7069 Q222.325 67.0263 232.695 67.0263 Q237.961 67.0263 242.62 65.1223 Q247.319 63.2184 251.451 59.3701 L251.451 67.9175 Q247.157 70.8341 242.336 72.2924 Q237.556 73.7508 232.209 73.7508 Q218.477 73.7508 210.577 65.3654 Q202.678 56.9395 202.678 42.3968 Q202.678 27.8135 210.577 19.4281 Q218.477 11.0023 232.209 11.0023 Q237.637 11.0023 242.417 12.4606 Q247.238 13.8784 251.451 16.7545 Z" fill="#000000" fill-rule="evenodd" fill-opacity="1" /><path clip-path="url(#clip270)" d="M281.347 32.4315 Q275.351 32.4315 271.868 37.1306 Q268.384 41.7891 268.384 49.9314 Q268.384 58.0738 271.827 62.7728 Q275.311 67.4314 281.347 67.4314 Q287.301 67.4314 290.785 62.7323 Q294.269 58.0333 294.269 49.9314 Q294.269 41.8701 290.785 37.1711 Q287.301 32.4315 281.347 32.4315 M281.347 26.1121 Q291.069 26.1121 296.619 32.4315 Q302.168 38.7509 302.168 49.9314 Q302.168 61.0714 296.619 67.4314 Q291.069 73.7508 281.347 73.7508 Q271.584 73.7508 266.034 67.4314 Q260.525 61.0714 260.525 49.9314 Q260.525 38.7509 266.034 32.4315 Q271.584 26.1121 281.347 26.1121 Z" fill="#000000" fill-rule="evenodd" fill-opacity="1" /><path clip-path="url(#clip270)" d="M349.847 35.9153 Q352.643 30.8922 356.531 28.5022 Q360.42 26.1121 365.686 26.1121 Q372.776 26.1121 376.624 31.0947 Q380.472 36.0368 380.472 45.1919 L380.472 72.576 L372.978 72.576 L372.978 45.4349 Q372.978 38.913 370.669 35.7533 Q368.36 32.5936 363.621 32.5936 Q357.828 32.5936 354.465 36.4419 Q351.103 40.2903 351.103 46.9338 L351.103 72.576 L343.609 72.576 L343.609 45.4349 Q343.609 38.8725 341.3 35.7533 Q338.991 32.5936 334.17 32.5936 Q328.459 32.5936 325.096 36.4824 Q321.734 40.3308 321.734 46.9338 L321.734 72.576 L314.24 72.576 L314.24 27.2059 L321.734 27.2059 L321.734 34.2544 Q324.286 30.082 327.851 28.0971 Q331.416 26.1121 336.317 26.1121 Q341.26 26.1121 344.703 28.6237 Q348.187 31.1352 349.847 35.9153 Z" fill="#000000" fill-rule="evenodd" fill-opacity="1" /><path clip-path="url(#clip270)" d="M402.55 65.7705 L402.55 89.8329 L395.056 89.8329 L395.056 27.2059 L402.55 27.2059 L402.55 34.0924 Q404.899 30.0415 408.464 28.0971 Q412.069 26.1121 417.052 26.1121 Q425.316 26.1121 430.46 32.6746 Q435.646 39.2371 435.646 49.9314 Q435.646 60.6258 430.46 67.1883 Q425.316 73.7508 417.052 73.7508 Q412.069 73.7508 408.464 71.8063 Q404.899 69.8214 402.55 65.7705 M427.908 49.9314 Q427.908 41.7081 424.506 37.0496 Q421.143 32.3505 415.229 32.3505 Q409.315 32.3505 405.912 37.0496 Q402.55 41.7081 402.55 49.9314 Q402.55 58.1548 405.912 62.8538 Q409.315 67.5124 415.229 67.5124 Q421.143 67.5124 424.506 62.8538 Q427.908 58.1548 427.908 49.9314 Z" fill="#000000" fill-rule="evenodd" fill-opacity="1" /><path clip-path="url(#clip270)" d="M448.001 9.54393 L455.455 9.54393 L455.455 72.576 L448.001 72.576 L448.001 9.54393 Z" fill="#000000" fill-rule="evenodd" fill-opacity="1" /><path clip-path="url(#clip270)" d="M509.858 48.0275 L509.858 51.6733 L475.587 51.6733 Q476.074 59.3701 480.206 63.421 Q484.378 67.4314 491.791 67.4314 Q496.085 67.4314 500.095 66.3781 Q504.146 65.3249 508.116 63.2184 L508.116 70.267 Q504.106 71.9684 499.893 72.8596 Q495.68 73.7508 491.346 73.7508 Q480.489 73.7508 474.129 67.4314 Q467.81 61.1119 467.81 50.3365 Q467.81 39.1965 473.805 32.6746 Q479.841 26.1121 490.049 26.1121 Q499.204 26.1121 504.511 32.0264 Q509.858 37.9003 509.858 48.0275 M502.404 45.84 Q502.323 39.7232 498.961 36.0774 Q495.639 32.4315 490.13 32.4315 Q483.892 32.4315 480.125 35.9558 Q476.398 39.4801 475.831 45.8805 L502.404 45.84 Z" fill="#000000" fill-rule="evenodd" fill-opacity="1" /><path clip-path="url(#clip270)" d="M558.347 27.2059 L541.941 49.2833 L559.198 72.576 L550.408 72.576 L537.202 54.752 L523.996 72.576 L515.205 72.576 L532.827 48.8377 L516.704 27.2059 L525.495 27.2059 L537.526 43.369 L549.557 27.2059 L558.347 27.2059 Z" fill="#000000" fill-rule="evenodd" fill-opacity="1" /><path clip-path="url(#clip270)" d="M634.91 48.0275 L634.91 51.6733 L600.639 51.6733 Q601.125 59.3701 605.257 63.421 Q609.429 67.4314 616.843 67.4314 Q621.136 67.4314 625.147 66.3781 Q629.198 65.3249 633.168 63.2184 L633.168 70.267 Q629.157 71.9684 624.944 72.8596 Q620.731 73.7508 616.397 73.7508 Q605.541 73.7508 599.181 67.4314 Q592.861 61.1119 592.861 50.3365 Q592.861 39.1965 598.857 32.6746 Q604.892 26.1121 615.101 26.1121 Q624.256 26.1121 629.562 32.0264 Q634.91 37.9003 634.91 48.0275 M627.456 45.84 Q627.375 39.7232 624.013 36.0774 Q620.691 32.4315 615.182 32.4315 Q608.943 32.4315 605.176 35.9558 Q601.449 39.4801 600.882 45.8805 L627.456 45.84 Z" fill="#000000" fill-rule="evenodd" fill-opacity="1" /><path clip-path="url(#clip270)" d="M683.399 27.2059 L666.993 49.2833 L684.25 72.576 L675.459 72.576 L662.253 54.752 L649.047 72.576 L640.257 72.576 L657.878 48.8377 L641.756 27.2059 L650.546 27.2059 L662.577 43.369 L674.608 27.2059 L683.399 27.2059 Z" fill="#000000" fill-rule="evenodd" fill-opacity="1" /><path clip-path="url(#clip270)" d="M701.993 65.7705 L701.993 89.8329 L694.498 89.8329 L694.498 27.2059 L701.993 27.2059 L701.993 34.0924 Q704.342 30.0415 707.907 28.0971 Q711.512 26.1121 716.495 26.1121 Q724.759 26.1121 729.903 32.6746 Q735.088 39.2371 735.088 49.9314 Q735.088 60.6258 729.903 67.1883 Q724.759 73.7508 716.495 73.7508 Q711.512 73.7508 707.907 71.8063 Q704.342 69.8214 701.993 65.7705 M727.351 49.9314 Q727.351 41.7081 723.948 37.0496 Q720.586 32.3505 714.672 32.3505 Q708.758 32.3505 705.355 37.0496 Q701.993 41.7081 701.993 49.9314 Q701.993 58.1548 705.355 62.8538 Q708.758 67.5124 714.672 67.5124 Q720.586 67.5124 723.948 62.8538 Q727.351 58.1548 727.351 49.9314 Z" fill="#000000" fill-rule="evenodd" fill-opacity="1" /><path clip-path="url(#clip270)" d="M765.025 32.4315 Q759.029 32.4315 755.545 37.1306 Q752.062 41.7891 752.062 49.9314 Q752.062 58.0738 755.505 62.7728 Q758.989 67.4314 765.025 67.4314 Q770.979 67.4314 774.463 62.7323 Q777.947 58.0333 777.947 49.9314 Q777.947 41.8701 774.463 37.1711 Q770.979 32.4315 765.025 32.4315 M765.025 26.1121 Q774.747 26.1121 780.297 32.4315 Q785.846 38.7509 785.846 49.9314 Q785.846 61.0714 780.297 67.4314 Q774.747 73.7508 765.025 73.7508 Q755.262 73.7508 749.712 67.4314 Q744.203 61.0714 744.203 49.9314 Q744.203 38.7509 749.712 32.4315 Q755.262 26.1121 765.025 26.1121 Z" fill="#000000" fill-rule="evenodd" fill-opacity="1" /><path clip-path="url(#clip270)" d="M835.915 45.1919 L835.915 72.576 L828.462 72.576 L828.462 45.4349 Q828.462 38.994 825.95 35.7938 Q823.439 32.5936 818.416 32.5936 Q812.38 32.5936 808.896 36.4419 Q805.412 40.2903 805.412 46.9338 L805.412 72.576 L797.918 72.576 L797.918 27.2059 L805.412 27.2059 L805.412 34.2544 Q808.086 30.163 811.691 28.1376 Q815.337 26.1121 820.076 26.1121 Q827.895 26.1121 831.905 30.9732 Q835.915 35.7938 835.915 45.1919 Z" fill="#000000" fill-rule="evenodd" fill-opacity="1" /><path clip-path="url(#clip270)" d="M889.59 48.0275 L889.59 51.6733 L855.319 51.6733 Q855.805 59.3701 859.937 63.421 Q864.11 67.4314 871.523 67.4314 Q875.817 67.4314 879.827 66.3781 Q883.878 65.3249 887.848 63.2184 L887.848 70.267 Q883.838 71.9684 879.625 72.8596 Q875.412 73.7508 871.077 73.7508 Q860.221 73.7508 853.861 67.4314 Q847.542 61.1119 847.542 50.3365 Q847.542 39.1965 853.537 32.6746 Q859.573 26.1121 869.781 26.1121 Q878.936 26.1121 884.243 32.0264 Q889.59 37.9003 889.59 48.0275 M882.136 45.84 Q882.055 39.7232 878.693 36.0774 Q875.371 32.4315 869.862 32.4315 Q863.624 32.4315 859.856 35.9558 Q856.129 39.4801 855.562 45.8805 L882.136 45.84 Z" fill="#000000" fill-rule="evenodd" fill-opacity="1" /><path clip-path="url(#clip270)" d="M939.538 45.1919 L939.538 72.576 L932.084 72.576 L932.084 45.4349 Q932.084 38.994 929.572 35.7938 Q927.061 32.5936 922.038 32.5936 Q916.002 32.5936 912.518 36.4419 Q909.034 40.2903 909.034 46.9338 L909.034 72.576 L901.54 72.576 L901.54 27.2059 L909.034 27.2059 L909.034 34.2544 Q911.708 30.163 915.313 28.1376 Q918.959 26.1121 923.699 26.1121 Q931.517 26.1121 935.527 30.9732 Q939.538 35.7938 939.538 45.1919 Z" fill="#000000" fill-rule="evenodd" fill-opacity="1" /><path clip-path="url(#clip270)" d="M961.777 14.324 L961.777 27.2059 L977.13 27.2059 L977.13 32.9987 L961.777 32.9987 L961.777 57.6282 Q961.777 63.1779 963.276 64.7578 Q964.815 66.3376 969.474 66.3376 L977.13 66.3376 L977.13 72.576 L969.474 72.576 Q960.845 72.576 957.564 69.3758 Q954.283 66.1351 954.283 57.6282 L954.283 32.9987 L948.814 32.9987 L948.814 27.2059 L954.283 27.2059 L954.283 14.324 L961.777 14.324 Z" fill="#000000" fill-rule="evenodd" fill-opacity="1" /><path clip-path="url(#clip270)" d="M986.933 27.2059 L994.387 27.2059 L994.387 72.576 L986.933 72.576 L986.933 27.2059 M986.933 9.54393 L994.387 9.54393 L994.387 18.9825 L986.933 18.9825 L986.933 9.54393 Z" fill="#000000" fill-rule="evenodd" fill-opacity="1" /><path clip-path="url(#clip270)" d="M1030.6 49.7694 Q1021.57 49.7694 1018.08 51.8354 Q1014.6 53.9013 1014.6 58.8839 Q1014.6 62.8538 1017.19 65.2034 Q1019.83 67.5124 1024.32 67.5124 Q1030.52 67.5124 1034.25 63.1374 Q1038.02 58.7219 1038.02 51.4303 L1038.02 49.7694 L1030.6 49.7694 M1045.47 46.6907 L1045.47 72.576 L1038.02 72.576 L1038.02 65.6895 Q1035.46 69.8214 1031.66 71.8063 Q1027.85 73.7508 1022.34 73.7508 Q1015.37 73.7508 1011.24 69.8619 Q1007.15 65.9325 1007.15 59.3701 Q1007.15 51.7138 1012.25 47.825 Q1017.4 43.9361 1027.56 43.9361 L1038.02 43.9361 L1038.02 43.2069 Q1038.02 38.0623 1034.61 35.2672 Q1031.25 32.4315 1025.13 32.4315 Q1021.24 32.4315 1017.56 33.3632 Q1013.87 34.295 1010.47 36.1584 L1010.47 29.2718 Q1014.56 27.692 1018.41 26.9223 Q1022.26 26.1121 1025.9 26.1121 Q1035.75 26.1121 1040.61 31.2163 Q1045.47 36.3204 1045.47 46.6907 Z" fill="#000000" fill-rule="evenodd" fill-opacity="1" /><path clip-path="url(#clip270)" d="M1060.82 9.54393 L1068.28 9.54393 L1068.28 72.576 L1060.82 72.576 L1060.82 9.54393 Z" fill="#000000" fill-rule="evenodd" fill-opacity="1" /><path clip-path="url(#clip270)" d="M1111.21 34.9026 L1163.15 34.9026 L1163.15 41.7081 L1111.21 41.7081 L1111.21 34.9026 M1111.21 51.4303 L1163.15 51.4303 L1163.15 58.3168 L1111.21 58.3168 L1111.21 51.4303 Z" fill="#000000" fill-rule="evenodd" fill-opacity="1" /><path clip-path="url(#clip270)" d="M1205.36 54.671 L1205.36 27.2059 L1212.81 27.2059 L1212.81 54.3874 Q1212.81 60.8284 1215.32 64.0691 Q1217.83 67.2693 1222.86 67.2693 Q1228.89 67.2693 1232.38 63.421 Q1235.9 59.5726 1235.9 52.9291 L1235.9 27.2059 L1243.36 27.2059 L1243.36 72.576 L1235.9 72.576 L1235.9 65.6084 Q1233.19 69.7404 1229.58 71.7658 Q1226.02 73.7508 1221.28 73.7508 Q1213.46 73.7508 1209.41 68.8897 Q1205.36 64.0286 1205.36 54.671 M1224.11 26.1121 L1224.11 26.1121 Z" fill="#000000" fill-rule="evenodd" fill-opacity="1" /><path clip-path="url(#clip270)" d="M1296.42 45.1919 L1296.42 72.576 L1288.97 72.576 L1288.97 45.4349 Q1288.97 38.994 1286.46 35.7938 Q1283.95 32.5936 1278.92 32.5936 Q1272.89 32.5936 1269.4 36.4419 Q1265.92 40.2903 1265.92 46.9338 L1265.92 72.576 L1258.42 72.576 L1258.42 27.2059 L1265.92 27.2059 L1265.92 34.2544 Q1268.59 30.163 1272.2 28.1376 Q1275.84 26.1121 1280.58 26.1121 Q1288.4 26.1121 1292.41 30.9732 Q1296.42 35.7938 1296.42 45.1919 Z" fill="#000000" fill-rule="evenodd" fill-opacity="1" /><path clip-path="url(#clip270)" d="M1311.29 27.2059 L1318.74 27.2059 L1318.74 72.576 L1311.29 72.576 L1311.29 27.2059 M1311.29 9.54393 L1318.74 9.54393 L1318.74 18.9825 L1311.29 18.9825 L1311.29 9.54393 Z" fill="#000000" fill-rule="evenodd" fill-opacity="1" /><path clip-path="url(#clip270)" d="M1341.71 14.324 L1341.71 27.2059 L1357.06 27.2059 L1357.06 32.9987 L1341.71 32.9987 L1341.71 57.6282 Q1341.71 63.1779 1343.21 64.7578 Q1344.75 66.3376 1349.41 66.3376 L1357.06 66.3376 L1357.06 72.576 L1349.41 72.576 Q1340.78 72.576 1337.5 69.3758 Q1334.22 66.1351 1334.22 57.6282 L1334.22 32.9987 L1328.75 32.9987 L1328.75 27.2059 L1334.22 27.2059 L1334.22 14.324 L1341.71 14.324 Z" fill="#000000" fill-rule="evenodd" fill-opacity="1" /><path clip-path="url(#clip270)" d="M1425.89 28.9478 L1425.89 35.9153 Q1422.73 34.1734 1419.53 33.3227 Q1416.37 32.4315 1413.13 32.4315 Q1405.88 32.4315 1401.87 37.0496 Q1397.86 41.6271 1397.86 49.9314 Q1397.86 58.2358 1401.87 62.8538 Q1405.88 67.4314 1413.13 67.4314 Q1416.37 67.4314 1419.53 66.5807 Q1422.73 65.6895 1425.89 63.9476 L1425.89 70.8341 Q1422.77 72.2924 1419.41 73.0216 Q1416.09 73.7508 1412.32 73.7508 Q1402.07 73.7508 1396.03 67.3098 Q1390 60.8689 1390 49.9314 Q1390 38.832 1396.07 32.472 Q1402.19 26.1121 1412.8 26.1121 Q1416.25 26.1121 1419.53 26.8413 Q1422.81 27.5299 1425.89 28.9478 Z" fill="#000000" fill-rule="evenodd" fill-opacity="1" /><path clip-path="url(#clip270)" d="M1438.85 27.2059 L1446.31 27.2059 L1446.31 72.576 L1438.85 72.576 L1438.85 27.2059 M1438.85 9.54393 L1446.31 9.54393 L1446.31 18.9825 L1438.85 18.9825 L1438.85 9.54393 Z" fill="#000000" fill-rule="evenodd" fill-opacity="1" /><path clip-path="url(#clip270)" d="M1488.19 34.1734 Q1486.94 33.4443 1485.44 33.1202 Q1483.98 32.7556 1482.2 32.7556 Q1475.88 32.7556 1472.47 36.8875 Q1469.11 40.9789 1469.11 48.6757 L1469.11 72.576 L1461.62 72.576 L1461.62 27.2059 L1469.11 27.2059 L1469.11 34.2544 Q1471.46 30.1225 1475.23 28.1376 Q1479 26.1121 1484.38 26.1121 Q1485.15 26.1121 1486.09 26.2337 Q1487.02 26.3147 1488.15 26.5172 L1488.19 34.1734 Z" fill="#000000" fill-rule="evenodd" fill-opacity="1" /><path clip-path="url(#clip270)" d="M1526.84 28.9478 L1526.84 35.9153 Q1523.68 34.1734 1520.48 33.3227 Q1517.32 32.4315 1514.08 32.4315 Q1506.83 32.4315 1502.82 37.0496 Q1498.81 41.6271 1498.81 49.9314 Q1498.81 58.2358 1502.82 62.8538 Q1506.83 67.4314 1514.08 67.4314 Q1517.32 67.4314 1520.48 66.5807 Q1523.68 65.6895 1526.84 63.9476 L1526.84 70.8341 Q1523.72 72.2924 1520.36 73.0216 Q1517.03 73.7508 1513.27 73.7508 Q1503.02 73.7508 1496.98 67.3098 Q1490.95 60.8689 1490.95 49.9314 Q1490.95 38.832 1497.02 32.472 Q1503.14 26.1121 1513.75 26.1121 Q1517.2 26.1121 1520.48 26.8413 Q1523.76 27.5299 1526.84 28.9478 Z" fill="#000000" fill-rule="evenodd" fill-opacity="1" /><path clip-path="url(#clip270)" d="M1539.8 9.54393 L1547.25 9.54393 L1547.25 72.576 L1539.8 72.576 L1539.8 9.54393 Z" fill="#000000" fill-rule="evenodd" fill-opacity="1" /><path clip-path="url(#clip270)" d="M1601.66 48.0275 L1601.66 51.6733 L1567.39 51.6733 Q1567.87 59.3701 1572.01 63.421 Q1576.18 67.4314 1583.59 67.4314 Q1587.88 67.4314 1591.9 66.3781 Q1595.95 65.3249 1599.92 63.2184 L1599.92 70.267 Q1595.91 71.9684 1591.69 72.8596 Q1587.48 73.7508 1583.15 73.7508 Q1572.29 73.7508 1565.93 67.4314 Q1559.61 61.1119 1559.61 50.3365 Q1559.61 39.1965 1565.6 32.6746 Q1571.64 26.1121 1581.85 26.1121 Q1591 26.1121 1596.31 32.0264 Q1601.66 37.9003 1601.66 48.0275 M1594.2 45.84 Q1594.12 39.7232 1590.76 36.0774 Q1587.44 32.4315 1581.93 32.4315 Q1575.69 32.4315 1571.92 35.9558 Q1568.2 39.4801 1567.63 45.8805 L1594.2 45.84 Z" fill="#000000" fill-rule="evenodd" fill-opacity="1" /><polyline clip-path="url(#clip272)" style="stroke:#009af9; stroke-linecap:butt; stroke-linejoin:round; stroke-width:8; stroke-opacity:1; fill:none" points="
  1273.7,535.186 1272.96,511.74 1270.75,488.387 1267.06,465.221 1261.91,442.334 1255.34,419.817 1247.35,397.76 1237.99,376.251 1227.29,355.375 1215.3,335.216 
  1202.06,315.855 1187.62,297.367 1172.04,279.828 1155.39,263.306 1137.73,247.868 1119.13,233.576 1099.66,220.486 1079.41,208.65 1058.45,198.116 1036.86,188.926 
  1014.75,181.116 992.177,174.718 969.25,169.756 946.056,166.251 922.686,164.217 899.235,163.661 875.796,164.587 852.462,166.99 829.325,170.86 806.48,176.183 
  784.015,182.937 762.022,191.096 740.587,200.625 719.796,211.489 699.733,223.643 680.476,237.038 662.103,251.623 644.687,267.337 628.298,284.12 613,301.903 
  598.855,320.616 585.919,340.184 574.243,360.53 563.875,381.572 554.856,403.227 547.22,425.407 541,448.025 536.22,470.99 532.898,494.212 531.048,517.596 
  530.678,541.051 531.789,564.483 534.376,587.797 538.429,610.902 543.932,633.705 550.863,656.116 559.194,678.044 568.893,699.403 579.92,720.107 592.232,740.074 
  605.78,759.224 620.508,777.481 636.36,794.773 653.271,811.029 671.175,826.186 689.999,840.183 709.669,852.965 730.106,864.479 751.229,874.681 772.954,883.529 
  795.194,890.989 817.86,897.03 840.863,901.63 864.11,904.768 887.508,906.433 910.965,906.618 934.387,905.323 957.681,902.552 980.753,898.316 1003.51,892.633 
  1025.87,885.526 1047.73,877.021 1069.01,867.154 1089.63,855.964 1109.5,843.495 1128.54,829.797 1146.68,814.924 1163.84,798.937 1179.97,781.898 1194.98,763.875 
  1208.83,744.941 1221.46,725.171 1232.81,704.643 1242.84,683.44 1251.52,661.646 1258.8,639.348 1264.67,616.635 1269.08,593.597 1272.04,570.326 1273.52,546.915 
  1273.52,523.457 1272.04,500.046 1269.08,476.775 1264.67,453.737 1258.8,431.024 1251.52,408.726 1242.84,386.932 1232.81,365.729 1221.46,345.201 1208.83,325.431 
  1194.98,306.497 1179.97,288.474 1163.84,271.435 1146.68,255.448 1128.54,240.575 1109.5,226.877 1089.63,214.408 1069.01,203.218 1047.73,193.351 1025.87,184.846 
  1003.51,177.739 980.753,172.056 957.681,167.82 934.387,165.049 910.965,163.754 887.508,163.939 864.11,165.604 840.863,168.742 817.86,173.342 795.194,179.383 
  772.954,186.843 751.229,195.691 730.106,205.893 709.669,217.407 689.999,230.189 671.175,244.186 653.271,259.343 636.36,275.599 620.508,292.891 605.78,311.148 
  592.232,330.298 579.92,350.265 568.893,370.969 559.194,392.328 550.863,414.256 543.932,436.667 538.429,459.47 534.376,482.575 531.789,505.889 530.678,529.321 
  531.048,552.776 532.898,576.16 536.22,599.382 541,622.347 547.22,644.965 554.856,667.145 563.875,688.8 574.243,709.842 585.919,730.188 598.855,749.756 
  613,768.469 628.298,786.252 644.687,803.035 662.103,818.749 680.476,833.333 699.733,846.729 719.796,858.883 740.587,869.747 762.022,879.276 784.015,887.435 
  806.48,894.189 829.325,899.512 852.462,903.382 875.796,905.785 899.235,906.711 922.686,906.155 946.056,904.121 969.25,900.616 992.177,895.654 1014.75,889.256 
  1036.86,881.446 1058.45,872.256 1079.41,861.722 1099.66,849.886 1119.13,836.796 1137.73,822.504 1155.39,807.066 1172.04,790.544 1187.62,773.005 1202.06,754.517 
  1215.3,735.156 1227.29,714.997 1237.99,694.121 1247.35,672.612 1255.34,650.555 1261.91,628.038 1267.06,605.151 1270.75,581.985 1272.96,558.632 1273.7,535.186 
  
  "/>
</svg>
