<?xml version="1.0" encoding="utf-8"?>
<svg xmlns="http://www.w3.org/2000/svg" xmlns:xlink="http://www.w3.org/1999/xlink" width="600" height="400" viewBox="0 0 2400 1600">
<defs>
  <clipPath id="clip070">
    <rect x="0" y="0" width="2400" height="1600"/>
  </clipPath>
</defs>
<path clip-path="url(#clip070)" d="
M0 1600 L2400 1600 L2400 0 L0 0  Z
  " fill="#ffffff" fill-rule="evenodd" fill-opacity="1"/>
<defs>
  <clipPath id="clip071">
    <rect x="480" y="0" width="1681" height="1600"/>
  </clipPath>
</defs>
<path clip-path="url(#clip070)" d="
M257.204 1423.18 L2352.76 1423.18 L2352.76 123.472 L257.204 123.472  Z
  " fill="#ffffff" fill-rule="evenodd" fill-opacity="1"/>
<defs>
  <clipPath id="clip072">
    <rect x="257" y="123" width="2097" height="1301"/>
  </clipPath>
</defs>
<polyline clip-path="url(#clip072)" style="stroke:#000000; stroke-linecap:butt; stroke-linejoin:round; stroke-width:2; stroke-opacity:0.1; fill:none" points="
  385.309,1423.18 385.309,123.472 
  "/>
<polyline clip-path="url(#clip072)" style="stroke:#000000; stroke-linecap:butt; stroke-linejoin:round; stroke-width:2; stroke-opacity:0.1; fill:none" points="
  691.853,1423.18 691.853,123.472 
  "/>
<polyline clip-path="url(#clip072)" style="stroke:#000000; stroke-linecap:butt; stroke-linejoin:round; stroke-width:2; stroke-opacity:0.1; fill:none" points="
  998.397,1423.18 998.397,123.472 
  "/>
<polyline clip-path="url(#clip072)" style="stroke:#000000; stroke-linecap:butt; stroke-linejoin:round; stroke-width:2; stroke-opacity:0.1; fill:none" points="
  1304.94,1423.18 1304.94,123.472 
  "/>
<polyline clip-path="url(#clip072)" style="stroke:#000000; stroke-linecap:butt; stroke-linejoin:round; stroke-width:2; stroke-opacity:0.1; fill:none" points="
  1611.49,1423.18 1611.49,123.472 
  "/>
<polyline clip-path="url(#clip072)" style="stroke:#000000; stroke-linecap:butt; stroke-linejoin:round; stroke-width:2; stroke-opacity:0.1; fill:none" points="
  1918.03,1423.18 1918.03,123.472 
  "/>
<polyline clip-path="url(#clip072)" style="stroke:#000000; stroke-linecap:butt; stroke-linejoin:round; stroke-width:2; stroke-opacity:0.1; fill:none" points="
  2224.57,1423.18 2224.57,123.472 
  "/>
<polyline clip-path="url(#clip070)" style="stroke:#000000; stroke-linecap:butt; stroke-linejoin:round; stroke-width:4; stroke-opacity:1; fill:none" points="
  257.204,1423.18 2352.76,1423.18 
  "/>
<polyline clip-path="url(#clip070)" style="stroke:#000000; stroke-linecap:butt; stroke-linejoin:round; stroke-width:4; stroke-opacity:1; fill:none" points="
  385.309,1423.18 385.309,1404.28 
  "/>
<polyline clip-path="url(#clip070)" style="stroke:#000000; stroke-linecap:butt; stroke-linejoin:round; stroke-width:4; stroke-opacity:1; fill:none" points="
  691.853,1423.18 691.853,1404.28 
  "/>
<polyline clip-path="url(#clip070)" style="stroke:#000000; stroke-linecap:butt; stroke-linejoin:round; stroke-width:4; stroke-opacity:1; fill:none" points="
  998.397,1423.18 998.397,1404.28 
  "/>
<polyline clip-path="url(#clip070)" style="stroke:#000000; stroke-linecap:butt; stroke-linejoin:round; stroke-width:4; stroke-opacity:1; fill:none" points="
  1304.94,1423.18 1304.94,1404.28 
  "/>
<polyline clip-path="url(#clip070)" style="stroke:#000000; stroke-linecap:butt; stroke-linejoin:round; stroke-width:4; stroke-opacity:1; fill:none" points="
  1611.49,1423.18 1611.49,1404.28 
  "/>
<polyline clip-path="url(#clip070)" style="stroke:#000000; stroke-linecap:butt; stroke-linejoin:round; stroke-width:4; stroke-opacity:1; fill:none" points="
  1918.03,1423.18 1918.03,1404.28 
  "/>
<polyline clip-path="url(#clip070)" style="stroke:#000000; stroke-linecap:butt; stroke-linejoin:round; stroke-width:4; stroke-opacity:1; fill:none" points="
  2224.57,1423.18 2224.57,1404.28 
  "/>
<path clip-path="url(#clip070)" d="M332.334 1467.02 L362.01 1467.02 L362.01 1470.96 L332.334 1470.96 L332.334 1467.02 Z" fill="#000000" fill-rule="evenodd" fill-opacity="1" /><path clip-path="url(#clip070)" d="M372.913 1479.92 L380.552 1479.92 L380.552 1453.55 L372.242 1455.22 L372.242 1450.96 L380.505 1449.29 L385.181 1449.29 L385.181 1479.92 L392.82 1479.92 L392.82 1483.85 L372.913 1483.85 L372.913 1479.92 Z" fill="#000000" fill-rule="evenodd" fill-opacity="1" /><path clip-path="url(#clip070)" d="M402.265 1477.97 L407.149 1477.97 L407.149 1483.85 L402.265 1483.85 L402.265 1477.97 Z" fill="#000000" fill-rule="evenodd" fill-opacity="1" /><path clip-path="url(#clip070)" d="M417.38 1449.29 L435.737 1449.29 L435.737 1453.23 L421.663 1453.23 L421.663 1461.7 Q422.681 1461.35 423.7 1461.19 Q424.718 1461 425.737 1461 Q431.524 1461 434.903 1464.18 Q438.283 1467.35 438.283 1472.76 Q438.283 1478.34 434.811 1481.44 Q431.338 1484.52 425.019 1484.52 Q422.843 1484.52 420.575 1484.15 Q418.329 1483.78 415.922 1483.04 L415.922 1478.34 Q418.005 1479.48 420.227 1480.03 Q422.45 1480.59 424.926 1480.59 Q428.931 1480.59 431.269 1478.48 Q433.607 1476.38 433.607 1472.76 Q433.607 1469.15 431.269 1467.05 Q428.931 1464.94 424.926 1464.94 Q423.051 1464.94 421.176 1465.36 Q419.325 1465.77 417.38 1466.65 L417.38 1449.29 Z" fill="#000000" fill-rule="evenodd" fill-opacity="1" /><path clip-path="url(#clip070)" d="M638.381 1467.02 L668.057 1467.02 L668.057 1470.96 L638.381 1470.96 L638.381 1467.02 Z" fill="#000000" fill-rule="evenodd" fill-opacity="1" /><path clip-path="url(#clip070)" d="M678.96 1479.92 L686.598 1479.92 L686.598 1453.55 L678.288 1455.22 L678.288 1450.96 L686.552 1449.29 L691.228 1449.29 L691.228 1479.92 L698.867 1479.92 L698.867 1483.85 L678.96 1483.85 L678.96 1479.92 Z" fill="#000000" fill-rule="evenodd" fill-opacity="1" /><path clip-path="url(#clip070)" d="M708.311 1477.97 L713.195 1477.97 L713.195 1483.85 L708.311 1483.85 L708.311 1477.97 Z" fill="#000000" fill-rule="evenodd" fill-opacity="1" /><path clip-path="url(#clip070)" d="M733.381 1452.37 Q729.769 1452.37 727.941 1455.94 Q726.135 1459.48 726.135 1466.61 Q726.135 1473.71 727.941 1477.28 Q729.769 1480.82 733.381 1480.82 Q737.015 1480.82 738.82 1477.28 Q740.649 1473.71 740.649 1466.61 Q740.649 1459.48 738.82 1455.94 Q737.015 1452.37 733.381 1452.37 M733.381 1448.67 Q739.191 1448.67 742.246 1453.27 Q745.325 1457.86 745.325 1466.61 Q745.325 1475.33 742.246 1479.94 Q739.191 1484.52 733.381 1484.52 Q727.57 1484.52 724.492 1479.94 Q721.436 1475.33 721.436 1466.61 Q721.436 1457.86 724.492 1453.27 Q727.57 1448.67 733.381 1448.67 Z" fill="#000000" fill-rule="evenodd" fill-opacity="1" /><path clip-path="url(#clip070)" d="M945.423 1467.02 L975.099 1467.02 L975.099 1470.96 L945.423 1470.96 L945.423 1467.02 Z" fill="#000000" fill-rule="evenodd" fill-opacity="1" /><path clip-path="url(#clip070)" d="M995.191 1452.37 Q991.58 1452.37 989.752 1455.94 Q987.946 1459.48 987.946 1466.61 Q987.946 1473.71 989.752 1477.28 Q991.58 1480.82 995.191 1480.82 Q998.826 1480.82 1000.63 1477.28 Q1002.46 1473.71 1002.46 1466.61 Q1002.46 1459.48 1000.63 1455.94 Q998.826 1452.37 995.191 1452.37 M995.191 1448.67 Q1001 1448.67 1004.06 1453.27 Q1007.14 1457.86 1007.14 1466.61 Q1007.14 1475.33 1004.06 1479.94 Q1001 1484.52 995.191 1484.52 Q989.381 1484.52 986.303 1479.94 Q983.247 1475.33 983.247 1466.61 Q983.247 1457.86 986.303 1453.27 Q989.381 1448.67 995.191 1448.67 Z" fill="#000000" fill-rule="evenodd" fill-opacity="1" /><path clip-path="url(#clip070)" d="M1015.35 1477.97 L1020.24 1477.97 L1020.24 1483.85 L1015.35 1483.85 L1015.35 1477.97 Z" fill="#000000" fill-rule="evenodd" fill-opacity="1" /><path clip-path="url(#clip070)" d="M1030.47 1449.29 L1048.83 1449.29 L1048.83 1453.23 L1034.75 1453.23 L1034.75 1461.7 Q1035.77 1461.35 1036.79 1461.19 Q1037.81 1461 1038.83 1461 Q1044.61 1461 1047.99 1464.18 Q1051.37 1467.35 1051.37 1472.76 Q1051.37 1478.34 1047.9 1481.44 Q1044.43 1484.52 1038.11 1484.52 Q1035.93 1484.52 1033.66 1484.15 Q1031.42 1483.78 1029.01 1483.04 L1029.01 1478.34 Q1031.09 1479.48 1033.32 1480.03 Q1035.54 1480.59 1038.02 1480.59 Q1042.02 1480.59 1044.36 1478.48 Q1046.7 1476.38 1046.7 1472.76 Q1046.7 1469.15 1044.36 1467.05 Q1042.02 1464.94 1038.02 1464.94 Q1036.14 1464.94 1034.27 1465.36 Q1032.41 1465.77 1030.47 1466.65 L1030.47 1449.29 Z" fill="#000000" fill-rule="evenodd" fill-opacity="1" /><path clip-path="url(#clip070)" d="M1282.33 1452.37 Q1278.72 1452.37 1276.89 1455.94 Q1275.08 1459.48 1275.08 1466.61 Q1275.08 1473.71 1276.89 1477.28 Q1278.72 1480.82 1282.33 1480.82 Q1285.96 1480.82 1287.77 1477.28 Q1289.59 1473.71 1289.59 1466.61 Q1289.59 1459.48 1287.77 1455.94 Q1285.96 1452.37 1282.33 1452.37 M1282.33 1448.67 Q1288.14 1448.67 1291.19 1453.27 Q1294.27 1457.86 1294.27 1466.61 Q1294.27 1475.33 1291.19 1479.94 Q1288.14 1484.52 1282.33 1484.52 Q1276.52 1484.52 1273.44 1479.94 Q1270.38 1475.33 1270.38 1466.61 Q1270.38 1457.86 1273.44 1453.27 Q1276.52 1448.67 1282.33 1448.67 Z" fill="#000000" fill-rule="evenodd" fill-opacity="1" /><path clip-path="url(#clip070)" d="M1302.49 1477.97 L1307.37 1477.97 L1307.37 1483.85 L1302.49 1483.85 L1302.49 1477.97 Z" fill="#000000" fill-rule="evenodd" fill-opacity="1" /><path clip-path="url(#clip070)" d="M1327.56 1452.37 Q1323.95 1452.37 1322.12 1455.94 Q1320.31 1459.48 1320.31 1466.61 Q1320.31 1473.71 1322.12 1477.28 Q1323.95 1480.82 1327.56 1480.82 Q1331.19 1480.82 1333 1477.28 Q1334.83 1473.71 1334.83 1466.61 Q1334.83 1459.48 1333 1455.94 Q1331.19 1452.37 1327.56 1452.37 M1327.56 1448.67 Q1333.37 1448.67 1336.42 1453.27 Q1339.5 1457.86 1339.5 1466.61 Q1339.5 1475.33 1336.42 1479.94 Q1333.37 1484.52 1327.56 1484.52 Q1321.75 1484.52 1318.67 1479.94 Q1315.61 1475.33 1315.61 1466.61 Q1315.61 1457.86 1318.67 1453.27 Q1321.75 1448.67 1327.56 1448.67 Z" fill="#000000" fill-rule="evenodd" fill-opacity="1" /><path clip-path="url(#clip070)" d="M1589.37 1452.37 Q1585.76 1452.37 1583.93 1455.94 Q1582.12 1459.48 1582.12 1466.61 Q1582.12 1473.71 1583.93 1477.28 Q1585.76 1480.82 1589.37 1480.82 Q1593 1480.82 1594.81 1477.28 Q1596.64 1473.71 1596.64 1466.61 Q1596.64 1459.48 1594.81 1455.94 Q1593 1452.37 1589.37 1452.37 M1589.37 1448.67 Q1595.18 1448.67 1598.23 1453.27 Q1601.31 1457.86 1601.31 1466.61 Q1601.31 1475.33 1598.23 1479.94 Q1595.18 1484.52 1589.37 1484.52 Q1583.56 1484.52 1580.48 1479.94 Q1577.42 1475.33 1577.42 1466.61 Q1577.42 1457.86 1580.48 1453.27 Q1583.56 1448.67 1589.37 1448.67 Z" fill="#000000" fill-rule="evenodd" fill-opacity="1" /><path clip-path="url(#clip070)" d="M1609.53 1477.97 L1614.41 1477.97 L1614.41 1483.85 L1609.53 1483.85 L1609.53 1477.97 Z" fill="#000000" fill-rule="evenodd" fill-opacity="1" /><path clip-path="url(#clip070)" d="M1624.65 1449.29 L1643 1449.29 L1643 1453.23 L1628.93 1453.23 L1628.93 1461.7 Q1629.95 1461.35 1630.97 1461.19 Q1631.98 1461 1633 1461 Q1638.79 1461 1642.17 1464.18 Q1645.55 1467.35 1645.55 1472.76 Q1645.55 1478.34 1642.08 1481.44 Q1638.6 1484.52 1632.28 1484.52 Q1630.11 1484.52 1627.84 1484.15 Q1625.59 1483.78 1623.19 1483.04 L1623.19 1478.34 Q1625.27 1479.48 1627.49 1480.03 Q1629.72 1480.59 1632.19 1480.59 Q1636.2 1480.59 1638.53 1478.48 Q1640.87 1476.38 1640.87 1472.76 Q1640.87 1469.15 1638.53 1467.05 Q1636.2 1464.94 1632.19 1464.94 Q1630.32 1464.94 1628.44 1465.36 Q1626.59 1465.77 1624.65 1466.65 L1624.65 1449.29 Z" fill="#000000" fill-rule="evenodd" fill-opacity="1" /><path clip-path="url(#clip070)" d="M1885.18 1479.92 L1892.82 1479.92 L1892.82 1453.55 L1884.51 1455.22 L1884.51 1450.96 L1892.78 1449.29 L1897.45 1449.29 L1897.45 1479.92 L1905.09 1479.92 L1905.09 1483.85 L1885.18 1483.85 L1885.18 1479.92 Z" fill="#000000" fill-rule="evenodd" fill-opacity="1" /><path clip-path="url(#clip070)" d="M1914.54 1477.97 L1919.42 1477.97 L1919.42 1483.85 L1914.54 1483.85 L1914.54 1477.97 Z" fill="#000000" fill-rule="evenodd" fill-opacity="1" /><path clip-path="url(#clip070)" d="M1939.6 1452.37 Q1935.99 1452.37 1934.16 1455.94 Q1932.36 1459.48 1932.36 1466.61 Q1932.36 1473.71 1934.16 1477.28 Q1935.99 1480.82 1939.6 1480.82 Q1943.24 1480.82 1945.04 1477.28 Q1946.87 1473.71 1946.87 1466.61 Q1946.87 1459.48 1945.04 1455.94 Q1943.24 1452.37 1939.6 1452.37 M1939.6 1448.67 Q1945.41 1448.67 1948.47 1453.27 Q1951.55 1457.86 1951.55 1466.61 Q1951.55 1475.33 1948.47 1479.94 Q1945.41 1484.52 1939.6 1484.52 Q1933.79 1484.52 1930.72 1479.94 Q1927.66 1475.33 1927.66 1466.61 Q1927.66 1457.86 1930.72 1453.27 Q1933.79 1448.67 1939.6 1448.67 Z" fill="#000000" fill-rule="evenodd" fill-opacity="1" /><path clip-path="url(#clip070)" d="M2192.23 1479.92 L2199.86 1479.92 L2199.86 1453.55 L2191.55 1455.22 L2191.55 1450.96 L2199.82 1449.29 L2204.49 1449.29 L2204.49 1479.92 L2212.13 1479.92 L2212.13 1483.85 L2192.23 1483.85 L2192.23 1479.92 Z" fill="#000000" fill-rule="evenodd" fill-opacity="1" /><path clip-path="url(#clip070)" d="M2221.58 1477.97 L2226.46 1477.97 L2226.46 1483.85 L2221.58 1483.85 L2221.58 1477.97 Z" fill="#000000" fill-rule="evenodd" fill-opacity="1" /><path clip-path="url(#clip070)" d="M2236.69 1449.29 L2255.05 1449.29 L2255.05 1453.23 L2240.98 1453.23 L2240.98 1461.7 Q2241.99 1461.35 2243.01 1461.19 Q2244.03 1461 2245.05 1461 Q2250.84 1461 2254.22 1464.18 Q2257.6 1467.35 2257.6 1472.76 Q2257.6 1478.34 2254.12 1481.44 Q2250.65 1484.52 2244.33 1484.52 Q2242.16 1484.52 2239.89 1484.15 Q2237.64 1483.78 2235.23 1483.04 L2235.23 1478.34 Q2237.32 1479.48 2239.54 1480.03 Q2241.76 1480.59 2244.24 1480.59 Q2248.24 1480.59 2250.58 1478.48 Q2252.92 1476.38 2252.92 1472.76 Q2252.92 1469.15 2250.58 1467.05 Q2248.24 1464.94 2244.24 1464.94 Q2242.36 1464.94 2240.49 1465.36 Q2238.64 1465.77 2236.69 1466.65 L2236.69 1449.29 Z" fill="#000000" fill-rule="evenodd" fill-opacity="1" /><path clip-path="url(#clip070)" d="M1263.41 1545.76 Q1265.48 1546.46 1267.42 1548.76 Q1269.4 1551.05 1271.37 1555.06 L1277.89 1568.04 L1270.99 1568.04 L1264.91 1555.85 Q1262.55 1551.08 1260.32 1549.52 Q1258.13 1547.96 1254.31 1547.96 L1247.31 1547.96 L1247.31 1568.04 L1240.88 1568.04 L1240.88 1520.52 L1255.39 1520.52 Q1263.54 1520.52 1267.55 1523.93 Q1271.56 1527.34 1271.56 1534.21 Q1271.56 1538.7 1269.46 1541.66 Q1267.39 1544.62 1263.41 1545.76 M1247.31 1525.81 L1247.31 1542.68 L1255.39 1542.68 Q1260.04 1542.68 1262.39 1540.54 Q1264.78 1538.38 1264.78 1534.21 Q1264.78 1530.04 1262.39 1527.94 Q1260.04 1525.81 1255.39 1525.81 L1247.31 1525.81 Z" fill="#000000" fill-rule="evenodd" fill-opacity="1" /><path clip-path="url(#clip070)" d="M1313.48 1548.76 L1313.48 1551.62 L1286.55 1551.62 Q1286.93 1557.67 1290.18 1560.85 Q1293.46 1564 1299.28 1564 Q1302.66 1564 1305.81 1563.17 Q1308.99 1562.35 1312.11 1560.69 L1312.11 1566.23 Q1308.96 1567.57 1305.65 1568.27 Q1302.34 1568.97 1298.93 1568.97 Q1290.4 1568.97 1285.41 1564 Q1280.44 1559.04 1280.44 1550.57 Q1280.44 1541.82 1285.15 1536.69 Q1289.89 1531.54 1297.91 1531.54 Q1305.11 1531.54 1309.28 1536.18 Q1313.48 1540.8 1313.48 1548.76 M1307.62 1547.04 Q1307.56 1542.23 1304.92 1539.37 Q1302.31 1536.5 1297.98 1536.5 Q1293.08 1536.5 1290.12 1539.27 Q1287.19 1542.04 1286.74 1547.07 L1307.62 1547.04 Z" fill="#000000" fill-rule="evenodd" fill-opacity="1" /><path clip-path="url(#clip070)" d="M1341.26 1532.4 L1369.08 1532.4 L1369.08 1537.74 L1347.06 1563.37 L1369.08 1563.37 L1369.08 1568.04 L1340.47 1568.04 L1340.47 1562.7 L1362.49 1537.07 L1341.26 1537.07 L1341.26 1532.4 Z" fill="#000000" fill-rule="evenodd" fill-opacity="1" /><polyline clip-path="url(#clip072)" style="stroke:#000000; stroke-linecap:butt; stroke-linejoin:round; stroke-width:2; stroke-opacity:0.1; fill:none" points="
  257.204,1386.41 2352.76,1386.41 
  "/>
<polyline clip-path="url(#clip072)" style="stroke:#000000; stroke-linecap:butt; stroke-linejoin:round; stroke-width:2; stroke-opacity:0.1; fill:none" points="
  257.204,1079.87 2352.76,1079.87 
  "/>
<polyline clip-path="url(#clip072)" style="stroke:#000000; stroke-linecap:butt; stroke-linejoin:round; stroke-width:2; stroke-opacity:0.1; fill:none" points="
  257.204,773.326 2352.76,773.326 
  "/>
<polyline clip-path="url(#clip072)" style="stroke:#000000; stroke-linecap:butt; stroke-linejoin:round; stroke-width:2; stroke-opacity:0.1; fill:none" points="
  257.204,466.782 2352.76,466.782 
  "/>
<polyline clip-path="url(#clip072)" style="stroke:#000000; stroke-linecap:butt; stroke-linejoin:round; stroke-width:2; stroke-opacity:0.1; fill:none" points="
  257.204,160.237 2352.76,160.237 
  "/>
<polyline clip-path="url(#clip070)" style="stroke:#000000; stroke-linecap:butt; stroke-linejoin:round; stroke-width:4; stroke-opacity:1; fill:none" points="
  257.204,1423.18 257.204,123.472 
  "/>
<polyline clip-path="url(#clip070)" style="stroke:#000000; stroke-linecap:butt; stroke-linejoin:round; stroke-width:4; stroke-opacity:1; fill:none" points="
  257.204,1386.41 276.102,1386.41 
  "/>
<polyline clip-path="url(#clip070)" style="stroke:#000000; stroke-linecap:butt; stroke-linejoin:round; stroke-width:4; stroke-opacity:1; fill:none" points="
  257.204,1079.87 276.102,1079.87 
  "/>
<polyline clip-path="url(#clip070)" style="stroke:#000000; stroke-linecap:butt; stroke-linejoin:round; stroke-width:4; stroke-opacity:1; fill:none" points="
  257.204,773.326 276.102,773.326 
  "/>
<polyline clip-path="url(#clip070)" style="stroke:#000000; stroke-linecap:butt; stroke-linejoin:round; stroke-width:4; stroke-opacity:1; fill:none" points="
  257.204,466.782 276.102,466.782 
  "/>
<polyline clip-path="url(#clip070)" style="stroke:#000000; stroke-linecap:butt; stroke-linejoin:round; stroke-width:4; stroke-opacity:1; fill:none" points="
  257.204,160.237 276.102,160.237 
  "/>
<path clip-path="url(#clip070)" d="M114.26 1386.87 L143.936 1386.87 L143.936 1390.8 L114.26 1390.8 L114.26 1386.87 Z" fill="#000000" fill-rule="evenodd" fill-opacity="1" /><path clip-path="url(#clip070)" d="M154.839 1399.76 L162.477 1399.76 L162.477 1373.39 L154.167 1375.06 L154.167 1370.8 L162.431 1369.13 L167.107 1369.13 L167.107 1399.76 L174.746 1399.76 L174.746 1403.69 L154.839 1403.69 L154.839 1399.76 Z" fill="#000000" fill-rule="evenodd" fill-opacity="1" /><path clip-path="url(#clip070)" d="M184.19 1397.82 L189.075 1397.82 L189.075 1403.69 L184.19 1403.69 L184.19 1397.82 Z" fill="#000000" fill-rule="evenodd" fill-opacity="1" /><path clip-path="url(#clip070)" d="M209.26 1372.21 Q205.649 1372.21 203.82 1375.78 Q202.014 1379.32 202.014 1386.45 Q202.014 1393.56 203.82 1397.12 Q205.649 1400.66 209.26 1400.66 Q212.894 1400.66 214.699 1397.12 Q216.528 1393.56 216.528 1386.45 Q216.528 1379.32 214.699 1375.78 Q212.894 1372.21 209.26 1372.21 M209.26 1368.51 Q215.07 1368.51 218.125 1373.12 Q221.204 1377.7 221.204 1386.45 Q221.204 1395.18 218.125 1399.78 Q215.07 1404.37 209.26 1404.37 Q203.449 1404.37 200.371 1399.78 Q197.315 1395.18 197.315 1386.45 Q197.315 1377.7 200.371 1373.12 Q203.449 1368.51 209.26 1368.51 Z" fill="#000000" fill-rule="evenodd" fill-opacity="1" /><path clip-path="url(#clip070)" d="M115.256 1080.32 L144.931 1080.32 L144.931 1084.26 L115.256 1084.26 L115.256 1080.32 Z" fill="#000000" fill-rule="evenodd" fill-opacity="1" /><path clip-path="url(#clip070)" d="M165.024 1065.67 Q161.413 1065.67 159.584 1069.23 Q157.778 1072.78 157.778 1079.91 Q157.778 1087.01 159.584 1090.58 Q161.413 1094.12 165.024 1094.12 Q168.658 1094.12 170.464 1090.58 Q172.292 1087.01 172.292 1079.91 Q172.292 1072.78 170.464 1069.23 Q168.658 1065.67 165.024 1065.67 M165.024 1061.97 Q170.834 1061.97 173.889 1066.57 Q176.968 1071.16 176.968 1079.91 Q176.968 1088.63 173.889 1093.24 Q170.834 1097.82 165.024 1097.82 Q159.214 1097.82 156.135 1093.24 Q153.079 1088.63 153.079 1079.91 Q153.079 1071.16 156.135 1066.57 Q159.214 1061.97 165.024 1061.97 Z" fill="#000000" fill-rule="evenodd" fill-opacity="1" /><path clip-path="url(#clip070)" d="M185.186 1091.27 L190.07 1091.27 L190.07 1097.15 L185.186 1097.15 L185.186 1091.27 Z" fill="#000000" fill-rule="evenodd" fill-opacity="1" /><path clip-path="url(#clip070)" d="M200.301 1062.59 L218.658 1062.59 L218.658 1066.53 L204.584 1066.53 L204.584 1075 Q205.602 1074.65 206.621 1074.49 Q207.639 1074.3 208.658 1074.3 Q214.445 1074.3 217.824 1077.47 Q221.204 1080.65 221.204 1086.06 Q221.204 1091.64 217.732 1094.74 Q214.26 1097.82 207.94 1097.82 Q205.764 1097.82 203.496 1097.45 Q201.25 1097.08 198.843 1096.34 L198.843 1091.64 Q200.926 1092.78 203.149 1093.33 Q205.371 1093.89 207.848 1093.89 Q211.852 1093.89 214.19 1091.78 Q216.528 1089.67 216.528 1086.06 Q216.528 1082.45 214.19 1080.34 Q211.852 1078.24 207.848 1078.24 Q205.973 1078.24 204.098 1078.66 Q202.246 1079.07 200.301 1079.95 L200.301 1062.59 Z" fill="#000000" fill-rule="evenodd" fill-opacity="1" /><path clip-path="url(#clip070)" d="M164.028 759.125 Q160.417 759.125 158.589 762.689 Q156.783 766.231 156.783 773.361 Q156.783 780.467 158.589 784.032 Q160.417 787.574 164.028 787.574 Q167.663 787.574 169.468 784.032 Q171.297 780.467 171.297 773.361 Q171.297 766.231 169.468 762.689 Q167.663 759.125 164.028 759.125 M164.028 755.421 Q169.839 755.421 172.894 760.027 Q175.973 764.611 175.973 773.361 Q175.973 782.088 172.894 786.694 Q169.839 791.277 164.028 791.277 Q158.218 791.277 155.14 786.694 Q152.084 782.088 152.084 773.361 Q152.084 764.611 155.14 760.027 Q158.218 755.421 164.028 755.421 Z" fill="#000000" fill-rule="evenodd" fill-opacity="1" /><path clip-path="url(#clip070)" d="M184.19 784.726 L189.075 784.726 L189.075 790.606 L184.19 790.606 L184.19 784.726 Z" fill="#000000" fill-rule="evenodd" fill-opacity="1" /><path clip-path="url(#clip070)" d="M209.26 759.125 Q205.649 759.125 203.82 762.689 Q202.014 766.231 202.014 773.361 Q202.014 780.467 203.82 784.032 Q205.649 787.574 209.26 787.574 Q212.894 787.574 214.699 784.032 Q216.528 780.467 216.528 773.361 Q216.528 766.231 214.699 762.689 Q212.894 759.125 209.26 759.125 M209.26 755.421 Q215.07 755.421 218.125 760.027 Q221.204 764.611 221.204 773.361 Q221.204 782.088 218.125 786.694 Q215.07 791.277 209.26 791.277 Q203.449 791.277 200.371 786.694 Q197.315 782.088 197.315 773.361 Q197.315 764.611 200.371 760.027 Q203.449 755.421 209.26 755.421 Z" fill="#000000" fill-rule="evenodd" fill-opacity="1" /><path clip-path="url(#clip070)" d="M165.024 452.58 Q161.413 452.58 159.584 456.145 Q157.778 459.687 157.778 466.816 Q157.778 473.923 159.584 477.488 Q161.413 481.029 165.024 481.029 Q168.658 481.029 170.464 477.488 Q172.292 473.923 172.292 466.816 Q172.292 459.687 170.464 456.145 Q168.658 452.58 165.024 452.58 M165.024 448.877 Q170.834 448.877 173.889 453.483 Q176.968 458.066 176.968 466.816 Q176.968 475.543 173.889 480.15 Q170.834 484.733 165.024 484.733 Q159.214 484.733 156.135 480.15 Q153.079 475.543 153.079 466.816 Q153.079 458.066 156.135 453.483 Q159.214 448.877 165.024 448.877 Z" fill="#000000" fill-rule="evenodd" fill-opacity="1" /><path clip-path="url(#clip070)" d="M185.186 478.182 L190.07 478.182 L190.07 484.062 L185.186 484.062 L185.186 478.182 Z" fill="#000000" fill-rule="evenodd" fill-opacity="1" /><path clip-path="url(#clip070)" d="M200.301 449.502 L218.658 449.502 L218.658 453.437 L204.584 453.437 L204.584 461.909 Q205.602 461.562 206.621 461.4 Q207.639 461.214 208.658 461.214 Q214.445 461.214 217.824 464.386 Q221.204 467.557 221.204 472.974 Q221.204 478.552 217.732 481.654 Q214.26 484.733 207.94 484.733 Q205.764 484.733 203.496 484.363 Q201.25 483.992 198.843 483.251 L198.843 478.552 Q200.926 479.687 203.149 480.242 Q205.371 480.798 207.848 480.798 Q211.852 480.798 214.19 478.691 Q216.528 476.585 216.528 472.974 Q216.528 469.363 214.19 467.256 Q211.852 465.15 207.848 465.15 Q205.973 465.15 204.098 465.566 Q202.246 465.983 200.301 466.863 L200.301 449.502 Z" fill="#000000" fill-rule="evenodd" fill-opacity="1" /><path clip-path="url(#clip070)" d="M154.839 173.582 L162.477 173.582 L162.477 147.216 L154.167 148.883 L154.167 144.624 L162.431 142.957 L167.107 142.957 L167.107 173.582 L174.746 173.582 L174.746 177.517 L154.839 177.517 L154.839 173.582 Z" fill="#000000" fill-rule="evenodd" fill-opacity="1" /><path clip-path="url(#clip070)" d="M184.19 171.638 L189.075 171.638 L189.075 177.517 L184.19 177.517 L184.19 171.638 Z" fill="#000000" fill-rule="evenodd" fill-opacity="1" /><path clip-path="url(#clip070)" d="M209.26 146.036 Q205.649 146.036 203.82 149.601 Q202.014 153.142 202.014 160.272 Q202.014 167.378 203.82 170.943 Q205.649 174.485 209.26 174.485 Q212.894 174.485 214.699 170.943 Q216.528 167.378 216.528 160.272 Q216.528 153.142 214.699 149.601 Q212.894 146.036 209.26 146.036 M209.26 142.332 Q215.07 142.332 218.125 146.939 Q221.204 151.522 221.204 160.272 Q221.204 168.999 218.125 173.605 Q215.07 178.188 209.26 178.188 Q203.449 178.188 200.371 173.605 Q197.315 168.999 197.315 160.272 Q197.315 151.522 200.371 146.939 Q203.449 142.332 209.26 142.332 Z" fill="#000000" fill-rule="evenodd" fill-opacity="1" /><path clip-path="url(#clip070)" d="M16.4842 837.556 L16.4842 831.127 L64.0042 831.127 L64.0042 837.556 L16.4842 837.556 Z" fill="#000000" fill-rule="evenodd" fill-opacity="1" /><path clip-path="url(#clip070)" d="M35.1993 790.832 Q31.2526 788.636 29.3747 785.58 Q27.4968 782.524 27.4968 778.387 Q27.4968 772.817 31.4117 769.793 Q35.2948 766.769 42.4881 766.769 L64.0042 766.769 L64.0042 772.658 L42.679 772.658 Q37.5546 772.658 35.072 774.472 Q32.5894 776.286 32.5894 780.01 Q32.5894 784.561 35.6131 787.203 Q38.6368 789.845 43.8567 789.845 L64.0042 789.845 L64.0042 795.733 L42.679 795.733 Q37.5228 795.733 35.072 797.547 Q32.5894 799.362 32.5894 803.149 Q32.5894 807.637 35.6449 810.279 Q38.6686 812.921 43.8567 812.921 L64.0042 812.921 L64.0042 818.809 L28.3562 818.809 L28.3562 812.921 L33.8944 812.921 Q30.616 810.915 29.0564 808.115 Q27.4968 805.314 27.4968 801.462 Q27.4968 797.579 29.4702 794.874 Q31.4436 792.137 35.1993 790.832 Z" fill="#000000" fill-rule="evenodd" fill-opacity="1" /><path clip-path="url(#clip070)" d="M28.3562 736.914 L28.3562 709.096 L33.7034 709.096 L59.3254 731.121 L59.3254 709.096 L64.0042 709.096 L64.0042 737.71 L58.657 737.71 L33.035 715.685 L33.035 736.914 L28.3562 736.914 Z" fill="#000000" fill-rule="evenodd" fill-opacity="1" /><path clip-path="url(#clip070)" d="M650.192 16.7545 L650.192 25.383 Q646.06 21.5346 641.361 19.6307 Q636.702 17.7268 631.436 17.7268 Q621.066 17.7268 615.557 24.0867 Q610.047 30.4061 610.047 42.3968 Q610.047 54.3469 615.557 60.7069 Q621.066 67.0263 631.436 67.0263 Q636.702 67.0263 641.361 65.1223 Q646.06 63.2184 650.192 59.3701 L650.192 67.9175 Q645.898 70.8341 641.077 72.2924 Q636.297 73.7508 630.95 73.7508 Q617.217 73.7508 609.318 65.3654 Q601.419 56.9395 601.419 42.3968 Q601.419 27.8135 609.318 19.4281 Q617.217 11.0023 630.95 11.0023 Q636.378 11.0023 641.158 12.4606 Q645.979 13.8784 650.192 16.7545 Z" fill="#000000" fill-rule="evenodd" fill-opacity="1" /><path clip-path="url(#clip070)" d="M680.087 32.4315 Q674.092 32.4315 670.608 37.1306 Q667.125 41.7891 667.125 49.9314 Q667.125 58.0738 670.568 62.7728 Q674.052 67.4314 680.087 67.4314 Q686.042 67.4314 689.526 62.7323 Q693.01 58.0333 693.01 49.9314 Q693.01 41.8701 689.526 37.1711 Q686.042 32.4315 680.087 32.4315 M680.087 26.1121 Q689.81 26.1121 695.359 32.4315 Q700.909 38.7509 700.909 49.9314 Q700.909 61.0714 695.359 67.4314 Q689.81 73.7508 680.087 73.7508 Q670.325 73.7508 664.775 67.4314 Q659.266 61.0714 659.266 49.9314 Q659.266 38.7509 664.775 32.4315 Q670.325 26.1121 680.087 26.1121 Z" fill="#000000" fill-rule="evenodd" fill-opacity="1" /><path clip-path="url(#clip070)" d="M748.588 35.9153 Q751.383 30.8922 755.272 28.5022 Q759.161 26.1121 764.427 26.1121 Q771.516 26.1121 775.365 31.0947 Q779.213 36.0368 779.213 45.1919 L779.213 72.576 L771.719 72.576 L771.719 45.4349 Q771.719 38.913 769.41 35.7533 Q767.101 32.5936 762.361 32.5936 Q756.569 32.5936 753.206 36.4419 Q749.844 40.2903 749.844 46.9338 L749.844 72.576 L742.35 72.576 L742.35 45.4349 Q742.35 38.8725 740.041 35.7533 Q737.732 32.5936 732.911 32.5936 Q727.199 32.5936 723.837 36.4824 Q720.475 40.3308 720.475 46.9338 L720.475 72.576 L712.981 72.576 L712.981 27.2059 L720.475 27.2059 L720.475 34.2544 Q723.027 30.082 726.592 28.0971 Q730.157 26.1121 735.058 26.1121 Q740 26.1121 743.444 28.6237 Q746.927 31.1352 748.588 35.9153 Z" fill="#000000" fill-rule="evenodd" fill-opacity="1" /><path clip-path="url(#clip070)" d="M801.291 65.7705 L801.291 89.8329 L793.796 89.8329 L793.796 27.2059 L801.291 27.2059 L801.291 34.0924 Q803.64 30.0415 807.205 28.0971 Q810.81 26.1121 815.793 26.1121 Q824.057 26.1121 829.201 32.6746 Q834.386 39.2371 834.386 49.9314 Q834.386 60.6258 829.201 67.1883 Q824.057 73.7508 815.793 73.7508 Q810.81 73.7508 807.205 71.8063 Q803.64 69.8214 801.291 65.7705 M826.649 49.9314 Q826.649 41.7081 823.246 37.0496 Q819.884 32.3505 813.97 32.3505 Q808.056 32.3505 804.653 37.0496 Q801.291 41.7081 801.291 49.9314 Q801.291 58.1548 804.653 62.8538 Q808.056 67.5124 813.97 67.5124 Q819.884 67.5124 823.246 62.8538 Q826.649 58.1548 826.649 49.9314 Z" fill="#000000" fill-rule="evenodd" fill-opacity="1" /><path clip-path="url(#clip070)" d="M846.742 9.54393 L854.195 9.54393 L854.195 72.576 L846.742 72.576 L846.742 9.54393 Z" fill="#000000" fill-rule="evenodd" fill-opacity="1" /><path clip-path="url(#clip070)" d="M908.599 48.0275 L908.599 51.6733 L874.328 51.6733 Q874.814 59.3701 878.946 63.421 Q883.119 67.4314 890.532 67.4314 Q894.826 67.4314 898.836 66.3781 Q902.887 65.3249 906.857 63.2184 L906.857 70.267 Q902.847 71.9684 898.634 72.8596 Q894.421 73.7508 890.086 73.7508 Q879.23 73.7508 872.87 67.4314 Q866.551 61.1119 866.551 50.3365 Q866.551 39.1965 872.546 32.6746 Q878.582 26.1121 888.79 26.1121 Q897.945 26.1121 903.252 32.0264 Q908.599 37.9003 908.599 48.0275 M901.145 45.84 Q901.064 39.7232 897.702 36.0774 Q894.38 32.4315 888.871 32.4315 Q882.633 32.4315 878.865 35.9558 Q875.139 39.4801 874.571 45.8805 L901.145 45.84 Z" fill="#000000" fill-rule="evenodd" fill-opacity="1" /><path clip-path="url(#clip070)" d="M957.088 27.2059 L940.682 49.2833 L957.939 72.576 L949.149 72.576 L935.943 54.752 L922.737 72.576 L913.946 72.576 L931.568 48.8377 L915.445 27.2059 L924.235 27.2059 L936.267 43.369 L948.298 27.2059 L957.088 27.2059 Z" fill="#000000" fill-rule="evenodd" fill-opacity="1" /><path clip-path="url(#clip070)" d="M1033.65 48.0275 L1033.65 51.6733 L999.38 51.6733 Q999.866 59.3701 1004 63.421 Q1008.17 67.4314 1015.58 67.4314 Q1019.88 67.4314 1023.89 66.3781 Q1027.94 65.3249 1031.91 63.2184 L1031.91 70.267 Q1027.9 71.9684 1023.69 72.8596 Q1019.47 73.7508 1015.14 73.7508 Q1004.28 73.7508 997.921 67.4314 Q991.602 61.1119 991.602 50.3365 Q991.602 39.1965 997.597 32.6746 Q1003.63 26.1121 1013.84 26.1121 Q1023 26.1121 1028.3 32.0264 Q1033.65 37.9003 1033.65 48.0275 M1026.2 45.84 Q1026.12 39.7232 1022.75 36.0774 Q1019.43 32.4315 1013.92 32.4315 Q1007.68 32.4315 1003.92 35.9558 Q1000.19 39.4801 999.623 45.8805 L1026.2 45.84 Z" fill="#000000" fill-rule="evenodd" fill-opacity="1" /><path clip-path="url(#clip070)" d="M1082.14 27.2059 L1065.73 49.2833 L1082.99 72.576 L1074.2 72.576 L1060.99 54.752 L1047.79 72.576 L1039 72.576 L1056.62 48.8377 L1040.5 27.2059 L1049.29 27.2059 L1061.32 43.369 L1073.35 27.2059 L1082.14 27.2059 Z" fill="#000000" fill-rule="evenodd" fill-opacity="1" /><path clip-path="url(#clip070)" d="M1100.73 65.7705 L1100.73 89.8329 L1093.24 89.8329 L1093.24 27.2059 L1100.73 27.2059 L1100.73 34.0924 Q1103.08 30.0415 1106.65 28.0971 Q1110.25 26.1121 1115.24 26.1121 Q1123.5 26.1121 1128.64 32.6746 Q1133.83 39.2371 1133.83 49.9314 Q1133.83 60.6258 1128.64 67.1883 Q1123.5 73.7508 1115.24 73.7508 Q1110.25 73.7508 1106.65 71.8063 Q1103.08 69.8214 1100.73 65.7705 M1126.09 49.9314 Q1126.09 41.7081 1122.69 37.0496 Q1119.33 32.3505 1113.41 32.3505 Q1107.5 32.3505 1104.1 37.0496 Q1100.73 41.7081 1100.73 49.9314 Q1100.73 58.1548 1104.1 62.8538 Q1107.5 67.5124 1113.41 67.5124 Q1119.33 67.5124 1122.69 62.8538 Q1126.09 58.1548 1126.09 49.9314 Z" fill="#000000" fill-rule="evenodd" fill-opacity="1" /><path clip-path="url(#clip070)" d="M1163.77 32.4315 Q1157.77 32.4315 1154.29 37.1306 Q1150.8 41.7891 1150.8 49.9314 Q1150.8 58.0738 1154.25 62.7728 Q1157.73 67.4314 1163.77 67.4314 Q1169.72 67.4314 1173.2 62.7323 Q1176.69 58.0333 1176.69 49.9314 Q1176.69 41.8701 1173.2 37.1711 Q1169.72 32.4315 1163.77 32.4315 M1163.77 26.1121 Q1173.49 26.1121 1179.04 32.4315 Q1184.59 38.7509 1184.59 49.9314 Q1184.59 61.0714 1179.04 67.4314 Q1173.49 73.7508 1163.77 73.7508 Q1154 73.7508 1148.45 67.4314 Q1142.94 61.0714 1142.94 49.9314 Q1142.94 38.7509 1148.45 32.4315 Q1154 26.1121 1163.77 26.1121 Z" fill="#000000" fill-rule="evenodd" fill-opacity="1" /><path clip-path="url(#clip070)" d="M1234.66 45.1919 L1234.66 72.576 L1227.2 72.576 L1227.2 45.4349 Q1227.2 38.994 1224.69 35.7938 Q1222.18 32.5936 1217.16 32.5936 Q1211.12 32.5936 1207.64 36.4419 Q1204.15 40.2903 1204.15 46.9338 L1204.15 72.576 L1196.66 72.576 L1196.66 27.2059 L1204.15 27.2059 L1204.15 34.2544 Q1206.83 30.163 1210.43 28.1376 Q1214.08 26.1121 1218.82 26.1121 Q1226.64 26.1121 1230.65 30.9732 Q1234.66 35.7938 1234.66 45.1919 Z" fill="#000000" fill-rule="evenodd" fill-opacity="1" /><path clip-path="url(#clip070)" d="M1288.33 48.0275 L1288.33 51.6733 L1254.06 51.6733 Q1254.55 59.3701 1258.68 63.421 Q1262.85 67.4314 1270.26 67.4314 Q1274.56 67.4314 1278.57 66.3781 Q1282.62 65.3249 1286.59 63.2184 L1286.59 70.267 Q1282.58 71.9684 1278.37 72.8596 Q1274.15 73.7508 1269.82 73.7508 Q1258.96 73.7508 1252.6 67.4314 Q1246.28 61.1119 1246.28 50.3365 Q1246.28 39.1965 1252.28 32.6746 Q1258.31 26.1121 1268.52 26.1121 Q1277.68 26.1121 1282.98 32.0264 Q1288.33 37.9003 1288.33 48.0275 M1280.88 45.84 Q1280.8 39.7232 1277.43 36.0774 Q1274.11 32.4315 1268.6 32.4315 Q1262.36 32.4315 1258.6 35.9558 Q1254.87 39.4801 1254.3 45.8805 L1280.88 45.84 Z" fill="#000000" fill-rule="evenodd" fill-opacity="1" /><path clip-path="url(#clip070)" d="M1338.28 45.1919 L1338.28 72.576 L1330.82 72.576 L1330.82 45.4349 Q1330.82 38.994 1328.31 35.7938 Q1325.8 32.5936 1320.78 32.5936 Q1314.74 32.5936 1311.26 36.4419 Q1307.78 40.2903 1307.78 46.9338 L1307.78 72.576 L1300.28 72.576 L1300.28 27.2059 L1307.78 27.2059 L1307.78 34.2544 Q1310.45 30.163 1314.05 28.1376 Q1317.7 26.1121 1322.44 26.1121 Q1330.26 26.1121 1334.27 30.9732 Q1338.28 35.7938 1338.28 45.1919 Z" fill="#000000" fill-rule="evenodd" fill-opacity="1" /><path clip-path="url(#clip070)" d="M1360.52 14.324 L1360.52 27.2059 L1375.87 27.2059 L1375.87 32.9987 L1360.52 32.9987 L1360.52 57.6282 Q1360.52 63.1779 1362.02 64.7578 Q1363.56 66.3376 1368.21 66.3376 L1375.87 66.3376 L1375.87 72.576 L1368.21 72.576 Q1359.59 72.576 1356.3 69.3758 Q1353.02 66.1351 1353.02 57.6282 L1353.02 32.9987 L1347.55 32.9987 L1347.55 27.2059 L1353.02 27.2059 L1353.02 14.324 L1360.52 14.324 Z" fill="#000000" fill-rule="evenodd" fill-opacity="1" /><path clip-path="url(#clip070)" d="M1385.67 27.2059 L1393.13 27.2059 L1393.13 72.576 L1385.67 72.576 L1385.67 27.2059 M1385.67 9.54393 L1393.13 9.54393 L1393.13 18.9825 L1385.67 18.9825 L1385.67 9.54393 Z" fill="#000000" fill-rule="evenodd" fill-opacity="1" /><path clip-path="url(#clip070)" d="M1429.34 49.7694 Q1420.31 49.7694 1416.83 51.8354 Q1413.34 53.9013 1413.34 58.8839 Q1413.34 62.8538 1415.93 65.2034 Q1418.57 67.5124 1423.06 67.5124 Q1429.26 67.5124 1432.99 63.1374 Q1436.76 58.7219 1436.76 51.4303 L1436.76 49.7694 L1429.34 49.7694 M1444.21 46.6907 L1444.21 72.576 L1436.76 72.576 L1436.76 65.6895 Q1434.2 69.8214 1430.4 71.8063 Q1426.59 73.7508 1421.08 73.7508 Q1414.11 73.7508 1409.98 69.8619 Q1405.89 65.9325 1405.89 59.3701 Q1405.89 51.7138 1410.99 47.825 Q1416.14 43.9361 1426.3 43.9361 L1436.76 43.9361 L1436.76 43.2069 Q1436.76 38.0623 1433.35 35.2672 Q1429.99 32.4315 1423.87 32.4315 Q1419.99 32.4315 1416.3 33.3632 Q1412.61 34.295 1409.21 36.1584 L1409.21 29.2718 Q1413.3 27.692 1417.15 26.9223 Q1421 26.1121 1424.64 26.1121 Q1434.49 26.1121 1439.35 31.2163 Q1444.21 36.3204 1444.21 46.6907 Z" fill="#000000" fill-rule="evenodd" fill-opacity="1" /><path clip-path="url(#clip070)" d="M1459.56 9.54393 L1467.02 9.54393 L1467.02 72.576 L1459.56 72.576 L1459.56 9.54393 Z" fill="#000000" fill-rule="evenodd" fill-opacity="1" /><path clip-path="url(#clip070)" d="M1509.96 34.9026 L1561.89 34.9026 L1561.89 41.7081 L1509.96 41.7081 L1509.96 34.9026 M1509.96 51.4303 L1561.89 51.4303 L1561.89 58.3168 L1509.96 58.3168 L1509.96 51.4303 Z" fill="#000000" fill-rule="evenodd" fill-opacity="1" /><path clip-path="url(#clip070)" d="M1604.26 12.096 L1612.48 12.096 L1612.48 48.8377 Q1612.48 58.5599 1616.01 62.8538 Q1619.53 67.1073 1627.43 67.1073 Q1635.29 67.1073 1638.81 62.8538 Q1642.34 58.5599 1642.34 48.8377 L1642.34 12.096 L1650.56 12.096 L1650.56 49.8504 Q1650.56 61.6791 1644.69 67.7149 Q1638.86 73.7508 1627.43 73.7508 Q1615.97 73.7508 1610.09 67.7149 Q1604.26 61.6791 1604.26 49.8504 L1604.26 12.096 Z" fill="#000000" fill-rule="evenodd" fill-opacity="1" /><path clip-path="url(#clip070)" d="M1703.31 45.1919 L1703.31 72.576 L1695.85 72.576 L1695.85 45.4349 Q1695.85 38.994 1693.34 35.7938 Q1690.83 32.5936 1685.81 32.5936 Q1679.77 32.5936 1676.29 36.4419 Q1672.8 40.2903 1672.8 46.9338 L1672.8 72.576 L1665.31 72.576 L1665.31 27.2059 L1672.8 27.2059 L1672.8 34.2544 Q1675.48 30.163 1679.08 28.1376 Q1682.73 26.1121 1687.47 26.1121 Q1695.28 26.1121 1699.29 30.9732 Q1703.31 35.7938 1703.31 45.1919 Z" fill="#000000" fill-rule="evenodd" fill-opacity="1" /><path clip-path="url(#clip070)" d="M1718.17 27.2059 L1725.63 27.2059 L1725.63 72.576 L1718.17 72.576 L1718.17 27.2059 M1718.17 9.54393 L1725.63 9.54393 L1725.63 18.9825 L1718.17 18.9825 L1718.17 9.54393 Z" fill="#000000" fill-rule="evenodd" fill-opacity="1" /><path clip-path="url(#clip070)" d="M1748.59 14.324 L1748.59 27.2059 L1763.95 27.2059 L1763.95 32.9987 L1748.59 32.9987 L1748.59 57.6282 Q1748.59 63.1779 1750.09 64.7578 Q1751.63 66.3376 1756.29 66.3376 L1763.95 66.3376 L1763.95 72.576 L1756.29 72.576 Q1747.66 72.576 1744.38 69.3758 Q1741.1 66.1351 1741.1 57.6282 L1741.1 32.9987 L1735.63 32.9987 L1735.63 27.2059 L1741.1 27.2059 L1741.1 14.324 L1748.59 14.324 Z" fill="#000000" fill-rule="evenodd" fill-opacity="1" /><path clip-path="url(#clip070)" d="M1832.77 28.9478 L1832.77 35.9153 Q1829.61 34.1734 1826.41 33.3227 Q1823.25 32.4315 1820.01 32.4315 Q1812.76 32.4315 1808.75 37.0496 Q1804.74 41.6271 1804.74 49.9314 Q1804.74 58.2358 1808.75 62.8538 Q1812.76 67.4314 1820.01 67.4314 Q1823.25 67.4314 1826.41 66.5807 Q1829.61 65.6895 1832.77 63.9476 L1832.77 70.8341 Q1829.65 72.2924 1826.29 73.0216 Q1822.97 73.7508 1819.2 73.7508 Q1808.95 73.7508 1802.92 67.3098 Q1796.88 60.8689 1796.88 49.9314 Q1796.88 38.832 1802.96 32.472 Q1809.07 26.1121 1819.69 26.1121 Q1823.13 26.1121 1826.41 26.8413 Q1829.69 27.5299 1832.77 28.9478 Z" fill="#000000" fill-rule="evenodd" fill-opacity="1" /><path clip-path="url(#clip070)" d="M1845.74 27.2059 L1853.19 27.2059 L1853.19 72.576 L1845.74 72.576 L1845.74 27.2059 M1845.74 9.54393 L1853.19 9.54393 L1853.19 18.9825 L1845.74 18.9825 L1845.74 9.54393 Z" fill="#000000" fill-rule="evenodd" fill-opacity="1" /><path clip-path="url(#clip070)" d="M1895.08 34.1734 Q1893.82 33.4443 1892.32 33.1202 Q1890.86 32.7556 1889.08 32.7556 Q1882.76 32.7556 1879.36 36.8875 Q1876 40.9789 1876 48.6757 L1876 72.576 L1868.5 72.576 L1868.5 27.2059 L1876 27.2059 L1876 34.2544 Q1878.34 30.1225 1882.11 28.1376 Q1885.88 26.1121 1891.27 26.1121 Q1892.04 26.1121 1892.97 26.2337 Q1893.9 26.3147 1895.03 26.5172 L1895.08 34.1734 Z" fill="#000000" fill-rule="evenodd" fill-opacity="1" /><path clip-path="url(#clip070)" d="M1933.72 28.9478 L1933.72 35.9153 Q1930.56 34.1734 1927.36 33.3227 Q1924.2 32.4315 1920.96 32.4315 Q1913.71 32.4315 1909.7 37.0496 Q1905.69 41.6271 1905.69 49.9314 Q1905.69 58.2358 1909.7 62.8538 Q1913.71 67.4314 1920.96 67.4314 Q1924.2 67.4314 1927.36 66.5807 Q1930.56 65.6895 1933.72 63.9476 L1933.72 70.8341 Q1930.6 72.2924 1927.24 73.0216 Q1923.92 73.7508 1920.15 73.7508 Q1909.9 73.7508 1903.87 67.3098 Q1897.83 60.8689 1897.83 49.9314 Q1897.83 38.832 1903.91 32.472 Q1910.02 26.1121 1920.64 26.1121 Q1924.08 26.1121 1927.36 26.8413 Q1930.64 27.5299 1933.72 28.9478 Z" fill="#000000" fill-rule="evenodd" fill-opacity="1" /><path clip-path="url(#clip070)" d="M1946.68 9.54393 L1954.14 9.54393 L1954.14 72.576 L1946.68 72.576 L1946.68 9.54393 Z" fill="#000000" fill-rule="evenodd" fill-opacity="1" /><path clip-path="url(#clip070)" d="M2008.54 48.0275 L2008.54 51.6733 L1974.27 51.6733 Q1974.76 59.3701 1978.89 63.421 Q1983.06 67.4314 1990.47 67.4314 Q1994.77 67.4314 1998.78 66.3781 Q2002.83 65.3249 2006.8 63.2184 L2006.8 70.267 Q2002.79 71.9684 1998.58 72.8596 Q1994.36 73.7508 1990.03 73.7508 Q1979.17 73.7508 1972.81 67.4314 Q1966.49 61.1119 1966.49 50.3365 Q1966.49 39.1965 1972.49 32.6746 Q1978.52 26.1121 1988.73 26.1121 Q1997.89 26.1121 2003.19 32.0264 Q2008.54 37.9003 2008.54 48.0275 M2001.09 45.84 Q2001.01 39.7232 1997.64 36.0774 Q1994.32 32.4315 1988.81 32.4315 Q1982.57 32.4315 1978.81 35.9558 Q1975.08 39.4801 1974.51 45.8805 L2001.09 45.84 Z" fill="#000000" fill-rule="evenodd" fill-opacity="1" /><polyline clip-path="url(#clip072)" style="stroke:#009af9; stroke-linecap:butt; stroke-linejoin:round; stroke-width:8; stroke-opacity:1; fill:none" points="
  1918.03,773.326 1917.72,753.972 1916.81,734.637 1915.28,715.34 1913.15,696.102 1910.41,676.94 1907.06,657.874 1903.12,638.924 1898.58,620.107 1893.44,601.443 
  1887.72,582.951 1881.42,564.648 1874.55,546.553 1867.11,528.685 1859.1,511.06 1850.55,493.697 1841.45,476.612 1831.81,459.823 1821.65,443.347 1810.98,427.2 
  1799.8,411.397 1788.13,395.956 1775.97,380.89 1763.35,366.216 1750.27,351.948 1736.75,338.099 1722.79,324.685 1708.42,311.717 1693.65,299.21 1678.49,287.176 
  1662.95,275.626 1647.06,264.572 1630.83,254.025 1614.28,243.996 1597.41,234.495 1580.26,225.53 1562.83,217.112 1545.14,209.248 1527.21,201.947 1509.06,195.215 
  1490.71,189.059 1472.17,183.486 1453.47,178.501 1434.62,174.108 1415.64,170.313 1396.55,167.119 1377.36,164.53 1358.11,162.547 1338.8,161.173 1319.46,160.409 
  1300.1,160.256 1280.75,160.715 1261.42,161.784 1242.14,163.462 1222.92,165.749 1203.78,168.641 1184.74,172.136 1165.82,176.23 1147.04,180.919 1128.42,186.199 
  1109.97,192.065 1091.72,198.509 1073.68,205.527 1055.87,213.11 1038.31,221.252 1021.01,229.945 1004,239.179 987.29,248.945 970.894,259.234 954.832,270.036 
  939.118,281.339 923.769,293.133 908.8,305.405 894.226,318.144 880.061,331.337 866.32,344.97 853.016,359.03 840.163,373.503 827.772,388.375 815.858,403.63 
  804.431,419.254 793.503,435.231 783.085,451.545 773.187,468.18 763.819,485.118 754.99,502.345 746.71,519.841 738.986,537.59 731.826,555.574 725.237,573.775 
  719.227,592.175 713.8,610.755 708.963,629.498 704.719,648.383 701.074,667.394 698.031,686.51 695.593,705.712 693.762,724.982 692.54,744.301 691.929,763.648 
  691.929,783.004 692.54,802.351 693.762,821.67 695.593,840.94 698.031,860.142 701.074,879.258 704.719,898.269 708.963,917.154 713.8,935.897 719.227,954.477 
  725.237,972.877 731.826,991.078 738.986,1009.06 746.71,1026.81 754.99,1044.31 763.819,1061.53 773.187,1078.47 783.085,1095.11 793.503,1111.42 804.431,1127.4 
  815.858,1143.02 827.772,1158.28 840.163,1173.15 853.016,1187.62 866.32,1201.68 880.061,1215.32 894.226,1228.51 908.8,1241.25 923.769,1253.52 939.118,1265.31 
  954.832,1276.62 970.894,1287.42 987.29,1297.71 1004,1307.47 1021.01,1316.71 1038.31,1325.4 1055.87,1333.54 1073.68,1341.13 1091.72,1348.14 1109.97,1354.59 
  1128.42,1360.45 1147.04,1365.73 1165.82,1370.42 1184.74,1374.52 1203.78,1378.01 1222.92,1380.9 1242.14,1383.19 1261.42,1384.87 1280.75,1385.94 1300.1,1386.4 
  1319.46,1386.24 1338.8,1385.48 1358.11,1384.11 1377.36,1382.12 1396.55,1379.53 1415.64,1376.34 1434.62,1372.54 1453.47,1368.15 1472.17,1363.17 1490.71,1357.59 
  1509.06,1351.44 1527.21,1344.71 1545.14,1337.4 1562.83,1329.54 1580.26,1321.12 1597.41,1312.16 1614.28,1302.66 1630.83,1292.63 1647.06,1282.08 1662.95,1271.03 
  1678.49,1259.48 1693.65,1247.44 1708.42,1234.93 1722.79,1221.97 1736.75,1208.55 1750.27,1194.7 1763.35,1180.44 1775.97,1165.76 1788.13,1150.7 1799.8,1135.25 
  1810.98,1119.45 1821.65,1103.31 1831.81,1086.83 1841.45,1070.04 1850.55,1052.96 1859.1,1035.59 1867.11,1017.97 1874.55,1000.1 1881.42,982.004 1887.72,963.701 
  1893.44,945.209 1898.58,926.545 1903.12,907.728 1907.06,888.778 1910.41,869.712 1913.15,850.55 1915.28,831.312 1916.81,812.015 1917.72,792.68 1918.03,773.326 
  
  "/>
</svg>
