<?xml version="1.0" encoding="utf-8"?>
<svg xmlns="http://www.w3.org/2000/svg" xmlns:xlink="http://www.w3.org/1999/xlink" width="600" height="400" viewBox="0 0 2400 1600">
<defs>
  <clipPath id="clip150">
    <rect x="0" y="0" width="2400" height="1600"/>
  </clipPath>
</defs>
<path clip-path="url(#clip150)" d="
M0 1600 L2400 1600 L2400 0 L0 0  Z
  " fill="#ffffff" fill-rule="evenodd" fill-opacity="1"/>
<defs>
  <clipPath id="clip151">
    <rect x="480" y="0" width="1681" height="1600"/>
  </clipPath>
</defs>
<defs>
  <clipPath id="clip152">
    <rect x="210" y="123" width="2143" height="1301"/>
  </clipPath>
</defs>
<path clip-path="url(#clip152)" d="
M210.746 1346.4 L210.746 353.805 L994.776 123.472 L2352.76 200.25 L2352.76 1192.85 L1568.73 1423.18 L210.746 1346.4  Z
  " fill="#ffffff" fill-rule="evenodd" fill-opacity="1"/>
<polyline clip-path="url(#clip152)" style="stroke:#000000; stroke-linecap:butt; stroke-linejoin:round; stroke-width:2; stroke-opacity:0.1; fill:none" points="
  210.746,1346.4 994.776,1116.07 
  "/>
<polyline clip-path="url(#clip152)" style="stroke:#000000; stroke-linecap:butt; stroke-linejoin:round; stroke-width:2; stroke-opacity:0.1; fill:none" points="
  994.776,1116.07 994.776,123.472 
  "/>
<polyline clip-path="url(#clip152)" style="stroke:#000000; stroke-linecap:butt; stroke-linejoin:round; stroke-width:2; stroke-opacity:0.1; fill:none" points="
  663.406,1371.99 1447.44,1141.66 
  "/>
<polyline clip-path="url(#clip152)" style="stroke:#000000; stroke-linecap:butt; stroke-linejoin:round; stroke-width:2; stroke-opacity:0.1; fill:none" points="
  1447.44,1141.66 1447.44,149.065 
  "/>
<polyline clip-path="url(#clip152)" style="stroke:#000000; stroke-linecap:butt; stroke-linejoin:round; stroke-width:2; stroke-opacity:0.1; fill:none" points="
  1116.07,1397.59 1900.1,1167.25 
  "/>
<polyline clip-path="url(#clip152)" style="stroke:#000000; stroke-linecap:butt; stroke-linejoin:round; stroke-width:2; stroke-opacity:0.1; fill:none" points="
  1900.1,1167.25 1900.1,174.657 
  "/>
<polyline clip-path="url(#clip152)" style="stroke:#000000; stroke-linecap:butt; stroke-linejoin:round; stroke-width:2; stroke-opacity:0.1; fill:none" points="
  1568.73,1423.18 2352.76,1192.85 
  "/>
<polyline clip-path="url(#clip152)" style="stroke:#000000; stroke-linecap:butt; stroke-linejoin:round; stroke-width:2; stroke-opacity:0.1; fill:none" points="
  2352.76,1192.85 2352.76,200.25 
  "/>
<polyline clip-path="url(#clip150)" style="stroke:#000000; stroke-linecap:butt; stroke-linejoin:round; stroke-width:4; stroke-opacity:1; fill:none" points="
  210.746,1346.4 1568.73,1423.18 
  "/>
<polyline clip-path="url(#clip150)" style="stroke:#000000; stroke-linecap:butt; stroke-linejoin:round; stroke-width:4; stroke-opacity:1; fill:none" points="
  210.746,1346.4 220.154,1343.64 
  "/>
<polyline clip-path="url(#clip150)" style="stroke:#000000; stroke-linecap:butt; stroke-linejoin:round; stroke-width:4; stroke-opacity:1; fill:none" points="
  663.406,1371.99 672.814,1369.23 
  "/>
<polyline clip-path="url(#clip150)" style="stroke:#000000; stroke-linecap:butt; stroke-linejoin:round; stroke-width:4; stroke-opacity:1; fill:none" points="
  1116.07,1397.59 1125.47,1394.82 
  "/>
<polyline clip-path="url(#clip150)" style="stroke:#000000; stroke-linecap:butt; stroke-linejoin:round; stroke-width:4; stroke-opacity:1; fill:none" points="
  1568.73,1423.18 1578.13,1420.42 
  "/>
<path clip-path="url(#clip150)" d="M186.746 1380.39 Q183.135 1380.39 181.306 1383.96 Q179.501 1387.5 179.501 1394.63 Q179.501 1401.74 181.306 1405.3 Q183.135 1408.84 186.746 1408.84 Q190.38 1408.84 192.186 1405.3 Q194.014 1401.74 194.014 1394.63 Q194.014 1387.5 192.186 1383.96 Q190.38 1380.39 186.746 1380.39 M186.746 1376.69 Q192.556 1376.69 195.612 1381.3 Q198.69 1385.88 198.69 1394.63 Q198.69 1403.36 195.612 1407.96 Q192.556 1412.55 186.746 1412.55 Q180.936 1412.55 177.857 1407.96 Q174.802 1403.36 174.802 1394.63 Q174.802 1385.88 177.857 1381.3 Q180.936 1376.69 186.746 1376.69 Z" fill="#000000" fill-rule="evenodd" fill-opacity="1" /><path clip-path="url(#clip150)" d="M614.094 1433.53 L621.732 1433.53 L621.732 1407.17 L613.422 1408.83 L613.422 1404.57 L621.686 1402.91 L626.362 1402.91 L626.362 1433.53 L634.001 1433.53 L634.001 1437.47 L614.094 1437.47 L614.094 1433.53 Z" fill="#000000" fill-rule="evenodd" fill-opacity="1" /><path clip-path="url(#clip150)" d="M653.445 1405.99 Q649.834 1405.99 648.005 1409.55 Q646.2 1413.09 646.2 1420.22 Q646.2 1427.33 648.005 1430.89 Q649.834 1434.43 653.445 1434.43 Q657.079 1434.43 658.885 1430.89 Q660.714 1427.33 660.714 1420.22 Q660.714 1413.09 658.885 1409.55 Q657.079 1405.99 653.445 1405.99 M653.445 1402.28 Q659.255 1402.28 662.311 1406.89 Q665.39 1411.47 665.39 1420.22 Q665.39 1428.95 662.311 1433.55 Q659.255 1438.14 653.445 1438.14 Q647.635 1438.14 644.556 1433.55 Q641.501 1428.95 641.501 1420.22 Q641.501 1411.47 644.556 1406.89 Q647.635 1402.28 653.445 1402.28 Z" fill="#000000" fill-rule="evenodd" fill-opacity="1" /><path clip-path="url(#clip150)" d="M1070.84 1459.12 L1087.16 1459.12 L1087.16 1463.06 L1065.21 1463.06 L1065.21 1459.12 Q1067.88 1456.37 1072.46 1451.74 Q1077.07 1447.09 1078.25 1445.74 Q1080.49 1443.22 1081.37 1441.49 Q1082.27 1439.73 1082.27 1438.04 Q1082.27 1435.28 1080.33 1433.55 Q1078.41 1431.81 1075.31 1431.81 Q1073.11 1431.81 1070.65 1432.57 Q1068.22 1433.34 1065.45 1434.89 L1065.45 1430.17 Q1068.27 1429.03 1070.72 1428.45 Q1073.18 1427.87 1075.21 1427.87 Q1080.58 1427.87 1083.78 1430.56 Q1086.97 1433.24 1086.97 1437.74 Q1086.97 1439.86 1086.16 1441.79 Q1085.38 1443.68 1083.27 1446.28 Q1082.69 1446.95 1079.59 1450.17 Q1076.49 1453.36 1070.84 1459.12 Z" fill="#000000" fill-rule="evenodd" fill-opacity="1" /><path clip-path="url(#clip150)" d="M1106.97 1431.58 Q1103.36 1431.58 1101.53 1435.14 Q1099.73 1438.68 1099.73 1445.81 Q1099.73 1452.92 1101.53 1456.49 Q1103.36 1460.03 1106.97 1460.03 Q1110.61 1460.03 1112.41 1456.49 Q1114.24 1452.92 1114.24 1445.81 Q1114.24 1438.68 1112.41 1435.14 Q1110.61 1431.58 1106.97 1431.58 M1106.97 1427.87 Q1112.78 1427.87 1115.84 1432.48 Q1118.92 1437.06 1118.92 1445.81 Q1118.92 1454.54 1115.84 1459.15 Q1112.78 1463.73 1106.97 1463.73 Q1101.16 1463.73 1098.08 1459.15 Q1095.03 1454.54 1095.03 1445.81 Q1095.03 1437.06 1098.08 1432.48 Q1101.16 1427.87 1106.97 1427.87 Z" fill="#000000" fill-rule="evenodd" fill-opacity="1" /><path clip-path="url(#clip150)" d="M1533.57 1470.02 Q1536.92 1470.74 1538.8 1473 Q1540.7 1475.27 1540.7 1478.61 Q1540.7 1483.72 1537.18 1486.52 Q1533.66 1489.32 1527.18 1489.32 Q1525 1489.32 1522.69 1488.88 Q1520.4 1488.47 1517.94 1487.61 L1517.94 1483.1 Q1519.89 1484.23 1522.2 1484.81 Q1524.52 1485.39 1527.04 1485.39 Q1531.44 1485.39 1533.73 1483.65 Q1536.05 1481.92 1536.05 1478.61 Q1536.05 1475.55 1533.89 1473.84 Q1531.76 1472.1 1527.94 1472.1 L1523.92 1472.1 L1523.92 1468.26 L1528.13 1468.26 Q1531.58 1468.26 1533.41 1466.89 Q1535.24 1465.5 1535.24 1462.91 Q1535.24 1460.25 1533.34 1458.84 Q1531.46 1457.4 1527.94 1457.4 Q1526.02 1457.4 1523.82 1457.82 Q1521.62 1458.24 1518.99 1459.11 L1518.99 1454.95 Q1521.65 1454.21 1523.96 1453.84 Q1526.3 1453.47 1528.36 1453.47 Q1533.68 1453.47 1536.79 1455.9 Q1539.89 1458.3 1539.89 1462.43 Q1539.89 1465.3 1538.24 1467.29 Q1536.6 1469.25 1533.57 1470.02 Z" fill="#000000" fill-rule="evenodd" fill-opacity="1" /><path clip-path="url(#clip150)" d="M1559.56 1457.17 Q1555.95 1457.17 1554.12 1460.74 Q1552.32 1464.28 1552.32 1471.41 Q1552.32 1478.51 1554.12 1482.08 Q1555.95 1485.62 1559.56 1485.62 Q1563.2 1485.62 1565 1482.08 Q1566.83 1478.51 1566.83 1471.41 Q1566.83 1464.28 1565 1460.74 Q1563.2 1457.17 1559.56 1457.17 M1559.56 1453.47 Q1565.37 1453.47 1568.43 1458.07 Q1571.51 1462.66 1571.51 1471.41 Q1571.51 1480.13 1568.43 1484.74 Q1565.37 1489.32 1559.56 1489.32 Q1553.75 1489.32 1550.67 1484.74 Q1547.62 1480.13 1547.62 1471.41 Q1547.62 1462.66 1550.67 1458.07 Q1553.75 1453.47 1559.56 1453.47 Z" fill="#000000" fill-rule="evenodd" fill-opacity="1" /><path clip-path="url(#clip150)" d="M688.493 1517.42 L728.692 1517.42 L728.692 1522.83 L711.823 1522.83 L711.823 1564.94 L705.362 1564.94 L705.362 1522.83 L688.493 1522.83 L688.493 1517.42 Z" fill="#000000" fill-rule="evenodd" fill-opacity="1" /><path clip-path="url(#clip150)" d="M732.639 1529.29 L738.495 1529.29 L738.495 1564.94 L732.639 1564.94 L732.639 1529.29 M732.639 1515.41 L738.495 1515.41 L738.495 1522.83 L732.639 1522.83 L732.639 1515.41 Z" fill="#000000" fill-rule="evenodd" fill-opacity="1" /><path clip-path="url(#clip150)" d="M778.504 1536.13 Q780.7 1532.18 783.756 1530.31 Q786.811 1528.43 790.949 1528.43 Q796.519 1528.43 799.543 1532.34 Q802.566 1536.23 802.566 1543.42 L802.566 1564.94 L796.678 1564.94 L796.678 1543.61 Q796.678 1538.49 794.864 1536 Q793.049 1533.52 789.326 1533.52 Q784.774 1533.52 782.132 1536.54 Q779.491 1539.57 779.491 1544.79 L779.491 1564.94 L773.602 1564.94 L773.602 1543.61 Q773.602 1538.45 771.788 1536 Q769.974 1533.52 766.186 1533.52 Q761.698 1533.52 759.057 1536.58 Q756.415 1539.6 756.415 1544.79 L756.415 1564.94 L750.527 1564.94 L750.527 1529.29 L756.415 1529.29 L756.415 1534.83 Q758.42 1531.55 761.221 1529.99 Q764.022 1528.43 767.873 1528.43 Q771.756 1528.43 774.462 1530.4 Q777.199 1532.37 778.504 1536.13 Z" fill="#000000" fill-rule="evenodd" fill-opacity="1" /><path clip-path="url(#clip150)" d="M844.739 1545.65 L844.739 1548.51 L817.812 1548.51 Q818.194 1554.56 821.441 1557.74 Q824.719 1560.89 830.544 1560.89 Q833.917 1560.89 837.068 1560.07 Q840.251 1559.24 843.37 1557.58 L843.37 1563.12 Q840.219 1564.46 836.909 1565.16 Q833.599 1565.86 830.193 1565.86 Q821.663 1565.86 816.666 1560.89 Q811.701 1555.93 811.701 1547.46 Q811.701 1538.71 816.412 1533.58 Q821.154 1528.43 829.175 1528.43 Q836.368 1528.43 840.538 1533.07 Q844.739 1537.69 844.739 1545.65 M838.883 1543.93 Q838.819 1539.12 836.177 1536.26 Q833.567 1533.39 829.239 1533.39 Q824.337 1533.39 821.377 1536.16 Q818.449 1538.93 818.003 1543.96 L838.883 1543.93 Z" fill="#000000" fill-rule="evenodd" fill-opacity="1" /><polyline clip-path="url(#clip152)" style="stroke:#000000; stroke-linecap:butt; stroke-linejoin:round; stroke-width:2; stroke-opacity:0.1; fill:none" points="
  1568.73,1423.18 210.746,1346.4 
  "/>
<polyline clip-path="url(#clip152)" style="stroke:#000000; stroke-linecap:butt; stroke-linejoin:round; stroke-width:2; stroke-opacity:0.1; fill:none" points="
  210.746,1346.4 210.746,353.805 
  "/>
<polyline clip-path="url(#clip152)" style="stroke:#000000; stroke-linecap:butt; stroke-linejoin:round; stroke-width:2; stroke-opacity:0.1; fill:none" points="
  1764.73,1365.6 406.753,1288.82 
  "/>
<polyline clip-path="url(#clip152)" style="stroke:#000000; stroke-linecap:butt; stroke-linejoin:round; stroke-width:2; stroke-opacity:0.1; fill:none" points="
  406.753,1288.82 406.753,296.222 
  "/>
<polyline clip-path="url(#clip152)" style="stroke:#000000; stroke-linecap:butt; stroke-linejoin:round; stroke-width:2; stroke-opacity:0.1; fill:none" points="
  1960.74,1308.01 602.761,1231.24 
  "/>
<polyline clip-path="url(#clip152)" style="stroke:#000000; stroke-linecap:butt; stroke-linejoin:round; stroke-width:2; stroke-opacity:0.1; fill:none" points="
  602.761,1231.24 602.761,238.639 
  "/>
<polyline clip-path="url(#clip152)" style="stroke:#000000; stroke-linecap:butt; stroke-linejoin:round; stroke-width:2; stroke-opacity:0.1; fill:none" points="
  2156.75,1250.43 798.768,1173.65 
  "/>
<polyline clip-path="url(#clip152)" style="stroke:#000000; stroke-linecap:butt; stroke-linejoin:round; stroke-width:2; stroke-opacity:0.1; fill:none" points="
  798.768,1173.65 798.768,181.055 
  "/>
<polyline clip-path="url(#clip152)" style="stroke:#000000; stroke-linecap:butt; stroke-linejoin:round; stroke-width:2; stroke-opacity:0.1; fill:none" points="
  2352.76,1192.85 994.776,1116.07 
  "/>
<polyline clip-path="url(#clip152)" style="stroke:#000000; stroke-linecap:butt; stroke-linejoin:round; stroke-width:2; stroke-opacity:0.1; fill:none" points="
  994.776,1116.07 994.776,123.472 
  "/>
<polyline clip-path="url(#clip150)" style="stroke:#000000; stroke-linecap:butt; stroke-linejoin:round; stroke-width:4; stroke-opacity:1; fill:none" points="
  1568.73,1423.18 2352.76,1192.85 
  "/>
<polyline clip-path="url(#clip150)" style="stroke:#000000; stroke-linecap:butt; stroke-linejoin:round; stroke-width:4; stroke-opacity:1; fill:none" points="
  1568.73,1423.18 1552.43,1422.26 
  "/>
<polyline clip-path="url(#clip150)" style="stroke:#000000; stroke-linecap:butt; stroke-linejoin:round; stroke-width:4; stroke-opacity:1; fill:none" points="
  1764.73,1365.6 1748.44,1364.68 
  "/>
<polyline clip-path="url(#clip150)" style="stroke:#000000; stroke-linecap:butt; stroke-linejoin:round; stroke-width:4; stroke-opacity:1; fill:none" points="
  1960.74,1308.01 1944.45,1307.09 
  "/>
<polyline clip-path="url(#clip150)" style="stroke:#000000; stroke-linecap:butt; stroke-linejoin:round; stroke-width:4; stroke-opacity:1; fill:none" points="
  2156.75,1250.43 2140.45,1249.51 
  "/>
<polyline clip-path="url(#clip150)" style="stroke:#000000; stroke-linecap:butt; stroke-linejoin:round; stroke-width:4; stroke-opacity:1; fill:none" points="
  2352.76,1192.85 2336.46,1191.93 
  "/>
<path clip-path="url(#clip150)" d="M1562.67 1471.82 L1592.34 1471.82 L1592.34 1475.76 L1562.67 1475.76 L1562.67 1471.82 Z" fill="#000000" fill-rule="evenodd" fill-opacity="1" /><path clip-path="url(#clip150)" d="M1606.46 1484.72 L1622.78 1484.72 L1622.78 1488.65 L1600.84 1488.65 L1600.84 1484.72 Q1603.5 1481.96 1608.08 1477.33 Q1612.69 1472.68 1613.87 1471.34 Q1616.12 1468.81 1617 1467.08 Q1617.9 1465.32 1617.9 1463.63 Q1617.9 1460.87 1615.95 1459.14 Q1614.03 1457.4 1610.93 1457.4 Q1608.73 1457.4 1606.28 1458.17 Q1603.85 1458.93 1601.07 1460.48 L1601.07 1455.76 Q1603.89 1454.62 1606.35 1454.05 Q1608.8 1453.47 1610.84 1453.47 Q1616.21 1453.47 1619.4 1456.15 Q1622.6 1458.84 1622.6 1463.33 Q1622.6 1465.46 1621.79 1467.38 Q1621 1469.28 1618.89 1471.87 Q1618.32 1472.54 1615.21 1475.76 Q1612.11 1478.95 1606.46 1484.72 Z" fill="#000000" fill-rule="evenodd" fill-opacity="1" /><path clip-path="url(#clip150)" d="M1758.49 1414.24 L1788.17 1414.24 L1788.17 1418.18 L1758.49 1418.18 L1758.49 1414.24 Z" fill="#000000" fill-rule="evenodd" fill-opacity="1" /><path clip-path="url(#clip150)" d="M1799.07 1427.13 L1806.71 1427.13 L1806.71 1400.77 L1798.4 1402.43 L1798.4 1398.18 L1806.66 1396.51 L1811.34 1396.51 L1811.34 1427.13 L1818.98 1427.13 L1818.98 1431.07 L1799.07 1431.07 L1799.07 1427.13 Z" fill="#000000" fill-rule="evenodd" fill-opacity="1" /><path clip-path="url(#clip150)" d="M1984.74 1342 Q1981.13 1342 1979.3 1345.57 Q1977.5 1349.11 1977.5 1356.24 Q1977.5 1363.35 1979.3 1366.91 Q1981.13 1370.45 1984.74 1370.45 Q1988.38 1370.45 1990.18 1366.91 Q1992.01 1363.35 1992.01 1356.24 Q1992.01 1349.11 1990.18 1345.57 Q1988.38 1342 1984.74 1342 M1984.74 1338.3 Q1990.55 1338.3 1993.61 1342.91 Q1996.69 1347.49 1996.69 1356.24 Q1996.69 1364.97 1993.61 1369.57 Q1990.55 1374.16 1984.74 1374.16 Q1978.93 1374.16 1975.85 1369.57 Q1972.8 1364.97 1972.8 1356.24 Q1972.8 1347.49 1975.85 1342.91 Q1978.93 1338.3 1984.74 1338.3 Z" fill="#000000" fill-rule="evenodd" fill-opacity="1" /><path clip-path="url(#clip150)" d="M2171.13 1311.97 L2178.77 1311.97 L2178.77 1285.6 L2170.46 1287.27 L2170.46 1283.01 L2178.72 1281.34 L2183.4 1281.34 L2183.4 1311.97 L2191.04 1311.97 L2191.04 1315.9 L2171.13 1315.9 L2171.13 1311.97 Z" fill="#000000" fill-rule="evenodd" fill-opacity="1" /><path clip-path="url(#clip150)" d="M2371.41 1254.38 L2387.73 1254.38 L2387.73 1258.32 L2365.78 1258.32 L2365.78 1254.38 Q2368.45 1251.63 2373.03 1247 Q2377.64 1242.35 2378.82 1241 Q2381.06 1238.48 2381.94 1236.74 Q2382.84 1234.99 2382.84 1233.3 Q2382.84 1230.54 2380.9 1228.81 Q2378.98 1227.07 2375.88 1227.07 Q2373.68 1227.07 2371.22 1227.83 Q2368.79 1228.6 2366.02 1230.15 L2366.02 1225.43 Q2368.84 1224.29 2371.29 1223.71 Q2373.75 1223.13 2375.78 1223.13 Q2381.15 1223.13 2384.35 1225.82 Q2387.54 1228.5 2387.54 1232.99 Q2387.54 1235.12 2386.73 1237.05 Q2385.95 1238.94 2383.84 1241.54 Q2383.26 1242.21 2380.16 1245.43 Q2377.06 1248.62 2371.41 1254.38 Z" fill="#000000" fill-rule="evenodd" fill-opacity="1" /><path clip-path="url(#clip150)" d="M1991.94 1465.88 Q1994.01 1466.58 1995.95 1468.87 Q1997.92 1471.16 1999.9 1475.17 L2006.42 1488.16 L1999.52 1488.16 L1993.44 1475.97 Q1991.08 1471.19 1988.85 1469.63 Q1986.66 1468.07 1982.84 1468.07 L1975.83 1468.07 L1975.83 1488.16 L1969.41 1488.16 L1969.41 1440.64 L1983.92 1440.64 Q1992.07 1440.64 1996.08 1444.04 Q2000.09 1447.45 2000.09 1454.32 Q2000.09 1458.81 1997.99 1461.77 Q1995.92 1464.73 1991.94 1465.88 M1975.83 1445.92 L1975.83 1462.79 L1983.92 1462.79 Q1988.57 1462.79 1990.92 1460.66 Q1993.31 1458.49 1993.31 1454.32 Q1993.31 1450.15 1990.92 1448.05 Q1988.57 1445.92 1983.92 1445.92 L1975.83 1445.92 Z" fill="#000000" fill-rule="evenodd" fill-opacity="1" /><path clip-path="url(#clip150)" d="M2042.01 1468.87 L2042.01 1471.73 L2015.08 1471.73 Q2015.46 1477.78 2018.71 1480.96 Q2021.99 1484.12 2027.81 1484.12 Q2031.18 1484.12 2034.34 1483.29 Q2037.52 1482.46 2040.64 1480.8 L2040.64 1486.34 Q2037.49 1487.68 2034.18 1488.38 Q2030.87 1489.08 2027.46 1489.08 Q2018.93 1489.08 2013.93 1484.12 Q2008.97 1479.15 2008.97 1470.68 Q2008.97 1461.93 2013.68 1456.81 Q2018.42 1451.65 2026.44 1451.65 Q2033.64 1451.65 2037.8 1456.3 Q2042.01 1460.91 2042.01 1468.87 M2036.15 1467.15 Q2036.09 1462.34 2033.44 1459.48 Q2030.83 1456.62 2026.51 1456.62 Q2021.6 1456.62 2018.64 1459.38 Q2015.72 1462.15 2015.27 1467.18 L2036.15 1467.15 Z" fill="#000000" fill-rule="evenodd" fill-opacity="1" /><path clip-path="url(#clip150)" d="M2078 1482.81 L2078 1501.72 L2072.12 1501.72 L2072.12 1452.51 L2078 1452.51 L2078 1457.92 Q2079.85 1454.74 2082.65 1453.21 Q2085.48 1451.65 2089.4 1451.65 Q2095.89 1451.65 2099.93 1456.81 Q2104.01 1461.96 2104.01 1470.37 Q2104.01 1478.77 2099.93 1483.92 Q2095.89 1489.08 2089.4 1489.08 Q2085.48 1489.08 2082.65 1487.55 Q2079.85 1485.99 2078 1482.81 M2097.93 1470.37 Q2097.93 1463.9 2095.26 1460.24 Q2092.61 1456.55 2087.97 1456.55 Q2083.32 1456.55 2080.65 1460.24 Q2078 1463.9 2078 1470.37 Q2078 1476.83 2080.65 1480.52 Q2083.32 1484.18 2087.97 1484.18 Q2092.61 1484.18 2095.26 1480.52 Q2097.93 1476.83 2097.93 1470.37 Z" fill="#000000" fill-rule="evenodd" fill-opacity="1" /><path clip-path="url(#clip150)" d="M2129.92 1470.24 Q2122.82 1470.24 2120.08 1471.86 Q2117.34 1473.48 2117.34 1477.4 Q2117.34 1480.52 2119.38 1482.36 Q2121.45 1484.18 2124.98 1484.18 Q2129.85 1484.18 2132.78 1480.74 Q2135.74 1477.27 2135.74 1471.54 L2135.74 1470.24 L2129.92 1470.24 M2141.6 1467.82 L2141.6 1488.16 L2135.74 1488.16 L2135.74 1482.75 Q2133.74 1485.99 2130.74 1487.55 Q2127.75 1489.08 2123.42 1489.08 Q2117.95 1489.08 2114.7 1486.02 Q2111.49 1482.94 2111.49 1477.78 Q2111.49 1471.77 2115.5 1468.71 Q2119.54 1465.65 2127.53 1465.65 L2135.74 1465.65 L2135.74 1465.08 Q2135.74 1461.04 2133.07 1458.84 Q2130.43 1456.62 2125.62 1456.62 Q2122.56 1456.62 2119.67 1457.35 Q2116.77 1458.08 2114.1 1459.54 L2114.1 1454.13 Q2117.31 1452.89 2120.34 1452.29 Q2123.36 1451.65 2126.22 1451.65 Q2133.96 1451.65 2137.78 1455.66 Q2141.6 1459.67 2141.6 1467.82 Z" fill="#000000" fill-rule="evenodd" fill-opacity="1" /><path clip-path="url(#clip150)" d="M2174.32 1457.98 Q2173.33 1457.41 2172.15 1457.16 Q2171.01 1456.87 2169.61 1456.87 Q2164.64 1456.87 2161.97 1460.12 Q2159.33 1463.33 2159.33 1469.38 L2159.33 1488.16 L2153.44 1488.16 L2153.44 1452.51 L2159.33 1452.51 L2159.33 1458.05 Q2161.17 1454.8 2164.13 1453.24 Q2167.09 1451.65 2171.33 1451.65 Q2171.93 1451.65 2172.66 1451.75 Q2173.39 1451.81 2174.29 1451.97 L2174.32 1457.98 Z" fill="#000000" fill-rule="evenodd" fill-opacity="1" /><path clip-path="url(#clip150)" d="M2186.25 1442.39 L2186.25 1452.51 L2198.32 1452.51 L2198.32 1457.06 L2186.25 1457.06 L2186.25 1476.41 Q2186.25 1480.77 2187.43 1482.01 Q2188.64 1483.26 2192.3 1483.26 L2198.32 1483.26 L2198.32 1488.16 L2192.3 1488.16 Q2185.52 1488.16 2182.94 1485.64 Q2180.36 1483.1 2180.36 1476.41 L2180.36 1457.06 L2176.07 1457.06 L2176.07 1452.51 L2180.36 1452.51 L2180.36 1442.39 L2186.25 1442.39 Z" fill="#000000" fill-rule="evenodd" fill-opacity="1" /><polyline clip-path="url(#clip152)" style="stroke:#000000; stroke-linecap:butt; stroke-linejoin:round; stroke-width:2; stroke-opacity:0.1; fill:none" points="
  210.746,1346.4 994.776,1116.07 
  "/>
<polyline clip-path="url(#clip152)" style="stroke:#000000; stroke-linecap:butt; stroke-linejoin:round; stroke-width:2; stroke-opacity:0.1; fill:none" points="
  994.776,1116.07 2352.76,1192.85 
  "/>
<polyline clip-path="url(#clip152)" style="stroke:#000000; stroke-linecap:butt; stroke-linejoin:round; stroke-width:2; stroke-opacity:0.1; fill:none" points="
  210.746,1098.25 994.776,867.92 
  "/>
<polyline clip-path="url(#clip152)" style="stroke:#000000; stroke-linecap:butt; stroke-linejoin:round; stroke-width:2; stroke-opacity:0.1; fill:none" points="
  994.776,867.92 2352.76,944.698 
  "/>
<polyline clip-path="url(#clip152)" style="stroke:#000000; stroke-linecap:butt; stroke-linejoin:round; stroke-width:2; stroke-opacity:0.1; fill:none" points="
  210.746,850.104 994.776,619.771 
  "/>
<polyline clip-path="url(#clip152)" style="stroke:#000000; stroke-linecap:butt; stroke-linejoin:round; stroke-width:2; stroke-opacity:0.1; fill:none" points="
  994.776,619.771 2352.76,696.548 
  "/>
<polyline clip-path="url(#clip152)" style="stroke:#000000; stroke-linecap:butt; stroke-linejoin:round; stroke-width:2; stroke-opacity:0.1; fill:none" points="
  210.746,601.954 994.776,371.621 
  "/>
<polyline clip-path="url(#clip152)" style="stroke:#000000; stroke-linecap:butt; stroke-linejoin:round; stroke-width:2; stroke-opacity:0.1; fill:none" points="
  994.776,371.621 2352.76,448.399 
  "/>
<polyline clip-path="url(#clip152)" style="stroke:#000000; stroke-linecap:butt; stroke-linejoin:round; stroke-width:2; stroke-opacity:0.1; fill:none" points="
  210.746,353.805 994.776,123.472 
  "/>
<polyline clip-path="url(#clip152)" style="stroke:#000000; stroke-linecap:butt; stroke-linejoin:round; stroke-width:2; stroke-opacity:0.1; fill:none" points="
  994.776,123.472 2352.76,200.25 
  "/>
<polyline clip-path="url(#clip150)" style="stroke:#000000; stroke-linecap:butt; stroke-linejoin:round; stroke-width:4; stroke-opacity:1; fill:none" points="
  210.746,1346.4 210.746,353.805 
  "/>
<polyline clip-path="url(#clip150)" style="stroke:#000000; stroke-linecap:butt; stroke-linejoin:round; stroke-width:4; stroke-opacity:1; fill:none" points="
  210.746,1346.4 220.154,1343.64 
  "/>
<polyline clip-path="url(#clip150)" style="stroke:#000000; stroke-linecap:butt; stroke-linejoin:round; stroke-width:4; stroke-opacity:1; fill:none" points="
  210.746,1098.25 220.154,1095.49 
  "/>
<polyline clip-path="url(#clip150)" style="stroke:#000000; stroke-linecap:butt; stroke-linejoin:round; stroke-width:4; stroke-opacity:1; fill:none" points="
  210.746,850.104 220.154,847.34 
  "/>
<polyline clip-path="url(#clip150)" style="stroke:#000000; stroke-linecap:butt; stroke-linejoin:round; stroke-width:4; stroke-opacity:1; fill:none" points="
  210.746,601.954 220.154,599.19 
  "/>
<polyline clip-path="url(#clip150)" style="stroke:#000000; stroke-linecap:butt; stroke-linejoin:round; stroke-width:4; stroke-opacity:1; fill:none" points="
  210.746,353.805 220.154,351.041 
  "/>
<path clip-path="url(#clip150)" d="M126.631 1346.85 L156.306 1346.85 L156.306 1350.79 L126.631 1350.79 L126.631 1346.85 Z" fill="#000000" fill-rule="evenodd" fill-opacity="1" /><path clip-path="url(#clip150)" d="M170.427 1359.75 L186.746 1359.75 L186.746 1363.68 L164.802 1363.68 L164.802 1359.75 Q167.464 1356.99 172.047 1352.36 Q176.653 1347.71 177.834 1346.37 Q180.079 1343.84 180.959 1342.11 Q181.862 1340.35 181.862 1338.66 Q181.862 1335.9 179.917 1334.17 Q177.996 1332.43 174.894 1332.43 Q172.695 1332.43 170.241 1333.2 Q167.811 1333.96 165.033 1335.51 L165.033 1330.79 Q167.857 1329.65 170.311 1329.08 Q172.765 1328.5 174.802 1328.5 Q180.172 1328.5 183.366 1331.18 Q186.561 1333.87 186.561 1338.36 Q186.561 1340.49 185.751 1342.41 Q184.964 1344.31 182.857 1346.9 Q182.278 1347.57 179.177 1350.79 Q176.075 1353.98 170.427 1359.75 Z" fill="#000000" fill-rule="evenodd" fill-opacity="1" /><path clip-path="url(#clip150)" d="M126.26 1098.7 L155.936 1098.7 L155.936 1102.64 L126.26 1102.64 L126.26 1098.7 Z" fill="#000000" fill-rule="evenodd" fill-opacity="1" /><path clip-path="url(#clip150)" d="M166.839 1111.6 L174.477 1111.6 L174.477 1085.23 L166.167 1086.9 L166.167 1082.64 L174.431 1080.97 L179.107 1080.97 L179.107 1111.6 L186.746 1111.6 L186.746 1115.53 L166.839 1115.53 L166.839 1111.6 Z" fill="#000000" fill-rule="evenodd" fill-opacity="1" /><path clip-path="url(#clip150)" d="M174.802 835.902 Q171.19 835.902 169.362 839.467 Q167.556 843.009 167.556 850.138 Q167.556 857.245 169.362 860.81 Q171.19 864.351 174.802 864.351 Q178.436 864.351 180.241 860.81 Q182.07 857.245 182.07 850.138 Q182.07 843.009 180.241 839.467 Q178.436 835.902 174.802 835.902 M174.802 832.199 Q180.612 832.199 183.667 836.805 Q186.746 841.388 186.746 850.138 Q186.746 858.865 183.667 863.472 Q180.612 868.055 174.802 868.055 Q168.991 868.055 165.913 863.472 Q162.857 858.865 162.857 850.138 Q162.857 841.388 165.913 836.805 Q168.991 832.199 174.802 832.199 Z" fill="#000000" fill-rule="evenodd" fill-opacity="1" /><path clip-path="url(#clip150)" d="M166.839 615.299 L174.477 615.299 L174.477 588.934 L166.167 590.6 L166.167 586.341 L174.431 584.674 L179.107 584.674 L179.107 615.299 L186.746 615.299 L186.746 619.234 L166.839 619.234 L166.839 615.299 Z" fill="#000000" fill-rule="evenodd" fill-opacity="1" /><path clip-path="url(#clip150)" d="M170.427 367.15 L186.746 367.15 L186.746 371.085 L164.802 371.085 L164.802 367.15 Q167.464 364.395 172.047 359.766 Q176.653 355.113 177.834 353.77 Q180.079 351.247 180.959 349.511 Q181.862 347.752 181.862 346.062 Q181.862 343.307 179.917 341.571 Q177.996 339.835 174.894 339.835 Q172.695 339.835 170.241 340.599 Q167.811 341.363 165.033 342.914 L165.033 338.192 Q167.857 337.057 170.311 336.479 Q172.765 335.9 174.802 335.9 Q180.172 335.9 183.366 338.585 Q186.561 341.27 186.561 345.761 Q186.561 347.891 185.751 349.812 Q184.964 351.71 182.857 354.303 Q182.278 354.974 179.177 358.192 Q176.075 361.386 170.427 367.15 Z" fill="#000000" fill-rule="evenodd" fill-opacity="1" /><path clip-path="url(#clip150)" d="M16.4842 964.686 L16.4842 958.257 L64.0042 958.257 L64.0042 964.686 L16.4842 964.686 Z" fill="#000000" fill-rule="evenodd" fill-opacity="1" /><path clip-path="url(#clip150)" d="M35.1993 917.962 Q31.2526 915.766 29.3747 912.71 Q27.4968 909.655 27.4968 905.517 Q27.4968 899.947 31.4117 896.923 Q35.2948 893.9 42.4881 893.9 L64.0042 893.9 L64.0042 899.788 L42.679 899.788 Q37.5546 899.788 35.072 901.602 Q32.5894 903.416 32.5894 907.14 Q32.5894 911.692 35.6131 914.334 Q38.6368 916.975 43.8567 916.975 L64.0042 916.975 L64.0042 922.864 L42.679 922.864 Q37.5228 922.864 35.072 924.678 Q32.5894 926.492 32.5894 930.28 Q32.5894 934.768 35.6449 937.409 Q38.6686 940.051 43.8567 940.051 L64.0042 940.051 L64.0042 945.939 L28.3562 945.939 L28.3562 940.051 L33.8944 940.051 Q30.616 938.046 29.0564 935.245 Q27.4968 932.444 27.4968 928.593 Q27.4968 924.71 29.4702 922.004 Q31.4436 919.267 35.1993 917.962 Z" fill="#000000" fill-rule="evenodd" fill-opacity="1" /><path clip-path="url(#clip150)" d="M58.657 855.833 L77.5631 855.833 L77.5631 861.721 L28.3562 861.721 L28.3562 855.833 L33.7671 855.833 Q30.5842 853.987 29.0564 851.186 Q27.4968 848.353 27.4968 844.438 Q27.4968 837.945 32.6531 833.903 Q37.8093 829.829 46.212 829.829 Q54.6147 829.829 59.771 833.903 Q64.9272 837.945 64.9272 844.438 Q64.9272 848.353 63.3994 851.186 Q61.8398 853.987 58.657 855.833 M46.212 835.908 Q39.7508 835.908 36.0905 838.582 Q32.3984 841.223 32.3984 845.87 Q32.3984 850.517 36.0905 853.191 Q39.7508 855.833 46.212 855.833 Q52.6732 855.833 56.3653 853.191 Q60.0256 850.517 60.0256 845.87 Q60.0256 841.223 56.3653 838.582 Q52.6732 835.908 46.212 835.908 Z" fill="#000000" fill-rule="evenodd" fill-opacity="1" /><path clip-path="url(#clip150)" d="M46.0847 803.92 Q46.0847 811.018 47.7079 813.755 Q49.3312 816.493 53.2461 816.493 Q56.3653 816.493 58.2114 814.456 Q60.0256 812.387 60.0256 808.854 Q60.0256 803.984 56.5881 801.056 Q53.1188 798.096 47.3897 798.096 L46.0847 798.096 L46.0847 803.92 M43.6657 792.239 L64.0042 792.239 L64.0042 798.096 L58.5933 798.096 Q61.8398 800.101 63.3994 803.093 Q64.9272 806.085 64.9272 810.413 Q64.9272 815.888 61.8716 819.134 Q58.7843 822.349 53.6281 822.349 Q47.6125 822.349 44.5569 818.339 Q41.5014 814.297 41.5014 806.308 L41.5014 798.096 L40.9285 798.096 Q36.8862 798.096 34.6901 800.769 Q32.4621 803.411 32.4621 808.217 Q32.4621 811.273 33.1941 814.169 Q33.9262 817.066 35.3903 819.739 L29.9795 819.739 Q28.7381 816.525 28.1334 813.501 Q27.4968 810.477 27.4968 807.613 Q27.4968 799.878 31.5072 796.059 Q35.5176 792.239 43.6657 792.239 Z" fill="#000000" fill-rule="evenodd" fill-opacity="1" /><path clip-path="url(#clip150)" d="M33.8307 759.52 Q33.2578 760.506 33.0032 761.684 Q32.7167 762.83 32.7167 764.23 Q32.7167 769.196 35.9632 771.869 Q39.1779 774.511 45.2253 774.511 L64.0042 774.511 L64.0042 780.399 L28.3562 780.399 L28.3562 774.511 L33.8944 774.511 Q30.6479 772.665 29.0883 769.705 Q27.4968 766.745 27.4968 762.512 Q27.4968 761.907 27.5923 761.175 Q27.656 760.443 27.8151 759.551 L33.8307 759.52 Z" fill="#000000" fill-rule="evenodd" fill-opacity="1" /><path clip-path="url(#clip150)" d="M18.2347 747.584 L28.3562 747.584 L28.3562 735.521 L32.9077 735.521 L32.9077 747.584 L52.2594 747.584 Q56.6199 747.584 57.8613 746.406 Q59.1026 745.197 59.1026 741.537 L59.1026 735.521 L64.0042 735.521 L64.0042 741.537 Q64.0042 748.316 61.4897 750.894 Q58.9434 753.472 52.2594 753.472 L32.9077 753.472 L32.9077 757.769 L28.3562 757.769 L28.3562 753.472 L18.2347 753.472 L18.2347 747.584 Z" fill="#000000" fill-rule="evenodd" fill-opacity="1" /><path clip-path="url(#clip150)" d="M917.818 49.7694 Q908.784 49.7694 905.3 51.8354 Q901.817 53.9013 901.817 58.8839 Q901.817 62.8538 904.409 65.2034 Q907.042 67.5124 911.539 67.5124 Q917.737 67.5124 921.464 63.1374 Q925.231 58.7219 925.231 51.4303 L925.231 49.7694 L917.818 49.7694 M932.685 46.6907 L932.685 72.576 L925.231 72.576 L925.231 65.6895 Q922.679 69.8214 918.871 71.8063 Q915.063 73.7508 909.554 73.7508 Q902.586 73.7508 898.454 69.8619 Q894.363 65.9325 894.363 59.3701 Q894.363 51.7138 899.467 47.825 Q904.612 43.9361 914.78 43.9361 L925.231 43.9361 L925.231 43.2069 Q925.231 38.0623 921.828 35.2672 Q918.466 32.4315 912.349 32.4315 Q908.46 32.4315 904.774 33.3632 Q901.087 34.295 897.685 36.1584 L897.685 29.2718 Q901.776 27.692 905.624 26.9223 Q909.473 26.1121 913.119 26.1121 Q922.962 26.1121 927.823 31.2163 Q932.685 36.3204 932.685 46.6907 Z" fill="#000000" fill-rule="evenodd" fill-opacity="1" /><path clip-path="url(#clip150)" d="M975.381 34.9026 L1027.31 34.9026 L1027.31 41.7081 L975.381 41.7081 L975.381 34.9026 M975.381 51.4303 L1027.31 51.4303 L1027.31 58.3168 L975.381 58.3168 L975.381 51.4303 Z" fill="#000000" fill-rule="evenodd" fill-opacity="1" /><path clip-path="url(#clip150)" d="M1088.85 17.4837 Q1082.53 17.4837 1079.33 23.7221 Q1076.17 29.92 1076.17 42.3968 Q1076.17 54.833 1079.33 61.0714 Q1082.53 67.2693 1088.85 67.2693 Q1095.21 67.2693 1098.37 61.0714 Q1101.57 54.833 1101.57 42.3968 Q1101.57 29.92 1098.37 23.7221 Q1095.21 17.4837 1088.85 17.4837 M1088.85 11.0023 Q1099.01 11.0023 1104.36 19.0636 Q1109.75 27.0843 1109.75 42.3968 Q1109.75 57.6687 1104.36 65.73 Q1099.01 73.7508 1088.85 73.7508 Q1078.68 73.7508 1073.29 65.73 Q1067.94 57.6687 1067.94 42.3968 Q1067.94 27.0843 1073.29 19.0636 Q1078.68 11.0023 1088.85 11.0023 Z" fill="#000000" fill-rule="evenodd" fill-opacity="1" /><path clip-path="url(#clip150)" d="M1124.13 62.2867 L1132.68 62.2867 L1132.68 72.576 L1124.13 72.576 L1124.13 62.2867 Z" fill="#000000" fill-rule="evenodd" fill-opacity="1" /><path clip-path="url(#clip150)" d="M1168 17.4837 Q1161.68 17.4837 1158.48 23.7221 Q1155.32 29.92 1155.32 42.3968 Q1155.32 54.833 1158.48 61.0714 Q1161.68 67.2693 1168 67.2693 Q1174.36 67.2693 1177.52 61.0714 Q1180.72 54.833 1180.72 42.3968 Q1180.72 29.92 1177.52 23.7221 Q1174.36 17.4837 1168 17.4837 M1168 11.0023 Q1178.17 11.0023 1183.52 19.0636 Q1188.9 27.0843 1188.9 42.3968 Q1188.9 57.6687 1183.52 65.73 Q1178.17 73.7508 1168 73.7508 Q1157.83 73.7508 1152.45 65.73 Q1147.1 57.6687 1147.1 42.3968 Q1147.1 27.0843 1152.45 19.0636 Q1157.83 11.0023 1168 11.0023 Z" fill="#000000" fill-rule="evenodd" fill-opacity="1" /><path clip-path="url(#clip150)" d="M1220.78 17.4837 Q1214.47 17.4837 1211.27 23.7221 Q1208.11 29.92 1208.11 42.3968 Q1208.11 54.833 1211.27 61.0714 Q1214.47 67.2693 1220.78 67.2693 Q1227.14 67.2693 1230.3 61.0714 Q1233.5 54.833 1233.5 42.3968 Q1233.5 29.92 1230.3 23.7221 Q1227.14 17.4837 1220.78 17.4837 M1220.78 11.0023 Q1230.95 11.0023 1236.3 19.0636 Q1241.69 27.0843 1241.69 42.3968 Q1241.69 57.6687 1236.3 65.73 Q1230.95 73.7508 1220.78 73.7508 Q1210.62 73.7508 1205.23 65.73 Q1199.88 57.6687 1199.88 42.3968 Q1199.88 27.0843 1205.23 19.0636 Q1210.62 11.0023 1220.78 11.0023 Z" fill="#000000" fill-rule="evenodd" fill-opacity="1" /><path clip-path="url(#clip150)" d="M1256.92 62.2867 L1265.47 62.2867 L1265.47 69.2543 L1258.82 82.2172 L1253.6 82.2172 L1256.92 69.2543 L1256.92 62.2867 Z" fill="#000000" fill-rule="evenodd" fill-opacity="1" /><path clip-path="url(#clip150)" d="M1322.22 73.7508 Q1305.41 73.7508 1305.41 49.6884 Q1305.41 40.1688 1311.69 27.2059 L1319.71 27.2059 Q1313.92 40.1688 1313.92 49.8909 Q1313.92 67.4314 1322.91 67.4314 Q1331.13 67.4314 1331.13 45.6375 L1338.02 45.6375 Q1338.02 67.4314 1346.24 67.4314 Q1355.23 67.4314 1355.23 49.8909 Q1355.23 40.1688 1349.44 27.2059 L1357.46 27.2059 Q1363.74 40.1688 1363.74 49.6884 Q1363.74 73.7508 1346.93 73.7508 Q1335.91 73.7508 1334.57 61.6386 Q1332.91 73.7508 1322.22 73.7508 Z" fill="#000000" fill-rule="evenodd" fill-opacity="1" /><path clip-path="url(#clip150)" d="M1404.57 34.9026 L1456.51 34.9026 L1456.51 41.7081 L1404.57 41.7081 L1404.57 34.9026 M1404.57 51.4303 L1456.51 51.4303 L1456.51 58.3168 L1404.57 58.3168 L1404.57 51.4303 Z" fill="#000000" fill-rule="evenodd" fill-opacity="1" /><path clip-path="url(#clip150)" d="M1518.04 17.4837 Q1511.72 17.4837 1508.52 23.7221 Q1505.36 29.92 1505.36 42.3968 Q1505.36 54.833 1508.52 61.0714 Q1511.72 67.2693 1518.04 67.2693 Q1524.4 67.2693 1527.56 61.0714 Q1530.76 54.833 1530.76 42.3968 Q1530.76 29.92 1527.56 23.7221 Q1524.4 17.4837 1518.04 17.4837 M1518.04 11.0023 Q1528.21 11.0023 1533.56 19.0636 Q1538.94 27.0843 1538.94 42.3968 Q1538.94 57.6687 1533.56 65.73 Q1528.21 73.7508 1518.04 73.7508 Q1507.87 73.7508 1502.48 65.73 Q1497.14 57.6687 1497.14 42.3968 Q1497.14 27.0843 1502.48 19.0636 Q1507.87 11.0023 1518.04 11.0023 Z" fill="#000000" fill-rule="evenodd" fill-opacity="1" /><path clip-path="url(#clip150)" d="M1553.32 62.2867 L1561.87 62.2867 L1561.87 72.576 L1553.32 72.576 L1553.32 62.2867 Z" fill="#000000" fill-rule="evenodd" fill-opacity="1" /><path clip-path="url(#clip150)" d="M1577.63 12.096 L1616.52 12.096 L1616.52 15.5798 L1594.56 72.576 L1586.01 72.576 L1606.67 18.9825 L1577.63 18.9825 L1577.63 12.096 Z" fill="#000000" fill-rule="evenodd" fill-opacity="1" /><path clip-path="url(#clip150)" d="M1632.56 12.096 L1664.68 12.096 L1664.68 18.9825 L1640.05 18.9825 L1640.05 33.8088 Q1641.84 33.2012 1643.62 32.9176 Q1645.4 32.5936 1647.18 32.5936 Q1657.31 32.5936 1663.22 38.1433 Q1669.14 43.6931 1669.14 53.1722 Q1669.14 62.9348 1663.06 68.3631 Q1656.99 73.7508 1645.93 73.7508 Q1642.12 73.7508 1638.15 73.1026 Q1634.22 72.4545 1630.01 71.1582 L1630.01 62.9348 Q1633.65 64.9198 1637.54 65.892 Q1641.43 66.8642 1645.77 66.8642 Q1652.77 66.8642 1656.86 63.1779 Q1660.96 59.4916 1660.96 53.1722 Q1660.96 46.8528 1656.86 43.1664 Q1652.77 39.4801 1645.77 39.4801 Q1642.48 39.4801 1639.2 40.2093 Q1635.96 40.9384 1632.56 42.4778 L1632.56 12.096 Z" fill="#000000" fill-rule="evenodd" fill-opacity="1" /><polyline clip-path="url(#clip152)" style="stroke:#009af9; stroke-linecap:butt; stroke-linejoin:round; stroke-width:8; stroke-opacity:1; fill:none" points="
  798.768,677.354 800.898,668.201 802.751,659.142 804.328,650.191 805.63,641.359 806.659,632.661 807.415,624.108 807.902,615.712 808.122,607.486 808.077,599.442 
  807.772,591.59 807.209,583.942 806.392,576.51 805.327,569.303 804.017,562.333 802.468,555.609 800.685,549.141 798.674,542.937 796.441,537.008 793.991,531.362 
  791.333,526.007 788.473,520.95 785.417,516.199 782.175,511.761 778.752,507.642 775.158,503.848 771.401,500.385 767.488,497.258 763.43,494.471 759.235,492.029 
  754.911,489.935 750.469,488.192 745.917,486.803 741.266,485.77 736.525,485.096 731.704,484.779 726.812,484.823 721.861,485.226 716.861,485.988 711.821,487.109 
  706.752,488.586 701.664,490.419 696.567,492.604 691.473,495.138 686.391,498.02 681.332,501.243 676.307,504.805 671.324,508.7 666.396,512.922 661.531,517.467 
  656.74,522.328 652.033,527.498 647.419,532.97 642.909,538.736 638.512,544.789 634.238,551.121 630.095,557.721 626.093,564.582 622.24,571.694 618.546,579.047 
  615.018,586.631 611.665,594.435 608.495,602.448 605.515,610.659 602.733,619.058 600.155,627.631 597.79,636.368 595.643,645.256 593.721,654.282 592.029,663.435 
  590.573,672.701 589.358,682.068 588.39,691.522 587.672,701.051 587.209,710.64 587.006,720.278 587.064,729.949 587.388,739.641 587.981,749.341 588.844,759.035 
  589.979,768.708 591.389,778.349 593.074,787.943 595.035,797.477 597.273,806.937 599.787,816.311 602.578,825.586 605.645,834.748 608.986,843.786 612.6,852.685 
  616.485,861.434 620.638,870.021 625.058,878.434 629.741,886.661 634.684,894.69 639.882,902.511 645.332,910.113 651.03,917.485 656.969,924.616 663.146,931.498 
  669.555,938.12 676.19,944.473 683.044,950.548 690.112,956.338 697.386,961.834 704.859,967.028 712.524,971.914 720.374,976.484 728.4,980.733 736.595,984.654 
  744.95,988.243 753.456,991.494 762.105,994.402 770.887,996.965 779.794,999.178 788.816,1001.04 797.944,1002.54 807.167,1003.69 816.476,1004.48 825.862,1004.92 
  835.313,1004.99 844.821,1004.7 854.374,1004.06 863.962,1003.05 873.575,1001.69 883.203,999.976 892.836,997.91 902.462,995.496 912.072,992.736 921.655,989.636 
  931.2,986.2 940.699,982.433 950.139,978.339 959.512,973.926 968.807,969.2 978.014,964.168 987.124,958.836 996.126,953.212 1005.01,947.306 1013.77,941.124 
  1022.4,934.677 1030.88,927.973 1039.2,921.022 1047.37,913.834 1055.37,906.419 1063.18,898.788 1070.82,890.953 1078.25,882.923 1085.49,874.711 1092.52,866.329 
  1099.34,857.788 1105.94,849.1 1112.3,840.279 1118.44,831.337 1124.34,822.286 1129.99,813.14 1135.4,803.912 1140.55,794.614 1145.45,785.261 1150.09,775.865 
  1154.46,766.44 1158.57,757 1162.4,747.557 1165.97,738.126 1169.26,728.72 1172.28,719.353 1175.02,710.037 1177.49,700.787 1179.68,691.615 1181.59,682.535 
  1183.23,673.559 1184.59,664.701 1185.68,655.973 1186.49,647.387 1187.04,638.956 1187.32,630.692 1187.33,622.608 1187.08,614.713 1186.57,607.02 1185.81,599.541 
  1184.8,592.284 1183.54,585.262 1182.04,578.484 1180.31,571.959 1178.35,565.698 1176.16,559.709 1173.76,554.001 1171.15,548.581 1168.33,543.459 1165.31,538.641 
  1162.11,534.135 1158.73,529.946 1155.17,526.082 1151.45,522.547 1147.57,519.346 1143.54,516.486 1139.37,513.968 1135.08,511.799 1130.66,509.98 1126.13,508.514 
  1121.5,507.404 1116.78,506.652 1111.97,506.258 1107.1,506.223 1102.16,506.548 1097.17,507.233 1092.13,508.276 1087.07,509.676 1081.99,511.432 1076.89,513.541 
  1071.79,516.001 1066.71,518.807 1061.64,521.957 1056.61,525.446 1051.62,529.269 1046.68,533.421 1041.8,537.896 1036.99,542.689 1032.26,547.793 1027.63,553.2 
  1023.1,558.904 1018.67,564.895 1014.37,571.167 1010.2,577.71 1006.17,584.516 1002.28,591.574 998.551,598.876 994.987,606.41 991.595,614.167 988.385,622.136 
  985.363,630.306 982.537,638.664 979.915,647.201 977.503,655.903 975.309,664.76 973.337,673.757 971.595,682.884 970.087,692.126 968.82,701.473 967.798,710.909 
  967.025,720.422 966.507,730 966.247,739.628 966.249,749.293 966.515,758.982 967.049,768.682 967.853,778.377 968.93,788.057 970.28,797.705 971.905,807.311 
  973.806,816.859 975.984,826.336 978.439,835.73 981.17,845.028 984.177,854.215 987.459,863.281 991.014,872.211 994.84,880.994 998.936,889.617 1003.3,898.068 
  1007.92,906.336 1012.81,914.41 1017.95,922.277 1023.35,929.927 1028.99,937.349 1034.88,944.533 1041.01,951.47 1047.37,958.149 1053.95,964.561 1060.76,970.697 
  1067.78,976.55 1075.01,982.11 1082.44,987.37 1090.07,992.323 1097.88,996.962 1105.87,1001.28 1114.03,1005.27 1122.35,1008.93 1130.82,1012.26 1139.44,1015.24 
  1148.19,1017.88 1157.08,1020.17 1166.07,1022.11 1175.18,1023.69 1184.38,1024.92 1193.67,1025.78 1203.04,1026.29 1212.48,1026.44 1221.98,1026.23 1231.52,1025.67 
  1241.1,1024.74 1250.71,1023.46 1260.34,1021.82 1269.97,1019.83 1279.6,1017.49 1289.21,1014.8 1298.8,1011.78 1308.36,1008.41 1317.87,1004.72 1327.32,1000.69 
  1336.71,996.349 1346.02,991.69 1355.25,986.723 1364.38,981.455 1373.41,975.895 1382.32,970.049 1391.11,963.926 1399.76,957.535 1408.27,950.886 1416.63,943.987 
  1424.84,936.85 1432.87,929.483 1440.73,921.899 1448.4,914.106 1455.88,906.118 1463.16,897.944 1470.24,889.598 1477.1,881.09 1483.75,872.433 1490.16,863.64 
  1496.35,854.723 1502.3,845.695 1508.01,836.568 1513.47,827.356 1518.68,818.073 1523.63,808.73 1528.32,799.342 1532.76,789.923 1536.92,780.484 1540.82,771.041 
  1544.44,761.607 1547.79,752.194 1550.87,742.818 1553.67,733.49 1556.2,724.224 1558.45,715.034 1560.42,705.933 1562.12,696.933 1563.54,688.048 1564.69,679.291 
  1565.56,670.673 1566.16,662.208 1566.5,653.907 1566.57,645.783 1566.38,637.846 1565.92,630.109 1565.22,622.582 1564.26,615.276 1563.05,608.202 1561.61,601.37 
  1559.92,594.79 1558.01,588.471 1555.87,582.422 1553.52,576.653 1550.95,571.17 1548.17,565.983 1545.2,561.099 1542.04,556.524 1538.69,552.266 1535.17,548.331 
  1531.49,544.724 1527.64,541.451 1523.64,538.516 1519.51,535.924 1515.24,533.679 1510.85,531.784 1506.34,530.242 1501.73,529.055 1497.03,528.225 1492.24,527.753 
  1487.38,527.641 1482.45,527.888 1477.47,528.495 1472.45,529.46 1467.39,530.783 1462.31,532.462 1457.21,534.495 1452.12,536.879 1447.03,539.61 1441.96,542.686 
  1436.92,546.102 1431.91,549.853 1426.96,553.935 1422.07,558.341 1417.24,563.065 1412.5,568.102 1407.84,573.444 1403.29,579.084 1398.84,585.014 1394.51,591.226 
  1390.31,597.711 1386.25,604.461 1382.33,611.465 1378.56,618.715 1374.96,626.2 1371.53,633.91 1368.28,641.834 1365.22,649.961 1362.35,658.28 1359.68,666.779 
  1357.23,675.446 1354.98,684.27 1352.96,693.238 1351.17,702.338 1349.61,711.557 1348.29,720.881 1347.22,730.299 1346.39,739.797 1345.82,749.362 1345.5,758.98 
  1345.45,768.639 1345.65,778.324 1346.13,788.022 1346.88,797.72 1347.89,807.403 1349.18,817.06 1350.75,826.676 1352.59,836.237 1354.71,845.731 1357.1,855.144 
  1359.78,864.464 1362.72,873.676 1365.94,882.769 1369.44,891.73 1373.21,900.546 1377.25,909.204 1381.55,917.694 1386.12,926.003 1390.95,934.119 1396.04,942.032 
  1401.38,949.73 1406.97,957.202 1412.81,964.439 1418.88,971.43 1425.19,978.165 1431.73,984.636 1438.49,990.833 1445.46,996.748 1452.65,1002.37 1460.04,1007.7 
  1467.62,1012.72 1475.39,1017.43 1483.34,1021.81 1491.47,1025.88 1499.75,1029.61 1508.19,1033.01 1516.78,1036.07 1525.51,1038.78 1534.36,1041.14 1543.34,1043.16 
  1552.42,1044.82 1561.6,1046.12 1570.87,1047.07 1580.23,1047.65 1589.65,1047.88 1599.14,1047.75 1608.67,1047.26 1618.25,1046.41 1627.85,1045.2 1637.47,1043.64 
  1647.1,1041.73 1656.73,1039.46 1666.35,1036.85 1675.95,1033.9 1685.51,1030.61 1695.03,1026.98 1704.5,1023.03 1713.9,1018.76 1723.23,1014.17 1732.48,1009.26 
  1741.63,1004.06 1750.68,998.563 1759.62,992.778 1768.43,986.715 1777.12,980.381 1785.66,973.787 1794.06,966.942 1802.29,959.855 1810.36,952.538 1818.26,944.999 
  1825.97,937.251 1833.5,929.304 1840.82,921.169 1847.94,912.859 1854.85,904.385 1861.55,895.76 1868.01,886.995 1874.25,878.104 1880.25,869.099 1886.01,859.992 
  1891.53,850.798 1896.79,841.528 1901.8,832.198 1906.55,822.818 1911.04,813.404 1915.26,803.969 1919.22,794.526 1922.9,785.088 1926.31,775.67 1929.45,766.284 
  
  "/>
<polyline clip-path="url(#clip152)" style="stroke:#e26f46; stroke-linecap:butt; stroke-linejoin:round; stroke-width:8; stroke-opacity:1; fill:none" points="
  798.768,1049.58 800.898,1049.75 802.751,1050 804.328,1050.33 805.63,1050.74 806.659,1051.23 807.415,1051.8 807.902,1052.46 808.122,1053.19 808.077,1053.99 
  807.772,1054.88 807.209,1055.84 806.392,1056.87 805.327,1057.98 804.017,1059.16 802.468,1060.41 800.685,1061.73 798.674,1063.11 796.441,1064.56 793.991,1066.08 
  791.333,1067.65 788.473,1069.29 785.417,1070.98 782.175,1072.73 778.752,1074.53 775.158,1076.38 771.401,1078.27 767.488,1080.22 763.43,1082.2 759.235,1084.23 
  754.911,1086.3 750.469,1088.4 745.917,1090.53 741.266,1092.69 736.525,1094.88 731.704,1097.09 726.812,1099.32 721.861,1101.57 716.861,1103.83 711.821,1106.11 
  706.752,1108.39 701.664,1110.68 696.567,1112.97 691.473,1115.26 686.391,1117.55 681.332,1119.83 676.307,1122.1 671.324,1124.36 666.396,1126.6 661.531,1128.82 
  656.74,1131.03 652.033,1133.2 647.419,1135.35 642.909,1137.47 638.512,1139.56 634.238,1141.61 630.095,1143.62 626.093,1145.59 622.24,1147.52 618.546,1149.4 
  615.018,1151.23 611.665,1153.01 608.495,1154.73 605.515,1156.4 602.733,1158.02 600.155,1159.57 597.79,1161.06 595.643,1162.48 593.721,1163.84 592.029,1165.13 
  590.573,1166.35 589.358,1167.51 588.39,1168.58 587.672,1169.59 587.209,1170.52 587.006,1171.37 587.064,1172.15 587.388,1172.85 587.981,1173.47 588.844,1174.01 
  589.979,1174.47 591.389,1174.85 593.074,1175.15 595.035,1175.37 597.273,1175.51 599.787,1175.56 602.578,1175.54 605.645,1175.43 608.986,1175.25 612.6,1174.98 
  616.485,1174.63 620.638,1174.21 625.058,1173.7 629.741,1173.12 634.684,1172.46 639.882,1171.73 645.332,1170.92 651.03,1170.04 656.969,1169.09 663.146,1168.07 
  669.555,1166.98 676.19,1165.83 683.044,1164.61 690.112,1163.33 697.386,1161.99 704.859,1160.59 712.524,1159.13 720.374,1157.62 728.4,1156.05 736.595,1154.44 
  744.95,1152.78 753.456,1151.08 762.105,1149.33 770.887,1147.54 779.794,1145.72 788.816,1143.87 797.944,1141.98 807.167,1140.06 816.476,1138.12 825.862,1136.16 
  835.313,1134.18 844.821,1132.18 854.374,1130.17 863.962,1128.14 873.575,1126.11 883.203,1124.08 892.836,1122.05 902.462,1120.01 912.072,1117.98 921.655,1115.96 
  931.2,1113.95 940.699,1111.96 950.139,1109.98 959.512,1108.02 968.807,1106.08 978.014,1104.17 987.124,1102.29 996.126,1100.44 1005.01,1098.62 1013.77,1096.84 
  1022.4,1095.11 1030.88,1093.41 1039.2,1091.76 1047.37,1090.15 1055.37,1088.6 1063.18,1087.1 1070.82,1085.65 1078.25,1084.26 1085.49,1082.92 1092.52,1081.65 
  1099.34,1080.45 1105.94,1079.3 1112.3,1078.23 1118.44,1077.22 1124.34,1076.28 1129.99,1075.41 1135.4,1074.62 1140.55,1073.9 1145.45,1073.26 1150.09,1072.69 
  1154.46,1072.2 1158.57,1071.78 1162.4,1071.45 1165.97,1071.2 1169.26,1071.03 1172.28,1070.93 1175.02,1070.92 1177.49,1070.99 1179.68,1071.14 1181.59,1071.38 
  1183.23,1071.69 1184.59,1072.08 1185.68,1072.56 1186.49,1073.11 1187.04,1073.75 1187.32,1074.46 1187.33,1075.25 1187.08,1076.12 1186.57,1077.06 1185.81,1078.08 
  1184.8,1079.17 1183.54,1080.34 1182.04,1081.57 1180.31,1082.88 1178.35,1084.25 1176.16,1085.68 1173.76,1087.18 1171.15,1088.75 1168.33,1090.37 1165.31,1092.05 
  1162.11,1093.78 1158.73,1095.57 1155.17,1097.41 1151.45,1099.3 1147.57,1101.23 1143.54,1103.21 1139.37,1105.23 1135.08,1107.29 1130.66,1109.38 1126.13,1111.5 
  1121.5,1113.66 1116.78,1115.84 1111.97,1118.05 1107.1,1120.27 1102.16,1122.52 1097.17,1124.78 1092.13,1127.05 1087.07,1129.33 1081.99,1131.62 1076.89,1133.91 
  1071.79,1136.21 1066.71,1138.49 1061.64,1140.78 1056.61,1143.05 1051.62,1145.31 1046.68,1147.56 1041.8,1149.79 1036.99,1151.99 1032.26,1154.17 1027.63,1156.33 
  1023.1,1158.46 1018.67,1160.55 1014.37,1162.61 1010.2,1164.63 1006.17,1166.61 1002.28,1168.54 998.551,1170.43 994.987,1172.28 991.595,1174.07 988.385,1175.8 
  985.363,1177.49 982.537,1179.11 979.915,1180.68 977.503,1182.18 975.309,1183.62 973.337,1184.99 971.595,1186.3 970.087,1187.54 968.82,1188.7 967.798,1189.8 
  967.025,1190.82 966.507,1191.77 966.247,1192.64 966.249,1193.43 966.515,1194.15 967.049,1194.78 967.853,1195.34 968.93,1195.82 970.28,1196.22 971.905,1196.54 
  973.806,1196.77 975.984,1196.93 978.439,1197 981.17,1196.99 984.177,1196.9 987.459,1196.73 991.014,1196.48 994.84,1196.15 998.936,1195.74 1003.3,1195.26 
  1007.92,1194.69 1012.81,1194.05 1017.95,1193.34 1023.35,1192.54 1028.99,1191.68 1034.88,1190.75 1041.01,1189.74 1047.37,1188.67 1053.95,1187.53 1060.76,1186.32 
  1067.78,1185.05 1075.01,1183.72 1082.44,1182.33 1090.07,1180.89 1097.88,1179.39 1105.87,1177.84 1114.03,1176.23 1122.35,1174.58 1130.82,1172.89 1139.44,1171.15 
  1148.19,1169.37 1157.08,1167.56 1166.07,1165.71 1175.18,1163.83 1184.38,1161.92 1193.67,1159.99 1203.04,1158.03 1212.48,1156.05 1221.98,1154.05 1231.52,1152.04 
  1241.1,1150.02 1250.71,1148 1260.34,1145.96 1269.97,1143.93 1279.6,1141.89 1289.21,1139.86 1298.8,1137.84 1308.36,1135.83 1317.87,1133.83 1327.32,1131.84 
  1336.71,1129.88 1346.02,1127.94 1355.25,1126.02 1364.38,1124.14 1373.41,1122.28 1382.32,1120.45 1391.11,1118.67 1399.76,1116.92 1408.27,1115.21 1416.63,1113.55 
  1424.84,1111.94 1432.87,1110.37 1440.73,1108.86 1448.4,1107.4 1455.88,1105.99 1463.16,1104.65 1470.24,1103.36 1477.1,1102.14 1483.75,1100.98 1490.16,1099.89 
  1496.35,1098.87 1502.3,1097.92 1508.01,1097.03 1513.47,1096.23 1518.68,1095.49 1523.63,1094.83 1528.32,1094.24 1532.76,1093.74 1536.92,1093.31 1540.82,1092.96 
  1544.44,1092.69 1547.79,1092.5 1550.87,1092.39 1553.67,1092.36 1556.2,1092.41 1558.45,1092.54 1560.42,1092.76 1562.12,1093.06 1563.54,1093.43 1564.69,1093.89 
  1565.56,1094.43 1566.16,1095.04 1566.5,1095.74 1566.57,1096.51 1566.38,1097.37 1565.92,1098.29 1565.22,1099.3 1564.26,1100.37 1563.05,1101.52 1561.61,1102.74 
  1559.92,1104.03 1558.01,1105.38 1555.87,1106.81 1553.52,1108.29 1550.95,1109.84 1548.17,1111.45 1545.2,1113.12 1542.04,1114.84 1538.69,1116.62 1535.17,1118.45 
  1531.49,1120.33 1527.64,1122.25 1523.64,1124.22 1519.51,1126.23 1515.24,1128.28 1510.85,1130.36 1506.34,1132.48 1501.73,1134.63 1497.03,1136.81 1492.24,1139.01 
  1487.38,1141.23 1482.45,1143.47 1477.47,1145.73 1472.45,1148 1467.39,1150.28 1462.31,1152.57 1457.21,1154.86 1452.12,1157.15 1447.03,1159.44 1441.96,1161.72 
  1436.92,1164 1431.91,1166.26 1426.96,1168.51 1422.07,1170.74 1417.24,1172.96 1412.5,1175.14 1407.84,1177.31 1403.29,1179.44 1398.84,1181.54 1394.51,1183.61 
  1390.31,1185.64 1386.25,1187.62 1382.33,1189.57 1378.56,1191.47 1374.96,1193.32 1371.53,1195.12 1368.28,1196.87 1365.22,1198.57 1362.35,1200.21 1359.68,1201.78 
  1357.23,1203.3 1354.98,1204.75 1352.96,1206.14 1351.17,1207.46 1349.61,1208.71 1348.29,1209.9 1347.22,1211.01 1346.39,1212.04 1345.82,1213.01 1345.5,1213.89 
  1345.45,1214.71 1345.65,1215.44 1346.13,1216.09 1346.88,1216.67 1347.89,1217.16 1349.18,1217.58 1350.75,1217.91 1352.59,1218.17 1354.71,1218.34 1357.1,1218.43 
  1359.78,1218.44 1362.72,1218.37 1365.94,1218.22 1369.44,1217.98 1373.21,1217.67 1377.25,1217.28 1381.55,1216.81 1386.12,1216.26 1390.95,1215.64 1396.04,1214.94 
  1401.38,1214.16 1406.97,1213.31 1412.81,1212.39 1418.88,1211.4 1425.19,1210.35 1431.73,1209.22 1438.49,1208.03 1445.46,1206.77 1452.65,1205.46 1460.04,1204.08 
  1467.62,1202.65 1475.39,1201.16 1483.34,1199.62 1491.47,1198.02 1499.75,1196.39 1508.19,1194.7 1516.78,1192.97 1525.51,1191.2 1534.36,1189.4 1543.34,1187.55 
  1552.42,1185.68 1561.6,1183.78 1570.87,1181.85 1580.23,1179.89 1589.65,1177.92 1599.14,1175.93 1608.67,1173.92 1618.25,1171.9 1627.85,1169.88 1637.47,1167.84 
  1647.1,1165.81 1656.73,1163.77 1666.35,1161.74 1675.95,1159.72 1685.51,1157.7 1695.03,1155.7 1704.5,1153.71 1713.9,1151.74 1723.23,1149.8 1732.48,1147.88 
  1741.63,1145.98 1750.68,1144.12 1759.62,1142.29 1768.43,1140.49 1777.12,1138.73 1785.66,1137.02 1794.06,1135.35 1802.29,1133.72 1810.36,1132.15 1818.26,1130.62 
  1825.97,1129.15 1833.5,1127.73 1840.82,1126.37 1847.94,1125.08 1854.85,1123.84 1861.55,1122.67 1868.01,1121.56 1874.25,1120.53 1880.25,1119.56 1886.01,1118.66 
  1891.53,1117.83 1896.79,1117.08 1901.8,1116.41 1906.55,1115.8 1911.04,1115.28 1915.26,1114.83 1919.22,1114.47 1922.9,1114.18 1926.31,1113.97 1929.45,1113.84 
  
  "/>
<polyline clip-path="url(#clip152)" style="stroke:#3da44d; stroke-linecap:butt; stroke-linejoin:round; stroke-width:8; stroke-opacity:1; fill:none" points="
  994.776,619.771 997.044,610.577 999.312,601.396 1001.58,592.242 1003.85,583.127 1006.12,574.064 1008.38,565.067 1010.65,556.148 1012.92,547.321 1015.19,538.597 
  1017.45,529.989 1019.72,521.51 1021.99,513.171 1024.26,504.986 1026.53,496.964 1028.79,489.119 1031.06,481.46 1033.33,474 1035.6,466.749 1037.86,459.717 
  1040.13,452.914 1042.4,446.351 1044.67,440.036 1046.94,433.979 1049.2,428.188 1051.47,422.672 1053.74,417.439 1056.01,412.496 1058.28,407.851 1060.54,403.51 
  1062.81,399.48 1065.08,395.766 1067.35,392.373 1069.61,389.308 1071.88,386.574 1074.15,384.175 1076.42,382.115 1078.69,380.398 1080.95,379.025 1083.22,377.998 
  1085.49,377.32 1087.76,376.992 1090.03,377.013 1092.29,377.385 1094.56,378.107 1096.83,379.178 1099.1,380.597 1101.36,382.362 1103.63,384.471 1105.9,386.92 
  1108.17,389.707 1110.44,392.828 1112.7,396.278 1114.97,400.053 1117.24,404.149 1119.51,408.558 1121.77,413.275 1124.04,418.294 1126.31,423.608 1128.58,429.209 
  1130.85,435.09 1133.11,441.243 1135.38,447.658 1137.65,454.328 1139.92,461.243 1142.19,468.393 1144.45,475.769 1146.72,483.36 1148.99,491.155 1151.26,499.145 
  1153.52,507.317 1155.79,515.66 1158.06,524.164 1160.33,532.815 1162.6,541.603 1164.86,550.514 1167.13,559.536 1169.4,568.658 1171.67,577.865 1173.94,587.146 
  1176.2,596.487 1178.47,605.875 1180.74,615.298 1183.01,624.742 1185.27,634.194 1187.54,643.64 1189.81,653.069 1192.08,662.466 1194.35,671.818 1196.61,681.113 
  1198.88,690.337 1201.15,699.478 1203.42,708.523 1205.68,717.46 1207.95,726.275 1210.22,734.957 1212.49,743.493 1214.76,751.873 1217.02,760.083 1219.29,768.113 
  1221.56,775.951 1223.83,783.587 1226.1,791.01 1228.36,798.21 1230.63,805.177 1232.9,811.9 1235.17,818.372 1237.43,824.582 1239.7,830.523 1241.97,836.185 
  1244.24,841.562 1246.51,846.645 1248.77,851.428 1251.04,855.905 1253.31,860.069 1255.58,863.914 1257.84,867.435 1260.11,870.627 1262.38,873.487 1264.65,876.01 
  1266.92,878.192 1269.18,880.032 1271.45,881.526 1273.72,882.672 1275.99,883.47 1278.26,883.918 1280.52,884.015 1282.79,883.762 1285.06,883.16 1287.33,882.209 
  1289.59,880.911 1291.86,879.267 1294.13,877.281 1296.4,874.956 1298.67,872.294 1300.93,869.3 1303.2,865.978 1305.47,862.333 1307.74,858.371 1310.01,854.097 
  1312.27,849.517 1314.54,844.638 1316.81,839.467 1319.08,834.011 1321.34,828.28 1323.61,822.279 1325.88,816.02 1328.15,809.509 1330.42,802.757 1332.68,795.774 
  1334.95,788.57 1337.22,781.154 1339.49,773.537 1341.75,765.731 1344.02,757.747 1346.29,749.596 1348.56,741.289 1350.83,732.84 1353.09,724.259 1355.36,715.559 
  1357.63,706.753 1359.9,697.853 1362.17,688.871 1364.43,679.822 1366.7,670.717 1368.97,661.57 1371.24,652.394 1373.5,643.202 1375.77,634.007 1378.04,624.822 
  1380.31,615.661 1382.58,606.537 1384.84,597.462 1387.11,588.449 1389.38,579.513 1391.65,570.664 1393.92,561.917 1396.18,553.283 1398.45,544.775 1400.72,536.405 
  1402.99,528.185 1405.25,520.127 1407.52,512.242 1409.79,504.542 1412.06,497.038 1414.33,489.741 1416.59,482.661 1418.86,475.807 1421.13,469.191 1423.4,462.822 
  1425.66,456.708 1427.93,450.859 1430.2,445.283 1432.47,439.988 1434.74,434.982 1437,430.272 1439.27,425.864 1441.54,421.766 1443.81,417.983 1446.08,414.521 
  1448.34,411.384 1450.61,408.578 1452.88,406.106 1455.15,403.973 1457.41,402.181 1459.68,400.733 1461.95,399.631 1464.22,398.878 1466.49,398.473 1468.75,398.419 
  1471.02,398.715 1473.29,399.362 1475.56,400.357 1477.82,401.701 1480.09,403.391 1482.36,405.425 1484.63,407.801 1486.9,410.515 1489.16,413.564 1491.43,416.944 
  1493.7,420.649 1495.97,424.675 1498.24,429.017 1500.5,433.668 1502.77,438.623 1505.04,443.873 1507.31,449.413 1509.57,455.234 1511.84,461.329 1514.11,467.688 
  1516.38,474.303 1518.65,481.166 1520.91,488.266 1523.18,495.594 1525.45,503.139 1527.72,510.891 1529.99,518.839 1532.25,526.973 1534.52,535.28 1536.79,543.75 
  1539.06,552.371 1541.32,561.13 1543.59,570.015 1545.86,579.015 1548.13,588.116 1550.4,597.305 1552.66,606.571 1554.93,615.9 1557.2,625.28 1559.47,634.696 
  1561.73,644.136 1564,653.588 1566.27,663.037 1568.54,672.47 1570.81,681.875 1573.07,691.238 1575.34,700.546 1577.61,709.787 1579.88,718.947 1582.15,728.014 
  1584.41,736.975 1586.68,745.818 1588.95,754.529 1591.22,763.099 1593.48,771.513 1595.75,779.761 1598.02,787.831 1600.29,795.711 1602.56,803.392 1604.82,810.862 
  1607.09,818.111 1609.36,825.129 1611.63,831.906 1613.9,838.433 1616.16,844.7 1618.43,850.7 1620.7,856.423 1622.97,861.863 1625.23,867.01 1627.5,871.859 
  1629.77,876.402 1632.04,880.634 1634.31,884.549 1636.57,888.141 1638.84,891.405 1641.11,894.337 1643.38,896.933 1645.64,899.189 1647.91,901.103 1650.18,902.672 
  1652.45,903.894 1654.72,904.767 1656.98,905.291 1659.25,905.464 1661.52,905.287 1663.79,904.76 1666.06,903.885 1668.32,902.661 1670.59,901.093 1672.86,899.181 
  1675.13,896.928 1677.39,894.339 1679.66,891.417 1681.93,888.165 1684.2,884.59 1686.47,880.696 1688.73,876.488 1691,871.974 1693.27,867.159 1695.54,862.051 
  1697.81,856.657 1700.07,850.984 1702.34,845.041 1704.61,838.837 1706.88,832.38 1709.14,825.68 1711.41,818.746 1713.68,811.588 1715.95,804.217 1718.22,796.643 
  1720.48,788.877 1722.75,780.931 1725.02,772.815 1727.29,764.541 1729.55,756.121 1731.82,747.567 1734.09,738.892 1736.36,730.108 1738.63,721.227 1740.89,712.262 
  1743.16,703.227 1745.43,694.133 1747.7,684.994 1749.97,675.823 1752.23,666.633 1754.5,657.438 1756.77,648.25 1759.04,639.082 1761.3,629.949 1763.57,620.862 
  1765.84,611.835 1768.11,602.881 1770.38,594.012 1772.64,585.242 1774.91,576.582 1777.18,568.046 1779.45,559.645 1781.71,551.391 1783.98,543.297 1786.25,535.374 
  1788.52,527.634 1790.79,520.086 1793.05,512.743 1795.32,505.615 1797.59,498.712 1799.86,492.044 1802.13,485.62 1804.39,479.45 1806.66,473.543 1808.93,467.907 
  1811.2,462.551 1813.46,457.481 1815.73,452.706 1818,448.233 1820.27,444.067 1822.54,440.215 1824.8,436.683 1827.07,433.476 1829.34,430.598 1831.61,428.053 
  1833.88,425.846 1836.14,423.98 1838.41,422.457 1840.68,421.281 1842.95,420.452 1845.21,419.972 1847.48,419.842 1849.75,420.062 1852.02,420.632 1854.29,421.552 
  1856.55,422.821 1858.82,424.436 1861.09,426.396 1863.36,428.698 1865.62,431.34 1867.89,434.316 1870.16,437.625 1872.43,441.26 1874.7,445.217 1876.96,449.491 
  1879.23,454.076 1881.5,458.965 1883.77,464.152 1886.04,469.63 1888.3,475.391 1890.57,481.427 1892.84,487.729 1895.11,494.29 1897.37,501.1 1899.64,508.15 
  1901.91,515.429 1904.18,522.928 1906.45,530.636 1908.71,538.543 1910.98,546.637 1913.25,554.908 1915.52,563.344 1917.79,571.933 1920.05,580.663 1922.32,589.522 
  1924.59,598.498 1926.86,607.578 1929.12,616.749 1931.39,626 1933.66,635.316 1935.93,644.686 1938.2,654.095 1940.46,663.532 1942.73,672.982 1945,682.432 
  1947.27,691.87 1949.53,701.282 1951.8,710.655 1954.07,719.977 1956.34,729.233 1958.61,738.412 1960.87,747.5 1963.14,756.485 1965.41,765.354 1967.68,774.095 
  1969.95,782.696 1972.21,791.145 1974.48,799.43 1976.75,807.539 1979.02,815.462 1981.28,823.187 1983.55,830.704 1985.82,838.001 1988.09,845.07 1990.36,851.9 
  1992.62,858.482 1994.89,864.806 1997.16,870.865 1999.43,876.648 2001.69,882.15 2003.96,887.361 2006.23,892.275 2008.5,896.885 2010.77,901.185 2013.03,905.169 
  2015.3,908.831 2017.57,912.166 2019.84,915.171 2022.11,917.84 2024.37,920.17 2026.64,922.158 2028.91,923.802 2031.18,925.099 2033.44,926.048 2035.71,926.647 
  2037.98,926.897 2040.25,926.796 2042.52,926.344 2044.78,925.544 2047.05,924.396 2049.32,922.902 2051.59,921.064 2053.86,918.885 2056.12,916.368 2058.39,913.518 
  2060.66,910.337 2062.93,906.832 2065.19,903.006 2067.46,898.866 2069.73,894.418 2072,889.667 2074.27,884.622 2076.53,879.289 2078.8,873.676 2081.07,867.791 
  2083.34,861.642 2085.6,855.239 2087.87,848.591 2090.14,841.707 2092.41,834.597 2094.68,827.271 2096.94,819.74 2099.21,812.015 2101.48,804.106 2103.75,796.026 
  2106.02,787.785 2108.28,779.396 2110.55,770.87 2112.82,762.221 2115.09,753.459 2117.35,744.598 2119.62,735.65 2121.89,726.629 2124.16,717.546 2126.43,708.416 
  
  "/>
<polyline clip-path="url(#clip152)" style="stroke:#000000; stroke-linecap:butt; stroke-linejoin:round; stroke-width:8; stroke-opacity:1; fill:none" points="
  2156.75,754.132 2156.61,744.85 2156.2,735.663 2155.5,726.584 2154.54,717.624 2153.3,708.797 2151.79,700.116 2150.01,691.592 2147.96,683.238 2145.65,675.065 
  2143.07,667.085 2140.24,659.31 2137.16,651.749 2133.83,644.414 2130.25,637.316 2126.43,630.463 2122.38,623.867 2118.1,617.535 2113.6,611.478 2108.88,605.704 
  2103.96,600.22 2098.83,595.035 2093.5,590.156 2087.99,585.589 2082.3,581.342 2076.44,577.42 2070.42,573.829 2064.24,570.573 2057.91,567.658 2051.45,565.088 
  2044.86,562.866 2038.15,560.995 2031.33,559.478 2024.41,558.317 2017.4,557.514 2010.31,557.069 2003.15,556.985 1995.93,557.259 1988.66,557.893 1981.36,558.886 
  1974.02,560.235 1966.66,561.939 1959.3,563.996 1951.94,566.403 1944.59,569.156 1937.26,572.251 1929.97,575.684 1922.72,579.451 1915.52,583.545 1908.39,587.962 
  1901.33,592.695 1894.35,597.736 1887.47,603.08 1880.69,608.718 1874.03,614.643 1867.49,620.846 1861.08,627.319 1854.81,634.052 1848.69,641.035 1842.72,648.26 
  1836.93,655.715 1831.31,663.391 1825.87,671.276 1820.62,679.359 1815.57,687.629 1810.73,696.075 1806.09,704.683 1801.68,713.443 1797.49,722.341 1793.53,731.366 
  1789.8,740.504 1786.32,749.742 1783.09,759.068 1780.1,768.468 1777.37,777.93 1774.9,787.439 1772.69,796.982 1770.74,806.546 1769.07,816.118 1767.66,825.683 
  1766.53,835.228 1765.67,844.741 1765.09,854.206 1764.78,863.612 1764.75,872.944 1765,882.19 1765.52,891.337 1766.32,900.371 1767.4,909.28 1768.74,918.051 
  1770.36,926.672 1772.25,935.131 1774.4,943.416 1776.81,951.514 1779.49,959.415 1782.42,967.108 1785.6,974.582 1789.03,981.825 1792.7,988.828 1796.61,995.582 
  1800.75,1002.08 1805.12,1008.3 1809.7,1014.25 1814.5,1019.91 1819.51,1025.28 1824.72,1030.34 1830.11,1035.1 1835.7,1039.54 1841.45,1043.66 1847.38,1047.46 
  1853.47,1050.92 1859.71,1054.04 1866.09,1056.82 1872.6,1059.25 1879.24,1061.34 1886,1063.07 1892.85,1064.45 1899.81,1065.47 1906.85,1066.13 1913.97,1066.44 
  1921.15,1066.38 1928.39,1065.96 1935.68,1065.19 1943,1064.06 1950.34,1062.57 1957.7,1060.73 1965.07,1058.53 1972.43,1055.99 1979.77,1053.1 1987.08,1049.87 
  1994.36,1046.31 2001.59,1042.41 2008.76,1038.19 2015.87,1033.65 2022.9,1028.8 2029.84,1023.64 2036.68,1018.18 2043.41,1012.42 2050.03,1006.39 2056.52,1000.08 
  2062.88,993.504 2069.09,986.672 2075.15,979.592 2081.05,972.276 2086.78,964.733 2092.33,956.974 2097.69,949.01 2102.86,940.852 2107.83,932.512 2112.6,924.002 
  2117.14,915.332 2121.47,906.517 2125.57,897.568 2129.44,888.497 2133.07,879.318 2136.46,870.044 2139.6,860.687 2142.48,851.261 2145.11,841.78 2147.48,832.256 
  2149.59,822.703 2151.43,813.134 2153,803.563 2154.29,794.004 2155.32,784.47 2156.07,774.975 2156.54,765.531 2156.74,756.152 2156.66,746.852 2156.31,737.644 
  2155.68,728.54 2154.77,719.553 2153.59,710.697 2152.14,701.983 2150.42,693.424 2148.43,685.032 2146.17,676.819 2143.65,668.796 2140.88,660.975 2137.85,653.367 
  2134.57,645.982 2131.04,638.832 2127.28,631.925 2123.28,625.273 2119.05,618.883 2114.59,612.766 2109.92,606.929 2105.04,601.382 2099.96,596.132 2094.67,591.186 
  2089.2,586.551 2083.55,582.234 2077.73,578.241 2071.73,574.578 2065.59,571.249 2059.29,568.26 2052.86,565.615 2046.29,563.317 2039.61,561.37 2032.81,559.776 
  2025.91,558.538 2018.92,557.657 2011.85,557.135 2004.71,556.972 1997.5,557.169 1990.24,557.726 1982.94,558.64 1975.61,559.913 1968.26,561.54 1960.89,563.521 
  1953.53,565.852 1946.18,568.53 1938.84,571.552 1931.54,574.913 1924.28,578.607 1917.07,582.631 1909.92,586.979 1902.85,591.643 1895.86,596.619 1888.95,601.898 
  1882.15,607.473 1875.46,613.336 1868.89,619.48 1862.45,625.895 1856.15,632.572 1850,639.502 1844,646.676 1838.17,654.082 1832.51,661.711 1827.03,669.552 
  1821.74,677.593 1816.65,685.823 1811.76,694.232 1807.08,702.806 1802.62,711.534 1798.38,720.403 1794.37,729.402 1790.59,738.516 1787.05,747.734 1783.76,757.042 
  1780.72,766.428 1777.94,775.877 1775.41,785.377 1773.14,794.914 1771.14,804.474 1769.41,814.045 1767.95,823.613 1766.75,833.164 1765.84,842.685 1765.19,852.162 
  1764.83,861.581 1764.74,870.931 1764.92,880.197 1765.39,889.366 1766.13,898.425 1767.14,907.362 1768.43,916.164 1769.99,924.819 1771.81,933.314 1773.91,941.637 
  1776.27,949.777 1778.89,957.722 1781.76,965.461 1784.89,972.983 1788.27,980.277 1791.89,987.333 1795.74,994.141 1799.84,1000.69 1804.15,1006.98 1808.69,1012.98 
  1813.45,1018.71 1818.41,1024.14 1823.57,1029.27 1828.93,1034.1 1834.47,1038.61 1840.19,1042.8 1846.08,1046.66 1852.14,1050.2 1858.34,1053.39 1864.69,1056.25 
  1871.18,1058.76 1877.79,1060.92 1884.52,1062.73 1891.36,1064.18 1898.3,1065.28 1905.32,1066.02 1912.42,1066.4 1919.59,1066.42 1926.82,1066.09 1934.1,1065.39 
  1941.41,1064.33 1948.75,1062.92 1956.11,1061.16 1963.47,1059.04 1970.83,1056.57 1978.18,1053.76 1985.5,1050.6 1992.79,1047.11 2000.03,1043.28 2007.22,1039.13 
  2014.34,1034.66 2021.38,1029.87 2028.34,1024.78 2035.21,1019.38 2041.96,1013.69 2048.61,1007.72 2055.13,1001.47 2061.51,994.95 2067.76,988.172 2073.85,981.145 
  2079.79,973.88 2085.55,966.385 2091.14,958.672 2096.55,950.751 2101.76,942.634 2106.77,934.333 2111.58,925.858 2116.18,917.222 2120.55,908.437 2124.7,899.516 
  2128.62,890.471 2132.31,881.314 2135.75,872.059 2138.94,862.719 2141.88,853.307 2144.56,843.837 2146.99,834.321 2149.15,824.773 2151.05,815.206 2152.68,805.635 
  2154.04,796.072 2155.12,786.532 2155.93,777.026 2156.46,767.57 2156.72,758.177 2156.7,748.858 2156.41,739.629 2155.84,730.501 2154.99,721.488 2153.87,712.602 
  2152.48,703.857 2150.81,695.263 2148.88,686.834 2146.68,678.581 2144.22,670.516 2141.5,662.651 2138.52,654.996 2135.3,647.562 2131.83,640.36 2128.11,633.399 
  2124.16,626.691 2119.98,620.244 2115.58,614.067 2110.95,608.169 2106.11,602.558 2101.07,597.243 2095.83,592.23 2090.4,587.528 2084.79,583.142 2079,579.078 
  2073.05,575.343 2066.93,571.941 2060.67,568.879 2054.26,566.159 2047.73,563.785 2041.07,561.762 2034.29,560.091 2027.41,558.776 2020.44,557.818 2013.39,557.218 
  2006.26,556.977 1999.06,557.096 1991.82,557.575 1984.52,558.412 1977.2,559.607 1969.85,561.158 1962.49,563.062 1955.12,565.318 1947.77,567.921 1940.43,570.869 
  1933.12,574.156 1925.85,577.779 1918.63,581.733 1911.47,586.01 1904.37,590.607 1897.36,595.516 1890.44,600.729 1883.62,606.241 1876.9,612.043 1870.3,618.127 
  1863.84,624.484 1857.5,631.105 1851.32,637.981 1845.29,645.103 1839.42,652.459 1833.72,660.041 1828.2,667.837 1822.87,675.835 1817.73,684.026 1812.8,692.397 
  1808.07,700.936 1803.56,709.632 1799.27,718.472 1795.21,727.443 1791.39,736.534 1787.8,745.73 1784.46,755.02 1781.36,764.39 1778.52,773.826 1775.94,783.316 
  1773.61,792.846 1771.55,802.403 1769.76,811.973 1768.24,821.543 1766.99,831.098 1766.01,840.627 1765.31,850.114 1764.88,859.547 1764.73,868.913 1764.86,878.198 
  1765.26,887.389 1765.94,896.474 1766.9,905.438 1768.13,914.271 1769.63,922.958 1771.4,931.489 1773.43,939.85 1775.73,948.031 1778.3,956.019 1781.12,963.803 
  1784.19,971.373 1787.51,978.717 1791.08,985.826 1794.89,992.689 1798.93,999.296 1803.2,1005.64 1807.69,1011.71 1812.4,1017.49 1817.32,1022.99 1822.44,1028.19 
  1827.75,1033.08 1833.26,1037.66 1838.94,1041.92 1844.79,1045.85 1850.81,1049.46 1856.99,1052.73 1863.31,1055.66 1869.77,1058.24 1876.35,1060.48 1883.06,1062.36 
  1889.87,1063.9 1896.79,1065.07 1903.79,1065.89 1910.88,1066.35 1918.03,1066.45 1925.25,1066.19 1932.52,1065.57 1939.82,1064.59 1947.16,1063.26 1954.52,1061.57 
  1961.88,1059.53 1969.24,1057.13 1976.59,1054.39 1983.92,1051.31 1991.22,1047.89 1998.47,1044.14 2005.67,1040.06 2012.8,1035.66 2019.86,1030.94 2026.84,1025.91 
  2033.73,1020.58 2040.51,1014.95 2047.18,1009.04 2053.73,1002.84 2060.14,996.383 2066.42,989.661 2072.55,982.687 2078.52,975.472 2084.32,968.026 2089.95,960.36 
  2095.39,952.483 2100.65,944.408 2105.71,936.145 2110.56,927.707 2115.2,919.105 2119.63,910.351 2123.83,901.458 2127.8,892.439 2131.53,883.305 2135.02,874.071 
  2138.27,864.748 2141.26,855.35 2144,845.891 2146.49,836.384 2148.71,826.842 2150.66,817.278 2152.35,807.707 2153.76,798.141 2154.91,788.595 2155.78,779.081 
  
  "/>
</svg>
