<?xml version="1.0" encoding="utf-8"?>
<svg xmlns="http://www.w3.org/2000/svg" xmlns:xlink="http://www.w3.org/1999/xlink" width="600" height="400" viewBox="0 0 2400 1600">
<defs>
  <clipPath id="clip820">
    <rect x="0" y="0" width="2400" height="1600"/>
  </clipPath>
</defs>
<path clip-path="url(#clip820)" d="
M0 1600 L2400 1600 L2400 0 L0 0  Z
  " fill="#ffffff" fill-rule="evenodd" fill-opacity="1"/>
<defs>
  <clipPath id="clip821">
    <rect x="480" y="0" width="1681" height="1600"/>
  </clipPath>
</defs>
<path clip-path="url(#clip820)" d="
M243.874 1442.95 L2352.76 1442.95 L2352.76 123.472 L243.874 123.472  Z
  " fill="#ffffff" fill-rule="evenodd" fill-opacity="1"/>
<defs>
  <clipPath id="clip822">
    <rect x="243" y="123" width="2110" height="1320"/>
  </clipPath>
</defs>
<polyline clip-path="url(#clip822)" style="stroke:#000000; stroke-linecap:butt; stroke-linejoin:round; stroke-width:2; stroke-opacity:0.1; fill:none" points="
  303.56,1442.95 303.56,123.472 
  "/>
<polyline clip-path="url(#clip822)" style="stroke:#000000; stroke-linecap:butt; stroke-linejoin:round; stroke-width:2; stroke-opacity:0.1; fill:none" points="
  620.2,1442.95 620.2,123.472 
  "/>
<polyline clip-path="url(#clip822)" style="stroke:#000000; stroke-linecap:butt; stroke-linejoin:round; stroke-width:2; stroke-opacity:0.1; fill:none" points="
  936.841,1442.95 936.841,123.472 
  "/>
<polyline clip-path="url(#clip822)" style="stroke:#000000; stroke-linecap:butt; stroke-linejoin:round; stroke-width:2; stroke-opacity:0.1; fill:none" points="
  1253.48,1442.95 1253.48,123.472 
  "/>
<polyline clip-path="url(#clip822)" style="stroke:#000000; stroke-linecap:butt; stroke-linejoin:round; stroke-width:2; stroke-opacity:0.1; fill:none" points="
  1570.12,1442.95 1570.12,123.472 
  "/>
<polyline clip-path="url(#clip822)" style="stroke:#000000; stroke-linecap:butt; stroke-linejoin:round; stroke-width:2; stroke-opacity:0.1; fill:none" points="
  1886.76,1442.95 1886.76,123.472 
  "/>
<polyline clip-path="url(#clip822)" style="stroke:#000000; stroke-linecap:butt; stroke-linejoin:round; stroke-width:2; stroke-opacity:0.1; fill:none" points="
  2203.4,1442.95 2203.4,123.472 
  "/>
<polyline clip-path="url(#clip820)" style="stroke:#000000; stroke-linecap:butt; stroke-linejoin:round; stroke-width:4; stroke-opacity:1; fill:none" points="
  243.874,1442.95 2352.76,1442.95 
  "/>
<polyline clip-path="url(#clip820)" style="stroke:#000000; stroke-linecap:butt; stroke-linejoin:round; stroke-width:4; stroke-opacity:1; fill:none" points="
  303.56,1442.95 303.56,1424.05 
  "/>
<polyline clip-path="url(#clip820)" style="stroke:#000000; stroke-linecap:butt; stroke-linejoin:round; stroke-width:4; stroke-opacity:1; fill:none" points="
  620.2,1442.95 620.2,1424.05 
  "/>
<polyline clip-path="url(#clip820)" style="stroke:#000000; stroke-linecap:butt; stroke-linejoin:round; stroke-width:4; stroke-opacity:1; fill:none" points="
  936.841,1442.95 936.841,1424.05 
  "/>
<polyline clip-path="url(#clip820)" style="stroke:#000000; stroke-linecap:butt; stroke-linejoin:round; stroke-width:4; stroke-opacity:1; fill:none" points="
  1253.48,1442.95 1253.48,1424.05 
  "/>
<polyline clip-path="url(#clip820)" style="stroke:#000000; stroke-linecap:butt; stroke-linejoin:round; stroke-width:4; stroke-opacity:1; fill:none" points="
  1570.12,1442.95 1570.12,1424.05 
  "/>
<polyline clip-path="url(#clip820)" style="stroke:#000000; stroke-linecap:butt; stroke-linejoin:round; stroke-width:4; stroke-opacity:1; fill:none" points="
  1886.76,1442.95 1886.76,1424.05 
  "/>
<polyline clip-path="url(#clip820)" style="stroke:#000000; stroke-linecap:butt; stroke-linejoin:round; stroke-width:4; stroke-opacity:1; fill:none" points="
  2203.4,1442.95 2203.4,1424.05 
  "/>
<path clip-path="url(#clip820)" d="M303.56 1472.14 Q299.948 1472.14 298.12 1475.71 Q296.314 1479.25 296.314 1486.38 Q296.314 1493.48 298.12 1497.05 Q299.948 1500.59 303.56 1500.59 Q307.194 1500.59 308.999 1497.05 Q310.828 1493.48 310.828 1486.38 Q310.828 1479.25 308.999 1475.71 Q307.194 1472.14 303.56 1472.14 M303.56 1468.44 Q309.37 1468.44 312.425 1473.04 Q315.504 1477.63 315.504 1486.38 Q315.504 1495.1 312.425 1499.71 Q309.37 1504.29 303.56 1504.29 Q297.749 1504.29 294.671 1499.71 Q291.615 1495.1 291.615 1486.38 Q291.615 1477.63 294.671 1473.04 Q297.749 1468.44 303.56 1468.44 Z" fill="#000000" fill-rule="evenodd" fill-opacity="1" /><path clip-path="url(#clip820)" d="M614.853 1499.69 L631.172 1499.69 L631.172 1503.62 L609.228 1503.62 L609.228 1499.69 Q611.89 1496.93 616.473 1492.3 Q621.08 1487.65 622.26 1486.31 Q624.506 1483.78 625.385 1482.05 Q626.288 1480.29 626.288 1478.6 Q626.288 1475.84 624.344 1474.11 Q622.422 1472.37 619.32 1472.37 Q617.121 1472.37 614.668 1473.14 Q612.237 1473.9 609.459 1475.45 L609.459 1470.73 Q612.283 1469.59 614.737 1469.02 Q617.191 1468.44 619.228 1468.44 Q624.598 1468.44 627.793 1471.12 Q630.987 1473.81 630.987 1478.3 Q630.987 1480.43 630.177 1482.35 Q629.39 1484.25 627.283 1486.84 Q626.705 1487.51 623.603 1490.73 Q620.501 1493.92 614.853 1499.69 Z" fill="#000000" fill-rule="evenodd" fill-opacity="1" /><path clip-path="url(#clip820)" d="M939.85 1473.14 L928.044 1491.58 L939.85 1491.58 L939.85 1473.14 M938.623 1469.06 L944.503 1469.06 L944.503 1491.58 L949.433 1491.58 L949.433 1495.47 L944.503 1495.47 L944.503 1503.62 L939.85 1503.62 L939.85 1495.47 L924.248 1495.47 L924.248 1490.96 L938.623 1469.06 Z" fill="#000000" fill-rule="evenodd" fill-opacity="1" /><path clip-path="url(#clip820)" d="M1253.89 1484.48 Q1250.74 1484.48 1248.89 1486.63 Q1247.06 1488.78 1247.06 1492.53 Q1247.06 1496.26 1248.89 1498.44 Q1250.74 1500.59 1253.89 1500.59 Q1257.03 1500.59 1258.86 1498.44 Q1260.71 1496.26 1260.71 1492.53 Q1260.71 1488.78 1258.86 1486.63 Q1257.03 1484.48 1253.89 1484.48 M1263.17 1469.83 L1263.17 1474.08 Q1261.41 1473.25 1259.6 1472.81 Q1257.82 1472.37 1256.06 1472.37 Q1251.43 1472.37 1248.98 1475.5 Q1246.55 1478.62 1246.2 1484.94 Q1247.57 1482.93 1249.63 1481.86 Q1251.69 1480.77 1254.16 1480.77 Q1259.37 1480.77 1262.38 1483.95 Q1265.41 1487.09 1265.41 1492.53 Q1265.41 1497.86 1262.27 1501.08 Q1259.12 1504.29 1253.89 1504.29 Q1247.89 1504.29 1244.72 1499.71 Q1241.55 1495.1 1241.55 1486.38 Q1241.55 1478.18 1245.44 1473.32 Q1249.33 1468.44 1255.88 1468.44 Q1257.64 1468.44 1259.42 1468.78 Q1261.22 1469.13 1263.17 1469.83 Z" fill="#000000" fill-rule="evenodd" fill-opacity="1" /><path clip-path="url(#clip820)" d="M1570.12 1487.21 Q1566.79 1487.21 1564.87 1488.99 Q1562.97 1490.77 1562.97 1493.9 Q1562.97 1497.02 1564.87 1498.81 Q1566.79 1500.59 1570.12 1500.59 Q1573.45 1500.59 1575.38 1498.81 Q1577.3 1497 1577.3 1493.9 Q1577.3 1490.77 1575.38 1488.99 Q1573.48 1487.21 1570.12 1487.21 M1565.45 1485.22 Q1562.44 1484.48 1560.75 1482.42 Q1559.08 1480.36 1559.08 1477.4 Q1559.08 1473.25 1562.02 1470.84 Q1564.98 1468.44 1570.12 1468.44 Q1575.28 1468.44 1578.22 1470.84 Q1581.16 1473.25 1581.16 1477.4 Q1581.16 1480.36 1579.47 1482.42 Q1577.81 1484.48 1574.82 1485.22 Q1578.2 1486.01 1580.08 1488.3 Q1581.97 1490.59 1581.97 1493.9 Q1581.97 1498.92 1578.89 1501.61 Q1575.84 1504.29 1570.12 1504.29 Q1564.4 1504.29 1561.33 1501.61 Q1558.27 1498.92 1558.27 1493.9 Q1558.27 1490.59 1560.17 1488.3 Q1562.07 1486.01 1565.45 1485.22 M1563.73 1477.83 Q1563.73 1480.52 1565.4 1482.02 Q1567.09 1483.53 1570.12 1483.53 Q1573.13 1483.53 1574.82 1482.02 Q1576.53 1480.52 1576.53 1477.83 Q1576.53 1475.15 1574.82 1473.65 Q1573.13 1472.14 1570.12 1472.14 Q1567.09 1472.14 1565.4 1473.65 Q1563.73 1475.15 1563.73 1477.83 Z" fill="#000000" fill-rule="evenodd" fill-opacity="1" /><path clip-path="url(#clip820)" d="M1861.45 1499.69 L1869.09 1499.69 L1869.09 1473.32 L1860.78 1474.99 L1860.78 1470.73 L1869.04 1469.06 L1873.72 1469.06 L1873.72 1499.69 L1881.36 1499.69 L1881.36 1503.62 L1861.45 1503.62 L1861.45 1499.69 Z" fill="#000000" fill-rule="evenodd" fill-opacity="1" /><path clip-path="url(#clip820)" d="M1900.8 1472.14 Q1897.19 1472.14 1895.36 1475.71 Q1893.56 1479.25 1893.56 1486.38 Q1893.56 1493.48 1895.36 1497.05 Q1897.19 1500.59 1900.8 1500.59 Q1904.44 1500.59 1906.24 1497.05 Q1908.07 1493.48 1908.07 1486.38 Q1908.07 1479.25 1906.24 1475.71 Q1904.44 1472.14 1900.8 1472.14 M1900.8 1468.44 Q1906.61 1468.44 1909.67 1473.04 Q1912.75 1477.63 1912.75 1486.38 Q1912.75 1495.1 1909.67 1499.71 Q1906.61 1504.29 1900.8 1504.29 Q1894.99 1504.29 1891.91 1499.71 Q1888.86 1495.1 1888.86 1486.38 Q1888.86 1477.63 1891.91 1473.04 Q1894.99 1468.44 1900.8 1468.44 Z" fill="#000000" fill-rule="evenodd" fill-opacity="1" /><path clip-path="url(#clip820)" d="M2178.89 1499.69 L2186.53 1499.69 L2186.53 1473.32 L2178.22 1474.99 L2178.22 1470.73 L2186.48 1469.06 L2191.16 1469.06 L2191.16 1499.69 L2198.8 1499.69 L2198.8 1503.62 L2178.89 1503.62 L2178.89 1499.69 Z" fill="#000000" fill-rule="evenodd" fill-opacity="1" /><path clip-path="url(#clip820)" d="M2212.27 1499.69 L2228.59 1499.69 L2228.59 1503.62 L2206.64 1503.62 L2206.64 1499.69 Q2209.31 1496.93 2213.89 1492.3 Q2218.5 1487.65 2219.68 1486.31 Q2221.92 1483.78 2222.8 1482.05 Q2223.7 1480.29 2223.7 1478.6 Q2223.7 1475.84 2221.76 1474.11 Q2219.84 1472.37 2216.74 1472.37 Q2214.54 1472.37 2212.08 1473.14 Q2209.65 1473.9 2206.87 1475.45 L2206.87 1470.73 Q2209.7 1469.59 2212.15 1469.02 Q2214.61 1468.44 2216.64 1468.44 Q2222.01 1468.44 2225.21 1471.12 Q2228.4 1473.81 2228.4 1478.3 Q2228.4 1480.43 2227.59 1482.35 Q2226.81 1484.25 2224.7 1486.84 Q2224.12 1487.51 2221.02 1490.73 Q2217.92 1493.92 2212.27 1499.69 Z" fill="#000000" fill-rule="evenodd" fill-opacity="1" /><path clip-path="url(#clip820)" d="M1306.79 1539.82 Q1306.79 1540.72 1306.37 1540.95 Q1305.95 1541.14 1304.79 1541.14 L1298.61 1541.14 L1293.71 1560.59 Q1293.32 1562.3 1293.32 1563.75 Q1293.32 1565.36 1293.81 1566.07 Q1294.32 1566.78 1295.39 1566.78 Q1297.48 1566.78 1299.73 1564.88 Q1302.02 1562.98 1303.95 1558.34 Q1304.21 1557.73 1304.34 1557.6 Q1304.5 1557.44 1304.92 1557.44 Q1305.72 1557.44 1305.72 1558.08 Q1305.72 1558.31 1305.27 1559.34 Q1304.85 1560.37 1303.92 1561.88 Q1303.02 1563.4 1301.83 1564.81 Q1300.67 1566.23 1298.9 1567.26 Q1297.12 1568.26 1295.22 1568.26 Q1292.55 1568.26 1290.84 1566.55 Q1289.17 1564.84 1289.17 1562.17 Q1289.17 1561.3 1289.85 1558.53 Q1290.52 1555.73 1294.19 1541.14 L1288.36 1541.14 Q1287.56 1541.14 1287.24 1541.11 Q1286.95 1541.08 1286.72 1540.92 Q1286.53 1540.72 1286.53 1540.34 Q1286.53 1539.72 1286.79 1539.47 Q1287.04 1539.18 1287.37 1539.14 Q1287.72 1539.08 1288.53 1539.08 L1294.71 1539.08 L1297.29 1528.61 Q1297.54 1527.58 1298.19 1527 Q1298.86 1526.39 1299.25 1526.33 Q1299.64 1526.23 1299.93 1526.23 Q1300.8 1526.23 1301.31 1526.71 Q1301.83 1527.16 1301.83 1528 Q1301.83 1528.45 1299.12 1539.08 L1304.92 1539.08 Q1305.66 1539.08 1305.95 1539.11 Q1306.27 1539.14 1306.53 1539.31 Q1306.79 1539.47 1306.79 1539.82 Z" fill="#000000" fill-rule="evenodd" fill-opacity="1" /><polyline clip-path="url(#clip822)" style="stroke:#000000; stroke-linecap:butt; stroke-linejoin:round; stroke-width:2; stroke-opacity:0.1; fill:none" points="
  243.874,1405.61 2352.76,1405.61 
  "/>
<polyline clip-path="url(#clip822)" style="stroke:#000000; stroke-linecap:butt; stroke-linejoin:round; stroke-width:2; stroke-opacity:0.1; fill:none" points="
  243.874,1094.41 2352.76,1094.41 
  "/>
<polyline clip-path="url(#clip822)" style="stroke:#000000; stroke-linecap:butt; stroke-linejoin:round; stroke-width:2; stroke-opacity:0.1; fill:none" points="
  243.874,783.211 2352.76,783.211 
  "/>
<polyline clip-path="url(#clip822)" style="stroke:#000000; stroke-linecap:butt; stroke-linejoin:round; stroke-width:2; stroke-opacity:0.1; fill:none" points="
  243.874,472.013 2352.76,472.013 
  "/>
<polyline clip-path="url(#clip822)" style="stroke:#000000; stroke-linecap:butt; stroke-linejoin:round; stroke-width:2; stroke-opacity:0.1; fill:none" points="
  243.874,160.816 2352.76,160.816 
  "/>
<polyline clip-path="url(#clip820)" style="stroke:#000000; stroke-linecap:butt; stroke-linejoin:round; stroke-width:4; stroke-opacity:1; fill:none" points="
  243.874,1442.95 243.874,123.472 
  "/>
<polyline clip-path="url(#clip820)" style="stroke:#000000; stroke-linecap:butt; stroke-linejoin:round; stroke-width:4; stroke-opacity:1; fill:none" points="
  243.874,1405.61 262.772,1405.61 
  "/>
<polyline clip-path="url(#clip820)" style="stroke:#000000; stroke-linecap:butt; stroke-linejoin:round; stroke-width:4; stroke-opacity:1; fill:none" points="
  243.874,1094.41 262.772,1094.41 
  "/>
<polyline clip-path="url(#clip820)" style="stroke:#000000; stroke-linecap:butt; stroke-linejoin:round; stroke-width:4; stroke-opacity:1; fill:none" points="
  243.874,783.211 262.772,783.211 
  "/>
<polyline clip-path="url(#clip820)" style="stroke:#000000; stroke-linecap:butt; stroke-linejoin:round; stroke-width:4; stroke-opacity:1; fill:none" points="
  243.874,472.013 262.772,472.013 
  "/>
<polyline clip-path="url(#clip820)" style="stroke:#000000; stroke-linecap:butt; stroke-linejoin:round; stroke-width:4; stroke-opacity:1; fill:none" points="
  243.874,160.816 262.772,160.816 
  "/>
<path clip-path="url(#clip820)" d="M100.93 1406.06 L130.606 1406.06 L130.606 1409.99 L100.93 1409.99 L100.93 1406.06 Z" fill="#000000" fill-rule="evenodd" fill-opacity="1" /><path clip-path="url(#clip820)" d="M141.509 1418.95 L149.148 1418.95 L149.148 1392.59 L140.838 1394.25 L140.838 1389.99 L149.101 1388.33 L153.777 1388.33 L153.777 1418.95 L161.416 1418.95 L161.416 1422.89 L141.509 1422.89 L141.509 1418.95 Z" fill="#000000" fill-rule="evenodd" fill-opacity="1" /><path clip-path="url(#clip820)" d="M170.861 1417.01 L175.745 1417.01 L175.745 1422.89 L170.861 1422.89 L170.861 1417.01 Z" fill="#000000" fill-rule="evenodd" fill-opacity="1" /><path clip-path="url(#clip820)" d="M195.93 1391.4 Q192.319 1391.4 190.49 1394.97 Q188.685 1398.51 188.685 1405.64 Q188.685 1412.75 190.49 1416.31 Q192.319 1419.85 195.93 1419.85 Q199.564 1419.85 201.37 1416.31 Q203.198 1412.75 203.198 1405.64 Q203.198 1398.51 201.37 1394.97 Q199.564 1391.4 195.93 1391.4 M195.93 1387.7 Q201.74 1387.7 204.796 1392.31 Q207.874 1396.89 207.874 1405.64 Q207.874 1414.37 204.796 1418.97 Q201.74 1423.56 195.93 1423.56 Q190.12 1423.56 187.041 1418.97 Q183.985 1414.37 183.985 1405.64 Q183.985 1396.89 187.041 1392.31 Q190.12 1387.7 195.93 1387.7 Z" fill="#000000" fill-rule="evenodd" fill-opacity="1" /><path clip-path="url(#clip820)" d="M101.926 1094.86 L131.601 1094.86 L131.601 1098.8 L101.926 1098.8 L101.926 1094.86 Z" fill="#000000" fill-rule="evenodd" fill-opacity="1" /><path clip-path="url(#clip820)" d="M151.694 1080.21 Q148.083 1080.21 146.254 1083.77 Q144.449 1087.31 144.449 1094.44 Q144.449 1101.55 146.254 1105.11 Q148.083 1108.66 151.694 1108.66 Q155.328 1108.66 157.134 1105.11 Q158.962 1101.55 158.962 1094.44 Q158.962 1087.31 157.134 1083.77 Q155.328 1080.21 151.694 1080.21 M151.694 1076.5 Q157.504 1076.5 160.56 1081.11 Q163.638 1085.69 163.638 1094.44 Q163.638 1103.17 160.56 1107.78 Q157.504 1112.36 151.694 1112.36 Q145.884 1112.36 142.805 1107.78 Q139.75 1103.17 139.75 1094.44 Q139.75 1085.69 142.805 1081.11 Q145.884 1076.5 151.694 1076.5 Z" fill="#000000" fill-rule="evenodd" fill-opacity="1" /><path clip-path="url(#clip820)" d="M171.856 1105.81 L176.74 1105.81 L176.74 1111.69 L171.856 1111.69 L171.856 1105.81 Z" fill="#000000" fill-rule="evenodd" fill-opacity="1" /><path clip-path="url(#clip820)" d="M186.972 1077.13 L205.328 1077.13 L205.328 1081.06 L191.254 1081.06 L191.254 1089.54 Q192.272 1089.19 193.291 1089.03 Q194.309 1088.84 195.328 1088.84 Q201.115 1088.84 204.495 1092.01 Q207.874 1095.18 207.874 1100.6 Q207.874 1106.18 204.402 1109.28 Q200.93 1112.36 194.61 1112.36 Q192.435 1112.36 190.166 1111.99 Q187.921 1111.62 185.513 1110.88 L185.513 1106.18 Q187.597 1107.31 189.819 1107.87 Q192.041 1108.42 194.518 1108.42 Q198.522 1108.42 200.86 1106.32 Q203.198 1104.21 203.198 1100.6 Q203.198 1096.99 200.86 1094.88 Q198.522 1092.78 194.518 1092.78 Q192.643 1092.78 190.768 1093.19 Q188.916 1093.61 186.972 1094.49 L186.972 1077.13 Z" fill="#000000" fill-rule="evenodd" fill-opacity="1" /><path clip-path="url(#clip820)" d="M150.699 769.01 Q147.088 769.01 145.259 772.575 Q143.453 776.116 143.453 783.246 Q143.453 790.352 145.259 793.917 Q147.088 797.459 150.699 797.459 Q154.333 797.459 156.138 793.917 Q157.967 790.352 157.967 783.246 Q157.967 776.116 156.138 772.575 Q154.333 769.01 150.699 769.01 M150.699 765.306 Q156.509 765.306 159.564 769.913 Q162.643 774.496 162.643 783.246 Q162.643 791.973 159.564 796.579 Q156.509 801.162 150.699 801.162 Q144.888 801.162 141.81 796.579 Q138.754 791.973 138.754 783.246 Q138.754 774.496 141.81 769.913 Q144.888 765.306 150.699 765.306 Z" fill="#000000" fill-rule="evenodd" fill-opacity="1" /><path clip-path="url(#clip820)" d="M170.861 794.611 L175.745 794.611 L175.745 800.491 L170.861 800.491 L170.861 794.611 Z" fill="#000000" fill-rule="evenodd" fill-opacity="1" /><path clip-path="url(#clip820)" d="M195.93 769.01 Q192.319 769.01 190.49 772.575 Q188.685 776.116 188.685 783.246 Q188.685 790.352 190.49 793.917 Q192.319 797.459 195.93 797.459 Q199.564 797.459 201.37 793.917 Q203.198 790.352 203.198 783.246 Q203.198 776.116 201.37 772.575 Q199.564 769.01 195.93 769.01 M195.93 765.306 Q201.74 765.306 204.796 769.913 Q207.874 774.496 207.874 783.246 Q207.874 791.973 204.796 796.579 Q201.74 801.162 195.93 801.162 Q190.12 801.162 187.041 796.579 Q183.985 791.973 183.985 783.246 Q183.985 774.496 187.041 769.913 Q190.12 765.306 195.93 765.306 Z" fill="#000000" fill-rule="evenodd" fill-opacity="1" /><path clip-path="url(#clip820)" d="M151.694 457.812 Q148.083 457.812 146.254 461.377 Q144.449 464.919 144.449 472.048 Q144.449 479.155 146.254 482.719 Q148.083 486.261 151.694 486.261 Q155.328 486.261 157.134 482.719 Q158.962 479.155 158.962 472.048 Q158.962 464.919 157.134 461.377 Q155.328 457.812 151.694 457.812 M151.694 454.108 Q157.504 454.108 160.56 458.715 Q163.638 463.298 163.638 472.048 Q163.638 480.775 160.56 485.381 Q157.504 489.965 151.694 489.965 Q145.884 489.965 142.805 485.381 Q139.75 480.775 139.75 472.048 Q139.75 463.298 142.805 458.715 Q145.884 454.108 151.694 454.108 Z" fill="#000000" fill-rule="evenodd" fill-opacity="1" /><path clip-path="url(#clip820)" d="M171.856 483.414 L176.74 483.414 L176.74 489.293 L171.856 489.293 L171.856 483.414 Z" fill="#000000" fill-rule="evenodd" fill-opacity="1" /><path clip-path="url(#clip820)" d="M186.972 454.733 L205.328 454.733 L205.328 458.669 L191.254 458.669 L191.254 467.141 Q192.272 466.794 193.291 466.632 Q194.309 466.446 195.328 466.446 Q201.115 466.446 204.495 469.618 Q207.874 472.789 207.874 478.206 Q207.874 483.784 204.402 486.886 Q200.93 489.965 194.61 489.965 Q192.435 489.965 190.166 489.594 Q187.921 489.224 185.513 488.483 L185.513 483.784 Q187.597 484.918 189.819 485.474 Q192.041 486.03 194.518 486.03 Q198.522 486.03 200.86 483.923 Q203.198 481.817 203.198 478.206 Q203.198 474.594 200.86 472.488 Q198.522 470.382 194.518 470.382 Q192.643 470.382 190.768 470.798 Q188.916 471.215 186.972 472.094 L186.972 454.733 Z" fill="#000000" fill-rule="evenodd" fill-opacity="1" /><path clip-path="url(#clip820)" d="M141.509 174.161 L149.148 174.161 L149.148 147.795 L140.838 149.462 L140.838 145.202 L149.101 143.536 L153.777 143.536 L153.777 174.161 L161.416 174.161 L161.416 178.096 L141.509 178.096 L141.509 174.161 Z" fill="#000000" fill-rule="evenodd" fill-opacity="1" /><path clip-path="url(#clip820)" d="M170.861 172.216 L175.745 172.216 L175.745 178.096 L170.861 178.096 L170.861 172.216 Z" fill="#000000" fill-rule="evenodd" fill-opacity="1" /><path clip-path="url(#clip820)" d="M195.93 146.615 Q192.319 146.615 190.49 150.179 Q188.685 153.721 188.685 160.851 Q188.685 167.957 190.49 171.522 Q192.319 175.063 195.93 175.063 Q199.564 175.063 201.37 171.522 Q203.198 167.957 203.198 160.851 Q203.198 153.721 201.37 150.179 Q199.564 146.615 195.93 146.615 M195.93 142.911 Q201.74 142.911 204.796 147.517 Q207.874 152.101 207.874 160.851 Q207.874 169.577 204.796 174.184 Q201.74 178.767 195.93 178.767 Q190.12 178.767 187.041 174.184 Q183.985 169.577 183.985 160.851 Q183.985 152.101 187.041 147.517 Q190.12 142.911 195.93 142.911 Z" fill="#000000" fill-rule="evenodd" fill-opacity="1" /><path clip-path="url(#clip820)" d="M61.6917 793.842 Q61.9816 793.585 62.2714 793.585 Q62.5613 793.585 63.3986 794.229 Q64.236 794.841 65.3632 796.161 Q66.4904 797.481 67.5532 799.188 Q68.616 800.895 69.3245 803.407 Q70.0653 805.919 70.0653 808.56 Q70.0653 813.294 66.6836 816.129 Q63.302 818.931 58.1169 818.931 Q54.7997 818.931 51.8689 817.836 Q48.906 816.741 46.8126 814.969 Q44.7192 813.166 43.2056 810.911 Q41.6597 808.625 40.919 806.241 Q40.1782 803.858 40.1782 801.636 Q40.1782 798.383 41.8207 796.483 Q43.4632 794.583 45.782 794.583 Q46.3295 794.583 47.0059 794.744 Q47.6822 794.873 48.745 795.324 Q49.8078 795.742 50.8706 796.837 Q51.9012 797.932 52.5775 799.543 Q54.0911 803.117 54.0911 809.623 L54.0911 813.133 Q58.2457 814.164 60.951 814.164 Q62.0138 814.164 63.1088 813.971 Q64.1716 813.778 65.5242 813.262 Q66.8769 812.715 67.7464 811.491 Q68.5838 810.235 68.5838 808.431 Q68.5838 807.852 68.5516 807.24 Q68.5194 806.596 68.1651 804.985 Q67.8108 803.343 67.1989 801.894 Q66.587 800.444 65.2666 798.609 Q63.9139 796.741 62.0782 795.259 Q61.4019 794.744 61.4019 794.39 Q61.4019 794.1 61.6917 793.842 M45.782 796.773 Q44.0107 796.773 42.8191 798.093 Q41.6275 799.382 41.6275 801.636 Q41.6275 802.345 41.7885 803.214 Q41.9495 804.084 42.6259 805.533 Q43.3022 806.95 44.4294 808.206 Q45.5244 809.462 47.6822 810.718 Q49.8078 811.974 52.6419 812.715 L52.6419 810.009 Q52.6419 809.076 52.6419 808.399 Q52.6097 807.723 52.4809 806.241 Q52.352 804.728 52.1266 803.633 Q51.8689 802.538 51.3537 801.153 Q50.8384 799.768 50.162 798.898 Q49.4535 797.997 48.3263 797.385 Q47.1991 796.773 45.782 796.773 Z" fill="#000000" fill-rule="evenodd" fill-opacity="1" /><path clip-path="url(#clip820)" d="M20.1484 775.006 Q21.1403 775.006 21.8843 775.818 Q22.6057 776.607 22.6057 777.464 Q22.6057 778.253 22.1323 778.749 Q21.6363 779.222 20.9374 779.222 Q20.0131 779.222 19.2466 778.433 Q18.4801 777.644 18.4801 776.72 Q18.4801 775.953 18.9535 775.48 Q19.427 775.006 20.1484 775.006 M42.3994 774.6 Q42.5798 774.6 43.3012 774.803 Q44 775.006 45.0822 775.502 Q46.1417 775.976 47.1337 776.629 Q48.1256 777.283 48.8245 778.365 Q49.5233 779.425 49.5233 780.642 Q49.5233 782.288 48.4412 783.37 Q47.3591 784.43 45.7359 784.43 Q44.8567 784.43 42.0387 783.37 Q33.8327 780.304 33.4945 780.191 Q32.2095 779.673 31.0823 779.673 Q30.5638 779.673 30.2481 779.786 Q29.91 779.898 29.7973 780.124 Q29.662 780.349 29.6395 780.484 Q29.6169 780.597 29.6169 780.823 Q29.6169 782.153 30.9696 783.393 Q32.3222 784.633 35.3431 785.489 Q35.9067 785.67 36.042 785.782 Q36.1772 785.895 36.1772 786.233 Q36.1547 786.797 35.7038 786.797 Q35.5685 786.797 35.05 786.639 Q34.509 786.481 33.6974 786.188 Q32.8633 785.895 32.0066 785.376 Q31.1274 784.858 30.3609 784.227 Q29.5944 783.573 29.0984 782.649 Q28.6024 781.724 28.6024 780.687 Q28.6024 778.997 29.7071 777.959 Q30.7892 776.9 32.3898 776.9 Q33.2691 776.9 34.8246 777.509 Q36.8536 778.253 37.5073 778.523 L42.3543 780.327 Q44.1128 780.98 44.6538 781.183 Q45.1723 781.364 45.8036 781.521 Q46.4123 781.657 46.9759 781.657 Q47.7649 781.657 48.1256 781.409 Q48.4863 781.138 48.4863 780.552 Q48.4863 778.929 46.8857 777.734 Q45.2625 776.539 42.7827 775.84 Q42.715 775.818 42.6023 775.795 Q42.0387 775.615 41.9711 775.435 Q41.9485 775.344 41.9485 775.164 Q41.9485 774.6 42.3994 774.6 Z" fill="#000000" fill-rule="evenodd" fill-opacity="1" /><path clip-path="url(#clip820)" d="M29.6169 756.852 Q30.2481 756.852 30.4059 757.145 Q30.5412 757.438 30.5412 758.25 L30.5412 762.578 L44.1579 766.005 Q45.3527 766.276 46.3672 766.276 Q47.4944 766.276 47.9903 765.938 Q48.4863 765.577 48.4863 764.833 Q48.4863 763.368 47.1562 761.789 Q45.8261 760.189 42.5798 758.836 Q42.1514 758.656 42.0613 758.566 Q41.9485 758.453 41.9485 758.16 Q41.9485 757.596 42.3994 757.596 Q42.5572 757.596 43.2786 757.912 Q44 758.205 45.0596 758.859 Q46.1192 759.49 47.1111 760.324 Q48.1031 761.136 48.8245 762.376 Q49.5233 763.616 49.5233 764.946 Q49.5233 766.817 48.3285 768.012 Q47.1337 769.184 45.2625 769.184 Q44.6538 769.184 42.715 768.71 Q40.7537 768.237 30.5412 765.667 L30.5412 769.748 Q30.5412 770.311 30.5187 770.537 Q30.4961 770.739 30.3834 770.897 Q30.2481 771.033 29.9776 771.033 Q29.5493 771.033 29.3689 770.852 Q29.166 770.672 29.1435 770.446 Q29.0984 770.198 29.0984 769.635 L29.0984 765.306 L21.7716 763.503 Q21.0501 763.322 20.6444 762.872 Q20.216 762.398 20.1709 762.128 Q20.1033 761.857 20.1033 761.654 Q20.1033 761.045 20.4415 760.685 Q20.7571 760.324 21.3432 760.324 Q21.6588 760.324 29.0984 762.218 L29.0984 758.16 Q29.0984 757.641 29.1209 757.438 Q29.1435 757.213 29.2562 757.033 Q29.3689 756.852 29.6169 756.852 Z" fill="#000000" fill-rule="evenodd" fill-opacity="1" /><path clip-path="url(#clip820)" d="M914.289 16.7545 L914.289 25.383 Q910.157 21.5346 905.458 19.6307 Q900.8 17.7268 895.534 17.7268 Q885.163 17.7268 879.654 24.0867 Q874.145 30.4061 874.145 42.3968 Q874.145 54.3469 879.654 60.7069 Q885.163 67.0263 895.534 67.0263 Q900.8 67.0263 905.458 65.1223 Q910.157 63.2184 914.289 59.3701 L914.289 67.9175 Q909.995 70.8341 905.175 72.2924 Q900.395 73.7508 895.048 73.7508 Q881.315 73.7508 873.416 65.3654 Q865.516 56.9395 865.516 42.3968 Q865.516 27.8135 873.416 19.4281 Q881.315 11.0023 895.048 11.0023 Q900.476 11.0023 905.256 12.4606 Q910.076 13.8784 914.289 16.7545 Z" fill="#000000" fill-rule="evenodd" fill-opacity="1" /><path clip-path="url(#clip820)" d="M944.185 32.4315 Q938.19 32.4315 934.706 37.1306 Q931.222 41.7891 931.222 49.9314 Q931.222 58.0738 934.665 62.7728 Q938.149 67.4314 944.185 67.4314 Q950.14 67.4314 953.624 62.7323 Q957.107 58.0333 957.107 49.9314 Q957.107 41.8701 953.624 37.1711 Q950.14 32.4315 944.185 32.4315 M944.185 26.1121 Q953.907 26.1121 959.457 32.4315 Q965.007 38.7509 965.007 49.9314 Q965.007 61.0714 959.457 67.4314 Q953.907 73.7508 944.185 73.7508 Q934.422 73.7508 928.873 67.4314 Q923.363 61.0714 923.363 49.9314 Q923.363 38.7509 928.873 32.4315 Q934.422 26.1121 944.185 26.1121 Z" fill="#000000" fill-rule="evenodd" fill-opacity="1" /><path clip-path="url(#clip820)" d="M1012.69 35.9153 Q1015.48 30.8922 1019.37 28.5022 Q1023.26 26.1121 1028.52 26.1121 Q1035.61 26.1121 1039.46 31.0947 Q1043.31 36.0368 1043.31 45.1919 L1043.31 72.576 L1035.82 72.576 L1035.82 45.4349 Q1035.82 38.913 1033.51 35.7533 Q1031.2 32.5936 1026.46 32.5936 Q1020.67 32.5936 1017.3 36.4419 Q1013.94 40.2903 1013.94 46.9338 L1013.94 72.576 L1006.45 72.576 L1006.45 45.4349 Q1006.45 38.8725 1004.14 35.7533 Q1001.83 32.5936 997.009 32.5936 Q991.297 32.5936 987.935 36.4824 Q984.573 40.3308 984.573 46.9338 L984.573 72.576 L977.078 72.576 L977.078 27.2059 L984.573 27.2059 L984.573 34.2544 Q987.125 30.082 990.689 28.0971 Q994.254 26.1121 999.156 26.1121 Q1004.1 26.1121 1007.54 28.6237 Q1011.02 31.1352 1012.69 35.9153 Z" fill="#000000" fill-rule="evenodd" fill-opacity="1" /><path clip-path="url(#clip820)" d="M1065.39 65.7705 L1065.39 89.8329 L1057.89 89.8329 L1057.89 27.2059 L1065.39 27.2059 L1065.39 34.0924 Q1067.74 30.0415 1071.3 28.0971 Q1074.91 26.1121 1079.89 26.1121 Q1088.15 26.1121 1093.3 32.6746 Q1098.48 39.2371 1098.48 49.9314 Q1098.48 60.6258 1093.3 67.1883 Q1088.15 73.7508 1079.89 73.7508 Q1074.91 73.7508 1071.3 71.8063 Q1067.74 69.8214 1065.39 65.7705 M1090.75 49.9314 Q1090.75 41.7081 1087.34 37.0496 Q1083.98 32.3505 1078.07 32.3505 Q1072.15 32.3505 1068.75 37.0496 Q1065.39 41.7081 1065.39 49.9314 Q1065.39 58.1548 1068.75 62.8538 Q1072.15 67.5124 1078.07 67.5124 Q1083.98 67.5124 1087.34 62.8538 Q1090.75 58.1548 1090.75 49.9314 Z" fill="#000000" fill-rule="evenodd" fill-opacity="1" /><path clip-path="url(#clip820)" d="M1110.84 9.54393 L1118.29 9.54393 L1118.29 72.576 L1110.84 72.576 L1110.84 9.54393 Z" fill="#000000" fill-rule="evenodd" fill-opacity="1" /><path clip-path="url(#clip820)" d="M1172.7 48.0275 L1172.7 51.6733 L1138.43 51.6733 Q1138.91 59.3701 1143.04 63.421 Q1147.22 67.4314 1154.63 67.4314 Q1158.92 67.4314 1162.93 66.3781 Q1166.98 65.3249 1170.95 63.2184 L1170.95 70.267 Q1166.94 71.9684 1162.73 72.8596 Q1158.52 73.7508 1154.18 73.7508 Q1143.33 73.7508 1136.97 67.4314 Q1130.65 61.1119 1130.65 50.3365 Q1130.65 39.1965 1136.64 32.6746 Q1142.68 26.1121 1152.89 26.1121 Q1162.04 26.1121 1167.35 32.0264 Q1172.7 37.9003 1172.7 48.0275 M1165.24 45.84 Q1165.16 39.7232 1161.8 36.0774 Q1158.48 32.4315 1152.97 32.4315 Q1146.73 32.4315 1142.96 35.9558 Q1139.24 39.4801 1138.67 45.8805 L1165.24 45.84 Z" fill="#000000" fill-rule="evenodd" fill-opacity="1" /><path clip-path="url(#clip820)" d="M1221.19 27.2059 L1204.78 49.2833 L1222.04 72.576 L1213.25 72.576 L1200.04 54.752 L1186.83 72.576 L1178.04 72.576 L1195.67 48.8377 L1179.54 27.2059 L1188.33 27.2059 L1200.36 43.369 L1212.4 27.2059 L1221.19 27.2059 Z" fill="#000000" fill-rule="evenodd" fill-opacity="1" /><path clip-path="url(#clip820)" d="M1297.75 48.0275 L1297.75 51.6733 L1263.48 51.6733 Q1263.96 59.3701 1268.1 63.421 Q1272.27 67.4314 1279.68 67.4314 Q1283.97 67.4314 1287.99 66.3781 Q1292.04 65.3249 1296.01 63.2184 L1296.01 70.267 Q1292 71.9684 1287.78 72.8596 Q1283.57 73.7508 1279.24 73.7508 Q1268.38 73.7508 1262.02 67.4314 Q1255.7 61.1119 1255.7 50.3365 Q1255.7 39.1965 1261.69 32.6746 Q1267.73 26.1121 1277.94 26.1121 Q1287.09 26.1121 1292.4 32.0264 Q1297.75 37.9003 1297.75 48.0275 M1290.29 45.84 Q1290.21 39.7232 1286.85 36.0774 Q1283.53 32.4315 1278.02 32.4315 Q1271.78 32.4315 1268.01 35.9558 Q1264.29 39.4801 1263.72 45.8805 L1290.29 45.84 Z" fill="#000000" fill-rule="evenodd" fill-opacity="1" /><path clip-path="url(#clip820)" d="M1346.24 27.2059 L1329.83 49.2833 L1347.09 72.576 L1338.3 72.576 L1325.09 54.752 L1311.89 72.576 L1303.1 72.576 L1320.72 48.8377 L1304.59 27.2059 L1313.38 27.2059 L1325.42 43.369 L1337.45 27.2059 L1346.24 27.2059 Z" fill="#000000" fill-rule="evenodd" fill-opacity="1" /><path clip-path="url(#clip820)" d="M1364.83 65.7705 L1364.83 89.8329 L1357.34 89.8329 L1357.34 27.2059 L1364.83 27.2059 L1364.83 34.0924 Q1367.18 30.0415 1370.75 28.0971 Q1374.35 26.1121 1379.33 26.1121 Q1387.6 26.1121 1392.74 32.6746 Q1397.93 39.2371 1397.93 49.9314 Q1397.93 60.6258 1392.74 67.1883 Q1387.6 73.7508 1379.33 73.7508 Q1374.35 73.7508 1370.75 71.8063 Q1367.18 69.8214 1364.83 65.7705 M1390.19 49.9314 Q1390.19 41.7081 1386.79 37.0496 Q1383.42 32.3505 1377.51 32.3505 Q1371.6 32.3505 1368.19 37.0496 Q1364.83 41.7081 1364.83 49.9314 Q1364.83 58.1548 1368.19 62.8538 Q1371.6 67.5124 1377.51 67.5124 Q1383.42 67.5124 1386.79 62.8538 Q1390.19 58.1548 1390.19 49.9314 Z" fill="#000000" fill-rule="evenodd" fill-opacity="1" /><path clip-path="url(#clip820)" d="M1427.86 32.4315 Q1421.87 32.4315 1418.38 37.1306 Q1414.9 41.7891 1414.9 49.9314 Q1414.9 58.0738 1418.34 62.7728 Q1421.83 67.4314 1427.86 67.4314 Q1433.82 67.4314 1437.3 62.7323 Q1440.79 58.0333 1440.79 49.9314 Q1440.79 41.8701 1437.3 37.1711 Q1433.82 32.4315 1427.86 32.4315 M1427.86 26.1121 Q1437.59 26.1121 1443.13 32.4315 Q1448.68 38.7509 1448.68 49.9314 Q1448.68 61.0714 1443.13 67.4314 Q1437.59 73.7508 1427.86 73.7508 Q1418.1 73.7508 1412.55 67.4314 Q1407.04 61.0714 1407.04 49.9314 Q1407.04 38.7509 1412.55 32.4315 Q1418.1 26.1121 1427.86 26.1121 Z" fill="#000000" fill-rule="evenodd" fill-opacity="1" /><path clip-path="url(#clip820)" d="M1498.75 45.1919 L1498.75 72.576 L1491.3 72.576 L1491.3 45.4349 Q1491.3 38.994 1488.79 35.7938 Q1486.28 32.5936 1481.25 32.5936 Q1475.22 32.5936 1471.73 36.4419 Q1468.25 40.2903 1468.25 46.9338 L1468.25 72.576 L1460.76 72.576 L1460.76 27.2059 L1468.25 27.2059 L1468.25 34.2544 Q1470.92 30.163 1474.53 28.1376 Q1478.18 26.1121 1482.91 26.1121 Q1490.73 26.1121 1494.74 30.9732 Q1498.75 35.7938 1498.75 45.1919 Z" fill="#000000" fill-rule="evenodd" fill-opacity="1" /><path clip-path="url(#clip820)" d="M1552.43 48.0275 L1552.43 51.6733 L1518.16 51.6733 Q1518.64 59.3701 1522.78 63.421 Q1526.95 67.4314 1534.36 67.4314 Q1538.66 67.4314 1542.67 66.3781 Q1546.72 65.3249 1550.69 63.2184 L1550.69 70.267 Q1546.68 71.9684 1542.46 72.8596 Q1538.25 73.7508 1533.92 73.7508 Q1523.06 73.7508 1516.7 67.4314 Q1510.38 61.1119 1510.38 50.3365 Q1510.38 39.1965 1516.38 32.6746 Q1522.41 26.1121 1532.62 26.1121 Q1541.77 26.1121 1547.08 32.0264 Q1552.43 37.9003 1552.43 48.0275 M1544.97 45.84 Q1544.89 39.7232 1541.53 36.0774 Q1538.21 32.4315 1532.7 32.4315 Q1526.46 32.4315 1522.69 35.9558 Q1518.97 39.4801 1518.4 45.8805 L1544.97 45.84 Z" fill="#000000" fill-rule="evenodd" fill-opacity="1" /><path clip-path="url(#clip820)" d="M1602.38 45.1919 L1602.38 72.576 L1594.92 72.576 L1594.92 45.4349 Q1594.92 38.994 1592.41 35.7938 Q1589.9 32.5936 1584.88 32.5936 Q1578.84 32.5936 1575.36 36.4419 Q1571.87 40.2903 1571.87 46.9338 L1571.87 72.576 L1564.38 72.576 L1564.38 27.2059 L1571.87 27.2059 L1571.87 34.2544 Q1574.55 30.163 1578.15 28.1376 Q1581.8 26.1121 1586.54 26.1121 Q1594.36 26.1121 1598.37 30.9732 Q1602.38 35.7938 1602.38 45.1919 Z" fill="#000000" fill-rule="evenodd" fill-opacity="1" /><path clip-path="url(#clip820)" d="M1624.62 14.324 L1624.62 27.2059 L1639.97 27.2059 L1639.97 32.9987 L1624.62 32.9987 L1624.62 57.6282 Q1624.62 63.1779 1626.11 64.7578 Q1627.65 66.3376 1632.31 66.3376 L1639.97 66.3376 L1639.97 72.576 L1632.31 72.576 Q1623.68 72.576 1620.4 69.3758 Q1617.12 66.1351 1617.12 57.6282 L1617.12 32.9987 L1611.65 32.9987 L1611.65 27.2059 L1617.12 27.2059 L1617.12 14.324 L1624.62 14.324 Z" fill="#000000" fill-rule="evenodd" fill-opacity="1" /><path clip-path="url(#clip820)" d="M1649.77 27.2059 L1657.23 27.2059 L1657.23 72.576 L1649.77 72.576 L1649.77 27.2059 M1649.77 9.54393 L1657.23 9.54393 L1657.23 18.9825 L1649.77 18.9825 L1649.77 9.54393 Z" fill="#000000" fill-rule="evenodd" fill-opacity="1" /><path clip-path="url(#clip820)" d="M1693.44 49.7694 Q1684.41 49.7694 1680.92 51.8354 Q1677.44 53.9013 1677.44 58.8839 Q1677.44 62.8538 1680.03 65.2034 Q1682.66 67.5124 1687.16 67.5124 Q1693.36 67.5124 1697.09 63.1374 Q1700.85 58.7219 1700.85 51.4303 L1700.85 49.7694 L1693.44 49.7694 M1708.31 46.6907 L1708.31 72.576 L1700.85 72.576 L1700.85 65.6895 Q1698.3 69.8214 1694.49 71.8063 Q1690.69 73.7508 1685.18 73.7508 Q1678.21 73.7508 1674.08 69.8619 Q1669.99 65.9325 1669.99 59.3701 Q1669.99 51.7138 1675.09 47.825 Q1680.23 43.9361 1690.4 43.9361 L1700.85 43.9361 L1700.85 43.2069 Q1700.85 38.0623 1697.45 35.2672 Q1694.09 32.4315 1687.97 32.4315 Q1684.08 32.4315 1680.4 33.3632 Q1676.71 34.295 1673.31 36.1584 L1673.31 29.2718 Q1677.4 27.692 1681.25 26.9223 Q1685.1 26.1121 1688.74 26.1121 Q1698.58 26.1121 1703.45 31.2163 Q1708.31 36.3204 1708.31 46.6907 Z" fill="#000000" fill-rule="evenodd" fill-opacity="1" /><path clip-path="url(#clip820)" d="M1723.66 9.54393 L1731.11 9.54393 L1731.11 72.576 L1723.66 72.576 L1723.66 9.54393 Z" fill="#000000" fill-rule="evenodd" fill-opacity="1" /><polyline clip-path="url(#clip822)" style="stroke:#009af9; stroke-linecap:butt; stroke-linejoin:round; stroke-width:8; stroke-opacity:1; fill:none" points="
  303.56,160.816 308.417,161.109 313.274,161.987 318.131,163.45 322.989,165.497 345.445,182.471 367.902,211.511 390.358,252.034 412.814,303.226 435.271,364.058 
  457.727,433.309 480.183,509.588 502.64,591.363 529.631,694.597 556.621,800.399 583.612,905.704 610.603,1007.46 633.423,1088.53 656.243,1163.27 679.063,1230.12 
  701.884,1287.71 726.673,1338.38 751.462,1375.46 776.251,1398.06 801.041,1405.61 823.894,1399.07 846.748,1379.73 869.601,1347.98 892.455,1304.48 916.956,1245.84 
  941.457,1176.13 965.959,1097.03 990.46,1010.43 1047.23,792.613 1104.01,573.599 1129.24,483.268 1154.46,400.537 1179.69,327.502 1204.92,266.012 1227.04,222.831 
  1249.16,190.572 1271.28,169.866 1293.41,161.115 1317.52,165.392 1341.64,183.979 1365.76,216.446 1389.88,262.042 1414.14,320.086 1438.41,388.985 1462.67,467.125 
  1486.93,552.673 1540.58,757.965 1594.23,966.128 1619.75,1059.25 1645.28,1145.21 1670.8,1221.78 1696.32,1286.98 1709.59,1315.81 1722.86,1340.9 1736.13,1362.08 
  1749.4,1379.19 1762.67,1392.12 1775.94,1400.77 1789.21,1405.08 1802.48,1405.03 1824.82,1395.11 1847.16,1373.01 1869.5,1339.2 1891.84,1294.33 1919.11,1225.88 
  1946.38,1144.33 1973.66,1052.09 2000.93,951.886 2052.21,752.452 2103.49,556.217 2124.02,483.158 2144.56,415.142 2165.1,353.31 2185.64,298.703 2206.17,252.237 
  2226.71,214.693 2247.25,186.703 2267.79,168.737 2274.11,165.275 2280.43,162.799 2286.75,161.312 2293.07,160.816 
  "/>
<polyline clip-path="url(#clip822)" style="stroke:#e26f46; stroke-linecap:butt; stroke-linejoin:round; stroke-width:8; stroke-opacity:1; fill:none" points="
  303.56,783.211 308.417,764.119 313.274,745.045 318.131,726.006 322.989,707.022 367.902,537.173 412.814,386.992 435.271,323.117 457.727,268.483 480.183,224.188 
  502.64,191.121 516.135,176.938 529.631,167.156 543.126,161.849 556.621,161.053 570.117,164.776 583.612,172.989 597.107,185.633 610.603,202.617 633.423,240.848 
  656.243,290.329 667.653,318.976 679.063,350.032 690.474,383.338 701.884,418.72 751.462,591.863 801.041,783.618 846.748,960.8 892.455,1123.28 904.705,1162.56 
  916.956,1199.57 929.207,1234.09 941.457,1265.9 965.959,1320.7 990.46,1362.65 1004.65,1380.66 1018.85,1393.88 1033.04,1402.19 1047.23,1405.54 1061.43,1403.88 
  1075.62,1397.24 1089.82,1385.66 1104.01,1369.25 1129.24,1328.56 1154.46,1274.06 1179.69,1207.13 1204.92,1129.45 1249.16,973.356 1293.41,802.508 1341.64,614.995 
  1389.88,442.978 1414.14,367.409 1438.41,301.587 1462.67,247.053 1486.93,205.086 1500.34,187.653 1513.76,174.49 1527.17,165.695 1540.58,161.328 1553.99,161.422 
  1567.41,165.976 1580.82,174.958 1594.23,188.302 1619.75,225.377 1645.28,276.919 1658.04,307.71 1670.8,341.59 1683.56,378.338 1696.32,417.715 1749.4,603.806 
  1802.48,809.873 1847.16,981.982 1891.84,1138.37 1905.47,1181.02 1919.11,1220.72 1932.75,1257.19 1946.38,1290.13 1960.02,1319.32 1973.66,1344.53 1987.29,1365.58 
  2000.93,1382.31 2013.75,1393.99 2026.57,1401.67 2039.39,1405.3 2052.21,1404.85 2065.03,1400.32 2077.85,1391.75 2090.67,1379.2 2103.49,1362.74 2124.02,1328.5 
  2144.56,1285.11 2165.1,1233.28 2185.64,1173.89 2226.71,1036.52 2267.79,882.19 2274.11,857.584 2280.43,832.859 2286.75,808.055 2293.07,783.211 
  "/>
<path clip-path="url(#clip820)" d="
M1881.47 322.975 L2282.46 322.975 L2282.46 167.455 L1881.47 167.455  Z
  " fill="#ffffff" fill-rule="evenodd" fill-opacity="1"/>
<polyline clip-path="url(#clip820)" style="stroke:#000000; stroke-linecap:butt; stroke-linejoin:round; stroke-width:4; stroke-opacity:1; fill:none" points="
  1881.47,322.975 2282.46,322.975 2282.46,167.455 1881.47,167.455 1881.47,322.975 
  "/>
<polyline clip-path="url(#clip820)" style="stroke:#009af9; stroke-linecap:butt; stroke-linejoin:round; stroke-width:4; stroke-opacity:1; fill:none" points="
  1904.91,219.295 2045.5,219.295 
  "/>
<path clip-path="url(#clip820)" d="M2085.32 220.371 Q2086.82 220.88 2088.24 222.547 Q2089.67 224.214 2091.11 227.13 L2095.85 236.575 L2090.83 236.575 L2086.41 227.709 Q2084.69 224.237 2083.07 223.103 Q2081.48 221.968 2078.7 221.968 L2073.61 221.968 L2073.61 236.575 L2068.93 236.575 L2068.93 202.015 L2079.49 202.015 Q2085.41 202.015 2088.33 204.492 Q2091.24 206.968 2091.24 211.968 Q2091.24 215.232 2089.72 217.385 Q2088.21 219.538 2085.32 220.371 M2073.61 205.857 L2073.61 218.126 L2079.49 218.126 Q2082.87 218.126 2084.58 216.575 Q2086.31 215.001 2086.31 211.968 Q2086.31 208.936 2084.58 207.408 Q2082.87 205.857 2079.49 205.857 L2073.61 205.857 Z" fill="#000000" fill-rule="evenodd" fill-opacity="1" /><path clip-path="url(#clip820)" d="M2121.73 222.547 L2121.73 224.63 L2102.15 224.63 Q2102.43 229.028 2104.79 231.343 Q2107.17 233.635 2111.41 233.635 Q2113.86 233.635 2116.15 233.033 Q2118.47 232.431 2120.74 231.228 L2120.74 235.255 Q2118.44 236.227 2116.04 236.737 Q2113.63 237.246 2111.15 237.246 Q2104.95 237.246 2101.31 233.635 Q2097.7 230.024 2097.7 223.866 Q2097.7 217.501 2101.13 213.774 Q2104.58 210.024 2110.41 210.024 Q2115.64 210.024 2118.68 213.404 Q2121.73 216.76 2121.73 222.547 M2117.47 221.297 Q2117.43 217.802 2115.5 215.718 Q2113.61 213.635 2110.46 213.635 Q2106.89 213.635 2104.74 215.649 Q2102.61 217.663 2102.29 221.32 L2117.47 221.297 Z" fill="#000000" fill-rule="evenodd" fill-opacity="1" /><path clip-path="url(#clip820)" d="M2147.91 232.686 L2147.91 246.436 L2143.63 246.436 L2143.63 210.649 L2147.91 210.649 L2147.91 214.584 Q2149.25 212.269 2151.29 211.158 Q2153.35 210.024 2156.2 210.024 Q2160.92 210.024 2163.86 213.774 Q2166.82 217.524 2166.82 223.635 Q2166.82 229.746 2163.86 233.496 Q2160.92 237.246 2156.2 237.246 Q2153.35 237.246 2151.29 236.135 Q2149.25 235.001 2147.91 232.686 M2162.4 223.635 Q2162.4 218.936 2160.46 216.274 Q2158.54 213.589 2155.16 213.589 Q2151.78 213.589 2149.83 216.274 Q2147.91 218.936 2147.91 223.635 Q2147.91 228.334 2149.83 231.019 Q2151.78 233.681 2155.16 233.681 Q2158.54 233.681 2160.46 231.019 Q2162.4 228.334 2162.4 223.635 Z" fill="#000000" fill-rule="evenodd" fill-opacity="1" /><path clip-path="url(#clip820)" d="M2185.67 223.542 Q2180.5 223.542 2178.51 224.723 Q2176.52 225.903 2176.52 228.751 Q2176.52 231.019 2178 232.362 Q2179.51 233.681 2182.08 233.681 Q2185.62 233.681 2187.75 231.181 Q2189.9 228.658 2189.9 224.491 L2189.9 223.542 L2185.67 223.542 M2194.16 221.783 L2194.16 236.575 L2189.9 236.575 L2189.9 232.64 Q2188.44 235.001 2186.27 236.135 Q2184.09 237.246 2180.94 237.246 Q2176.96 237.246 2174.6 235.024 Q2172.26 232.778 2172.26 229.028 Q2172.26 224.653 2175.18 222.431 Q2178.12 220.209 2183.93 220.209 L2189.9 220.209 L2189.9 219.792 Q2189.9 216.853 2187.96 215.255 Q2186.04 213.635 2182.54 213.635 Q2180.32 213.635 2178.21 214.167 Q2176.11 214.7 2174.16 215.765 L2174.16 211.829 Q2176.5 210.927 2178.7 210.487 Q2180.9 210.024 2182.98 210.024 Q2188.61 210.024 2191.38 212.941 Q2194.16 215.857 2194.16 221.783 Z" fill="#000000" fill-rule="evenodd" fill-opacity="1" /><path clip-path="url(#clip820)" d="M2217.96 214.63 Q2217.24 214.214 2216.38 214.029 Q2215.55 213.82 2214.53 213.82 Q2210.92 213.82 2208.98 216.181 Q2207.05 218.519 2207.05 222.917 L2207.05 236.575 L2202.77 236.575 L2202.77 210.649 L2207.05 210.649 L2207.05 214.677 Q2208.4 212.316 2210.55 211.181 Q2212.7 210.024 2215.78 210.024 Q2216.22 210.024 2216.75 210.093 Q2217.29 210.14 2217.93 210.255 L2217.96 214.63 Z" fill="#000000" fill-rule="evenodd" fill-opacity="1" /><path clip-path="url(#clip820)" d="M2226.64 203.288 L2226.64 210.649 L2235.41 210.649 L2235.41 213.959 L2226.64 213.959 L2226.64 228.033 Q2226.64 231.204 2227.49 232.107 Q2228.37 233.01 2231.04 233.01 L2235.41 233.01 L2235.41 236.575 L2231.04 236.575 Q2226.11 236.575 2224.23 234.746 Q2222.36 232.894 2222.36 228.033 L2222.36 213.959 L2219.23 213.959 L2219.23 210.649 L2222.36 210.649 L2222.36 203.288 L2226.64 203.288 Z" fill="#000000" fill-rule="evenodd" fill-opacity="1" /><polyline clip-path="url(#clip820)" style="stroke:#e26f46; stroke-linecap:butt; stroke-linejoin:round; stroke-width:4; stroke-opacity:1; fill:none" points="
  1904.91,271.135 2045.5,271.135 
  "/>
<path clip-path="url(#clip820)" d="M2068.93 253.855 L2073.61 253.855 L2073.61 288.415 L2068.93 288.415 L2068.93 253.855 Z" fill="#000000" fill-rule="evenodd" fill-opacity="1" /><path clip-path="url(#clip820)" d="M2102.91 267.466 Q2104.51 264.595 2106.73 263.23 Q2108.95 261.864 2111.96 261.864 Q2116.01 261.864 2118.21 264.711 Q2120.41 267.535 2120.41 272.767 L2120.41 288.415 L2116.13 288.415 L2116.13 272.906 Q2116.13 269.179 2114.81 267.373 Q2113.49 265.568 2110.78 265.568 Q2107.47 265.568 2105.55 267.767 Q2103.63 269.966 2103.63 273.762 L2103.63 288.415 L2099.35 288.415 L2099.35 272.906 Q2099.35 269.156 2098.03 267.373 Q2096.71 265.568 2093.95 265.568 Q2090.69 265.568 2088.77 267.79 Q2086.85 269.989 2086.85 273.762 L2086.85 288.415 L2082.56 288.415 L2082.56 262.489 L2086.85 262.489 L2086.85 266.517 Q2088.3 264.132 2090.34 262.998 Q2092.38 261.864 2095.18 261.864 Q2098 261.864 2099.97 263.299 Q2101.96 264.734 2102.91 267.466 Z" fill="#000000" fill-rule="evenodd" fill-opacity="1" /><path clip-path="url(#clip820)" d="M2148.1 284.526 L2148.1 298.276 L2143.81 298.276 L2143.81 262.489 L2148.1 262.489 L2148.1 266.424 Q2149.44 264.109 2151.48 262.998 Q2153.54 261.864 2156.38 261.864 Q2161.11 261.864 2164.05 265.614 Q2167.01 269.364 2167.01 275.475 Q2167.01 281.586 2164.05 285.336 Q2161.11 289.086 2156.38 289.086 Q2153.54 289.086 2151.48 287.975 Q2149.44 286.841 2148.1 284.526 M2162.59 275.475 Q2162.59 270.776 2160.64 268.114 Q2158.72 265.429 2155.34 265.429 Q2151.96 265.429 2150.02 268.114 Q2148.1 270.776 2148.1 275.475 Q2148.1 280.174 2150.02 282.859 Q2151.96 285.521 2155.34 285.521 Q2158.72 285.521 2160.64 282.859 Q2162.59 280.174 2162.59 275.475 Z" fill="#000000" fill-rule="evenodd" fill-opacity="1" /><path clip-path="url(#clip820)" d="M2185.85 275.382 Q2180.69 275.382 2178.7 276.563 Q2176.71 277.743 2176.71 280.591 Q2176.71 282.859 2178.19 284.202 Q2179.69 285.521 2182.26 285.521 Q2185.8 285.521 2187.93 283.021 Q2190.09 280.498 2190.09 276.331 L2190.09 275.382 L2185.85 275.382 M2194.35 273.623 L2194.35 288.415 L2190.09 288.415 L2190.09 284.48 Q2188.63 286.841 2186.45 287.975 Q2184.28 289.086 2181.13 289.086 Q2177.15 289.086 2174.79 286.864 Q2172.45 284.618 2172.45 280.868 Q2172.45 276.493 2175.36 274.271 Q2178.3 272.049 2184.11 272.049 L2190.09 272.049 L2190.09 271.632 Q2190.09 268.693 2188.14 267.095 Q2186.22 265.475 2182.73 265.475 Q2180.5 265.475 2178.4 266.007 Q2176.29 266.54 2174.35 267.605 L2174.35 263.669 Q2176.68 262.767 2178.88 262.327 Q2181.08 261.864 2183.17 261.864 Q2188.79 261.864 2191.57 264.781 Q2194.35 267.697 2194.35 273.623 Z" fill="#000000" fill-rule="evenodd" fill-opacity="1" /><path clip-path="url(#clip820)" d="M2218.14 266.47 Q2217.42 266.054 2216.57 265.869 Q2215.73 265.66 2214.72 265.66 Q2211.11 265.66 2209.16 268.021 Q2207.24 270.359 2207.24 274.757 L2207.24 288.415 L2202.96 288.415 L2202.96 262.489 L2207.24 262.489 L2207.24 266.517 Q2208.58 264.156 2210.73 263.021 Q2212.89 261.864 2215.97 261.864 Q2216.41 261.864 2216.94 261.933 Q2217.47 261.98 2218.12 262.095 L2218.14 266.47 Z" fill="#000000" fill-rule="evenodd" fill-opacity="1" /><path clip-path="url(#clip820)" d="M2226.82 255.128 L2226.82 262.489 L2235.6 262.489 L2235.6 265.799 L2226.82 265.799 L2226.82 279.873 Q2226.82 283.044 2227.68 283.947 Q2228.56 284.85 2231.22 284.85 L2235.6 284.85 L2235.6 288.415 L2231.22 288.415 Q2226.29 288.415 2224.42 286.586 Q2222.54 284.734 2222.54 279.873 L2222.54 265.799 L2219.42 265.799 L2219.42 262.489 L2222.54 262.489 L2222.54 255.128 L2226.82 255.128 Z" fill="#000000" fill-rule="evenodd" fill-opacity="1" /></svg>
