<?xml version="1.0" encoding="utf-8"?>
<svg xmlns="http://www.w3.org/2000/svg" xmlns:xlink="http://www.w3.org/1999/xlink" width="600" height="400" viewBox="0 0 2400 1600">
<defs>
  <clipPath id="clip190">
    <rect x="0" y="0" width="2400" height="1600"/>
  </clipPath>
</defs>
<path clip-path="url(#clip190)" d="
M0 1600 L2400 1600 L2400 0 L0 0  Z
  " fill="#ffffff" fill-rule="evenodd" fill-opacity="1"/>
<defs>
  <clipPath id="clip191">
    <rect x="480" y="0" width="1681" height="1600"/>
  </clipPath>
</defs>
<defs>
  <clipPath id="clip192">
    <rect x="210" y="123" width="2143" height="1301"/>
  </clipPath>
</defs>
<path clip-path="url(#clip192)" d="
M210.746 1346.4 L210.746 353.805 L994.776 123.472 L2352.76 200.25 L2352.76 1192.85 L1568.73 1423.18 L210.746 1346.4  Z
  " fill="#ffffff" fill-rule="evenodd" fill-opacity="1"/>
<polyline clip-path="url(#clip192)" style="stroke:#000000; stroke-linecap:butt; stroke-linejoin:round; stroke-width:2; stroke-opacity:0.1; fill:none" points="
  210.746,1346.4 994.776,1116.07 
  "/>
<polyline clip-path="url(#clip192)" style="stroke:#000000; stroke-linecap:butt; stroke-linejoin:round; stroke-width:2; stroke-opacity:0.1; fill:none" points="
  994.776,1116.07 994.776,123.472 
  "/>
<polyline clip-path="url(#clip192)" style="stroke:#000000; stroke-linecap:butt; stroke-linejoin:round; stroke-width:2; stroke-opacity:0.1; fill:none" points="
  663.406,1371.99 1447.44,1141.66 
  "/>
<polyline clip-path="url(#clip192)" style="stroke:#000000; stroke-linecap:butt; stroke-linejoin:round; stroke-width:2; stroke-opacity:0.1; fill:none" points="
  1447.44,1141.66 1447.44,149.065 
  "/>
<polyline clip-path="url(#clip192)" style="stroke:#000000; stroke-linecap:butt; stroke-linejoin:round; stroke-width:2; stroke-opacity:0.1; fill:none" points="
  1116.07,1397.59 1900.1,1167.25 
  "/>
<polyline clip-path="url(#clip192)" style="stroke:#000000; stroke-linecap:butt; stroke-linejoin:round; stroke-width:2; stroke-opacity:0.1; fill:none" points="
  1900.1,1167.25 1900.1,174.657 
  "/>
<polyline clip-path="url(#clip192)" style="stroke:#000000; stroke-linecap:butt; stroke-linejoin:round; stroke-width:2; stroke-opacity:0.1; fill:none" points="
  1568.73,1423.18 2352.76,1192.85 
  "/>
<polyline clip-path="url(#clip192)" style="stroke:#000000; stroke-linecap:butt; stroke-linejoin:round; stroke-width:2; stroke-opacity:0.1; fill:none" points="
  2352.76,1192.85 2352.76,200.25 
  "/>
<polyline clip-path="url(#clip190)" style="stroke:#000000; stroke-linecap:butt; stroke-linejoin:round; stroke-width:4; stroke-opacity:1; fill:none" points="
  210.746,1346.4 1568.73,1423.18 
  "/>
<polyline clip-path="url(#clip190)" style="stroke:#000000; stroke-linecap:butt; stroke-linejoin:round; stroke-width:4; stroke-opacity:1; fill:none" points="
  210.746,1346.4 220.154,1343.64 
  "/>
<polyline clip-path="url(#clip190)" style="stroke:#000000; stroke-linecap:butt; stroke-linejoin:round; stroke-width:4; stroke-opacity:1; fill:none" points="
  663.406,1371.99 672.814,1369.23 
  "/>
<polyline clip-path="url(#clip190)" style="stroke:#000000; stroke-linecap:butt; stroke-linejoin:round; stroke-width:4; stroke-opacity:1; fill:none" points="
  1116.07,1397.59 1125.47,1394.82 
  "/>
<polyline clip-path="url(#clip190)" style="stroke:#000000; stroke-linecap:butt; stroke-linejoin:round; stroke-width:4; stroke-opacity:1; fill:none" points="
  1568.73,1423.18 1578.13,1420.42 
  "/>
<path clip-path="url(#clip190)" d="M186.746 1380.39 Q183.135 1380.39 181.306 1383.96 Q179.501 1387.5 179.501 1394.63 Q179.501 1401.74 181.306 1405.3 Q183.135 1408.84 186.746 1408.84 Q190.38 1408.84 192.186 1405.3 Q194.014 1401.74 194.014 1394.63 Q194.014 1387.5 192.186 1383.96 Q190.38 1380.39 186.746 1380.39 M186.746 1376.69 Q192.556 1376.69 195.612 1381.3 Q198.69 1385.88 198.69 1394.63 Q198.69 1403.36 195.612 1407.96 Q192.556 1412.55 186.746 1412.55 Q180.936 1412.55 177.857 1407.96 Q174.802 1403.36 174.802 1394.63 Q174.802 1385.88 177.857 1381.3 Q180.936 1376.69 186.746 1376.69 Z" fill="#000000" fill-rule="evenodd" fill-opacity="1" /><path clip-path="url(#clip190)" d="M614.094 1433.53 L621.732 1433.53 L621.732 1407.17 L613.422 1408.83 L613.422 1404.57 L621.686 1402.91 L626.362 1402.91 L626.362 1433.53 L634.001 1433.53 L634.001 1437.47 L614.094 1437.47 L614.094 1433.53 Z" fill="#000000" fill-rule="evenodd" fill-opacity="1" /><path clip-path="url(#clip190)" d="M653.445 1405.99 Q649.834 1405.99 648.005 1409.55 Q646.2 1413.09 646.2 1420.22 Q646.2 1427.33 648.005 1430.89 Q649.834 1434.43 653.445 1434.43 Q657.079 1434.43 658.885 1430.89 Q660.714 1427.33 660.714 1420.22 Q660.714 1413.09 658.885 1409.55 Q657.079 1405.99 653.445 1405.99 M653.445 1402.28 Q659.255 1402.28 662.311 1406.89 Q665.39 1411.47 665.39 1420.22 Q665.39 1428.95 662.311 1433.55 Q659.255 1438.14 653.445 1438.14 Q647.635 1438.14 644.556 1433.55 Q641.501 1428.95 641.501 1420.22 Q641.501 1411.47 644.556 1406.89 Q647.635 1402.28 653.445 1402.28 Z" fill="#000000" fill-rule="evenodd" fill-opacity="1" /><path clip-path="url(#clip190)" d="M1070.84 1459.12 L1087.16 1459.12 L1087.16 1463.06 L1065.21 1463.06 L1065.21 1459.12 Q1067.88 1456.37 1072.46 1451.74 Q1077.07 1447.09 1078.25 1445.74 Q1080.49 1443.22 1081.37 1441.49 Q1082.27 1439.73 1082.27 1438.04 Q1082.27 1435.28 1080.33 1433.55 Q1078.41 1431.81 1075.31 1431.81 Q1073.11 1431.81 1070.65 1432.57 Q1068.22 1433.34 1065.45 1434.89 L1065.45 1430.17 Q1068.27 1429.03 1070.72 1428.45 Q1073.18 1427.87 1075.21 1427.87 Q1080.58 1427.87 1083.78 1430.56 Q1086.97 1433.24 1086.97 1437.74 Q1086.97 1439.86 1086.16 1441.79 Q1085.38 1443.68 1083.27 1446.28 Q1082.69 1446.95 1079.59 1450.17 Q1076.49 1453.36 1070.84 1459.12 Z" fill="#000000" fill-rule="evenodd" fill-opacity="1" /><path clip-path="url(#clip190)" d="M1106.97 1431.58 Q1103.36 1431.58 1101.53 1435.14 Q1099.73 1438.68 1099.73 1445.81 Q1099.73 1452.92 1101.53 1456.49 Q1103.36 1460.03 1106.97 1460.03 Q1110.61 1460.03 1112.41 1456.49 Q1114.24 1452.92 1114.24 1445.81 Q1114.24 1438.68 1112.41 1435.14 Q1110.61 1431.58 1106.97 1431.58 M1106.97 1427.87 Q1112.78 1427.87 1115.84 1432.48 Q1118.92 1437.06 1118.92 1445.81 Q1118.92 1454.54 1115.84 1459.15 Q1112.78 1463.73 1106.97 1463.73 Q1101.16 1463.73 1098.08 1459.15 Q1095.03 1454.54 1095.03 1445.81 Q1095.03 1437.06 1098.08 1432.48 Q1101.16 1427.87 1106.97 1427.87 Z" fill="#000000" fill-rule="evenodd" fill-opacity="1" /><path clip-path="url(#clip190)" d="M1533.57 1470.02 Q1536.92 1470.74 1538.8 1473 Q1540.7 1475.27 1540.7 1478.61 Q1540.7 1483.72 1537.18 1486.52 Q1533.66 1489.32 1527.18 1489.32 Q1525 1489.32 1522.69 1488.88 Q1520.4 1488.47 1517.94 1487.61 L1517.94 1483.1 Q1519.89 1484.23 1522.2 1484.81 Q1524.52 1485.39 1527.04 1485.39 Q1531.44 1485.39 1533.73 1483.65 Q1536.05 1481.92 1536.05 1478.61 Q1536.05 1475.55 1533.89 1473.84 Q1531.76 1472.1 1527.94 1472.1 L1523.92 1472.1 L1523.92 1468.26 L1528.13 1468.26 Q1531.58 1468.26 1533.41 1466.89 Q1535.24 1465.5 1535.24 1462.91 Q1535.24 1460.25 1533.34 1458.84 Q1531.46 1457.4 1527.94 1457.4 Q1526.02 1457.4 1523.82 1457.82 Q1521.62 1458.24 1518.99 1459.11 L1518.99 1454.95 Q1521.65 1454.21 1523.96 1453.84 Q1526.3 1453.47 1528.36 1453.47 Q1533.68 1453.47 1536.79 1455.9 Q1539.89 1458.3 1539.89 1462.43 Q1539.89 1465.3 1538.24 1467.29 Q1536.6 1469.25 1533.57 1470.02 Z" fill="#000000" fill-rule="evenodd" fill-opacity="1" /><path clip-path="url(#clip190)" d="M1559.56 1457.17 Q1555.95 1457.17 1554.12 1460.74 Q1552.32 1464.28 1552.32 1471.41 Q1552.32 1478.51 1554.12 1482.08 Q1555.95 1485.62 1559.56 1485.62 Q1563.2 1485.62 1565 1482.08 Q1566.83 1478.51 1566.83 1471.41 Q1566.83 1464.28 1565 1460.74 Q1563.2 1457.17 1559.56 1457.17 M1559.56 1453.47 Q1565.37 1453.47 1568.43 1458.07 Q1571.51 1462.66 1571.51 1471.41 Q1571.51 1480.13 1568.43 1484.74 Q1565.37 1489.32 1559.56 1489.32 Q1553.75 1489.32 1550.67 1484.74 Q1547.62 1480.13 1547.62 1471.41 Q1547.62 1462.66 1550.67 1458.07 Q1553.75 1453.47 1559.56 1453.47 Z" fill="#000000" fill-rule="evenodd" fill-opacity="1" /><path clip-path="url(#clip190)" d="M688.493 1517.42 L728.692 1517.42 L728.692 1522.83 L711.823 1522.83 L711.823 1564.94 L705.362 1564.94 L705.362 1522.83 L688.493 1522.83 L688.493 1517.42 Z" fill="#000000" fill-rule="evenodd" fill-opacity="1" /><path clip-path="url(#clip190)" d="M732.639 1529.29 L738.495 1529.29 L738.495 1564.94 L732.639 1564.94 L732.639 1529.29 M732.639 1515.41 L738.495 1515.41 L738.495 1522.83 L732.639 1522.83 L732.639 1515.41 Z" fill="#000000" fill-rule="evenodd" fill-opacity="1" /><path clip-path="url(#clip190)" d="M778.504 1536.13 Q780.7 1532.18 783.756 1530.31 Q786.811 1528.43 790.949 1528.43 Q796.519 1528.43 799.543 1532.34 Q802.566 1536.23 802.566 1543.42 L802.566 1564.94 L796.678 1564.94 L796.678 1543.61 Q796.678 1538.49 794.864 1536 Q793.049 1533.52 789.326 1533.52 Q784.774 1533.52 782.132 1536.54 Q779.491 1539.57 779.491 1544.79 L779.491 1564.94 L773.602 1564.94 L773.602 1543.61 Q773.602 1538.45 771.788 1536 Q769.974 1533.52 766.186 1533.52 Q761.698 1533.52 759.057 1536.58 Q756.415 1539.6 756.415 1544.79 L756.415 1564.94 L750.527 1564.94 L750.527 1529.29 L756.415 1529.29 L756.415 1534.83 Q758.42 1531.55 761.221 1529.99 Q764.022 1528.43 767.873 1528.43 Q771.756 1528.43 774.462 1530.4 Q777.199 1532.37 778.504 1536.13 Z" fill="#000000" fill-rule="evenodd" fill-opacity="1" /><path clip-path="url(#clip190)" d="M844.739 1545.65 L844.739 1548.51 L817.812 1548.51 Q818.194 1554.56 821.441 1557.74 Q824.719 1560.89 830.544 1560.89 Q833.917 1560.89 837.068 1560.07 Q840.251 1559.24 843.37 1557.58 L843.37 1563.12 Q840.219 1564.46 836.909 1565.16 Q833.599 1565.86 830.193 1565.86 Q821.663 1565.86 816.666 1560.89 Q811.701 1555.93 811.701 1547.46 Q811.701 1538.71 816.412 1533.58 Q821.154 1528.43 829.175 1528.43 Q836.368 1528.43 840.538 1533.07 Q844.739 1537.69 844.739 1545.65 M838.883 1543.93 Q838.819 1539.12 836.177 1536.26 Q833.567 1533.39 829.239 1533.39 Q824.337 1533.39 821.377 1536.16 Q818.449 1538.93 818.003 1543.96 L838.883 1543.93 Z" fill="#000000" fill-rule="evenodd" fill-opacity="1" /><polyline clip-path="url(#clip192)" style="stroke:#000000; stroke-linecap:butt; stroke-linejoin:round; stroke-width:2; stroke-opacity:0.1; fill:none" points="
  1568.73,1423.18 210.746,1346.4 
  "/>
<polyline clip-path="url(#clip192)" style="stroke:#000000; stroke-linecap:butt; stroke-linejoin:round; stroke-width:2; stroke-opacity:0.1; fill:none" points="
  210.746,1346.4 210.746,353.805 
  "/>
<polyline clip-path="url(#clip192)" style="stroke:#000000; stroke-linecap:butt; stroke-linejoin:round; stroke-width:2; stroke-opacity:0.1; fill:none" points="
  1764.73,1365.6 406.753,1288.82 
  "/>
<polyline clip-path="url(#clip192)" style="stroke:#000000; stroke-linecap:butt; stroke-linejoin:round; stroke-width:2; stroke-opacity:0.1; fill:none" points="
  406.753,1288.82 406.753,296.222 
  "/>
<polyline clip-path="url(#clip192)" style="stroke:#000000; stroke-linecap:butt; stroke-linejoin:round; stroke-width:2; stroke-opacity:0.1; fill:none" points="
  1960.74,1308.01 602.761,1231.24 
  "/>
<polyline clip-path="url(#clip192)" style="stroke:#000000; stroke-linecap:butt; stroke-linejoin:round; stroke-width:2; stroke-opacity:0.1; fill:none" points="
  602.761,1231.24 602.761,238.639 
  "/>
<polyline clip-path="url(#clip192)" style="stroke:#000000; stroke-linecap:butt; stroke-linejoin:round; stroke-width:2; stroke-opacity:0.1; fill:none" points="
  2156.75,1250.43 798.768,1173.65 
  "/>
<polyline clip-path="url(#clip192)" style="stroke:#000000; stroke-linecap:butt; stroke-linejoin:round; stroke-width:2; stroke-opacity:0.1; fill:none" points="
  798.768,1173.65 798.768,181.055 
  "/>
<polyline clip-path="url(#clip192)" style="stroke:#000000; stroke-linecap:butt; stroke-linejoin:round; stroke-width:2; stroke-opacity:0.1; fill:none" points="
  2352.76,1192.85 994.776,1116.07 
  "/>
<polyline clip-path="url(#clip192)" style="stroke:#000000; stroke-linecap:butt; stroke-linejoin:round; stroke-width:2; stroke-opacity:0.1; fill:none" points="
  994.776,1116.07 994.776,123.472 
  "/>
<polyline clip-path="url(#clip190)" style="stroke:#000000; stroke-linecap:butt; stroke-linejoin:round; stroke-width:4; stroke-opacity:1; fill:none" points="
  1568.73,1423.18 2352.76,1192.85 
  "/>
<polyline clip-path="url(#clip190)" style="stroke:#000000; stroke-linecap:butt; stroke-linejoin:round; stroke-width:4; stroke-opacity:1; fill:none" points="
  1568.73,1423.18 1552.43,1422.26 
  "/>
<polyline clip-path="url(#clip190)" style="stroke:#000000; stroke-linecap:butt; stroke-linejoin:round; stroke-width:4; stroke-opacity:1; fill:none" points="
  1764.73,1365.6 1748.44,1364.68 
  "/>
<polyline clip-path="url(#clip190)" style="stroke:#000000; stroke-linecap:butt; stroke-linejoin:round; stroke-width:4; stroke-opacity:1; fill:none" points="
  1960.74,1308.01 1944.45,1307.09 
  "/>
<polyline clip-path="url(#clip190)" style="stroke:#000000; stroke-linecap:butt; stroke-linejoin:round; stroke-width:4; stroke-opacity:1; fill:none" points="
  2156.75,1250.43 2140.45,1249.51 
  "/>
<polyline clip-path="url(#clip190)" style="stroke:#000000; stroke-linecap:butt; stroke-linejoin:round; stroke-width:4; stroke-opacity:1; fill:none" points="
  2352.76,1192.85 2336.46,1191.93 
  "/>
<path clip-path="url(#clip190)" d="M1562.67 1471.82 L1592.34 1471.82 L1592.34 1475.76 L1562.67 1475.76 L1562.67 1471.82 Z" fill="#000000" fill-rule="evenodd" fill-opacity="1" /><path clip-path="url(#clip190)" d="M1606.46 1484.72 L1622.78 1484.72 L1622.78 1488.65 L1600.84 1488.65 L1600.84 1484.72 Q1603.5 1481.96 1608.08 1477.33 Q1612.69 1472.68 1613.87 1471.34 Q1616.12 1468.81 1617 1467.08 Q1617.9 1465.32 1617.9 1463.63 Q1617.9 1460.87 1615.95 1459.14 Q1614.03 1457.4 1610.93 1457.4 Q1608.73 1457.4 1606.28 1458.17 Q1603.85 1458.93 1601.07 1460.48 L1601.07 1455.76 Q1603.89 1454.62 1606.35 1454.05 Q1608.8 1453.47 1610.84 1453.47 Q1616.21 1453.47 1619.4 1456.15 Q1622.6 1458.84 1622.6 1463.33 Q1622.6 1465.46 1621.79 1467.38 Q1621 1469.28 1618.89 1471.87 Q1618.32 1472.54 1615.21 1475.76 Q1612.11 1478.95 1606.46 1484.72 Z" fill="#000000" fill-rule="evenodd" fill-opacity="1" /><path clip-path="url(#clip190)" d="M1758.49 1414.24 L1788.17 1414.24 L1788.17 1418.18 L1758.49 1418.18 L1758.49 1414.24 Z" fill="#000000" fill-rule="evenodd" fill-opacity="1" /><path clip-path="url(#clip190)" d="M1799.07 1427.13 L1806.71 1427.13 L1806.71 1400.77 L1798.4 1402.43 L1798.4 1398.18 L1806.66 1396.51 L1811.34 1396.51 L1811.34 1427.13 L1818.98 1427.13 L1818.98 1431.07 L1799.07 1431.07 L1799.07 1427.13 Z" fill="#000000" fill-rule="evenodd" fill-opacity="1" /><path clip-path="url(#clip190)" d="M1984.74 1342 Q1981.13 1342 1979.3 1345.57 Q1977.5 1349.11 1977.5 1356.24 Q1977.5 1363.35 1979.3 1366.91 Q1981.13 1370.45 1984.74 1370.45 Q1988.38 1370.45 1990.18 1366.91 Q1992.01 1363.35 1992.01 1356.24 Q1992.01 1349.11 1990.18 1345.57 Q1988.38 1342 1984.74 1342 M1984.74 1338.3 Q1990.55 1338.3 1993.61 1342.91 Q1996.69 1347.49 1996.69 1356.24 Q1996.69 1364.97 1993.61 1369.57 Q1990.55 1374.16 1984.74 1374.16 Q1978.93 1374.16 1975.85 1369.57 Q1972.8 1364.97 1972.8 1356.24 Q1972.8 1347.49 1975.85 1342.91 Q1978.93 1338.3 1984.74 1338.3 Z" fill="#000000" fill-rule="evenodd" fill-opacity="1" /><path clip-path="url(#clip190)" d="M2171.13 1311.97 L2178.77 1311.97 L2178.77 1285.6 L2170.46 1287.27 L2170.46 1283.01 L2178.72 1281.34 L2183.4 1281.34 L2183.4 1311.97 L2191.04 1311.97 L2191.04 1315.9 L2171.13 1315.9 L2171.13 1311.97 Z" fill="#000000" fill-rule="evenodd" fill-opacity="1" /><path clip-path="url(#clip190)" d="M2371.41 1254.38 L2387.73 1254.38 L2387.73 1258.32 L2365.78 1258.32 L2365.78 1254.38 Q2368.45 1251.63 2373.03 1247 Q2377.64 1242.35 2378.82 1241 Q2381.06 1238.48 2381.94 1236.74 Q2382.84 1234.99 2382.84 1233.3 Q2382.84 1230.54 2380.9 1228.81 Q2378.98 1227.07 2375.88 1227.07 Q2373.68 1227.07 2371.22 1227.83 Q2368.79 1228.6 2366.02 1230.15 L2366.02 1225.43 Q2368.84 1224.29 2371.29 1223.71 Q2373.75 1223.13 2375.78 1223.13 Q2381.15 1223.13 2384.35 1225.82 Q2387.54 1228.5 2387.54 1232.99 Q2387.54 1235.12 2386.73 1237.05 Q2385.95 1238.94 2383.84 1241.54 Q2383.26 1242.21 2380.16 1245.43 Q2377.06 1248.62 2371.41 1254.38 Z" fill="#000000" fill-rule="evenodd" fill-opacity="1" /><path clip-path="url(#clip190)" d="M1991.94 1465.88 Q1994.01 1466.58 1995.95 1468.87 Q1997.92 1471.16 1999.9 1475.17 L2006.42 1488.16 L1999.52 1488.16 L1993.44 1475.97 Q1991.08 1471.19 1988.85 1469.63 Q1986.66 1468.07 1982.84 1468.07 L1975.83 1468.07 L1975.83 1488.16 L1969.41 1488.16 L1969.41 1440.64 L1983.92 1440.64 Q1992.07 1440.64 1996.08 1444.04 Q2000.09 1447.45 2000.09 1454.32 Q2000.09 1458.81 1997.99 1461.77 Q1995.92 1464.73 1991.94 1465.88 M1975.83 1445.92 L1975.83 1462.79 L1983.92 1462.79 Q1988.57 1462.79 1990.92 1460.66 Q1993.31 1458.49 1993.31 1454.32 Q1993.31 1450.15 1990.92 1448.05 Q1988.57 1445.92 1983.92 1445.92 L1975.83 1445.92 Z" fill="#000000" fill-rule="evenodd" fill-opacity="1" /><path clip-path="url(#clip190)" d="M2042.01 1468.87 L2042.01 1471.73 L2015.08 1471.73 Q2015.46 1477.78 2018.71 1480.96 Q2021.99 1484.12 2027.81 1484.12 Q2031.18 1484.12 2034.34 1483.29 Q2037.52 1482.46 2040.64 1480.8 L2040.64 1486.34 Q2037.49 1487.68 2034.18 1488.38 Q2030.87 1489.08 2027.46 1489.08 Q2018.93 1489.08 2013.93 1484.12 Q2008.97 1479.15 2008.97 1470.68 Q2008.97 1461.93 2013.68 1456.81 Q2018.42 1451.65 2026.44 1451.65 Q2033.64 1451.65 2037.8 1456.3 Q2042.01 1460.91 2042.01 1468.87 M2036.15 1467.15 Q2036.09 1462.34 2033.44 1459.48 Q2030.83 1456.62 2026.51 1456.62 Q2021.6 1456.62 2018.64 1459.38 Q2015.72 1462.15 2015.27 1467.18 L2036.15 1467.15 Z" fill="#000000" fill-rule="evenodd" fill-opacity="1" /><path clip-path="url(#clip190)" d="M2078 1482.81 L2078 1501.72 L2072.12 1501.72 L2072.12 1452.51 L2078 1452.51 L2078 1457.92 Q2079.85 1454.74 2082.65 1453.21 Q2085.48 1451.65 2089.4 1451.65 Q2095.89 1451.65 2099.93 1456.81 Q2104.01 1461.96 2104.01 1470.37 Q2104.01 1478.77 2099.93 1483.92 Q2095.89 1489.08 2089.4 1489.08 Q2085.48 1489.08 2082.65 1487.55 Q2079.85 1485.99 2078 1482.81 M2097.93 1470.37 Q2097.93 1463.9 2095.26 1460.24 Q2092.61 1456.55 2087.97 1456.55 Q2083.32 1456.55 2080.65 1460.24 Q2078 1463.9 2078 1470.37 Q2078 1476.83 2080.65 1480.52 Q2083.32 1484.18 2087.97 1484.18 Q2092.61 1484.18 2095.26 1480.52 Q2097.93 1476.83 2097.93 1470.37 Z" fill="#000000" fill-rule="evenodd" fill-opacity="1" /><path clip-path="url(#clip190)" d="M2129.92 1470.24 Q2122.82 1470.24 2120.08 1471.86 Q2117.34 1473.48 2117.34 1477.4 Q2117.34 1480.52 2119.38 1482.36 Q2121.45 1484.18 2124.98 1484.18 Q2129.85 1484.18 2132.78 1480.74 Q2135.74 1477.27 2135.74 1471.54 L2135.74 1470.24 L2129.92 1470.24 M2141.6 1467.82 L2141.6 1488.16 L2135.74 1488.16 L2135.74 1482.75 Q2133.74 1485.99 2130.74 1487.55 Q2127.75 1489.08 2123.42 1489.08 Q2117.95 1489.08 2114.7 1486.02 Q2111.49 1482.94 2111.49 1477.78 Q2111.49 1471.77 2115.5 1468.71 Q2119.54 1465.65 2127.53 1465.65 L2135.74 1465.65 L2135.74 1465.08 Q2135.74 1461.04 2133.07 1458.84 Q2130.43 1456.62 2125.62 1456.62 Q2122.56 1456.62 2119.67 1457.35 Q2116.77 1458.08 2114.1 1459.54 L2114.1 1454.13 Q2117.31 1452.89 2120.34 1452.29 Q2123.36 1451.65 2126.22 1451.65 Q2133.96 1451.65 2137.78 1455.66 Q2141.6 1459.67 2141.6 1467.82 Z" fill="#000000" fill-rule="evenodd" fill-opacity="1" /><path clip-path="url(#clip190)" d="M2174.32 1457.98 Q2173.33 1457.41 2172.15 1457.16 Q2171.01 1456.87 2169.61 1456.87 Q2164.64 1456.87 2161.97 1460.12 Q2159.33 1463.33 2159.33 1469.38 L2159.33 1488.16 L2153.44 1488.16 L2153.44 1452.51 L2159.33 1452.51 L2159.33 1458.05 Q2161.17 1454.8 2164.13 1453.24 Q2167.09 1451.65 2171.33 1451.65 Q2171.93 1451.65 2172.66 1451.75 Q2173.39 1451.81 2174.29 1451.97 L2174.32 1457.98 Z" fill="#000000" fill-rule="evenodd" fill-opacity="1" /><path clip-path="url(#clip190)" d="M2186.25 1442.39 L2186.25 1452.51 L2198.32 1452.51 L2198.32 1457.06 L2186.25 1457.06 L2186.25 1476.41 Q2186.25 1480.77 2187.43 1482.01 Q2188.64 1483.26 2192.3 1483.26 L2198.32 1483.26 L2198.32 1488.16 L2192.3 1488.16 Q2185.52 1488.16 2182.94 1485.64 Q2180.36 1483.1 2180.36 1476.41 L2180.36 1457.06 L2176.07 1457.06 L2176.07 1452.51 L2180.36 1452.51 L2180.36 1442.39 L2186.25 1442.39 Z" fill="#000000" fill-rule="evenodd" fill-opacity="1" /><polyline clip-path="url(#clip192)" style="stroke:#000000; stroke-linecap:butt; stroke-linejoin:round; stroke-width:2; stroke-opacity:0.1; fill:none" points="
  210.746,1346.4 994.776,1116.07 
  "/>
<polyline clip-path="url(#clip192)" style="stroke:#000000; stroke-linecap:butt; stroke-linejoin:round; stroke-width:2; stroke-opacity:0.1; fill:none" points="
  994.776,1116.07 2352.76,1192.85 
  "/>
<polyline clip-path="url(#clip192)" style="stroke:#000000; stroke-linecap:butt; stroke-linejoin:round; stroke-width:2; stroke-opacity:0.1; fill:none" points="
  210.746,1098.25 994.776,867.92 
  "/>
<polyline clip-path="url(#clip192)" style="stroke:#000000; stroke-linecap:butt; stroke-linejoin:round; stroke-width:2; stroke-opacity:0.1; fill:none" points="
  994.776,867.92 2352.76,944.698 
  "/>
<polyline clip-path="url(#clip192)" style="stroke:#000000; stroke-linecap:butt; stroke-linejoin:round; stroke-width:2; stroke-opacity:0.1; fill:none" points="
  210.746,850.104 994.776,619.771 
  "/>
<polyline clip-path="url(#clip192)" style="stroke:#000000; stroke-linecap:butt; stroke-linejoin:round; stroke-width:2; stroke-opacity:0.1; fill:none" points="
  994.776,619.771 2352.76,696.548 
  "/>
<polyline clip-path="url(#clip192)" style="stroke:#000000; stroke-linecap:butt; stroke-linejoin:round; stroke-width:2; stroke-opacity:0.1; fill:none" points="
  210.746,601.954 994.776,371.621 
  "/>
<polyline clip-path="url(#clip192)" style="stroke:#000000; stroke-linecap:butt; stroke-linejoin:round; stroke-width:2; stroke-opacity:0.1; fill:none" points="
  994.776,371.621 2352.76,448.399 
  "/>
<polyline clip-path="url(#clip192)" style="stroke:#000000; stroke-linecap:butt; stroke-linejoin:round; stroke-width:2; stroke-opacity:0.1; fill:none" points="
  210.746,353.805 994.776,123.472 
  "/>
<polyline clip-path="url(#clip192)" style="stroke:#000000; stroke-linecap:butt; stroke-linejoin:round; stroke-width:2; stroke-opacity:0.1; fill:none" points="
  994.776,123.472 2352.76,200.25 
  "/>
<polyline clip-path="url(#clip190)" style="stroke:#000000; stroke-linecap:butt; stroke-linejoin:round; stroke-width:4; stroke-opacity:1; fill:none" points="
  210.746,1346.4 210.746,353.805 
  "/>
<polyline clip-path="url(#clip190)" style="stroke:#000000; stroke-linecap:butt; stroke-linejoin:round; stroke-width:4; stroke-opacity:1; fill:none" points="
  210.746,1346.4 220.154,1343.64 
  "/>
<polyline clip-path="url(#clip190)" style="stroke:#000000; stroke-linecap:butt; stroke-linejoin:round; stroke-width:4; stroke-opacity:1; fill:none" points="
  210.746,1098.25 220.154,1095.49 
  "/>
<polyline clip-path="url(#clip190)" style="stroke:#000000; stroke-linecap:butt; stroke-linejoin:round; stroke-width:4; stroke-opacity:1; fill:none" points="
  210.746,850.104 220.154,847.34 
  "/>
<polyline clip-path="url(#clip190)" style="stroke:#000000; stroke-linecap:butt; stroke-linejoin:round; stroke-width:4; stroke-opacity:1; fill:none" points="
  210.746,601.954 220.154,599.19 
  "/>
<polyline clip-path="url(#clip190)" style="stroke:#000000; stroke-linecap:butt; stroke-linejoin:round; stroke-width:4; stroke-opacity:1; fill:none" points="
  210.746,353.805 220.154,351.041 
  "/>
<path clip-path="url(#clip190)" d="M126.631 1346.85 L156.306 1346.85 L156.306 1350.79 L126.631 1350.79 L126.631 1346.85 Z" fill="#000000" fill-rule="evenodd" fill-opacity="1" /><path clip-path="url(#clip190)" d="M170.427 1359.75 L186.746 1359.75 L186.746 1363.68 L164.802 1363.68 L164.802 1359.75 Q167.464 1356.99 172.047 1352.36 Q176.653 1347.71 177.834 1346.37 Q180.079 1343.84 180.959 1342.11 Q181.862 1340.35 181.862 1338.66 Q181.862 1335.9 179.917 1334.17 Q177.996 1332.43 174.894 1332.43 Q172.695 1332.43 170.241 1333.2 Q167.811 1333.96 165.033 1335.51 L165.033 1330.79 Q167.857 1329.65 170.311 1329.08 Q172.765 1328.5 174.802 1328.5 Q180.172 1328.5 183.366 1331.18 Q186.561 1333.87 186.561 1338.36 Q186.561 1340.49 185.751 1342.41 Q184.964 1344.31 182.857 1346.9 Q182.278 1347.57 179.177 1350.79 Q176.075 1353.98 170.427 1359.75 Z" fill="#000000" fill-rule="evenodd" fill-opacity="1" /><path clip-path="url(#clip190)" d="M126.26 1098.7 L155.936 1098.7 L155.936 1102.64 L126.26 1102.64 L126.26 1098.7 Z" fill="#000000" fill-rule="evenodd" fill-opacity="1" /><path clip-path="url(#clip190)" d="M166.839 1111.6 L174.477 1111.6 L174.477 1085.23 L166.167 1086.9 L166.167 1082.64 L174.431 1080.97 L179.107 1080.97 L179.107 1111.6 L186.746 1111.6 L186.746 1115.53 L166.839 1115.53 L166.839 1111.6 Z" fill="#000000" fill-rule="evenodd" fill-opacity="1" /><path clip-path="url(#clip190)" d="M174.802 835.902 Q171.19 835.902 169.362 839.467 Q167.556 843.009 167.556 850.138 Q167.556 857.245 169.362 860.81 Q171.19 864.351 174.802 864.351 Q178.436 864.351 180.241 860.81 Q182.07 857.245 182.07 850.138 Q182.07 843.009 180.241 839.467 Q178.436 835.902 174.802 835.902 M174.802 832.199 Q180.612 832.199 183.667 836.805 Q186.746 841.388 186.746 850.138 Q186.746 858.865 183.667 863.472 Q180.612 868.055 174.802 868.055 Q168.991 868.055 165.913 863.472 Q162.857 858.865 162.857 850.138 Q162.857 841.388 165.913 836.805 Q168.991 832.199 174.802 832.199 Z" fill="#000000" fill-rule="evenodd" fill-opacity="1" /><path clip-path="url(#clip190)" d="M166.839 615.299 L174.477 615.299 L174.477 588.934 L166.167 590.6 L166.167 586.341 L174.431 584.674 L179.107 584.674 L179.107 615.299 L186.746 615.299 L186.746 619.234 L166.839 619.234 L166.839 615.299 Z" fill="#000000" fill-rule="evenodd" fill-opacity="1" /><path clip-path="url(#clip190)" d="M170.427 367.15 L186.746 367.15 L186.746 371.085 L164.802 371.085 L164.802 367.15 Q167.464 364.395 172.047 359.766 Q176.653 355.113 177.834 353.77 Q180.079 351.247 180.959 349.511 Q181.862 347.752 181.862 346.062 Q181.862 343.307 179.917 341.571 Q177.996 339.835 174.894 339.835 Q172.695 339.835 170.241 340.599 Q167.811 341.363 165.033 342.914 L165.033 338.192 Q167.857 337.057 170.311 336.479 Q172.765 335.9 174.802 335.9 Q180.172 335.9 183.366 338.585 Q186.561 341.27 186.561 345.761 Q186.561 347.891 185.751 349.812 Q184.964 351.71 182.857 354.303 Q182.278 354.974 179.177 358.192 Q176.075 361.386 170.427 367.15 Z" fill="#000000" fill-rule="evenodd" fill-opacity="1" /><path clip-path="url(#clip190)" d="M16.4842 964.686 L16.4842 958.257 L64.0042 958.257 L64.0042 964.686 L16.4842 964.686 Z" fill="#000000" fill-rule="evenodd" fill-opacity="1" /><path clip-path="url(#clip190)" d="M35.1993 917.962 Q31.2526 915.766 29.3747 912.71 Q27.4968 909.655 27.4968 905.517 Q27.4968 899.947 31.4117 896.923 Q35.2948 893.9 42.4881 893.9 L64.0042 893.9 L64.0042 899.788 L42.679 899.788 Q37.5546 899.788 35.072 901.602 Q32.5894 903.416 32.5894 907.14 Q32.5894 911.692 35.6131 914.334 Q38.6368 916.975 43.8567 916.975 L64.0042 916.975 L64.0042 922.864 L42.679 922.864 Q37.5228 922.864 35.072 924.678 Q32.5894 926.492 32.5894 930.28 Q32.5894 934.768 35.6449 937.409 Q38.6686 940.051 43.8567 940.051 L64.0042 940.051 L64.0042 945.939 L28.3562 945.939 L28.3562 940.051 L33.8944 940.051 Q30.616 938.046 29.0564 935.245 Q27.4968 932.444 27.4968 928.593 Q27.4968 924.71 29.4702 922.004 Q31.4436 919.267 35.1993 917.962 Z" fill="#000000" fill-rule="evenodd" fill-opacity="1" /><path clip-path="url(#clip190)" d="M58.657 855.833 L77.5631 855.833 L77.5631 861.721 L28.3562 861.721 L28.3562 855.833 L33.7671 855.833 Q30.5842 853.987 29.0564 851.186 Q27.4968 848.353 27.4968 844.438 Q27.4968 837.945 32.6531 833.903 Q37.8093 829.829 46.212 829.829 Q54.6147 829.829 59.771 833.903 Q64.9272 837.945 64.9272 844.438 Q64.9272 848.353 63.3994 851.186 Q61.8398 853.987 58.657 855.833 M46.212 835.908 Q39.7508 835.908 36.0905 838.582 Q32.3984 841.223 32.3984 845.87 Q32.3984 850.517 36.0905 853.191 Q39.7508 855.833 46.212 855.833 Q52.6732 855.833 56.3653 853.191 Q60.0256 850.517 60.0256 845.87 Q60.0256 841.223 56.3653 838.582 Q52.6732 835.908 46.212 835.908 Z" fill="#000000" fill-rule="evenodd" fill-opacity="1" /><path clip-path="url(#clip190)" d="M46.0847 803.92 Q46.0847 811.018 47.7079 813.755 Q49.3312 816.493 53.2461 816.493 Q56.3653 816.493 58.2114 814.456 Q60.0256 812.387 60.0256 808.854 Q60.0256 803.984 56.5881 801.056 Q53.1188 798.096 47.3897 798.096 L46.0847 798.096 L46.0847 803.92 M43.6657 792.239 L64.0042 792.239 L64.0042 798.096 L58.5933 798.096 Q61.8398 800.101 63.3994 803.093 Q64.9272 806.085 64.9272 810.413 Q64.9272 815.888 61.8716 819.134 Q58.7843 822.349 53.6281 822.349 Q47.6125 822.349 44.5569 818.339 Q41.5014 814.297 41.5014 806.308 L41.5014 798.096 L40.9285 798.096 Q36.8862 798.096 34.6901 800.769 Q32.4621 803.411 32.4621 808.217 Q32.4621 811.273 33.1941 814.169 Q33.9262 817.066 35.3903 819.739 L29.9795 819.739 Q28.7381 816.525 28.1334 813.501 Q27.4968 810.477 27.4968 807.613 Q27.4968 799.878 31.5072 796.059 Q35.5176 792.239 43.6657 792.239 Z" fill="#000000" fill-rule="evenodd" fill-opacity="1" /><path clip-path="url(#clip190)" d="M33.8307 759.52 Q33.2578 760.506 33.0032 761.684 Q32.7167 762.83 32.7167 764.23 Q32.7167 769.196 35.9632 771.869 Q39.1779 774.511 45.2253 774.511 L64.0042 774.511 L64.0042 780.399 L28.3562 780.399 L28.3562 774.511 L33.8944 774.511 Q30.6479 772.665 29.0883 769.705 Q27.4968 766.745 27.4968 762.512 Q27.4968 761.907 27.5923 761.175 Q27.656 760.443 27.8151 759.551 L33.8307 759.52 Z" fill="#000000" fill-rule="evenodd" fill-opacity="1" /><path clip-path="url(#clip190)" d="M18.2347 747.584 L28.3562 747.584 L28.3562 735.521 L32.9077 735.521 L32.9077 747.584 L52.2594 747.584 Q56.6199 747.584 57.8613 746.406 Q59.1026 745.197 59.1026 741.537 L59.1026 735.521 L64.0042 735.521 L64.0042 741.537 Q64.0042 748.316 61.4897 750.894 Q58.9434 753.472 52.2594 753.472 L32.9077 753.472 L32.9077 757.769 L28.3562 757.769 L28.3562 753.472 L18.2347 753.472 L18.2347 747.584 Z" fill="#000000" fill-rule="evenodd" fill-opacity="1" /><path clip-path="url(#clip190)" d="M902.85 49.7694 Q893.816 49.7694 890.332 51.8354 Q886.849 53.9013 886.849 58.8839 Q886.849 62.8538 889.441 65.2034 Q892.074 67.5124 896.571 67.5124 Q902.769 67.5124 906.495 63.1374 Q910.263 58.7219 910.263 51.4303 L910.263 49.7694 L902.85 49.7694 M917.716 46.6907 L917.716 72.576 L910.263 72.576 L910.263 65.6895 Q907.711 69.8214 903.903 71.8063 Q900.095 73.7508 894.586 73.7508 Q887.618 73.7508 883.486 69.8619 Q879.395 65.9325 879.395 59.3701 Q879.395 51.7138 884.499 47.825 Q889.644 43.9361 899.811 43.9361 L910.263 43.9361 L910.263 43.2069 Q910.263 38.0623 906.86 35.2672 Q903.498 32.4315 897.381 32.4315 Q893.492 32.4315 889.806 33.3632 Q886.119 34.295 882.717 36.1584 L882.717 29.2718 Q886.808 27.692 890.656 26.9223 Q894.505 26.1121 898.151 26.1121 Q907.994 26.1121 912.855 31.2163 Q917.716 36.3204 917.716 46.6907 Z" fill="#000000" fill-rule="evenodd" fill-opacity="1" /><path clip-path="url(#clip190)" d="M960.413 34.9026 L1012.35 34.9026 L1012.35 41.7081 L960.413 41.7081 L960.413 34.9026 M960.413 51.4303 L1012.35 51.4303 L1012.35 58.3168 L960.413 58.3168 L960.413 51.4303 Z" fill="#000000" fill-rule="evenodd" fill-opacity="1" /><path clip-path="url(#clip190)" d="M1051.56 46.5287 L1073.39 46.5287 L1073.39 53.1722 L1051.56 53.1722 L1051.56 46.5287 Z" fill="#000000" fill-rule="evenodd" fill-opacity="1" /><path clip-path="url(#clip190)" d="M1103.81 17.4837 Q1097.5 17.4837 1094.3 23.7221 Q1091.14 29.92 1091.14 42.3968 Q1091.14 54.833 1094.3 61.0714 Q1097.5 67.2693 1103.81 67.2693 Q1110.17 67.2693 1113.33 61.0714 Q1116.53 54.833 1116.53 42.3968 Q1116.53 29.92 1113.33 23.7221 Q1110.17 17.4837 1103.81 17.4837 M1103.81 11.0023 Q1113.98 11.0023 1119.33 19.0636 Q1124.72 27.0843 1124.72 42.3968 Q1124.72 57.6687 1119.33 65.73 Q1113.98 73.7508 1103.81 73.7508 Q1093.65 73.7508 1088.26 65.73 Q1082.91 57.6687 1082.91 42.3968 Q1082.91 27.0843 1088.26 19.0636 Q1093.65 11.0023 1103.81 11.0023 Z" fill="#000000" fill-rule="evenodd" fill-opacity="1" /><path clip-path="url(#clip190)" d="M1139.1 62.2867 L1147.65 62.2867 L1147.65 72.576 L1139.1 72.576 L1139.1 62.2867 Z" fill="#000000" fill-rule="evenodd" fill-opacity="1" /><path clip-path="url(#clip190)" d="M1182.97 17.4837 Q1176.65 17.4837 1173.45 23.7221 Q1170.29 29.92 1170.29 42.3968 Q1170.29 54.833 1173.45 61.0714 Q1176.65 67.2693 1182.97 67.2693 Q1189.33 67.2693 1192.49 61.0714 Q1195.69 54.833 1195.69 42.3968 Q1195.69 29.92 1192.49 23.7221 Q1189.33 17.4837 1182.97 17.4837 M1182.97 11.0023 Q1193.14 11.0023 1198.48 19.0636 Q1203.87 27.0843 1203.87 42.3968 Q1203.87 57.6687 1198.48 65.73 Q1193.14 73.7508 1182.97 73.7508 Q1172.8 73.7508 1167.41 65.73 Q1162.07 57.6687 1162.07 42.3968 Q1162.07 27.0843 1167.41 19.0636 Q1172.8 11.0023 1182.97 11.0023 Z" fill="#000000" fill-rule="evenodd" fill-opacity="1" /><path clip-path="url(#clip190)" d="M1216.19 12.096 L1255.08 12.096 L1255.08 15.5798 L1233.12 72.576 L1224.57 72.576 L1245.23 18.9825 L1216.19 18.9825 L1216.19 12.096 Z" fill="#000000" fill-rule="evenodd" fill-opacity="1" /><path clip-path="url(#clip190)" d="M1271.89 62.2867 L1280.43 62.2867 L1280.43 69.2543 L1273.79 82.2172 L1268.57 82.2172 L1271.89 69.2543 L1271.89 62.2867 Z" fill="#000000" fill-rule="evenodd" fill-opacity="1" /><path clip-path="url(#clip190)" d="M1337.19 73.7508 Q1320.38 73.7508 1320.38 49.6884 Q1320.38 40.1688 1326.66 27.2059 L1334.68 27.2059 Q1328.88 40.1688 1328.88 49.8909 Q1328.88 67.4314 1337.88 67.4314 Q1346.1 67.4314 1346.1 45.6375 L1352.99 45.6375 Q1352.99 67.4314 1361.21 67.4314 Q1370.2 67.4314 1370.2 49.8909 Q1370.2 40.1688 1364.41 27.2059 L1372.43 27.2059 Q1378.71 40.1688 1378.71 49.6884 Q1378.71 73.7508 1361.9 73.7508 Q1350.88 73.7508 1349.54 61.6386 Q1347.88 73.7508 1337.19 73.7508 Z" fill="#000000" fill-rule="evenodd" fill-opacity="1" /><path clip-path="url(#clip190)" d="M1419.54 34.9026 L1471.48 34.9026 L1471.48 41.7081 L1419.54 41.7081 L1419.54 34.9026 M1419.54 51.4303 L1471.48 51.4303 L1471.48 58.3168 L1419.54 58.3168 L1419.54 51.4303 Z" fill="#000000" fill-rule="evenodd" fill-opacity="1" /><path clip-path="url(#clip190)" d="M1533.01 17.4837 Q1526.69 17.4837 1523.49 23.7221 Q1520.33 29.92 1520.33 42.3968 Q1520.33 54.833 1523.49 61.0714 Q1526.69 67.2693 1533.01 67.2693 Q1539.37 67.2693 1542.53 61.0714 Q1545.73 54.833 1545.73 42.3968 Q1545.73 29.92 1542.53 23.7221 Q1539.37 17.4837 1533.01 17.4837 M1533.01 11.0023 Q1543.18 11.0023 1548.52 19.0636 Q1553.91 27.0843 1553.91 42.3968 Q1553.91 57.6687 1548.52 65.73 Q1543.18 73.7508 1533.01 73.7508 Q1522.84 73.7508 1517.45 65.73 Q1512.11 57.6687 1512.11 42.3968 Q1512.11 27.0843 1517.45 19.0636 Q1522.84 11.0023 1533.01 11.0023 Z" fill="#000000" fill-rule="evenodd" fill-opacity="1" /><path clip-path="url(#clip190)" d="M1568.29 62.2867 L1576.84 62.2867 L1576.84 72.576 L1568.29 72.576 L1568.29 62.2867 Z" fill="#000000" fill-rule="evenodd" fill-opacity="1" /><path clip-path="url(#clip190)" d="M1592.6 12.096 L1631.49 12.096 L1631.49 15.5798 L1609.53 72.576 L1600.98 72.576 L1621.64 18.9825 L1592.6 18.9825 L1592.6 12.096 Z" fill="#000000" fill-rule="evenodd" fill-opacity="1" /><path clip-path="url(#clip190)" d="M1647.53 12.096 L1679.65 12.096 L1679.65 18.9825 L1655.02 18.9825 L1655.02 33.8088 Q1656.8 33.2012 1658.59 32.9176 Q1660.37 32.5936 1662.15 32.5936 Q1672.28 32.5936 1678.19 38.1433 Q1684.11 43.6931 1684.11 53.1722 Q1684.11 62.9348 1678.03 68.3631 Q1671.95 73.7508 1660.9 73.7508 Q1657.09 73.7508 1653.12 73.1026 Q1649.19 72.4545 1644.98 71.1582 L1644.98 62.9348 Q1648.62 64.9198 1652.51 65.892 Q1656.4 66.8642 1660.73 66.8642 Q1667.74 66.8642 1671.83 63.1779 Q1675.92 59.4916 1675.92 53.1722 Q1675.92 46.8528 1671.83 43.1664 Q1667.74 39.4801 1660.73 39.4801 Q1657.45 39.4801 1654.17 40.2093 Q1650.93 40.9384 1647.53 42.4778 L1647.53 12.096 Z" fill="#000000" fill-rule="evenodd" fill-opacity="1" /><polyline clip-path="url(#clip192)" style="stroke:#009af9; stroke-linecap:butt; stroke-linejoin:round; stroke-width:8; stroke-opacity:1; fill:none" points="
  798.768,677.354 800.212,668.435 801.385,659.673 802.29,651.081 802.93,642.67 803.311,634.45 803.437,626.431 803.312,618.625 802.942,611.041 802.332,603.687 
  801.488,596.574 800.416,589.71 799.122,583.102 797.613,576.76 795.896,570.689 793.977,564.897 791.865,559.391 789.566,554.176 787.089,549.258 784.442,544.642 
  781.632,540.333 778.668,536.334 775.559,532.65 772.313,529.284 768.939,526.238 765.446,523.515 761.843,521.116 758.138,519.043 754.342,517.297 750.463,515.878 
  746.511,514.786 742.495,514.02 738.424,513.58 734.308,513.463 730.156,513.669 725.978,514.194 721.782,515.036 717.579,516.191 713.377,517.657 709.186,519.428 
  705.014,521.501 700.871,523.871 696.765,526.531 692.706,529.478 688.701,532.704 684.761,536.203 680.892,539.969 677.103,543.995 673.402,548.273 669.797,552.795 
  666.296,557.554 662.905,562.542 659.633,567.75 656.487,573.168 653.472,578.789 650.597,584.604 647.866,590.601 645.287,596.773 642.864,603.109 640.604,609.599 
  638.512,616.233 636.593,623.001 634.851,629.892 633.292,636.897 631.918,644.004 630.735,651.203 629.745,658.484 628.952,665.834 628.359,673.245 627.968,680.705 
  627.782,688.202 627.803,695.728 628.033,703.27 628.473,710.819 629.124,718.363 629.987,725.892 631.063,733.396 632.351,740.865 633.852,748.287 635.565,755.654 
  637.49,762.956 639.626,770.182 641.97,777.323 644.523,784.37 647.281,791.314 650.243,798.145 653.407,804.855 656.769,811.436 660.326,817.878 664.076,824.175 
  668.015,830.319 672.14,836.301 676.446,842.115 680.929,847.754 685.585,853.211 690.41,858.481 695.398,863.556 700.544,868.432 705.844,873.103 711.291,877.564 
  716.881,881.81 722.608,885.837 728.465,889.641 734.447,893.219 740.548,896.566 746.761,899.681 753.08,902.56 759.499,905.201 766.01,907.603 772.608,909.763 
  779.285,911.681 786.035,913.355 792.851,914.786 799.726,915.973 806.652,916.916 813.624,917.616 820.633,918.073 827.674,918.29 834.739,918.267 841.82,918.006 
  848.912,917.51 856.007,916.781 863.098,915.822 870.179,914.636 877.242,913.227 884.281,911.598 891.29,909.753 898.262,907.697 905.19,905.434 912.068,902.97 
  918.891,900.308 925.651,897.455 932.343,894.416 938.962,891.197 945.501,887.803 951.955,884.242 958.319,880.519 964.587,876.641 970.755,872.616 976.817,868.449 
  982.769,864.147 988.607,859.719 994.326,855.171 999.922,850.512 1005.39,845.747 1010.73,840.886 1015.94,835.936 1021.01,830.904 1025.93,825.799 1030.72,820.629 
  1035.36,815.401 1039.85,810.124 1044.2,804.805 1048.39,799.453 1052.42,794.075 1056.31,788.681 1060.03,783.276 1063.6,777.87 1067.02,772.471 1070.27,767.085 
  1073.36,761.721 1076.3,756.387 1079.08,751.09 1081.7,745.838 1084.16,740.637 1086.46,735.495 1088.61,730.419 1090.61,725.416 1092.45,720.493 1094.14,715.657 
  1095.68,710.913 1097.08,706.268 1098.33,701.728 1099.43,697.3 1100.4,692.988 1101.23,688.798 1101.93,684.736 1102.49,680.807 1102.93,677.014 1103.24,673.364 
  1103.43,669.86 1103.51,666.507 1103.47,663.308 1103.33,660.267 1103.08,657.387 1102.72,654.672 1102.28,652.125 1101.74,649.747 1101.12,647.542 1100.41,645.511 
  1099.63,643.657 1098.77,641.981 1097.85,640.484 1096.86,639.167 1095.82,638.032 1094.72,637.078 1093.58,636.306 1092.4,635.716 1091.18,635.307 1089.92,635.08 
  1088.65,635.033 1087.35,635.166 1086.03,635.476 1084.71,635.964 1083.37,636.626 1082.04,637.461 1080.71,638.467 1079.4,639.641 1078.09,640.98 1076.81,642.482 
  1075.55,644.144 1074.33,645.962 1073.13,647.933 1071.98,650.054 1070.86,652.319 1069.8,654.726 1068.79,657.27 1067.83,659.946 1066.94,662.75 1066.11,665.678 
  1065.35,668.725 1064.67,671.885 1064.06,675.153 1063.53,678.525 1063.08,681.994 1062.72,685.557 1062.45,689.206 1062.27,692.937 1062.19,696.743 1062.2,700.619 
  1062.32,704.56 1062.54,708.559 1062.86,712.61 1063.29,716.708 1063.84,720.846 1064.49,725.019 1065.25,729.22 1066.13,733.444 1067.12,737.685 1068.23,741.936 
  1069.46,746.192 1070.8,750.446 1072.26,754.694 1073.84,758.929 1075.54,763.146 1077.35,767.338 1079.29,771.5 1081.34,775.627 1083.51,779.714 1085.79,783.754 
  1088.19,787.743 1090.71,791.676 1093.34,795.547 1096.08,799.351 1098.93,803.085 1101.9,806.743 1104.97,810.321 1108.14,813.814 1111.42,817.219 1114.8,820.531 
  1118.28,823.746 1121.85,826.861 1125.52,829.873 1129.29,832.777 1133.14,835.57 1137.07,838.25 1141.09,840.815 1145.19,843.26 1149.37,845.583 1153.62,847.784 
  1157.93,849.858 1162.32,851.805 1166.77,853.623 1171.28,855.31 1175.84,856.865 1180.46,858.287 1185.13,859.575 1189.84,860.728 1194.59,861.745 1199.38,862.628 
  1204.21,863.374 1209.06,863.985 1213.94,864.46 1218.84,864.801 1223.76,865.007 1228.7,865.08 1233.64,865.02 1238.59,864.83 1243.54,864.509 1248.5,864.06 
  1253.44,863.484 1258.38,862.784 1263.31,861.961 1268.21,861.017 1273.1,859.956 1277.97,858.778 1282.81,857.488 1287.62,856.088 1292.39,854.58 1297.13,852.969 
  1301.83,851.256 1306.48,849.446 1311.09,847.542 1315.65,845.547 1320.15,843.465 1324.6,841.299 1328.99,839.055 1333.32,836.735 1337.59,834.343 1341.79,831.884 
  1345.93,829.362 1349.99,826.781 1353.99,824.144 1357.9,821.458 1361.75,818.725 1365.51,815.95 1369.2,813.138 1372.8,810.294 1376.33,807.42 1379.77,804.523 
  1383.12,801.606 1386.39,798.674 1389.58,795.731 1392.68,792.783 1395.69,789.832 1398.61,786.884 1401.45,783.943 1404.19,781.013 1406.85,778.098 1409.42,775.203 
  1411.9,772.333 1414.3,769.49 1416.61,766.679 1418.83,763.903 1420.96,761.168 1423.01,758.476 1424.98,755.832 1426.86,753.238 1428.66,750.699 1430.38,748.217 
  1432.02,745.797 1433.58,743.441 1435.06,741.152 1436.47,738.934 1437.81,736.788 1439.07,734.719 1440.27,732.728 1441.39,730.817 1442.46,728.991 1443.45,727.249 
  1444.39,725.595 1445.27,724.03 1446.09,722.557 1446.86,721.176 1447.58,719.89 1448.25,718.699 1448.87,717.605 1449.45,716.609 1449.99,715.712 1450.49,714.915 
  1450.96,714.217 1451.39,713.621 1451.79,713.125 1452.17,712.73 1452.52,712.437 1452.85,712.245 1453.17,712.154 1453.46,712.163 1453.75,712.272 1454.03,712.48 
  1454.29,712.787 1454.56,713.191 1454.83,713.692 1455.09,714.288 1455.36,714.978 1455.64,715.76 1455.93,716.633 1456.24,717.595 1456.56,718.645 1456.89,719.78 
  1457.25,720.999 1457.64,722.299 1458.04,723.678 1458.48,725.133 1458.95,726.663 1459.45,728.265 1459.99,729.936 1460.56,731.674 1461.18,733.475 1461.84,735.338 
  1462.54,737.258 1463.28,739.234 1464.08,741.261 1464.92,743.338 1465.82,745.461 1466.77,747.626 1467.77,749.832 1468.83,752.073 1469.95,754.348 1471.12,756.653 
  1472.35,758.984 1473.65,761.338 1475,763.712 1476.42,766.103 1477.9,768.508 1479.45,770.922 1481.06,773.343 1482.73,775.767 1484.47,778.191 1486.27,780.612 
  1488.14,783.027 1490.08,785.432 1492.08,787.824 1494.15,790.201 1496.28,792.558 1498.48,794.893 1500.75,797.204 1503.07,799.486 1505.47,801.738 1507.92,803.956 
  1510.44,806.138 1513.02,808.28 1515.66,810.382 1518.36,812.439 1521.12,814.449 1523.94,816.411 1526.81,818.322 1529.74,820.179 1532.73,821.981 1535.76,823.726 
  1538.85,825.412 1541.99,827.036 1545.17,828.598 1548.41,830.095 1551.68,831.527 1555,832.891 1558.37,834.187 1561.77,835.413 1565.2,836.569 1568.68,837.652 
  1572.19,838.664 1575.73,839.602 1579.29,840.465 1582.89,841.255 1586.51,841.97 1590.16,842.609 1593.83,843.173 1597.51,843.661 1601.21,844.074 1604.93,844.412 
  1608.66,844.675 1612.4,844.863 1616.15,844.976 1619.91,845.016 1623.67,844.982 1627.43,844.876 1631.19,844.699 1634.95,844.45 1638.7,844.133 1642.45,843.746 
  1646.19,843.293 1649.92,842.773 1653.64,842.189 1657.34,841.541 1661.02,840.832 1664.69,840.064 1668.34,839.236 1671.96,838.352 1675.56,837.414 1679.14,836.423 
  1682.68,835.38 1686.2,834.289 1689.69,833.152 1693.15,831.969 1696.57,830.744 1699.96,829.479 1703.31,828.176 1706.63,826.837 1709.9,825.465 1713.14,824.062 
  1716.33,822.63 1719.49,821.172 1722.6,819.69 1725.66,818.187 1728.68,816.665 1731.66,815.126 1734.59,813.574 1737.47,812.011 1740.31,810.438 1743.1,808.859 
  1745.84,807.276 1748.53,805.691 1751.17,804.108 1753.77,802.527 1756.31,800.953 1758.81,799.386 1761.26,797.83 1763.65,796.287 1766,794.759 1768.3,793.248 
  
  "/>
<polyline clip-path="url(#clip192)" style="stroke:#e26f46; stroke-linecap:butt; stroke-linejoin:round; stroke-width:8; stroke-opacity:1; fill:none" points="
  798.768,1049.58 800.212,1049.95 801.385,1050.4 802.29,1050.93 802.93,1051.53 803.311,1052.22 803.437,1052.97 803.312,1053.8 802.942,1054.71 802.332,1055.68 
  801.488,1056.72 800.416,1057.83 799.122,1059.01 797.613,1060.25 795.896,1061.54 793.977,1062.9 791.865,1064.32 789.566,1065.79 787.089,1067.31 784.442,1068.88 
  781.632,1070.5 778.668,1072.17 775.559,1073.87 772.313,1075.62 768.939,1077.41 765.446,1079.23 761.843,1081.08 758.138,1082.96 754.342,1084.87 750.463,1086.81 
  746.511,1088.76 742.495,1090.74 738.424,1092.73 734.308,1094.73 730.156,1096.75 725.978,1098.77 721.782,1100.8 717.579,1102.82 713.377,1104.85 709.186,1106.88 
  705.014,1108.9 700.871,1110.91 696.765,1112.91 692.706,1114.9 688.701,1116.87 684.761,1118.82 680.892,1120.75 677.103,1122.66 673.402,1124.54 669.797,1126.4 
  666.296,1128.22 662.905,1130.01 659.633,1131.77 656.487,1133.48 653.472,1135.16 650.597,1136.8 647.866,1138.4 645.287,1139.95 642.864,1141.46 640.604,1142.92 
  638.512,1144.33 636.593,1145.68 634.851,1146.99 633.292,1148.24 631.918,1149.44 630.735,1150.58 629.745,1151.67 628.952,1152.7 628.359,1153.66 627.968,1154.57 
  627.782,1155.42 627.803,1156.21 628.033,1156.94 628.473,1157.6 629.124,1158.21 629.987,1158.75 631.063,1159.23 632.351,1159.64 633.852,1160 635.565,1160.29 
  637.49,1160.52 639.626,1160.68 641.97,1160.79 644.523,1160.83 647.281,1160.82 650.243,1160.74 653.407,1160.61 656.769,1160.41 660.326,1160.16 664.076,1159.86 
  668.015,1159.49 672.14,1159.08 676.446,1158.6 680.929,1158.08 685.585,1157.51 690.41,1156.89 695.398,1156.21 700.544,1155.5 705.844,1154.74 711.291,1153.93 
  716.881,1153.08 722.608,1152.19 728.465,1151.27 734.447,1150.3 740.548,1149.31 746.761,1148.28 753.08,1147.21 759.499,1146.12 766.01,1145 772.608,1143.86 
  779.285,1142.69 786.035,1141.5 792.851,1140.3 799.726,1139.07 806.652,1137.83 813.624,1136.58 820.633,1135.31 827.674,1134.04 834.739,1132.76 841.82,1131.47 
  848.912,1130.18 856.007,1128.89 863.098,1127.6 870.179,1126.32 877.242,1125.04 884.281,1123.76 891.29,1122.5 898.262,1121.25 905.19,1120 912.068,1118.78 
  918.891,1117.57 925.651,1116.38 932.343,1115.21 938.962,1114.06 945.501,1112.93 951.955,1111.83 958.319,1110.75 964.587,1109.71 970.755,1108.69 976.817,1107.7 
  982.769,1106.75 988.607,1105.83 994.326,1104.94 999.922,1104.09 1005.39,1103.28 1010.73,1102.5 1015.94,1101.77 1021.01,1101.08 1025.93,1100.42 1030.72,1099.81 
  1035.36,1099.24 1039.85,1098.72 1044.2,1098.23 1048.39,1097.8 1052.42,1097.41 1056.31,1097.06 1060.03,1096.76 1063.6,1096.51 1067.02,1096.3 1070.27,1096.14 
  1073.36,1096.02 1076.3,1095.95 1079.08,1095.93 1081.7,1095.96 1084.16,1096.03 1086.46,1096.15 1088.61,1096.31 1090.61,1096.52 1092.45,1096.77 1094.14,1097.07 
  1095.68,1097.41 1097.08,1097.79 1098.33,1098.22 1099.43,1098.69 1100.4,1099.2 1101.23,1099.75 1101.93,1100.34 1102.49,1100.97 1102.93,1101.64 1103.24,1102.34 
  1103.43,1103.08 1103.51,1103.85 1103.47,1104.65 1103.33,1105.49 1103.08,1106.36 1102.72,1107.26 1102.28,1108.18 1101.74,1109.14 1101.12,1110.11 1100.41,1111.12 
  1099.63,1112.14 1098.77,1113.19 1097.85,1114.25 1096.86,1115.34 1095.82,1116.44 1094.72,1117.55 1093.58,1118.68 1092.4,1119.82 1091.18,1120.98 1089.92,1122.14 
  1088.65,1123.31 1087.35,1124.49 1086.03,1125.67 1084.71,1126.85 1083.37,1128.04 1082.04,1129.22 1080.71,1130.41 1079.4,1131.59 1078.09,1132.77 1076.81,1133.94 
  1075.55,1135.1 1074.33,1136.26 1073.13,1137.4 1071.98,1138.54 1070.86,1139.66 1069.8,1140.76 1068.79,1141.86 1067.83,1142.93 1066.94,1143.99 1066.11,1145.03 
  1065.35,1146.04 1064.67,1147.04 1064.06,1148.01 1063.53,1148.96 1063.08,1149.89 1062.72,1150.79 1062.45,1151.66 1062.27,1152.51 1062.19,1153.33 1062.2,1154.12 
  1062.32,1154.88 1062.54,1155.61 1062.86,1156.31 1063.29,1156.98 1063.84,1157.61 1064.49,1158.21 1065.25,1158.78 1066.13,1159.32 1067.12,1159.82 1068.23,1160.29 
  1069.46,1160.73 1070.8,1161.13 1072.26,1161.49 1073.84,1161.82 1075.54,1162.12 1077.35,1162.38 1079.29,1162.61 1081.34,1162.8 1083.51,1162.95 1085.79,1163.08 
  1088.19,1163.17 1090.71,1163.22 1093.34,1163.24 1096.08,1163.23 1098.93,1163.19 1101.9,1163.11 1104.97,1163.01 1108.14,1162.87 1111.42,1162.7 1114.8,1162.5 
  1118.28,1162.27 1121.85,1162.02 1125.52,1161.73 1129.29,1161.42 1133.14,1161.09 1137.07,1160.72 1141.09,1160.34 1145.19,1159.93 1149.37,1159.5 1153.62,1159.04 
  1157.93,1158.57 1162.32,1158.07 1166.77,1157.56 1171.28,1157.03 1175.84,1156.48 1180.46,1155.92 1185.13,1155.34 1189.84,1154.76 1194.59,1154.15 1199.38,1153.54 
  1204.21,1152.92 1209.06,1152.29 1213.94,1151.65 1218.84,1151 1223.76,1150.35 1228.7,1149.7 1233.64,1149.04 1238.59,1148.38 1243.54,1147.72 1248.5,1147.06 
  1253.44,1146.4 1258.38,1145.74 1263.31,1145.09 1268.21,1144.44 1273.1,1143.8 1277.97,1143.16 1282.81,1142.54 1287.62,1141.92 1292.39,1141.31 1297.13,1140.71 
  1301.83,1140.13 1306.48,1139.56 1311.09,1139 1315.65,1138.45 1320.15,1137.92 1324.6,1137.41 1328.99,1136.91 1333.32,1136.44 1337.59,1135.98 1341.79,1135.54 
  1345.93,1135.12 1349.99,1134.72 1353.99,1134.34 1357.9,1133.98 1361.75,1133.65 1365.51,1133.34 1369.2,1133.05 1372.8,1132.78 1376.33,1132.54 1379.77,1132.33 
  1383.12,1132.13 1386.39,1131.97 1389.58,1131.83 1392.68,1131.71 1395.69,1131.62 1398.61,1131.56 1401.45,1131.52 1404.19,1131.51 1406.85,1131.52 1409.42,1131.56 
  1411.9,1131.62 1414.3,1131.71 1416.61,1131.83 1418.83,1131.97 1420.96,1132.14 1423.01,1132.33 1424.98,1132.55 1426.86,1132.79 1428.66,1133.06 1430.38,1133.35 
  1432.02,1133.66 1433.58,1134 1435.06,1134.35 1436.47,1134.74 1437.81,1135.14 1439.07,1135.56 1440.27,1136 1441.39,1136.47 1442.46,1136.95 1443.45,1137.45 
  1444.39,1137.97 1445.27,1138.51 1446.09,1139.06 1446.86,1139.63 1447.58,1140.21 1448.25,1140.81 1448.87,1141.42 1449.45,1142.04 1449.99,1142.68 1450.49,1143.33 
  1450.96,1143.99 1451.39,1144.65 1451.79,1145.33 1452.17,1146.01 1452.52,1146.7 1452.85,1147.4 1453.17,1148.1 1453.46,1148.81 1453.75,1149.52 1454.03,1150.23 
  1454.29,1150.95 1454.56,1151.67 1454.83,1152.38 1455.09,1153.1 1455.36,1153.81 1455.64,1154.52 1455.93,1155.23 1456.24,1155.94 1456.56,1156.64 1456.89,1157.34 
  1457.25,1158.02 1457.64,1158.71 1458.04,1159.38 1458.48,1160.05 1458.95,1160.7 1459.45,1161.35 1459.99,1161.99 1460.56,1162.61 1461.18,1163.23 1461.84,1163.83 
  1462.54,1164.42 1463.28,1164.99 1464.08,1165.55 1464.92,1166.1 1465.82,1166.63 1466.77,1167.15 1467.77,1167.65 1468.83,1168.13 1469.95,1168.6 1471.12,1169.05 
  1472.35,1169.48 1473.65,1169.89 1475,1170.29 1476.42,1170.67 1477.9,1171.03 1479.45,1171.37 1481.06,1171.69 1482.73,1171.99 1484.47,1172.27 1486.27,1172.54 
  1488.14,1172.78 1490.08,1173.01 1492.08,1173.22 1494.15,1173.4 1496.28,1173.57 1498.48,1173.72 1500.75,1173.85 1503.07,1173.96 1505.47,1174.05 1507.92,1174.12 
  1510.44,1174.18 1513.02,1174.21 1515.66,1174.23 1518.36,1174.23 1521.12,1174.22 1523.94,1174.18 1526.81,1174.13 1529.74,1174.07 1532.73,1173.99 1535.76,1173.89 
  1538.85,1173.78 1541.99,1173.65 1545.17,1173.51 1548.41,1173.35 1551.68,1173.18 1555,1173 1558.37,1172.81 1561.77,1172.61 1565.2,1172.39 1568.68,1172.16 
  1572.19,1171.93 1575.73,1171.68 1579.29,1171.43 1582.89,1171.17 1586.51,1170.9 1590.16,1170.62 1593.83,1170.34 1597.51,1170.05 1601.21,1169.76 1604.93,1169.46 
  1608.66,1169.16 1612.4,1168.85 1616.15,1168.54 1619.91,1168.24 1623.67,1167.93 1627.43,1167.61 1631.19,1167.3 1634.95,1166.99 1638.7,1166.69 1642.45,1166.38 
  1646.19,1166.08 1649.92,1165.77 1653.64,1165.48 1657.34,1165.18 1661.02,1164.9 1664.69,1164.61 1668.34,1164.34 1671.96,1164.07 1675.56,1163.8 1679.14,1163.55 
  1682.68,1163.3 1686.2,1163.06 1689.69,1162.83 1693.15,1162.61 1696.57,1162.4 1699.96,1162.2 1703.31,1162.01 1706.63,1161.83 1709.9,1161.66 1713.14,1161.5 
  1716.33,1161.36 1719.49,1161.23 1722.6,1161.11 1725.66,1161 1728.68,1160.91 1731.66,1160.83 1734.59,1160.76 1737.47,1160.71 1740.31,1160.67 1743.1,1160.65 
  1745.84,1160.63 1748.53,1160.64 1751.17,1160.66 1753.77,1160.69 1756.31,1160.74 1758.81,1160.8 1761.26,1160.87 1763.65,1160.96 1766,1161.07 1768.3,1161.19 
  
  "/>
<polyline clip-path="url(#clip192)" style="stroke:#3da44d; stroke-linecap:butt; stroke-linejoin:round; stroke-width:8; stroke-opacity:1; fill:none" points="
  994.776,619.771 997.044,610.609 999.312,601.526 1001.58,592.534 1003.85,583.644 1006.12,574.87 1008.38,566.222 1010.65,557.713 1012.92,549.354 1015.19,541.155 
  1017.45,533.127 1019.72,525.282 1021.99,517.628 1024.26,510.176 1026.53,502.934 1028.79,495.913 1031.06,489.12 1033.33,482.563 1035.6,476.251 1037.86,470.191 
  1040.13,464.39 1042.4,458.855 1044.67,453.591 1046.94,448.605 1049.2,443.902 1051.47,439.486 1053.74,435.363 1056.01,431.535 1058.28,428.007 1060.54,424.783 
  1062.81,421.863 1065.08,419.251 1067.35,416.949 1069.61,414.957 1071.88,413.276 1074.15,411.907 1076.42,410.851 1078.69,410.105 1080.95,409.67 1083.22,409.544 
  1085.49,409.725 1087.76,410.211 1090.03,410.999 1092.29,412.087 1094.56,413.47 1096.83,415.145 1099.1,417.109 1101.36,419.355 1103.63,421.879 1105.9,424.677 
  1108.17,427.741 1110.44,431.066 1112.7,434.646 1114.97,438.475 1117.24,442.544 1119.51,446.847 1121.77,451.376 1124.04,456.123 1126.31,461.081 1128.58,466.241 
  1130.85,471.595 1133.11,477.132 1135.38,482.846 1137.65,488.726 1139.92,494.764 1142.19,500.949 1144.45,507.272 1146.72,513.724 1148.99,520.294 1151.26,526.972 
  1153.52,533.749 1155.79,540.615 1158.06,547.558 1160.33,554.57 1162.6,561.639 1164.86,568.756 1167.13,575.909 1169.4,583.09 1171.67,590.288 1173.94,597.492 
  1176.2,604.692 1178.47,611.88 1180.74,619.043 1183.01,626.174 1185.27,633.262 1187.54,640.297 1189.81,647.27 1192.08,654.172 1194.35,660.994 1196.61,667.726 
  1198.88,674.36 1201.15,680.888 1203.42,687.301 1205.68,693.591 1207.95,699.75 1210.22,705.77 1212.49,711.645 1214.76,717.366 1217.02,722.928 1219.29,728.323 
  1221.56,733.545 1223.83,738.588 1226.1,743.447 1228.36,748.116 1230.63,752.589 1232.9,756.863 1235.17,760.932 1237.43,764.793 1239.7,768.441 1241.97,771.873 
  1244.24,775.086 1246.51,778.078 1248.77,780.845 1251.04,783.385 1253.31,785.696 1255.58,787.778 1257.84,789.629 1260.11,791.247 1262.38,792.634 1264.65,793.787 
  1266.92,794.708 1269.18,795.397 1271.45,795.855 1273.72,796.083 1275.99,796.083 1278.26,795.856 1280.52,795.404 1282.79,794.73 1285.06,793.836 1287.33,792.726 
  1289.59,791.402 1291.86,789.869 1294.13,788.13 1296.4,786.189 1298.67,784.05 1300.93,781.719 1303.2,779.199 1305.47,776.497 1307.74,773.617 1310.01,770.564 
  1312.27,767.345 1314.54,763.966 1316.81,760.432 1319.08,756.75 1321.34,752.927 1323.61,748.968 1325.88,744.88 1328.15,740.672 1330.42,736.348 1332.68,731.918 
  1334.95,727.387 1337.22,722.763 1339.49,718.054 1341.75,713.267 1344.02,708.41 1346.29,703.489 1348.56,698.513 1350.83,693.49 1353.09,688.426 1355.36,683.33 
  1357.63,678.21 1359.9,673.072 1362.17,667.925 1364.43,662.775 1366.7,657.631 1368.97,652.501 1371.24,647.39 1373.5,642.307 1375.77,637.259 1378.04,632.253 
  1380.31,627.296 1382.58,622.394 1384.84,617.556 1387.11,612.786 1389.38,608.092 1391.65,603.48 1393.92,598.956 1396.18,594.526 1398.45,590.196 1400.72,585.971 
  1402.99,581.857 1405.25,577.86 1407.52,573.984 1409.79,570.234 1412.06,566.614 1414.33,563.13 1416.59,559.785 1418.86,556.583 1421.13,553.528 1423.4,550.624 
  1425.66,547.873 1427.93,545.279 1430.2,542.845 1432.47,540.573 1434.74,538.464 1437,536.523 1439.27,534.749 1441.54,533.145 1443.81,531.711 1446.08,530.45 
  1448.34,529.361 1450.61,528.446 1452.88,527.704 1455.15,527.135 1457.41,526.74 1459.68,526.517 1461.95,526.467 1464.22,526.588 1466.49,526.878 1468.75,527.337 
  1471.02,527.963 1473.29,528.754 1475.56,529.708 1477.82,530.823 1480.09,532.096 1482.36,533.524 1484.63,535.104 1486.9,536.834 1489.16,538.709 1491.43,540.728 
  1493.7,542.885 1495.97,545.176 1498.24,547.599 1500.5,550.149 1502.77,552.821 1505.04,555.611 1507.31,558.515 1509.57,561.527 1511.84,564.643 1514.11,567.857 
  1516.38,571.166 1518.65,574.563 1520.91,578.043 1523.18,581.602 1525.45,585.233 1527.72,588.931 1529.99,592.69 1532.25,596.506 1534.52,600.372 1536.79,604.283 
  1539.06,608.232 1541.32,612.215 1543.59,616.226 1545.86,620.259 1548.13,624.308 1550.4,628.367 1552.66,632.431 1554.93,636.495 1557.2,640.552 1559.47,644.598 
  1561.73,648.626 1564,652.631 1566.27,656.609 1568.54,660.553 1570.81,664.458 1573.07,668.32 1575.34,672.134 1577.61,675.893 1579.88,679.595 1582.15,683.234 
  1584.41,686.805 1586.68,690.304 1588.95,693.727 1591.22,697.07 1593.48,700.329 1595.75,703.499 1598.02,706.578 1600.29,709.561 1602.56,712.445 1604.82,715.227 
  1607.09,717.905 1609.36,720.474 1611.63,722.933 1613.9,725.278 1616.16,727.508 1618.43,729.62 1620.7,731.613 1622.97,733.484 1625.23,735.231 1627.5,736.855 
  1629.77,738.352 1632.04,739.723 1634.31,740.965 1636.57,742.08 1638.84,743.065 1641.11,743.921 1643.38,744.648 1645.64,745.245 1647.91,745.713 1650.18,746.053 
  1652.45,746.264 1654.72,746.348 1656.98,746.306 1659.25,746.138 1661.52,745.847 1663.79,745.433 1666.06,744.898 1668.32,744.244 1670.59,743.473 1672.86,742.587 
  1675.13,741.588 1677.39,740.479 1679.66,739.262 1681.93,737.939 1684.2,736.515 1686.47,734.991 1688.73,733.37 1691,731.656 1693.27,729.852 1695.54,727.961 
  1697.81,725.987 1700.07,723.934 1702.34,721.804 1704.61,719.603 1706.88,717.332 1709.14,714.998 1711.41,712.602 1713.68,710.15 1715.95,707.646 1718.22,705.093 
  1720.48,702.496 1722.75,699.859 1725.02,697.185 1727.29,694.48 1729.55,691.748 1731.82,688.993 1734.09,686.218 1736.36,683.429 1738.63,680.629 1740.89,677.823 
  1743.16,675.016 1745.43,672.21 1747.7,669.411 1749.97,666.622 1752.23,663.847 1754.5,661.091 1756.77,658.358 1759.04,655.651 1761.3,652.974 1763.57,650.331 
  1765.84,647.726 1768.11,645.162 1770.38,642.643 1772.64,640.172 1774.91,637.753 1777.18,635.389 1779.45,633.083 1781.71,630.837 1783.98,628.656 1786.25,626.542 
  1788.52,624.497 1790.79,622.525 1793.05,620.627 1795.32,618.806 1797.59,617.064 1799.86,615.404 1802.13,613.827 1804.39,612.335 1806.66,610.929 1808.93,609.613 
  1811.2,608.386 1813.46,607.25 1815.73,606.207 1818,605.256 1820.27,604.4 1822.54,603.639 1824.8,602.974 1827.07,602.404 1829.34,601.931 1831.61,601.554 
  1833.88,601.274 1836.14,601.09 1838.41,601.002 1840.68,601.01 1842.95,601.114 1845.21,601.312 1847.48,601.604 1849.75,601.989 1852.02,602.466 1854.29,603.034 
  1856.55,603.692 1858.82,604.438 1861.09,605.271 1863.36,606.189 1865.62,607.19 1867.89,608.273 1870.16,609.435 1872.43,610.676 1874.7,611.992 1876.96,613.381 
  1879.23,614.841 1881.5,616.37 1883.77,617.965 1886.04,619.624 1888.3,621.343 1890.57,623.121 1892.84,624.955 1895.11,626.841 1897.37,628.777 1899.64,630.761 
  1901.91,632.788 1904.18,634.856 1906.45,636.963 1908.71,639.104 1910.98,641.277 1913.25,643.479 1915.52,645.706 1917.79,647.956 1920.05,650.225 1922.32,652.51 
  1924.59,654.808 1926.86,657.115 1929.12,659.43 1931.39,661.747 1933.66,664.065 1935.93,666.38 1938.2,668.689 1940.46,670.989 1942.73,673.277 1945,675.551 
  1947.27,677.806 1949.53,680.04 1951.8,682.251 1954.07,684.436 1956.34,686.591 1958.61,688.714 1960.87,690.803 1963.14,692.855 1965.41,694.867 1967.68,696.838 
  1969.95,698.764 1972.21,700.644 1974.48,702.476 1976.75,704.257 1979.02,705.985 1981.28,707.658 1983.55,709.275 1985.82,710.834 1988.09,712.334 1990.36,713.772 
  1992.62,715.147 1994.89,716.459 1997.16,717.705 1999.43,718.885 2001.69,719.997 2003.96,721.041 2006.23,722.016 2008.5,722.921 2010.77,723.756 2013.03,724.52 
  2015.3,725.212 2017.57,725.833 2019.84,726.381 2022.11,726.858 2024.37,727.263 2026.64,727.596 2028.91,727.857 2031.18,728.047 2033.44,728.166 2035.71,728.214 
  2037.98,728.193 2040.25,728.102 2042.52,727.944 2044.78,727.718 2047.05,727.425 2049.32,727.067 2051.59,726.645 2053.86,726.159 2056.12,725.612 2058.39,725.005 
  2060.66,724.339 2062.93,723.615 2065.19,722.836 2067.46,722.003 2069.73,721.117 2072,720.181 2074.27,719.197 2076.53,718.165 2078.8,717.089 2081.07,715.97 
  2083.34,714.811 2085.6,713.613 2087.87,712.379 2090.14,711.11 2092.41,709.81 2094.68,708.479 2096.94,707.122 2099.21,705.739 2101.48,704.333 2103.75,702.907 
  2106.02,701.463 2108.28,700.003 2110.55,698.53 2112.82,697.045 2115.09,695.552 2117.35,694.052 2119.62,692.549 2121.89,691.044 2124.16,689.539 2126.43,688.038 
  
  "/>
<polyline clip-path="url(#clip192)" style="stroke:#000000; stroke-linecap:butt; stroke-linejoin:round; stroke-width:8; stroke-opacity:1; fill:none" points="
  2156.75,754.132 2155.92,745.084 2154.83,736.195 2153.47,727.474 2151.84,718.935 2149.95,710.586 2147.81,702.44 2145.42,694.505 2142.78,686.793 2139.9,679.311 
  2136.79,672.07 2133.45,665.077 2129.89,658.341 2126.11,651.87 2122.13,645.671 2117.94,639.752 2113.56,634.117 2108.99,628.774 2104.25,623.728 2099.33,618.983 
  2094.26,614.546 2089.02,610.419 2083.65,606.607 2078.13,603.113 2072.49,599.939 2066.73,597.087 2060.86,594.56 2054.89,592.359 2048.82,590.485 2042.68,588.937 
  2036.46,587.717 2030.17,586.823 2023.83,586.254 2017.45,586.01 2011.03,586.087 2004.58,586.484 1998.12,587.198 1991.65,588.225 1985.18,589.562 1978.72,591.205 
  1972.28,593.15 1965.87,595.391 1959.5,597.924 1953.17,600.742 1946.9,603.84 1940.69,607.211 1934.55,610.849 1928.49,614.746 1922.53,618.896 1916.65,623.29 
  1910.88,627.921 1905.23,632.781 1899.69,637.86 1894.27,643.151 1888.99,648.643 1883.85,654.329 1878.85,660.199 1874,666.242 1869.31,672.449 1864.78,678.811 
  1860.42,685.317 1856.23,691.957 1852.23,698.72 1848.4,705.597 1844.76,712.576 1841.31,719.647 1838.05,726.799 1834.99,734.021 1832.13,741.304 1829.47,748.635 
  1827.01,756.005 1824.77,763.402 1822.73,770.816 1820.9,778.236 1819.28,785.652 1817.88,793.053 1816.69,800.429 1815.71,807.769 1814.94,815.064 1814.39,822.303 
  1814.04,829.476 1813.91,836.574 1813.99,843.587 1814.27,850.506 1814.76,857.321 1815.46,864.024 1816.35,870.606 1817.45,877.058 1818.74,883.373 1820.22,889.541 
  1821.89,895.556 1823.75,901.411 1825.79,907.097 1828,912.607 1830.39,917.936 1832.95,923.078 1835.67,928.025 1838.54,932.772 1841.58,937.315 1844.76,941.648 
  1848.08,945.766 1851.54,949.664 1855.13,953.34 1858.84,956.79 1862.67,960.009 1866.62,962.995 1870.67,965.746 1874.82,968.259 1879.06,970.533 1883.39,972.565 
  1887.8,974.354 1892.29,975.9 1896.83,977.203 1901.44,978.261 1906.1,979.076 1910.8,979.648 1915.54,979.977 1920.32,980.066 1925.11,979.914 1929.93,979.525 
  1934.75,978.901 1939.58,978.044 1944.4,976.957 1949.21,975.643 1954.01,974.105 1958.78,972.348 1963.52,970.375 1968.23,968.191 1972.89,965.8 1977.5,963.207 
  1982.05,960.417 1986.54,957.436 1990.97,954.268 1995.32,950.921 1999.59,947.4 2003.78,943.71 2007.87,939.859 2011.87,935.853 2015.77,931.699 2019.57,927.404 
  2023.25,922.974 2026.82,918.418 2030.27,913.742 2033.6,908.954 2036.8,904.061 2039.88,899.072 2042.81,893.993 2045.61,888.834 2048.27,883.6 2050.79,878.302 
  2053.17,872.946 2055.39,867.54 2057.46,862.093 2059.39,856.613 2061.16,851.107 2062.77,845.584 2064.23,840.052 2065.53,834.517 2066.68,828.99 2067.66,823.476 
  2068.49,817.984 2069.16,812.522 2069.67,807.096 2070.02,801.715 2070.21,796.386 2070.25,791.116 2070.13,785.912 2069.86,780.781 2069.44,775.73 2068.86,770.765 
  2068.13,765.893 2067.26,761.12 2066.24,756.452 2065.08,751.895 2063.78,747.455 2062.34,743.138 2060.77,738.947 2059.06,734.889 2057.23,730.969 2055.28,727.191 
  2053.2,723.558 2051.01,720.077 2048.71,716.75 2046.29,713.58 2043.77,710.573 2041.16,707.729 2038.44,705.054 2035.64,702.548 2032.74,700.214 2029.77,698.056 
  2026.72,696.073 2023.59,694.269 2020.4,692.644 2017.15,691.199 2013.84,689.935 2010.48,688.853 2007.07,687.953 2003.61,687.234 2000.13,686.698 1996.61,686.342 
  1993.06,686.167 1989.49,686.171 1985.91,686.354 1982.31,686.713 1978.71,687.247 1975.12,687.954 1971.52,688.831 1967.93,689.877 1964.36,691.088 1960.81,692.462 
  1957.29,693.996 1953.79,695.686 1950.33,697.529 1946.91,699.521 1943.53,701.658 1940.2,703.936 1936.92,706.352 1933.69,708.9 1930.53,711.576 1927.44,714.376 
  1924.41,717.294 1921.45,720.326 1918.58,723.466 1915.78,726.71 1913.06,730.051 1910.43,733.485 1907.9,737.006 1905.45,740.609 1903.1,744.287 1900.85,748.035 
  1898.7,751.847 1896.65,755.718 1894.7,759.641 1892.87,763.61 1891.14,767.62 1889.53,771.665 1888.02,775.738 1886.63,779.834 1885.36,783.946 1884.2,788.069 
  1883.16,792.197 1882.23,796.323 1881.42,800.443 1880.74,804.55 1880.17,808.638 1879.71,812.702 1879.38,816.736 1879.16,820.735 1879.06,824.693 1879.08,828.605 
  1879.22,832.466 1879.46,836.27 1879.82,840.013 1880.3,843.69 1880.88,847.295 1881.58,850.825 1882.38,854.275 1883.29,857.64 1884.3,860.916 1885.41,864.1 
  1886.62,867.187 1887.93,870.174 1889.33,873.057 1890.82,875.833 1892.41,878.498 1894.08,881.05 1895.83,883.486 1897.66,885.803 1899.57,887.998 1901.55,890.07 
  1903.6,892.017 1905.72,893.835 1907.9,895.525 1910.14,897.084 1912.44,898.511 1914.79,899.804 1917.19,900.964 1919.63,901.989 1922.12,902.878 1924.64,903.632 
  1927.19,904.25 1929.78,904.733 1932.39,905.08 1935.02,905.293 1937.68,905.371 1940.34,905.315 1943.02,905.127 1945.7,904.808 1948.39,904.359 1951.07,903.782 
  1953.75,903.078 1956.42,902.25 1959.08,901.298 1961.72,900.227 1964.34,899.037 1966.94,897.731 1969.51,896.313 1972.05,894.784 1974.56,893.149 1977.03,891.409 
  1979.46,889.568 1981.84,887.63 1984.18,885.597 1986.47,883.474 1988.71,881.264 1990.89,878.97 1993.01,876.597 1995.08,874.149 1997.08,871.629 1999.01,869.042 
  2000.88,866.392 2002.68,863.682 2004.4,860.918 2006.05,858.103 2007.63,855.242 2009.12,852.339 2010.54,849.399 2011.88,846.426 2013.13,843.424 2014.31,840.399 
  2015.39,837.354 2016.4,834.293 2017.32,831.223 2018.15,828.145 2018.89,825.067 2019.54,821.99 2020.11,818.921 2020.59,815.863 2020.98,812.82 2021.28,809.797 
  2021.5,806.798 2021.63,803.827 2021.67,800.887 2021.62,797.984 2021.49,795.121 2021.27,792.301 2020.96,789.528 2020.58,786.806 2020.11,784.139 2019.56,781.529 
  2018.93,778.98 2018.22,776.496 2017.44,774.079 2016.58,771.732 2015.65,769.458 2014.65,767.261 2013.57,765.141 2012.43,763.103 2011.23,761.148 2009.96,759.278 
  2008.63,757.496 2007.24,755.803 2005.8,754.201 2004.3,752.692 2002.75,751.278 2001.15,749.959 1999.5,748.737 1997.82,747.613 1996.09,746.587 1994.32,745.662 
  1992.52,744.836 1990.68,744.111 1988.82,743.487 1986.92,742.965 1985.01,742.543 1983.07,742.223 1981.12,742.003 1979.15,741.884 1977.17,741.865 1975.17,741.945 
  1973.18,742.124 1971.17,742.4 1969.17,742.772 1967.17,743.24 1965.17,743.801 1963.19,744.455 1961.21,745.2 1959.24,746.034 1957.29,746.956 1955.36,747.963 
  1953.46,749.053 1951.57,750.225 1949.71,751.476 1947.88,752.803 1946.08,754.205 1944.31,755.678 1942.58,757.221 1940.89,758.831 1939.24,760.504 1937.63,762.238 
  1936.06,764.03 1934.54,765.878 1933.07,767.777 1931.64,769.726 1930.27,771.72 1928.95,773.757 1927.69,775.834 1926.48,777.948 1925.33,780.094 1924.23,782.271 
  1923.2,784.474 1922.23,786.7 1921.31,788.946 1920.46,791.209 1919.68,793.485 1918.95,795.771 1918.29,798.063 1917.7,800.359 1917.17,802.656 1916.71,804.948 
  1916.31,807.235 1915.98,809.512 1915.71,811.776 1915.51,814.024 1915.38,816.253 1915.31,818.46 1915.31,820.642 1915.37,822.796 1915.49,824.92 1915.68,827.01 
  1915.93,829.063 1916.24,831.078 1916.61,833.051 1917.05,834.98 1917.54,836.862 1918.09,838.696 1918.69,840.478 1919.36,842.207 1920.07,843.881 1920.84,845.498 
  1921.66,847.055 1922.53,848.551 1923.45,849.985 1924.41,851.354 1925.42,852.657 1926.48,853.893 1927.57,855.061 1928.7,856.159 1929.87,857.186 1931.08,858.142 
  1932.32,859.025 1933.59,859.835 1934.89,860.57 1936.22,861.231 1937.57,861.818 1938.95,862.329 1940.35,862.765 1941.77,863.125 1943.2,863.41 1944.65,863.619 
  1946.12,863.754 1947.59,863.813 1949.07,863.799 1950.56,863.71 1952.05,863.548 1953.54,863.314 1955.04,863.008 1956.53,862.632 1958.02,862.186 1959.5,861.671 
  1960.97,861.09 1962.43,860.442 1963.88,859.729 1965.31,858.954 1966.73,858.116 1968.13,857.219 1969.51,856.264 1970.86,855.252 1972.19,854.185 1973.5,853.065 
  1974.78,851.895 1976.03,850.676 1977.25,849.41 1978.44,848.099 1979.6,846.746 1980.72,845.353 1981.8,843.921 1982.85,842.454 1983.86,840.954 1984.82,839.422 
  1985.75,837.862 1986.64,836.276 1987.48,834.666 1988.28,833.035 1989.03,831.384 1989.74,829.718 1990.4,828.037 1991.02,826.345 1991.59,824.645 1992.11,822.937 
  1992.58,821.226 1993,819.513 1993.38,817.801 1993.71,816.093 1993.98,814.39 1994.21,812.695 1994.39,811.011 1994.52,809.339 1994.6,807.683 1994.63,806.044 
  
  "/>
</svg>
