<?xml version="1.0" encoding="utf-8"?>
<svg xmlns="http://www.w3.org/2000/svg" xmlns:xlink="http://www.w3.org/1999/xlink" width="600" height="400" viewBox="0 0 2400 1600">
<defs>
  <clipPath id="clip020">
    <rect x="0" y="0" width="2400" height="1600"/>
  </clipPath>
</defs>
<path clip-path="url(#clip020)" d="
M0 1600 L2400 1600 L2400 0 L0 0  Z
  " fill="#ffffff" fill-rule="evenodd" fill-opacity="1"/>
<defs>
  <clipPath id="clip021">
    <rect x="480" y="0" width="1681" height="1600"/>
  </clipPath>
</defs>
<path clip-path="url(#clip020)" d="
M222.69 1423.18 L2352.76 1423.18 L2352.76 123.472 L222.69 123.472  Z
  " fill="#ffffff" fill-rule="evenodd" fill-opacity="1"/>
<defs>
  <clipPath id="clip022">
    <rect x="222" y="123" width="2131" height="1301"/>
  </clipPath>
</defs>
<polyline clip-path="url(#clip022)" style="stroke:#000000; stroke-linecap:butt; stroke-linejoin:round; stroke-width:2; stroke-opacity:0.1; fill:none" points="
  222.69,1423.18 222.69,123.472 
  "/>
<polyline clip-path="url(#clip022)" style="stroke:#000000; stroke-linecap:butt; stroke-linejoin:round; stroke-width:2; stroke-opacity:0.1; fill:none" points="
  755.207,1423.18 755.207,123.472 
  "/>
<polyline clip-path="url(#clip022)" style="stroke:#000000; stroke-linecap:butt; stroke-linejoin:round; stroke-width:2; stroke-opacity:0.1; fill:none" points="
  1287.72,1423.18 1287.72,123.472 
  "/>
<polyline clip-path="url(#clip022)" style="stroke:#000000; stroke-linecap:butt; stroke-linejoin:round; stroke-width:2; stroke-opacity:0.1; fill:none" points="
  1820.24,1423.18 1820.24,123.472 
  "/>
<polyline clip-path="url(#clip022)" style="stroke:#000000; stroke-linecap:butt; stroke-linejoin:round; stroke-width:2; stroke-opacity:0.1; fill:none" points="
  2352.76,1423.18 2352.76,123.472 
  "/>
<polyline clip-path="url(#clip020)" style="stroke:#000000; stroke-linecap:butt; stroke-linejoin:round; stroke-width:4; stroke-opacity:1; fill:none" points="
  222.69,1423.18 2352.76,1423.18 
  "/>
<polyline clip-path="url(#clip020)" style="stroke:#000000; stroke-linecap:butt; stroke-linejoin:round; stroke-width:4; stroke-opacity:1; fill:none" points="
  222.69,1423.18 222.69,1404.28 
  "/>
<polyline clip-path="url(#clip020)" style="stroke:#000000; stroke-linecap:butt; stroke-linejoin:round; stroke-width:4; stroke-opacity:1; fill:none" points="
  755.207,1423.18 755.207,1404.28 
  "/>
<polyline clip-path="url(#clip020)" style="stroke:#000000; stroke-linecap:butt; stroke-linejoin:round; stroke-width:4; stroke-opacity:1; fill:none" points="
  1287.72,1423.18 1287.72,1404.28 
  "/>
<polyline clip-path="url(#clip020)" style="stroke:#000000; stroke-linecap:butt; stroke-linejoin:round; stroke-width:4; stroke-opacity:1; fill:none" points="
  1820.24,1423.18 1820.24,1404.28 
  "/>
<polyline clip-path="url(#clip020)" style="stroke:#000000; stroke-linecap:butt; stroke-linejoin:round; stroke-width:4; stroke-opacity:1; fill:none" points="
  2352.76,1423.18 2352.76,1404.28 
  "/>
<path clip-path="url(#clip020)" d="M213.072 1479.92 L220.711 1479.92 L220.711 1453.55 L212.401 1455.22 L212.401 1450.96 L220.665 1449.29 L225.341 1449.29 L225.341 1479.92 L232.98 1479.92 L232.98 1483.85 L213.072 1483.85 L213.072 1479.92 Z" fill="#000000" fill-rule="evenodd" fill-opacity="1" /><path clip-path="url(#clip020)" d="M749.86 1479.92 L766.179 1479.92 L766.179 1483.85 L744.235 1483.85 L744.235 1479.92 Q746.897 1477.16 751.48 1472.53 Q756.086 1467.88 757.267 1466.54 Q759.512 1464.01 760.392 1462.28 Q761.295 1460.52 761.295 1458.83 Q761.295 1456.07 759.35 1454.34 Q757.429 1452.6 754.327 1452.6 Q752.128 1452.6 749.674 1453.37 Q747.244 1454.13 744.466 1455.68 L744.466 1450.96 Q747.29 1449.82 749.744 1449.25 Q752.197 1448.67 754.235 1448.67 Q759.605 1448.67 762.799 1451.35 Q765.994 1454.04 765.994 1458.53 Q765.994 1460.66 765.184 1462.58 Q764.396 1464.48 762.29 1467.07 Q761.711 1467.74 758.609 1470.96 Q755.508 1474.15 749.86 1479.92 Z" fill="#000000" fill-rule="evenodd" fill-opacity="1" /><path clip-path="url(#clip020)" d="M1291.97 1465.22 Q1295.33 1465.94 1297.2 1468.2 Q1299.1 1470.47 1299.1 1473.81 Q1299.1 1478.92 1295.58 1481.72 Q1292.06 1484.52 1285.58 1484.52 Q1283.41 1484.52 1281.09 1484.08 Q1278.8 1483.67 1276.35 1482.81 L1276.35 1478.3 Q1278.29 1479.43 1280.61 1480.01 Q1282.92 1480.59 1285.44 1480.59 Q1289.84 1480.59 1292.13 1478.85 Q1294.45 1477.12 1294.45 1473.81 Q1294.45 1470.75 1292.29 1469.04 Q1290.17 1467.3 1286.35 1467.3 L1282.32 1467.3 L1282.32 1463.46 L1286.53 1463.46 Q1289.98 1463.46 1291.81 1462.09 Q1293.64 1460.7 1293.64 1458.11 Q1293.64 1455.45 1291.74 1454.04 Q1289.86 1452.6 1286.35 1452.6 Q1284.42 1452.6 1282.23 1453.02 Q1280.03 1453.44 1277.39 1454.31 L1277.39 1450.15 Q1280.05 1449.41 1282.36 1449.04 Q1284.7 1448.67 1286.76 1448.67 Q1292.09 1448.67 1295.19 1451.1 Q1298.29 1453.5 1298.29 1457.63 Q1298.29 1460.5 1296.65 1462.49 Q1295 1464.45 1291.97 1465.22 Z" fill="#000000" fill-rule="evenodd" fill-opacity="1" /><path clip-path="url(#clip020)" d="M1823.25 1453.37 L1811.44 1471.81 L1823.25 1471.81 L1823.25 1453.37 M1822.02 1449.29 L1827.9 1449.29 L1827.9 1471.81 L1832.83 1471.81 L1832.83 1475.7 L1827.9 1475.7 L1827.9 1483.85 L1823.25 1483.85 L1823.25 1475.7 L1807.65 1475.7 L1807.65 1471.19 L1822.02 1449.29 Z" fill="#000000" fill-rule="evenodd" fill-opacity="1" /><path clip-path="url(#clip020)" d="M2343.03 1449.29 L2361.39 1449.29 L2361.39 1453.23 L2347.32 1453.23 L2347.32 1461.7 Q2348.33 1461.35 2349.35 1461.19 Q2350.37 1461 2351.39 1461 Q2357.18 1461 2360.56 1464.18 Q2363.94 1467.35 2363.94 1472.76 Q2363.94 1478.34 2360.46 1481.44 Q2356.99 1484.52 2350.67 1484.52 Q2348.5 1484.52 2346.23 1484.15 Q2343.98 1483.78 2341.58 1483.04 L2341.58 1478.34 Q2343.66 1479.48 2345.88 1480.03 Q2348.1 1480.59 2350.58 1480.59 Q2354.58 1480.59 2356.92 1478.48 Q2359.26 1476.38 2359.26 1472.76 Q2359.26 1469.15 2356.92 1467.05 Q2354.58 1464.94 2350.58 1464.94 Q2348.71 1464.94 2346.83 1465.36 Q2344.98 1465.77 2343.03 1466.65 L2343.03 1449.29 Z" fill="#000000" fill-rule="evenodd" fill-opacity="1" /><path clip-path="url(#clip020)" d="M1286.78 1522.27 L1286.78 1532.4 L1298.85 1532.4 L1298.85 1536.95 L1286.78 1536.95 L1286.78 1556.3 Q1286.78 1560.66 1287.96 1561.9 Q1289.17 1563.14 1292.83 1563.14 L1298.85 1563.14 L1298.85 1568.04 L1292.83 1568.04 Q1286.05 1568.04 1283.47 1565.53 Q1280.9 1562.98 1280.9 1556.3 L1280.9 1536.95 L1276.6 1536.95 L1276.6 1532.4 L1280.9 1532.4 L1280.9 1522.27 L1286.78 1522.27 Z" fill="#000000" fill-rule="evenodd" fill-opacity="1" /><polyline clip-path="url(#clip022)" style="stroke:#000000; stroke-linecap:butt; stroke-linejoin:round; stroke-width:2; stroke-opacity:0.1; fill:none" points="
  222.69,848.945 2352.76,848.945 
  "/>
<polyline clip-path="url(#clip022)" style="stroke:#000000; stroke-linecap:butt; stroke-linejoin:round; stroke-width:2; stroke-opacity:0.1; fill:none" points="
  222.69,143.109 2352.76,143.109 
  "/>
<polyline clip-path="url(#clip020)" style="stroke:#000000; stroke-linecap:butt; stroke-linejoin:round; stroke-width:4; stroke-opacity:1; fill:none" points="
  222.69,1423.18 222.69,123.472 
  "/>
<polyline clip-path="url(#clip020)" style="stroke:#000000; stroke-linecap:butt; stroke-linejoin:round; stroke-width:4; stroke-opacity:1; fill:none" points="
  222.69,848.945 241.588,848.945 
  "/>
<polyline clip-path="url(#clip020)" style="stroke:#000000; stroke-linecap:butt; stroke-linejoin:round; stroke-width:4; stroke-opacity:1; fill:none" points="
  222.69,143.109 241.588,143.109 
  "/>
<path clip-path="url(#clip020)" d="M117.565 868.737 L125.203 868.737 L125.203 842.371 L116.893 844.038 L116.893 839.779 L125.157 838.112 L129.833 838.112 L129.833 868.737 L137.472 868.737 L137.472 872.672 L117.565 872.672 L117.565 868.737 Z" fill="#000000" fill-rule="evenodd" fill-opacity="1" /><path clip-path="url(#clip020)" d="M156.916 841.191 Q153.305 841.191 151.476 844.756 Q149.671 848.297 149.671 855.427 Q149.671 862.533 151.476 866.098 Q153.305 869.64 156.916 869.64 Q160.55 869.64 162.356 866.098 Q164.185 862.533 164.185 855.427 Q164.185 848.297 162.356 844.756 Q160.55 841.191 156.916 841.191 M156.916 837.487 Q162.726 837.487 165.782 842.094 Q168.861 846.677 168.861 855.427 Q168.861 864.154 165.782 868.76 Q162.726 873.343 156.916 873.343 Q151.106 873.343 148.027 868.76 Q144.972 864.154 144.972 855.427 Q144.972 846.677 148.027 842.094 Q151.106 837.487 156.916 837.487 Z" fill="#000000" fill-rule="evenodd" fill-opacity="1" /><path clip-path="url(#clip020)" d="M173.431 842.064 L186.69 842.064 L186.69 845.262 L168.861 845.262 L168.861 842.064 Q171.023 839.826 174.747 836.065 Q178.49 832.284 179.449 831.194 Q181.274 829.143 181.988 827.733 Q182.722 826.304 182.722 824.931 Q182.722 822.692 181.142 821.282 Q179.581 819.871 177.061 819.871 Q175.274 819.871 173.28 820.492 Q171.306 821.113 169.049 822.373 L169.049 818.536 Q171.343 817.614 173.337 817.144 Q175.33 816.674 176.986 816.674 Q181.349 816.674 183.944 818.856 Q186.54 821.037 186.54 824.686 Q186.54 826.416 185.882 827.977 Q185.242 829.52 183.531 831.626 Q183.06 832.172 180.54 834.786 Q178.02 837.381 173.431 842.064 Z" fill="#000000" fill-rule="evenodd" fill-opacity="1" /><path clip-path="url(#clip020)" d="M114.931 162.901 L122.57 162.901 L122.57 136.536 L114.26 138.202 L114.26 133.943 L122.524 132.276 L127.2 132.276 L127.2 162.901 L134.839 162.901 L134.839 166.836 L114.931 166.836 L114.931 162.901 Z" fill="#000000" fill-rule="evenodd" fill-opacity="1" /><path clip-path="url(#clip020)" d="M154.283 135.355 Q150.672 135.355 148.843 138.92 Q147.038 142.462 147.038 149.591 Q147.038 156.698 148.843 160.262 Q150.672 163.804 154.283 163.804 Q157.917 163.804 159.723 160.262 Q161.552 156.698 161.552 149.591 Q161.552 142.462 159.723 138.92 Q157.917 135.355 154.283 135.355 M154.283 131.651 Q160.093 131.651 163.149 136.258 Q166.227 140.841 166.227 149.591 Q166.227 158.318 163.149 162.924 Q160.093 167.508 154.283 167.508 Q148.473 167.508 145.394 162.924 Q142.339 158.318 142.339 149.591 Q142.339 140.841 145.394 136.258 Q148.473 131.651 154.283 131.651 Z" fill="#000000" fill-rule="evenodd" fill-opacity="1" /><path clip-path="url(#clip020)" d="M178.904 114.656 L169.312 129.646 L178.904 129.646 L178.904 114.656 M177.907 111.346 L182.684 111.346 L182.684 129.646 L186.69 129.646 L186.69 132.806 L182.684 132.806 L182.684 139.426 L178.904 139.426 L178.904 132.806 L166.227 132.806 L166.227 129.138 L177.907 111.346 Z" fill="#000000" fill-rule="evenodd" fill-opacity="1" /><path clip-path="url(#clip020)" d="M28.3562 756.711 L45.7028 769.602 L64.0042 756.043 L64.0042 762.95 L49.9996 773.326 L64.0042 783.702 L64.0042 790.609 L45.3526 776.763 L28.3562 789.431 L28.3562 782.524 L41.0558 773.071 L28.3562 763.618 L28.3562 756.711 Z" fill="#000000" fill-rule="evenodd" fill-opacity="1" /><path clip-path="url(#clip020)" d="M672.087 16.7545 L672.087 25.383 Q667.955 21.5346 663.256 19.6307 Q658.597 17.7268 653.331 17.7268 Q642.961 17.7268 637.452 24.0867 Q631.942 30.4061 631.942 42.3968 Q631.942 54.3469 637.452 60.7069 Q642.961 67.0263 653.331 67.0263 Q658.597 67.0263 663.256 65.1223 Q667.955 63.2184 672.087 59.3701 L672.087 67.9175 Q667.793 70.8341 662.972 72.2924 Q658.192 73.7508 652.845 73.7508 Q639.113 73.7508 631.213 65.3654 Q623.314 56.9395 623.314 42.3968 Q623.314 27.8135 631.213 19.4281 Q639.113 11.0023 652.845 11.0023 Q658.273 11.0023 663.053 12.4606 Q667.874 13.8784 672.087 16.7545 Z" fill="#000000" fill-rule="evenodd" fill-opacity="1" /><path clip-path="url(#clip020)" d="M701.983 32.4315 Q695.987 32.4315 692.504 37.1306 Q689.02 41.7891 689.02 49.9314 Q689.02 58.0738 692.463 62.7728 Q695.947 67.4314 701.983 67.4314 Q707.937 67.4314 711.421 62.7323 Q714.905 58.0333 714.905 49.9314 Q714.905 41.8701 711.421 37.1711 Q707.937 32.4315 701.983 32.4315 M701.983 26.1121 Q711.705 26.1121 717.255 32.4315 Q722.804 38.7509 722.804 49.9314 Q722.804 61.0714 717.255 67.4314 Q711.705 73.7508 701.983 73.7508 Q692.22 73.7508 686.67 67.4314 Q681.161 61.0714 681.161 49.9314 Q681.161 38.7509 686.67 32.4315 Q692.22 26.1121 701.983 26.1121 Z" fill="#000000" fill-rule="evenodd" fill-opacity="1" /><path clip-path="url(#clip020)" d="M772.873 45.1919 L772.873 72.576 L765.42 72.576 L765.42 45.4349 Q765.42 38.994 762.908 35.7938 Q760.397 32.5936 755.374 32.5936 Q749.338 32.5936 745.854 36.4419 Q742.37 40.2903 742.37 46.9338 L742.37 72.576 L734.876 72.576 L734.876 27.2059 L742.37 27.2059 L742.37 34.2544 Q745.044 30.163 748.649 28.1376 Q752.295 26.1121 757.034 26.1121 Q764.853 26.1121 768.863 30.9732 Q772.873 35.7938 772.873 45.1919 Z" fill="#000000" fill-rule="evenodd" fill-opacity="1" /><path clip-path="url(#clip020)" d="M816.664 28.5427 L816.664 35.5912 Q813.504 33.9709 810.101 33.1607 Q806.698 32.3505 803.053 32.3505 Q797.503 32.3505 794.708 34.0519 Q791.953 35.7533 791.953 39.156 Q791.953 41.7486 793.938 43.2475 Q795.923 44.7058 801.918 46.0426 L804.47 46.6097 Q812.41 48.3111 815.732 51.4303 Q819.094 54.509 819.094 60.0587 Q819.094 66.3781 814.071 70.0644 Q809.089 73.7508 800.339 73.7508 Q796.693 73.7508 792.723 73.0216 Q788.793 72.3329 784.419 70.9151 L784.419 63.2184 Q788.55 65.3654 792.561 66.4591 Q796.571 67.5124 800.501 67.5124 Q805.767 67.5124 808.602 65.73 Q811.438 63.9071 811.438 60.6258 Q811.438 57.5877 809.372 55.9673 Q807.347 54.3469 800.42 52.8481 L797.827 52.2405 Q790.9 50.7821 787.821 47.7845 Q784.743 44.7463 784.743 39.4801 Q784.743 33.0797 789.28 29.5959 Q793.817 26.1121 802.161 26.1121 Q806.293 26.1121 809.939 26.7198 Q813.585 27.3274 816.664 28.5427 Z" fill="#000000" fill-rule="evenodd" fill-opacity="1" /><path clip-path="url(#clip020)" d="M838.336 14.324 L838.336 27.2059 L853.689 27.2059 L853.689 32.9987 L838.336 32.9987 L838.336 57.6282 Q838.336 63.1779 839.835 64.7578 Q841.374 66.3376 846.033 66.3376 L853.689 66.3376 L853.689 72.576 L846.033 72.576 Q837.404 72.576 834.123 69.3758 Q830.842 66.1351 830.842 57.6282 L830.842 32.9987 L825.373 32.9987 L825.373 27.2059 L830.842 27.2059 L830.842 14.324 L838.336 14.324 Z" fill="#000000" fill-rule="evenodd" fill-opacity="1" /><path clip-path="url(#clip020)" d="M884.111 49.7694 Q875.078 49.7694 871.594 51.8354 Q868.11 53.9013 868.11 58.8839 Q868.11 62.8538 870.703 65.2034 Q873.336 67.5124 877.832 67.5124 Q884.03 67.5124 887.757 63.1374 Q891.524 58.7219 891.524 51.4303 L891.524 49.7694 L884.111 49.7694 M898.978 46.6907 L898.978 72.576 L891.524 72.576 L891.524 65.6895 Q888.972 69.8214 885.165 71.8063 Q881.357 73.7508 875.847 73.7508 Q868.88 73.7508 864.748 69.8619 Q860.657 65.9325 860.657 59.3701 Q860.657 51.7138 865.761 47.825 Q870.905 43.9361 881.073 43.9361 L891.524 43.9361 L891.524 43.2069 Q891.524 38.0623 888.122 35.2672 Q884.759 32.4315 878.643 32.4315 Q874.754 32.4315 871.067 33.3632 Q867.381 34.295 863.978 36.1584 L863.978 29.2718 Q868.07 27.692 871.918 26.9223 Q875.766 26.1121 879.412 26.1121 Q889.256 26.1121 894.117 31.2163 Q898.978 36.3204 898.978 46.6907 Z" fill="#000000" fill-rule="evenodd" fill-opacity="1" /><path clip-path="url(#clip020)" d="M952.045 45.1919 L952.045 72.576 L944.591 72.576 L944.591 45.4349 Q944.591 38.994 942.08 35.7938 Q939.568 32.5936 934.545 32.5936 Q928.509 32.5936 925.025 36.4419 Q921.542 40.2903 921.542 46.9338 L921.542 72.576 L914.047 72.576 L914.047 27.2059 L921.542 27.2059 L921.542 34.2544 Q924.215 30.163 927.821 28.1376 Q931.466 26.1121 936.206 26.1121 Q944.024 26.1121 948.035 30.9732 Q952.045 35.7938 952.045 45.1919 Z" fill="#000000" fill-rule="evenodd" fill-opacity="1" /><path clip-path="url(#clip020)" d="M974.284 14.324 L974.284 27.2059 L989.637 27.2059 L989.637 32.9987 L974.284 32.9987 L974.284 57.6282 Q974.284 63.1779 975.783 64.7578 Q977.323 66.3376 981.981 66.3376 L989.637 66.3376 L989.637 72.576 L981.981 72.576 Q973.353 72.576 970.071 69.3758 Q966.79 66.1351 966.79 57.6282 L966.79 32.9987 L961.322 32.9987 L961.322 27.2059 L966.79 27.2059 L966.79 14.324 L974.284 14.324 Z" fill="#000000" fill-rule="evenodd" fill-opacity="1" /><path clip-path="url(#clip020)" d="M1055.67 49.3643 Q1055.67 41.2625 1052.3 36.8065 Q1048.98 32.3505 1042.95 32.3505 Q1036.95 32.3505 1033.59 36.8065 Q1030.27 41.2625 1030.27 49.3643 Q1030.27 57.4256 1033.59 61.8816 Q1036.95 66.3376 1042.95 66.3376 Q1048.98 66.3376 1052.3 61.8816 Q1055.67 57.4256 1055.67 49.3643 M1063.12 66.9452 Q1063.12 78.5308 1057.98 84.1616 Q1052.83 89.8329 1042.22 89.8329 Q1038.29 89.8329 1034.8 89.2252 Q1031.32 88.6581 1028.04 87.4428 L1028.04 80.1917 Q1031.32 81.9741 1034.52 82.8248 Q1037.72 83.6755 1041.04 83.6755 Q1048.38 83.6755 1052.02 79.8271 Q1055.67 76.0193 1055.67 68.282 L1055.67 64.5957 Q1053.36 68.6061 1049.75 70.5911 Q1046.15 72.576 1041.12 72.576 Q1032.78 72.576 1027.68 66.2161 Q1022.57 59.8562 1022.57 49.3643 Q1022.57 38.832 1027.68 32.472 Q1032.78 26.1121 1041.12 26.1121 Q1046.15 26.1121 1049.75 28.0971 Q1053.36 30.082 1055.67 34.0924 L1055.67 27.2059 L1063.12 27.2059 L1063.12 66.9452 Z" fill="#000000" fill-rule="evenodd" fill-opacity="1" /><path clip-path="url(#clip020)" d="M1104.76 34.1734 Q1103.51 33.4443 1102.01 33.1202 Q1100.55 32.7556 1098.77 32.7556 Q1092.45 32.7556 1089.05 36.8875 Q1085.68 40.9789 1085.68 48.6757 L1085.68 72.576 L1078.19 72.576 L1078.19 27.2059 L1085.68 27.2059 L1085.68 34.2544 Q1088.03 30.1225 1091.8 28.1376 Q1095.57 26.1121 1100.96 26.1121 Q1101.73 26.1121 1102.66 26.2337 Q1103.59 26.3147 1104.72 26.5172 L1104.76 34.1734 Z" fill="#000000" fill-rule="evenodd" fill-opacity="1" /><path clip-path="url(#clip020)" d="M1128.34 32.4315 Q1122.34 32.4315 1118.86 37.1306 Q1115.38 41.7891 1115.38 49.9314 Q1115.38 58.0738 1118.82 62.7728 Q1122.3 67.4314 1128.34 67.4314 Q1134.3 67.4314 1137.78 62.7323 Q1141.26 58.0333 1141.26 49.9314 Q1141.26 41.8701 1137.78 37.1711 Q1134.3 32.4315 1128.34 32.4315 M1128.34 26.1121 Q1138.06 26.1121 1143.61 32.4315 Q1149.16 38.7509 1149.16 49.9314 Q1149.16 61.0714 1143.61 67.4314 Q1138.06 73.7508 1128.34 73.7508 Q1118.58 73.7508 1113.03 67.4314 Q1107.52 61.0714 1107.52 49.9314 Q1107.52 38.7509 1113.03 32.4315 Q1118.58 26.1121 1128.34 26.1121 Z" fill="#000000" fill-rule="evenodd" fill-opacity="1" /><path clip-path="url(#clip020)" d="M1157.18 27.2059 L1164.64 27.2059 L1173.95 62.6108 L1183.23 27.2059 L1192.02 27.2059 L1201.34 62.6108 L1210.61 27.2059 L1218.07 27.2059 L1206.2 72.576 L1197.41 72.576 L1187.65 35.3887 L1177.84 72.576 L1169.05 72.576 L1157.18 27.2059 Z" fill="#000000" fill-rule="evenodd" fill-opacity="1" /><path clip-path="url(#clip020)" d="M1236.74 14.324 L1236.74 27.2059 L1252.1 27.2059 L1252.1 32.9987 L1236.74 32.9987 L1236.74 57.6282 Q1236.74 63.1779 1238.24 64.7578 Q1239.78 66.3376 1244.44 66.3376 L1252.1 66.3376 L1252.1 72.576 L1244.44 72.576 Q1235.81 72.576 1232.53 69.3758 Q1229.25 66.1351 1229.25 57.6282 L1229.25 32.9987 L1223.78 32.9987 L1223.78 27.2059 L1229.25 27.2059 L1229.25 14.324 L1236.74 14.324 Z" fill="#000000" fill-rule="evenodd" fill-opacity="1" /><path clip-path="url(#clip020)" d="M1299.61 45.1919 L1299.61 72.576 L1292.16 72.576 L1292.16 45.4349 Q1292.16 38.994 1289.65 35.7938 Q1287.14 32.5936 1282.11 32.5936 Q1276.08 32.5936 1272.59 36.4419 Q1269.11 40.2903 1269.11 46.9338 L1269.11 72.576 L1261.62 72.576 L1261.62 9.54393 L1269.11 9.54393 L1269.11 34.2544 Q1271.78 30.163 1275.39 28.1376 Q1279.03 26.1121 1283.77 26.1121 Q1291.59 26.1121 1295.6 30.9732 Q1299.61 35.7938 1299.61 45.1919 Z" fill="#000000" fill-rule="evenodd" fill-opacity="1" /><path clip-path="url(#clip020)" d="M1367.14 34.1734 Q1365.89 33.4443 1364.39 33.1202 Q1362.93 32.7556 1361.15 32.7556 Q1354.83 32.7556 1351.42 36.8875 Q1348.06 40.9789 1348.06 48.6757 L1348.06 72.576 L1340.57 72.576 L1340.57 27.2059 L1348.06 27.2059 L1348.06 34.2544 Q1350.41 30.1225 1354.18 28.1376 Q1357.95 26.1121 1363.33 26.1121 Q1364.1 26.1121 1365.03 26.2337 Q1365.97 26.3147 1367.1 26.5172 L1367.14 34.1734 Z" fill="#000000" fill-rule="evenodd" fill-opacity="1" /><path clip-path="url(#clip020)" d="M1395.58 49.7694 Q1386.54 49.7694 1383.06 51.8354 Q1379.58 53.9013 1379.58 58.8839 Q1379.58 62.8538 1382.17 65.2034 Q1384.8 67.5124 1389.3 67.5124 Q1395.5 67.5124 1399.22 63.1374 Q1402.99 58.7219 1402.99 51.4303 L1402.99 49.7694 L1395.58 49.7694 M1410.45 46.6907 L1410.45 72.576 L1402.99 72.576 L1402.99 65.6895 Q1400.44 69.8214 1396.63 71.8063 Q1392.82 73.7508 1387.31 73.7508 Q1380.35 73.7508 1376.22 69.8619 Q1372.12 65.9325 1372.12 59.3701 Q1372.12 51.7138 1377.23 47.825 Q1382.37 43.9361 1392.54 43.9361 L1402.99 43.9361 L1402.99 43.2069 Q1402.99 38.0623 1399.59 35.2672 Q1396.23 32.4315 1390.11 32.4315 Q1386.22 32.4315 1382.53 33.3632 Q1378.85 34.295 1375.45 36.1584 L1375.45 29.2718 Q1379.54 27.692 1383.39 26.9223 Q1387.23 26.1121 1390.88 26.1121 Q1400.72 26.1121 1405.58 31.2163 Q1410.45 36.3204 1410.45 46.6907 Z" fill="#000000" fill-rule="evenodd" fill-opacity="1" /><path clip-path="url(#clip020)" d="M1433.17 14.324 L1433.17 27.2059 L1448.52 27.2059 L1448.52 32.9987 L1433.17 32.9987 L1433.17 57.6282 Q1433.17 63.1779 1434.67 64.7578 Q1436.21 66.3376 1440.87 66.3376 L1448.52 66.3376 L1448.52 72.576 L1440.87 72.576 Q1432.24 72.576 1428.96 69.3758 Q1425.68 66.1351 1425.68 57.6282 L1425.68 32.9987 L1420.21 32.9987 L1420.21 27.2059 L1425.68 27.2059 L1425.68 14.324 L1433.17 14.324 Z" fill="#000000" fill-rule="evenodd" fill-opacity="1" /><path clip-path="url(#clip020)" d="M1497.13 48.0275 L1497.13 51.6733 L1462.86 51.6733 Q1463.35 59.3701 1467.48 63.421 Q1471.65 67.4314 1479.07 67.4314 Q1483.36 67.4314 1487.37 66.3781 Q1491.42 65.3249 1495.39 63.2184 L1495.39 70.267 Q1491.38 71.9684 1487.17 72.8596 Q1482.96 73.7508 1478.62 73.7508 Q1467.77 73.7508 1461.41 67.4314 Q1455.09 61.1119 1455.09 50.3365 Q1455.09 39.1965 1461.08 32.6746 Q1467.12 26.1121 1477.33 26.1121 Q1486.48 26.1121 1491.79 32.0264 Q1497.13 37.9003 1497.13 48.0275 M1489.68 45.84 Q1489.6 39.7232 1486.24 36.0774 Q1482.92 32.4315 1477.41 32.4315 Q1471.17 32.4315 1467.4 35.9558 Q1463.67 39.4801 1463.11 45.8805 L1489.68 45.84 Z" fill="#000000" fill-rule="evenodd" fill-opacity="1" /><path clip-path="url(#clip020)" d="M1553.64 9.62495 Q1548.22 18.942 1545.58 28.0566 Q1542.95 37.1711 1542.95 46.5287 Q1542.95 55.8863 1545.58 65.0818 Q1548.26 74.2369 1553.64 83.5134 L1547.16 83.5134 Q1541.09 73.9938 1538.05 64.7983 Q1535.05 55.6027 1535.05 46.5287 Q1535.05 37.4952 1538.05 28.3401 Q1541.05 19.1851 1547.16 9.62495 L1553.64 9.62495 Z" fill="#000000" fill-rule="evenodd" fill-opacity="1" /><path clip-path="url(#clip020)" d="M1568.11 9.54393 L1575.56 9.54393 L1575.56 72.576 L1568.11 72.576 L1568.11 9.54393 Z" fill="#000000" fill-rule="evenodd" fill-opacity="1" /><path clip-path="url(#clip020)" d="M1608.74 32.4315 Q1602.74 32.4315 1599.26 37.1306 Q1595.77 41.7891 1595.77 49.9314 Q1595.77 58.0738 1599.22 62.7728 Q1602.7 67.4314 1608.74 67.4314 Q1614.69 67.4314 1618.18 62.7323 Q1621.66 58.0333 1621.66 49.9314 Q1621.66 41.8701 1618.18 37.1711 Q1614.69 32.4315 1608.74 32.4315 M1608.74 26.1121 Q1618.46 26.1121 1624.01 32.4315 Q1629.56 38.7509 1629.56 49.9314 Q1629.56 61.0714 1624.01 67.4314 Q1618.46 73.7508 1608.74 73.7508 Q1598.97 73.7508 1593.42 67.4314 Q1587.92 61.0714 1587.92 49.9314 Q1587.92 38.7509 1593.42 32.4315 Q1598.97 26.1121 1608.74 26.1121 Z" fill="#000000" fill-rule="evenodd" fill-opacity="1" /><path clip-path="url(#clip020)" d="M1671.77 49.3643 Q1671.77 41.2625 1668.41 36.8065 Q1665.09 32.3505 1659.05 32.3505 Q1653.05 32.3505 1649.69 36.8065 Q1646.37 41.2625 1646.37 49.3643 Q1646.37 57.4256 1649.69 61.8816 Q1653.05 66.3376 1659.05 66.3376 Q1665.09 66.3376 1668.41 61.8816 Q1671.77 57.4256 1671.77 49.3643 M1679.22 66.9452 Q1679.22 78.5308 1674.08 84.1616 Q1668.93 89.8329 1658.32 89.8329 Q1654.39 89.8329 1650.91 89.2252 Q1647.42 88.6581 1644.14 87.4428 L1644.14 80.1917 Q1647.42 81.9741 1650.62 82.8248 Q1653.82 83.6755 1657.15 83.6755 Q1664.48 83.6755 1668.12 79.8271 Q1671.77 76.0193 1671.77 68.282 L1671.77 64.5957 Q1669.46 68.6061 1665.85 70.5911 Q1662.25 72.576 1657.23 72.576 Q1648.88 72.576 1643.78 66.2161 Q1638.67 59.8562 1638.67 49.3643 Q1638.67 38.832 1643.78 32.472 Q1648.88 26.1121 1657.23 26.1121 Q1662.25 26.1121 1665.85 28.0971 Q1669.46 30.082 1671.77 34.0924 L1671.77 27.2059 L1679.22 27.2059 L1679.22 66.9452 Z" fill="#000000" fill-rule="evenodd" fill-opacity="1" /><path clip-path="url(#clip020)" d="M1749.87 28.5427 L1749.87 35.5912 Q1746.71 33.9709 1743.31 33.1607 Q1739.91 32.3505 1736.26 32.3505 Q1730.71 32.3505 1727.91 34.0519 Q1725.16 35.7533 1725.16 39.156 Q1725.16 41.7486 1727.14 43.2475 Q1729.13 44.7058 1735.13 46.0426 L1737.68 46.6097 Q1745.62 48.3111 1748.94 51.4303 Q1752.3 54.509 1752.3 60.0587 Q1752.3 66.3781 1747.28 70.0644 Q1742.3 73.7508 1733.55 73.7508 Q1729.9 73.7508 1725.93 73.0216 Q1722 72.3329 1717.63 70.9151 L1717.63 63.2184 Q1721.76 65.3654 1725.77 66.4591 Q1729.78 67.5124 1733.71 67.5124 Q1738.97 67.5124 1741.81 65.73 Q1744.64 63.9071 1744.64 60.6258 Q1744.64 57.5877 1742.58 55.9673 Q1740.55 54.3469 1733.63 52.8481 L1731.03 52.2405 Q1724.11 50.7821 1721.03 47.7845 Q1717.95 44.7463 1717.95 39.4801 Q1717.95 33.0797 1722.49 29.5959 Q1727.02 26.1121 1735.37 26.1121 Q1739.5 26.1121 1743.15 26.7198 Q1746.79 27.3274 1749.87 28.5427 Z" fill="#000000" fill-rule="evenodd" fill-opacity="1" /><path clip-path="url(#clip020)" d="M1796.82 28.9478 L1796.82 35.9153 Q1793.66 34.1734 1790.46 33.3227 Q1787.3 32.4315 1784.06 32.4315 Q1776.81 32.4315 1772.8 37.0496 Q1768.79 41.6271 1768.79 49.9314 Q1768.79 58.2358 1772.8 62.8538 Q1776.81 67.4314 1784.06 67.4314 Q1787.3 67.4314 1790.46 66.5807 Q1793.66 65.6895 1796.82 63.9476 L1796.82 70.8341 Q1793.7 72.2924 1790.34 73.0216 Q1787.02 73.7508 1783.25 73.7508 Q1773 73.7508 1766.97 67.3098 Q1760.93 60.8689 1760.93 49.9314 Q1760.93 38.832 1767.01 32.472 Q1773.12 26.1121 1783.74 26.1121 Q1787.18 26.1121 1790.46 26.8413 Q1793.74 27.5299 1796.82 28.9478 Z" fill="#000000" fill-rule="evenodd" fill-opacity="1" /><path clip-path="url(#clip020)" d="M1830.4 49.7694 Q1821.37 49.7694 1817.89 51.8354 Q1814.4 53.9013 1814.4 58.8839 Q1814.4 62.8538 1816.99 65.2034 Q1819.63 67.5124 1824.12 67.5124 Q1830.32 67.5124 1834.05 63.1374 Q1837.82 58.7219 1837.82 51.4303 L1837.82 49.7694 L1830.4 49.7694 M1845.27 46.6907 L1845.27 72.576 L1837.82 72.576 L1837.82 65.6895 Q1835.26 69.8214 1831.46 71.8063 Q1827.65 73.7508 1822.14 73.7508 Q1815.17 73.7508 1811.04 69.8619 Q1806.95 65.9325 1806.95 59.3701 Q1806.95 51.7138 1812.05 47.825 Q1817.2 43.9361 1827.36 43.9361 L1837.82 43.9361 L1837.82 43.2069 Q1837.82 38.0623 1834.41 35.2672 Q1831.05 32.4315 1824.93 32.4315 Q1821.04 32.4315 1817.36 33.3632 Q1813.67 34.295 1810.27 36.1584 L1810.27 29.2718 Q1814.36 27.692 1818.21 26.9223 Q1822.06 26.1121 1825.7 26.1121 Q1835.55 26.1121 1840.41 31.2163 Q1845.27 36.3204 1845.27 46.6907 Z" fill="#000000" fill-rule="evenodd" fill-opacity="1" /><path clip-path="url(#clip020)" d="M1860.62 9.54393 L1868.08 9.54393 L1868.08 72.576 L1860.62 72.576 L1860.62 9.54393 Z" fill="#000000" fill-rule="evenodd" fill-opacity="1" /><path clip-path="url(#clip020)" d="M1922.48 48.0275 L1922.48 51.6733 L1888.21 51.6733 Q1888.7 59.3701 1892.83 63.421 Q1897 67.4314 1904.41 67.4314 Q1908.71 67.4314 1912.72 66.3781 Q1916.77 65.3249 1920.74 63.2184 L1920.74 70.267 Q1916.73 71.9684 1912.51 72.8596 Q1908.3 73.7508 1903.97 73.7508 Q1893.11 73.7508 1886.75 67.4314 Q1880.43 61.1119 1880.43 50.3365 Q1880.43 39.1965 1886.43 32.6746 Q1892.46 26.1121 1902.67 26.1121 Q1911.83 26.1121 1917.13 32.0264 Q1922.48 37.9003 1922.48 48.0275 M1915.03 45.84 Q1914.94 39.7232 1911.58 36.0774 Q1908.26 32.4315 1902.75 32.4315 Q1896.51 32.4315 1892.75 35.9558 Q1889.02 39.4801 1888.45 45.8805 L1915.03 45.84 Z" fill="#000000" fill-rule="evenodd" fill-opacity="1" /><path clip-path="url(#clip020)" d="M1933.54 9.62495 L1940.02 9.62495 Q1946.1 19.1851 1949.09 28.3401 Q1952.13 37.4952 1952.13 46.5287 Q1952.13 55.6027 1949.09 64.7983 Q1946.1 73.9938 1940.02 83.5134 L1933.54 83.5134 Q1938.93 74.2369 1941.56 65.0818 Q1944.23 55.8863 1944.23 46.5287 Q1944.23 37.1711 1941.56 28.0566 Q1938.93 18.942 1933.54 9.62495 Z" fill="#000000" fill-rule="evenodd" fill-opacity="1" /><polyline clip-path="url(#clip022)" style="stroke:#009af9; stroke-linecap:butt; stroke-linejoin:round; stroke-width:8; stroke-opacity:1; fill:none" points="
  222.69,1386.4 224.823,1385.17 226.955,1383.94 229.087,1382.71 231.219,1381.49 233.351,1380.26 235.484,1379.03 237.616,1377.8 239.748,1376.58 241.88,1375.35 
  244.012,1374.12 246.145,1372.89 248.277,1371.67 250.409,1370.44 252.541,1369.21 254.673,1367.98 256.805,1366.76 258.938,1365.53 261.07,1364.3 263.202,1363.08 
  265.334,1361.85 267.466,1360.62 269.599,1359.39 271.731,1358.17 273.863,1356.94 275.995,1355.71 278.127,1354.48 280.26,1353.26 282.392,1352.03 284.524,1350.8 
  286.656,1349.57 288.788,1348.35 290.921,1347.12 293.053,1345.89 295.185,1344.66 297.317,1343.44 299.449,1342.21 301.582,1340.98 303.714,1339.75 305.846,1338.53 
  307.978,1337.3 310.11,1336.07 312.243,1334.85 314.375,1333.62 316.507,1332.39 318.639,1331.16 320.771,1329.94 322.904,1328.71 325.036,1327.48 327.168,1326.25 
  329.3,1325.03 331.432,1323.8 333.565,1322.57 335.697,1321.34 337.829,1320.12 339.961,1318.89 342.093,1317.66 344.226,1316.43 346.358,1315.21 348.49,1313.98 
  350.622,1312.75 352.754,1311.52 354.887,1310.3 357.019,1309.07 359.151,1307.84 361.283,1306.62 363.415,1305.39 365.548,1304.16 367.68,1302.93 369.812,1301.71 
  371.944,1300.48 374.076,1299.25 376.209,1298.02 378.341,1296.8 380.473,1295.57 382.605,1294.34 384.737,1293.11 386.87,1291.89 389.002,1290.66 391.134,1289.43 
  393.266,1288.2 395.398,1286.98 397.531,1285.75 399.663,1284.52 401.795,1283.3 403.927,1282.07 406.059,1280.84 408.192,1279.61 410.324,1278.39 412.456,1277.16 
  414.588,1275.93 416.72,1274.7 418.853,1273.48 420.985,1272.25 423.117,1271.02 425.249,1269.79 427.381,1268.57 429.514,1267.34 431.646,1266.11 433.778,1264.88 
  435.91,1263.66 438.042,1262.43 440.174,1261.2 442.307,1259.97 444.439,1258.75 446.571,1257.52 448.703,1256.29 450.835,1255.06 452.968,1253.84 455.1,1252.61 
  457.232,1251.38 459.364,1250.16 461.496,1248.93 463.629,1247.7 465.761,1246.47 467.893,1245.25 470.025,1244.02 472.157,1242.79 474.29,1241.56 476.422,1240.34 
  478.554,1239.11 480.686,1237.88 482.818,1236.65 484.951,1235.43 487.083,1234.2 489.215,1232.97 491.347,1231.74 493.479,1230.52 495.612,1229.29 497.744,1228.06 
  499.876,1226.84 502.008,1225.61 504.14,1224.38 506.273,1223.15 508.405,1221.93 510.537,1220.7 512.669,1219.47 514.801,1218.24 516.934,1217.02 519.066,1215.79 
  521.198,1214.56 523.33,1213.33 525.462,1212.11 527.595,1210.88 529.727,1209.65 531.859,1208.42 533.991,1207.2 536.123,1205.97 538.256,1204.74 540.388,1203.51 
  542.52,1202.29 544.652,1201.06 546.784,1199.83 548.917,1198.61 551.049,1197.38 553.181,1196.15 555.313,1194.92 557.445,1193.7 559.578,1192.47 561.71,1191.24 
  563.842,1190.01 565.974,1188.79 568.106,1187.56 570.239,1186.33 572.371,1185.1 574.503,1183.88 576.635,1182.65 578.767,1181.42 580.9,1180.19 583.032,1178.97 
  585.164,1177.74 587.296,1176.51 589.428,1175.28 591.561,1174.06 593.693,1172.83 595.825,1171.6 597.957,1170.38 600.089,1169.15 602.222,1167.92 604.354,1166.69 
  606.486,1165.47 608.618,1164.24 610.75,1163.01 612.883,1161.78 615.015,1160.56 617.147,1159.33 619.279,1158.1 621.411,1156.87 623.544,1155.65 625.676,1154.42 
  627.808,1153.19 629.94,1151.96 632.072,1150.74 634.204,1149.51 636.337,1148.28 638.469,1147.06 640.601,1145.83 642.733,1144.6 644.865,1143.37 646.998,1142.15 
  649.13,1140.92 651.262,1139.69 653.394,1138.46 655.526,1137.24 657.659,1136.01 659.791,1134.78 661.923,1133.55 664.055,1132.33 666.187,1131.1 668.32,1129.87 
  670.452,1128.64 672.584,1127.42 674.716,1126.19 676.848,1124.96 678.981,1123.73 681.113,1122.51 683.245,1121.28 685.377,1120.05 687.509,1118.82 689.642,1117.6 
  691.774,1116.37 693.906,1115.14 696.038,1113.92 698.17,1112.69 700.303,1111.46 702.435,1110.23 704.567,1109.01 706.699,1107.78 708.831,1106.55 710.964,1105.32 
  713.096,1104.1 715.228,1102.87 717.36,1101.64 719.492,1100.41 721.625,1099.19 723.757,1097.96 725.889,1096.73 728.021,1095.5 730.153,1094.28 732.286,1093.05 
  734.418,1091.82 736.55,1090.6 738.682,1089.37 740.814,1088.14 742.947,1086.91 745.079,1085.69 747.211,1084.46 749.343,1083.23 751.475,1082 753.608,1080.78 
  755.74,1079.55 757.872,1078.32 760.004,1077.09 762.136,1075.87 764.269,1074.64 766.401,1073.41 768.533,1072.19 770.665,1070.96 772.797,1069.73 774.93,1068.5 
  777.062,1067.28 779.194,1066.05 781.326,1064.82 783.458,1063.59 785.591,1062.37 787.723,1061.14 789.855,1059.91 791.987,1058.68 794.119,1057.46 796.252,1056.23 
  798.384,1055 800.516,1053.77 802.648,1052.55 804.78,1051.32 806.913,1050.09 809.045,1048.86 811.177,1047.64 813.309,1046.41 815.441,1045.18 817.574,1043.95 
  819.706,1042.73 821.838,1041.5 823.97,1040.27 826.102,1039.04 828.234,1037.82 830.367,1036.59 832.499,1035.36 834.631,1034.14 836.763,1032.91 838.895,1031.68 
  841.028,1030.45 843.16,1029.23 845.292,1028 847.424,1026.77 849.556,1025.54 851.689,1024.32 853.821,1023.09 855.953,1021.86 858.085,1020.63 860.217,1019.41 
  862.35,1018.18 864.482,1016.95 866.614,1015.72 868.746,1014.5 870.878,1013.27 873.011,1012.04 875.143,1010.81 877.275,1009.59 879.407,1008.36 881.539,1007.13 
  883.672,1005.91 885.804,1004.68 887.936,1003.45 890.068,1002.22 892.2,1001 894.333,999.769 896.465,998.541 898.597,997.314 900.729,996.087 902.861,994.859 
  904.994,993.632 907.126,992.405 909.258,991.178 911.39,989.95 913.522,988.723 915.655,987.496 917.787,986.269 919.919,985.041 922.051,983.814 924.183,982.587 
  926.316,981.36 928.448,980.132 930.58,978.905 932.712,977.678 934.844,976.45 936.977,975.223 939.109,973.996 941.241,972.768 943.373,971.541 945.505,970.314 
  947.638,969.086 949.77,967.859 951.902,966.632 954.034,965.404 956.166,964.177 958.299,962.949 960.431,961.722 962.563,960.494 964.695,959.267 966.827,958.04 
  968.96,956.812 971.092,955.585 973.224,954.357 975.356,953.13 977.488,951.902 979.621,950.675 981.753,949.447 983.885,948.22 986.017,946.992 988.149,945.765 
  990.282,944.537 992.414,943.31 994.546,942.082 996.678,940.855 998.81,939.627 1000.94,938.4 1003.07,937.172 1005.21,935.945 1007.34,934.717 1009.47,933.49 
  1011.6,932.262 1013.74,931.035 1015.87,929.808 1018,928.58 1020.13,927.353 1022.26,926.125 1024.4,924.898 1026.53,923.67 1028.66,922.443 1030.79,921.215 
  1032.93,919.988 1035.06,918.761 1037.19,917.533 1039.32,916.306 1041.45,915.078 1043.59,913.851 1045.72,912.624 1047.85,911.396 1049.98,910.169 1052.12,908.942 
  1054.25,907.714 1056.38,906.487 1058.51,905.26 1060.64,904.032 1062.78,902.805 1064.91,901.578 1067.04,900.351 1069.17,899.123 1071.31,897.896 1073.44,896.669 
  1075.57,895.442 1077.7,894.214 1079.83,892.987 1081.97,891.76 1084.1,890.533 1086.23,889.306 1088.36,888.078 1090.49,886.851 1092.63,885.624 1094.76,884.397 
  1096.89,883.17 1099.02,881.942 1101.16,880.715 1103.29,879.488 1105.42,878.261 1107.55,877.034 1109.68,875.806 1111.82,874.579 1113.95,873.352 1116.08,872.125 
  1118.21,870.897 1120.35,869.67 1122.48,868.443 1124.61,867.215 1126.74,865.988 1128.87,864.761 1131.01,863.533 1133.14,862.306 1135.27,861.078 1137.4,859.851 
  1139.54,858.624 1141.67,857.396 1143.8,856.169 1145.93,854.941 1148.06,853.714 1150.2,852.486 1152.33,851.259 1154.46,850.031 1156.59,848.804 1158.73,847.576 
  1160.86,846.349 1162.99,845.121 1165.12,843.894 1167.25,842.666 1169.39,841.439 1171.52,840.211 1173.65,838.983 1175.78,837.756 1177.91,836.528 1180.05,835.301 
  1182.18,834.073 1184.31,832.846 1186.44,831.618 1188.58,830.391 1190.71,829.163 1192.84,827.936 1194.97,826.708 1197.1,825.481 1199.24,824.253 1201.37,823.026 
  1203.5,821.798 1205.63,820.571 1207.77,819.344 1209.9,818.116 1212.03,816.889 1214.16,815.661 1216.29,814.434 1218.43,813.206 1220.56,811.979 1222.69,810.751 
  1224.82,809.524 1226.96,808.296 1229.09,807.069 1231.22,805.842 1233.35,804.614 1235.48,803.387 1237.62,802.159 1239.75,800.932 1241.88,799.705 1244.01,798.477 
  1246.15,797.25 1248.28,796.023 1250.41,794.796 1252.54,793.568 1254.67,792.341 1256.81,791.114 1258.94,789.887 1261.07,788.66 1263.2,787.432 1265.34,786.205 
  1267.47,784.978 1269.6,783.751 1271.73,782.524 1273.86,781.297 1276,780.069 1278.13,778.842 1280.26,777.615 1282.39,776.388 1284.52,775.161 1286.66,773.934 
  1288.79,772.707 1290.92,771.48 1293.05,770.252 1295.19,769.025 1297.32,767.798 1299.45,766.571 1301.58,765.344 1303.71,764.117 1305.85,762.89 1307.98,761.662 
  1310.11,760.435 1312.24,759.208 1314.38,757.981 1316.51,756.753 1318.64,755.526 1320.77,754.299 1322.9,753.072 1325.04,751.844 1327.17,750.617 1329.3,749.39 
  1331.43,748.162 1333.57,746.935 1335.7,745.707 1337.83,744.48 1339.96,743.252 1342.09,742.025 1344.23,740.798 1346.36,739.57 1348.49,738.343 1350.62,737.115 
  1352.76,735.887 1354.89,734.66 1357.02,733.432 1359.15,732.205 1361.28,730.977 1363.42,729.75 1365.55,728.522 1367.68,727.294 1369.81,726.067 1371.94,724.839 
  1374.08,723.611 1376.21,722.384 1378.34,721.156 1380.47,719.929 1382.61,718.701 1384.74,717.473 1386.87,716.246 1389,715.018 1391.13,713.791 1393.27,712.563 
  1395.4,711.336 1397.53,710.108 1399.66,708.881 1401.8,707.653 1403.93,706.426 1406.06,705.198 1408.19,703.971 1410.32,702.743 1412.46,701.516 1414.59,700.288 
  1416.72,699.061 1418.85,697.834 1420.99,696.606 1423.12,695.379 1425.25,694.151 1427.38,692.924 1429.51,691.696 1431.65,690.469 1433.78,689.241 1435.91,688.014 
  1438.04,686.786 1440.18,685.559 1442.31,684.332 1444.44,683.104 1446.57,681.877 1448.7,680.65 1450.84,679.422 1452.97,678.195 1455.1,676.968 1457.23,675.741 
  1459.37,674.514 1461.5,673.286 1463.63,672.059 1465.76,670.832 1467.89,669.605 1470.03,668.378 1472.16,667.151 1474.29,665.924 1476.42,664.696 1478.55,663.469 
  1480.69,662.242 1482.82,661.015 1484.95,659.788 1487.08,658.561 1489.22,657.334 1491.35,656.107 1493.48,654.88 1495.61,653.653 1497.74,652.426 1499.88,651.199 
  1502.01,649.972 1504.14,648.745 1506.27,647.518 1508.41,646.291 1510.54,645.064 1512.67,643.837 1514.8,642.609 1516.93,641.382 1519.07,640.155 1521.2,638.928 
  1523.33,637.701 1525.46,636.474 1527.6,635.246 1529.73,634.019 1531.86,632.792 1533.99,631.565 1536.12,630.337 1538.26,629.11 1540.39,627.883 1542.52,626.655 
  1544.65,625.428 1546.79,624.201 1548.92,622.973 1551.05,621.746 1553.18,620.518 1555.31,619.291 1557.45,618.063 1559.58,616.836 1561.71,615.608 1563.84,614.381 
  1565.97,613.153 1568.11,611.926 1570.24,610.698 1572.37,609.47 1574.5,608.243 1576.64,607.015 1578.77,605.787 1580.9,604.56 1583.03,603.332 1585.16,602.104 
  1587.3,600.877 1589.43,599.649 1591.56,598.421 1593.69,597.194 1595.83,595.966 1597.96,594.738 1600.09,593.51 1602.22,592.283 1604.35,591.055 1606.49,589.828 
  1608.62,588.6 1610.75,587.372 1612.88,586.145 1615.02,584.917 1617.15,583.69 1619.28,582.462 1621.41,581.235 1623.54,580.007 1625.68,578.78 1627.81,577.553 
  1629.94,576.325 1632.07,575.098 1634.21,573.87 1636.34,572.643 1638.47,571.415 1640.6,570.188 1642.73,568.96 1644.87,567.733 1647,566.505 1649.13,565.278 
  1651.26,564.05 1653.4,562.823 1655.53,561.595 1657.66,560.368 1659.79,559.14 1661.92,557.913 1664.06,556.686 1666.19,555.459 1668.32,554.231 1670.45,553.004 
  1672.58,551.777 1674.72,550.55 1676.85,549.322 1678.98,548.095 1681.11,546.868 1683.25,545.641 1685.38,544.414 1687.51,543.187 1689.64,541.96 1691.77,540.733 
  1693.91,539.506 1696.04,538.279 1698.17,537.052 1700.3,535.825 1702.44,534.598 1704.57,533.371 1706.7,532.144 1708.83,530.917 1710.96,529.69 1713.1,528.463 
  1715.23,527.236 1717.36,526.009 1719.49,524.782 1721.63,523.555 1723.76,522.328 1725.89,521.101 1728.02,519.874 1730.15,518.647 1732.29,517.42 1734.42,516.193 
  1736.55,514.966 1738.68,513.739 1740.82,512.512 1742.95,511.285 1745.08,510.058 1747.21,508.831 1749.34,507.604 1751.48,506.377 1753.61,505.149 1755.74,503.922 
  1757.87,502.695 1760,501.468 1762.14,500.24 1764.27,499.013 1766.4,497.786 1768.53,496.558 1770.67,495.331 1772.8,494.104 1774.93,492.876 1777.06,491.649 
  1779.19,490.421 1781.33,489.194 1783.46,487.966 1785.59,486.739 1787.72,485.511 1789.86,484.283 1791.99,483.056 1794.12,481.828 1796.25,480.601 1798.38,479.373 
  1800.52,478.145 1802.65,476.917 1804.78,475.69 1806.91,474.462 1809.05,473.234 1811.18,472.006 1813.31,470.779 1815.44,469.551 1817.57,468.323 1819.71,467.095 
  1821.84,465.868 1823.97,464.64 1826.1,463.412 1828.24,462.184 1830.37,460.957 1832.5,459.729 1834.63,458.501 1836.76,457.274 1838.9,456.046 1841.03,454.818 
  1843.16,453.591 1845.29,452.363 1847.43,451.136 1849.56,449.908 1851.69,448.681 1853.82,447.453 1855.95,446.226 1858.09,444.998 1860.22,443.771 1862.35,442.543 
  1864.48,441.316 1866.61,440.088 1868.75,438.861 1870.88,437.633 1873.01,436.406 1875.14,435.178 1877.28,433.951 1879.41,432.723 1881.54,431.496 1883.67,430.268 
  1885.8,429.041 1887.94,427.814 1890.07,426.586 1892.2,425.359 1894.33,424.132 1896.47,422.904 1898.6,421.677 1900.73,420.45 1902.86,419.223 1904.99,417.995 
  1907.13,416.768 1909.26,415.541 1911.39,414.314 1913.52,413.087 1915.66,411.86 1917.79,410.633 1919.92,409.406 1922.05,408.179 1924.18,406.952 1926.32,405.725 
  1928.45,404.498 1930.58,403.271 1932.71,402.044 1934.85,400.817 1936.98,399.59 1939.11,398.364 1941.24,397.137 1943.37,395.91 1945.51,394.683 1947.64,393.456 
  1949.77,392.229 1951.9,391.002 1954.03,389.775 1956.17,388.549 1958.3,387.322 1960.43,386.095 1962.56,384.868 1964.7,383.641 1966.83,382.414 1968.96,381.187 
  1971.09,379.96 1973.22,378.733 1975.36,377.506 1977.49,376.279 1979.62,375.052 1981.75,373.825 1983.89,372.598 1986.02,371.371 1988.15,370.144 1990.28,368.917 
  1992.41,367.69 1994.55,366.462 1996.68,365.235 1998.81,364.008 2000.94,362.781 2003.08,361.553 2005.21,360.326 2007.34,359.099 2009.47,357.871 2011.6,356.644 
  2013.74,355.416 2015.87,354.189 2018,352.961 2020.13,351.734 2022.27,350.506 2024.4,349.278 2026.53,348.051 2028.66,346.823 2030.79,345.595 2032.93,344.368 
  2035.06,343.14 2037.19,341.912 2039.32,340.685 2041.46,339.457 2043.59,338.229 2045.72,337.001 2047.85,335.773 2049.98,334.545 2052.12,333.318 2054.25,332.09 
  2056.38,330.862 2058.51,329.634 2060.64,328.406 2062.78,327.178 2064.91,325.951 2067.04,324.723 2069.17,323.495 2071.31,322.267 2073.44,321.039 2075.57,319.812 
  2077.7,318.584 2079.83,317.356 2081.97,316.129 2084.1,314.901 2086.23,313.673 2088.36,312.446 2090.5,311.218 2092.63,309.991 2094.76,308.764 2096.89,307.536 
  2099.02,306.309 2101.16,305.081 2103.29,303.854 2105.42,302.626 2107.55,301.399 2109.69,300.171 2111.82,298.943 2113.95,297.716 2116.08,296.488 2118.21,295.261 
  2120.35,294.033 2122.48,292.806 2124.61,291.578 2126.74,290.351 2128.88,289.124 2131.01,287.896 2133.14,286.669 2135.27,285.442 2137.4,284.214 2139.54,282.987 
  2141.67,281.76 2143.8,280.533 2145.93,279.306 2148.06,278.078 2150.2,276.851 2152.33,275.624 2154.46,274.397 2156.59,273.17 2158.73,271.943 2160.86,270.716 
  2162.99,269.489 2165.12,268.262 2167.25,267.036 2169.39,265.809 2171.52,264.582 2173.65,263.355 2175.78,262.128 2177.92,260.901 2180.05,259.675 2182.18,258.448 
  2184.31,257.221 2186.44,255.994 2188.58,254.767 2190.71,253.541 2192.84,252.314 2194.97,251.087 2197.11,249.86 2199.24,248.634 2201.37,247.407 2203.5,246.18 
  2205.63,244.953 2207.77,243.726 2209.9,242.5 2212.03,241.273 2214.16,240.046 2216.3,238.819 2218.43,237.592 2220.56,236.365 2222.69,235.138 2224.82,233.911 
  2226.96,232.684 2229.09,231.457 2231.22,230.23 2233.35,229.003 2235.49,227.776 2237.62,226.549 2239.75,225.322 2241.88,224.095 2244.01,222.867 2246.15,221.64 
  2248.28,220.413 2250.41,219.185 2252.54,217.958 2254.67,216.731 2256.81,215.503 2258.94,214.276 2261.07,213.048 2263.2,211.821 2265.34,210.593 2267.47,209.366 
  2269.6,208.138 2271.73,206.91 2273.86,205.683 2276,204.455 2278.13,203.227 2280.26,201.999 2282.39,200.772 2284.53,199.544 2286.66,198.316 2288.79,197.088 
  2290.92,195.86 2293.05,194.632 2295.19,193.405 2297.32,192.177 2299.45,190.949 2301.58,189.721 2303.72,188.493 2305.85,187.265 2307.98,186.037 2310.11,184.809 
  2312.24,183.581 2314.38,182.353 2316.51,181.125 2318.64,179.898 2320.77,178.67 2322.91,177.442 2325.04,176.214 2327.17,174.986 2329.3,173.759 2331.43,172.531 
  2333.57,171.303 2335.7,170.076 2337.83,168.848 2339.96,167.621 2342.09,166.393 2344.23,165.166 2346.36,163.938 2348.49,162.711 2350.62,161.484 2352.76,160.256 
  
  "/>
</svg>
