<?xml version="1.0" encoding="utf-8"?>
<svg xmlns="http://www.w3.org/2000/svg" xmlns:xlink="http://www.w3.org/1999/xlink" width="600" height="400" viewBox="0 0 2400 1600">
<defs>
  <clipPath id="clip100">
    <rect x="0" y="0" width="2400" height="1600"/>
  </clipPath>
</defs>
<path clip-path="url(#clip100)" d="
M0 1600 L2400 1600 L2400 0 L0 0  Z
  " fill="#ffffff" fill-rule="evenodd" fill-opacity="1"/>
<defs>
  <clipPath id="clip101">
    <rect x="480" y="0" width="1681" height="1600"/>
  </clipPath>
</defs>
<path clip-path="url(#clip100)" d="
M244.451 1423.18 L2352.76 1423.18 L2352.76 123.472 L244.451 123.472  Z
  " fill="#ffffff" fill-rule="evenodd" fill-opacity="1"/>
<defs>
  <clipPath id="clip102">
    <rect x="244" y="123" width="2109" height="1301"/>
  </clipPath>
</defs>
<polyline clip-path="url(#clip102)" style="stroke:#000000; stroke-linecap:butt; stroke-linejoin:round; stroke-width:2; stroke-opacity:0.1; fill:none" points="
  244.451,1423.18 244.451,123.472 
  "/>
<polyline clip-path="url(#clip102)" style="stroke:#000000; stroke-linecap:butt; stroke-linejoin:round; stroke-width:2; stroke-opacity:0.1; fill:none" points="
  771.552,1423.18 771.552,123.472 
  "/>
<polyline clip-path="url(#clip102)" style="stroke:#000000; stroke-linecap:butt; stroke-linejoin:round; stroke-width:2; stroke-opacity:0.1; fill:none" points="
  1298.65,1423.18 1298.65,123.472 
  "/>
<polyline clip-path="url(#clip102)" style="stroke:#000000; stroke-linecap:butt; stroke-linejoin:round; stroke-width:2; stroke-opacity:0.1; fill:none" points="
  1825.75,1423.18 1825.75,123.472 
  "/>
<polyline clip-path="url(#clip100)" style="stroke:#000000; stroke-linecap:butt; stroke-linejoin:round; stroke-width:4; stroke-opacity:1; fill:none" points="
  244.451,1423.18 2352.76,1423.18 
  "/>
<polyline clip-path="url(#clip100)" style="stroke:#000000; stroke-linecap:butt; stroke-linejoin:round; stroke-width:4; stroke-opacity:1; fill:none" points="
  244.451,1423.18 244.451,1404.28 
  "/>
<polyline clip-path="url(#clip100)" style="stroke:#000000; stroke-linecap:butt; stroke-linejoin:round; stroke-width:4; stroke-opacity:1; fill:none" points="
  771.552,1423.18 771.552,1404.28 
  "/>
<polyline clip-path="url(#clip100)" style="stroke:#000000; stroke-linecap:butt; stroke-linejoin:round; stroke-width:4; stroke-opacity:1; fill:none" points="
  1298.65,1423.18 1298.65,1404.28 
  "/>
<polyline clip-path="url(#clip100)" style="stroke:#000000; stroke-linecap:butt; stroke-linejoin:round; stroke-width:4; stroke-opacity:1; fill:none" points="
  1825.75,1423.18 1825.75,1404.28 
  "/>
<path clip-path="url(#clip100)" d="M221.835 1452.37 Q218.224 1452.37 216.396 1455.94 Q214.59 1459.48 214.59 1466.61 Q214.59 1473.71 216.396 1477.28 Q218.224 1480.82 221.835 1480.82 Q225.47 1480.82 227.275 1477.28 Q229.104 1473.71 229.104 1466.61 Q229.104 1459.48 227.275 1455.94 Q225.47 1452.37 221.835 1452.37 M221.835 1448.67 Q227.645 1448.67 230.701 1453.27 Q233.78 1457.86 233.78 1466.61 Q233.78 1475.33 230.701 1479.94 Q227.645 1484.52 221.835 1484.52 Q216.025 1484.52 212.946 1479.94 Q209.891 1475.33 209.891 1466.61 Q209.891 1457.86 212.946 1453.27 Q216.025 1448.67 221.835 1448.67 Z" fill="#000000" fill-rule="evenodd" fill-opacity="1" /><path clip-path="url(#clip100)" d="M241.997 1477.97 L246.881 1477.97 L246.881 1483.85 L241.997 1483.85 L241.997 1477.97 Z" fill="#000000" fill-rule="evenodd" fill-opacity="1" /><path clip-path="url(#clip100)" d="M267.067 1452.37 Q263.455 1452.37 261.627 1455.94 Q259.821 1459.48 259.821 1466.61 Q259.821 1473.71 261.627 1477.28 Q263.455 1480.82 267.067 1480.82 Q270.701 1480.82 272.506 1477.28 Q274.335 1473.71 274.335 1466.61 Q274.335 1459.48 272.506 1455.94 Q270.701 1452.37 267.067 1452.37 M267.067 1448.67 Q272.877 1448.67 275.932 1453.27 Q279.011 1457.86 279.011 1466.61 Q279.011 1475.33 275.932 1479.94 Q272.877 1484.52 267.067 1484.52 Q261.256 1484.52 258.178 1479.94 Q255.122 1475.33 255.122 1466.61 Q255.122 1457.86 258.178 1453.27 Q261.256 1448.67 267.067 1448.67 Z" fill="#000000" fill-rule="evenodd" fill-opacity="1" /><path clip-path="url(#clip100)" d="M749.434 1452.37 Q745.823 1452.37 743.994 1455.94 Q742.188 1459.48 742.188 1466.61 Q742.188 1473.71 743.994 1477.28 Q745.823 1480.82 749.434 1480.82 Q753.068 1480.82 754.874 1477.28 Q756.702 1473.71 756.702 1466.61 Q756.702 1459.48 754.874 1455.94 Q753.068 1452.37 749.434 1452.37 M749.434 1448.67 Q755.244 1448.67 758.299 1453.27 Q761.378 1457.86 761.378 1466.61 Q761.378 1475.33 758.299 1479.94 Q755.244 1484.52 749.434 1484.52 Q743.624 1484.52 740.545 1479.94 Q737.489 1475.33 737.489 1466.61 Q737.489 1457.86 740.545 1453.27 Q743.624 1448.67 749.434 1448.67 Z" fill="#000000" fill-rule="evenodd" fill-opacity="1" /><path clip-path="url(#clip100)" d="M769.596 1477.97 L774.48 1477.97 L774.48 1483.85 L769.596 1483.85 L769.596 1477.97 Z" fill="#000000" fill-rule="evenodd" fill-opacity="1" /><path clip-path="url(#clip100)" d="M784.711 1449.29 L803.068 1449.29 L803.068 1453.23 L788.994 1453.23 L788.994 1461.7 Q790.012 1461.35 791.031 1461.19 Q792.049 1461 793.068 1461 Q798.855 1461 802.234 1464.18 Q805.614 1467.35 805.614 1472.76 Q805.614 1478.34 802.142 1481.44 Q798.67 1484.52 792.35 1484.52 Q790.174 1484.52 787.906 1484.15 Q785.66 1483.78 783.253 1483.04 L783.253 1478.34 Q785.336 1479.48 787.559 1480.03 Q789.781 1480.59 792.258 1480.59 Q796.262 1480.59 798.6 1478.48 Q800.938 1476.38 800.938 1472.76 Q800.938 1469.15 798.6 1467.05 Q796.262 1464.94 792.258 1464.94 Q790.383 1464.94 788.508 1465.36 Q786.656 1465.77 784.711 1466.65 L784.711 1449.29 Z" fill="#000000" fill-rule="evenodd" fill-opacity="1" /><path clip-path="url(#clip100)" d="M1265.81 1479.92 L1273.44 1479.92 L1273.44 1453.55 L1265.13 1455.22 L1265.13 1450.96 L1273.4 1449.29 L1278.07 1449.29 L1278.07 1479.92 L1285.71 1479.92 L1285.71 1483.85 L1265.81 1483.85 L1265.81 1479.92 Z" fill="#000000" fill-rule="evenodd" fill-opacity="1" /><path clip-path="url(#clip100)" d="M1295.16 1477.97 L1300.04 1477.97 L1300.04 1483.85 L1295.16 1483.85 L1295.16 1477.97 Z" fill="#000000" fill-rule="evenodd" fill-opacity="1" /><path clip-path="url(#clip100)" d="M1320.23 1452.37 Q1316.62 1452.37 1314.79 1455.94 Q1312.98 1459.48 1312.98 1466.61 Q1312.98 1473.71 1314.79 1477.28 Q1316.62 1480.82 1320.23 1480.82 Q1323.86 1480.82 1325.67 1477.28 Q1327.49 1473.71 1327.49 1466.61 Q1327.49 1459.48 1325.67 1455.94 Q1323.86 1452.37 1320.23 1452.37 M1320.23 1448.67 Q1326.04 1448.67 1329.09 1453.27 Q1332.17 1457.86 1332.17 1466.61 Q1332.17 1475.33 1329.09 1479.94 Q1326.04 1484.52 1320.23 1484.52 Q1314.42 1484.52 1311.34 1479.94 Q1308.28 1475.33 1308.28 1466.61 Q1308.28 1457.86 1311.34 1453.27 Q1314.42 1448.67 1320.23 1448.67 Z" fill="#000000" fill-rule="evenodd" fill-opacity="1" /><path clip-path="url(#clip100)" d="M1793.4 1479.92 L1801.04 1479.92 L1801.04 1453.55 L1792.73 1455.22 L1792.73 1450.96 L1801 1449.29 L1805.67 1449.29 L1805.67 1479.92 L1813.31 1479.92 L1813.31 1483.85 L1793.4 1483.85 L1793.4 1479.92 Z" fill="#000000" fill-rule="evenodd" fill-opacity="1" /><path clip-path="url(#clip100)" d="M1822.76 1477.97 L1827.64 1477.97 L1827.64 1483.85 L1822.76 1483.85 L1822.76 1477.97 Z" fill="#000000" fill-rule="evenodd" fill-opacity="1" /><path clip-path="url(#clip100)" d="M1837.87 1449.29 L1856.23 1449.29 L1856.23 1453.23 L1842.15 1453.23 L1842.15 1461.7 Q1843.17 1461.35 1844.19 1461.19 Q1845.21 1461 1846.23 1461 Q1852.01 1461 1855.39 1464.18 Q1858.77 1467.35 1858.77 1472.76 Q1858.77 1478.34 1855.3 1481.44 Q1851.83 1484.52 1845.51 1484.52 Q1843.33 1484.52 1841.07 1484.15 Q1838.82 1483.78 1836.41 1483.04 L1836.41 1478.34 Q1838.5 1479.48 1840.72 1480.03 Q1842.94 1480.59 1845.42 1480.59 Q1849.42 1480.59 1851.76 1478.48 Q1854.1 1476.38 1854.1 1472.76 Q1854.1 1469.15 1851.76 1467.05 Q1849.42 1464.94 1845.42 1464.94 Q1843.54 1464.94 1841.67 1465.36 Q1839.82 1465.77 1837.87 1466.65 L1837.87 1449.29 Z" fill="#000000" fill-rule="evenodd" fill-opacity="1" /><path clip-path="url(#clip100)" d="M1297.66 1522.27 L1297.66 1532.4 L1309.73 1532.4 L1309.73 1536.95 L1297.66 1536.95 L1297.66 1556.3 Q1297.66 1560.66 1298.84 1561.9 Q1300.05 1563.14 1303.71 1563.14 L1309.73 1563.14 L1309.73 1568.04 L1303.71 1568.04 Q1296.93 1568.04 1294.35 1565.53 Q1291.78 1562.98 1291.78 1556.3 L1291.78 1536.95 L1287.48 1536.95 L1287.48 1532.4 L1291.78 1532.4 L1291.78 1522.27 L1297.66 1522.27 Z" fill="#000000" fill-rule="evenodd" fill-opacity="1" /><polyline clip-path="url(#clip102)" style="stroke:#000000; stroke-linecap:butt; stroke-linejoin:round; stroke-width:2; stroke-opacity:0.1; fill:none" points="
  244.451,1363.41 2352.76,1363.41 
  "/>
<polyline clip-path="url(#clip102)" style="stroke:#000000; stroke-linecap:butt; stroke-linejoin:round; stroke-width:2; stroke-opacity:0.1; fill:none" points="
  244.451,599.903 2352.76,599.903 
  "/>
<polyline clip-path="url(#clip100)" style="stroke:#000000; stroke-linecap:butt; stroke-linejoin:round; stroke-width:4; stroke-opacity:1; fill:none" points="
  244.451,1423.18 244.451,123.472 
  "/>
<polyline clip-path="url(#clip100)" style="stroke:#000000; stroke-linecap:butt; stroke-linejoin:round; stroke-width:4; stroke-opacity:1; fill:none" points="
  244.451,1363.41 263.349,1363.41 
  "/>
<polyline clip-path="url(#clip100)" style="stroke:#000000; stroke-linecap:butt; stroke-linejoin:round; stroke-width:4; stroke-opacity:1; fill:none" points="
  244.451,599.903 263.349,599.903 
  "/>
<path clip-path="url(#clip100)" d="M137.745 1383.2 L145.384 1383.2 L145.384 1356.84 L137.074 1358.51 L137.074 1354.25 L145.338 1352.58 L150.014 1352.58 L150.014 1383.2 L157.653 1383.2 L157.653 1387.14 L137.745 1387.14 L137.745 1383.2 Z" fill="#000000" fill-rule="evenodd" fill-opacity="1" /><path clip-path="url(#clip100)" d="M177.097 1355.66 Q173.486 1355.66 171.657 1359.22 Q169.852 1362.76 169.852 1369.89 Q169.852 1377 171.657 1380.57 Q173.486 1384.11 177.097 1384.11 Q180.731 1384.11 182.537 1380.57 Q184.365 1377 184.365 1369.89 Q184.365 1362.76 182.537 1359.22 Q180.731 1355.66 177.097 1355.66 M177.097 1351.95 Q182.907 1351.95 185.963 1356.56 Q189.041 1361.14 189.041 1369.89 Q189.041 1378.62 185.963 1383.23 Q182.907 1387.81 177.097 1387.81 Q171.287 1387.81 168.208 1383.23 Q165.153 1378.62 165.153 1369.89 Q165.153 1361.14 168.208 1356.56 Q171.287 1351.95 177.097 1351.95 Z" fill="#000000" fill-rule="evenodd" fill-opacity="1" /><path clip-path="url(#clip100)" d="M198.746 1334.15 Q195.812 1334.15 194.326 1337.05 Q192.859 1339.92 192.859 1345.72 Q192.859 1351.49 194.326 1354.39 Q195.812 1357.27 198.746 1357.27 Q201.699 1357.27 203.166 1354.39 Q204.652 1351.49 204.652 1345.72 Q204.652 1339.92 203.166 1337.05 Q201.699 1334.15 198.746 1334.15 M198.746 1331.14 Q203.467 1331.14 205.949 1334.88 Q208.451 1338.61 208.451 1345.72 Q208.451 1352.81 205.949 1356.55 Q203.467 1360.27 198.746 1360.27 Q194.025 1360.27 191.524 1356.55 Q189.041 1352.81 189.041 1345.72 Q189.041 1338.61 191.524 1334.88 Q194.025 1331.14 198.746 1331.14 Z" fill="#000000" fill-rule="evenodd" fill-opacity="1" /><path clip-path="url(#clip100)" d="M114.931 619.695 L122.57 619.695 L122.57 593.33 L114.26 594.997 L114.26 590.737 L122.524 589.071 L127.2 589.071 L127.2 619.695 L134.839 619.695 L134.839 623.631 L114.931 623.631 L114.931 619.695 Z" fill="#000000" fill-rule="evenodd" fill-opacity="1" /><path clip-path="url(#clip100)" d="M154.283 592.149 Q150.672 592.149 148.843 595.714 Q147.038 599.256 147.038 606.385 Q147.038 613.492 148.843 617.057 Q150.672 620.598 154.283 620.598 Q157.917 620.598 159.723 617.057 Q161.552 613.492 161.552 606.385 Q161.552 599.256 159.723 595.714 Q157.917 592.149 154.283 592.149 M154.283 588.446 Q160.093 588.446 163.149 593.052 Q166.227 597.635 166.227 606.385 Q166.227 615.112 163.149 619.719 Q160.093 624.302 154.283 624.302 Q148.473 624.302 145.394 619.719 Q142.339 615.112 142.339 606.385 Q142.339 597.635 145.394 593.052 Q148.473 588.446 154.283 588.446 Z" fill="#000000" fill-rule="evenodd" fill-opacity="1" /><path clip-path="url(#clip100)" d="M166.773 593.023 L172.979 593.023 L172.979 571.601 L166.227 572.955 L166.227 569.494 L172.942 568.14 L176.741 568.14 L176.741 593.023 L182.948 593.023 L182.948 596.22 L166.773 596.22 L166.773 593.023 Z" fill="#000000" fill-rule="evenodd" fill-opacity="1" /><path clip-path="url(#clip100)" d="M198.746 570.642 Q195.812 570.642 194.326 573.538 Q192.859 576.416 192.859 582.208 Q192.859 587.982 194.326 590.879 Q195.812 593.756 198.746 593.756 Q201.699 593.756 203.166 590.879 Q204.652 587.982 204.652 582.208 Q204.652 576.416 203.166 573.538 Q201.699 570.642 198.746 570.642 M198.746 567.632 Q203.467 567.632 205.949 571.375 Q208.451 575.099 208.451 582.208 Q208.451 589.299 205.949 593.042 Q203.467 596.766 198.746 596.766 Q194.025 596.766 191.524 593.042 Q189.041 589.299 189.041 582.208 Q189.041 575.099 191.524 571.375 Q194.025 567.632 198.746 567.632 Z" fill="#000000" fill-rule="evenodd" fill-opacity="1" /><path clip-path="url(#clip100)" d="M28.3562 756.711 L45.7028 769.602 L64.0042 756.043 L64.0042 762.95 L49.9996 773.326 L64.0042 783.702 L64.0042 790.609 L45.3526 776.763 L28.3562 789.431 L28.3562 782.524 L41.0558 773.071 L28.3562 763.618 L28.3562 756.711 Z" fill="#000000" fill-rule="evenodd" fill-opacity="1" /><path clip-path="url(#clip100)" d="M948.646 12.096 L959.664 12.096 L986.481 62.6918 L986.481 12.096 L994.421 12.096 L994.421 72.576 L983.403 72.576 L956.586 21.9802 L956.586 72.576 L948.646 72.576 L948.646 12.096 Z" fill="#000000" fill-rule="evenodd" fill-opacity="1" /><path clip-path="url(#clip100)" d="M1027.96 32.4315 Q1021.97 32.4315 1018.48 37.1306 Q1015 41.7891 1015 49.9314 Q1015 58.0738 1018.44 62.7728 Q1021.93 67.4314 1027.96 67.4314 Q1033.92 67.4314 1037.4 62.7323 Q1040.88 58.0333 1040.88 49.9314 Q1040.88 41.8701 1037.4 37.1711 Q1033.92 32.4315 1027.96 32.4315 M1027.96 26.1121 Q1037.68 26.1121 1043.23 32.4315 Q1048.78 38.7509 1048.78 49.9314 Q1048.78 61.0714 1043.23 67.4314 Q1037.68 73.7508 1027.96 73.7508 Q1018.2 73.7508 1012.65 67.4314 Q1007.14 61.0714 1007.14 49.9314 Q1007.14 38.7509 1012.65 32.4315 Q1018.2 26.1121 1027.96 26.1121 Z" fill="#000000" fill-rule="evenodd" fill-opacity="1" /><path clip-path="url(#clip100)" d="M1098.85 45.1919 L1098.85 72.576 L1091.4 72.576 L1091.4 45.4349 Q1091.4 38.994 1088.89 35.7938 Q1086.38 32.5936 1081.35 32.5936 Q1075.32 32.5936 1071.83 36.4419 Q1068.35 40.2903 1068.35 46.9338 L1068.35 72.576 L1060.86 72.576 L1060.86 27.2059 L1068.35 27.2059 L1068.35 34.2544 Q1071.02 30.163 1074.63 28.1376 Q1078.27 26.1121 1083.01 26.1121 Q1090.83 26.1121 1094.84 30.9732 Q1098.85 35.7938 1098.85 45.1919 Z" fill="#000000" fill-rule="evenodd" fill-opacity="1" /><path clip-path="url(#clip100)" d="M1113.72 9.54393 L1121.17 9.54393 L1121.17 72.576 L1113.72 72.576 L1113.72 9.54393 Z" fill="#000000" fill-rule="evenodd" fill-opacity="1" /><path clip-path="url(#clip100)" d="M1136.77 27.2059 L1144.22 27.2059 L1144.22 72.576 L1136.77 72.576 L1136.77 27.2059 M1136.77 9.54393 L1144.22 9.54393 L1144.22 18.9825 L1136.77 18.9825 L1136.77 9.54393 Z" fill="#000000" fill-rule="evenodd" fill-opacity="1" /><path clip-path="url(#clip100)" d="M1197.53 45.1919 L1197.53 72.576 L1190.08 72.576 L1190.08 45.4349 Q1190.08 38.994 1187.57 35.7938 Q1185.06 32.5936 1180.03 32.5936 Q1174 32.5936 1170.51 36.4419 Q1167.03 40.2903 1167.03 46.9338 L1167.03 72.576 L1159.54 72.576 L1159.54 27.2059 L1167.03 27.2059 L1167.03 34.2544 Q1169.7 30.163 1173.31 28.1376 Q1176.95 26.1121 1181.69 26.1121 Q1189.51 26.1121 1193.52 30.9732 Q1197.53 35.7938 1197.53 45.1919 Z" fill="#000000" fill-rule="evenodd" fill-opacity="1" /><path clip-path="url(#clip100)" d="M1251.21 48.0275 L1251.21 51.6733 L1216.94 51.6733 Q1217.42 59.3701 1221.56 63.421 Q1225.73 67.4314 1233.14 67.4314 Q1237.43 67.4314 1241.45 66.3781 Q1245.5 65.3249 1249.47 63.2184 L1249.47 70.267 Q1245.46 71.9684 1241.24 72.8596 Q1237.03 73.7508 1232.7 73.7508 Q1221.84 73.7508 1215.48 67.4314 Q1209.16 61.1119 1209.16 50.3365 Q1209.16 39.1965 1215.15 32.6746 Q1221.19 26.1121 1231.4 26.1121 Q1240.55 26.1121 1245.86 32.0264 Q1251.21 37.9003 1251.21 48.0275 M1243.75 45.84 Q1243.67 39.7232 1240.31 36.0774 Q1236.99 32.4315 1231.48 32.4315 Q1225.24 32.4315 1221.47 35.9558 Q1217.75 39.4801 1217.18 45.8805 L1243.75 45.84 Z" fill="#000000" fill-rule="evenodd" fill-opacity="1" /><path clip-path="url(#clip100)" d="M1284.06 49.7694 Q1275.03 49.7694 1271.54 51.8354 Q1268.06 53.9013 1268.06 58.8839 Q1268.06 62.8538 1270.65 65.2034 Q1273.29 67.5124 1277.78 67.5124 Q1283.98 67.5124 1287.71 63.1374 Q1291.47 58.7219 1291.47 51.4303 L1291.47 49.7694 L1284.06 49.7694 M1298.93 46.6907 L1298.93 72.576 L1291.47 72.576 L1291.47 65.6895 Q1288.92 69.8214 1285.11 71.8063 Q1281.31 73.7508 1275.8 73.7508 Q1268.83 73.7508 1264.7 69.8619 Q1260.61 65.9325 1260.61 59.3701 Q1260.61 51.7138 1265.71 47.825 Q1270.85 43.9361 1281.02 43.9361 L1291.47 43.9361 L1291.47 43.2069 Q1291.47 38.0623 1288.07 35.2672 Q1284.71 32.4315 1278.59 32.4315 Q1274.7 32.4315 1271.02 33.3632 Q1267.33 34.295 1263.93 36.1584 L1263.93 29.2718 Q1268.02 27.692 1271.87 26.9223 Q1275.72 26.1121 1279.36 26.1121 Q1289.21 26.1121 1294.07 31.2163 Q1298.93 36.3204 1298.93 46.6907 Z" fill="#000000" fill-rule="evenodd" fill-opacity="1" /><path clip-path="url(#clip100)" d="M1340.57 34.1734 Q1339.31 33.4443 1337.82 33.1202 Q1336.36 32.7556 1334.58 32.7556 Q1328.26 32.7556 1324.85 36.8875 Q1321.49 40.9789 1321.49 48.6757 L1321.49 72.576 L1314 72.576 L1314 27.2059 L1321.49 27.2059 L1321.49 34.2544 Q1323.84 30.1225 1327.61 28.1376 Q1331.38 26.1121 1336.76 26.1121 Q1337.53 26.1121 1338.46 26.2337 Q1339.4 26.3147 1340.53 26.5172 L1340.57 34.1734 Z" fill="#000000" fill-rule="evenodd" fill-opacity="1" /><path clip-path="url(#clip100)" d="M1404.62 49.3643 Q1404.62 41.2625 1401.25 36.8065 Q1397.93 32.3505 1391.9 32.3505 Q1385.9 32.3505 1382.54 36.8065 Q1379.22 41.2625 1379.22 49.3643 Q1379.22 57.4256 1382.54 61.8816 Q1385.9 66.3376 1391.9 66.3376 Q1397.93 66.3376 1401.25 61.8816 Q1404.62 57.4256 1404.62 49.3643 M1412.07 66.9452 Q1412.07 78.5308 1406.92 84.1616 Q1401.78 89.8329 1391.17 89.8329 Q1387.24 89.8329 1383.75 89.2252 Q1380.27 88.6581 1376.99 87.4428 L1376.99 80.1917 Q1380.27 81.9741 1383.47 82.8248 Q1386.67 83.6755 1389.99 83.6755 Q1397.32 83.6755 1400.97 79.8271 Q1404.62 76.0193 1404.62 68.282 L1404.62 64.5957 Q1402.31 68.6061 1398.7 70.5911 Q1395.1 72.576 1390.07 72.576 Q1381.73 72.576 1376.62 66.2161 Q1371.52 59.8562 1371.52 49.3643 Q1371.52 38.832 1376.62 32.472 Q1381.73 26.1121 1390.07 26.1121 Q1395.1 26.1121 1398.7 28.0971 Q1402.31 30.082 1404.62 34.0924 L1404.62 27.2059 L1412.07 27.2059 L1412.07 66.9452 Z" fill="#000000" fill-rule="evenodd" fill-opacity="1" /><path clip-path="url(#clip100)" d="M1453.71 34.1734 Q1452.46 33.4443 1450.96 33.1202 Q1449.5 32.7556 1447.72 32.7556 Q1441.4 32.7556 1438 36.8875 Q1434.63 40.9789 1434.63 48.6757 L1434.63 72.576 L1427.14 72.576 L1427.14 27.2059 L1434.63 27.2059 L1434.63 34.2544 Q1436.98 30.1225 1440.75 28.1376 Q1444.52 26.1121 1449.9 26.1121 Q1450.67 26.1121 1451.61 26.2337 Q1452.54 26.3147 1453.67 26.5172 L1453.71 34.1734 Z" fill="#000000" fill-rule="evenodd" fill-opacity="1" /><path clip-path="url(#clip100)" d="M1477.29 32.4315 Q1471.29 32.4315 1467.81 37.1306 Q1464.33 41.7891 1464.33 49.9314 Q1464.33 58.0738 1467.77 62.7728 Q1471.25 67.4314 1477.29 67.4314 Q1483.24 67.4314 1486.73 62.7323 Q1490.21 58.0333 1490.21 49.9314 Q1490.21 41.8701 1486.73 37.1711 Q1483.24 32.4315 1477.29 32.4315 M1477.29 26.1121 Q1487.01 26.1121 1492.56 32.4315 Q1498.11 38.7509 1498.11 49.9314 Q1498.11 61.0714 1492.56 67.4314 Q1487.01 73.7508 1477.29 73.7508 Q1467.53 73.7508 1461.98 67.4314 Q1456.47 61.0714 1456.47 49.9314 Q1456.47 38.7509 1461.98 32.4315 Q1467.53 26.1121 1477.29 26.1121 Z" fill="#000000" fill-rule="evenodd" fill-opacity="1" /><path clip-path="url(#clip100)" d="M1506.13 27.2059 L1513.58 27.2059 L1522.9 62.6108 L1532.18 27.2059 L1540.97 27.2059 L1550.29 62.6108 L1559.56 27.2059 L1567.02 27.2059 L1555.15 72.576 L1546.36 72.576 L1536.59 35.3887 L1526.79 72.576 L1518 72.576 L1506.13 27.2059 Z" fill="#000000" fill-rule="evenodd" fill-opacity="1" /><path clip-path="url(#clip100)" d="M1585.69 14.324 L1585.69 27.2059 L1601.04 27.2059 L1601.04 32.9987 L1585.69 32.9987 L1585.69 57.6282 Q1585.69 63.1779 1587.19 64.7578 Q1588.73 66.3376 1593.39 66.3376 L1601.04 66.3376 L1601.04 72.576 L1593.39 72.576 Q1584.76 72.576 1581.48 69.3758 Q1578.2 66.1351 1578.2 57.6282 L1578.2 32.9987 L1572.73 32.9987 L1572.73 27.2059 L1578.2 27.2059 L1578.2 14.324 L1585.69 14.324 Z" fill="#000000" fill-rule="evenodd" fill-opacity="1" /><path clip-path="url(#clip100)" d="M1648.56 45.1919 L1648.56 72.576 L1641.11 72.576 L1641.11 45.4349 Q1641.11 38.994 1638.6 35.7938 Q1636.08 32.5936 1631.06 32.5936 Q1625.03 32.5936 1621.54 36.4419 Q1618.06 40.2903 1618.06 46.9338 L1618.06 72.576 L1610.56 72.576 L1610.56 9.54393 L1618.06 9.54393 L1618.06 34.2544 Q1620.73 30.163 1624.34 28.1376 Q1627.98 26.1121 1632.72 26.1121 Q1640.54 26.1121 1644.55 30.9732 Q1648.56 35.7938 1648.56 45.1919 Z" fill="#000000" fill-rule="evenodd" fill-opacity="1" /><polyline clip-path="url(#clip102)" style="stroke:#009af9; stroke-linecap:butt; stroke-linejoin:round; stroke-width:8; stroke-opacity:1; fill:none" points="
  244.451,1386.4 246.561,1386.36 248.672,1386.33 250.782,1386.3 252.893,1386.26 255.003,1386.23 257.113,1386.2 259.224,1386.16 261.334,1386.13 263.445,1386.1 
  265.555,1386.06 267.665,1386.03 269.776,1385.99 271.886,1385.96 273.997,1385.93 276.107,1385.89 278.218,1385.86 280.328,1385.83 282.438,1385.79 284.549,1385.76 
  286.659,1385.73 288.77,1385.69 290.88,1385.66 292.99,1385.62 295.101,1385.59 297.211,1385.56 299.322,1385.52 301.432,1385.49 303.543,1385.45 305.653,1385.42 
  307.763,1385.38 309.874,1385.35 311.984,1385.32 314.095,1385.28 316.205,1385.25 318.315,1385.21 320.426,1385.18 322.536,1385.14 324.647,1385.11 326.757,1385.08 
  328.868,1385.04 330.978,1385.01 333.088,1384.97 335.199,1384.94 337.309,1384.9 339.42,1384.87 341.53,1384.83 343.64,1384.8 345.751,1384.76 347.861,1384.73 
  349.972,1384.69 352.082,1384.66 354.193,1384.62 356.303,1384.59 358.413,1384.55 360.524,1384.52 362.634,1384.48 364.745,1384.45 366.855,1384.41 368.965,1384.38 
  371.076,1384.34 373.186,1384.31 375.297,1384.27 377.407,1384.24 379.518,1384.2 381.628,1384.16 383.738,1384.13 385.849,1384.09 387.959,1384.06 390.07,1384.02 
  392.18,1383.99 394.29,1383.95 396.401,1383.92 398.511,1383.88 400.622,1383.84 402.732,1383.81 404.842,1383.77 406.953,1383.74 409.063,1383.7 411.174,1383.66 
  413.284,1383.63 415.395,1383.59 417.505,1383.56 419.615,1383.52 421.726,1383.48 423.836,1383.45 425.947,1383.41 428.057,1383.37 430.167,1383.34 432.278,1383.3 
  434.388,1383.27 436.499,1383.23 438.609,1383.19 440.72,1383.16 442.83,1383.12 444.94,1383.08 447.051,1383.05 449.161,1383.01 451.272,1382.97 453.382,1382.94 
  455.492,1382.9 457.603,1382.86 459.713,1382.82 461.824,1382.79 463.934,1382.75 466.045,1382.71 468.155,1382.68 470.265,1382.64 472.376,1382.6 474.486,1382.56 
  476.597,1382.53 478.707,1382.49 480.817,1382.45 482.928,1382.42 485.038,1382.38 487.149,1382.34 489.259,1382.3 491.37,1382.27 493.48,1382.23 495.59,1382.19 
  497.701,1382.15 499.811,1382.11 501.922,1382.08 504.032,1382.04 506.142,1382 508.253,1381.96 510.363,1381.93 512.474,1381.89 514.584,1381.85 516.695,1381.81 
  518.805,1381.77 520.915,1381.73 523.026,1381.7 525.136,1381.66 527.247,1381.62 529.357,1381.58 531.467,1381.54 533.578,1381.5 535.688,1381.47 537.799,1381.43 
  539.909,1381.39 542.019,1381.35 544.13,1381.31 546.24,1381.27 548.351,1381.23 550.461,1381.2 552.572,1381.16 554.682,1381.12 556.792,1381.08 558.903,1381.04 
  561.013,1381 563.124,1380.96 565.234,1380.92 567.344,1380.88 569.455,1380.84 571.565,1380.81 573.676,1380.77 575.786,1380.73 577.897,1380.69 580.007,1380.65 
  582.117,1380.61 584.228,1380.57 586.338,1380.53 588.449,1380.49 590.559,1380.45 592.669,1380.41 594.78,1380.37 596.89,1380.33 599.001,1380.29 601.111,1380.25 
  603.222,1380.21 605.332,1380.17 607.442,1380.13 609.553,1380.09 611.663,1380.05 613.774,1380.01 615.884,1379.97 617.994,1379.93 620.105,1379.89 622.215,1379.85 
  624.326,1379.81 626.436,1379.77 628.547,1379.73 630.657,1379.69 632.767,1379.65 634.878,1379.61 636.988,1379.56 639.099,1379.52 641.209,1379.48 643.319,1379.44 
  645.43,1379.4 647.54,1379.36 649.651,1379.32 651.761,1379.28 653.872,1379.24 655.982,1379.2 658.092,1379.15 660.203,1379.11 662.313,1379.07 664.424,1379.03 
  666.534,1378.99 668.644,1378.95 670.755,1378.91 672.865,1378.86 674.976,1378.82 677.086,1378.78 679.196,1378.74 681.307,1378.7 683.417,1378.65 685.528,1378.61 
  687.638,1378.57 689.749,1378.53 691.859,1378.49 693.969,1378.44 696.08,1378.4 698.19,1378.36 700.301,1378.32 702.411,1378.28 704.521,1378.23 706.632,1378.19 
  708.742,1378.15 710.853,1378.11 712.963,1378.06 715.074,1378.02 717.184,1377.98 719.294,1377.93 721.405,1377.89 723.515,1377.85 725.626,1377.81 727.736,1377.76 
  729.846,1377.72 731.957,1377.68 734.067,1377.63 736.178,1377.59 738.288,1377.55 740.399,1377.5 742.509,1377.46 744.619,1377.42 746.73,1377.37 748.84,1377.33 
  750.951,1377.29 753.061,1377.24 755.171,1377.2 757.282,1377.15 759.392,1377.11 761.503,1377.07 763.613,1377.02 765.724,1376.98 767.834,1376.93 769.944,1376.89 
  772.055,1376.85 774.165,1376.8 776.276,1376.76 778.386,1376.71 780.496,1376.67 782.607,1376.62 784.717,1376.58 786.828,1376.53 788.938,1376.49 791.049,1376.44 
  793.159,1376.4 795.269,1376.35 797.38,1376.31 799.49,1376.26 801.601,1376.22 803.711,1376.17 805.821,1376.13 807.932,1376.08 810.042,1376.04 812.153,1375.99 
  814.263,1375.95 816.373,1375.9 818.484,1375.86 820.594,1375.81 822.705,1375.77 824.815,1375.72 826.926,1375.67 829.036,1375.63 831.146,1375.58 833.257,1375.54 
  835.367,1375.49 837.478,1375.44 839.588,1375.4 841.698,1375.35 843.809,1375.3 845.919,1375.26 848.03,1375.21 850.14,1375.16 852.251,1375.12 854.361,1375.07 
  856.471,1375.02 858.582,1374.98 860.692,1374.93 862.803,1374.88 864.913,1374.84 867.023,1374.79 869.134,1374.74 871.244,1374.7 873.355,1374.65 875.465,1374.6 
  877.576,1374.55 879.686,1374.51 881.796,1374.46 883.907,1374.41 886.017,1374.36 888.128,1374.32 890.238,1374.27 892.348,1374.22 894.459,1374.17 896.569,1374.12 
  898.68,1374.08 900.79,1374.03 902.901,1373.98 905.011,1373.93 907.121,1373.88 909.232,1373.84 911.342,1373.79 913.453,1373.74 915.563,1373.69 917.673,1373.64 
  919.784,1373.59 921.894,1373.54 924.005,1373.49 926.115,1373.45 928.226,1373.4 930.336,1373.35 932.446,1373.3 934.557,1373.25 936.667,1373.2 938.778,1373.15 
  940.888,1373.1 942.998,1373.05 945.109,1373 947.219,1372.95 949.33,1372.9 951.44,1372.85 953.55,1372.8 955.661,1372.75 957.771,1372.7 959.882,1372.65 
  961.992,1372.6 964.103,1372.55 966.213,1372.5 968.323,1372.45 970.434,1372.4 972.544,1372.35 974.655,1372.3 976.765,1372.25 978.875,1372.2 980.986,1372.15 
  983.096,1372.09 985.207,1372.04 987.317,1371.99 989.428,1371.94 991.538,1371.89 993.648,1371.84 995.759,1371.79 997.869,1371.74 999.98,1371.68 1002.09,1371.63 
  1004.2,1371.58 1006.31,1371.53 1008.42,1371.48 1010.53,1371.42 1012.64,1371.37 1014.75,1371.32 1016.86,1371.27 1018.97,1371.22 1021.08,1371.16 1023.19,1371.11 
  1025.3,1371.06 1027.42,1371 1029.53,1370.95 1031.64,1370.9 1033.75,1370.85 1035.86,1370.79 1037.97,1370.74 1040.08,1370.69 1042.19,1370.63 1044.3,1370.58 
  1046.41,1370.53 1048.52,1370.47 1050.63,1370.42 1052.74,1370.37 1054.85,1370.31 1056.96,1370.26 1059.07,1370.2 1061.18,1370.15 1063.29,1370.09 1065.4,1370.04 
  1067.51,1369.99 1069.62,1369.93 1071.73,1369.88 1073.84,1369.82 1075.95,1369.77 1078.06,1369.71 1080.18,1369.66 1082.29,1369.6 1084.4,1369.55 1086.51,1369.49 
  1088.62,1369.44 1090.73,1369.38 1092.84,1369.33 1094.95,1369.27 1097.06,1369.21 1099.17,1369.16 1101.28,1369.1 1103.39,1369.05 1105.5,1368.99 1107.61,1368.93 
  1109.72,1368.88 1111.83,1368.82 1113.94,1368.77 1116.05,1368.71 1118.16,1368.65 1120.27,1368.6 1122.38,1368.54 1124.49,1368.48 1126.6,1368.43 1128.71,1368.37 
  1130.83,1368.31 1132.94,1368.25 1135.05,1368.2 1137.16,1368.14 1139.27,1368.08 1141.38,1368.02 1143.49,1367.97 1145.6,1367.91 1147.71,1367.85 1149.82,1367.79 
  1151.93,1367.73 1154.04,1367.67 1156.15,1367.62 1158.26,1367.56 1160.37,1367.5 1162.48,1367.44 1164.59,1367.38 1166.7,1367.32 1168.81,1367.26 1170.92,1367.2 
  1173.03,1367.14 1175.14,1367.09 1177.25,1367.03 1179.36,1366.97 1181.48,1366.91 1183.59,1366.85 1185.7,1366.79 1187.81,1366.73 1189.92,1366.67 1192.03,1366.61 
  1194.14,1366.55 1196.25,1366.48 1198.36,1366.42 1200.47,1366.36 1202.58,1366.3 1204.69,1366.24 1206.8,1366.18 1208.91,1366.12 1211.02,1366.06 1213.13,1366 
  1215.24,1365.93 1217.35,1365.87 1219.46,1365.81 1221.57,1365.75 1223.68,1365.69 1225.79,1365.62 1227.9,1365.56 1230.01,1365.5 1232.13,1365.44 1234.24,1365.37 
  1236.35,1365.31 1238.46,1365.25 1240.57,1365.18 1242.68,1365.12 1244.79,1365.06 1246.9,1364.99 1249.01,1364.93 1251.12,1364.87 1253.23,1364.8 1255.34,1364.74 
  1257.45,1364.68 1259.56,1364.61 1261.67,1364.55 1263.78,1364.48 1265.89,1364.42 1268,1364.35 1270.11,1364.29 1272.22,1364.22 1274.33,1364.16 1276.44,1364.09 
  1278.55,1364.03 1280.66,1363.96 1282.78,1363.9 1284.89,1363.83 1287,1363.77 1289.11,1363.7 1291.22,1363.64 1293.33,1363.57 1295.44,1363.5 1297.55,1363.44 
  1299.66,1363.37 1301.77,1363.3 1303.88,1363.24 1305.99,1363.17 1308.1,1363.1 1310.21,1363.04 1312.32,1362.97 1314.43,1362.9 1316.54,1362.84 1318.65,1362.77 
  1320.76,1362.7 1322.87,1362.63 1324.98,1362.56 1327.09,1362.5 1329.2,1362.43 1331.31,1362.36 1333.43,1362.29 1335.54,1362.22 1337.65,1362.15 1339.76,1362.09 
  1341.87,1362.02 1343.98,1361.95 1346.09,1361.88 1348.2,1361.81 1350.31,1361.74 1352.42,1361.67 1354.53,1361.6 1356.64,1361.53 1358.75,1361.46 1360.86,1361.39 
  1362.97,1361.32 1365.08,1361.25 1367.19,1361.18 1369.3,1361.11 1371.41,1361.04 1373.52,1360.96 1375.63,1360.89 1377.74,1360.82 1379.85,1360.75 1381.96,1360.68 
  1384.08,1360.61 1386.19,1360.53 1388.3,1360.46 1390.41,1360.39 1392.52,1360.32 1394.63,1360.24 1396.74,1360.17 1398.85,1360.1 1400.96,1360.03 1403.07,1359.95 
  1405.18,1359.88 1407.29,1359.8 1409.4,1359.73 1411.51,1359.66 1413.62,1359.58 1415.73,1359.51 1417.84,1359.43 1419.95,1359.36 1422.06,1359.28 1424.17,1359.21 
  1426.28,1359.13 1428.39,1359.06 1430.5,1358.98 1432.61,1358.91 1434.73,1358.83 1436.84,1358.76 1438.95,1358.68 1441.06,1358.6 1443.17,1358.53 1445.28,1358.45 
  1447.39,1358.37 1449.5,1358.3 1451.61,1358.22 1453.72,1358.14 1455.83,1358.06 1457.94,1357.98 1460.05,1357.91 1462.16,1357.83 1464.27,1357.75 1466.38,1357.67 
  1468.49,1357.59 1470.6,1357.51 1472.71,1357.43 1474.82,1357.35 1476.93,1357.27 1479.04,1357.19 1481.15,1357.11 1483.26,1357.03 1485.38,1356.95 1487.49,1356.87 
  1489.6,1356.79 1491.71,1356.71 1493.82,1356.63 1495.93,1356.55 1498.04,1356.47 1500.15,1356.38 1502.26,1356.3 1504.37,1356.22 1506.48,1356.14 1508.59,1356.05 
  1510.7,1355.97 1512.81,1355.89 1514.92,1355.8 1517.03,1355.72 1519.14,1355.64 1521.25,1355.55 1523.36,1355.47 1525.47,1355.38 1527.58,1355.3 1529.69,1355.21 
  1531.8,1355.13 1533.91,1355.04 1536.03,1354.96 1538.14,1354.87 1540.25,1354.79 1542.36,1354.7 1544.47,1354.61 1546.58,1354.53 1548.69,1354.44 1550.8,1354.35 
  1552.91,1354.26 1555.02,1354.18 1557.13,1354.09 1559.24,1354 1561.35,1353.91 1563.46,1353.82 1565.57,1353.73 1567.68,1353.65 1569.79,1353.56 1571.9,1353.47 
  1574.01,1353.38 1576.12,1353.29 1578.23,1353.2 1580.34,1353.11 1582.45,1353.01 1584.56,1352.92 1586.68,1352.83 1588.79,1352.74 1590.9,1352.65 1593.01,1352.56 
  1595.12,1352.46 1597.23,1352.37 1599.34,1352.28 1601.45,1352.19 1603.56,1352.09 1605.67,1352 1607.78,1351.9 1609.89,1351.81 1612,1351.72 1614.11,1351.62 
  1616.22,1351.53 1618.33,1351.43 1620.44,1351.34 1622.55,1351.24 1624.66,1351.14 1626.77,1351.04 1628.88,1350.95 1630.99,1350.85 1633.1,1350.75 1635.21,1350.65 
  1637.33,1350.55 1639.44,1350.45 1641.55,1350.35 1643.66,1350.25 1645.77,1350.14 1647.88,1350.04 1649.99,1349.94 1652.1,1349.83 1654.21,1349.73 1656.32,1349.63 
  1658.43,1349.52 1660.54,1349.42 1662.65,1349.31 1664.76,1349.21 1666.87,1349.1 1668.98,1349 1671.09,1348.89 1673.2,1348.78 1675.31,1348.68 1677.42,1348.57 
  1679.53,1348.46 1681.64,1348.35 1683.75,1348.25 1685.86,1348.14 1687.98,1348.03 1690.09,1347.92 1692.2,1347.81 1694.31,1347.7 1696.42,1347.59 1698.53,1347.48 
  1700.64,1347.37 1702.75,1347.26 1704.86,1347.15 1706.97,1347.04 1709.08,1346.93 1711.19,1346.82 1713.3,1346.71 1715.41,1346.6 1717.52,1346.49 1719.63,1346.38 
  1721.74,1346.26 1723.85,1346.15 1725.96,1346.04 1728.07,1345.93 1730.18,1345.81 1732.29,1345.7 1734.4,1345.59 1736.51,1345.47 1738.63,1345.36 1740.74,1345.25 
  1742.85,1345.13 1744.96,1345.02 1747.07,1344.9 1749.18,1344.79 1751.29,1344.67 1753.4,1344.56 1755.51,1344.44 1757.62,1344.33 1759.73,1344.21 1761.84,1344.09 
  1763.95,1343.98 1766.06,1343.86 1768.17,1343.74 1770.28,1343.62 1772.39,1343.5 1774.5,1343.39 1776.61,1343.27 1778.72,1343.15 1780.83,1343.03 1782.94,1342.91 
  1785.05,1342.79 1787.16,1342.67 1789.27,1342.55 1791.39,1342.43 1793.5,1342.31 1795.61,1342.18 1797.72,1342.06 1799.83,1341.94 1801.94,1341.82 1804.05,1341.69 
  1806.16,1341.57 1808.27,1341.44 1810.38,1341.32 1812.49,1341.19 1814.6,1341.07 1816.71,1340.94 1818.82,1340.81 1820.93,1340.69 1823.04,1340.56 1825.15,1340.43 
  1827.26,1340.3 1829.37,1340.17 1831.48,1340.04 1833.59,1339.91 1835.7,1339.78 1837.81,1339.65 1839.92,1339.52 1842.04,1339.39 1844.15,1339.25 1846.26,1339.12 
  1848.37,1338.98 1850.48,1338.85 1852.59,1338.71 1854.7,1338.58 1856.81,1338.44 1858.92,1338.3 1861.03,1338.16 1863.14,1338.02 1865.25,1337.88 1867.36,1337.74 
  1869.47,1337.6 1871.58,1337.46 1873.69,1337.32 1875.8,1337.17 1877.91,1337.03 1880.02,1336.88 1882.13,1336.74 1884.24,1336.59 1886.35,1336.44 1888.46,1336.3 
  1890.57,1336.15 1892.69,1336 1894.8,1335.85 1896.91,1335.69 1899.02,1335.54 1901.13,1335.39 1903.24,1335.24 1905.35,1335.08 1907.46,1334.92 1909.57,1334.77 
  1911.68,1334.61 1913.79,1334.45 1915.9,1334.29 1918.01,1334.13 1920.12,1333.97 1922.23,1333.81 1924.34,1333.65 1926.45,1333.48 1928.56,1333.32 1930.67,1333.15 
  1932.78,1332.98 1934.89,1332.82 1937,1332.65 1939.11,1332.48 1941.22,1332.31 1943.34,1332.13 1945.45,1331.96 1947.56,1331.79 1949.67,1331.61 1951.78,1331.44 
  1953.89,1331.26 1956,1331.08 1958.11,1330.9 1960.22,1330.72 1962.33,1330.54 1964.44,1330.36 1966.55,1330.18 1968.66,1329.99 1970.77,1329.81 1972.88,1329.62 
  1974.99,1329.43 1977.1,1329.24 1979.21,1329.05 1981.32,1328.86 1983.43,1328.67 1985.54,1328.48 1987.65,1328.28 1989.76,1328.09 1991.87,1327.89 1993.99,1327.7 
  1996.1,1327.5 1998.21,1327.3 2000.32,1327.1 2002.43,1326.9 2004.54,1326.69 2006.65,1326.49 2008.76,1326.29 2010.87,1326.08 2012.98,1325.87 2015.09,1325.67 
  2017.2,1325.46 2019.31,1325.25 2021.42,1325.03 2023.53,1324.82 2025.64,1324.61 2027.75,1324.39 2029.86,1324.18 2031.97,1323.96 2034.08,1323.74 2036.19,1323.51 
  2038.3,1323.29 2040.41,1323.06 2042.52,1322.84 2044.64,1322.61 2046.75,1322.38 2048.86,1322.15 2050.97,1321.91 2053.08,1321.68 2055.19,1321.44 2057.3,1321.2 
  2059.41,1320.96 2061.52,1320.72 2063.63,1320.48 2065.74,1320.24 2067.85,1319.99 2069.96,1319.74 2072.07,1319.5 2074.18,1319.25 2076.29,1318.99 2078.4,1318.74 
  2080.51,1318.49 2082.62,1318.23 2084.73,1317.97 2086.84,1317.71 2088.95,1317.45 2091.06,1317.18 2093.17,1316.92 2095.29,1316.65 2097.4,1316.38 2099.51,1316.11 
  2101.62,1315.83 2103.73,1315.56 2105.84,1315.28 2107.95,1315 2110.06,1314.71 2112.17,1314.43 2114.28,1314.14 2116.39,1313.84 2118.5,1313.55 2120.61,1313.25 
  2122.72,1312.95 2124.83,1312.65 2126.94,1312.34 2129.05,1312.03 2131.16,1311.72 2133.27,1311.4 2135.38,1311.08 2137.49,1310.76 2139.6,1310.43 2141.71,1310.1 
  2143.82,1309.77 2145.94,1309.43 2148.05,1309.09 2150.16,1308.74 2152.27,1308.4 2154.38,1308.04 2156.49,1307.69 2158.6,1307.33 2160.71,1306.96 2162.82,1306.59 
  2164.93,1306.22 2167.04,1305.84 2169.15,1305.46 2171.26,1305.08 2173.37,1304.69 2175.48,1304.3 2177.59,1303.9 2179.7,1303.5 2181.81,1303.09 2183.92,1302.67 
  2186.03,1302.25 2188.14,1301.82 2190.25,1301.39 2192.36,1300.95 2194.47,1300.51 2196.59,1300.06 2198.7,1299.61 2200.81,1299.15 2202.92,1298.69 2205.03,1298.22 
  2207.14,1297.74 2209.25,1297.26 2211.36,1296.77 2213.47,1296.28 2215.58,1295.78 2217.69,1295.27 2219.8,1294.75 2221.91,1294.23 2224.02,1293.69 2226.13,1293.15 
  2228.24,1292.59 2230.35,1292.03 2232.46,1291.46 2234.57,1290.87 2236.68,1290.28 2238.79,1289.67 2240.9,1289.05 2243.01,1288.41 2245.12,1287.77 2247.24,1287.11 
  2249.35,1286.43 2251.46,1285.75 2253.57,1285.05 2255.68,1284.33 2257.79,1283.6 2259.9,1282.85 2262.01,1282.08 2264.12,1281.29 2266.23,1280.48 2268.34,1279.65 
  2270.45,1278.8 2272.56,1277.94 2274.67,1277.06 2276.78,1276.16 2278.89,1275.24 2281,1274.29 2283.11,1273.31 2285.22,1272.3 2287.33,1271.26 2289.44,1270.18 
  2291.55,1269.06 2293.66,1267.9 2295.77,1266.69 2297.89,1265.43 2300,1264.12 2302.11,1262.76 2304.22,1261.34 2306.33,1259.86 2308.44,1258.3 2310.55,1256.67 
  2312.66,1254.97 2314.77,1253.19 2316.88,1251.32 2318.99,1249.33 2321.1,1247.2 2323.21,1244.91 2325.32,1242.44 2327.43,1239.77 2329.54,1236.86 2331.65,1233.69 
  2333.76,1230.23 2335.87,1226.35 2337.98,1221.91 2340.09,1216.77 2342.2,1210.71 2344.31,1203.37 2346.42,1193.77 2348.54,1180.38 2350.65,1157.39 2352.76,160.256 
  
  "/>
</svg>
