<?xml version="1.0" encoding="utf-8"?>
<svg xmlns="http://www.w3.org/2000/svg" xmlns:xlink="http://www.w3.org/1999/xlink" width="600" height="400" viewBox="0 0 2400 1600">
<defs>
  <clipPath id="clip980">
    <rect x="0" y="0" width="2400" height="1600"/>
  </clipPath>
</defs>
<path clip-path="url(#clip980)" d="
M0 1600 L2400 1600 L2400 0 L0 0  Z
  " fill="#ffffff" fill-rule="evenodd" fill-opacity="1"/>
<defs>
  <clipPath id="clip981">
    <rect x="480" y="0" width="1681" height="1600"/>
  </clipPath>
</defs>
<path clip-path="url(#clip980)" d="
M265.445 1423.18 L2352.76 1423.18 L2352.76 123.472 L265.445 123.472  Z
  " fill="#ffffff" fill-rule="evenodd" fill-opacity="1"/>
<defs>
  <clipPath id="clip982">
    <rect x="265" y="123" width="2088" height="1301"/>
  </clipPath>
</defs>
<polyline clip-path="url(#clip982)" style="stroke:#000000; stroke-linecap:butt; stroke-linejoin:round; stroke-width:2; stroke-opacity:0.1; fill:none" points="
  265.445,1423.18 265.445,123.472 
  "/>
<polyline clip-path="url(#clip982)" style="stroke:#000000; stroke-linecap:butt; stroke-linejoin:round; stroke-width:2; stroke-opacity:0.1; fill:none" points="
  787.273,1423.18 787.273,123.472 
  "/>
<polyline clip-path="url(#clip982)" style="stroke:#000000; stroke-linecap:butt; stroke-linejoin:round; stroke-width:2; stroke-opacity:0.1; fill:none" points="
  1309.1,1423.18 1309.1,123.472 
  "/>
<polyline clip-path="url(#clip982)" style="stroke:#000000; stroke-linecap:butt; stroke-linejoin:round; stroke-width:2; stroke-opacity:0.1; fill:none" points="
  1830.93,1423.18 1830.93,123.472 
  "/>
<polyline clip-path="url(#clip982)" style="stroke:#000000; stroke-linecap:butt; stroke-linejoin:round; stroke-width:2; stroke-opacity:0.1; fill:none" points="
  2352.76,1423.18 2352.76,123.472 
  "/>
<polyline clip-path="url(#clip980)" style="stroke:#000000; stroke-linecap:butt; stroke-linejoin:round; stroke-width:4; stroke-opacity:1; fill:none" points="
  265.445,1423.18 2352.76,1423.18 
  "/>
<polyline clip-path="url(#clip980)" style="stroke:#000000; stroke-linecap:butt; stroke-linejoin:round; stroke-width:4; stroke-opacity:1; fill:none" points="
  265.445,1423.18 265.445,1404.28 
  "/>
<polyline clip-path="url(#clip980)" style="stroke:#000000; stroke-linecap:butt; stroke-linejoin:round; stroke-width:4; stroke-opacity:1; fill:none" points="
  787.273,1423.18 787.273,1404.28 
  "/>
<polyline clip-path="url(#clip980)" style="stroke:#000000; stroke-linecap:butt; stroke-linejoin:round; stroke-width:4; stroke-opacity:1; fill:none" points="
  1309.1,1423.18 1309.1,1404.28 
  "/>
<polyline clip-path="url(#clip980)" style="stroke:#000000; stroke-linecap:butt; stroke-linejoin:round; stroke-width:4; stroke-opacity:1; fill:none" points="
  1830.93,1423.18 1830.93,1404.28 
  "/>
<polyline clip-path="url(#clip980)" style="stroke:#000000; stroke-linecap:butt; stroke-linejoin:round; stroke-width:4; stroke-opacity:1; fill:none" points="
  2352.76,1423.18 2352.76,1404.28 
  "/>
<path clip-path="url(#clip980)" d="M255.827 1479.92 L263.466 1479.92 L263.466 1453.55 L255.155 1455.22 L255.155 1450.96 L263.419 1449.29 L268.095 1449.29 L268.095 1479.92 L275.734 1479.92 L275.734 1483.85 L255.827 1483.85 L255.827 1479.92 Z" fill="#000000" fill-rule="evenodd" fill-opacity="1" /><path clip-path="url(#clip980)" d="M781.925 1479.92 L798.245 1479.92 L798.245 1483.85 L776.3 1483.85 L776.3 1479.92 Q778.962 1477.16 783.546 1472.53 Q788.152 1467.88 789.333 1466.54 Q791.578 1464.01 792.458 1462.28 Q793.36 1460.52 793.36 1458.83 Q793.36 1456.07 791.416 1454.34 Q789.495 1452.6 786.393 1452.6 Q784.194 1452.6 781.74 1453.37 Q779.31 1454.13 776.532 1455.68 L776.532 1450.96 Q779.356 1449.82 781.81 1449.25 Q784.263 1448.67 786.3 1448.67 Q791.671 1448.67 794.865 1451.35 Q798.059 1454.04 798.059 1458.53 Q798.059 1460.66 797.249 1462.58 Q796.462 1464.48 794.356 1467.07 Q793.777 1467.74 790.675 1470.96 Q787.573 1474.15 781.925 1479.92 Z" fill="#000000" fill-rule="evenodd" fill-opacity="1" /><path clip-path="url(#clip980)" d="M1313.35 1465.22 Q1316.7 1465.94 1318.58 1468.2 Q1320.48 1470.47 1320.48 1473.81 Q1320.48 1478.92 1316.96 1481.72 Q1313.44 1484.52 1306.96 1484.52 Q1304.78 1484.52 1302.47 1484.08 Q1300.18 1483.67 1297.72 1482.81 L1297.72 1478.3 Q1299.67 1479.43 1301.98 1480.01 Q1304.3 1480.59 1306.82 1480.59 Q1311.22 1480.59 1313.51 1478.85 Q1315.82 1477.12 1315.82 1473.81 Q1315.82 1470.75 1313.67 1469.04 Q1311.54 1467.3 1307.72 1467.3 L1303.7 1467.3 L1303.7 1463.46 L1307.91 1463.46 Q1311.36 1463.46 1313.19 1462.09 Q1315.01 1460.7 1315.01 1458.11 Q1315.01 1455.45 1313.12 1454.04 Q1311.24 1452.6 1307.72 1452.6 Q1305.8 1452.6 1303.6 1453.02 Q1301.4 1453.44 1298.76 1454.31 L1298.76 1450.15 Q1301.43 1449.41 1303.74 1449.04 Q1306.08 1448.67 1308.14 1448.67 Q1313.46 1448.67 1316.57 1451.1 Q1319.67 1453.5 1319.67 1457.63 Q1319.67 1460.5 1318.02 1462.49 Q1316.38 1464.45 1313.35 1465.22 Z" fill="#000000" fill-rule="evenodd" fill-opacity="1" /><path clip-path="url(#clip980)" d="M1833.94 1453.37 L1822.13 1471.81 L1833.94 1471.81 L1833.94 1453.37 M1832.71 1449.29 L1838.59 1449.29 L1838.59 1471.81 L1843.52 1471.81 L1843.52 1475.7 L1838.59 1475.7 L1838.59 1483.85 L1833.94 1483.85 L1833.94 1475.7 L1818.34 1475.7 L1818.34 1471.19 L1832.71 1449.29 Z" fill="#000000" fill-rule="evenodd" fill-opacity="1" /><path clip-path="url(#clip980)" d="M2343.03 1449.29 L2361.39 1449.29 L2361.39 1453.23 L2347.32 1453.23 L2347.32 1461.7 Q2348.33 1461.35 2349.35 1461.19 Q2350.37 1461 2351.39 1461 Q2357.18 1461 2360.56 1464.18 Q2363.94 1467.35 2363.94 1472.76 Q2363.94 1478.34 2360.46 1481.44 Q2356.99 1484.52 2350.67 1484.52 Q2348.5 1484.52 2346.23 1484.15 Q2343.98 1483.78 2341.58 1483.04 L2341.58 1478.34 Q2343.66 1479.48 2345.88 1480.03 Q2348.1 1480.59 2350.58 1480.59 Q2354.58 1480.59 2356.92 1478.48 Q2359.26 1476.38 2359.26 1472.76 Q2359.26 1469.15 2356.92 1467.05 Q2354.58 1464.94 2350.58 1464.94 Q2348.71 1464.94 2346.83 1465.36 Q2344.98 1465.77 2343.03 1466.65 L2343.03 1449.29 Z" fill="#000000" fill-rule="evenodd" fill-opacity="1" /><path clip-path="url(#clip980)" d="M1308.16 1522.27 L1308.16 1532.4 L1320.22 1532.4 L1320.22 1536.95 L1308.16 1536.95 L1308.16 1556.3 Q1308.16 1560.66 1309.34 1561.9 Q1310.55 1563.14 1314.21 1563.14 L1320.22 1563.14 L1320.22 1568.04 L1314.21 1568.04 Q1307.43 1568.04 1304.85 1565.53 Q1302.27 1562.98 1302.27 1556.3 L1302.27 1536.95 L1297.98 1536.95 L1297.98 1532.4 L1302.27 1532.4 L1302.27 1522.27 L1308.16 1522.27 Z" fill="#000000" fill-rule="evenodd" fill-opacity="1" /><polyline clip-path="url(#clip982)" style="stroke:#000000; stroke-linecap:butt; stroke-linejoin:round; stroke-width:2; stroke-opacity:0.1; fill:none" points="
  265.445,1386.81 2352.76,1386.81 
  "/>
<polyline clip-path="url(#clip982)" style="stroke:#000000; stroke-linecap:butt; stroke-linejoin:round; stroke-width:2; stroke-opacity:0.1; fill:none" points="
  265.445,1112.46 2352.76,1112.46 
  "/>
<polyline clip-path="url(#clip982)" style="stroke:#000000; stroke-linecap:butt; stroke-linejoin:round; stroke-width:2; stroke-opacity:0.1; fill:none" points="
  265.445,838.109 2352.76,838.109 
  "/>
<polyline clip-path="url(#clip982)" style="stroke:#000000; stroke-linecap:butt; stroke-linejoin:round; stroke-width:2; stroke-opacity:0.1; fill:none" points="
  265.445,563.76 2352.76,563.76 
  "/>
<polyline clip-path="url(#clip982)" style="stroke:#000000; stroke-linecap:butt; stroke-linejoin:round; stroke-width:2; stroke-opacity:0.1; fill:none" points="
  265.445,289.411 2352.76,289.411 
  "/>
<polyline clip-path="url(#clip980)" style="stroke:#000000; stroke-linecap:butt; stroke-linejoin:round; stroke-width:4; stroke-opacity:1; fill:none" points="
  265.445,1423.18 265.445,123.472 
  "/>
<polyline clip-path="url(#clip980)" style="stroke:#000000; stroke-linecap:butt; stroke-linejoin:round; stroke-width:4; stroke-opacity:1; fill:none" points="
  265.445,1386.81 284.342,1386.81 
  "/>
<polyline clip-path="url(#clip980)" style="stroke:#000000; stroke-linecap:butt; stroke-linejoin:round; stroke-width:4; stroke-opacity:1; fill:none" points="
  265.445,1112.46 284.342,1112.46 
  "/>
<polyline clip-path="url(#clip980)" style="stroke:#000000; stroke-linecap:butt; stroke-linejoin:round; stroke-width:4; stroke-opacity:1; fill:none" points="
  265.445,838.109 284.342,838.109 
  "/>
<polyline clip-path="url(#clip980)" style="stroke:#000000; stroke-linecap:butt; stroke-linejoin:round; stroke-width:4; stroke-opacity:1; fill:none" points="
  265.445,563.76 284.342,563.76 
  "/>
<polyline clip-path="url(#clip980)" style="stroke:#000000; stroke-linecap:butt; stroke-linejoin:round; stroke-width:4; stroke-opacity:1; fill:none" points="
  265.445,289.411 284.342,289.411 
  "/>
<path clip-path="url(#clip980)" d="M217.5 1372.61 Q213.889 1372.61 212.061 1376.17 Q210.255 1379.71 210.255 1386.84 Q210.255 1393.95 212.061 1397.51 Q213.889 1401.05 217.5 1401.05 Q221.135 1401.05 222.94 1397.51 Q224.769 1393.95 224.769 1386.84 Q224.769 1379.71 222.94 1376.17 Q221.135 1372.61 217.5 1372.61 M217.5 1368.9 Q223.31 1368.9 226.366 1373.51 Q229.445 1378.09 229.445 1386.84 Q229.445 1395.57 226.366 1400.18 Q223.31 1404.76 217.5 1404.76 Q211.69 1404.76 208.612 1400.18 Q205.556 1395.57 205.556 1386.84 Q205.556 1378.09 208.612 1373.51 Q211.69 1368.9 217.5 1368.9 Z" fill="#000000" fill-rule="evenodd" fill-opacity="1" /><path clip-path="url(#clip980)" d="M121.043 1125.8 L137.362 1125.8 L137.362 1129.74 L115.418 1129.74 L115.418 1125.8 Q118.08 1123.05 122.663 1118.42 Q127.269 1113.77 128.45 1112.42 Q130.695 1109.9 131.575 1108.16 Q132.478 1106.41 132.478 1104.72 Q132.478 1101.96 130.533 1100.22 Q128.612 1098.49 125.51 1098.49 Q123.311 1098.49 120.857 1099.25 Q118.427 1100.02 115.649 1101.57 L115.649 1096.84 Q118.473 1095.71 120.927 1095.13 Q123.38 1094.55 125.418 1094.55 Q130.788 1094.55 133.982 1097.24 Q137.177 1099.92 137.177 1104.41 Q137.177 1106.54 136.367 1108.47 Q135.579 1110.36 133.473 1112.96 Q132.894 1113.63 129.792 1116.84 Q126.691 1120.04 121.043 1125.8 Z" fill="#000000" fill-rule="evenodd" fill-opacity="1" /><path clip-path="url(#clip980)" d="M157.177 1098.26 Q153.566 1098.26 151.737 1101.82 Q149.931 1105.36 149.931 1112.49 Q149.931 1119.6 151.737 1123.16 Q153.566 1126.71 157.177 1126.71 Q160.811 1126.71 162.616 1123.16 Q164.445 1119.6 164.445 1112.49 Q164.445 1105.36 162.616 1101.82 Q160.811 1098.26 157.177 1098.26 M157.177 1094.55 Q162.987 1094.55 166.042 1099.16 Q169.121 1103.74 169.121 1112.49 Q169.121 1121.22 166.042 1125.83 Q162.987 1130.41 157.177 1130.41 Q151.366 1130.41 148.288 1125.83 Q145.232 1121.22 145.232 1112.49 Q145.232 1103.74 148.288 1099.16 Q151.366 1094.55 157.177 1094.55 Z" fill="#000000" fill-rule="evenodd" fill-opacity="1" /><path clip-path="url(#clip980)" d="M187.338 1098.26 Q183.727 1098.26 181.899 1101.82 Q180.093 1105.36 180.093 1112.49 Q180.093 1119.6 181.899 1123.16 Q183.727 1126.71 187.338 1126.71 Q190.973 1126.71 192.778 1123.16 Q194.607 1119.6 194.607 1112.49 Q194.607 1105.36 192.778 1101.82 Q190.973 1098.26 187.338 1098.26 M187.338 1094.55 Q193.149 1094.55 196.204 1099.16 Q199.283 1103.74 199.283 1112.49 Q199.283 1121.22 196.204 1125.83 Q193.149 1130.41 187.338 1130.41 Q181.528 1130.41 178.45 1125.83 Q175.394 1121.22 175.394 1112.49 Q175.394 1103.74 178.45 1099.16 Q181.528 1094.55 187.338 1094.55 Z" fill="#000000" fill-rule="evenodd" fill-opacity="1" /><path clip-path="url(#clip980)" d="M217.5 1098.26 Q213.889 1098.26 212.061 1101.82 Q210.255 1105.36 210.255 1112.49 Q210.255 1119.6 212.061 1123.16 Q213.889 1126.71 217.5 1126.71 Q221.135 1126.71 222.94 1123.16 Q224.769 1119.6 224.769 1112.49 Q224.769 1105.36 222.94 1101.82 Q221.135 1098.26 217.5 1098.26 M217.5 1094.55 Q223.31 1094.55 226.366 1099.16 Q229.445 1103.74 229.445 1112.49 Q229.445 1121.22 226.366 1125.83 Q223.31 1130.41 217.5 1130.41 Q211.69 1130.41 208.612 1125.83 Q205.556 1121.22 205.556 1112.49 Q205.556 1103.74 208.612 1099.16 Q211.69 1094.55 217.5 1094.55 Z" fill="#000000" fill-rule="evenodd" fill-opacity="1" /><path clip-path="url(#clip980)" d="M129.862 824.903 L118.056 843.352 L129.862 843.352 L129.862 824.903 M128.635 820.829 L134.515 820.829 L134.515 843.352 L139.445 843.352 L139.445 847.241 L134.515 847.241 L134.515 855.389 L129.862 855.389 L129.862 847.241 L114.26 847.241 L114.26 842.727 L128.635 820.829 Z" fill="#000000" fill-rule="evenodd" fill-opacity="1" /><path clip-path="url(#clip980)" d="M157.177 823.908 Q153.566 823.908 151.737 827.473 Q149.931 831.014 149.931 838.144 Q149.931 845.25 151.737 848.815 Q153.566 852.357 157.177 852.357 Q160.811 852.357 162.616 848.815 Q164.445 845.25 164.445 838.144 Q164.445 831.014 162.616 827.473 Q160.811 823.908 157.177 823.908 M157.177 820.204 Q162.987 820.204 166.042 824.811 Q169.121 829.394 169.121 838.144 Q169.121 846.871 166.042 851.477 Q162.987 856.061 157.177 856.061 Q151.366 856.061 148.288 851.477 Q145.232 846.871 145.232 838.144 Q145.232 829.394 148.288 824.811 Q151.366 820.204 157.177 820.204 Z" fill="#000000" fill-rule="evenodd" fill-opacity="1" /><path clip-path="url(#clip980)" d="M187.338 823.908 Q183.727 823.908 181.899 827.473 Q180.093 831.014 180.093 838.144 Q180.093 845.25 181.899 848.815 Q183.727 852.357 187.338 852.357 Q190.973 852.357 192.778 848.815 Q194.607 845.25 194.607 838.144 Q194.607 831.014 192.778 827.473 Q190.973 823.908 187.338 823.908 M187.338 820.204 Q193.149 820.204 196.204 824.811 Q199.283 829.394 199.283 838.144 Q199.283 846.871 196.204 851.477 Q193.149 856.061 187.338 856.061 Q181.528 856.061 178.45 851.477 Q175.394 846.871 175.394 838.144 Q175.394 829.394 178.45 824.811 Q181.528 820.204 187.338 820.204 Z" fill="#000000" fill-rule="evenodd" fill-opacity="1" /><path clip-path="url(#clip980)" d="M217.5 823.908 Q213.889 823.908 212.061 827.473 Q210.255 831.014 210.255 838.144 Q210.255 845.25 212.061 848.815 Q213.889 852.357 217.5 852.357 Q221.135 852.357 222.94 848.815 Q224.769 845.25 224.769 838.144 Q224.769 831.014 222.94 827.473 Q221.135 823.908 217.5 823.908 M217.5 820.204 Q223.31 820.204 226.366 824.811 Q229.445 829.394 229.445 838.144 Q229.445 846.871 226.366 851.477 Q223.31 856.061 217.5 856.061 Q211.69 856.061 208.612 851.477 Q205.556 846.871 205.556 838.144 Q205.556 829.394 208.612 824.811 Q211.69 820.204 217.5 820.204 Z" fill="#000000" fill-rule="evenodd" fill-opacity="1" /><path clip-path="url(#clip980)" d="M127.593 561.897 Q124.445 561.897 122.593 564.05 Q120.765 566.202 120.765 569.952 Q120.765 573.679 122.593 575.855 Q124.445 578.008 127.593 578.008 Q130.742 578.008 132.57 575.855 Q134.422 573.679 134.422 569.952 Q134.422 566.202 132.57 564.05 Q130.742 561.897 127.593 561.897 M136.876 547.244 L136.876 551.503 Q135.117 550.67 133.311 550.23 Q131.529 549.79 129.769 549.79 Q125.14 549.79 122.686 552.915 Q120.255 556.04 119.908 562.36 Q121.274 560.346 123.334 559.281 Q125.394 558.193 127.871 558.193 Q133.08 558.193 136.089 561.365 Q139.121 564.513 139.121 569.952 Q139.121 575.276 135.973 578.494 Q132.825 581.712 127.593 581.712 Q121.598 581.712 118.427 577.128 Q115.256 572.522 115.256 563.795 Q115.256 555.601 119.144 550.74 Q123.033 545.855 129.584 545.855 Q131.343 545.855 133.126 546.203 Q134.931 546.55 136.876 547.244 Z" fill="#000000" fill-rule="evenodd" fill-opacity="1" /><path clip-path="url(#clip980)" d="M157.177 549.559 Q153.566 549.559 151.737 553.124 Q149.931 556.665 149.931 563.795 Q149.931 570.901 151.737 574.466 Q153.566 578.008 157.177 578.008 Q160.811 578.008 162.616 574.466 Q164.445 570.901 164.445 563.795 Q164.445 556.665 162.616 553.124 Q160.811 549.559 157.177 549.559 M157.177 545.855 Q162.987 545.855 166.042 550.462 Q169.121 555.045 169.121 563.795 Q169.121 572.522 166.042 577.128 Q162.987 581.712 157.177 581.712 Q151.366 581.712 148.288 577.128 Q145.232 572.522 145.232 563.795 Q145.232 555.045 148.288 550.462 Q151.366 545.855 157.177 545.855 Z" fill="#000000" fill-rule="evenodd" fill-opacity="1" /><path clip-path="url(#clip980)" d="M187.338 549.559 Q183.727 549.559 181.899 553.124 Q180.093 556.665 180.093 563.795 Q180.093 570.901 181.899 574.466 Q183.727 578.008 187.338 578.008 Q190.973 578.008 192.778 574.466 Q194.607 570.901 194.607 563.795 Q194.607 556.665 192.778 553.124 Q190.973 549.559 187.338 549.559 M187.338 545.855 Q193.149 545.855 196.204 550.462 Q199.283 555.045 199.283 563.795 Q199.283 572.522 196.204 577.128 Q193.149 581.712 187.338 581.712 Q181.528 581.712 178.45 577.128 Q175.394 572.522 175.394 563.795 Q175.394 555.045 178.45 550.462 Q181.528 545.855 187.338 545.855 Z" fill="#000000" fill-rule="evenodd" fill-opacity="1" /><path clip-path="url(#clip980)" d="M217.5 549.559 Q213.889 549.559 212.061 553.124 Q210.255 556.665 210.255 563.795 Q210.255 570.901 212.061 574.466 Q213.889 578.008 217.5 578.008 Q221.135 578.008 222.94 574.466 Q224.769 570.901 224.769 563.795 Q224.769 556.665 222.94 553.124 Q221.135 549.559 217.5 549.559 M217.5 545.855 Q223.31 545.855 226.366 550.462 Q229.445 555.045 229.445 563.795 Q229.445 572.522 226.366 577.128 Q223.31 581.712 217.5 581.712 Q211.69 581.712 208.612 577.128 Q205.556 572.522 205.556 563.795 Q205.556 555.045 208.612 550.462 Q211.69 545.855 217.5 545.855 Z" fill="#000000" fill-rule="evenodd" fill-opacity="1" /><path clip-path="url(#clip980)" d="M127.015 290.279 Q123.681 290.279 121.76 292.062 Q119.862 293.844 119.862 296.969 Q119.862 300.094 121.76 301.877 Q123.681 303.659 127.015 303.659 Q130.348 303.659 132.269 301.877 Q134.191 300.071 134.191 296.969 Q134.191 293.844 132.269 292.062 Q130.371 290.279 127.015 290.279 M122.339 288.289 Q119.33 287.548 117.64 285.488 Q115.973 283.428 115.973 280.465 Q115.973 276.321 118.913 273.914 Q121.876 271.506 127.015 271.506 Q132.177 271.506 135.117 273.914 Q138.056 276.321 138.056 280.465 Q138.056 283.428 136.367 285.488 Q134.7 287.548 131.714 288.289 Q135.093 289.076 136.968 291.367 Q138.867 293.659 138.867 296.969 Q138.867 301.992 135.788 304.678 Q132.732 307.363 127.015 307.363 Q121.297 307.363 118.218 304.678 Q115.163 301.992 115.163 296.969 Q115.163 293.659 117.061 291.367 Q118.959 289.076 122.339 288.289 M120.626 280.904 Q120.626 283.59 122.293 285.094 Q123.982 286.599 127.015 286.599 Q130.024 286.599 131.714 285.094 Q133.427 283.59 133.427 280.904 Q133.427 278.219 131.714 276.715 Q130.024 275.21 127.015 275.21 Q123.982 275.21 122.293 276.715 Q120.626 278.219 120.626 280.904 Z" fill="#000000" fill-rule="evenodd" fill-opacity="1" /><path clip-path="url(#clip980)" d="M157.177 275.21 Q153.566 275.21 151.737 278.775 Q149.931 282.317 149.931 289.446 Q149.931 296.553 151.737 300.117 Q153.566 303.659 157.177 303.659 Q160.811 303.659 162.616 300.117 Q164.445 296.553 164.445 289.446 Q164.445 282.317 162.616 278.775 Q160.811 275.21 157.177 275.21 M157.177 271.506 Q162.987 271.506 166.042 276.113 Q169.121 280.696 169.121 289.446 Q169.121 298.173 166.042 302.779 Q162.987 307.363 157.177 307.363 Q151.366 307.363 148.288 302.779 Q145.232 298.173 145.232 289.446 Q145.232 280.696 148.288 276.113 Q151.366 271.506 157.177 271.506 Z" fill="#000000" fill-rule="evenodd" fill-opacity="1" /><path clip-path="url(#clip980)" d="M187.338 275.21 Q183.727 275.21 181.899 278.775 Q180.093 282.317 180.093 289.446 Q180.093 296.553 181.899 300.117 Q183.727 303.659 187.338 303.659 Q190.973 303.659 192.778 300.117 Q194.607 296.553 194.607 289.446 Q194.607 282.317 192.778 278.775 Q190.973 275.21 187.338 275.21 M187.338 271.506 Q193.149 271.506 196.204 276.113 Q199.283 280.696 199.283 289.446 Q199.283 298.173 196.204 302.779 Q193.149 307.363 187.338 307.363 Q181.528 307.363 178.45 302.779 Q175.394 298.173 175.394 289.446 Q175.394 280.696 178.45 276.113 Q181.528 271.506 187.338 271.506 Z" fill="#000000" fill-rule="evenodd" fill-opacity="1" /><path clip-path="url(#clip980)" d="M217.5 275.21 Q213.889 275.21 212.061 278.775 Q210.255 282.317 210.255 289.446 Q210.255 296.553 212.061 300.117 Q213.889 303.659 217.5 303.659 Q221.135 303.659 222.94 300.117 Q224.769 296.553 224.769 289.446 Q224.769 282.317 222.94 278.775 Q221.135 275.21 217.5 275.21 M217.5 271.506 Q223.31 271.506 226.366 276.113 Q229.445 280.696 229.445 289.446 Q229.445 298.173 226.366 302.779 Q223.31 307.363 217.5 307.363 Q211.69 307.363 208.612 302.779 Q205.556 298.173 205.556 289.446 Q205.556 280.696 208.612 276.113 Q211.69 271.506 217.5 271.506 Z" fill="#000000" fill-rule="evenodd" fill-opacity="1" /><path clip-path="url(#clip980)" d="M28.3562 756.711 L45.7028 769.602 L64.0042 756.043 L64.0042 762.95 L49.9996 773.326 L64.0042 783.702 L64.0042 790.609 L45.3526 776.763 L28.3562 789.431 L28.3562 782.524 L41.0558 773.071 L28.3562 763.618 L28.3562 756.711 Z" fill="#000000" fill-rule="evenodd" fill-opacity="1" /><path clip-path="url(#clip980)" d="M920.963 16.7545 L920.963 25.383 Q916.831 21.5346 912.132 19.6307 Q907.473 17.7268 902.207 17.7268 Q891.837 17.7268 886.328 24.0867 Q880.818 30.4061 880.818 42.3968 Q880.818 54.3469 886.328 60.7069 Q891.837 67.0263 902.207 67.0263 Q907.473 67.0263 912.132 65.1223 Q916.831 63.2184 920.963 59.3701 L920.963 67.9175 Q916.669 70.8341 911.848 72.2924 Q907.068 73.7508 901.721 73.7508 Q887.989 73.7508 880.089 65.3654 Q872.19 56.9395 872.19 42.3968 Q872.19 27.8135 880.089 19.4281 Q887.989 11.0023 901.721 11.0023 Q907.149 11.0023 911.929 12.4606 Q916.75 13.8784 920.963 16.7545 Z" fill="#000000" fill-rule="evenodd" fill-opacity="1" /><path clip-path="url(#clip980)" d="M950.859 32.4315 Q944.863 32.4315 941.379 37.1306 Q937.896 41.7891 937.896 49.9314 Q937.896 58.0738 941.339 62.7728 Q944.823 67.4314 950.859 67.4314 Q956.813 67.4314 960.297 62.7323 Q963.781 58.0333 963.781 49.9314 Q963.781 41.8701 960.297 37.1711 Q956.813 32.4315 950.859 32.4315 M950.859 26.1121 Q960.581 26.1121 966.131 32.4315 Q971.68 38.7509 971.68 49.9314 Q971.68 61.0714 966.131 67.4314 Q960.581 73.7508 950.859 73.7508 Q941.096 73.7508 935.546 67.4314 Q930.037 61.0714 930.037 49.9314 Q930.037 38.7509 935.546 32.4315 Q941.096 26.1121 950.859 26.1121 Z" fill="#000000" fill-rule="evenodd" fill-opacity="1" /><path clip-path="url(#clip980)" d="M1021.75 45.1919 L1021.75 72.576 L1014.3 72.576 L1014.3 45.4349 Q1014.3 38.994 1011.78 35.7938 Q1009.27 32.5936 1004.25 32.5936 Q998.214 32.5936 994.73 36.4419 Q991.246 40.2903 991.246 46.9338 L991.246 72.576 L983.752 72.576 L983.752 27.2059 L991.246 27.2059 L991.246 34.2544 Q993.92 30.163 997.525 28.1376 Q1001.17 26.1121 1005.91 26.1121 Q1013.73 26.1121 1017.74 30.9732 Q1021.75 35.7938 1021.75 45.1919 Z" fill="#000000" fill-rule="evenodd" fill-opacity="1" /><path clip-path="url(#clip980)" d="M1065.54 28.5427 L1065.54 35.5912 Q1062.38 33.9709 1058.98 33.1607 Q1055.57 32.3505 1051.93 32.3505 Q1046.38 32.3505 1043.58 34.0519 Q1040.83 35.7533 1040.83 39.156 Q1040.83 41.7486 1042.81 43.2475 Q1044.8 44.7058 1050.79 46.0426 L1053.35 46.6097 Q1061.29 48.3111 1064.61 51.4303 Q1067.97 54.509 1067.97 60.0587 Q1067.97 66.3781 1062.95 70.0644 Q1057.96 73.7508 1049.21 73.7508 Q1045.57 73.7508 1041.6 73.0216 Q1037.67 72.3329 1033.29 70.9151 L1033.29 63.2184 Q1037.43 65.3654 1041.44 66.4591 Q1045.45 67.5124 1049.38 67.5124 Q1054.64 67.5124 1057.48 65.73 Q1060.31 63.9071 1060.31 60.6258 Q1060.31 57.5877 1058.25 55.9673 Q1056.22 54.3469 1049.3 52.8481 L1046.7 52.2405 Q1039.78 50.7821 1036.7 47.7845 Q1033.62 44.7463 1033.62 39.4801 Q1033.62 33.0797 1038.16 29.5959 Q1042.69 26.1121 1051.04 26.1121 Q1055.17 26.1121 1058.82 26.7198 Q1062.46 27.3274 1065.54 28.5427 Z" fill="#000000" fill-rule="evenodd" fill-opacity="1" /><path clip-path="url(#clip980)" d="M1087.21 14.324 L1087.21 27.2059 L1102.56 27.2059 L1102.56 32.9987 L1087.21 32.9987 L1087.21 57.6282 Q1087.21 63.1779 1088.71 64.7578 Q1090.25 66.3376 1094.91 66.3376 L1102.56 66.3376 L1102.56 72.576 L1094.91 72.576 Q1086.28 72.576 1083 69.3758 Q1079.72 66.1351 1079.72 57.6282 L1079.72 32.9987 L1074.25 32.9987 L1074.25 27.2059 L1079.72 27.2059 L1079.72 14.324 L1087.21 14.324 Z" fill="#000000" fill-rule="evenodd" fill-opacity="1" /><path clip-path="url(#clip980)" d="M1132.99 49.7694 Q1123.95 49.7694 1120.47 51.8354 Q1116.99 53.9013 1116.99 58.8839 Q1116.99 62.8538 1119.58 65.2034 Q1122.21 67.5124 1126.71 67.5124 Q1132.91 67.5124 1136.63 63.1374 Q1140.4 58.7219 1140.4 51.4303 L1140.4 49.7694 L1132.99 49.7694 M1147.85 46.6907 L1147.85 72.576 L1140.4 72.576 L1140.4 65.6895 Q1137.85 69.8214 1134.04 71.8063 Q1130.23 73.7508 1124.72 73.7508 Q1117.76 73.7508 1113.62 69.8619 Q1109.53 65.9325 1109.53 59.3701 Q1109.53 51.7138 1114.64 47.825 Q1119.78 43.9361 1129.95 43.9361 L1140.4 43.9361 L1140.4 43.2069 Q1140.4 38.0623 1137 35.2672 Q1133.64 32.4315 1127.52 32.4315 Q1123.63 32.4315 1119.94 33.3632 Q1116.26 34.295 1112.85 36.1584 L1112.85 29.2718 Q1116.95 27.692 1120.79 26.9223 Q1124.64 26.1121 1128.29 26.1121 Q1138.13 26.1121 1142.99 31.2163 Q1147.85 36.3204 1147.85 46.6907 Z" fill="#000000" fill-rule="evenodd" fill-opacity="1" /><path clip-path="url(#clip980)" d="M1200.92 45.1919 L1200.92 72.576 L1193.47 72.576 L1193.47 45.4349 Q1193.47 38.994 1190.96 35.7938 Q1188.44 32.5936 1183.42 32.5936 Q1177.39 32.5936 1173.9 36.4419 Q1170.42 40.2903 1170.42 46.9338 L1170.42 72.576 L1162.92 72.576 L1162.92 27.2059 L1170.42 27.2059 L1170.42 34.2544 Q1173.09 30.163 1176.7 28.1376 Q1180.34 26.1121 1185.08 26.1121 Q1192.9 26.1121 1196.91 30.9732 Q1200.92 35.7938 1200.92 45.1919 Z" fill="#000000" fill-rule="evenodd" fill-opacity="1" /><path clip-path="url(#clip980)" d="M1223.16 14.324 L1223.16 27.2059 L1238.51 27.2059 L1238.51 32.9987 L1223.16 32.9987 L1223.16 57.6282 Q1223.16 63.1779 1224.66 64.7578 Q1226.2 66.3376 1230.86 66.3376 L1238.51 66.3376 L1238.51 72.576 L1230.86 72.576 Q1222.23 72.576 1218.95 69.3758 Q1215.67 66.1351 1215.67 57.6282 L1215.67 32.9987 L1210.2 32.9987 L1210.2 27.2059 L1215.67 27.2059 L1215.67 14.324 L1223.16 14.324 Z" fill="#000000" fill-rule="evenodd" fill-opacity="1" /><path clip-path="url(#clip980)" d="M1304.54 49.3643 Q1304.54 41.2625 1301.18 36.8065 Q1297.86 32.3505 1291.82 32.3505 Q1285.83 32.3505 1282.47 36.8065 Q1279.14 41.2625 1279.14 49.3643 Q1279.14 57.4256 1282.47 61.8816 Q1285.83 66.3376 1291.82 66.3376 Q1297.86 66.3376 1301.18 61.8816 Q1304.54 57.4256 1304.54 49.3643 M1312 66.9452 Q1312 78.5308 1306.85 84.1616 Q1301.71 89.8329 1291.09 89.8329 Q1287.16 89.8329 1283.68 89.2252 Q1280.2 88.6581 1276.92 87.4428 L1276.92 80.1917 Q1280.2 81.9741 1283.4 82.8248 Q1286.6 83.6755 1289.92 83.6755 Q1297.25 83.6755 1300.9 79.8271 Q1304.54 76.0193 1304.54 68.282 L1304.54 64.5957 Q1302.23 68.6061 1298.63 70.5911 Q1295.02 72.576 1290 72.576 Q1281.66 72.576 1276.55 66.2161 Q1271.45 59.8562 1271.45 49.3643 Q1271.45 38.832 1276.55 32.472 Q1281.66 26.1121 1290 26.1121 Q1295.02 26.1121 1298.63 28.0971 Q1302.23 30.082 1304.54 34.0924 L1304.54 27.2059 L1312 27.2059 L1312 66.9452 Z" fill="#000000" fill-rule="evenodd" fill-opacity="1" /><path clip-path="url(#clip980)" d="M1353.64 34.1734 Q1352.38 33.4443 1350.89 33.1202 Q1349.43 32.7556 1347.64 32.7556 Q1341.33 32.7556 1337.92 36.8875 Q1334.56 40.9789 1334.56 48.6757 L1334.56 72.576 L1327.07 72.576 L1327.07 27.2059 L1334.56 27.2059 L1334.56 34.2544 Q1336.91 30.1225 1340.68 28.1376 Q1344.44 26.1121 1349.83 26.1121 Q1350.6 26.1121 1351.53 26.2337 Q1352.47 26.3147 1353.6 26.5172 L1353.64 34.1734 Z" fill="#000000" fill-rule="evenodd" fill-opacity="1" /><path clip-path="url(#clip980)" d="M1377.22 32.4315 Q1371.22 32.4315 1367.74 37.1306 Q1364.25 41.7891 1364.25 49.9314 Q1364.25 58.0738 1367.7 62.7728 Q1371.18 67.4314 1377.22 67.4314 Q1383.17 67.4314 1386.65 62.7323 Q1390.14 58.0333 1390.14 49.9314 Q1390.14 41.8701 1386.65 37.1711 Q1383.17 32.4315 1377.22 32.4315 M1377.22 26.1121 Q1386.94 26.1121 1392.49 32.4315 Q1398.04 38.7509 1398.04 49.9314 Q1398.04 61.0714 1392.49 67.4314 Q1386.94 73.7508 1377.22 73.7508 Q1367.45 73.7508 1361.9 67.4314 Q1356.39 61.0714 1356.39 49.9314 Q1356.39 38.7509 1361.9 32.4315 Q1367.45 26.1121 1377.22 26.1121 Z" fill="#000000" fill-rule="evenodd" fill-opacity="1" /><path clip-path="url(#clip980)" d="M1406.06 27.2059 L1413.51 27.2059 L1422.83 62.6108 L1432.11 27.2059 L1440.9 27.2059 L1450.21 62.6108 L1459.49 27.2059 L1466.94 27.2059 L1455.07 72.576 L1446.28 72.576 L1436.52 35.3887 L1426.72 72.576 L1417.93 72.576 L1406.06 27.2059 Z" fill="#000000" fill-rule="evenodd" fill-opacity="1" /><path clip-path="url(#clip980)" d="M1485.62 14.324 L1485.62 27.2059 L1500.97 27.2059 L1500.97 32.9987 L1485.62 32.9987 L1485.62 57.6282 Q1485.62 63.1779 1487.12 64.7578 Q1488.66 66.3376 1493.32 66.3376 L1500.97 66.3376 L1500.97 72.576 L1493.32 72.576 Q1484.69 72.576 1481.41 69.3758 Q1478.12 66.1351 1478.12 57.6282 L1478.12 32.9987 L1472.66 32.9987 L1472.66 27.2059 L1478.12 27.2059 L1478.12 14.324 L1485.62 14.324 Z" fill="#000000" fill-rule="evenodd" fill-opacity="1" /><path clip-path="url(#clip980)" d="M1548.49 45.1919 L1548.49 72.576 L1541.03 72.576 L1541.03 45.4349 Q1541.03 38.994 1538.52 35.7938 Q1536.01 32.5936 1530.99 32.5936 Q1524.95 32.5936 1521.47 36.4419 Q1517.99 40.2903 1517.99 46.9338 L1517.99 72.576 L1510.49 72.576 L1510.49 9.54393 L1517.99 9.54393 L1517.99 34.2544 Q1520.66 30.163 1524.26 28.1376 Q1527.91 26.1121 1532.65 26.1121 Q1540.47 26.1121 1544.48 30.9732 Q1548.49 35.7938 1548.49 45.1919 Z" fill="#000000" fill-rule="evenodd" fill-opacity="1" /><path clip-path="url(#clip980)" d="M1616.02 34.1734 Q1614.76 33.4443 1613.26 33.1202 Q1611.8 32.7556 1610.02 32.7556 Q1603.7 32.7556 1600.3 36.8875 Q1596.94 40.9789 1596.94 48.6757 L1596.94 72.576 L1589.44 72.576 L1589.44 27.2059 L1596.94 27.2059 L1596.94 34.2544 Q1599.29 30.1225 1603.05 28.1376 Q1606.82 26.1121 1612.21 26.1121 Q1612.98 26.1121 1613.91 26.2337 Q1614.84 26.3147 1615.98 26.5172 L1616.02 34.1734 Z" fill="#000000" fill-rule="evenodd" fill-opacity="1" /><path clip-path="url(#clip980)" d="M1644.45 49.7694 Q1635.42 49.7694 1631.94 51.8354 Q1628.45 53.9013 1628.45 58.8839 Q1628.45 62.8538 1631.05 65.2034 Q1633.68 67.5124 1638.18 67.5124 Q1644.37 67.5124 1648.1 63.1374 Q1651.87 58.7219 1651.87 51.4303 L1651.87 49.7694 L1644.45 49.7694 M1659.32 46.6907 L1659.32 72.576 L1651.87 72.576 L1651.87 65.6895 Q1649.32 69.8214 1645.51 71.8063 Q1641.7 73.7508 1636.19 73.7508 Q1629.22 73.7508 1625.09 69.8619 Q1621 65.9325 1621 59.3701 Q1621 51.7138 1626.1 47.825 Q1631.25 43.9361 1641.42 43.9361 L1651.87 43.9361 L1651.87 43.2069 Q1651.87 38.0623 1648.46 35.2672 Q1645.1 32.4315 1638.99 32.4315 Q1635.1 32.4315 1631.41 33.3632 Q1627.72 34.295 1624.32 36.1584 L1624.32 29.2718 Q1628.41 27.692 1632.26 26.9223 Q1636.11 26.1121 1639.76 26.1121 Q1649.6 26.1121 1654.46 31.2163 Q1659.32 36.3204 1659.32 46.6907 Z" fill="#000000" fill-rule="evenodd" fill-opacity="1" /><path clip-path="url(#clip980)" d="M1682.05 14.324 L1682.05 27.2059 L1697.4 27.2059 L1697.4 32.9987 L1682.05 32.9987 L1682.05 57.6282 Q1682.05 63.1779 1683.55 64.7578 Q1685.08 66.3376 1689.74 66.3376 L1697.4 66.3376 L1697.4 72.576 L1689.74 72.576 Q1681.12 72.576 1677.83 69.3758 Q1674.55 66.1351 1674.55 57.6282 L1674.55 32.9987 L1669.08 32.9987 L1669.08 27.2059 L1674.55 27.2059 L1674.55 14.324 L1682.05 14.324 Z" fill="#000000" fill-rule="evenodd" fill-opacity="1" /><path clip-path="url(#clip980)" d="M1746.01 48.0275 L1746.01 51.6733 L1711.74 51.6733 Q1712.23 59.3701 1716.36 63.421 Q1720.53 67.4314 1727.94 67.4314 Q1732.24 67.4314 1736.25 66.3781 Q1740.3 65.3249 1744.27 63.2184 L1744.27 70.267 Q1740.26 71.9684 1736.05 72.8596 Q1731.83 73.7508 1727.5 73.7508 Q1716.64 73.7508 1710.28 67.4314 Q1703.96 61.1119 1703.96 50.3365 Q1703.96 39.1965 1709.96 32.6746 Q1715.99 26.1121 1726.2 26.1121 Q1735.36 26.1121 1740.66 32.0264 Q1746.01 37.9003 1746.01 48.0275 M1738.56 45.84 Q1738.48 39.7232 1735.11 36.0774 Q1731.79 32.4315 1726.28 32.4315 Q1720.04 32.4315 1716.28 35.9558 Q1712.55 39.4801 1711.98 45.8805 L1738.56 45.84 Z" fill="#000000" fill-rule="evenodd" fill-opacity="1" /><polyline clip-path="url(#clip982)" style="stroke:#009af9; stroke-linecap:butt; stroke-linejoin:round; stroke-width:8; stroke-opacity:1; fill:none" points="
  265.445,1386.4 267.534,1386.39 269.624,1386.39 271.713,1386.39 273.802,1386.38 275.892,1386.38 277.981,1386.38 280.071,1386.37 282.16,1386.37 284.249,1386.36 
  286.339,1386.36 288.428,1386.36 290.518,1386.35 292.607,1386.35 294.696,1386.35 296.786,1386.34 298.875,1386.34 300.965,1386.34 303.054,1386.33 305.143,1386.33 
  307.233,1386.32 309.322,1386.32 311.412,1386.32 313.501,1386.31 315.59,1386.31 317.68,1386.3 319.769,1386.3 321.859,1386.3 323.948,1386.29 326.037,1386.29 
  328.127,1386.28 330.216,1386.28 332.306,1386.28 334.395,1386.27 336.484,1386.27 338.574,1386.26 340.663,1386.26 342.753,1386.25 344.842,1386.25 346.931,1386.24 
  349.021,1386.24 351.11,1386.24 353.2,1386.23 355.289,1386.23 357.378,1386.22 359.468,1386.22 361.557,1386.21 363.647,1386.21 365.736,1386.2 367.825,1386.2 
  369.915,1386.19 372.004,1386.19 374.094,1386.18 376.183,1386.18 378.272,1386.17 380.362,1386.17 382.451,1386.16 384.541,1386.16 386.63,1386.15 388.719,1386.15 
  390.809,1386.14 392.898,1386.14 394.988,1386.13 397.077,1386.13 399.166,1386.12 401.256,1386.11 403.345,1386.11 405.435,1386.1 407.524,1386.1 409.613,1386.09 
  411.703,1386.09 413.792,1386.08 415.882,1386.07 417.971,1386.07 420.06,1386.06 422.15,1386.06 424.239,1386.05 426.329,1386.04 428.418,1386.04 430.507,1386.03 
  432.597,1386.03 434.686,1386.02 436.776,1386.01 438.865,1386.01 440.954,1386 443.044,1385.99 445.133,1385.99 447.223,1385.98 449.312,1385.97 451.401,1385.97 
  453.491,1385.96 455.58,1385.95 457.67,1385.95 459.759,1385.94 461.848,1385.93 463.938,1385.93 466.027,1385.92 468.117,1385.91 470.206,1385.91 472.295,1385.9 
  474.385,1385.89 476.474,1385.88 478.564,1385.88 480.653,1385.87 482.742,1385.86 484.832,1385.85 486.921,1385.85 489.011,1385.84 491.1,1385.83 493.189,1385.82 
  495.279,1385.81 497.368,1385.81 499.458,1385.8 501.547,1385.79 503.636,1385.78 505.726,1385.77 507.815,1385.77 509.905,1385.76 511.994,1385.75 514.083,1385.74 
  516.173,1385.73 518.262,1385.72 520.352,1385.71 522.441,1385.71 524.53,1385.7 526.62,1385.69 528.709,1385.68 530.799,1385.67 532.888,1385.66 534.977,1385.65 
  537.067,1385.64 539.156,1385.63 541.246,1385.62 543.335,1385.61 545.424,1385.6 547.514,1385.59 549.603,1385.58 551.693,1385.57 553.782,1385.56 555.871,1385.55 
  557.961,1385.54 560.05,1385.53 562.14,1385.52 564.229,1385.51 566.318,1385.5 568.408,1385.49 570.497,1385.48 572.587,1385.47 574.676,1385.46 576.765,1385.45 
  578.855,1385.44 580.944,1385.43 583.034,1385.42 585.123,1385.41 587.212,1385.39 589.302,1385.38 591.391,1385.37 593.481,1385.36 595.57,1385.35 597.659,1385.34 
  599.749,1385.33 601.838,1385.31 603.928,1385.3 606.017,1385.29 608.106,1385.28 610.196,1385.26 612.285,1385.25 614.375,1385.24 616.464,1385.23 618.553,1385.21 
  620.643,1385.2 622.732,1385.19 624.822,1385.18 626.911,1385.16 629,1385.15 631.09,1385.14 633.179,1385.12 635.269,1385.11 637.358,1385.1 639.447,1385.08 
  641.537,1385.07 643.626,1385.05 645.716,1385.04 647.805,1385.03 649.894,1385.01 651.984,1385 654.073,1384.98 656.163,1384.97 658.252,1384.95 660.341,1384.94 
  662.431,1384.92 664.52,1384.91 666.61,1384.89 668.699,1384.88 670.788,1384.86 672.878,1384.85 674.967,1384.83 677.057,1384.81 679.146,1384.8 681.235,1384.78 
  683.325,1384.77 685.414,1384.75 687.504,1384.73 689.593,1384.72 691.682,1384.7 693.772,1384.68 695.861,1384.67 697.951,1384.65 700.04,1384.63 702.129,1384.61 
  704.219,1384.6 706.308,1384.58 708.398,1384.56 710.487,1384.54 712.576,1384.52 714.666,1384.51 716.755,1384.49 718.845,1384.47 720.934,1384.45 723.023,1384.43 
  725.113,1384.41 727.202,1384.39 729.292,1384.37 731.381,1384.35 733.47,1384.33 735.56,1384.31 737.649,1384.29 739.739,1384.27 741.828,1384.25 743.917,1384.23 
  746.007,1384.21 748.096,1384.19 750.186,1384.17 752.275,1384.15 754.364,1384.13 756.454,1384.11 758.543,1384.08 760.633,1384.06 762.722,1384.04 764.811,1384.02 
  766.901,1383.99 768.99,1383.97 771.08,1383.95 773.169,1383.93 775.258,1383.9 777.348,1383.88 779.437,1383.86 781.527,1383.83 783.616,1383.81 785.705,1383.78 
  787.795,1383.76 789.884,1383.74 791.974,1383.71 794.063,1383.69 796.152,1383.66 798.242,1383.64 800.331,1383.61 802.421,1383.58 804.51,1383.56 806.599,1383.53 
  808.689,1383.51 810.778,1383.48 812.868,1383.45 814.957,1383.43 817.046,1383.4 819.136,1383.37 821.225,1383.34 823.315,1383.32 825.404,1383.29 827.493,1383.26 
  829.583,1383.23 831.672,1383.2 833.762,1383.17 835.851,1383.14 837.94,1383.11 840.03,1383.09 842.119,1383.06 844.209,1383.02 846.298,1382.99 848.387,1382.96 
  850.477,1382.93 852.566,1382.9 854.656,1382.87 856.745,1382.84 858.834,1382.81 860.924,1382.77 863.013,1382.74 865.103,1382.71 867.192,1382.68 869.281,1382.64 
  871.371,1382.61 873.46,1382.58 875.55,1382.54 877.639,1382.51 879.728,1382.47 881.818,1382.44 883.907,1382.4 885.997,1382.37 888.086,1382.33 890.175,1382.3 
  892.265,1382.26 894.354,1382.22 896.444,1382.19 898.533,1382.15 900.623,1382.11 902.712,1382.07 904.801,1382.04 906.891,1382 908.98,1381.96 911.07,1381.92 
  913.159,1381.88 915.248,1381.84 917.338,1381.8 919.427,1381.76 921.517,1381.72 923.606,1381.68 925.695,1381.64 927.785,1381.6 929.874,1381.55 931.964,1381.51 
  934.053,1381.47 936.142,1381.43 938.232,1381.38 940.321,1381.34 942.411,1381.3 944.5,1381.25 946.589,1381.21 948.679,1381.16 950.768,1381.12 952.858,1381.07 
  954.947,1381.03 957.036,1380.98 959.126,1380.93 961.215,1380.88 963.305,1380.84 965.394,1380.79 967.483,1380.74 969.573,1380.69 971.662,1380.64 973.752,1380.59 
  975.841,1380.54 977.93,1380.49 980.02,1380.44 982.109,1380.39 984.199,1380.34 986.288,1380.29 988.377,1380.23 990.467,1380.18 992.556,1380.13 994.646,1380.08 
  996.735,1380.02 998.824,1379.97 1000.91,1379.91 1003,1379.86 1005.09,1379.8 1007.18,1379.74 1009.27,1379.69 1011.36,1379.63 1013.45,1379.57 1015.54,1379.51 
  1017.63,1379.46 1019.72,1379.4 1021.81,1379.34 1023.9,1379.28 1025.99,1379.22 1028.08,1379.15 1030.17,1379.09 1032.25,1379.03 1034.34,1378.97 1036.43,1378.91 
  1038.52,1378.84 1040.61,1378.78 1042.7,1378.71 1044.79,1378.65 1046.88,1378.58 1048.97,1378.52 1051.06,1378.45 1053.15,1378.38 1055.24,1378.32 1057.33,1378.25 
  1059.42,1378.18 1061.51,1378.11 1063.6,1378.04 1065.69,1377.97 1067.77,1377.9 1069.86,1377.83 1071.95,1377.75 1074.04,1377.68 1076.13,1377.61 1078.22,1377.53 
  1080.31,1377.46 1082.4,1377.38 1084.49,1377.31 1086.58,1377.23 1088.67,1377.15 1090.76,1377.08 1092.85,1377 1094.94,1376.92 1097.03,1376.84 1099.12,1376.76 
  1101.2,1376.68 1103.29,1376.6 1105.38,1376.52 1107.47,1376.43 1109.56,1376.35 1111.65,1376.27 1113.74,1376.18 1115.83,1376.1 1117.92,1376.01 1120.01,1375.92 
  1122.1,1375.83 1124.19,1375.75 1126.28,1375.66 1128.37,1375.57 1130.46,1375.48 1132.55,1375.39 1134.64,1375.29 1136.72,1375.2 1138.81,1375.11 1140.9,1375.02 
  1142.99,1374.92 1145.08,1374.82 1147.17,1374.73 1149.26,1374.63 1151.35,1374.53 1153.44,1374.43 1155.53,1374.34 1157.62,1374.23 1159.71,1374.13 1161.8,1374.03 
  1163.89,1373.93 1165.98,1373.83 1168.07,1373.72 1170.16,1373.62 1172.24,1373.51 1174.33,1373.4 1176.42,1373.3 1178.51,1373.19 1180.6,1373.08 1182.69,1372.97 
  1184.78,1372.86 1186.87,1372.74 1188.96,1372.63 1191.05,1372.52 1193.14,1372.4 1195.23,1372.29 1197.32,1372.17 1199.41,1372.05 1201.5,1371.93 1203.59,1371.81 
  1205.67,1371.69 1207.76,1371.57 1209.85,1371.45 1211.94,1371.32 1214.03,1371.2 1216.12,1371.07 1218.21,1370.95 1220.3,1370.82 1222.39,1370.69 1224.48,1370.56 
  1226.57,1370.43 1228.66,1370.3 1230.75,1370.17 1232.84,1370.03 1234.93,1369.9 1237.02,1369.76 1239.11,1369.63 1241.19,1369.49 1243.28,1369.35 1245.37,1369.21 
  1247.46,1369.07 1249.55,1368.92 1251.64,1368.78 1253.73,1368.64 1255.82,1368.49 1257.91,1368.34 1260,1368.19 1262.09,1368.04 1264.18,1367.89 1266.27,1367.74 
  1268.36,1367.59 1270.45,1367.43 1272.54,1367.28 1274.63,1367.12 1276.71,1366.96 1278.8,1366.8 1280.89,1366.64 1282.98,1366.48 1285.07,1366.32 1287.16,1366.15 
  1289.25,1365.99 1291.34,1365.82 1293.43,1365.65 1295.52,1365.48 1297.61,1365.31 1299.7,1365.13 1301.79,1364.96 1303.88,1364.78 1305.97,1364.61 1308.06,1364.43 
  1310.15,1364.25 1312.23,1364.07 1314.32,1363.89 1316.41,1363.7 1318.5,1363.52 1320.59,1363.33 1322.68,1363.14 1324.77,1362.95 1326.86,1362.76 1328.95,1362.56 
  1331.04,1362.37 1333.13,1362.17 1335.22,1361.97 1337.31,1361.77 1339.4,1361.57 1341.49,1361.37 1343.58,1361.17 1345.66,1360.96 1347.75,1360.75 1349.84,1360.54 
  1351.93,1360.33 1354.02,1360.12 1356.11,1359.9 1358.2,1359.69 1360.29,1359.47 1362.38,1359.25 1364.47,1359.03 1366.56,1358.81 1368.65,1358.58 1370.74,1358.35 
  1372.83,1358.12 1374.92,1357.89 1377.01,1357.66 1379.1,1357.43 1381.18,1357.19 1383.27,1356.95 1385.36,1356.71 1387.45,1356.47 1389.54,1356.23 1391.63,1355.98 
  1393.72,1355.73 1395.81,1355.48 1397.9,1355.23 1399.99,1354.98 1402.08,1354.72 1404.17,1354.46 1406.26,1354.2 1408.35,1353.94 1410.44,1353.68 1412.53,1353.41 
  1414.62,1353.14 1416.7,1352.87 1418.79,1352.6 1420.88,1352.32 1422.97,1352.05 1425.06,1351.77 1427.15,1351.48 1429.24,1351.2 1431.33,1350.91 1433.42,1350.63 
  1435.51,1350.33 1437.6,1350.04 1439.69,1349.75 1441.78,1349.45 1443.87,1349.15 1445.96,1348.84 1448.05,1348.54 1450.13,1348.23 1452.22,1347.92 1454.31,1347.61 
  1456.4,1347.29 1458.49,1346.98 1460.58,1346.66 1462.67,1346.33 1464.76,1346.01 1466.85,1345.68 1468.94,1345.35 1471.03,1345.01 1473.12,1344.68 1475.21,1344.34 
  1477.3,1344 1479.39,1343.65 1481.48,1343.31 1483.57,1342.96 1485.65,1342.61 1487.74,1342.25 1489.83,1341.89 1491.92,1341.53 1494.01,1341.17 1496.1,1340.8 
  1498.19,1340.43 1500.28,1340.06 1502.37,1339.68 1504.46,1339.3 1506.55,1338.92 1508.64,1338.54 1510.73,1338.15 1512.82,1337.76 1514.91,1337.36 1517,1336.97 
  1519.09,1336.57 1521.17,1336.16 1523.26,1335.75 1525.35,1335.34 1527.44,1334.93 1529.53,1334.51 1531.62,1334.09 1533.71,1333.67 1535.8,1333.24 1537.89,1332.81 
  1539.98,1332.38 1542.07,1331.94 1544.16,1331.5 1546.25,1331.05 1548.34,1330.61 1550.43,1330.15 1552.52,1329.7 1554.6,1329.24 1556.69,1328.78 1558.78,1328.31 
  1560.87,1327.84 1562.96,1327.37 1565.05,1326.89 1567.14,1326.41 1569.23,1325.92 1571.32,1325.43 1573.41,1324.94 1575.5,1324.44 1577.59,1323.94 1579.68,1323.43 
  1581.77,1322.92 1583.86,1322.41 1585.95,1321.89 1588.04,1321.37 1590.12,1320.84 1592.21,1320.31 1594.3,1319.78 1596.39,1319.24 1598.48,1318.7 1600.57,1318.15 
  1602.66,1317.6 1604.75,1317.04 1606.84,1316.48 1608.93,1315.91 1611.02,1315.34 1613.11,1314.77 1615.2,1314.19 1617.29,1313.6 1619.38,1313.02 1621.47,1312.42 
  1623.56,1311.82 1625.64,1311.22 1627.73,1310.61 1629.82,1310 1631.91,1309.38 1634,1308.76 1636.09,1308.13 1638.18,1307.5 1640.27,1306.86 1642.36,1306.22 
  1644.45,1305.57 1646.54,1304.92 1648.63,1304.26 1650.72,1303.6 1652.81,1302.93 1654.9,1302.25 1656.99,1301.57 1659.07,1300.89 1661.16,1300.2 1663.25,1299.5 
  1665.34,1298.8 1667.43,1298.09 1669.52,1297.38 1671.61,1296.66 1673.7,1295.93 1675.79,1295.2 1677.88,1294.47 1679.97,1293.72 1682.06,1292.98 1684.15,1292.22 
  1686.24,1291.46 1688.33,1290.69 1690.42,1289.92 1692.51,1289.14 1694.59,1288.36 1696.68,1287.57 1698.77,1286.77 1700.86,1285.96 1702.95,1285.15 1705.04,1284.34 
  1707.13,1283.51 1709.22,1282.68 1711.31,1281.85 1713.4,1281 1715.49,1280.15 1717.58,1279.29 1719.67,1278.43 1721.76,1277.56 1723.85,1276.68 1725.94,1275.8 
  1728.03,1274.9 1730.11,1274 1732.2,1273.1 1734.29,1272.18 1736.38,1271.26 1738.47,1270.33 1740.56,1269.4 1742.65,1268.45 1744.74,1267.5 1746.83,1266.54 
  1748.92,1265.58 1751.01,1264.6 1753.1,1263.62 1755.19,1262.63 1757.28,1261.63 1759.37,1260.63 1761.46,1259.61 1763.54,1258.59 1765.63,1257.56 1767.72,1256.52 
  1769.81,1255.47 1771.9,1254.42 1773.99,1253.35 1776.08,1252.28 1778.17,1251.2 1780.26,1250.11 1782.35,1249.01 1784.44,1247.9 1786.53,1246.78 1788.62,1245.66 
  1790.71,1244.52 1792.8,1243.38 1794.89,1242.23 1796.98,1241.06 1799.06,1239.89 1801.15,1238.71 1803.24,1237.52 1805.33,1236.32 1807.42,1235.11 1809.51,1233.89 
  1811.6,1232.66 1813.69,1231.42 1815.78,1230.17 1817.87,1228.91 1819.96,1227.64 1822.05,1226.36 1824.14,1225.07 1826.23,1223.77 1828.32,1222.46 1830.41,1221.13 
  1832.5,1219.8 1834.58,1218.46 1836.67,1217.11 1838.76,1215.74 1840.85,1214.36 1842.94,1212.98 1845.03,1211.58 1847.12,1210.17 1849.21,1208.75 1851.3,1207.32 
  1853.39,1205.87 1855.48,1204.42 1857.57,1202.95 1859.66,1201.47 1861.75,1199.98 1863.84,1198.48 1865.93,1196.97 1868.01,1195.44 1870.1,1193.9 1872.19,1192.35 
  1874.28,1190.79 1876.37,1189.21 1878.46,1187.62 1880.55,1186.02 1882.64,1184.41 1884.73,1182.78 1886.82,1181.14 1888.91,1179.49 1891,1177.82 1893.09,1176.14 
  1895.18,1174.44 1897.27,1172.74 1899.36,1171.02 1901.45,1169.28 1903.53,1167.53 1905.62,1165.77 1907.71,1163.99 1909.8,1162.2 1911.89,1160.4 1913.98,1158.58 
  1916.07,1156.74 1918.16,1154.89 1920.25,1153.03 1922.34,1151.15 1924.43,1149.25 1926.52,1147.34 1928.61,1145.42 1930.7,1143.48 1932.79,1141.52 1934.88,1139.55 
  1936.97,1137.56 1939.05,1135.56 1941.14,1133.54 1943.23,1131.51 1945.32,1129.46 1947.41,1127.39 1949.5,1125.3 1951.59,1123.2 1953.68,1121.08 1955.77,1118.95 
  1957.86,1116.79 1959.95,1114.62 1962.04,1112.44 1964.13,1110.23 1966.22,1108.01 1968.31,1105.77 1970.4,1103.51 1972.48,1101.23 1974.57,1098.94 1976.66,1096.62 
  1978.75,1094.29 1980.84,1091.94 1982.93,1089.57 1985.02,1087.18 1987.11,1084.77 1989.2,1082.34 1991.29,1079.9 1993.38,1077.43 1995.47,1074.94 1997.56,1072.44 
  1999.65,1069.91 2001.74,1067.36 2003.83,1064.79 2005.92,1062.21 2008,1059.6 2010.09,1056.96 2012.18,1054.31 2014.27,1051.64 2016.36,1048.94 2018.45,1046.23 
  2020.54,1043.49 2022.63,1040.73 2024.72,1037.95 2026.81,1035.14 2028.9,1032.31 2030.99,1029.46 2033.08,1026.59 2035.17,1023.69 2037.26,1020.77 2039.35,1017.83 
  2041.44,1014.86 2043.52,1011.87 2045.61,1008.85 2047.7,1005.81 2049.79,1002.75 2051.88,999.661 2053.97,996.547 2056.06,993.408 2058.15,990.244 2060.24,987.054 
  2062.33,983.839 2064.42,980.598 2066.51,977.331 2068.6,974.037 2070.69,970.717 2072.78,967.371 2074.87,963.997 2076.96,960.597 2079.04,957.169 2081.13,953.713 
  2083.22,950.23 2085.31,946.719 2087.4,943.18 2089.49,939.613 2091.58,936.017 2093.67,932.392 2095.76,928.738 2097.85,925.055 2099.94,921.342 2102.03,917.6 
  2104.12,913.827 2106.21,910.024 2108.3,906.19 2110.39,902.325 2112.47,898.429 2114.56,894.502 2116.65,890.543 2118.74,886.553 2120.83,882.53 2122.92,878.475 
  2125.01,874.388 2127.1,870.268 2129.19,866.115 2131.28,861.928 2133.37,857.708 2135.46,853.454 2137.55,849.166 2139.64,844.843 2141.73,840.486 2143.82,836.094 
  2145.91,831.667 2147.99,827.204 2150.08,822.706 2152.17,818.171 2154.26,813.6 2156.35,808.993 2158.44,804.349 2160.53,799.667 2162.62,794.948 2164.71,790.191 
  2166.8,785.396 2168.89,780.562 2170.98,775.69 2173.07,770.779 2175.16,765.828 2177.25,760.837 2179.34,755.807 2181.43,750.736 2183.51,745.624 2185.6,740.472 
  2187.69,735.278 2189.78,730.042 2191.87,724.764 2193.96,719.444 2196.05,714.081 2198.14,708.675 2200.23,703.225 2202.32,697.732 2204.41,692.195 2206.5,686.613 
  2208.59,680.986 2210.68,675.313 2212.77,669.595 2214.86,663.832 2216.94,658.021 2219.03,652.164 2221.12,646.26 2223.21,640.308 2225.3,634.308 2227.39,628.26 
  2229.48,622.163 2231.57,616.017 2233.66,609.822 2235.75,603.576 2237.84,597.28 2239.93,590.934 2242.02,584.536 2244.11,578.086 2246.2,571.585 2248.29,565.031 
  2250.38,558.424 2252.46,551.764 2254.55,545.051 2256.64,538.283 2258.73,531.46 2260.82,524.583 2262.91,517.65 2265,510.661 2267.09,503.615 2269.18,496.513 
  2271.27,489.354 2273.36,482.136 2275.45,474.861 2277.54,467.527 2279.63,460.134 2281.72,452.681 2283.81,445.168 2285.9,437.594 2287.98,429.96 2290.07,422.264 
  2292.16,414.506 2294.25,406.685 2296.34,398.802 2298.43,390.855 2300.52,382.844 2302.61,374.768 2304.7,366.628 2306.79,358.422 2308.88,350.15 2310.97,341.811 
  2313.06,333.406 2315.15,324.933 2317.24,316.392 2319.33,307.782 2321.41,299.104 2323.5,290.355 2325.59,281.537 2327.68,272.647 2329.77,263.687 2331.86,254.655 
  2333.95,245.55 2336.04,236.373 2338.13,227.122 2340.22,217.797 2342.31,208.397 2344.4,198.923 2346.49,189.372 2348.58,179.744 2350.67,170.039 2352.76,160.256 
  
  "/>
</svg>
