<?xml version="1.0" encoding="utf-8"?>
<svg xmlns="http://www.w3.org/2000/svg" xmlns:xlink="http://www.w3.org/1999/xlink" width="600" height="400" viewBox="0 0 2400 1600">
<defs>
  <clipPath id="clip940">
    <rect x="0" y="0" width="2400" height="1600"/>
  </clipPath>
</defs>
<path clip-path="url(#clip940)" d="
M0 1600 L2400 1600 L2400 0 L0 0  Z
  " fill="#ffffff" fill-rule="evenodd" fill-opacity="1"/>
<defs>
  <clipPath id="clip941">
    <rect x="480" y="0" width="1681" height="1600"/>
  </clipPath>
</defs>
<path clip-path="url(#clip940)" d="
M242.135 1423.18 L2352.76 1423.18 L2352.76 123.472 L242.135 123.472  Z
  " fill="#ffffff" fill-rule="evenodd" fill-opacity="1"/>
<defs>
  <clipPath id="clip942">
    <rect x="242" y="123" width="2112" height="1301"/>
  </clipPath>
</defs>
<polyline clip-path="url(#clip942)" style="stroke:#000000; stroke-linecap:butt; stroke-linejoin:round; stroke-width:2; stroke-opacity:0.1; fill:none" points="
  301.869,1423.18 301.869,123.472 
  "/>
<polyline clip-path="url(#clip942)" style="stroke:#000000; stroke-linecap:butt; stroke-linejoin:round; stroke-width:2; stroke-opacity:0.1; fill:none" points="
  965.587,1423.18 965.587,123.472 
  "/>
<polyline clip-path="url(#clip942)" style="stroke:#000000; stroke-linecap:butt; stroke-linejoin:round; stroke-width:2; stroke-opacity:0.1; fill:none" points="
  1629.3,1423.18 1629.3,123.472 
  "/>
<polyline clip-path="url(#clip942)" style="stroke:#000000; stroke-linecap:butt; stroke-linejoin:round; stroke-width:2; stroke-opacity:0.1; fill:none" points="
  2293.02,1423.18 2293.02,123.472 
  "/>
<polyline clip-path="url(#clip940)" style="stroke:#000000; stroke-linecap:butt; stroke-linejoin:round; stroke-width:4; stroke-opacity:1; fill:none" points="
  242.135,1423.18 2352.76,1423.18 
  "/>
<polyline clip-path="url(#clip940)" style="stroke:#000000; stroke-linecap:butt; stroke-linejoin:round; stroke-width:4; stroke-opacity:1; fill:none" points="
  301.869,1423.18 301.869,1404.28 
  "/>
<polyline clip-path="url(#clip940)" style="stroke:#000000; stroke-linecap:butt; stroke-linejoin:round; stroke-width:4; stroke-opacity:1; fill:none" points="
  965.587,1423.18 965.587,1404.28 
  "/>
<polyline clip-path="url(#clip940)" style="stroke:#000000; stroke-linecap:butt; stroke-linejoin:round; stroke-width:4; stroke-opacity:1; fill:none" points="
  1629.3,1423.18 1629.3,1404.28 
  "/>
<polyline clip-path="url(#clip940)" style="stroke:#000000; stroke-linecap:butt; stroke-linejoin:round; stroke-width:4; stroke-opacity:1; fill:none" points="
  2293.02,1423.18 2293.02,1404.28 
  "/>
<path clip-path="url(#clip940)" d="M292.251 1479.92 L299.89 1479.92 L299.89 1453.55 L291.58 1455.22 L291.58 1450.96 L299.844 1449.29 L304.52 1449.29 L304.52 1479.92 L312.159 1479.92 L312.159 1483.85 L292.251 1483.85 L292.251 1479.92 Z" fill="#000000" fill-rule="evenodd" fill-opacity="1" /><path clip-path="url(#clip940)" d="M960.239 1479.92 L976.559 1479.92 L976.559 1483.85 L954.614 1483.85 L954.614 1479.92 Q957.276 1477.16 961.86 1472.53 Q966.466 1467.88 967.647 1466.54 Q969.892 1464.01 970.772 1462.28 Q971.675 1460.52 971.675 1458.83 Q971.675 1456.07 969.73 1454.34 Q967.809 1452.6 964.707 1452.6 Q962.508 1452.6 960.054 1453.37 Q957.624 1454.13 954.846 1455.68 L954.846 1450.96 Q957.67 1449.82 960.124 1449.25 Q962.577 1448.67 964.614 1448.67 Q969.985 1448.67 973.179 1451.35 Q976.374 1454.04 976.374 1458.53 Q976.374 1460.66 975.563 1462.58 Q974.776 1464.48 972.67 1467.07 Q972.091 1467.74 968.989 1470.96 Q965.888 1474.15 960.239 1479.92 Z" fill="#000000" fill-rule="evenodd" fill-opacity="1" /><path clip-path="url(#clip940)" d="M1633.55 1465.22 Q1636.91 1465.94 1638.78 1468.2 Q1640.68 1470.47 1640.68 1473.81 Q1640.68 1478.92 1637.16 1481.72 Q1633.64 1484.52 1627.16 1484.52 Q1624.99 1484.52 1622.67 1484.08 Q1620.38 1483.67 1617.93 1482.81 L1617.93 1478.3 Q1619.87 1479.43 1622.19 1480.01 Q1624.5 1480.59 1627.02 1480.59 Q1631.42 1480.59 1633.71 1478.85 Q1636.03 1477.12 1636.03 1473.81 Q1636.03 1470.75 1633.88 1469.04 Q1631.75 1467.3 1627.93 1467.3 L1623.9 1467.3 L1623.9 1463.46 L1628.11 1463.46 Q1631.56 1463.46 1633.39 1462.09 Q1635.22 1460.7 1635.22 1458.11 Q1635.22 1455.45 1633.32 1454.04 Q1631.45 1452.6 1627.93 1452.6 Q1626.01 1452.6 1623.81 1453.02 Q1621.61 1453.44 1618.97 1454.31 L1618.97 1450.15 Q1621.63 1449.41 1623.95 1449.04 Q1626.28 1448.67 1628.34 1448.67 Q1633.67 1448.67 1636.77 1451.1 Q1639.87 1453.5 1639.87 1457.63 Q1639.87 1460.5 1638.23 1462.49 Q1636.58 1464.45 1633.55 1465.22 Z" fill="#000000" fill-rule="evenodd" fill-opacity="1" /><path clip-path="url(#clip940)" d="M2296.03 1453.37 L2284.23 1471.81 L2296.03 1471.81 L2296.03 1453.37 M2294.8 1449.29 L2300.68 1449.29 L2300.68 1471.81 L2305.61 1471.81 L2305.61 1475.7 L2300.68 1475.7 L2300.68 1483.85 L2296.03 1483.85 L2296.03 1475.7 L2280.43 1475.7 L2280.43 1471.19 L2294.8 1449.29 Z" fill="#000000" fill-rule="evenodd" fill-opacity="1" /><path clip-path="url(#clip940)" d="M1296.51 1522.27 L1296.51 1532.4 L1308.57 1532.4 L1308.57 1536.95 L1296.51 1536.95 L1296.51 1556.3 Q1296.51 1560.66 1297.68 1561.9 Q1298.89 1563.14 1302.55 1563.14 L1308.57 1563.14 L1308.57 1568.04 L1302.55 1568.04 Q1295.77 1568.04 1293.2 1565.53 Q1290.62 1562.98 1290.62 1556.3 L1290.62 1536.95 L1286.32 1536.95 L1286.32 1532.4 L1290.62 1532.4 L1290.62 1522.27 L1296.51 1522.27 Z" fill="#000000" fill-rule="evenodd" fill-opacity="1" /><polyline clip-path="url(#clip942)" style="stroke:#000000; stroke-linecap:butt; stroke-linejoin:round; stroke-width:2; stroke-opacity:0.1; fill:none" points="
  242.135,1423.18 2352.76,1423.18 
  "/>
<polyline clip-path="url(#clip942)" style="stroke:#000000; stroke-linecap:butt; stroke-linejoin:round; stroke-width:2; stroke-opacity:0.1; fill:none" points="
  242.135,1206.56 2352.76,1206.56 
  "/>
<polyline clip-path="url(#clip942)" style="stroke:#000000; stroke-linecap:butt; stroke-linejoin:round; stroke-width:2; stroke-opacity:0.1; fill:none" points="
  242.135,989.944 2352.76,989.944 
  "/>
<polyline clip-path="url(#clip942)" style="stroke:#000000; stroke-linecap:butt; stroke-linejoin:round; stroke-width:2; stroke-opacity:0.1; fill:none" points="
  242.135,773.326 2352.76,773.326 
  "/>
<polyline clip-path="url(#clip942)" style="stroke:#000000; stroke-linecap:butt; stroke-linejoin:round; stroke-width:2; stroke-opacity:0.1; fill:none" points="
  242.135,556.708 2352.76,556.708 
  "/>
<polyline clip-path="url(#clip942)" style="stroke:#000000; stroke-linecap:butt; stroke-linejoin:round; stroke-width:2; stroke-opacity:0.1; fill:none" points="
  242.135,340.09 2352.76,340.09 
  "/>
<polyline clip-path="url(#clip942)" style="stroke:#000000; stroke-linecap:butt; stroke-linejoin:round; stroke-width:2; stroke-opacity:0.1; fill:none" points="
  242.135,123.472 2352.76,123.472 
  "/>
<polyline clip-path="url(#clip940)" style="stroke:#000000; stroke-linecap:butt; stroke-linejoin:round; stroke-width:4; stroke-opacity:1; fill:none" points="
  242.135,1423.18 242.135,123.472 
  "/>
<polyline clip-path="url(#clip940)" style="stroke:#000000; stroke-linecap:butt; stroke-linejoin:round; stroke-width:4; stroke-opacity:1; fill:none" points="
  242.135,1423.18 261.032,1423.18 
  "/>
<polyline clip-path="url(#clip940)" style="stroke:#000000; stroke-linecap:butt; stroke-linejoin:round; stroke-width:4; stroke-opacity:1; fill:none" points="
  242.135,1206.56 261.032,1206.56 
  "/>
<polyline clip-path="url(#clip940)" style="stroke:#000000; stroke-linecap:butt; stroke-linejoin:round; stroke-width:4; stroke-opacity:1; fill:none" points="
  242.135,989.944 261.032,989.944 
  "/>
<polyline clip-path="url(#clip940)" style="stroke:#000000; stroke-linecap:butt; stroke-linejoin:round; stroke-width:4; stroke-opacity:1; fill:none" points="
  242.135,773.326 261.032,773.326 
  "/>
<polyline clip-path="url(#clip940)" style="stroke:#000000; stroke-linecap:butt; stroke-linejoin:round; stroke-width:4; stroke-opacity:1; fill:none" points="
  242.135,556.708 261.032,556.708 
  "/>
<polyline clip-path="url(#clip940)" style="stroke:#000000; stroke-linecap:butt; stroke-linejoin:round; stroke-width:4; stroke-opacity:1; fill:none" points="
  242.135,340.09 261.032,340.09 
  "/>
<polyline clip-path="url(#clip940)" style="stroke:#000000; stroke-linecap:butt; stroke-linejoin:round; stroke-width:4; stroke-opacity:1; fill:none" points="
  242.135,123.472 261.032,123.472 
  "/>
<path clip-path="url(#clip940)" d="M114.26 1423.63 L143.936 1423.63 L143.936 1427.57 L114.26 1427.57 L114.26 1423.63 Z" fill="#000000" fill-rule="evenodd" fill-opacity="1" /><path clip-path="url(#clip940)" d="M164.607 1421.32 Q161.459 1421.32 159.607 1423.47 Q157.778 1425.62 157.778 1429.37 Q157.778 1433.1 159.607 1435.27 Q161.459 1437.43 164.607 1437.43 Q167.755 1437.43 169.584 1435.27 Q171.436 1433.1 171.436 1429.37 Q171.436 1425.62 169.584 1423.47 Q167.755 1421.32 164.607 1421.32 M173.889 1406.66 L173.889 1410.92 Q172.13 1410.09 170.325 1409.65 Q168.542 1409.21 166.783 1409.21 Q162.153 1409.21 159.7 1412.33 Q157.269 1415.46 156.922 1421.78 Q158.288 1419.77 160.348 1418.7 Q162.408 1417.61 164.885 1417.61 Q170.093 1417.61 173.102 1420.78 Q176.135 1423.93 176.135 1429.37 Q176.135 1434.7 172.987 1437.91 Q169.839 1441.13 164.607 1441.13 Q158.612 1441.13 155.44 1436.55 Q152.269 1431.94 152.269 1423.21 Q152.269 1415.02 156.158 1410.16 Q160.047 1405.27 166.598 1405.27 Q168.357 1405.27 170.139 1405.62 Q171.945 1405.97 173.889 1406.66 Z" fill="#000000" fill-rule="evenodd" fill-opacity="1" /><path clip-path="url(#clip940)" d="M194.19 1408.98 Q190.579 1408.98 188.75 1412.54 Q186.945 1416.08 186.945 1423.21 Q186.945 1430.32 188.75 1433.89 Q190.579 1437.43 194.19 1437.43 Q197.825 1437.43 199.63 1433.89 Q201.459 1430.32 201.459 1423.21 Q201.459 1416.08 199.63 1412.54 Q197.825 1408.98 194.19 1408.98 M194.19 1405.27 Q200 1405.27 203.056 1409.88 Q206.135 1414.46 206.135 1423.21 Q206.135 1431.94 203.056 1436.55 Q200 1441.13 194.19 1441.13 Q188.38 1441.13 185.301 1436.55 Q182.246 1431.94 182.246 1423.21 Q182.246 1414.46 185.301 1409.88 Q188.38 1405.27 194.19 1405.27 Z" fill="#000000" fill-rule="evenodd" fill-opacity="1" /><path clip-path="url(#clip940)" d="M114.26 1207.01 L143.936 1207.01 L143.936 1210.95 L114.26 1210.95 L114.26 1207.01 Z" fill="#000000" fill-rule="evenodd" fill-opacity="1" /><path clip-path="url(#clip940)" d="M166.876 1193.36 L155.07 1211.8 L166.876 1211.8 L166.876 1193.36 M165.649 1189.28 L171.528 1189.28 L171.528 1211.8 L176.459 1211.8 L176.459 1215.69 L171.528 1215.69 L171.528 1223.84 L166.876 1223.84 L166.876 1215.69 L151.274 1215.69 L151.274 1211.18 L165.649 1189.28 Z" fill="#000000" fill-rule="evenodd" fill-opacity="1" /><path clip-path="url(#clip940)" d="M194.19 1192.36 Q190.579 1192.36 188.75 1195.93 Q186.945 1199.47 186.945 1206.6 Q186.945 1213.7 188.75 1217.27 Q190.579 1220.81 194.19 1220.81 Q197.825 1220.81 199.63 1217.27 Q201.459 1213.7 201.459 1206.6 Q201.459 1199.47 199.63 1195.93 Q197.825 1192.36 194.19 1192.36 M194.19 1188.66 Q200 1188.66 203.056 1193.26 Q206.135 1197.85 206.135 1206.6 Q206.135 1215.32 203.056 1219.93 Q200 1224.51 194.19 1224.51 Q188.38 1224.51 185.301 1219.93 Q182.246 1215.32 182.246 1206.6 Q182.246 1197.85 185.301 1193.26 Q188.38 1188.66 194.19 1188.66 Z" fill="#000000" fill-rule="evenodd" fill-opacity="1" /><path clip-path="url(#clip940)" d="M114.26 990.395 L143.936 990.395 L143.936 994.33 L114.26 994.33 L114.26 990.395 Z" fill="#000000" fill-rule="evenodd" fill-opacity="1" /><path clip-path="url(#clip940)" d="M158.056 1003.29 L174.376 1003.29 L174.376 1007.22 L152.431 1007.22 L152.431 1003.29 Q155.093 1000.53 159.677 995.905 Q164.283 991.252 165.464 989.909 Q167.709 987.386 168.589 985.65 Q169.491 983.891 169.491 982.201 Q169.491 979.446 167.547 977.71 Q165.626 975.974 162.524 975.974 Q160.325 975.974 157.871 976.738 Q155.44 977.502 152.663 979.053 L152.663 974.331 Q155.487 973.196 157.94 972.618 Q160.394 972.039 162.431 972.039 Q167.802 972.039 170.996 974.724 Q174.19 977.409 174.19 981.9 Q174.19 984.03 173.38 985.951 Q172.593 987.849 170.487 990.442 Q169.908 991.113 166.806 994.33 Q163.704 997.525 158.056 1003.29 Z" fill="#000000" fill-rule="evenodd" fill-opacity="1" /><path clip-path="url(#clip940)" d="M194.19 975.743 Q190.579 975.743 188.75 979.307 Q186.945 982.849 186.945 989.979 Q186.945 997.085 188.75 1000.65 Q190.579 1004.19 194.19 1004.19 Q197.825 1004.19 199.63 1000.65 Q201.459 997.085 201.459 989.979 Q201.459 982.849 199.63 979.307 Q197.825 975.743 194.19 975.743 M194.19 972.039 Q200 972.039 203.056 976.645 Q206.135 981.229 206.135 989.979 Q206.135 998.705 203.056 1003.31 Q200 1007.9 194.19 1007.9 Q188.38 1007.9 185.301 1003.31 Q182.246 998.705 182.246 989.979 Q182.246 981.229 185.301 976.645 Q188.38 972.039 194.19 972.039 Z" fill="#000000" fill-rule="evenodd" fill-opacity="1" /><path clip-path="url(#clip940)" d="M194.19 759.125 Q190.579 759.125 188.75 762.689 Q186.945 766.231 186.945 773.361 Q186.945 780.467 188.75 784.032 Q190.579 787.574 194.19 787.574 Q197.825 787.574 199.63 784.032 Q201.459 780.467 201.459 773.361 Q201.459 766.231 199.63 762.689 Q197.825 759.125 194.19 759.125 M194.19 755.421 Q200 755.421 203.056 760.027 Q206.135 764.611 206.135 773.361 Q206.135 782.088 203.056 786.694 Q200 791.277 194.19 791.277 Q188.38 791.277 185.301 786.694 Q182.246 782.088 182.246 773.361 Q182.246 764.611 185.301 760.027 Q188.38 755.421 194.19 755.421 Z" fill="#000000" fill-rule="evenodd" fill-opacity="1" /><path clip-path="url(#clip940)" d="M158.056 570.053 L174.376 570.053 L174.376 573.988 L152.431 573.988 L152.431 570.053 Q155.093 567.298 159.677 562.669 Q164.283 558.016 165.464 556.673 Q167.709 554.15 168.589 552.414 Q169.491 550.655 169.491 548.965 Q169.491 546.21 167.547 544.474 Q165.626 542.738 162.524 542.738 Q160.325 542.738 157.871 543.502 Q155.44 544.266 152.663 545.817 L152.663 541.095 Q155.487 539.96 157.94 539.382 Q160.394 538.803 162.431 538.803 Q167.802 538.803 170.996 541.488 Q174.19 544.173 174.19 548.664 Q174.19 550.794 173.38 552.715 Q172.593 554.613 170.487 557.206 Q169.908 557.877 166.806 561.095 Q163.704 564.289 158.056 570.053 Z" fill="#000000" fill-rule="evenodd" fill-opacity="1" /><path clip-path="url(#clip940)" d="M194.19 542.507 Q190.579 542.507 188.75 546.072 Q186.945 549.613 186.945 556.743 Q186.945 563.849 188.75 567.414 Q190.579 570.956 194.19 570.956 Q197.825 570.956 199.63 567.414 Q201.459 563.849 201.459 556.743 Q201.459 549.613 199.63 546.072 Q197.825 542.507 194.19 542.507 M194.19 538.803 Q200 538.803 203.056 543.409 Q206.135 547.993 206.135 556.743 Q206.135 565.47 203.056 570.076 Q200 574.659 194.19 574.659 Q188.38 574.659 185.301 570.076 Q182.246 565.47 182.246 556.743 Q182.246 547.993 185.301 543.409 Q188.38 538.803 194.19 538.803 Z" fill="#000000" fill-rule="evenodd" fill-opacity="1" /><path clip-path="url(#clip940)" d="M166.876 326.884 L155.07 345.333 L166.876 345.333 L166.876 326.884 M165.649 322.81 L171.528 322.81 L171.528 345.333 L176.459 345.333 L176.459 349.222 L171.528 349.222 L171.528 357.37 L166.876 357.37 L166.876 349.222 L151.274 349.222 L151.274 344.708 L165.649 322.81 Z" fill="#000000" fill-rule="evenodd" fill-opacity="1" /><path clip-path="url(#clip940)" d="M194.19 325.889 Q190.579 325.889 188.75 329.454 Q186.945 332.995 186.945 340.125 Q186.945 347.231 188.75 350.796 Q190.579 354.338 194.19 354.338 Q197.825 354.338 199.63 350.796 Q201.459 347.231 201.459 340.125 Q201.459 332.995 199.63 329.454 Q197.825 325.889 194.19 325.889 M194.19 322.185 Q200 322.185 203.056 326.792 Q206.135 331.375 206.135 340.125 Q206.135 348.852 203.056 353.458 Q200 358.041 194.19 358.041 Q188.38 358.041 185.301 353.458 Q182.246 348.852 182.246 340.125 Q182.246 331.375 185.301 326.792 Q188.38 322.185 194.19 322.185 Z" fill="#000000" fill-rule="evenodd" fill-opacity="1" /><path clip-path="url(#clip940)" d="M164.607 121.609 Q161.459 121.609 159.607 123.761 Q157.778 125.914 157.778 129.664 Q157.778 133.391 159.607 135.567 Q161.459 137.72 164.607 137.72 Q167.755 137.72 169.584 135.567 Q171.436 133.391 171.436 129.664 Q171.436 125.914 169.584 123.761 Q167.755 121.609 164.607 121.609 M173.889 106.956 L173.889 111.215 Q172.13 110.382 170.325 109.942 Q168.542 109.502 166.783 109.502 Q162.153 109.502 159.7 112.627 Q157.269 115.752 156.922 122.072 Q158.288 120.058 160.348 118.993 Q162.408 117.905 164.885 117.905 Q170.093 117.905 173.102 121.076 Q176.135 124.224 176.135 129.664 Q176.135 134.988 172.987 138.206 Q169.839 141.423 164.607 141.423 Q158.612 141.423 155.44 136.84 Q152.269 132.234 152.269 123.507 Q152.269 115.312 156.158 110.451 Q160.047 105.567 166.598 105.567 Q168.357 105.567 170.139 105.914 Q171.945 106.262 173.889 106.956 Z" fill="#000000" fill-rule="evenodd" fill-opacity="1" /><path clip-path="url(#clip940)" d="M194.19 109.271 Q190.579 109.271 188.75 112.836 Q186.945 116.377 186.945 123.507 Q186.945 130.613 188.75 134.178 Q190.579 137.72 194.19 137.72 Q197.825 137.72 199.63 134.178 Q201.459 130.613 201.459 123.507 Q201.459 116.377 199.63 112.836 Q197.825 109.271 194.19 109.271 M194.19 105.567 Q200 105.567 203.056 110.174 Q206.135 114.757 206.135 123.507 Q206.135 132.234 203.056 136.84 Q200 141.423 194.19 141.423 Q188.38 141.423 185.301 136.84 Q182.246 132.234 182.246 123.507 Q182.246 114.757 185.301 110.174 Q188.38 105.567 194.19 105.567 Z" fill="#000000" fill-rule="evenodd" fill-opacity="1" /><path clip-path="url(#clip940)" d="M28.3562 756.711 L45.7028 769.602 L64.0042 756.043 L64.0042 762.95 L49.9996 773.326 L64.0042 783.702 L64.0042 790.609 L45.3526 776.763 L28.3562 789.431 L28.3562 782.524 L41.0558 773.071 L28.3562 763.618 L28.3562 756.711 Z" fill="#000000" fill-rule="evenodd" fill-opacity="1" /><path clip-path="url(#clip940)" d="M621.916 18.8205 L621.916 41.5461 L632.206 41.5461 Q637.918 41.5461 641.037 38.5889 Q644.156 35.6318 644.156 30.163 Q644.156 24.7348 641.037 21.7777 Q637.918 18.8205 632.206 18.8205 L621.916 18.8205 M613.734 12.096 L632.206 12.096 Q642.374 12.096 647.559 16.714 Q652.784 21.2916 652.784 30.163 Q652.784 39.1155 647.559 43.6931 Q642.374 48.2706 632.206 48.2706 L621.916 48.2706 L621.916 72.576 L613.734 72.576 L613.734 12.096 Z" fill="#000000" fill-rule="evenodd" fill-opacity="1" /><path clip-path="url(#clip940)" d="M661.615 27.2059 L669.069 27.2059 L669.069 72.576 L661.615 72.576 L661.615 27.2059 M661.615 9.54393 L669.069 9.54393 L669.069 18.9825 L661.615 18.9825 L661.615 9.54393 Z" fill="#000000" fill-rule="evenodd" fill-opacity="1" /><path clip-path="url(#clip940)" d="M717.315 28.9478 L717.315 35.9153 Q714.156 34.1734 710.955 33.3227 Q707.796 32.4315 704.555 32.4315 Q697.304 32.4315 693.293 37.0496 Q689.283 41.6271 689.283 49.9314 Q689.283 58.2358 693.293 62.8538 Q697.304 67.4314 704.555 67.4314 Q707.796 67.4314 710.955 66.5807 Q714.156 65.6895 717.315 63.9476 L717.315 70.8341 Q714.196 72.2924 710.834 73.0216 Q707.512 73.7508 703.745 73.7508 Q693.496 73.7508 687.46 67.3098 Q681.424 60.8689 681.424 49.9314 Q681.424 38.832 687.501 32.472 Q693.618 26.1121 704.231 26.1121 Q707.674 26.1121 710.955 26.8413 Q714.237 27.5299 717.315 28.9478 Z" fill="#000000" fill-rule="evenodd" fill-opacity="1" /><path clip-path="url(#clip940)" d="M729.995 9.54393 L737.489 9.54393 L737.489 46.7717 L759.728 27.2059 L769.248 27.2059 L745.186 48.4326 L770.261 72.576 L760.538 72.576 L737.489 50.4176 L737.489 72.576 L729.995 72.576 L729.995 9.54393 Z" fill="#000000" fill-rule="evenodd" fill-opacity="1" /><path clip-path="url(#clip940)" d="M778.322 27.2059 L785.776 27.2059 L785.776 72.576 L778.322 72.576 L778.322 27.2059 M778.322 9.54393 L785.776 9.54393 L785.776 18.9825 L778.322 18.9825 L778.322 9.54393 Z" fill="#000000" fill-rule="evenodd" fill-opacity="1" /><path clip-path="url(#clip940)" d="M839.085 45.1919 L839.085 72.576 L831.632 72.576 L831.632 45.4349 Q831.632 38.994 829.12 35.7938 Q826.609 32.5936 821.586 32.5936 Q815.55 32.5936 812.066 36.4419 Q808.582 40.2903 808.582 46.9338 L808.582 72.576 L801.088 72.576 L801.088 27.2059 L808.582 27.2059 L808.582 34.2544 Q811.256 30.163 814.861 28.1376 Q818.507 26.1121 823.246 26.1121 Q831.065 26.1121 835.075 30.9732 Q839.085 35.7938 839.085 45.1919 Z" fill="#000000" fill-rule="evenodd" fill-opacity="1" /><path clip-path="url(#clip940)" d="M883.807 49.3643 Q883.807 41.2625 880.445 36.8065 Q877.123 32.3505 871.088 32.3505 Q865.092 32.3505 861.73 36.8065 Q858.408 41.2625 858.408 49.3643 Q858.408 57.4256 861.73 61.8816 Q865.092 66.3376 871.088 66.3376 Q877.123 66.3376 880.445 61.8816 Q883.807 57.4256 883.807 49.3643 M891.261 66.9452 Q891.261 78.5308 886.116 84.1616 Q880.972 89.8329 870.358 89.8329 Q866.429 89.8329 862.945 89.2252 Q859.462 88.6581 856.18 87.4428 L856.18 80.1917 Q859.462 81.9741 862.662 82.8248 Q865.862 83.6755 869.184 83.6755 Q876.516 83.6755 880.162 79.8271 Q883.807 76.0193 883.807 68.282 L883.807 64.5957 Q881.498 68.6061 877.893 70.5911 Q874.288 72.576 869.265 72.576 Q860.92 72.576 855.816 66.2161 Q850.712 59.8562 850.712 49.3643 Q850.712 38.832 855.816 32.472 Q860.92 26.1121 869.265 26.1121 Q874.288 26.1121 877.893 28.0971 Q881.498 30.082 883.807 34.0924 L883.807 27.2059 L891.261 27.2059 L891.261 66.9452 Z" fill="#000000" fill-rule="evenodd" fill-opacity="1" /><path clip-path="url(#clip940)" d="M940.358 14.324 L940.358 27.2059 L955.711 27.2059 L955.711 32.9987 L940.358 32.9987 L940.358 57.6282 Q940.358 63.1779 941.857 64.7578 Q943.396 66.3376 948.055 66.3376 L955.711 66.3376 L955.711 72.576 L948.055 72.576 Q939.426 72.576 936.145 69.3758 Q932.864 66.1351 932.864 57.6282 L932.864 32.9987 L927.395 32.9987 L927.395 27.2059 L932.864 27.2059 L932.864 14.324 L940.358 14.324 Z" fill="#000000" fill-rule="evenodd" fill-opacity="1" /><path clip-path="url(#clip940)" d="M1003.23 45.1919 L1003.23 72.576 L995.774 72.576 L995.774 45.4349 Q995.774 38.994 993.263 35.7938 Q990.751 32.5936 985.728 32.5936 Q979.692 32.5936 976.209 36.4419 Q972.725 40.2903 972.725 46.9338 L972.725 72.576 L965.231 72.576 L965.231 9.54393 L972.725 9.54393 L972.725 34.2544 Q975.398 30.163 979.004 28.1376 Q982.65 26.1121 987.389 26.1121 Q995.207 26.1121 999.218 30.9732 Q1003.23 35.7938 1003.23 45.1919 Z" fill="#000000" fill-rule="evenodd" fill-opacity="1" /><path clip-path="url(#clip940)" d="M1056.9 48.0275 L1056.9 51.6733 L1022.63 51.6733 Q1023.12 59.3701 1027.25 63.421 Q1031.42 67.4314 1038.84 67.4314 Q1043.13 67.4314 1047.14 66.3781 Q1051.19 65.3249 1055.16 63.2184 L1055.16 70.267 Q1051.15 71.9684 1046.94 72.8596 Q1042.72 73.7508 1038.39 73.7508 Q1027.53 73.7508 1021.17 67.4314 Q1014.85 61.1119 1014.85 50.3365 Q1014.85 39.1965 1020.85 32.6746 Q1026.89 26.1121 1037.09 26.1121 Q1046.25 26.1121 1051.56 32.0264 Q1056.9 37.9003 1056.9 48.0275 M1049.45 45.84 Q1049.37 39.7232 1046.01 36.0774 Q1042.68 32.4315 1037.17 32.4315 Q1030.94 32.4315 1027.17 35.9558 Q1023.44 39.4801 1022.87 45.8805 L1049.45 45.84 Z" fill="#000000" fill-rule="evenodd" fill-opacity="1" /><path clip-path="url(#clip940)" d="M1124.43 28.5427 L1124.43 35.5912 Q1121.27 33.9709 1117.87 33.1607 Q1114.47 32.3505 1110.82 32.3505 Q1105.27 32.3505 1102.48 34.0519 Q1099.72 35.7533 1099.72 39.156 Q1099.72 41.7486 1101.71 43.2475 Q1103.69 44.7058 1109.69 46.0426 L1112.24 46.6097 Q1120.18 48.3111 1123.5 51.4303 Q1126.86 54.509 1126.86 60.0587 Q1126.86 66.3781 1121.84 70.0644 Q1116.86 73.7508 1108.11 73.7508 Q1104.46 73.7508 1100.49 73.0216 Q1096.56 72.3329 1092.19 70.9151 L1092.19 63.2184 Q1096.32 65.3654 1100.33 66.4591 Q1104.34 67.5124 1108.27 67.5124 Q1113.53 67.5124 1116.37 65.73 Q1119.21 63.9071 1119.21 60.6258 Q1119.21 57.5877 1117.14 55.9673 Q1115.11 54.3469 1108.19 52.8481 L1105.59 52.2405 Q1098.67 50.7821 1095.59 47.7845 Q1092.51 44.7463 1092.51 39.4801 Q1092.51 33.0797 1097.05 29.5959 Q1101.58 26.1121 1109.93 26.1121 Q1114.06 26.1121 1117.71 26.7198 Q1121.35 27.3274 1124.43 28.5427 Z" fill="#000000" fill-rule="evenodd" fill-opacity="1" /><path clip-path="url(#clip940)" d="M1156.31 32.4315 Q1150.32 32.4315 1146.83 37.1306 Q1143.35 41.7891 1143.35 49.9314 Q1143.35 58.0738 1146.79 62.7728 Q1150.28 67.4314 1156.31 67.4314 Q1162.27 67.4314 1165.75 62.7323 Q1169.23 58.0333 1169.23 49.9314 Q1169.23 41.8701 1165.75 37.1711 Q1162.27 32.4315 1156.31 32.4315 M1156.31 26.1121 Q1166.03 26.1121 1171.58 32.4315 Q1177.13 38.7509 1177.13 49.9314 Q1177.13 61.0714 1171.58 67.4314 Q1166.03 73.7508 1156.31 73.7508 Q1146.55 73.7508 1141 67.4314 Q1135.49 61.0714 1135.49 49.9314 Q1135.49 38.7509 1141 32.4315 Q1146.55 26.1121 1156.31 26.1121 Z" fill="#000000" fill-rule="evenodd" fill-opacity="1" /><path clip-path="url(#clip940)" d="M1189.49 9.54393 L1196.94 9.54393 L1196.94 72.576 L1189.49 72.576 L1189.49 9.54393 Z" fill="#000000" fill-rule="evenodd" fill-opacity="1" /><path clip-path="url(#clip940)" d="M1211.77 54.671 L1211.77 27.2059 L1219.22 27.2059 L1219.22 54.3874 Q1219.22 60.8284 1221.73 64.0691 Q1224.25 67.2693 1229.27 67.2693 Q1235.3 67.2693 1238.79 63.421 Q1242.31 59.5726 1242.31 52.9291 L1242.31 27.2059 L1249.77 27.2059 L1249.77 72.576 L1242.31 72.576 L1242.31 65.6084 Q1239.6 69.7404 1235.99 71.7658 Q1232.43 73.7508 1227.69 73.7508 Q1219.87 73.7508 1215.82 68.8897 Q1211.77 64.0286 1211.77 54.671 M1230.52 26.1121 L1230.52 26.1121 Z" fill="#000000" fill-rule="evenodd" fill-opacity="1" /><path clip-path="url(#clip940)" d="M1272.49 14.324 L1272.49 27.2059 L1287.84 27.2059 L1287.84 32.9987 L1272.49 32.9987 L1272.49 57.6282 Q1272.49 63.1779 1273.99 64.7578 Q1275.53 66.3376 1280.19 66.3376 L1287.84 66.3376 L1287.84 72.576 L1280.19 72.576 Q1271.56 72.576 1268.28 69.3758 Q1265 66.1351 1265 57.6282 L1265 32.9987 L1259.53 32.9987 L1259.53 27.2059 L1265 27.2059 L1265 14.324 L1272.49 14.324 Z" fill="#000000" fill-rule="evenodd" fill-opacity="1" /><path clip-path="url(#clip940)" d="M1297.65 27.2059 L1305.1 27.2059 L1305.1 72.576 L1297.65 72.576 L1297.65 27.2059 M1297.65 9.54393 L1305.1 9.54393 L1305.1 18.9825 L1297.65 18.9825 L1297.65 9.54393 Z" fill="#000000" fill-rule="evenodd" fill-opacity="1" /><path clip-path="url(#clip940)" d="M1338.28 32.4315 Q1332.28 32.4315 1328.8 37.1306 Q1325.32 41.7891 1325.32 49.9314 Q1325.32 58.0738 1328.76 62.7728 Q1332.24 67.4314 1338.28 67.4314 Q1344.23 67.4314 1347.72 62.7323 Q1351.2 58.0333 1351.2 49.9314 Q1351.2 41.8701 1347.72 37.1711 Q1344.23 32.4315 1338.28 32.4315 M1338.28 26.1121 Q1348 26.1121 1353.55 32.4315 Q1359.1 38.7509 1359.1 49.9314 Q1359.1 61.0714 1353.55 67.4314 Q1348 73.7508 1338.28 73.7508 Q1328.52 73.7508 1322.97 67.4314 Q1317.46 61.0714 1317.46 49.9314 Q1317.46 38.7509 1322.97 32.4315 Q1328.52 26.1121 1338.28 26.1121 Z" fill="#000000" fill-rule="evenodd" fill-opacity="1" /><path clip-path="url(#clip940)" d="M1409.17 45.1919 L1409.17 72.576 L1401.72 72.576 L1401.72 45.4349 Q1401.72 38.994 1399.2 35.7938 Q1396.69 32.5936 1391.67 32.5936 Q1385.63 32.5936 1382.15 36.4419 Q1378.67 40.2903 1378.67 46.9338 L1378.67 72.576 L1371.17 72.576 L1371.17 27.2059 L1378.67 27.2059 L1378.67 34.2544 Q1381.34 30.163 1384.94 28.1376 Q1388.59 26.1121 1393.33 26.1121 Q1401.15 26.1121 1405.16 30.9732 Q1409.17 35.7938 1409.17 45.1919 Z" fill="#000000" fill-rule="evenodd" fill-opacity="1" /><path clip-path="url(#clip940)" d="M1446.07 27.2059 L1453.53 27.2059 L1462.84 62.6108 L1472.12 27.2059 L1480.91 27.2059 L1490.23 62.6108 L1499.5 27.2059 L1506.96 27.2059 L1495.09 72.576 L1486.3 72.576 L1476.54 35.3887 L1466.73 72.576 L1457.94 72.576 L1446.07 27.2059 Z" fill="#000000" fill-rule="evenodd" fill-opacity="1" /><path clip-path="url(#clip940)" d="M1518.26 27.2059 L1525.71 27.2059 L1525.71 72.576 L1518.26 72.576 L1518.26 27.2059 M1518.26 9.54393 L1525.71 9.54393 L1525.71 18.9825 L1518.26 18.9825 L1518.26 9.54393 Z" fill="#000000" fill-rule="evenodd" fill-opacity="1" /><path clip-path="url(#clip940)" d="M1548.68 14.324 L1548.68 27.2059 L1564.04 27.2059 L1564.04 32.9987 L1548.68 32.9987 L1548.68 57.6282 Q1548.68 63.1779 1550.18 64.7578 Q1551.72 66.3376 1556.38 66.3376 L1564.04 66.3376 L1564.04 72.576 L1556.38 72.576 Q1547.75 72.576 1544.47 69.3758 Q1541.19 66.1351 1541.19 57.6282 L1541.19 32.9987 L1535.72 32.9987 L1535.72 27.2059 L1541.19 27.2059 L1541.19 14.324 L1548.68 14.324 Z" fill="#000000" fill-rule="evenodd" fill-opacity="1" /><path clip-path="url(#clip940)" d="M1611.55 45.1919 L1611.55 72.576 L1604.1 72.576 L1604.1 45.4349 Q1604.1 38.994 1601.59 35.7938 Q1599.08 32.5936 1594.05 32.5936 Q1588.02 32.5936 1584.53 36.4419 Q1581.05 40.2903 1581.05 46.9338 L1581.05 72.576 L1573.55 72.576 L1573.55 9.54393 L1581.05 9.54393 L1581.05 34.2544 Q1583.72 30.163 1587.33 28.1376 Q1590.97 26.1121 1595.71 26.1121 Q1603.53 26.1121 1607.54 30.9732 Q1611.55 35.7938 1611.55 45.1919 Z" fill="#000000" fill-rule="evenodd" fill-opacity="1" /><path clip-path="url(#clip940)" d="M1690.5 27.2059 L1674.1 49.2833 L1691.36 72.576 L1682.56 72.576 L1669.36 54.752 L1656.15 72.576 L1647.36 72.576 L1664.98 48.8377 L1648.86 27.2059 L1657.65 27.2059 L1669.68 43.369 L1681.71 27.2059 L1690.5 27.2059 Z" fill="#000000" fill-rule="evenodd" fill-opacity="1" /><path clip-path="url(#clip940)" d="M1719.79 9.62495 Q1714.36 18.942 1711.73 28.0566 Q1709.1 37.1711 1709.1 46.5287 Q1709.1 55.8863 1711.73 65.0818 Q1714.4 74.2369 1719.79 83.5134 L1713.31 83.5134 Q1707.23 73.9938 1704.2 64.7983 Q1701.2 55.6027 1701.2 46.5287 Q1701.2 37.4952 1704.2 28.3401 Q1707.19 19.1851 1713.31 9.62495 L1719.79 9.62495 Z" fill="#000000" fill-rule="evenodd" fill-opacity="1" /><path clip-path="url(#clip940)" d="M1760.1 39.9662 Q1765.97 41.222 1769.25 45.1919 Q1772.58 49.1618 1772.58 54.9951 Q1772.58 63.9476 1766.42 68.8492 Q1760.26 73.7508 1748.92 73.7508 Q1745.11 73.7508 1741.06 72.9811 Q1737.05 72.2519 1732.76 70.7531 L1732.76 62.8538 Q1736.16 64.8388 1740.21 65.8515 Q1744.26 66.8642 1748.68 66.8642 Q1756.37 66.8642 1760.38 63.826 Q1764.43 60.7879 1764.43 54.9951 Q1764.43 49.6479 1760.67 46.6502 Q1756.94 43.612 1750.26 43.612 L1743.21 43.612 L1743.21 36.8875 L1750.58 36.8875 Q1756.62 36.8875 1759.82 34.4975 Q1763.02 32.067 1763.02 27.5299 Q1763.02 22.8714 1759.69 20.4004 Q1756.41 17.8888 1750.26 17.8888 Q1746.89 17.8888 1743.04 18.618 Q1739.2 19.3471 1734.58 20.8865 L1734.58 13.5948 Q1739.24 12.2985 1743.29 11.6504 Q1747.38 11.0023 1750.98 11.0023 Q1760.3 11.0023 1765.73 15.2557 Q1771.16 19.4686 1771.16 26.6793 Q1771.16 31.7024 1768.28 35.1862 Q1765.41 38.6294 1760.1 39.9662 Z" fill="#000000" fill-rule="evenodd" fill-opacity="1" /><path clip-path="url(#clip940)" d="M1785.86 9.62495 L1792.34 9.62495 Q1798.42 19.1851 1801.42 28.3401 Q1804.46 37.4952 1804.46 46.5287 Q1804.46 55.6027 1801.42 64.7983 Q1798.42 73.9938 1792.34 83.5134 L1785.86 83.5134 Q1791.25 74.2369 1793.88 65.0818 Q1796.56 55.8863 1796.56 46.5287 Q1796.56 37.1711 1793.88 28.0566 Q1791.25 18.942 1785.86 9.62495 Z" fill="#000000" fill-rule="evenodd" fill-opacity="1" /><path clip-path="url(#clip940)" d="M1820.38 34.9026 L1872.31 34.9026 L1872.31 41.7081 L1820.38 41.7081 L1820.38 34.9026 M1820.38 51.4303 L1872.31 51.4303 L1872.31 58.3168 L1820.38 58.3168 L1820.38 51.4303 Z" fill="#000000" fill-rule="evenodd" fill-opacity="1" /><path clip-path="url(#clip940)" d="M1897.02 65.6895 L1925.58 65.6895 L1925.58 72.576 L1887.18 72.576 L1887.18 65.6895 Q1891.83 60.8689 1899.86 52.7671 Q1907.92 44.6248 1909.98 42.2752 Q1913.91 37.8598 1915.45 34.8216 Q1917.03 31.7429 1917.03 28.7857 Q1917.03 23.9651 1913.63 20.927 Q1910.27 17.8888 1904.84 17.8888 Q1900.99 17.8888 1896.7 19.2256 Q1892.44 20.5624 1887.58 23.2765 L1887.58 15.0127 Q1892.52 13.0277 1896.82 12.015 Q1901.11 11.0023 1904.68 11.0023 Q1914.07 11.0023 1919.66 15.7013 Q1925.25 20.4004 1925.25 28.2591 Q1925.25 31.9859 1923.84 35.3482 Q1922.46 38.6699 1918.77 43.2069 Q1917.76 44.3817 1912.33 50.0125 Q1906.9 55.6027 1897.02 65.6895 Z" fill="#000000" fill-rule="evenodd" fill-opacity="1" /><path clip-path="url(#clip940)" d="M1960.25 17.4837 Q1953.93 17.4837 1950.73 23.7221 Q1947.57 29.92 1947.57 42.3968 Q1947.57 54.833 1950.73 61.0714 Q1953.93 67.2693 1960.25 67.2693 Q1966.61 67.2693 1969.77 61.0714 Q1972.97 54.833 1972.97 42.3968 Q1972.97 29.92 1969.77 23.7221 Q1966.61 17.4837 1960.25 17.4837 M1960.25 11.0023 Q1970.42 11.0023 1975.77 19.0636 Q1981.16 27.0843 1981.16 42.3968 Q1981.16 57.6687 1975.77 65.73 Q1970.42 73.7508 1960.25 73.7508 Q1950.09 73.7508 1944.7 65.73 Q1939.35 57.6687 1939.35 42.3968 Q1939.35 27.0843 1944.7 19.0636 Q1950.09 11.0023 1960.25 11.0023 Z" fill="#000000" fill-rule="evenodd" fill-opacity="1" /><polyline clip-path="url(#clip942)" style="stroke:#009af9; stroke-linecap:butt; stroke-linejoin:round; stroke-width:8; stroke-opacity:1; fill:none" points="
  301.869,811.13 321.314,812.54 501.114,828.343 609.166,840.76 700.522,853.42 799.761,869.88 891.25,888.035 989.336,911.309 1102.98,944.24 1203.97,980.045 
  1292.53,1017.57 1389.09,1066.27 1486.22,1125.08 1593.6,1203.92 1695.78,1295.29 1748.9,1350.21 1802.02,1410.91 1846.74,1466.93 1891.46,1527.88 1946.05,1609.58 
  2000.64,1700.14 2051.96,1794.19 2103.28,1897.79 2144.39,1988.3 2185.5,2086.1 2226.61,2191.78 2267.72,2305.96 2274.04,2324.33 2280.37,2342.92 2286.69,2361.73 
  2293.02,2380.77 
  "/>
<polyline clip-path="url(#clip942)" style="stroke:#e26f46; stroke-linecap:butt; stroke-linejoin:round; stroke-width:8; stroke-opacity:1; fill:none" points="
  301.869,798.528 321.314,799.468 501.114,810.004 609.166,818.282 700.522,826.722 799.761,837.695 891.25,849.799 989.336,865.315 1102.98,887.268 1203.97,911.139 
  1292.53,936.152 1389.09,968.625 1486.22,1007.83 1593.6,1060.39 1695.78,1121.3 1748.9,1157.92 1802.02,1198.38 1846.74,1235.73 1891.46,1276.36 1946.05,1330.83 
  2000.64,1391.2 2051.96,1453.9 2103.28,1522.97 2144.39,1583.31 2185.5,1648.51 2226.61,1718.96 2267.72,1795.08 2274.04,1807.33 2280.37,1819.72 2286.69,1832.27 
  2293.02,1844.96 
  "/>
<polyline clip-path="url(#clip942)" style="stroke:#3da44d; stroke-linecap:butt; stroke-linejoin:round; stroke-width:8; stroke-opacity:1; fill:none" points="
  301.869,785.927 321.314,786.397 501.114,791.665 609.166,795.804 700.522,800.024 799.761,805.511 891.25,811.562 989.336,819.32 1102.98,830.297 1203.97,842.232 
  1292.53,854.739 1389.09,870.975 1486.22,890.576 1593.6,916.858 1695.78,947.315 1748.9,965.622 1802.02,985.855 1846.74,1004.53 1891.46,1024.84 1946.05,1052.08 
  2000.64,1082.26 2051.96,1113.61 2103.28,1148.15 2144.39,1178.32 2185.5,1210.92 2226.61,1246.14 2267.72,1284.2 2274.04,1290.33 2280.37,1296.52 2286.69,1302.8 
  2293.02,1309.14 
  "/>
<polyline clip-path="url(#clip942)" style="stroke:#c271d2; stroke-linecap:butt; stroke-linejoin:round; stroke-width:8; stroke-opacity:1; fill:none" points="
  301.869,773.326 321.314,773.326 501.114,773.326 609.166,773.326 700.522,773.326 799.761,773.326 891.25,773.326 989.336,773.326 1102.98,773.326 1203.97,773.326 
  1292.53,773.326 1389.09,773.326 1486.22,773.326 1593.6,773.326 1695.78,773.326 1802.02,773.326 1891.46,773.326 2000.64,773.326 2103.28,773.326 2267.72,773.326 
  2293.02,773.326 
  "/>
<polyline clip-path="url(#clip942)" style="stroke:#ac8d18; stroke-linecap:butt; stroke-linejoin:round; stroke-width:8; stroke-opacity:1; fill:none" points="
  301.869,760.725 321.314,760.255 501.114,754.987 609.166,750.848 700.522,746.628 799.761,741.141 891.25,735.089 989.336,727.332 1102.98,716.355 1203.97,704.42 
  1292.53,691.913 1389.09,675.677 1486.22,656.076 1593.6,629.794 1695.78,599.337 1748.9,581.03 1802.02,560.797 1846.74,542.124 1891.46,521.81 1946.05,494.573 
  2000.64,464.387 2051.96,433.037 2103.28,398.506 2144.39,368.334 2185.5,335.733 2226.61,300.508 2267.72,262.448 2274.04,256.324 2280.37,250.127 2286.69,243.856 
  2293.02,237.51 
  "/>
<polyline clip-path="url(#clip942)" style="stroke:#00a9ad; stroke-linecap:butt; stroke-linejoin:round; stroke-width:8; stroke-opacity:1; fill:none" points="
  301.869,748.124 321.314,747.184 501.114,736.648 609.166,728.37 700.522,719.93 799.761,708.957 891.25,696.853 989.336,681.337 1102.98,659.384 1203.97,635.513 
  1292.53,610.5 1389.09,578.027 1486.22,538.826 1593.6,486.262 1695.78,425.348 1748.9,388.735 1802.02,348.268 1846.74,310.921 1891.46,270.293 1946.05,215.82 
  2000.64,155.448 2051.96,92.7486 2103.28,23.6862 2144.39,-36.6578 2185.5,-101.859 2226.61,-172.309 2267.72,-248.431 2274.04,-260.677 2280.37,-273.071 2286.69,-285.613 
  2293.02,-298.306 
  "/>
<polyline clip-path="url(#clip942)" style="stroke:#ed5d92; stroke-linecap:butt; stroke-linejoin:round; stroke-width:8; stroke-opacity:1; fill:none" points="
  301.869,735.522 321.314,734.112 501.114,718.309 609.166,705.892 700.522,693.232 799.761,676.772 891.25,658.617 989.336,635.343 1102.98,602.412 1203.97,566.607 
  1292.53,529.087 1389.09,480.378 1486.22,421.576 1593.6,342.73 1695.78,251.36 1748.9,196.439 1802.02,135.739 1846.74,79.719 1891.46,18.7766 1946.05,-62.9328 
  2000.64,-153.49 2051.96,-247.54 2103.28,-351.134 2144.39,-441.65 2185.5,-539.452 2226.61,-645.127 2267.72,-759.309 2274.04,-777.679 2280.37,-796.27 2286.69,-815.083 
  2293.02,-834.122 
  "/>
<circle clip-path="url(#clip942)" cx="1629.3" cy="556.708" r="10" fill="#000000" fill-rule="evenodd" fill-opacity="1" stroke="none"/>
<polyline clip-path="url(#clip942)" style="stroke:#000000; stroke-linecap:butt; stroke-linejoin:round; stroke-width:10; stroke-opacity:1; fill:none" points="
  301.869,755.545 321.314,754.882 501.114,747.448 609.166,741.608 700.522,735.653 799.761,727.912 891.25,719.372 989.336,708.425 1102.98,692.936 1203.97,676.095 
  1292.53,658.447 1389.09,635.537 1486.22,607.879 1593.6,570.793 1695.78,527.816 1748.9,501.984 1802.02,473.434 1846.74,447.085 1891.46,418.42 1946.05,379.988 
  2000.64,337.393 2051.96,293.157 2103.28,244.431 2144.39,201.856 2185.5,155.854 2226.61,106.15 2267.72,52.4436 2274.04,43.8031 2280.37,35.059 2286.69,26.21 
  2293.02,17.255 
  "/>
</svg>
