<?xml version="1.0" encoding="utf-8"?>
<svg xmlns="http://www.w3.org/2000/svg" xmlns:xlink="http://www.w3.org/1999/xlink" width="600" height="400" viewBox="0 0 2400 1600">
<defs>
  <clipPath id="clip060">
    <rect x="0" y="0" width="2400" height="1600"/>
  </clipPath>
</defs>
<path clip-path="url(#clip060)" d="
M0 1600 L2400 1600 L2400 0 L0 0  Z
  " fill="#ffffff" fill-rule="evenodd" fill-opacity="1"/>
<defs>
  <clipPath id="clip061">
    <rect x="480" y="0" width="1681" height="1600"/>
  </clipPath>
</defs>
<path clip-path="url(#clip060)" d="
M244.451 1423.18 L2352.76 1423.18 L2352.76 123.472 L244.451 123.472  Z
  " fill="#ffffff" fill-rule="evenodd" fill-opacity="1"/>
<defs>
  <clipPath id="clip062">
    <rect x="244" y="123" width="2109" height="1301"/>
  </clipPath>
</defs>
<polyline clip-path="url(#clip062)" style="stroke:#000000; stroke-linecap:butt; stroke-linejoin:round; stroke-width:2; stroke-opacity:0.1; fill:none" points="
  244.451,1423.18 244.451,123.472 
  "/>
<polyline clip-path="url(#clip062)" style="stroke:#000000; stroke-linecap:butt; stroke-linejoin:round; stroke-width:2; stroke-opacity:0.1; fill:none" points="
  666.112,1423.18 666.112,123.472 
  "/>
<polyline clip-path="url(#clip062)" style="stroke:#000000; stroke-linecap:butt; stroke-linejoin:round; stroke-width:2; stroke-opacity:0.1; fill:none" points="
  1087.77,1423.18 1087.77,123.472 
  "/>
<polyline clip-path="url(#clip062)" style="stroke:#000000; stroke-linecap:butt; stroke-linejoin:round; stroke-width:2; stroke-opacity:0.1; fill:none" points="
  1509.43,1423.18 1509.43,123.472 
  "/>
<polyline clip-path="url(#clip062)" style="stroke:#000000; stroke-linecap:butt; stroke-linejoin:round; stroke-width:2; stroke-opacity:0.1; fill:none" points="
  1931.09,1423.18 1931.09,123.472 
  "/>
<polyline clip-path="url(#clip062)" style="stroke:#000000; stroke-linecap:butt; stroke-linejoin:round; stroke-width:2; stroke-opacity:0.1; fill:none" points="
  2352.76,1423.18 2352.76,123.472 
  "/>
<polyline clip-path="url(#clip060)" style="stroke:#000000; stroke-linecap:butt; stroke-linejoin:round; stroke-width:4; stroke-opacity:1; fill:none" points="
  244.451,1423.18 2352.76,1423.18 
  "/>
<polyline clip-path="url(#clip060)" style="stroke:#000000; stroke-linecap:butt; stroke-linejoin:round; stroke-width:4; stroke-opacity:1; fill:none" points="
  244.451,1423.18 244.451,1404.28 
  "/>
<polyline clip-path="url(#clip060)" style="stroke:#000000; stroke-linecap:butt; stroke-linejoin:round; stroke-width:4; stroke-opacity:1; fill:none" points="
  666.112,1423.18 666.112,1404.28 
  "/>
<polyline clip-path="url(#clip060)" style="stroke:#000000; stroke-linecap:butt; stroke-linejoin:round; stroke-width:4; stroke-opacity:1; fill:none" points="
  1087.77,1423.18 1087.77,1404.28 
  "/>
<polyline clip-path="url(#clip060)" style="stroke:#000000; stroke-linecap:butt; stroke-linejoin:round; stroke-width:4; stroke-opacity:1; fill:none" points="
  1509.43,1423.18 1509.43,1404.28 
  "/>
<polyline clip-path="url(#clip060)" style="stroke:#000000; stroke-linecap:butt; stroke-linejoin:round; stroke-width:4; stroke-opacity:1; fill:none" points="
  1931.09,1423.18 1931.09,1404.28 
  "/>
<polyline clip-path="url(#clip060)" style="stroke:#000000; stroke-linecap:butt; stroke-linejoin:round; stroke-width:4; stroke-opacity:1; fill:none" points="
  2352.76,1423.18 2352.76,1404.28 
  "/>
<path clip-path="url(#clip060)" d="M244.451 1452.37 Q240.84 1452.37 239.011 1455.94 Q237.206 1459.48 237.206 1466.61 Q237.206 1473.71 239.011 1477.28 Q240.84 1480.82 244.451 1480.82 Q248.085 1480.82 249.891 1477.28 Q251.719 1473.71 251.719 1466.61 Q251.719 1459.48 249.891 1455.94 Q248.085 1452.37 244.451 1452.37 M244.451 1448.67 Q250.261 1448.67 253.317 1453.27 Q256.395 1457.86 256.395 1466.61 Q256.395 1475.33 253.317 1479.94 Q250.261 1484.52 244.451 1484.52 Q238.641 1484.52 235.562 1479.94 Q232.507 1475.33 232.507 1466.61 Q232.507 1457.86 235.562 1453.27 Q238.641 1448.67 244.451 1448.67 Z" fill="#000000" fill-rule="evenodd" fill-opacity="1" /><path clip-path="url(#clip060)" d="M656.494 1479.92 L664.133 1479.92 L664.133 1453.55 L655.823 1455.22 L655.823 1450.96 L664.086 1449.29 L668.762 1449.29 L668.762 1479.92 L676.401 1479.92 L676.401 1483.85 L656.494 1483.85 L656.494 1479.92 Z" fill="#000000" fill-rule="evenodd" fill-opacity="1" /><path clip-path="url(#clip060)" d="M1082.43 1479.92 L1098.75 1479.92 L1098.75 1483.85 L1076.8 1483.85 L1076.8 1479.92 Q1079.46 1477.16 1084.05 1472.53 Q1088.65 1467.88 1089.83 1466.54 Q1092.08 1464.01 1092.96 1462.28 Q1093.86 1460.52 1093.86 1458.83 Q1093.86 1456.07 1091.92 1454.34 Q1090 1452.6 1086.89 1452.6 Q1084.69 1452.6 1082.24 1453.37 Q1079.81 1454.13 1077.03 1455.68 L1077.03 1450.96 Q1079.86 1449.82 1082.31 1449.25 Q1084.76 1448.67 1086.8 1448.67 Q1092.17 1448.67 1095.37 1451.35 Q1098.56 1454.04 1098.56 1458.53 Q1098.56 1460.66 1097.75 1462.58 Q1096.96 1464.48 1094.86 1467.07 Q1094.28 1467.74 1091.18 1470.96 Q1088.07 1474.15 1082.43 1479.92 Z" fill="#000000" fill-rule="evenodd" fill-opacity="1" /><path clip-path="url(#clip060)" d="M1513.68 1465.22 Q1517.04 1465.94 1518.91 1468.2 Q1520.81 1470.47 1520.81 1473.81 Q1520.81 1478.92 1517.29 1481.72 Q1513.77 1484.52 1507.29 1484.52 Q1505.12 1484.52 1502.8 1484.08 Q1500.51 1483.67 1498.06 1482.81 L1498.06 1478.3 Q1500 1479.43 1502.32 1480.01 Q1504.63 1480.59 1507.15 1480.59 Q1511.55 1480.59 1513.84 1478.85 Q1516.16 1477.12 1516.16 1473.81 Q1516.16 1470.75 1514.01 1469.04 Q1511.88 1467.3 1508.06 1467.3 L1504.03 1467.3 L1504.03 1463.46 L1508.24 1463.46 Q1511.69 1463.46 1513.52 1462.09 Q1515.35 1460.7 1515.35 1458.11 Q1515.35 1455.45 1513.45 1454.04 Q1511.58 1452.6 1508.06 1452.6 Q1506.14 1452.6 1503.94 1453.02 Q1501.74 1453.44 1499.1 1454.31 L1499.1 1450.15 Q1501.76 1449.41 1504.08 1449.04 Q1506.41 1448.67 1508.47 1448.67 Q1513.8 1448.67 1516.9 1451.1 Q1520 1453.5 1520 1457.63 Q1520 1460.5 1518.36 1462.49 Q1516.71 1464.45 1513.68 1465.22 Z" fill="#000000" fill-rule="evenodd" fill-opacity="1" /><path clip-path="url(#clip060)" d="M1934.1 1453.37 L1922.3 1471.81 L1934.1 1471.81 L1934.1 1453.37 M1932.88 1449.29 L1938.76 1449.29 L1938.76 1471.81 L1943.69 1471.81 L1943.69 1475.7 L1938.76 1475.7 L1938.76 1483.85 L1934.1 1483.85 L1934.1 1475.7 L1918.5 1475.7 L1918.5 1471.19 L1932.88 1449.29 Z" fill="#000000" fill-rule="evenodd" fill-opacity="1" /><path clip-path="url(#clip060)" d="M2343.03 1449.29 L2361.39 1449.29 L2361.39 1453.23 L2347.32 1453.23 L2347.32 1461.7 Q2348.33 1461.35 2349.35 1461.19 Q2350.37 1461 2351.39 1461 Q2357.18 1461 2360.56 1464.18 Q2363.94 1467.35 2363.94 1472.76 Q2363.94 1478.34 2360.46 1481.44 Q2356.99 1484.52 2350.67 1484.52 Q2348.5 1484.52 2346.23 1484.15 Q2343.98 1483.78 2341.58 1483.04 L2341.58 1478.34 Q2343.66 1479.48 2345.88 1480.03 Q2348.1 1480.59 2350.58 1480.59 Q2354.58 1480.59 2356.92 1478.48 Q2359.26 1476.38 2359.26 1472.76 Q2359.26 1469.15 2356.92 1467.05 Q2354.58 1464.94 2350.58 1464.94 Q2348.71 1464.94 2346.83 1465.36 Q2344.98 1465.77 2343.03 1466.65 L2343.03 1449.29 Z" fill="#000000" fill-rule="evenodd" fill-opacity="1" /><path clip-path="url(#clip060)" d="M1297.66 1522.27 L1297.66 1532.4 L1309.73 1532.4 L1309.73 1536.95 L1297.66 1536.95 L1297.66 1556.3 Q1297.66 1560.66 1298.84 1561.9 Q1300.05 1563.14 1303.71 1563.14 L1309.73 1563.14 L1309.73 1568.04 L1303.71 1568.04 Q1296.93 1568.04 1294.35 1565.53 Q1291.78 1562.98 1291.78 1556.3 L1291.78 1536.95 L1287.48 1536.95 L1287.48 1532.4 L1291.78 1532.4 L1291.78 1522.27 L1297.66 1522.27 Z" fill="#000000" fill-rule="evenodd" fill-opacity="1" /><polyline clip-path="url(#clip062)" style="stroke:#000000; stroke-linecap:butt; stroke-linejoin:round; stroke-width:2; stroke-opacity:0.1; fill:none" points="
  244.451,1386.4 2352.76,1386.4 
  "/>
<polyline clip-path="url(#clip062)" style="stroke:#000000; stroke-linecap:butt; stroke-linejoin:round; stroke-width:2; stroke-opacity:0.1; fill:none" points="
  244.451,821.514 2352.76,821.514 
  "/>
<polyline clip-path="url(#clip062)" style="stroke:#000000; stroke-linecap:butt; stroke-linejoin:round; stroke-width:2; stroke-opacity:0.1; fill:none" points="
  244.451,256.633 2352.76,256.633 
  "/>
<polyline clip-path="url(#clip060)" style="stroke:#000000; stroke-linecap:butt; stroke-linejoin:round; stroke-width:4; stroke-opacity:1; fill:none" points="
  244.451,1423.18 244.451,123.472 
  "/>
<polyline clip-path="url(#clip060)" style="stroke:#000000; stroke-linecap:butt; stroke-linejoin:round; stroke-width:4; stroke-opacity:1; fill:none" points="
  244.451,1386.4 263.349,1386.4 
  "/>
<polyline clip-path="url(#clip060)" style="stroke:#000000; stroke-linecap:butt; stroke-linejoin:round; stroke-width:4; stroke-opacity:1; fill:none" points="
  244.451,821.514 263.349,821.514 
  "/>
<polyline clip-path="url(#clip060)" style="stroke:#000000; stroke-linecap:butt; stroke-linejoin:round; stroke-width:4; stroke-opacity:1; fill:none" points="
  244.451,256.633 263.349,256.633 
  "/>
<path clip-path="url(#clip060)" d="M137.745 1406.19 L145.384 1406.19 L145.384 1379.82 L137.074 1381.49 L137.074 1377.23 L145.338 1375.56 L150.014 1375.56 L150.014 1406.19 L157.653 1406.19 L157.653 1410.12 L137.745 1410.12 L137.745 1406.19 Z" fill="#000000" fill-rule="evenodd" fill-opacity="1" /><path clip-path="url(#clip060)" d="M177.097 1378.64 Q173.486 1378.64 171.657 1382.21 Q169.852 1385.75 169.852 1392.88 Q169.852 1399.98 171.657 1403.55 Q173.486 1407.09 177.097 1407.09 Q180.731 1407.09 182.537 1403.55 Q184.365 1399.98 184.365 1392.88 Q184.365 1385.75 182.537 1382.21 Q180.731 1378.64 177.097 1378.64 M177.097 1374.94 Q182.907 1374.94 185.963 1379.54 Q189.041 1384.13 189.041 1392.88 Q189.041 1401.6 185.963 1406.21 Q182.907 1410.79 177.097 1410.79 Q171.287 1410.79 168.208 1406.21 Q165.153 1401.6 165.153 1392.88 Q165.153 1384.13 168.208 1379.54 Q171.287 1374.94 177.097 1374.94 Z" fill="#000000" fill-rule="evenodd" fill-opacity="1" /><path clip-path="url(#clip060)" d="M198.746 1357.13 Q195.812 1357.13 194.326 1360.03 Q192.859 1362.91 192.859 1368.7 Q192.859 1374.48 194.326 1377.37 Q195.812 1380.25 198.746 1380.25 Q201.699 1380.25 203.166 1377.37 Q204.652 1374.48 204.652 1368.7 Q204.652 1362.91 203.166 1360.03 Q201.699 1357.13 198.746 1357.13 M198.746 1354.13 Q203.467 1354.13 205.949 1357.87 Q208.451 1361.59 208.451 1368.7 Q208.451 1375.79 205.949 1379.53 Q203.467 1383.26 198.746 1383.26 Q194.025 1383.26 191.524 1379.53 Q189.041 1375.79 189.041 1368.7 Q189.041 1361.59 191.524 1357.87 Q194.025 1354.13 198.746 1354.13 Z" fill="#000000" fill-rule="evenodd" fill-opacity="1" /><path clip-path="url(#clip060)" d="M138.987 841.307 L146.625 841.307 L146.625 814.941 L138.315 816.608 L138.315 812.349 L146.579 810.682 L151.255 810.682 L151.255 841.307 L158.894 841.307 L158.894 845.242 L138.987 845.242 L138.987 841.307 Z" fill="#000000" fill-rule="evenodd" fill-opacity="1" /><path clip-path="url(#clip060)" d="M178.338 813.761 Q174.727 813.761 172.898 817.326 Q171.093 820.867 171.093 827.997 Q171.093 835.103 172.898 838.668 Q174.727 842.21 178.338 842.21 Q181.972 842.21 183.778 838.668 Q185.607 835.103 185.607 827.997 Q185.607 820.867 183.778 817.326 Q181.972 813.761 178.338 813.761 M178.338 810.057 Q184.148 810.057 187.204 814.664 Q190.283 819.247 190.283 827.997 Q190.283 836.724 187.204 841.33 Q184.148 845.913 178.338 845.913 Q172.528 845.913 169.449 841.33 Q166.394 836.724 166.394 827.997 Q166.394 819.247 169.449 814.664 Q172.528 810.057 178.338 810.057 Z" fill="#000000" fill-rule="evenodd" fill-opacity="1" /><path clip-path="url(#clip060)" d="M191.467 789.752 L206.382 789.752 L206.382 792.949 L194.947 792.949 L194.947 799.833 Q195.774 799.551 196.602 799.419 Q197.43 799.268 198.257 799.268 Q202.959 799.268 205.705 801.845 Q208.451 804.422 208.451 808.823 Q208.451 813.355 205.63 815.876 Q202.809 818.377 197.674 818.377 Q195.906 818.377 194.063 818.076 Q192.239 817.775 190.283 817.173 L190.283 813.355 Q191.975 814.277 193.781 814.728 Q195.586 815.18 197.599 815.18 Q200.853 815.18 202.752 813.468 Q204.652 811.757 204.652 808.823 Q204.652 805.889 202.752 804.177 Q200.853 802.466 197.599 802.466 Q196.075 802.466 194.552 802.804 Q193.047 803.143 191.467 803.857 L191.467 789.752 Z" fill="#000000" fill-rule="evenodd" fill-opacity="1" /><path clip-path="url(#clip060)" d="M114.931 276.426 L122.57 276.426 L122.57 250.06 L114.26 251.727 L114.26 247.468 L122.524 245.801 L127.2 245.801 L127.2 276.426 L134.839 276.426 L134.839 280.361 L114.931 280.361 L114.931 276.426 Z" fill="#000000" fill-rule="evenodd" fill-opacity="1" /><path clip-path="url(#clip060)" d="M154.283 248.88 Q150.672 248.88 148.843 252.444 Q147.038 255.986 147.038 263.116 Q147.038 270.222 148.843 273.787 Q150.672 277.328 154.283 277.328 Q157.917 277.328 159.723 273.787 Q161.552 270.222 161.552 263.116 Q161.552 255.986 159.723 252.444 Q157.917 248.88 154.283 248.88 M154.283 245.176 Q160.093 245.176 163.149 249.782 Q166.227 254.366 166.227 263.116 Q166.227 271.842 163.149 276.449 Q160.093 281.032 154.283 281.032 Q148.473 281.032 145.394 276.449 Q142.339 271.842 142.339 263.116 Q142.339 254.366 145.394 249.782 Q148.473 245.176 154.283 245.176 Z" fill="#000000" fill-rule="evenodd" fill-opacity="1" /><path clip-path="url(#clip060)" d="M166.773 249.753 L172.979 249.753 L172.979 228.331 L166.227 229.685 L166.227 226.225 L172.942 224.87 L176.741 224.87 L176.741 249.753 L182.948 249.753 L182.948 252.95 L166.773 252.95 L166.773 249.753 Z" fill="#000000" fill-rule="evenodd" fill-opacity="1" /><path clip-path="url(#clip060)" d="M198.746 227.372 Q195.812 227.372 194.326 230.268 Q192.859 233.146 192.859 238.939 Q192.859 244.713 194.326 247.609 Q195.812 250.487 198.746 250.487 Q201.699 250.487 203.166 247.609 Q204.652 244.713 204.652 238.939 Q204.652 233.146 203.166 230.268 Q201.699 227.372 198.746 227.372 M198.746 224.363 Q203.467 224.363 205.949 228.105 Q208.451 231.829 208.451 238.939 Q208.451 246.029 205.949 249.772 Q203.467 253.496 198.746 253.496 Q194.025 253.496 191.524 249.772 Q189.041 246.029 189.041 238.939 Q189.041 231.829 191.524 228.105 Q194.025 224.363 198.746 224.363 Z" fill="#000000" fill-rule="evenodd" fill-opacity="1" /><path clip-path="url(#clip060)" d="M28.3562 756.711 L45.7028 769.602 L64.0042 756.043 L64.0042 762.95 L49.9996 773.326 L64.0042 783.702 L64.0042 790.609 L45.3526 776.763 L28.3562 789.431 L28.3562 782.524 L41.0558 773.071 L28.3562 763.618 L28.3562 756.711 Z" fill="#000000" fill-rule="evenodd" fill-opacity="1" /><path clip-path="url(#clip060)" d="M921.16 63.9476 L921.16 47.7034 L907.792 47.7034 L907.792 40.9789 L929.262 40.9789 L929.262 66.9452 Q924.523 70.3075 918.811 72.0494 Q913.099 73.7508 906.618 73.7508 Q892.439 73.7508 884.419 65.4869 Q876.438 57.1826 876.438 42.3968 Q876.438 27.5705 884.419 19.3066 Q892.439 11.0023 906.618 11.0023 Q912.532 11.0023 917.839 12.4606 Q923.186 13.9189 927.682 16.7545 L927.682 25.464 Q923.145 21.6156 918.041 19.6712 Q912.937 17.7268 907.306 17.7268 Q896.207 17.7268 890.617 23.9246 Q885.067 30.1225 885.067 42.3968 Q885.067 54.6305 890.617 60.8284 Q896.207 67.0263 907.306 67.0263 Q911.641 67.0263 915.044 66.2971 Q918.446 65.5274 921.16 63.9476 Z" fill="#000000" fill-rule="evenodd" fill-opacity="1" /><path clip-path="url(#clip060)" d="M970.176 34.1734 Q968.921 33.4443 967.422 33.1202 Q965.963 32.7556 964.181 32.7556 Q957.862 32.7556 954.459 36.8875 Q951.097 40.9789 951.097 48.6757 L951.097 72.576 L943.602 72.576 L943.602 27.2059 L951.097 27.2059 L951.097 34.2544 Q953.446 30.1225 957.213 28.1376 Q960.981 26.1121 966.369 26.1121 Q967.138 26.1121 968.07 26.2337 Q969.002 26.3147 970.136 26.5172 L970.176 34.1734 Z" fill="#000000" fill-rule="evenodd" fill-opacity="1" /><path clip-path="url(#clip060)" d="M993.753 32.4315 Q987.757 32.4315 984.273 37.1306 Q980.79 41.7891 980.79 49.9314 Q980.79 58.0738 984.233 62.7728 Q987.717 67.4314 993.753 67.4314 Q999.707 67.4314 1003.19 62.7323 Q1006.67 58.0333 1006.67 49.9314 Q1006.67 41.8701 1003.19 37.1711 Q999.707 32.4315 993.753 32.4315 M993.753 26.1121 Q1003.47 26.1121 1009.02 32.4315 Q1014.57 38.7509 1014.57 49.9314 Q1014.57 61.0714 1009.02 67.4314 Q1003.47 73.7508 993.753 73.7508 Q983.99 73.7508 978.44 67.4314 Q972.931 61.0714 972.931 49.9314 Q972.931 38.7509 978.44 32.4315 Q983.99 26.1121 993.753 26.1121 Z" fill="#000000" fill-rule="evenodd" fill-opacity="1" /><path clip-path="url(#clip060)" d="M1022.6 27.2059 L1030.05 27.2059 L1039.37 62.6108 L1048.64 27.2059 L1057.43 27.2059 L1066.75 62.6108 L1076.03 27.2059 L1083.48 27.2059 L1071.61 72.576 L1062.82 72.576 L1053.06 35.3887 L1043.25 72.576 L1034.46 72.576 L1022.6 27.2059 Z" fill="#000000" fill-rule="evenodd" fill-opacity="1" /><path clip-path="url(#clip060)" d="M1094.78 27.2059 L1102.24 27.2059 L1102.24 72.576 L1094.78 72.576 L1094.78 27.2059 M1094.78 9.54393 L1102.24 9.54393 L1102.24 18.9825 L1094.78 18.9825 L1094.78 9.54393 Z" fill="#000000" fill-rule="evenodd" fill-opacity="1" /><path clip-path="url(#clip060)" d="M1155.55 45.1919 L1155.55 72.576 L1148.09 72.576 L1148.09 45.4349 Q1148.09 38.994 1145.58 35.7938 Q1143.07 32.5936 1138.05 32.5936 Q1132.01 32.5936 1128.53 36.4419 Q1125.04 40.2903 1125.04 46.9338 L1125.04 72.576 L1117.55 72.576 L1117.55 27.2059 L1125.04 27.2059 L1125.04 34.2544 Q1127.72 30.163 1131.32 28.1376 Q1134.97 26.1121 1139.71 26.1121 Q1147.52 26.1121 1151.54 30.9732 Q1155.55 35.7938 1155.55 45.1919 Z" fill="#000000" fill-rule="evenodd" fill-opacity="1" /><path clip-path="url(#clip060)" d="M1200.27 49.3643 Q1200.27 41.2625 1196.91 36.8065 Q1193.58 32.3505 1187.55 32.3505 Q1181.55 32.3505 1178.19 36.8065 Q1174.87 41.2625 1174.87 49.3643 Q1174.87 57.4256 1178.19 61.8816 Q1181.55 66.3376 1187.55 66.3376 Q1193.58 66.3376 1196.91 61.8816 Q1200.27 57.4256 1200.27 49.3643 M1207.72 66.9452 Q1207.72 78.5308 1202.58 84.1616 Q1197.43 89.8329 1186.82 89.8329 Q1182.89 89.8329 1179.41 89.2252 Q1175.92 88.6581 1172.64 87.4428 L1172.64 80.1917 Q1175.92 81.9741 1179.12 82.8248 Q1182.32 83.6755 1185.64 83.6755 Q1192.98 83.6755 1196.62 79.8271 Q1200.27 76.0193 1200.27 68.282 L1200.27 64.5957 Q1197.96 68.6061 1194.35 70.5911 Q1190.75 72.576 1185.72 72.576 Q1177.38 72.576 1172.28 66.2161 Q1167.17 59.8562 1167.17 49.3643 Q1167.17 38.832 1172.28 32.472 Q1177.38 26.1121 1185.72 26.1121 Q1190.75 26.1121 1194.35 28.0971 Q1197.96 30.082 1200.27 34.0924 L1200.27 27.2059 L1207.72 27.2059 L1207.72 66.9452 Z" fill="#000000" fill-rule="evenodd" fill-opacity="1" /><path clip-path="url(#clip060)" d="M1279.3 49.3643 Q1279.3 41.2625 1275.94 36.8065 Q1272.62 32.3505 1266.58 32.3505 Q1260.59 32.3505 1257.22 36.8065 Q1253.9 41.2625 1253.9 49.3643 Q1253.9 57.4256 1257.22 61.8816 Q1260.59 66.3376 1266.58 66.3376 Q1272.62 66.3376 1275.94 61.8816 Q1279.3 57.4256 1279.3 49.3643 M1286.75 66.9452 Q1286.75 78.5308 1281.61 84.1616 Q1276.47 89.8329 1265.85 89.8329 Q1261.92 89.8329 1258.44 89.2252 Q1254.95 88.6581 1251.67 87.4428 L1251.67 80.1917 Q1254.95 81.9741 1258.16 82.8248 Q1261.36 83.6755 1264.68 83.6755 Q1272.01 83.6755 1275.66 79.8271 Q1279.3 76.0193 1279.3 68.282 L1279.3 64.5957 Q1276.99 68.6061 1273.39 70.5911 Q1269.78 72.576 1264.76 72.576 Q1256.41 72.576 1251.31 66.2161 Q1246.2 59.8562 1246.2 49.3643 Q1246.2 38.832 1251.31 32.472 Q1256.41 26.1121 1264.76 26.1121 Q1269.78 26.1121 1273.39 28.0971 Q1276.99 30.082 1279.3 34.0924 L1279.3 27.2059 L1286.75 27.2059 L1286.75 66.9452 Z" fill="#000000" fill-rule="evenodd" fill-opacity="1" /><path clip-path="url(#clip060)" d="M1328.4 34.1734 Q1327.14 33.4443 1325.64 33.1202 Q1324.18 32.7556 1322.4 32.7556 Q1316.08 32.7556 1312.68 36.8875 Q1309.32 40.9789 1309.32 48.6757 L1309.32 72.576 L1301.82 72.576 L1301.82 27.2059 L1309.32 27.2059 L1309.32 34.2544 Q1311.67 30.1225 1315.43 28.1376 Q1319.2 26.1121 1324.59 26.1121 Q1325.36 26.1121 1326.29 26.2337 Q1327.22 26.3147 1328.36 26.5172 L1328.4 34.1734 Z" fill="#000000" fill-rule="evenodd" fill-opacity="1" /><path clip-path="url(#clip060)" d="M1351.97 32.4315 Q1345.98 32.4315 1342.49 37.1306 Q1339.01 41.7891 1339.01 49.9314 Q1339.01 58.0738 1342.45 62.7728 Q1345.94 67.4314 1351.97 67.4314 Q1357.93 67.4314 1361.41 62.7323 Q1364.9 58.0333 1364.9 49.9314 Q1364.9 41.8701 1361.41 37.1711 Q1357.93 32.4315 1351.97 32.4315 M1351.97 26.1121 Q1361.7 26.1121 1367.25 32.4315 Q1372.8 38.7509 1372.8 49.9314 Q1372.8 61.0714 1367.25 67.4314 Q1361.7 73.7508 1351.97 73.7508 Q1342.21 73.7508 1336.66 67.4314 Q1331.15 61.0714 1331.15 49.9314 Q1331.15 38.7509 1336.66 32.4315 Q1342.21 26.1121 1351.97 26.1121 Z" fill="#000000" fill-rule="evenodd" fill-opacity="1" /><path clip-path="url(#clip060)" d="M1380.82 27.2059 L1388.27 27.2059 L1397.59 62.6108 L1406.86 27.2059 L1415.65 27.2059 L1424.97 62.6108 L1434.25 27.2059 L1441.7 27.2059 L1429.83 72.576 L1421.04 72.576 L1411.28 35.3887 L1401.48 72.576 L1392.69 72.576 L1380.82 27.2059 Z" fill="#000000" fill-rule="evenodd" fill-opacity="1" /><path clip-path="url(#clip060)" d="M1460.38 14.324 L1460.38 27.2059 L1475.73 27.2059 L1475.73 32.9987 L1460.38 32.9987 L1460.38 57.6282 Q1460.38 63.1779 1461.88 64.7578 Q1463.41 66.3376 1468.07 66.3376 L1475.73 66.3376 L1475.73 72.576 L1468.07 72.576 Q1459.44 72.576 1456.16 69.3758 Q1452.88 66.1351 1452.88 57.6282 L1452.88 32.9987 L1447.41 32.9987 L1447.41 27.2059 L1452.88 27.2059 L1452.88 14.324 L1460.38 14.324 Z" fill="#000000" fill-rule="evenodd" fill-opacity="1" /><path clip-path="url(#clip060)" d="M1523.25 45.1919 L1523.25 72.576 L1515.79 72.576 L1515.79 45.4349 Q1515.79 38.994 1513.28 35.7938 Q1510.77 32.5936 1505.75 32.5936 Q1499.71 32.5936 1496.23 36.4419 Q1492.74 40.2903 1492.74 46.9338 L1492.74 72.576 L1485.25 72.576 L1485.25 9.54393 L1492.74 9.54393 L1492.74 34.2544 Q1495.42 30.163 1499.02 28.1376 Q1502.67 26.1121 1507.41 26.1121 Q1515.23 26.1121 1519.24 30.9732 Q1523.25 35.7938 1523.25 45.1919 Z" fill="#000000" fill-rule="evenodd" fill-opacity="1" /><path clip-path="url(#clip060)" d="M1590.77 34.1734 Q1589.52 33.4443 1588.02 33.1202 Q1586.56 32.7556 1584.78 32.7556 Q1578.46 32.7556 1575.06 36.8875 Q1571.7 40.9789 1571.7 48.6757 L1571.7 72.576 L1564.2 72.576 L1564.2 27.2059 L1571.7 27.2059 L1571.7 34.2544 Q1574.04 30.1225 1577.81 28.1376 Q1581.58 26.1121 1586.97 26.1121 Q1587.74 26.1121 1588.67 26.2337 Q1589.6 26.3147 1590.73 26.5172 L1590.77 34.1734 Z" fill="#000000" fill-rule="evenodd" fill-opacity="1" /><path clip-path="url(#clip060)" d="M1619.21 49.7694 Q1610.18 49.7694 1606.69 51.8354 Q1603.21 53.9013 1603.21 58.8839 Q1603.21 62.8538 1605.8 65.2034 Q1608.44 67.5124 1612.93 67.5124 Q1619.13 67.5124 1622.86 63.1374 Q1626.63 58.7219 1626.63 51.4303 L1626.63 49.7694 L1619.21 49.7694 M1634.08 46.6907 L1634.08 72.576 L1626.63 72.576 L1626.63 65.6895 Q1624.07 69.8214 1620.27 71.8063 Q1616.46 73.7508 1610.95 73.7508 Q1603.98 73.7508 1599.85 69.8619 Q1595.76 65.9325 1595.76 59.3701 Q1595.76 51.7138 1600.86 47.825 Q1606.01 43.9361 1616.17 43.9361 L1626.63 43.9361 L1626.63 43.2069 Q1626.63 38.0623 1623.22 35.2672 Q1619.86 32.4315 1613.74 32.4315 Q1609.85 32.4315 1606.17 33.3632 Q1602.48 34.295 1599.08 36.1584 L1599.08 29.2718 Q1603.17 27.692 1607.02 26.9223 Q1610.87 26.1121 1614.51 26.1121 Q1624.36 26.1121 1629.22 31.2163 Q1634.08 36.3204 1634.08 46.6907 Z" fill="#000000" fill-rule="evenodd" fill-opacity="1" /><path clip-path="url(#clip060)" d="M1656.8 14.324 L1656.8 27.2059 L1672.16 27.2059 L1672.16 32.9987 L1656.8 32.9987 L1656.8 57.6282 Q1656.8 63.1779 1658.3 64.7578 Q1659.84 66.3376 1664.5 66.3376 L1672.16 66.3376 L1672.16 72.576 L1664.5 72.576 Q1655.87 72.576 1652.59 69.3758 Q1649.31 66.1351 1649.31 57.6282 L1649.31 32.9987 L1643.84 32.9987 L1643.84 27.2059 L1649.31 27.2059 L1649.31 14.324 L1656.8 14.324 Z" fill="#000000" fill-rule="evenodd" fill-opacity="1" /><path clip-path="url(#clip060)" d="M1720.77 48.0275 L1720.77 51.6733 L1686.5 51.6733 Q1686.98 59.3701 1691.12 63.421 Q1695.29 67.4314 1702.7 67.4314 Q1707 67.4314 1711.01 66.3781 Q1715.06 65.3249 1719.03 63.2184 L1719.03 70.267 Q1715.02 71.9684 1710.8 72.8596 Q1706.59 73.7508 1702.26 73.7508 Q1691.4 73.7508 1685.04 67.4314 Q1678.72 61.1119 1678.72 50.3365 Q1678.72 39.1965 1684.72 32.6746 Q1690.75 26.1121 1700.96 26.1121 Q1710.11 26.1121 1715.42 32.0264 Q1720.77 37.9003 1720.77 48.0275 M1713.31 45.84 Q1713.23 39.7232 1709.87 36.0774 Q1706.55 32.4315 1701.04 32.4315 Q1694.8 32.4315 1691.03 35.9558 Q1687.31 39.4801 1686.74 45.8805 L1713.31 45.84 Z" fill="#000000" fill-rule="evenodd" fill-opacity="1" /><polyline clip-path="url(#clip062)" style="stroke:#009af9; stroke-linecap:butt; stroke-linejoin:round; stroke-width:8; stroke-opacity:1; fill:none" points="
  244.451,1386.4 246.561,1386.39 248.672,1386.39 250.782,1386.38 252.893,1386.38 255.003,1386.36 257.113,1386.35 259.224,1386.34 261.334,1386.32 263.445,1386.3 
  265.555,1386.27 267.665,1386.25 269.776,1386.22 271.886,1386.19 273.997,1386.15 276.107,1386.12 278.218,1386.08 280.328,1386.04 282.438,1386 284.549,1385.95 
  286.659,1385.9 288.77,1385.85 290.88,1385.8 292.99,1385.75 295.101,1385.69 297.211,1385.63 299.322,1385.56 301.432,1385.5 303.543,1385.43 305.653,1385.36 
  307.763,1385.29 309.874,1385.21 311.984,1385.14 314.095,1385.06 316.205,1384.97 318.315,1384.89 320.426,1384.8 322.536,1384.71 324.647,1384.62 326.757,1384.53 
  328.868,1384.43 330.978,1384.33 333.088,1384.23 335.199,1384.12 337.309,1384.02 339.42,1383.91 341.53,1383.79 343.64,1383.68 345.751,1383.56 347.861,1383.44 
  349.972,1383.32 352.082,1383.2 354.193,1383.07 356.303,1382.94 358.413,1382.81 360.524,1382.68 362.634,1382.54 364.745,1382.4 366.855,1382.26 368.965,1382.12 
  371.076,1381.97 373.186,1381.82 375.297,1381.67 377.407,1381.52 379.518,1381.36 381.628,1381.2 383.738,1381.04 385.849,1380.88 387.959,1380.71 390.07,1380.54 
  392.18,1380.37 394.29,1380.2 396.401,1380.02 398.511,1379.85 400.622,1379.67 402.732,1379.48 404.842,1379.3 406.953,1379.11 409.063,1378.92 411.174,1378.73 
  413.284,1378.53 415.395,1378.33 417.505,1378.13 419.615,1377.93 421.726,1377.72 423.836,1377.52 425.947,1377.31 428.057,1377.09 430.167,1376.88 432.278,1376.66 
  434.388,1376.44 436.499,1376.22 438.609,1375.99 440.72,1375.76 442.83,1375.53 444.94,1375.3 447.051,1375.06 449.161,1374.82 451.272,1374.58 453.382,1374.34 
  455.492,1374.09 457.603,1373.85 459.713,1373.6 461.824,1373.34 463.934,1373.09 466.045,1372.83 468.155,1372.57 470.265,1372.31 472.376,1372.04 474.486,1371.77 
  476.597,1371.5 478.707,1371.23 480.817,1370.96 482.928,1370.68 485.038,1370.4 487.149,1370.12 489.259,1369.84 491.37,1369.55 493.48,1369.26 495.59,1368.97 
  497.701,1368.68 499.811,1368.38 501.922,1368.08 504.032,1367.78 506.142,1367.48 508.253,1367.17 510.363,1366.87 512.474,1366.56 514.584,1366.24 516.695,1365.93 
  518.805,1365.61 520.915,1365.29 523.026,1364.97 525.136,1364.64 527.247,1364.32 529.357,1363.99 531.467,1363.65 533.578,1363.32 535.688,1362.98 537.799,1362.64 
  539.909,1362.3 542.019,1361.96 544.13,1361.61 546.24,1361.26 548.351,1360.91 550.461,1360.55 552.572,1360.2 554.682,1359.84 556.792,1359.48 558.903,1359.11 
  561.013,1358.75 563.124,1358.38 565.234,1358 567.344,1357.63 569.455,1357.25 571.565,1356.87 573.676,1356.49 575.786,1356.11 577.897,1355.72 580.007,1355.33 
  582.117,1354.94 584.228,1354.54 586.338,1354.15 588.449,1353.75 590.559,1353.34 592.669,1352.94 594.78,1352.53 596.89,1352.12 599.001,1351.71 601.111,1351.29 
  603.222,1350.88 605.332,1350.46 607.442,1350.04 609.553,1349.61 611.663,1349.18 613.774,1348.75 615.884,1348.32 617.994,1347.89 620.105,1347.45 622.215,1347.01 
  624.326,1346.57 626.436,1346.13 628.547,1345.68 630.657,1345.23 632.767,1344.78 634.878,1344.33 636.988,1343.87 639.099,1343.41 641.209,1342.95 643.319,1342.49 
  645.43,1342.02 647.54,1341.55 649.651,1341.08 651.761,1340.61 653.872,1340.13 655.982,1339.65 658.092,1339.17 660.203,1338.69 662.313,1338.2 664.424,1337.71 
  666.534,1337.22 668.644,1336.73 670.755,1336.24 672.865,1335.74 674.976,1335.24 677.086,1334.74 679.196,1334.23 681.307,1333.72 683.417,1333.21 685.528,1332.7 
  687.638,1332.19 689.749,1331.67 691.859,1331.15 693.969,1330.63 696.08,1330.1 698.19,1329.58 700.301,1329.05 702.411,1328.52 704.521,1327.98 706.632,1327.45 
  708.742,1326.91 710.853,1326.36 712.963,1325.82 715.074,1325.27 717.184,1324.72 719.294,1324.17 721.405,1323.62 723.515,1323.06 725.626,1322.5 727.736,1321.94 
  729.846,1321.38 731.957,1320.81 734.067,1320.24 736.178,1319.67 738.288,1319.1 740.399,1318.52 742.509,1317.94 744.619,1317.36 746.73,1316.77 748.84,1316.19 
  750.951,1315.6 753.061,1315.01 755.171,1314.41 757.282,1313.82 759.392,1313.22 761.503,1312.62 763.613,1312.01 765.724,1311.41 767.834,1310.8 769.944,1310.19 
  772.055,1309.57 774.165,1308.95 776.276,1308.33 778.386,1307.71 780.496,1307.09 782.607,1306.46 784.717,1305.83 786.828,1305.2 788.938,1304.56 791.049,1303.93 
  793.159,1303.29 795.269,1302.65 797.38,1302 799.49,1301.36 801.601,1300.71 803.711,1300.06 805.821,1299.4 807.932,1298.75 810.042,1298.09 812.153,1297.43 
  814.263,1296.77 816.373,1296.11 818.484,1295.44 820.594,1294.77 822.705,1294.1 824.815,1293.43 826.926,1292.75 829.036,1292.08 831.146,1291.4 833.257,1290.71 
  835.367,1290.03 837.478,1289.34 839.588,1288.65 841.698,1287.96 843.809,1287.26 845.919,1286.56 848.03,1285.86 850.14,1285.16 852.251,1284.46 854.361,1283.75 
  856.471,1283.04 858.582,1282.33 860.692,1281.61 862.803,1280.89 864.913,1280.17 867.023,1279.45 869.134,1278.72 871.244,1277.99 873.355,1277.26 875.465,1276.53 
  877.576,1275.79 879.686,1275.05 881.796,1274.31 883.907,1273.57 886.017,1272.82 888.128,1272.07 890.238,1271.32 892.348,1270.56 894.459,1269.81 896.569,1269.05 
  898.68,1268.28 900.79,1267.52 902.901,1266.75 905.011,1265.98 907.121,1265.21 909.232,1264.44 911.342,1263.66 913.453,1262.88 915.563,1262.1 917.673,1261.32 
  919.784,1260.53 921.894,1259.75 924.005,1258.95 926.115,1258.16 928.226,1257.36 930.336,1256.56 932.446,1255.76 934.557,1254.96 936.667,1254.15 938.778,1253.34 
  940.888,1252.53 942.998,1251.71 945.109,1250.9 947.219,1250.08 949.33,1249.26 951.44,1248.44 953.55,1247.61 955.661,1246.79 957.771,1245.96 959.882,1245.13 
  961.992,1244.29 964.103,1243.46 966.213,1242.62 968.323,1241.78 970.434,1240.94 972.544,1240.09 974.655,1239.25 976.765,1238.4 978.875,1237.55 980.986,1236.69 
  983.096,1235.83 985.207,1234.97 987.317,1234.11 989.428,1233.25 991.538,1232.38 993.648,1231.51 995.759,1230.64 997.869,1229.77 999.98,1228.89 1002.09,1228.01 
  1004.2,1227.13 1006.31,1226.24 1008.42,1225.35 1010.53,1224.46 1012.64,1223.57 1014.75,1222.67 1016.86,1221.77 1018.97,1220.87 1021.08,1219.97 1023.19,1219.06 
  1025.3,1218.15 1027.42,1217.24 1029.53,1216.32 1031.64,1215.41 1033.75,1214.49 1035.86,1213.57 1037.97,1212.64 1040.08,1211.71 1042.19,1210.78 1044.3,1209.85 
  1046.41,1208.92 1048.52,1207.98 1050.63,1207.04 1052.74,1206.1 1054.85,1205.16 1056.96,1204.21 1059.07,1203.26 1061.18,1202.31 1063.29,1201.36 1065.4,1200.4 
  1067.51,1199.44 1069.62,1198.48 1071.73,1197.51 1073.84,1196.54 1075.95,1195.57 1078.06,1194.6 1080.18,1193.63 1082.29,1192.65 1084.4,1191.68 1086.51,1190.7 
  1088.62,1189.72 1090.73,1188.73 1092.84,1187.75 1094.95,1186.76 1097.06,1185.77 1099.17,1184.78 1101.28,1183.79 1103.39,1182.79 1105.5,1181.79 1107.61,1180.79 
  1109.72,1179.79 1111.83,1178.78 1113.94,1177.78 1116.05,1176.77 1118.16,1175.75 1120.27,1174.74 1122.38,1173.72 1124.49,1172.7 1126.6,1171.68 1128.71,1170.65 
  1130.83,1169.62 1132.94,1168.59 1135.05,1167.56 1137.16,1166.52 1139.27,1165.48 1141.38,1164.44 1143.49,1163.39 1145.6,1162.34 1147.71,1161.29 1149.82,1160.24 
  1151.93,1159.18 1154.04,1158.12 1156.15,1157.06 1158.26,1155.99 1160.37,1154.93 1162.48,1153.86 1164.59,1152.78 1166.7,1151.71 1168.81,1150.63 1170.92,1149.55 
  1173.03,1148.47 1175.14,1147.38 1177.25,1146.29 1179.36,1145.2 1181.48,1144.11 1183.59,1143.02 1185.7,1141.92 1187.81,1140.82 1189.92,1139.72 1192.03,1138.62 
  1194.14,1137.51 1196.25,1136.4 1198.36,1135.29 1200.47,1134.17 1202.58,1133.05 1204.69,1131.93 1206.8,1130.81 1208.91,1129.69 1211.02,1128.56 1213.13,1127.43 
  1215.24,1126.3 1217.35,1125.17 1219.46,1124.04 1221.57,1122.91 1223.68,1121.77 1225.79,1120.63 1227.9,1119.49 1230.01,1118.35 1232.13,1117.21 1234.24,1116.06 
  1236.35,1114.91 1238.46,1113.76 1240.57,1112.61 1242.68,1111.45 1244.79,1110.29 1246.9,1109.13 1249.01,1107.97 1251.12,1106.8 1253.23,1105.63 1255.34,1104.46 
  1257.45,1103.28 1259.56,1102.1 1261.67,1100.92 1263.78,1099.74 1265.89,1098.55 1268,1097.36 1270.11,1096.17 1272.22,1094.97 1274.33,1093.77 1276.44,1092.57 
  1278.55,1091.36 1280.66,1090.16 1282.78,1088.94 1284.89,1087.73 1287,1086.51 1289.11,1085.3 1291.22,1084.07 1293.33,1082.85 1295.44,1081.62 1297.55,1080.4 
  1299.66,1079.16 1301.77,1077.93 1303.88,1076.7 1305.99,1075.46 1308.1,1074.22 1310.21,1072.98 1312.32,1071.74 1314.43,1070.49 1316.54,1069.24 1318.65,1067.98 
  1320.76,1066.73 1322.87,1065.47 1324.98,1064.21 1327.09,1062.94 1329.2,1061.68 1331.31,1060.41 1333.43,1059.15 1335.54,1057.88 1337.65,1056.61 1339.76,1055.33 
  1341.87,1054.06 1343.98,1052.78 1346.09,1051.51 1348.2,1050.23 1350.31,1048.95 1352.42,1047.66 1354.53,1046.38 1356.64,1045.09 1358.75,1043.8 1360.86,1042.51 
  1362.97,1041.21 1365.08,1039.92 1367.19,1038.62 1369.3,1037.31 1371.41,1036.01 1373.52,1034.7 1375.63,1033.39 1377.74,1032.07 1379.85,1030.75 1381.96,1029.43 
  1384.08,1028.11 1386.19,1026.78 1388.3,1025.45 1390.41,1024.11 1392.52,1022.78 1394.63,1021.44 1396.74,1020.09 1398.85,1018.75 1400.96,1017.4 1403.07,1016.05 
  1405.18,1014.69 1407.29,1013.33 1409.4,1011.97 1411.51,1010.61 1413.62,1009.25 1415.73,1007.88 1417.84,1006.51 1419.95,1005.14 1422.06,1003.77 1424.17,1002.39 
  1426.28,1001.02 1428.39,999.637 1430.5,998.254 1432.61,996.868 1434.73,995.478 1436.84,994.086 1438.95,992.692 1441.06,991.296 1443.17,989.898 1445.28,988.499 
  1447.39,987.098 1449.5,985.696 1451.61,984.293 1453.72,982.889 1455.83,981.483 1457.94,980.075 1460.05,978.666 1462.16,977.256 1464.27,975.843 1466.38,974.428 
  1468.49,973.012 1470.6,971.593 1472.71,970.171 1474.82,968.747 1476.93,967.32 1479.04,965.891 1481.15,964.458 1483.26,963.023 1485.38,961.584 1487.49,960.143 
  1489.6,958.698 1491.71,957.25 1493.82,955.798 1495.93,954.343 1498.04,952.885 1500.15,951.424 1502.26,949.959 1504.37,948.491 1506.48,947.019 1508.59,945.545 
  1510.7,944.068 1512.81,942.587 1514.92,941.104 1517.03,939.618 1519.14,938.13 1521.25,936.639 1523.36,935.146 1525.47,933.65 1527.58,932.153 1529.69,930.654 
  1531.8,929.153 1533.91,927.65 1536.03,926.147 1538.14,924.639 1540.25,923.128 1542.36,921.613 1544.47,920.095 1546.58,918.576 1548.69,917.054 1550.8,915.531 
  1552.91,914.006 1555.02,912.481 1557.13,910.954 1559.24,909.426 1561.35,907.897 1563.46,906.367 1565.57,904.835 1567.68,903.302 1569.79,901.767 1571.9,900.23 
  1574.01,898.691 1576.12,897.15 1578.23,895.607 1580.34,894.061 1582.45,892.512 1584.56,890.96 1586.68,889.406 1588.79,887.848 1590.9,886.287 1593.01,884.722 
  1595.12,883.155 1597.23,881.583 1599.34,880.009 1601.45,878.431 1603.56,876.849 1605.67,875.264 1607.78,873.675 1609.89,872.084 1612,870.489 1614.11,868.89 
  1616.22,867.289 1618.33,865.685 1620.44,864.078 1622.55,862.469 1624.66,860.857 1626.77,859.243 1628.88,857.626 1630.99,856.008 1633.1,854.389 1635.21,852.768 
  1637.33,851.145 1639.44,849.521 1641.55,847.892 1643.66,846.259 1645.77,844.624 1647.88,842.986 1649.99,841.346 1652.1,839.705 1654.21,838.063 1656.32,836.42 
  1658.43,834.776 1660.54,833.131 1662.65,831.485 1664.76,829.838 1666.87,828.189 1668.98,826.539 1671.09,824.887 1673.2,823.233 1675.31,821.577 1677.42,819.919 
  1679.53,818.258 1681.64,816.594 1683.75,814.927 1685.86,813.257 1687.98,811.584 1690.09,809.908 1692.2,808.228 1694.31,806.544 1696.42,804.857 1698.53,803.166 
  1700.64,801.472 1702.75,799.774 1704.86,798.073 1706.97,796.368 1709.08,794.66 1711.19,792.948 1713.3,791.234 1715.41,789.516 1717.52,787.796 1719.63,786.073 
  1721.74,784.348 1723.85,782.62 1725.96,780.891 1728.07,779.16 1730.18,777.427 1732.29,775.693 1734.4,773.959 1736.51,772.22 1738.63,770.477 1740.74,768.731 
  1742.85,766.982 1744.96,765.232 1747.07,763.481 1749.18,761.729 1751.29,759.975 1753.4,758.221 1755.51,756.466 1757.62,754.71 1759.73,752.953 1761.84,751.195 
  1763.95,749.435 1766.06,747.673 1768.17,745.909 1770.28,744.143 1772.39,742.374 1774.5,740.602 1776.61,738.828 1778.72,737.05 1780.83,735.269 1782.94,733.484 
  1785.05,731.696 1787.16,729.904 1789.27,728.109 1791.39,726.309 1793.5,724.506 1795.61,722.7 1797.72,720.889 1799.83,719.076 1801.94,717.258 1804.05,715.438 
  1806.16,713.615 1808.27,711.789 1810.38,709.96 1812.49,708.128 1814.6,706.295 1816.71,704.46 1818.82,702.623 1820.93,700.785 1823.04,698.946 1825.15,697.105 
  1827.26,695.26 1829.37,693.411 1831.48,691.56 1833.59,689.706 1835.7,687.852 1837.81,685.996 1839.92,684.139 1842.04,682.282 1844.15,680.424 1846.26,678.565 
  1848.37,676.705 1850.48,674.843 1852.59,672.98 1854.7,671.115 1856.81,669.248 1858.92,667.379 1861.03,665.507 1863.14,663.632 1865.25,661.753 1867.36,659.872 
  1869.47,657.987 1871.58,656.098 1873.69,654.206 1875.8,652.31 1877.91,650.41 1880.02,648.506 1882.13,646.598 1884.24,644.687 1886.35,642.772 1888.46,640.854 
  1890.57,638.933 1892.69,637.008 1894.8,635.081 1896.91,633.151 1899.02,631.219 1901.13,629.285 1903.24,627.35 1905.35,625.413 1907.46,623.475 1909.57,621.536 
  1911.68,619.593 1913.79,617.646 1915.9,615.697 1918.01,613.745 1920.12,611.793 1922.23,609.839 1924.34,607.885 1926.45,605.93 1928.56,603.974 1930.67,602.017 
  1932.78,600.06 1934.89,598.1 1937,596.139 1939.11,594.176 1941.22,592.211 1943.34,590.243 1945.45,588.272 1947.56,586.298 1949.67,584.321 1951.78,582.34 
  1953.89,580.355 1956,578.366 1958.11,576.374 1960.22,574.377 1962.33,572.377 1964.44,570.373 1966.55,568.366 1968.66,566.354 1970.77,564.34 1972.88,562.322 
  1974.99,560.302 1977.1,558.278 1979.21,556.253 1981.32,554.226 1983.43,552.197 1985.54,550.166 1987.65,548.135 1989.76,546.103 1991.87,544.066 1993.99,542.026 
  1996.1,539.983 1998.21,537.939 2000.32,535.894 2002.43,533.848 2004.54,531.801 2006.65,529.754 2008.76,527.706 2010.87,525.656 2012.98,523.606 2015.09,521.554 
  2017.2,519.5 2019.31,517.443 2021.42,515.384 2023.53,513.322 2025.64,511.257 2027.75,509.188 2029.86,507.116 2031.97,505.039 2034.08,502.959 2036.19,500.875 
  2038.3,498.787 2040.41,496.695 2042.52,494.6 2044.64,492.5 2046.75,490.398 2048.86,488.292 2050.97,486.183 2053.08,484.071 2055.19,481.957 2057.3,479.841 
  2059.41,477.724 2061.52,475.605 2063.63,473.486 2065.74,471.365 2067.85,469.24 2069.96,467.111 2072.07,464.98 2074.18,462.848 2076.29,460.715 2078.4,458.582 
  2080.51,456.448 2082.62,454.313 2084.73,452.177 2086.84,450.04 2088.95,447.902 2091.06,445.761 2093.17,443.619 2095.29,441.473 2097.4,439.325 2099.51,437.173 
  2101.62,435.018 2103.73,432.859 2105.84,430.697 2107.95,428.53 2110.06,426.359 2112.17,424.185 2114.28,422.006 2116.39,419.824 2118.5,417.638 2120.61,415.449 
  2122.72,413.257 2124.83,411.062 2126.94,408.864 2129.05,406.665 2131.16,404.464 2133.27,402.261 2135.38,400.059 2137.49,397.854 2139.6,395.645 2141.71,393.433 
  2143.82,391.219 2145.94,389.004 2148.05,386.788 2150.16,384.572 2152.27,382.355 2154.38,380.137 2156.49,377.918 2158.6,375.698 2160.71,373.476 2162.82,371.252 
  2164.93,369.025 2167.04,366.796 2169.15,364.563 2171.26,362.326 2173.37,360.086 2175.48,357.843 2177.59,355.595 2179.7,353.343 2181.81,351.087 2183.92,348.827 
  2186.03,346.564 2188.14,344.296 2190.25,342.026 2192.36,339.753 2194.47,337.476 2196.59,335.198 2198.7,332.918 2200.81,330.637 2202.92,328.354 2205.03,326.071 
  2207.14,323.784 2209.25,321.494 2211.36,319.201 2213.47,316.908 2215.58,314.613 2217.69,312.318 2219.8,310.022 2221.91,307.726 2224.02,305.428 2226.13,303.129 
  2228.24,300.828 2230.35,298.525 2232.46,296.219 2234.57,293.911 2236.68,291.599 2238.79,289.283 2240.9,286.963 2243.01,284.64 2245.12,282.312 2247.24,279.981 
  2249.35,277.645 2251.46,275.306 2253.57,272.963 2255.68,270.616 2257.79,268.267 2259.9,265.915 2262.01,263.56 2264.12,261.204 2266.23,258.847 2268.34,256.489 
  2270.45,254.129 2272.56,251.766 2274.67,249.399 2276.78,247.031 2278.89,244.662 2281,242.292 2283.11,239.922 2285.22,237.55 2287.33,235.178 2289.44,232.805 
  2291.55,230.43 2293.66,228.053 2295.77,225.673 2297.89,223.29 2300,220.904 2302.11,218.515 2304.22,216.122 2306.33,213.724 2308.44,211.323 2310.55,208.917 
  2312.66,206.508 2314.77,204.095 2316.88,201.678 2318.99,199.258 2321.1,196.834 2323.21,194.409 2325.32,191.981 2327.43,189.552 2329.54,187.121 2331.65,184.69 
  2333.76,182.258 2335.87,179.823 2337.98,177.386 2340.09,174.946 2342.2,172.504 2344.31,170.06 2346.42,167.613 2348.54,165.163 2350.65,162.711 2352.76,160.256 
  
  "/>
</svg>
