<?xml version="1.0" encoding="utf-8"?>
<svg xmlns="http://www.w3.org/2000/svg" xmlns:xlink="http://www.w3.org/1999/xlink" width="400" height="280" viewBox="0 0 1600 1120">
<defs>
  <clipPath id="clip210">
    <rect x="0" y="0" width="1600" height="1120"/>
  </clipPath>
</defs>
<path clip-path="url(#clip210)" d="M0 1120 L1600 1120 L1600 0 L0 0  Z" fill="#ffffff" fill-rule="evenodd" fill-opacity="1"/>
<defs>
  <clipPath id="clip211">
    <rect x="320" y="0" width="1121" height="1120"/>
  </clipPath>
</defs>
<path clip-path="url(#clip210)" d="M243.918 943.876 L1392.76 943.876 L1392.76 126.496 L243.918 126.496  Z" fill="#ffffff" fill-rule="evenodd" fill-opacity="1"/>
<defs>
  <clipPath id="clip212">
    <rect x="243" y="126" width="1150" height="818"/>
  </clipPath>
</defs>
<polyline clip-path="url(#clip212)" style="stroke:#000000; stroke-linecap:round; stroke-linejoin:round; stroke-width:2; stroke-opacity:0.1; fill:none" points="276.432,943.876 276.432,126.496 "/>
<polyline clip-path="url(#clip212)" style="stroke:#000000; stroke-linecap:round; stroke-linejoin:round; stroke-width:2; stroke-opacity:0.1; fill:none" points="547.385,943.876 547.385,126.496 "/>
<polyline clip-path="url(#clip212)" style="stroke:#000000; stroke-linecap:round; stroke-linejoin:round; stroke-width:2; stroke-opacity:0.1; fill:none" points="818.337,943.876 818.337,126.496 "/>
<polyline clip-path="url(#clip212)" style="stroke:#000000; stroke-linecap:round; stroke-linejoin:round; stroke-width:2; stroke-opacity:0.1; fill:none" points="1089.29,943.876 1089.29,126.496 "/>
<polyline clip-path="url(#clip212)" style="stroke:#000000; stroke-linecap:round; stroke-linejoin:round; stroke-width:2; stroke-opacity:0.1; fill:none" points="1360.24,943.876 1360.24,126.496 "/>
<polyline clip-path="url(#clip210)" style="stroke:#000000; stroke-linecap:round; stroke-linejoin:round; stroke-width:4; stroke-opacity:1; fill:none" points="243.918,943.876 1392.76,943.876 "/>
<polyline clip-path="url(#clip210)" style="stroke:#000000; stroke-linecap:round; stroke-linejoin:round; stroke-width:4; stroke-opacity:1; fill:none" points="276.432,943.876 276.432,924.978 "/>
<polyline clip-path="url(#clip210)" style="stroke:#000000; stroke-linecap:round; stroke-linejoin:round; stroke-width:4; stroke-opacity:1; fill:none" points="547.385,943.876 547.385,924.978 "/>
<polyline clip-path="url(#clip210)" style="stroke:#000000; stroke-linecap:round; stroke-linejoin:round; stroke-width:4; stroke-opacity:1; fill:none" points="818.337,943.876 818.337,924.978 "/>
<polyline clip-path="url(#clip210)" style="stroke:#000000; stroke-linecap:round; stroke-linejoin:round; stroke-width:4; stroke-opacity:1; fill:none" points="1089.29,943.876 1089.29,924.978 "/>
<polyline clip-path="url(#clip210)" style="stroke:#000000; stroke-linecap:round; stroke-linejoin:round; stroke-width:4; stroke-opacity:1; fill:none" points="1360.24,943.876 1360.24,924.978 "/>
<path clip-path="url(#clip210)" d="M253.817 968.395 Q250.206 968.395 248.377 971.959 Q246.571 975.501 246.571 982.631 Q246.571 989.737 248.377 993.302 Q250.206 996.843 253.817 996.843 Q257.451 996.843 259.256 993.302 Q261.085 989.737 261.085 982.631 Q261.085 975.501 259.256 971.959 Q257.451 968.395 253.817 968.395 M253.817 964.691 Q259.627 964.691 262.682 969.297 Q265.761 973.881 265.761 982.631 Q265.761 991.357 262.682 995.964 Q259.627 1000.55 253.817 1000.55 Q248.007 1000.55 244.928 995.964 Q241.872 991.357 241.872 982.631 Q241.872 973.881 244.928 969.297 Q248.007 964.691 253.817 964.691 Z" fill="#000000" fill-rule="nonzero" fill-opacity="1" /><path clip-path="url(#clip210)" d="M273.979 993.996 L278.863 993.996 L278.863 999.876 L273.979 999.876 L273.979 993.996 Z" fill="#000000" fill-rule="nonzero" fill-opacity="1" /><path clip-path="url(#clip210)" d="M299.048 968.395 Q295.437 968.395 293.608 971.959 Q291.803 975.501 291.803 982.631 Q291.803 989.737 293.608 993.302 Q295.437 996.843 299.048 996.843 Q302.682 996.843 304.488 993.302 Q306.316 989.737 306.316 982.631 Q306.316 975.501 304.488 971.959 Q302.682 968.395 299.048 968.395 M299.048 964.691 Q304.858 964.691 307.914 969.297 Q310.992 973.881 310.992 982.631 Q310.992 991.357 307.914 995.964 Q304.858 1000.55 299.048 1000.55 Q293.238 1000.55 290.159 995.964 Q287.104 991.357 287.104 982.631 Q287.104 973.881 290.159 969.297 Q293.238 964.691 299.048 964.691 Z" fill="#000000" fill-rule="nonzero" fill-opacity="1" /><path clip-path="url(#clip210)" d="M525.267 968.395 Q521.656 968.395 519.827 971.959 Q518.021 975.501 518.021 982.631 Q518.021 989.737 519.827 993.302 Q521.656 996.843 525.267 996.843 Q528.901 996.843 530.706 993.302 Q532.535 989.737 532.535 982.631 Q532.535 975.501 530.706 971.959 Q528.901 968.395 525.267 968.395 M525.267 964.691 Q531.077 964.691 534.132 969.297 Q537.211 973.881 537.211 982.631 Q537.211 991.357 534.132 995.964 Q531.077 1000.55 525.267 1000.55 Q519.457 1000.55 516.378 995.964 Q513.322 991.357 513.322 982.631 Q513.322 973.881 516.378 969.297 Q519.457 964.691 525.267 964.691 Z" fill="#000000" fill-rule="nonzero" fill-opacity="1" /><path clip-path="url(#clip210)" d="M545.429 993.996 L550.313 993.996 L550.313 999.876 L545.429 999.876 L545.429 993.996 Z" fill="#000000" fill-rule="nonzero" fill-opacity="1" /><path clip-path="url(#clip210)" d="M560.544 965.316 L578.901 965.316 L578.901 969.251 L564.827 969.251 L564.827 977.723 Q565.845 977.376 566.864 977.214 Q567.882 977.029 568.901 977.029 Q574.688 977.029 578.067 980.2 Q581.447 983.371 581.447 988.788 Q581.447 994.367 577.975 997.468 Q574.503 1000.55 568.183 1000.55 Q566.007 1000.55 563.739 1000.18 Q561.493 999.806 559.086 999.066 L559.086 994.367 Q561.169 995.501 563.391 996.056 Q565.614 996.612 568.091 996.612 Q572.095 996.612 574.433 994.506 Q576.771 992.399 576.771 988.788 Q576.771 985.177 574.433 983.07 Q572.095 980.964 568.091 980.964 Q566.216 980.964 564.341 981.381 Q562.489 981.797 560.544 982.677 L560.544 965.316 Z" fill="#000000" fill-rule="nonzero" fill-opacity="1" /><path clip-path="url(#clip210)" d="M785.49 995.941 L793.129 995.941 L793.129 969.575 L784.819 971.242 L784.819 966.983 L793.082 965.316 L797.758 965.316 L797.758 995.941 L805.397 995.941 L805.397 999.876 L785.49 999.876 L785.49 995.941 Z" fill="#000000" fill-rule="nonzero" fill-opacity="1" /><path clip-path="url(#clip210)" d="M814.842 993.996 L819.726 993.996 L819.726 999.876 L814.842 999.876 L814.842 993.996 Z" fill="#000000" fill-rule="nonzero" fill-opacity="1" /><path clip-path="url(#clip210)" d="M839.911 968.395 Q836.3 968.395 834.471 971.959 Q832.666 975.501 832.666 982.631 Q832.666 989.737 834.471 993.302 Q836.3 996.843 839.911 996.843 Q843.545 996.843 845.351 993.302 Q847.179 989.737 847.179 982.631 Q847.179 975.501 845.351 971.959 Q843.545 968.395 839.911 968.395 M839.911 964.691 Q845.721 964.691 848.777 969.297 Q851.855 973.881 851.855 982.631 Q851.855 991.357 848.777 995.964 Q845.721 1000.55 839.911 1000.55 Q834.101 1000.55 831.022 995.964 Q827.967 991.357 827.967 982.631 Q827.967 973.881 831.022 969.297 Q834.101 964.691 839.911 964.691 Z" fill="#000000" fill-rule="nonzero" fill-opacity="1" /><path clip-path="url(#clip210)" d="M1056.94 995.941 L1064.58 995.941 L1064.58 969.575 L1056.27 971.242 L1056.27 966.983 L1064.53 965.316 L1069.21 965.316 L1069.21 995.941 L1076.85 995.941 L1076.85 999.876 L1056.94 999.876 L1056.94 995.941 Z" fill="#000000" fill-rule="nonzero" fill-opacity="1" /><path clip-path="url(#clip210)" d="M1086.29 993.996 L1091.18 993.996 L1091.18 999.876 L1086.29 999.876 L1086.29 993.996 Z" fill="#000000" fill-rule="nonzero" fill-opacity="1" /><path clip-path="url(#clip210)" d="M1101.41 965.316 L1119.76 965.316 L1119.76 969.251 L1105.69 969.251 L1105.69 977.723 Q1106.71 977.376 1107.73 977.214 Q1108.75 977.029 1109.76 977.029 Q1115.55 977.029 1118.93 980.2 Q1122.31 983.371 1122.31 988.788 Q1122.31 994.367 1118.84 997.468 Q1115.37 1000.55 1109.05 1000.55 Q1106.87 1000.55 1104.6 1000.18 Q1102.36 999.806 1099.95 999.066 L1099.95 994.367 Q1102.03 995.501 1104.25 996.056 Q1106.48 996.612 1108.95 996.612 Q1112.96 996.612 1115.3 994.506 Q1117.63 992.399 1117.63 988.788 Q1117.63 985.177 1115.3 983.07 Q1112.96 980.964 1108.95 980.964 Q1107.08 980.964 1105.2 981.381 Q1103.35 981.797 1101.41 982.677 L1101.41 965.316 Z" fill="#000000" fill-rule="nonzero" fill-opacity="1" /><path clip-path="url(#clip210)" d="M1331.48 995.941 L1347.8 995.941 L1347.8 999.876 L1325.86 999.876 L1325.86 995.941 Q1328.52 993.186 1333.1 988.556 Q1337.71 983.904 1338.89 982.561 Q1341.13 980.038 1342.01 978.302 Q1342.92 976.543 1342.92 974.853 Q1342.92 972.098 1340.97 970.362 Q1339.05 968.626 1335.95 968.626 Q1333.75 968.626 1331.3 969.39 Q1328.86 970.154 1326.09 971.705 L1326.09 966.983 Q1328.91 965.848 1331.36 965.27 Q1333.82 964.691 1335.86 964.691 Q1341.23 964.691 1344.42 967.376 Q1347.61 970.061 1347.61 974.552 Q1347.61 976.682 1346.8 978.603 Q1346.02 980.501 1343.91 983.094 Q1343.33 983.765 1340.23 986.982 Q1337.13 990.177 1331.48 995.941 Z" fill="#000000" fill-rule="nonzero" fill-opacity="1" /><path clip-path="url(#clip210)" d="M1357.61 993.996 L1362.5 993.996 L1362.5 999.876 L1357.61 999.876 L1357.61 993.996 Z" fill="#000000" fill-rule="nonzero" fill-opacity="1" /><path clip-path="url(#clip210)" d="M1382.68 968.395 Q1379.07 968.395 1377.24 971.959 Q1375.44 975.501 1375.44 982.631 Q1375.44 989.737 1377.24 993.302 Q1379.07 996.843 1382.68 996.843 Q1386.32 996.843 1388.12 993.302 Q1389.95 989.737 1389.95 982.631 Q1389.95 975.501 1388.12 971.959 Q1386.32 968.395 1382.68 968.395 M1382.68 964.691 Q1388.49 964.691 1391.55 969.297 Q1394.63 973.881 1394.63 982.631 Q1394.63 991.357 1391.55 995.964 Q1388.49 1000.55 1382.68 1000.55 Q1376.87 1000.55 1373.79 995.964 Q1370.74 991.357 1370.74 982.631 Q1370.74 973.881 1373.79 969.297 Q1376.87 964.691 1382.68 964.691 Z" fill="#000000" fill-rule="nonzero" fill-opacity="1" /><path clip-path="url(#clip210)" d="M524.05 1046.5 L524.05 1027.21 L529.907 1027.21 L529.907 1076.74 L524.05 1076.74 L524.05 1071.39 Q522.204 1074.58 519.372 1076.14 Q516.571 1077.66 512.624 1077.66 Q506.163 1077.66 502.089 1072.51 Q498.046 1067.35 498.046 1058.95 Q498.046 1050.54 502.089 1045.39 Q506.163 1040.23 512.624 1040.23 Q516.571 1040.23 519.372 1041.79 Q522.204 1043.32 524.05 1046.5 M504.094 1058.95 Q504.094 1065.41 506.736 1069.1 Q509.409 1072.76 514.056 1072.76 Q518.703 1072.76 521.377 1069.1 Q524.05 1065.41 524.05 1058.95 Q524.05 1052.49 521.377 1048.83 Q518.703 1045.13 514.056 1045.13 Q509.409 1045.13 506.736 1048.83 Q504.094 1052.49 504.094 1058.95 Z" fill="#000000" fill-rule="nonzero" fill-opacity="1" /><path clip-path="url(#clip210)" d="M562.627 1046.57 Q561.64 1045.99 560.462 1045.74 Q559.316 1045.45 557.916 1045.45 Q552.951 1045.45 550.277 1048.7 Q547.635 1051.91 547.635 1057.96 L547.635 1076.74 L541.747 1076.74 L541.747 1041.09 L547.635 1041.09 L547.635 1046.63 Q549.481 1043.38 552.441 1041.82 Q555.401 1040.23 559.635 1040.23 Q560.239 1040.23 560.971 1040.33 Q561.704 1040.39 562.595 1040.55 L562.627 1046.57 Z" fill="#000000" fill-rule="nonzero" fill-opacity="1" /><path clip-path="url(#clip210)" d="M568.769 1041.09 L574.626 1041.09 L574.626 1076.74 L568.769 1076.74 L568.769 1041.09 M568.769 1027.21 L574.626 1027.21 L574.626 1034.63 L568.769 1034.63 L568.769 1027.21 Z" fill="#000000" fill-rule="nonzero" fill-opacity="1" /><path clip-path="url(#clip210)" d="M582.679 1041.09 L588.885 1041.09 L600.025 1071.01 L611.165 1041.09 L617.372 1041.09 L604.004 1076.74 L596.046 1076.74 L582.679 1041.09 Z" fill="#000000" fill-rule="nonzero" fill-opacity="1" /><path clip-path="url(#clip210)" d="M625.456 1041.09 L631.313 1041.09 L631.313 1076.74 L625.456 1076.74 L625.456 1041.09 M625.456 1027.21 L631.313 1027.21 L631.313 1034.63 L625.456 1034.63 L625.456 1027.21 Z" fill="#000000" fill-rule="nonzero" fill-opacity="1" /><path clip-path="url(#clip210)" d="M673.199 1055.22 L673.199 1076.74 L667.342 1076.74 L667.342 1055.41 Q667.342 1050.35 665.369 1047.84 Q663.396 1045.33 659.449 1045.33 Q654.706 1045.33 651.969 1048.35 Q649.232 1051.37 649.232 1056.59 L649.232 1076.74 L643.344 1076.74 L643.344 1041.09 L649.232 1041.09 L649.232 1046.63 Q651.333 1043.42 654.165 1041.82 Q657.03 1040.23 660.754 1040.23 Q666.897 1040.23 670.048 1044.05 Q673.199 1047.84 673.199 1055.22 Z" fill="#000000" fill-rule="nonzero" fill-opacity="1" /><path clip-path="url(#clip210)" d="M708.338 1058.5 Q708.338 1052.14 705.696 1048.64 Q703.086 1045.13 698.343 1045.13 Q693.633 1045.13 690.991 1048.64 Q688.381 1052.14 688.381 1058.5 Q688.381 1064.84 690.991 1068.34 Q693.633 1071.84 698.343 1071.84 Q703.086 1071.84 705.696 1068.34 Q708.338 1064.84 708.338 1058.5 M714.194 1072.32 Q714.194 1081.42 710.152 1085.84 Q706.11 1090.3 697.77 1090.3 Q694.683 1090.3 691.946 1089.82 Q689.209 1089.38 686.63 1088.42 L686.63 1082.72 Q689.209 1084.12 691.723 1084.79 Q694.238 1085.46 696.847 1085.46 Q702.608 1085.46 705.473 1082.44 Q708.338 1079.45 708.338 1073.37 L708.338 1070.47 Q706.523 1073.62 703.691 1075.18 Q700.858 1076.74 696.911 1076.74 Q690.354 1076.74 686.344 1071.74 Q682.334 1066.75 682.334 1058.5 Q682.334 1050.23 686.344 1045.23 Q690.354 1040.23 696.911 1040.23 Q700.858 1040.23 703.691 1041.79 Q706.523 1043.35 708.338 1046.5 L708.338 1041.09 L714.194 1041.09 L714.194 1072.32 Z" fill="#000000" fill-rule="nonzero" fill-opacity="1" /><path clip-path="url(#clip210)" d="M765.024 1027.21 L765.024 1032.08 L759.422 1032.08 Q756.271 1032.08 755.03 1033.36 Q753.821 1034.63 753.821 1037.94 L753.821 1041.09 L763.465 1041.09 L763.465 1045.64 L753.821 1045.64 L753.821 1076.74 L747.932 1076.74 L747.932 1045.64 L742.33 1045.64 L742.33 1041.09 L747.932 1041.09 L747.932 1038.61 Q747.932 1032.66 750.701 1029.95 Q753.47 1027.21 759.486 1027.21 L765.024 1027.21 Z" fill="#000000" fill-rule="nonzero" fill-opacity="1" /><path clip-path="url(#clip210)" d="M790.582 1046.57 Q789.596 1045.99 788.418 1045.74 Q787.272 1045.45 785.872 1045.45 Q780.907 1045.45 778.233 1048.7 Q775.591 1051.91 775.591 1057.96 L775.591 1076.74 L769.703 1076.74 L769.703 1041.09 L775.591 1041.09 L775.591 1046.63 Q777.437 1043.38 780.397 1041.82 Q783.357 1040.23 787.591 1040.23 Q788.195 1040.23 788.927 1040.33 Q789.659 1040.39 790.551 1040.55 L790.582 1046.57 Z" fill="#000000" fill-rule="nonzero" fill-opacity="1" /><path clip-path="url(#clip210)" d="M825.785 1057.45 L825.785 1060.32 L798.858 1060.32 Q799.24 1066.36 802.486 1069.55 Q805.765 1072.7 811.589 1072.7 Q814.963 1072.7 818.114 1071.87 Q821.297 1071.04 824.416 1069.39 L824.416 1074.93 Q821.265 1076.26 817.955 1076.96 Q814.645 1077.66 811.239 1077.66 Q802.709 1077.66 797.712 1072.7 Q792.747 1067.73 792.747 1059.27 Q792.747 1050.51 797.457 1045.39 Q802.2 1040.23 810.221 1040.23 Q817.414 1040.23 821.583 1044.88 Q825.785 1049.49 825.785 1057.45 M819.928 1055.73 Q819.865 1050.93 817.223 1048.06 Q814.613 1045.2 810.284 1045.2 Q805.383 1045.2 802.423 1047.97 Q799.494 1050.74 799.049 1055.76 L819.928 1055.73 Z" fill="#000000" fill-rule="nonzero" fill-opacity="1" /><path clip-path="url(#clip210)" d="M838.898 1058.95 Q838.898 1065.41 841.54 1069.1 Q844.214 1072.76 848.861 1072.76 Q853.507 1072.76 856.181 1069.1 Q858.855 1065.41 858.855 1058.95 Q858.855 1052.49 856.181 1048.83 Q853.507 1045.13 848.861 1045.13 Q844.214 1045.13 841.54 1048.83 Q838.898 1052.49 838.898 1058.95 M858.855 1071.39 Q857.009 1074.58 854.176 1076.14 Q851.375 1077.66 847.428 1077.66 Q840.967 1077.66 836.893 1072.51 Q832.851 1067.35 832.851 1058.95 Q832.851 1050.54 836.893 1045.39 Q840.967 1040.23 847.428 1040.23 Q851.375 1040.23 854.176 1041.79 Q857.009 1043.32 858.855 1046.5 L858.855 1041.09 L864.711 1041.09 L864.711 1090.3 L858.855 1090.3 L858.855 1071.39 Z" fill="#000000" fill-rule="nonzero" fill-opacity="1" /><path clip-path="url(#clip210)" d="M876.169 1062.67 L876.169 1041.09 L882.026 1041.09 L882.026 1062.45 Q882.026 1067.51 883.999 1070.06 Q885.973 1072.57 889.919 1072.57 Q894.662 1072.57 897.399 1069.55 Q900.168 1066.52 900.168 1061.3 L900.168 1041.09 L906.025 1041.09 L906.025 1076.74 L900.168 1076.74 L900.168 1071.27 Q898.036 1074.51 895.203 1076.1 Q892.402 1077.66 888.678 1077.66 Q882.535 1077.66 879.352 1073.84 Q876.169 1070.02 876.169 1062.67 M890.906 1040.23 L890.906 1040.23 Z" fill="#000000" fill-rule="nonzero" fill-opacity="1" /><path clip-path="url(#clip210)" d="M948.579 1057.45 L948.579 1060.32 L921.652 1060.32 Q922.034 1066.36 925.281 1069.55 Q928.559 1072.7 934.384 1072.7 Q937.758 1072.7 940.909 1071.87 Q944.092 1071.04 947.211 1069.39 L947.211 1074.93 Q944.06 1076.26 940.75 1076.96 Q937.439 1077.66 934.034 1077.66 Q925.504 1077.66 920.507 1072.7 Q915.541 1067.73 915.541 1059.27 Q915.541 1050.51 920.252 1045.39 Q924.994 1040.23 933.015 1040.23 Q940.208 1040.23 944.378 1044.88 Q948.579 1049.49 948.579 1057.45 M942.723 1055.73 Q942.659 1050.93 940.017 1048.06 Q937.408 1045.2 933.079 1045.2 Q928.177 1045.2 925.217 1047.97 Q922.289 1050.74 921.843 1055.76 L942.723 1055.73 Z" fill="#000000" fill-rule="nonzero" fill-opacity="1" /><path clip-path="url(#clip210)" d="M987.824 1055.22 L987.824 1076.74 L981.967 1076.74 L981.967 1055.41 Q981.967 1050.35 979.994 1047.84 Q978.021 1045.33 974.074 1045.33 Q969.332 1045.33 966.594 1048.35 Q963.857 1051.37 963.857 1056.59 L963.857 1076.74 L957.969 1076.74 L957.969 1041.09 L963.857 1041.09 L963.857 1046.63 Q965.958 1043.42 968.79 1041.82 Q971.655 1040.23 975.379 1040.23 Q981.522 1040.23 984.673 1044.05 Q987.824 1047.84 987.824 1055.22 Z" fill="#000000" fill-rule="nonzero" fill-opacity="1" /><path clip-path="url(#clip210)" d="M1025.16 1042.46 L1025.16 1047.94 Q1022.68 1046.57 1020.16 1045.9 Q1017.68 1045.2 1015.13 1045.2 Q1009.44 1045.2 1006.28 1048.83 Q1003.13 1052.42 1003.13 1058.95 Q1003.13 1065.47 1006.28 1069.1 Q1009.44 1072.7 1015.13 1072.7 Q1017.68 1072.7 1020.16 1072.03 Q1022.68 1071.33 1025.16 1069.96 L1025.16 1075.37 Q1022.71 1076.52 1020.07 1077.09 Q1017.46 1077.66 1014.5 1077.66 Q1006.44 1077.66 1001.7 1072.6 Q996.959 1067.54 996.959 1058.95 Q996.959 1050.23 1001.73 1045.23 Q1006.54 1040.23 1014.88 1040.23 Q1017.58 1040.23 1020.16 1040.81 Q1022.74 1041.35 1025.16 1042.46 Z" fill="#000000" fill-rule="nonzero" fill-opacity="1" /><path clip-path="url(#clip210)" d="M1050.18 1080.05 Q1047.69 1086.42 1045.34 1088.36 Q1042.98 1090.3 1039.04 1090.3 L1034.36 1090.3 L1034.36 1085.4 L1037.79 1085.4 Q1040.21 1085.4 1041.55 1084.25 Q1042.89 1083.11 1044.51 1078.84 L1045.56 1076.17 L1031.14 1041.09 L1037.35 1041.09 L1048.49 1068.97 L1059.63 1041.09 L1065.84 1041.09 L1050.18 1080.05 Z" fill="#000000" fill-rule="nonzero" fill-opacity="1" /><path clip-path="url(#clip210)" d="M1106 1077.66 Q1092.79 1077.66 1092.79 1058.76 Q1092.79 1051.28 1097.73 1041.09 L1104.03 1041.09 Q1099.48 1051.28 1099.48 1058.92 Q1099.48 1072.7 1106.54 1072.7 Q1113.01 1072.7 1113.01 1055.57 L1118.42 1055.57 Q1118.42 1072.7 1124.88 1072.7 Q1131.94 1072.7 1131.94 1058.92 Q1131.94 1051.28 1127.39 1041.09 L1133.69 1041.09 Q1138.63 1051.28 1138.63 1058.76 Q1138.63 1077.66 1125.42 1077.66 Q1116.76 1077.66 1115.71 1068.15 Q1114.41 1077.66 1106 1077.66 Z" fill="#000000" fill-rule="nonzero" fill-opacity="1" /><polyline clip-path="url(#clip212)" style="stroke:#000000; stroke-linecap:round; stroke-linejoin:round; stroke-width:2; stroke-opacity:0.1; fill:none" points="243.918,921.386 1392.76,921.386 "/>
<polyline clip-path="url(#clip212)" style="stroke:#000000; stroke-linecap:round; stroke-linejoin:round; stroke-width:2; stroke-opacity:0.1; fill:none" points="243.918,760.603 1392.76,760.603 "/>
<polyline clip-path="url(#clip212)" style="stroke:#000000; stroke-linecap:round; stroke-linejoin:round; stroke-width:2; stroke-opacity:0.1; fill:none" points="243.918,599.821 1392.76,599.821 "/>
<polyline clip-path="url(#clip212)" style="stroke:#000000; stroke-linecap:round; stroke-linejoin:round; stroke-width:2; stroke-opacity:0.1; fill:none" points="243.918,439.038 1392.76,439.038 "/>
<polyline clip-path="url(#clip212)" style="stroke:#000000; stroke-linecap:round; stroke-linejoin:round; stroke-width:2; stroke-opacity:0.1; fill:none" points="243.918,278.256 1392.76,278.256 "/>
<polyline clip-path="url(#clip210)" style="stroke:#000000; stroke-linecap:round; stroke-linejoin:round; stroke-width:4; stroke-opacity:1; fill:none" points="243.918,943.876 243.918,126.496 "/>
<polyline clip-path="url(#clip210)" style="stroke:#000000; stroke-linecap:round; stroke-linejoin:round; stroke-width:4; stroke-opacity:1; fill:none" points="243.918,921.386 260.506,921.386 "/>
<polyline clip-path="url(#clip210)" style="stroke:#000000; stroke-linecap:round; stroke-linejoin:round; stroke-width:4; stroke-opacity:1; fill:none" points="243.918,760.603 260.506,760.603 "/>
<polyline clip-path="url(#clip210)" style="stroke:#000000; stroke-linecap:round; stroke-linejoin:round; stroke-width:4; stroke-opacity:1; fill:none" points="243.918,599.821 260.506,599.821 "/>
<polyline clip-path="url(#clip210)" style="stroke:#000000; stroke-linecap:round; stroke-linejoin:round; stroke-width:4; stroke-opacity:1; fill:none" points="243.918,439.038 260.506,439.038 "/>
<polyline clip-path="url(#clip210)" style="stroke:#000000; stroke-linecap:round; stroke-linejoin:round; stroke-width:4; stroke-opacity:1; fill:none" points="243.918,278.256 260.506,278.256 "/>
<path clip-path="url(#clip210)" d="M132.581 907.184 Q128.969 907.184 127.141 910.749 Q125.335 914.291 125.335 921.42 Q125.335 928.527 127.141 932.092 Q128.969 935.633 132.581 935.633 Q136.215 935.633 138.02 932.092 Q139.849 928.527 139.849 921.42 Q139.849 914.291 138.02 910.749 Q136.215 907.184 132.581 907.184 M132.581 903.481 Q138.391 903.481 141.446 908.087 Q144.525 912.67 144.525 921.42 Q144.525 930.147 141.446 934.754 Q138.391 939.337 132.581 939.337 Q126.77 939.337 123.692 934.754 Q120.636 930.147 120.636 921.42 Q120.636 912.67 123.692 908.087 Q126.77 903.481 132.581 903.481 Z" fill="#000000" fill-rule="nonzero" fill-opacity="1" /><path clip-path="url(#clip210)" d="M152.742 932.786 L157.627 932.786 L157.627 938.666 L152.742 938.666 L152.742 932.786 Z" fill="#000000" fill-rule="nonzero" fill-opacity="1" /><path clip-path="url(#clip210)" d="M177.812 907.184 Q174.201 907.184 172.372 910.749 Q170.566 914.291 170.566 921.42 Q170.566 928.527 172.372 932.092 Q174.201 935.633 177.812 935.633 Q181.446 935.633 183.252 932.092 Q185.08 928.527 185.08 921.42 Q185.08 914.291 183.252 910.749 Q181.446 907.184 177.812 907.184 M177.812 903.481 Q183.622 903.481 186.677 908.087 Q189.756 912.67 189.756 921.42 Q189.756 930.147 186.677 934.754 Q183.622 939.337 177.812 939.337 Q172.002 939.337 168.923 934.754 Q165.867 930.147 165.867 921.42 Q165.867 912.67 168.923 908.087 Q172.002 903.481 177.812 903.481 Z" fill="#000000" fill-rule="nonzero" fill-opacity="1" /><path clip-path="url(#clip210)" d="M207.974 907.184 Q204.363 907.184 202.534 910.749 Q200.728 914.291 200.728 921.42 Q200.728 928.527 202.534 932.092 Q204.363 935.633 207.974 935.633 Q211.608 935.633 213.413 932.092 Q215.242 928.527 215.242 921.42 Q215.242 914.291 213.413 910.749 Q211.608 907.184 207.974 907.184 M207.974 903.481 Q213.784 903.481 216.839 908.087 Q219.918 912.67 219.918 921.42 Q219.918 930.147 216.839 934.754 Q213.784 939.337 207.974 939.337 Q202.163 939.337 199.085 934.754 Q196.029 930.147 196.029 921.42 Q196.029 912.67 199.085 908.087 Q202.163 903.481 207.974 903.481 Z" fill="#000000" fill-rule="nonzero" fill-opacity="1" /><path clip-path="url(#clip210)" d="M133.576 746.402 Q129.965 746.402 128.136 749.967 Q126.331 753.508 126.331 760.638 Q126.331 767.744 128.136 771.309 Q129.965 774.851 133.576 774.851 Q137.21 774.851 139.016 771.309 Q140.844 767.744 140.844 760.638 Q140.844 753.508 139.016 749.967 Q137.21 746.402 133.576 746.402 M133.576 742.698 Q139.386 742.698 142.442 747.305 Q145.52 751.888 145.52 760.638 Q145.52 769.365 142.442 773.971 Q139.386 778.554 133.576 778.554 Q127.766 778.554 124.687 773.971 Q121.632 769.365 121.632 760.638 Q121.632 751.888 124.687 747.305 Q127.766 742.698 133.576 742.698 Z" fill="#000000" fill-rule="nonzero" fill-opacity="1" /><path clip-path="url(#clip210)" d="M153.738 772.003 L158.622 772.003 L158.622 777.883 L153.738 777.883 L153.738 772.003 Z" fill="#000000" fill-rule="nonzero" fill-opacity="1" /><path clip-path="url(#clip210)" d="M172.835 773.948 L189.154 773.948 L189.154 777.883 L167.21 777.883 L167.21 773.948 Q169.872 771.193 174.455 766.564 Q179.062 761.911 180.242 760.568 Q182.488 758.045 183.367 756.309 Q184.27 754.55 184.27 752.86 Q184.27 750.105 182.326 748.369 Q180.404 746.633 177.303 746.633 Q175.103 746.633 172.65 747.397 Q170.219 748.161 167.441 749.712 L167.441 744.99 Q170.266 743.855 172.719 743.277 Q175.173 742.698 177.21 742.698 Q182.58 742.698 185.775 745.383 Q188.969 748.068 188.969 752.559 Q188.969 754.689 188.159 756.61 Q187.372 758.508 185.265 761.101 Q184.687 761.772 181.585 764.99 Q178.483 768.184 172.835 773.948 Z" fill="#000000" fill-rule="nonzero" fill-opacity="1" /><path clip-path="url(#clip210)" d="M199.015 743.323 L217.372 743.323 L217.372 747.258 L203.298 747.258 L203.298 755.73 Q204.316 755.383 205.335 755.221 Q206.353 755.036 207.372 755.036 Q213.159 755.036 216.538 758.207 Q219.918 761.379 219.918 766.795 Q219.918 772.374 216.446 775.476 Q212.974 778.554 206.654 778.554 Q204.478 778.554 202.21 778.184 Q199.964 777.814 197.557 777.073 L197.557 772.374 Q199.64 773.508 201.863 774.064 Q204.085 774.619 206.562 774.619 Q210.566 774.619 212.904 772.513 Q215.242 770.406 215.242 766.795 Q215.242 763.184 212.904 761.078 Q210.566 758.971 206.562 758.971 Q204.687 758.971 202.812 759.388 Q200.96 759.804 199.015 760.684 L199.015 743.323 Z" fill="#000000" fill-rule="nonzero" fill-opacity="1" /><path clip-path="url(#clip210)" d="M132.581 585.619 Q128.969 585.619 127.141 589.184 Q125.335 592.726 125.335 599.855 Q125.335 606.962 127.141 610.527 Q128.969 614.068 132.581 614.068 Q136.215 614.068 138.02 610.527 Q139.849 606.962 139.849 599.855 Q139.849 592.726 138.02 589.184 Q136.215 585.619 132.581 585.619 M132.581 581.916 Q138.391 581.916 141.446 586.522 Q144.525 591.105 144.525 599.855 Q144.525 608.582 141.446 613.189 Q138.391 617.772 132.581 617.772 Q126.77 617.772 123.692 613.189 Q120.636 608.582 120.636 599.855 Q120.636 591.105 123.692 586.522 Q126.77 581.916 132.581 581.916 Z" fill="#000000" fill-rule="nonzero" fill-opacity="1" /><path clip-path="url(#clip210)" d="M152.742 611.221 L157.627 611.221 L157.627 617.101 L152.742 617.101 L152.742 611.221 Z" fill="#000000" fill-rule="nonzero" fill-opacity="1" /><path clip-path="url(#clip210)" d="M167.858 582.541 L186.215 582.541 L186.215 586.476 L172.141 586.476 L172.141 594.948 Q173.159 594.601 174.178 594.439 Q175.196 594.253 176.215 594.253 Q182.002 594.253 185.381 597.425 Q188.761 600.596 188.761 606.013 Q188.761 611.591 185.289 614.693 Q181.816 617.772 175.497 617.772 Q173.321 617.772 171.053 617.401 Q168.807 617.031 166.4 616.29 L166.4 611.591 Q168.483 612.726 170.705 613.281 Q172.928 613.837 175.404 613.837 Q179.409 613.837 181.747 611.73 Q184.085 609.624 184.085 606.013 Q184.085 602.402 181.747 600.295 Q179.409 598.189 175.404 598.189 Q173.529 598.189 171.654 598.605 Q169.803 599.022 167.858 599.902 L167.858 582.541 Z" fill="#000000" fill-rule="nonzero" fill-opacity="1" /><path clip-path="url(#clip210)" d="M207.974 585.619 Q204.363 585.619 202.534 589.184 Q200.728 592.726 200.728 599.855 Q200.728 606.962 202.534 610.527 Q204.363 614.068 207.974 614.068 Q211.608 614.068 213.413 610.527 Q215.242 606.962 215.242 599.855 Q215.242 592.726 213.413 589.184 Q211.608 585.619 207.974 585.619 M207.974 581.916 Q213.784 581.916 216.839 586.522 Q219.918 591.105 219.918 599.855 Q219.918 608.582 216.839 613.189 Q213.784 617.772 207.974 617.772 Q202.163 617.772 199.085 613.189 Q196.029 608.582 196.029 599.855 Q196.029 591.105 199.085 586.522 Q202.163 581.916 207.974 581.916 Z" fill="#000000" fill-rule="nonzero" fill-opacity="1" /><path clip-path="url(#clip210)" d="M133.576 424.837 Q129.965 424.837 128.136 428.402 Q126.331 431.943 126.331 439.073 Q126.331 446.179 128.136 449.744 Q129.965 453.286 133.576 453.286 Q137.21 453.286 139.016 449.744 Q140.844 446.179 140.844 439.073 Q140.844 431.943 139.016 428.402 Q137.21 424.837 133.576 424.837 M133.576 421.133 Q139.386 421.133 142.442 425.74 Q145.52 430.323 145.52 439.073 Q145.52 447.8 142.442 452.406 Q139.386 456.989 133.576 456.989 Q127.766 456.989 124.687 452.406 Q121.632 447.8 121.632 439.073 Q121.632 430.323 124.687 425.74 Q127.766 421.133 133.576 421.133 Z" fill="#000000" fill-rule="nonzero" fill-opacity="1" /><path clip-path="url(#clip210)" d="M153.738 450.438 L158.622 450.438 L158.622 456.318 L153.738 456.318 L153.738 450.438 Z" fill="#000000" fill-rule="nonzero" fill-opacity="1" /><path clip-path="url(#clip210)" d="M167.627 421.758 L189.849 421.758 L189.849 423.749 L177.303 456.318 L172.418 456.318 L184.224 425.693 L167.627 425.693 L167.627 421.758 Z" fill="#000000" fill-rule="nonzero" fill-opacity="1" /><path clip-path="url(#clip210)" d="M199.015 421.758 L217.372 421.758 L217.372 425.693 L203.298 425.693 L203.298 434.165 Q204.316 433.818 205.335 433.656 Q206.353 433.471 207.372 433.471 Q213.159 433.471 216.538 436.642 Q219.918 439.813 219.918 445.23 Q219.918 450.809 216.446 453.911 Q212.974 456.989 206.654 456.989 Q204.478 456.989 202.21 456.619 Q199.964 456.249 197.557 455.508 L197.557 450.809 Q199.64 451.943 201.863 452.499 Q204.085 453.054 206.562 453.054 Q210.566 453.054 212.904 450.948 Q215.242 448.841 215.242 445.23 Q215.242 441.619 212.904 439.513 Q210.566 437.406 206.562 437.406 Q204.687 437.406 202.812 437.823 Q200.96 438.239 199.015 439.119 L199.015 421.758 Z" fill="#000000" fill-rule="nonzero" fill-opacity="1" /><path clip-path="url(#clip210)" d="M123.391 291.6 L131.03 291.6 L131.03 265.235 L122.719 266.901 L122.719 262.642 L130.983 260.976 L135.659 260.976 L135.659 291.6 L143.298 291.6 L143.298 295.536 L123.391 295.536 L123.391 291.6 Z" fill="#000000" fill-rule="nonzero" fill-opacity="1" /><path clip-path="url(#clip210)" d="M152.742 289.656 L157.627 289.656 L157.627 295.536 L152.742 295.536 L152.742 289.656 Z" fill="#000000" fill-rule="nonzero" fill-opacity="1" /><path clip-path="url(#clip210)" d="M177.812 264.054 Q174.201 264.054 172.372 267.619 Q170.566 271.161 170.566 278.29 Q170.566 285.397 172.372 288.961 Q174.201 292.503 177.812 292.503 Q181.446 292.503 183.252 288.961 Q185.08 285.397 185.08 278.29 Q185.08 271.161 183.252 267.619 Q181.446 264.054 177.812 264.054 M177.812 260.351 Q183.622 260.351 186.677 264.957 Q189.756 269.54 189.756 278.29 Q189.756 287.017 186.677 291.624 Q183.622 296.207 177.812 296.207 Q172.002 296.207 168.923 291.624 Q165.867 287.017 165.867 278.29 Q165.867 269.54 168.923 264.957 Q172.002 260.351 177.812 260.351 Z" fill="#000000" fill-rule="nonzero" fill-opacity="1" /><path clip-path="url(#clip210)" d="M207.974 264.054 Q204.363 264.054 202.534 267.619 Q200.728 271.161 200.728 278.29 Q200.728 285.397 202.534 288.961 Q204.363 292.503 207.974 292.503 Q211.608 292.503 213.413 288.961 Q215.242 285.397 215.242 278.29 Q215.242 271.161 213.413 267.619 Q211.608 264.054 207.974 264.054 M207.974 260.351 Q213.784 260.351 216.839 264.957 Q219.918 269.54 219.918 278.29 Q219.918 287.017 216.839 291.624 Q213.784 296.207 207.974 296.207 Q202.163 296.207 199.085 291.624 Q196.029 287.017 196.029 278.29 Q196.029 269.54 199.085 264.957 Q202.163 260.351 207.974 260.351 Z" fill="#000000" fill-rule="nonzero" fill-opacity="1" /><path clip-path="url(#clip210)" d="M52.1431 858.15 L32.855 858.15 L32.855 852.294 L82.3802 852.294 L82.3802 858.15 L77.033 858.15 Q80.2158 859.996 81.7754 862.829 Q83.3032 865.63 83.3032 869.577 Q83.3032 876.038 78.147 880.112 Q72.9907 884.154 64.588 884.154 Q56.1853 884.154 51.0291 880.112 Q45.8728 876.038 45.8728 869.577 Q45.8728 865.63 47.4324 862.829 Q48.9602 859.996 52.1431 858.15 M64.588 878.107 Q71.0492 878.107 74.7413 875.465 Q78.4016 872.791 78.4016 868.144 Q78.4016 863.497 74.7413 860.824 Q71.0492 858.15 64.588 858.15 Q58.1268 858.15 54.4665 860.824 Q50.7744 863.497 50.7744 868.144 Q50.7744 872.791 54.4665 875.465 Q58.1268 878.107 64.588 878.107 Z" fill="#000000" fill-rule="nonzero" fill-opacity="1" /><path clip-path="url(#clip210)" d="M64.4607 824.03 Q64.4607 831.128 66.0839 833.865 Q67.7072 836.602 71.6221 836.602 Q74.7413 836.602 76.5874 834.565 Q78.4016 832.496 78.4016 828.963 Q78.4016 824.094 74.9641 821.165 Q71.4948 818.205 65.7657 818.205 L64.4607 818.205 L64.4607 824.03 M62.0417 812.349 L82.3802 812.349 L82.3802 818.205 L76.9693 818.205 Q80.2158 820.21 81.7754 823.202 Q83.3032 826.194 83.3032 830.523 Q83.3032 835.997 80.2476 839.244 Q77.1603 842.459 72.0041 842.459 Q65.9885 842.459 62.9329 838.448 Q59.8774 834.406 59.8774 826.417 L59.8774 818.205 L59.3045 818.205 Q55.2622 818.205 53.0661 820.879 Q50.8381 823.521 50.8381 828.327 Q50.8381 831.382 51.5701 834.279 Q52.3022 837.175 53.7663 839.849 L48.3555 839.849 Q47.1141 836.634 46.5094 833.61 Q45.8728 830.587 45.8728 827.722 Q45.8728 819.988 49.8832 816.168 Q53.8936 812.349 62.0417 812.349 Z" fill="#000000" fill-rule="nonzero" fill-opacity="1" /><path clip-path="url(#clip210)" d="M53.5753 772.531 Q49.6286 770.335 47.7507 767.28 Q45.8728 764.224 45.8728 760.086 Q45.8728 754.516 49.7877 751.493 Q53.6708 748.469 60.8641 748.469 L82.3802 748.469 L82.3802 754.357 L61.055 754.357 Q55.9306 754.357 53.448 756.171 Q50.9654 757.986 50.9654 761.71 Q50.9654 766.261 53.9891 768.903 Q57.0128 771.545 62.2327 771.545 L82.3802 771.545 L82.3802 777.433 L61.055 777.433 Q55.8988 777.433 53.448 779.247 Q50.9654 781.061 50.9654 784.849 Q50.9654 789.337 54.0209 791.979 Q57.0446 794.62 62.2327 794.62 L82.3802 794.62 L82.3802 800.509 L46.7322 800.509 L46.7322 794.62 L52.2704 794.62 Q48.992 792.615 47.4324 789.814 Q45.8728 787.013 45.8728 783.162 Q45.8728 779.279 47.8462 776.574 Q49.8196 773.836 53.5753 772.531 Z" fill="#000000" fill-rule="nonzero" fill-opacity="1" /><path clip-path="url(#clip210)" d="M77.033 731.122 L95.9391 731.122 L95.9391 737.011 L46.7322 737.011 L46.7322 731.122 L52.1431 731.122 Q48.9602 729.276 47.4324 726.475 Q45.8728 723.643 45.8728 719.728 Q45.8728 713.235 51.0291 709.193 Q56.1853 705.119 64.588 705.119 Q72.9907 705.119 78.147 709.193 Q83.3032 713.235 83.3032 719.728 Q83.3032 723.643 81.7754 726.475 Q80.2158 729.276 77.033 731.122 M64.588 711.198 Q58.1268 711.198 54.4665 713.871 Q50.7744 716.513 50.7744 721.16 Q50.7744 725.807 54.4665 728.481 Q58.1268 731.122 64.588 731.122 Q71.0492 731.122 74.7413 728.481 Q78.4016 725.807 78.4016 721.16 Q78.4016 716.513 74.7413 713.871 Q71.0492 711.198 64.588 711.198 Z" fill="#000000" fill-rule="nonzero" fill-opacity="1" /><path clip-path="url(#clip210)" d="M46.7322 695.411 L46.7322 689.554 L82.3802 689.554 L82.3802 695.411 L46.7322 695.411 M32.855 695.411 L32.855 689.554 L40.271 689.554 L40.271 695.411 L32.855 695.411 Z" fill="#000000" fill-rule="nonzero" fill-opacity="1" /><path clip-path="url(#clip210)" d="M60.8641 647.668 L82.3802 647.668 L82.3802 653.524 L61.055 653.524 Q55.9943 653.524 53.4798 655.498 Q50.9654 657.471 50.9654 661.418 Q50.9654 666.16 53.9891 668.898 Q57.0128 671.635 62.2327 671.635 L82.3802 671.635 L82.3802 677.523 L46.7322 677.523 L46.7322 671.635 L52.2704 671.635 Q49.0557 669.534 47.4643 666.701 Q45.8728 663.837 45.8728 660.113 Q45.8728 653.97 49.6923 650.819 Q53.4798 647.668 60.8641 647.668 Z" fill="#000000" fill-rule="nonzero" fill-opacity="1" /><path clip-path="url(#clip210)" d="M64.1424 612.529 Q57.7767 612.529 54.2756 615.171 Q50.7744 617.781 50.7744 622.523 Q50.7744 627.234 54.2756 629.876 Q57.7767 632.486 64.1424 632.486 Q70.4763 632.486 73.9774 629.876 Q77.4786 627.234 77.4786 622.523 Q77.4786 617.781 73.9774 615.171 Q70.4763 612.529 64.1424 612.529 M77.956 606.673 Q87.059 606.673 91.4831 610.715 Q95.9391 614.757 95.9391 623.096 Q95.9391 626.184 95.4617 628.921 Q95.0161 631.658 94.0612 634.236 L88.3639 634.236 Q89.7644 631.658 90.4328 629.144 Q91.1012 626.629 91.1012 624.019 Q91.1012 618.258 88.0775 615.394 Q85.0856 612.529 79.0063 612.529 L76.1099 612.529 Q79.261 614.344 80.8206 617.176 Q82.3802 620.009 82.3802 623.956 Q82.3802 630.512 77.3831 634.523 Q72.386 638.533 64.1424 638.533 Q55.867 638.533 50.8699 634.523 Q45.8728 630.512 45.8728 623.956 Q45.8728 620.009 47.4324 617.176 Q48.992 614.344 52.1431 612.529 L46.7322 612.529 L46.7322 606.673 L77.956 606.673 Z" fill="#000000" fill-rule="nonzero" fill-opacity="1" /><path clip-path="url(#clip210)" d="M48.1008 548.236 L53.5753 548.236 Q52.2067 550.718 51.5383 553.233 Q50.8381 555.715 50.8381 558.262 Q50.8381 563.959 54.4665 567.11 Q58.0632 570.261 64.588 570.261 Q71.1129 570.261 74.7413 567.11 Q78.3379 563.959 78.3379 558.262 Q78.3379 555.715 77.6695 553.233 Q76.9693 550.718 75.6007 548.236 L81.0115 548.236 Q82.1574 550.686 82.7303 553.328 Q83.3032 555.938 83.3032 558.898 Q83.3032 566.951 78.2424 571.693 Q73.1817 576.436 64.588 576.436 Q55.867 576.436 50.8699 571.661 Q45.8728 566.855 45.8728 558.516 Q45.8728 555.811 46.4457 553.233 Q46.9868 550.655 48.1008 548.236 Z" fill="#000000" fill-rule="nonzero" fill-opacity="1" /><path clip-path="url(#clip210)" d="M50.8381 524.237 Q50.8381 528.948 54.5302 531.685 Q58.1905 534.422 64.588 534.422 Q70.9855 534.422 74.6777 531.717 Q78.3379 528.979 78.3379 524.237 Q78.3379 519.558 74.6458 516.821 Q70.9537 514.084 64.588 514.084 Q58.2541 514.084 54.562 516.821 Q50.8381 519.558 50.8381 524.237 M45.8728 524.237 Q45.8728 516.598 50.8381 512.238 Q55.8033 507.877 64.588 507.877 Q73.3409 507.877 78.3379 512.238 Q83.3032 516.598 83.3032 524.237 Q83.3032 531.908 78.3379 536.268 Q73.3409 540.597 64.588 540.597 Q55.8033 540.597 50.8381 536.268 Q45.8728 531.908 45.8728 524.237 Z" fill="#000000" fill-rule="nonzero" fill-opacity="1" /><path clip-path="url(#clip210)" d="M63.0921 467.678 L65.9566 467.678 L65.9566 494.605 Q72.0041 494.223 75.1869 490.976 Q78.3379 487.698 78.3379 481.873 Q78.3379 478.499 77.5104 475.348 Q76.6829 472.165 75.0278 469.046 L80.5659 469.046 Q81.9027 472.197 82.603 475.507 Q83.3032 478.818 83.3032 482.223 Q83.3032 490.753 78.3379 495.75 Q73.3727 500.716 64.9063 500.716 Q56.1534 500.716 51.0291 496.005 Q45.8728 491.263 45.8728 483.242 Q45.8728 476.049 50.5198 471.879 Q55.1349 467.678 63.0921 467.678 M61.3733 473.534 Q56.5672 473.598 53.7026 476.24 Q50.8381 478.849 50.8381 483.178 Q50.8381 488.08 53.6072 491.04 Q56.3762 493.968 61.4052 494.414 L61.3733 473.534 Z" fill="#000000" fill-rule="nonzero" fill-opacity="1" /><path clip-path="url(#clip210)" d="M32.855 440.019 L37.7247 440.019 L37.7247 445.62 Q37.7247 448.772 38.9979 450.013 Q40.271 451.222 43.5812 451.222 L46.7322 451.222 L46.7322 441.578 L51.2837 441.578 L51.2837 451.222 L82.3802 451.222 L82.3802 457.111 L51.2837 457.111 L51.2837 462.712 L46.7322 462.712 L46.7322 457.111 L44.2496 457.111 Q38.2976 457.111 35.5922 454.342 Q32.855 451.572 32.855 445.557 L32.855 440.019 Z" fill="#000000" fill-rule="nonzero" fill-opacity="1" /><path clip-path="url(#clip210)" d="M32.855 417.07 L37.7247 417.07 L37.7247 422.672 Q37.7247 425.823 38.9979 427.064 Q40.271 428.274 43.5812 428.274 L46.7322 428.274 L46.7322 418.63 L51.2837 418.63 L51.2837 428.274 L82.3802 428.274 L82.3802 434.162 L51.2837 434.162 L51.2837 439.764 L46.7322 439.764 L46.7322 434.162 L44.2496 434.162 Q38.2976 434.162 35.5922 431.393 Q32.855 428.624 32.855 422.608 L32.855 417.07 Z" fill="#000000" fill-rule="nonzero" fill-opacity="1" /><path clip-path="url(#clip210)" d="M46.7322 412.169 L46.7322 406.312 L82.3802 406.312 L82.3802 412.169 L46.7322 412.169 M32.855 412.169 L32.855 406.312 L40.271 406.312 L40.271 412.169 L32.855 412.169 Z" fill="#000000" fill-rule="nonzero" fill-opacity="1" /><path clip-path="url(#clip210)" d="M48.1008 368.404 L53.5753 368.404 Q52.2067 370.887 51.5383 373.402 Q50.8381 375.884 50.8381 378.43 Q50.8381 384.128 54.4665 387.279 Q58.0632 390.43 64.588 390.43 Q71.1129 390.43 74.7413 387.279 Q78.3379 384.128 78.3379 378.43 Q78.3379 375.884 77.6695 373.402 Q76.9693 370.887 75.6007 368.404 L81.0115 368.404 Q82.1574 370.855 82.7303 373.497 Q83.3032 376.107 83.3032 379.067 Q83.3032 387.12 78.2424 391.862 Q73.1817 396.605 64.588 396.605 Q55.867 396.605 50.8699 391.83 Q45.8728 387.024 45.8728 378.685 Q45.8728 375.98 46.4457 373.402 Q46.9868 370.823 48.1008 368.404 Z" fill="#000000" fill-rule="nonzero" fill-opacity="1" /><path clip-path="url(#clip210)" d="M46.7322 358.219 L46.7322 352.363 L82.3802 352.363 L82.3802 358.219 L46.7322 358.219 M32.855 358.219 L32.855 352.363 L40.271 352.363 L40.271 358.219 L32.855 358.219 Z" fill="#000000" fill-rule="nonzero" fill-opacity="1" /><path clip-path="url(#clip210)" d="M63.0921 309.617 L65.9566 309.617 L65.9566 336.544 Q72.0041 336.162 75.1869 332.916 Q78.3379 329.637 78.3379 323.813 Q78.3379 320.439 77.5104 317.288 Q76.6829 314.105 75.0278 310.986 L80.5659 310.986 Q81.9027 314.137 82.603 317.447 Q83.3032 320.757 83.3032 324.163 Q83.3032 332.693 78.3379 337.69 Q73.3727 342.655 64.9063 342.655 Q56.1534 342.655 51.0291 337.945 Q45.8728 333.202 45.8728 325.181 Q45.8728 317.988 50.5198 313.819 Q55.1349 309.617 63.0921 309.617 M61.3733 315.474 Q56.5672 315.537 53.7026 318.179 Q50.8381 320.789 50.8381 325.118 Q50.8381 330.019 53.6072 332.979 Q56.3762 335.908 61.4052 336.353 L61.3733 315.474 Z" fill="#000000" fill-rule="nonzero" fill-opacity="1" /><path clip-path="url(#clip210)" d="M60.8641 270.373 L82.3802 270.373 L82.3802 276.229 L61.055 276.229 Q55.9943 276.229 53.4798 278.202 Q50.9654 280.176 50.9654 284.123 Q50.9654 288.865 53.9891 291.602 Q57.0128 294.339 62.2327 294.339 L82.3802 294.339 L82.3802 300.228 L46.7322 300.228 L46.7322 294.339 L52.2704 294.339 Q49.0557 292.239 47.4643 289.406 Q45.8728 286.541 45.8728 282.818 Q45.8728 276.675 49.6923 273.524 Q53.4798 270.373 60.8641 270.373 Z" fill="#000000" fill-rule="nonzero" fill-opacity="1" /><path clip-path="url(#clip210)" d="M36.6107 252.899 L46.7322 252.899 L46.7322 240.836 L51.2837 240.836 L51.2837 252.899 L70.6354 252.899 Q74.9959 252.899 76.2373 251.721 Q77.4786 250.512 77.4786 246.851 L77.4786 240.836 L82.3802 240.836 L82.3802 246.851 Q82.3802 253.631 79.8657 256.209 Q77.3194 258.787 70.6354 258.787 L51.2837 258.787 L51.2837 263.084 L46.7322 263.084 L46.7322 258.787 L36.6107 258.787 L36.6107 252.899 Z" fill="#000000" fill-rule="nonzero" fill-opacity="1" /><path clip-path="url(#clip210)" d="M78.3379 195.83 Q78.3698 191.629 80.7569 189.114 Q83.2714 186.441 87.0908 186.441 Q90.7511 186.441 93.2973 188.796 Q96.0664 191.342 96.0664 196.53 Q93.6793 196.53 91.2603 196.53 Q91.4195 194.334 90.019 192.997 Q88.905 191.979 87.7274 191.979 Q86.0404 191.979 84.64 192.997 Q83.3032 193.984 83.3032 195.83 Q83.3032 215.118 65.3837 215.15 Q49.7241 215.15 38.7432 196.976 L38.7432 213.909 L32.855 213.909 L32.855 186.218 L38.7432 186.218 Q50.3288 209.262 65.3837 209.262 Q78.3379 209.262 78.3379 195.83 Z" fill="#000000" fill-rule="nonzero" fill-opacity="1" /><path clip-path="url(#clip210)" d="M453.472 12.096 L461.655 12.096 L461.655 65.6895 L491.105 65.6895 L491.105 72.576 L453.472 72.576 L453.472 12.096 Z" fill="#000000" fill-rule="nonzero" fill-opacity="1" /><path clip-path="url(#clip210)" d="M515.491 32.4315 Q509.496 32.4315 506.012 37.1306 Q502.528 41.7891 502.528 49.9314 Q502.528 58.0738 505.972 62.7728 Q509.456 67.4314 515.491 67.4314 Q521.446 67.4314 524.93 62.7323 Q528.414 58.0333 528.414 49.9314 Q528.414 41.8701 524.93 37.1711 Q521.446 32.4315 515.491 32.4315 M515.491 26.1121 Q525.214 26.1121 530.763 32.4315 Q536.313 38.7509 536.313 49.9314 Q536.313 61.0714 530.763 67.4314 Q525.214 73.7508 515.491 73.7508 Q505.729 73.7508 500.179 67.4314 Q494.67 61.0714 494.67 49.9314 Q494.67 38.7509 500.179 32.4315 Q505.729 26.1121 515.491 26.1121 Z" fill="#000000" fill-rule="nonzero" fill-opacity="1" /><path clip-path="url(#clip210)" d="M578.523 49.3643 Q578.523 41.2625 575.161 36.8065 Q571.839 32.3505 565.804 32.3505 Q559.808 32.3505 556.446 36.8065 Q553.124 41.2625 553.124 49.3643 Q553.124 57.4256 556.446 61.8816 Q559.808 66.3376 565.804 66.3376 Q571.839 66.3376 575.161 61.8816 Q578.523 57.4256 578.523 49.3643 M585.977 66.9452 Q585.977 78.5308 580.832 84.1616 Q575.688 89.8329 565.074 89.8329 Q561.145 89.8329 557.661 89.2252 Q554.178 88.6581 550.896 87.4428 L550.896 80.1917 Q554.178 81.9741 557.378 82.8248 Q560.578 83.6755 563.9 83.6755 Q571.232 83.6755 574.878 79.8271 Q578.523 76.0193 578.523 68.282 L578.523 64.5957 Q576.214 68.6061 572.609 70.5911 Q569.004 72.576 563.981 72.576 Q555.636 72.576 550.532 66.2161 Q545.428 59.8562 545.428 49.3643 Q545.428 38.832 550.532 32.472 Q555.636 26.1121 563.981 26.1121 Q569.004 26.1121 572.609 28.0971 Q576.214 30.082 578.523 34.0924 L578.523 27.2059 L585.977 27.2059 L585.977 66.9452 Z" fill="#000000" fill-rule="nonzero" fill-opacity="1" /><path clip-path="url(#clip210)" d="M657.557 49.3643 Q657.557 41.2625 654.194 36.8065 Q650.873 32.3505 644.837 32.3505 Q638.841 32.3505 635.479 36.8065 Q632.157 41.2625 632.157 49.3643 Q632.157 57.4256 635.479 61.8816 Q638.841 66.3376 644.837 66.3376 Q650.873 66.3376 654.194 61.8816 Q657.557 57.4256 657.557 49.3643 M665.01 66.9452 Q665.01 78.5308 659.866 84.1616 Q654.721 89.8329 644.108 89.8329 Q640.178 89.8329 636.694 89.2252 Q633.211 88.6581 629.929 87.4428 L629.929 80.1917 Q633.211 81.9741 636.411 82.8248 Q639.611 83.6755 642.933 83.6755 Q650.265 83.6755 653.911 79.8271 Q657.557 76.0193 657.557 68.282 L657.557 64.5957 Q655.248 68.6061 651.642 70.5911 Q648.037 72.576 643.014 72.576 Q634.669 72.576 629.565 66.2161 Q624.461 59.8562 624.461 49.3643 Q624.461 38.832 629.565 32.472 Q634.669 26.1121 643.014 26.1121 Q648.037 26.1121 651.642 28.0971 Q655.248 30.082 657.557 34.0924 L657.557 27.2059 L665.01 27.2059 L665.01 66.9452 Z" fill="#000000" fill-rule="nonzero" fill-opacity="1" /><path clip-path="url(#clip210)" d="M700.982 49.7694 Q691.949 49.7694 688.465 51.8354 Q684.981 53.9013 684.981 58.8839 Q684.981 62.8538 687.574 65.2034 Q690.207 67.5124 694.703 67.5124 Q700.901 67.5124 704.628 63.1374 Q708.395 58.7219 708.395 51.4303 L708.395 49.7694 L700.982 49.7694 M715.849 46.6907 L715.849 72.576 L708.395 72.576 L708.395 65.6895 Q705.843 69.8214 702.036 71.8063 Q698.228 73.7508 692.718 73.7508 Q685.751 73.7508 681.619 69.8619 Q677.528 65.9325 677.528 59.3701 Q677.528 51.7138 682.632 47.825 Q687.776 43.9361 697.944 43.9361 L708.395 43.9361 L708.395 43.2069 Q708.395 38.0623 704.993 35.2672 Q701.63 32.4315 695.514 32.4315 Q691.625 32.4315 687.938 33.3632 Q684.252 34.295 680.849 36.1584 L680.849 29.2718 Q684.941 27.692 688.789 26.9223 Q692.637 26.1121 696.283 26.1121 Q706.127 26.1121 710.988 31.2163 Q715.849 36.3204 715.849 46.6907 Z" fill="#000000" fill-rule="nonzero" fill-opacity="1" /><path clip-path="url(#clip210)" d="M731.202 27.2059 L738.656 27.2059 L738.656 72.576 L731.202 72.576 L731.202 27.2059 M731.202 9.54393 L738.656 9.54393 L738.656 18.9825 L731.202 18.9825 L731.202 9.54393 Z" fill="#000000" fill-rule="nonzero" fill-opacity="1" /><path clip-path="url(#clip210)" d="M791.966 45.1919 L791.966 72.576 L784.512 72.576 L784.512 45.4349 Q784.512 38.994 782 35.7938 Q779.489 32.5936 774.466 32.5936 Q768.43 32.5936 764.946 36.4419 Q761.462 40.2903 761.462 46.9338 L761.462 72.576 L753.968 72.576 L753.968 27.2059 L761.462 27.2059 L761.462 34.2544 Q764.136 30.163 767.741 28.1376 Q771.387 26.1121 776.127 26.1121 Q783.945 26.1121 787.955 30.9732 Q791.966 35.7938 791.966 45.1919 Z" fill="#000000" fill-rule="nonzero" fill-opacity="1" /><path clip-path="url(#clip210)" d="M856.172 9.54393 L856.172 15.7418 L849.043 15.7418 Q845.032 15.7418 843.453 17.3622 Q841.913 18.9825 841.913 23.1955 L841.913 27.2059 L854.187 27.2059 L854.187 32.9987 L841.913 32.9987 L841.913 72.576 L834.419 72.576 L834.419 32.9987 L827.289 32.9987 L827.289 27.2059 L834.419 27.2059 L834.419 24.0462 Q834.419 16.471 837.943 13.0277 Q841.468 9.54393 849.124 9.54393 L856.172 9.54393 Z" fill="#000000" fill-rule="nonzero" fill-opacity="1" /><path clip-path="url(#clip210)" d="M879.992 32.4315 Q873.996 32.4315 870.513 37.1306 Q867.029 41.7891 867.029 49.9314 Q867.029 58.0738 870.472 62.7728 Q873.956 67.4314 879.992 67.4314 Q885.947 67.4314 889.43 62.7323 Q892.914 58.0333 892.914 49.9314 Q892.914 41.8701 889.43 37.1711 Q885.947 32.4315 879.992 32.4315 M879.992 26.1121 Q889.714 26.1121 895.264 32.4315 Q900.813 38.7509 900.813 49.9314 Q900.813 61.0714 895.264 67.4314 Q889.714 73.7508 879.992 73.7508 Q870.229 73.7508 864.679 67.4314 Q859.17 61.0714 859.17 49.9314 Q859.17 38.7509 864.679 32.4315 Q870.229 26.1121 879.992 26.1121 Z" fill="#000000" fill-rule="nonzero" fill-opacity="1" /><path clip-path="url(#clip210)" d="M939.459 34.1734 Q938.203 33.4443 936.704 33.1202 Q935.246 32.7556 933.464 32.7556 Q927.144 32.7556 923.741 36.8875 Q920.379 40.9789 920.379 48.6757 L920.379 72.576 L912.885 72.576 L912.885 27.2059 L920.379 27.2059 L920.379 34.2544 Q922.729 30.1225 926.496 28.1376 Q930.263 26.1121 935.651 26.1121 Q936.421 26.1121 937.353 26.2337 Q938.284 26.3147 939.418 26.5172 L939.459 34.1734 Z" fill="#000000" fill-rule="nonzero" fill-opacity="1" /><path clip-path="url(#clip210)" d="M988.11 73.7508 Q971.299 73.7508 971.299 49.6884 Q971.299 40.1688 977.578 27.2059 L985.599 27.2059 Q979.806 40.1688 979.806 49.8909 Q979.806 67.4314 988.799 67.4314 Q997.022 67.4314 997.022 45.6375 L1003.91 45.6375 Q1003.91 67.4314 1012.13 67.4314 Q1021.13 67.4314 1021.13 49.8909 Q1021.13 40.1688 1015.33 27.2059 L1023.35 27.2059 Q1029.63 40.1688 1029.63 49.6884 Q1029.63 73.7508 1012.82 73.7508 Q1001.8 73.7508 1000.47 61.6386 Q998.805 73.7508 988.11 73.7508 Z" fill="#000000" fill-rule="nonzero" fill-opacity="1" /><path clip-path="url(#clip210)" d="M1058.39 45.1514 Q1056.37 41.6676 1052.28 41.6676 Q1048.19 41.6676 1046.16 45.1514 Q1044.09 48.6352 1044.09 55.6027 Q1044.09 62.6108 1046.16 66.0946 Q1048.19 69.5783 1052.28 69.5783 Q1056.37 69.5783 1058.39 66.0946 Q1060.46 62.6108 1060.46 55.6027 Q1060.46 48.6352 1058.39 45.1514 M1052.28 38.0623 Q1058.8 38.0623 1062.24 42.5588 Q1065.69 47.0553 1065.69 55.6027 Q1065.69 64.1906 1062.24 68.6871 Q1058.8 73.1836 1052.28 73.1836 Q1045.71 73.1836 1042.27 68.6871 Q1038.83 64.1906 1038.83 55.6027 Q1038.83 47.0553 1042.27 42.5588 Q1045.71 38.0623 1052.28 38.0623 Z" fill="#000000" fill-rule="nonzero" fill-opacity="1" /><path clip-path="url(#clip210)" d="M1077.35 34.9026 L1129.28 34.9026 L1129.28 41.7081 L1077.35 41.7081 L1077.35 34.9026 M1077.35 51.4303 L1129.28 51.4303 L1129.28 58.3168 L1077.35 58.3168 L1077.35 51.4303 Z" fill="#000000" fill-rule="nonzero" fill-opacity="1" /><path clip-path="url(#clip210)" d="M1148.36 65.6895 L1161.73 65.6895 L1161.73 19.5497 L1147.19 22.4663 L1147.19 15.0127 L1161.65 12.096 L1169.83 12.096 L1169.83 65.6895 L1183.2 65.6895 L1183.2 72.576 L1148.36 72.576 L1148.36 65.6895 Z" fill="#000000" fill-rule="nonzero" fill-opacity="1" /><polyline clip-path="url(#clip212)" style="stroke:#c9cfc3; stroke-linecap:round; stroke-linejoin:round; stroke-width:8; stroke-opacity:1; fill:none" points="487.369,920.742 487.42,912.078 487.561,903.414 487.791,894.75 488.113,886.086 488.529,877.422 489.041,868.757 489.652,860.093 490.367,851.429 491.19,842.765 492.126,834.101 493.182,825.436 494.366,816.772 495.685,808.108 496.062,805.847 497.075,799.444 498.589,790.78 500.264,782.115 502.116,773.451 504.159,764.787 506.415,756.123 508.234,749.746 508.865,747.459 511.46,738.794 514.338,730.13 517.533,721.466 520.405,714.415 521.055,712.802 524.841,704.138 529.093,695.474 532.577,689.093 533.838,686.809 539.086,678.145 544.748,669.943 545.078,669.481 551.846,660.817 556.92,655.108 559.72,652.153 569.005,643.488 569.091,643.415 580.329,634.824 581.263,634.186 593.434,626.906 594.904,626.16 605.606,621.225 615.907,617.496 617.777,616.875 629.949,613.662 642.121,611.432 654.292,610.068 666.464,609.472 678.635,609.567 690.807,610.291 702.978,611.598 715.15,613.453 727.321,615.835 734.19,617.496 739.493,618.705 751.664,622.036 763.836,625.87 764.63,626.16 776.008,630.114 788.055,634.824 788.179,634.871 800.351,640.028 807.683,643.488 812.522,645.69 824.694,651.851 825.235,652.153 836.865,658.467 840.804,660.817 849.037,665.626 855.066,669.481 861.208,673.35 868.193,678.145 873.38,681.677 880.333,686.809 885.551,690.658 891.612,695.474 897.723,700.364 902.128,704.138 909.894,710.894 911.958,712.802 921.14,721.466 922.066,722.357 929.719,730.13 934.238,734.896 937.768,738.794 945.296,747.459 946.409,748.785 952.346,756.123 958.581,764.335 958.914,764.787 965.075,773.451 970.752,782.098 970.763,782.115 976.109,790.78 981.009,799.444 982.924,803.091 985.552,808.108 989.736,816.772 993.51,825.436 995.095,829.44 996.964,834.101 1000.1,842.765 1002.86,851.429 1005.27,860.093 1007.27,868.513 1007.33,868.757 1009.14,877.422 1010.61,886.086 1011.76,894.75 1012.58,903.414 1013.07,912.078 1013.26,920.742 "/>
<polyline clip-path="url(#clip212)" style="stroke:#c3bbb0; stroke-linecap:round; stroke-linejoin:round; stroke-width:8; stroke-opacity:1; fill:none" points="964.261,920.742 964.024,912.078 963.374,903.414 962.301,894.75 960.797,886.086 958.845,877.422 958.581,876.45 956.563,868.757 953.824,860.093 950.584,851.429 946.819,842.765 946.409,841.91 942.675,834.101 937.959,825.436 934.238,819.297 932.677,816.772 926.851,808.108 922.066,801.648 920.362,799.444 913.203,790.78 909.894,787.032 905.263,782.115 897.723,774.588 896.484,773.451 886.694,764.787 885.551,763.804 875.665,756.123 873.38,754.381 863.145,747.459 861.208,746.154 849.037,738.993 848.641,738.794 836.865,732.742 830.77,730.13 824.694,727.438 812.522,723.021 807.064,721.466 800.351,719.449 788.179,716.736 776.008,714.93 763.836,714.046 751.664,714.128 739.493,715.261 727.321,717.562 715.15,721.191 714.445,721.466 702.978,726.292 695.916,730.13 690.807,733.177 682.927,738.794 678.635,742.209 672.813,747.459 666.464,753.951 664.513,756.123 657.509,764.787 654.292,769.316 651.481,773.451 646.224,782.115 642.121,789.903 641.664,790.78 637.545,799.444 633.951,808.108 630.821,816.772 629.949,819.478 627.978,825.436 625.452,834.101 623.258,842.765 621.367,851.429 619.753,860.093 618.393,868.757 617.777,873.474 617.229,877.422 616.252,886.086 615.5,894.75 614.965,903.414 614.64,912.078 614.522,920.742 "/>
<polyline clip-path="url(#clip212)" style="stroke:#bca69c; stroke-linecap:round; stroke-linejoin:round; stroke-width:8; stroke-opacity:1; fill:none" points="682.042,920.742 682.231,912.078 682.754,903.414 683.624,894.75 684.86,886.086 686.493,877.422 688.558,868.757 690.807,861.073 691.081,860.093 693.941,851.429 697.416,842.765 701.603,834.101 702.978,831.608 706.467,825.436 712.305,816.772 715.15,813.108 719.38,808.108 727.321,800.159 728.15,799.444 739.493,790.88 739.661,790.78 751.664,784.291 757.472,782.115 763.836,779.883 776.008,777.292 788.179,776.321 800.351,776.803 812.522,778.665 824.694,781.925 825.19,782.115 836.865,786.418 845.681,790.78 849.037,792.414 860.39,799.444 861.208,799.957 871.942,808.108 873.38,809.252 881.559,816.772 885.551,820.757 889.785,825.436 896.829,834.101 897.723,835.308 902.949,842.765 908.162,851.429 909.894,854.745 912.668,860.093 916.5,868.757 919.615,877.422 922.066,886.078 922.068,886.086 924.105,894.75 925.544,903.414 926.413,912.078 926.727,920.742 "/>
<polyline clip-path="url(#clip212)" style="stroke:#b69088; stroke-linecap:round; stroke-linejoin:round; stroke-width:8; stroke-opacity:1; fill:none" points="898.169,920.742 897.731,912.078 897.723,912.018 896.668,903.414 894.863,894.75 892.228,886.086 888.662,877.422 885.551,871.414 884.159,868.757 878.662,860.093 873.38,853.273 871.789,851.429 863.269,842.765 861.208,840.867 852.203,834.101 849.037,831.862 836.865,825.466 836.78,825.436 824.694,821.064 812.522,818.763 800.351,818.419 788.179,820.137 776.008,824.279 773.798,825.436 763.836,831.262 760.248,834.101 751.664,842.171 751.129,842.765 744.311,851.429 739.493,859.345 739.057,860.093 734.744,868.757 731.403,877.422 728.876,886.086 727.321,893.354 726.997,894.75 725.553,903.414 724.693,912.078 724.383,920.742 "/>
<polyline clip-path="url(#clip212)" style="stroke:#b07c74; stroke-linecap:round; stroke-linejoin:round; stroke-width:8; stroke-opacity:1; fill:none" points="752.603,920.742 753.009,912.078 754.165,903.414 756.192,894.75 759.278,886.086 763.679,877.422 763.836,877.168 769.483,868.757 776.008,861.712 777.965,860.093 788.179,853.161 792.794,851.429 800.351,848.781 812.522,847.612 824.694,849.351 830.145,851.429 836.865,853.912 846.523,860.093 849.037,861.843 856.321,868.757 861.208,874.52 863.356,877.422 868.591,886.086 872.257,894.75 873.38,898.662 874.861,903.414 876.499,912.078 877.083,920.742 "/>
<polyline clip-path="url(#clip212)" style="stroke:#aa6761; stroke-linecap:round; stroke-linejoin:round; stroke-width:8; stroke-opacity:1; fill:none" points="861.056,920.742 860.397,912.078 858.418,903.414 854.716,894.75 849.037,886.356 848.819,886.086 839.742,877.422 836.865,875.18 824.694,869.791 814.022,868.757 812.522,868.587 811.76,868.757 800.351,871.314 790.744,877.422 788.179,879.502 782.455,886.086 777.471,894.75 776.008,898.825 774.258,903.414 772.295,912.078 771.61,920.742 "/>
<polyline clip-path="url(#clip212)" style="stroke:#a3534e; stroke-linecap:round; stroke-linejoin:round; stroke-width:8; stroke-opacity:1; fill:none" points="785.002,920.742 786.046,912.078 788.179,905.827 788.911,903.414 794.093,894.75 800.351,888.652 806.048,886.086 812.522,883.519 824.694,884.553 827.558,886.086 836.865,891.703 839.756,894.75 845.638,903.414 848.469,912.078 849.037,917.743 849.442,920.742 "/>
<polyline clip-path="url(#clip212)" style="stroke:#9d3e3b; stroke-linecap:round; stroke-linejoin:round; stroke-width:8; stroke-opacity:1; fill:none" points="841.543,920.742 839.845,912.078 836.865,906.532 834.867,903.414 824.694,895.389 813.334,894.75 812.522,894.69 812.409,894.75 800.351,903.366 800.313,903.414 795.566,912.078 794.047,920.742 "/>
<polyline clip-path="url(#clip212)" style="stroke:#972a28; stroke-linecap:round; stroke-linejoin:round; stroke-width:8; stroke-opacity:1; fill:none" points="801.087,920.742 803.029,912.078 811.51,903.414 812.522,902.692 823.402,903.414 824.694,903.477 833.121,912.078 835.389,920.742 "/>
<polyline clip-path="url(#clip212)" style="stroke:#911614; stroke-linecap:round; stroke-linejoin:round; stroke-width:8; stroke-opacity:1; fill:none" points="831.673,920.742 827.4,912.078 824.694,909.316 812.522,908.533 808.853,912.078 804.681,920.742 "/>
<polyline clip-path="url(#clip212)" style="stroke:#c1cdc8; stroke-linecap:round; stroke-linejoin:round; stroke-width:8; stroke-opacity:1; fill:none" points="1076.37,920.742 1076.23,912.078 1075.85,903.414 1075.21,894.75 1074.33,886.086 1073.2,877.422 1071.82,868.757 1070.17,860.093 1068.26,851.429 1068.12,850.865 1066.16,842.765 1063.8,834.101 1061.17,825.436 1058.25,816.772 1055.95,810.503 1055.09,808.108 1051.7,799.444 1048.03,790.78 1044.06,782.115 1043.78,781.547 1039.88,773.451 1035.4,764.787 1031.61,757.888 1030.64,756.123 1025.63,747.459 1020.31,738.794 1019.44,737.429 1014.74,730.13 1008.86,721.466 1007.27,719.203 1002.7,712.802 996.239,704.138 995.095,702.644 989.493,695.474 982.924,687.396 982.435,686.809 975.081,678.145 970.752,673.194 967.414,669.481 959.44,660.817 958.581,659.894 951.141,652.153 946.409,647.32 942.528,643.488 934.238,635.415 933.608,634.824 924.344,626.16 922.066,624.043 914.751,617.496 909.894,613.164 904.84,608.832 897.723,602.728 894.611,600.167 885.551,592.68 884.065,591.503 873.38,582.974 873.204,582.839 862.002,574.175 861.208,573.554 850.491,565.511 849.037,564.403 838.688,556.846 836.865,555.492 826.607,548.182 824.694,546.791 814.266,539.518 812.522,538.274 801.689,530.854 800.351,529.914 788.905,522.19 788.179,521.687 776.008,513.565 775.946,513.526 763.836,505.515 762.81,504.861 751.664,497.521 749.581,496.197 739.493,489.558 736.31,487.533 727.321,481.599 723.054,478.869 715.15,473.615 709.869,470.205 702.978,465.575 696.814,461.54 690.807,457.444 683.947,452.876 678.635,449.186 671.322,444.212 666.464,440.759 658.99,435.548 654.292,432.12 646.996,426.884 642.121,423.216 635.382,418.219 629.949,413.99 624.18,409.555 617.777,404.378 613.418,400.891 605.606,394.306 603.117,392.227 593.434,383.687 593.292,383.563 583.836,374.898 581.263,372.408 574.847,366.234 569.091,360.365 566.336,357.57 558.248,348.906 556.92,347.415 550.506,340.242 544.748,333.386 543.223,331.578 536.249,322.913 532.577,318.082 529.652,314.249 523.376,305.585 520.405,301.262 517.408,296.921 511.727,288.257 508.234,282.632 506.336,279.592 501.16,270.928 496.298,262.264 496.062,261.83 491.561,253.6 487.092,244.936 483.89,238.409 482.834,236.271 478.7,227.607 474.789,218.943 471.719,211.804 471.057,210.279 467.409,201.615 463.944,192.95 460.647,184.286 459.547,181.301 457.43,175.622 454.326,166.958 451.364,158.294 448.533,149.63 "/>
<polyline clip-path="url(#clip212)" style="stroke:#aeb9c2; stroke-linecap:round; stroke-linejoin:round; stroke-width:8; stroke-opacity:1; fill:none" points="620.914,149.63 625.855,158.294 629.949,165.3 630.927,166.958 636.134,175.622 641.481,184.286 642.121,185.303 646.968,192.95 652.603,201.615 654.292,204.157 658.386,210.279 664.323,218.943 666.464,222 670.413,227.607 676.663,236.271 678.635,238.946 683.069,244.936 689.644,253.6 690.807,255.1 696.373,262.264 702.978,270.552 703.279,270.928 710.333,279.592 715.15,285.365 717.563,288.257 724.953,296.921 727.321,299.638 732.499,305.585 739.493,313.434 740.217,314.249 748.073,322.913 751.664,326.789 756.085,331.578 763.836,339.796 764.255,340.242 772.54,348.906 776.008,352.459 780.964,357.57 788.179,364.867 789.521,366.234 798.177,374.898 800.351,377.035 806.931,383.563 812.522,389.012 815.786,392.227 824.694,400.857 824.729,400.891 833.711,409.555 836.865,412.552 842.755,418.219 849.037,424.181 851.846,426.884 860.966,435.548 861.208,435.775 870.075,444.212 873.38,447.321 879.19,452.876 885.551,458.9 888.295,461.54 897.371,470.205 897.723,470.537 906.384,478.869 909.894,482.225 915.347,487.533 922.066,494.045 924.247,496.197 933.061,504.861 934.238,506.012 941.773,513.526 946.409,518.149 950.387,522.19 958.581,530.532 958.891,530.854 967.259,539.518 970.752,543.151 975.501,548.182 982.924,556.107 983.604,556.846 991.554,565.511 995.095,569.407 999.353,574.175 1006.99,582.839 1007.27,583.156 1014.46,591.503 1019.44,597.38 1021.76,600.167 1028.89,608.832 1031.61,612.196 1035.84,617.496 1042.6,626.16 1043.78,627.702 1049.18,634.824 1055.56,643.488 1055.95,644.024 1061.78,652.153 1067.78,660.817 1068.12,661.329 1073.61,669.481 1079.22,678.145 1080.3,679.849 1084.66,686.809 1089.89,695.474 1092.47,699.906 1094.92,704.138 1099.77,712.802 1104.38,721.466 1104.64,721.962 1108.85,730.13 1113.09,738.794 1116.81,746.813 1117.11,747.459 1120.98,756.123 1124.63,764.787 1128.06,773.451 1128.98,775.916 1131.32,782.115 1134.39,790.78 1137.24,799.444 1139.88,808.108 1141.15,812.614 1142.34,816.772 1144.63,825.436 1146.7,834.101 1148.58,842.765 1150.24,851.429 1151.71,860.093 1152.98,868.757 1153.33,871.564 1154.07,877.422 1154.97,886.086 1155.68,894.75 1156.19,903.414 1156.49,912.078 1156.61,920.742 "/>
<polyline clip-path="url(#clip212)" style="stroke:#9ba4bc; stroke-linecap:round; stroke-linejoin:round; stroke-width:8; stroke-opacity:1; fill:none" points="1257.28,920.742 1257.19,912.078 1256.94,903.414 1256.54,894.75 1255.98,886.086 1255.26,877.422 1254.39,868.757 1253.35,860.093 1252.16,851.429 1250.81,842.765 1250.7,842.147 1249.32,834.101 1247.68,825.436 1245.88,816.772 1243.92,808.108 1241.79,799.444 1239.5,790.78 1238.53,787.324 1237.08,782.115 1234.51,773.451 1231.77,764.787 1228.87,756.123 1226.35,749.02 1225.81,747.459 1222.63,738.794 1219.28,730.13 1215.76,721.466 1214.18,717.737 1212.11,712.802 1208.31,704.138 1204.35,695.474 1202.01,690.558 1200.24,686.809 1195.99,678.145 1191.58,669.481 1189.84,666.161 1187.04,660.817 1182.35,652.153 1177.67,643.792 1177.5,643.488 1172.54,634.824 1167.41,626.16 1165.5,622.994 1162.16,617.496 1156.77,608.832 1153.33,603.429 1151.24,600.167 1145.58,591.503 1141.15,584.873 1139.79,582.839 1133.88,574.175 1128.98,567.151 1127.83,565.511 1121.68,556.846 1116.81,550.126 1115.39,548.182 1109.01,539.518 1104.64,533.69 1102.5,530.854 1095.89,522.19 1092.47,517.755 1089.18,513.526 1082.37,504.861 1080.3,502.25 1075.46,496.197 1068.47,487.533 1068.12,487.112 1061.39,478.869 1055.95,472.269 1054.24,470.205 1047.01,461.54 1043.78,457.686 1039.72,452.876 1032.36,444.212 1031.61,443.327 1024.95,435.548 1019.44,429.128 1017.49,426.884 1010,418.219 1007.27,415.068 1002.46,409.555 995.095,401.121 994.893,400.891 987.309,392.227 982.924,387.217 979.706,383.563 972.094,374.898 970.752,373.364 964.482,366.234 958.581,359.507 956.873,357.57 949.276,348.906 946.409,345.619 941.697,340.242 934.238,331.689 934.14,331.578 926.618,322.913 922.066,317.641 919.129,314.249 911.683,305.585 909.894,303.487 904.286,296.921 897.723,289.18 896.938,288.257 889.654,279.592 885.551,274.672 882.429,270.928 875.272,262.264 873.38,259.951 868.188,253.6 861.208,244.979 861.173,244.936 854.247,236.271 849.037,229.688 847.394,227.607 840.631,218.943 836.865,214.065 833.952,210.279 827.363,201.615 824.694,198.065 820.866,192.95 814.459,184.286 812.522,181.637 808.151,175.622 801.93,166.958 800.351,164.731 795.814,158.294 789.786,149.63 "/>
<polyline clip-path="url(#clip212)" style="stroke:#8790b6; stroke-linecap:round; stroke-linejoin:round; stroke-width:8; stroke-opacity:1; fill:none" points="974.72,149.63 981.117,158.294 982.924,160.726 987.569,166.958 994.053,175.622 995.095,177.006 1000.59,184.286 1007.15,192.95 1007.27,193.098 1013.77,201.615 1019.44,209.019 1020.4,210.279 1027.08,218.943 1031.61,224.807 1033.77,227.607 1040.5,236.271 1043.78,240.492 1047.24,244.936 1054,253.6 1055.95,256.102 1060.77,262.264 1067.55,270.928 1068.12,271.664 1074.34,279.592 1080.3,287.196 1081.13,288.257 1087.92,296.921 1092.47,302.728 1094.7,305.585 1101.48,314.249 1104.64,318.296 1108.24,322.913 1114.98,331.578 1116.81,333.929 1121.71,340.242 1128.4,348.906 1128.98,349.657 1135.08,357.57 1141.15,365.505 1141.71,366.234 1148.32,374.898 1153.33,381.509 1154.88,383.563 1161.4,392.227 1165.5,397.712 1167.87,400.891 1174.29,409.555 1177.67,414.153 1180.65,418.219 1186.96,426.884 1189.84,430.877 1193.2,435.548 1199.38,444.212 1202.01,447.932 1205.5,452.876 1211.54,461.54 1214.18,465.377 1217.51,470.205 1223.4,478.869 1226.35,483.277 1229.21,487.533 1234.94,496.197 1238.53,501.709 1240.58,504.861 1246.14,513.526 1250.7,520.765 1251.59,522.19 1256.98,530.854 1262.25,539.518 1262.87,540.555 1267.44,548.182 1272.52,556.846 1275.04,561.223 1277.51,565.511 1282.4,574.175 1287.16,582.839 1287.21,582.937 1291.85,591.503 1296.41,600.167 1299.38,605.952 1300.87,608.832 1305.23,617.496 1309.46,626.16 1311.56,630.577 1313.58,634.824 1317.6,643.488 1321.49,652.153 1323.73,657.285 1325.27,660.817 1328.95,669.481 1332.49,678.145 1335.9,686.786 1335.91,686.809 1339.24,695.474 1342.43,704.138 1345.5,712.802 1348.07,720.392 1348.44,721.466 1351.28,730.13 1353.99,738.794 1356.58,747.459 1359.03,756.123 1360.24,760.65 "/>
<polyline clip-path="url(#clip212)" style="stroke:#737aaf; stroke-linecap:round; stroke-linejoin:round; stroke-width:8; stroke-opacity:1; fill:none" points="1360.24,405.2 1357.52,400.891 1352,392.227 1348.07,386.131 1346.41,383.563 1340.78,374.898 1335.9,367.475 1335.08,366.234 1329.35,357.57 1323.73,349.177 1323.55,348.906 1317.72,340.242 1311.82,331.578 1311.56,331.184 1305.91,322.913 1299.93,314.249 1299.38,313.455 1293.94,305.585 1287.89,296.921 1287.21,295.952 1281.83,288.257 1275.72,279.592 1275.04,278.638 1269.59,270.928 1263.43,262.264 1262.87,261.482 1257.25,253.6 1251.04,244.936 1250.7,244.452 1244.83,236.271 1238.59,227.607 1238.53,227.52 1232.35,218.943 1226.35,210.658 1226.08,210.279 1219.82,201.615 1214.18,193.84 1213.54,192.95 1207.27,184.286 1202.01,177.043 1200.98,175.622 1194.71,166.958 1189.84,160.243 1188.43,158.294 1182.16,149.63 "/>
<polyline clip-path="url(#clip212)" style="stroke:#000000; stroke-linecap:round; stroke-linejoin:round; stroke-width:8; stroke-opacity:1; fill:none" points="818.336,920.742 818.301,916.155 818.211,911.568 818.065,906.981 817.864,902.394 817.608,897.807 817.297,893.22 816.93,888.633 816.507,884.046 816.029,879.459 815.495,874.872 814.905,870.285 814.259,865.698 813.556,861.111 812.797,856.524 811.981,851.937 811.107,847.35 810.177,842.763 809.188,838.175 808.142,833.588 807.037,829.001 805.874,824.414 804.651,819.827 803.369,815.24 802.027,810.653 800.624,806.066 799.161,801.479 797.636,796.892 796.049,792.305 794.4,787.718 792.687,783.131 790.911,778.544 789.07,773.957 787.164,769.37 785.192,764.783 783.154,760.196 781.048,755.608 778.874,751.021 776.631,746.434 774.317,741.847 771.933,737.26 769.476,732.673 766.946,728.086 764.342,723.499 761.663,718.912 758.906,714.325 756.071,709.738 753.157,705.151 750.162,700.564 747.084,695.977 743.923,691.39 740.675,686.803 737.339,682.216 733.914,677.629 730.398,673.041 726.787,668.454 723.081,663.867 719.276,659.28 715.369,654.693 711.36,650.106 707.243,645.519 703.017,640.932 698.678,636.345 694.222,631.758 689.645,627.171 684.945,622.584 680.116,617.997 675.153,613.41 670.052,608.823 664.807,604.236 659.412,599.649 653.861,595.062 648.146,590.474 642.261,585.887 636.196,581.3 629.943,576.713 623.492,572.126 616.83,567.539 609.946,562.952 602.825,558.365 595.451,553.778 587.807,549.191 579.872,544.604 571.623,540.017 563.033,535.43 554.069,530.843 544.695,526.256 534.865,521.669 524.526,517.082 513.611,512.495 502.036,507.907 489.695,503.32 476.445,498.733 462.091,494.146 446.355,489.559 428.809,484.972 408.733,480.385 384.732,475.798 353.206,471.211 276.432,466.624 "/>
<defs>
  <clipPath id="clip213">
    <rect x="1424" y="126" width="49" height="818"/>
  </clipPath>
</defs>
<polyline clip-path="url(#clip213)" style="stroke:#131491; stroke-linecap:round; stroke-linejoin:round; stroke-width:8; stroke-opacity:1; fill:none" points="1424.76,904.953 1472.76,904.953 "/>
<polyline clip-path="url(#clip213)" style="stroke:#262897; stroke-linecap:round; stroke-linejoin:round; stroke-width:8; stroke-opacity:1; fill:none" points="1424.76,866.03 1472.76,866.03 "/>
<polyline clip-path="url(#clip213)" style="stroke:#393d9d; stroke-linecap:round; stroke-linejoin:round; stroke-width:8; stroke-opacity:1; fill:none" points="1424.76,827.107 1472.76,827.107 "/>
<polyline clip-path="url(#clip213)" style="stroke:#4e53a3; stroke-linecap:round; stroke-linejoin:round; stroke-width:8; stroke-opacity:1; fill:none" points="1424.76,788.184 1472.76,788.184 "/>
<polyline clip-path="url(#clip213)" style="stroke:#6167aa; stroke-linecap:round; stroke-linejoin:round; stroke-width:8; stroke-opacity:1; fill:none" points="1424.76,749.262 1472.76,749.262 "/>
<polyline clip-path="url(#clip213)" style="stroke:#747cb0; stroke-linecap:round; stroke-linejoin:round; stroke-width:8; stroke-opacity:1; fill:none" points="1424.76,710.339 1472.76,710.339 "/>
<polyline clip-path="url(#clip213)" style="stroke:#8790b6; stroke-linecap:round; stroke-linejoin:round; stroke-width:8; stroke-opacity:1; fill:none" points="1424.76,671.416 1472.76,671.416 "/>
<polyline clip-path="url(#clip213)" style="stroke:#9ba4bc; stroke-linecap:round; stroke-linejoin:round; stroke-width:8; stroke-opacity:1; fill:none" points="1424.76,632.493 1472.76,632.493 "/>
<polyline clip-path="url(#clip213)" style="stroke:#aeb9c2; stroke-linecap:round; stroke-linejoin:round; stroke-width:8; stroke-opacity:1; fill:none" points="1424.76,593.57 1472.76,593.57 "/>
<polyline clip-path="url(#clip213)" style="stroke:#c1cdc8; stroke-linecap:round; stroke-linejoin:round; stroke-width:8; stroke-opacity:1; fill:none" points="1424.76,554.647 1472.76,554.647 "/>
<polyline clip-path="url(#clip213)" style="stroke:#c8cdc1; stroke-linecap:round; stroke-linejoin:round; stroke-width:8; stroke-opacity:1; fill:none" points="1424.76,515.725 1472.76,515.725 "/>
<polyline clip-path="url(#clip213)" style="stroke:#c2b9ae; stroke-linecap:round; stroke-linejoin:round; stroke-width:8; stroke-opacity:1; fill:none" points="1424.76,476.802 1472.76,476.802 "/>
<polyline clip-path="url(#clip213)" style="stroke:#bca49b; stroke-linecap:round; stroke-linejoin:round; stroke-width:8; stroke-opacity:1; fill:none" points="1424.76,437.879 1472.76,437.879 "/>
<polyline clip-path="url(#clip213)" style="stroke:#b69088; stroke-linecap:round; stroke-linejoin:round; stroke-width:8; stroke-opacity:1; fill:none" points="1424.76,398.956 1472.76,398.956 "/>
<polyline clip-path="url(#clip213)" style="stroke:#b07c74; stroke-linecap:round; stroke-linejoin:round; stroke-width:8; stroke-opacity:1; fill:none" points="1424.76,360.033 1472.76,360.033 "/>
<polyline clip-path="url(#clip213)" style="stroke:#aa6761; stroke-linecap:round; stroke-linejoin:round; stroke-width:8; stroke-opacity:1; fill:none" points="1424.76,321.11 1472.76,321.11 "/>
<polyline clip-path="url(#clip213)" style="stroke:#a3534e; stroke-linecap:round; stroke-linejoin:round; stroke-width:8; stroke-opacity:1; fill:none" points="1424.76,282.188 1472.76,282.188 "/>
<polyline clip-path="url(#clip213)" style="stroke:#9d3d39; stroke-linecap:round; stroke-linejoin:round; stroke-width:8; stroke-opacity:1; fill:none" points="1424.76,243.265 1472.76,243.265 "/>
<polyline clip-path="url(#clip213)" style="stroke:#972826; stroke-linecap:round; stroke-linejoin:round; stroke-width:8; stroke-opacity:1; fill:none" points="1424.76,204.342 1472.76,204.342 "/>
<polyline clip-path="url(#clip213)" style="stroke:#911413; stroke-linecap:round; stroke-linejoin:round; stroke-width:8; stroke-opacity:1; fill:none" points="1424.76,165.419 1472.76,165.419 "/>
<path clip-path="url(#clip210)" d="M1496.76 940.698 L1526.43 940.698 L1526.43 944.634 L1496.76 944.634 L1496.76 940.698 Z" fill="#000000" fill-rule="nonzero" fill-opacity="1" /><path clip-path="url(#clip210)" d="M1537.33 953.592 L1544.97 953.592 L1544.97 927.226 L1536.66 928.893 L1536.66 924.634 L1544.93 922.967 L1549.6 922.967 L1549.6 953.592 L1557.24 953.592 L1557.24 957.527 L1537.33 957.527 L1537.33 953.592 Z" fill="#000000" fill-rule="nonzero" fill-opacity="1" /><path clip-path="url(#clip210)" d="M1566.69 951.647 L1571.57 951.647 L1571.57 957.527 L1566.69 957.527 L1566.69 951.647 Z" fill="#000000" fill-rule="nonzero" fill-opacity="1" /><path clip-path="url(#clip210)" d="M1581.8 922.967 L1600.16 922.967 L1600.16 926.902 L1586.08 926.902 L1586.08 935.374 Q1587.1 935.027 1588.12 934.865 Q1589.14 934.68 1590.16 934.68 Q1595.95 934.68 1599.32 937.851 Q1602.7 941.023 1602.7 946.439 Q1602.7 952.018 1599.23 955.12 Q1595.76 958.198 1589.44 958.198 Q1587.26 958.198 1585 957.828 Q1582.75 957.458 1580.34 956.717 L1580.34 952.018 Q1582.43 953.152 1584.65 953.708 Q1586.87 954.263 1589.35 954.263 Q1593.35 954.263 1595.69 952.157 Q1598.03 950.05 1598.03 946.439 Q1598.03 942.828 1595.69 940.722 Q1593.35 938.615 1589.35 938.615 Q1587.47 938.615 1585.6 939.032 Q1583.75 939.448 1581.8 940.328 L1581.8 922.967 Z" fill="#000000" fill-rule="nonzero" fill-opacity="1" /><path clip-path="url(#clip210)" d="M1496.76 804.468 L1526.43 804.468 L1526.43 808.404 L1496.76 808.404 L1496.76 804.468 Z" fill="#000000" fill-rule="nonzero" fill-opacity="1" /><path clip-path="url(#clip210)" d="M1537.33 817.362 L1544.97 817.362 L1544.97 790.996 L1536.66 792.663 L1536.66 788.404 L1544.93 786.737 L1549.6 786.737 L1549.6 817.362 L1557.24 817.362 L1557.24 821.297 L1537.33 821.297 L1537.33 817.362 Z" fill="#000000" fill-rule="nonzero" fill-opacity="1" /><path clip-path="url(#clip210)" d="M1566.69 815.417 L1571.57 815.417 L1571.57 821.297 L1566.69 821.297 L1566.69 815.417 Z" fill="#000000" fill-rule="nonzero" fill-opacity="1" /><path clip-path="url(#clip210)" d="M1591.76 789.816 Q1588.14 789.816 1586.32 793.381 Q1584.51 796.922 1584.51 804.052 Q1584.51 811.158 1586.32 814.723 Q1588.14 818.265 1591.76 818.265 Q1595.39 818.265 1597.2 814.723 Q1599.02 811.158 1599.02 804.052 Q1599.02 796.922 1597.2 793.381 Q1595.39 789.816 1591.76 789.816 M1591.76 786.112 Q1597.57 786.112 1600.62 790.719 Q1603.7 795.302 1603.7 804.052 Q1603.7 812.779 1600.62 817.385 Q1597.57 821.968 1591.76 821.968 Q1585.95 821.968 1582.87 817.385 Q1579.81 812.779 1579.81 804.052 Q1579.81 795.302 1582.87 790.719 Q1585.95 786.112 1591.76 786.112 Z" fill="#000000" fill-rule="nonzero" fill-opacity="1" /><path clip-path="url(#clip210)" d="M1496.76 668.239 L1526.43 668.239 L1526.43 672.174 L1496.76 672.174 L1496.76 668.239 Z" fill="#000000" fill-rule="nonzero" fill-opacity="1" /><path clip-path="url(#clip210)" d="M1546.52 653.586 Q1542.91 653.586 1541.08 657.151 Q1539.28 660.692 1539.28 667.822 Q1539.28 674.928 1541.08 678.493 Q1542.91 682.035 1546.52 682.035 Q1550.16 682.035 1551.96 678.493 Q1553.79 674.928 1553.79 667.822 Q1553.79 660.692 1551.96 657.151 Q1550.16 653.586 1546.52 653.586 M1546.52 649.882 Q1552.33 649.882 1555.39 654.489 Q1558.47 659.072 1558.47 667.822 Q1558.47 676.549 1555.39 681.155 Q1552.33 685.738 1546.52 685.738 Q1540.71 685.738 1537.64 681.155 Q1534.58 676.549 1534.58 667.822 Q1534.58 659.072 1537.64 654.489 Q1540.71 649.882 1546.52 649.882 Z" fill="#000000" fill-rule="nonzero" fill-opacity="1" /><path clip-path="url(#clip210)" d="M1566.69 679.188 L1571.57 679.188 L1571.57 685.067 L1566.69 685.067 L1566.69 679.188 Z" fill="#000000" fill-rule="nonzero" fill-opacity="1" /><path clip-path="url(#clip210)" d="M1581.8 650.507 L1600.16 650.507 L1600.16 654.442 L1586.08 654.442 L1586.08 662.914 Q1587.1 662.567 1588.12 662.405 Q1589.14 662.22 1590.16 662.22 Q1595.95 662.22 1599.32 665.391 Q1602.7 668.563 1602.7 673.979 Q1602.7 679.558 1599.23 682.66 Q1595.76 685.738 1589.44 685.738 Q1587.26 685.738 1585 685.368 Q1582.75 684.998 1580.34 684.257 L1580.34 679.558 Q1582.43 680.692 1584.65 681.248 Q1586.87 681.803 1589.35 681.803 Q1593.35 681.803 1595.69 679.697 Q1598.03 677.59 1598.03 673.979 Q1598.03 670.368 1595.69 668.262 Q1593.35 666.155 1589.35 666.155 Q1587.47 666.155 1585.6 666.572 Q1583.75 666.989 1581.8 667.868 L1581.8 650.507 Z" fill="#000000" fill-rule="nonzero" fill-opacity="1" /><path clip-path="url(#clip210)" d="M1508.7 517.356 Q1505.09 517.356 1503.26 520.921 Q1501.45 524.462 1501.45 531.592 Q1501.45 538.698 1503.26 542.263 Q1505.09 545.805 1508.7 545.805 Q1512.33 545.805 1514.14 542.263 Q1515.97 538.698 1515.97 531.592 Q1515.97 524.462 1514.14 520.921 Q1512.33 517.356 1508.7 517.356 M1508.7 513.652 Q1514.51 513.652 1517.57 518.259 Q1520.64 522.842 1520.64 531.592 Q1520.64 540.319 1517.57 544.925 Q1514.51 549.508 1508.7 549.508 Q1502.89 549.508 1499.81 544.925 Q1496.76 540.319 1496.76 531.592 Q1496.76 522.842 1499.81 518.259 Q1502.89 513.652 1508.7 513.652 Z" fill="#000000" fill-rule="nonzero" fill-opacity="1" /><path clip-path="url(#clip210)" d="M1508.7 381.126 Q1505.09 381.126 1503.26 384.691 Q1501.45 388.232 1501.45 395.362 Q1501.45 402.468 1503.26 406.033 Q1505.09 409.575 1508.7 409.575 Q1512.33 409.575 1514.14 406.033 Q1515.97 402.468 1515.97 395.362 Q1515.97 388.232 1514.14 384.691 Q1512.33 381.126 1508.7 381.126 M1508.7 377.422 Q1514.51 377.422 1517.57 382.029 Q1520.64 386.612 1520.64 395.362 Q1520.64 404.089 1517.57 408.695 Q1514.51 413.279 1508.7 413.279 Q1502.89 413.279 1499.81 408.695 Q1496.76 404.089 1496.76 395.362 Q1496.76 386.612 1499.81 382.029 Q1502.89 377.422 1508.7 377.422 Z" fill="#000000" fill-rule="nonzero" fill-opacity="1" /><path clip-path="url(#clip210)" d="M1528.86 406.728 L1533.75 406.728 L1533.75 412.607 L1528.86 412.607 L1528.86 406.728 Z" fill="#000000" fill-rule="nonzero" fill-opacity="1" /><path clip-path="url(#clip210)" d="M1543.98 378.047 L1562.33 378.047 L1562.33 381.982 L1548.26 381.982 L1548.26 390.455 Q1549.28 390.107 1550.3 389.945 Q1551.32 389.76 1552.33 389.76 Q1558.12 389.76 1561.5 392.931 Q1564.88 396.103 1564.88 401.519 Q1564.88 407.098 1561.41 410.2 Q1557.94 413.279 1551.62 413.279 Q1549.44 413.279 1547.17 412.908 Q1544.93 412.538 1542.52 411.797 L1542.52 407.098 Q1544.6 408.232 1546.83 408.788 Q1549.05 409.343 1551.52 409.343 Q1555.53 409.343 1557.87 407.237 Q1560.2 405.13 1560.2 401.519 Q1560.2 397.908 1557.87 395.802 Q1555.53 393.695 1551.52 393.695 Q1549.65 393.695 1547.77 394.112 Q1545.92 394.529 1543.98 395.408 L1543.98 378.047 Z" fill="#000000" fill-rule="nonzero" fill-opacity="1" /><path clip-path="url(#clip210)" d="M1497.43 272.442 L1505.07 272.442 L1505.07 246.077 L1496.76 247.743 L1496.76 243.484 L1505.02 241.817 L1509.7 241.817 L1509.7 272.442 L1517.33 272.442 L1517.33 276.377 L1497.43 276.377 L1497.43 272.442 Z" fill="#000000" fill-rule="nonzero" fill-opacity="1" /><path clip-path="url(#clip210)" d="M1526.78 270.498 L1531.66 270.498 L1531.66 276.377 L1526.78 276.377 L1526.78 270.498 Z" fill="#000000" fill-rule="nonzero" fill-opacity="1" /><path clip-path="url(#clip210)" d="M1551.85 244.896 Q1548.24 244.896 1546.41 248.461 Q1544.6 252.002 1544.6 259.132 Q1544.6 266.238 1546.41 269.803 Q1548.24 273.345 1551.85 273.345 Q1555.48 273.345 1557.29 269.803 Q1559.12 266.238 1559.12 259.132 Q1559.12 252.002 1557.29 248.461 Q1555.48 244.896 1551.85 244.896 M1551.85 241.192 Q1557.66 241.192 1560.71 245.799 Q1563.79 250.382 1563.79 259.132 Q1563.79 267.859 1560.71 272.465 Q1557.66 277.049 1551.85 277.049 Q1546.04 277.049 1542.96 272.465 Q1539.9 267.859 1539.9 259.132 Q1539.9 250.382 1542.96 245.799 Q1546.04 241.192 1551.85 241.192 Z" fill="#000000" fill-rule="nonzero" fill-opacity="1" /><path clip-path="url(#clip210)" d="M1497.43 136.212 L1505.07 136.212 L1505.07 109.847 L1496.76 111.513 L1496.76 107.254 L1505.02 105.587 L1509.7 105.587 L1509.7 136.212 L1517.33 136.212 L1517.33 140.147 L1497.43 140.147 L1497.43 136.212 Z" fill="#000000" fill-rule="nonzero" fill-opacity="1" /><path clip-path="url(#clip210)" d="M1526.78 134.268 L1531.66 134.268 L1531.66 140.147 L1526.78 140.147 L1526.78 134.268 Z" fill="#000000" fill-rule="nonzero" fill-opacity="1" /><path clip-path="url(#clip210)" d="M1541.89 105.587 L1560.25 105.587 L1560.25 109.522 L1546.18 109.522 L1546.18 117.995 Q1547.2 117.647 1548.21 117.485 Q1549.23 117.3 1550.25 117.3 Q1556.04 117.3 1559.42 120.472 Q1562.8 123.643 1562.8 129.059 Q1562.8 134.638 1559.33 137.74 Q1555.85 140.819 1549.53 140.819 Q1547.36 140.819 1545.09 140.448 Q1542.84 140.078 1540.44 139.337 L1540.44 134.638 Q1542.52 135.772 1544.74 136.328 Q1546.96 136.883 1549.44 136.883 Q1553.45 136.883 1555.78 134.777 Q1558.12 132.671 1558.12 129.059 Q1558.12 125.448 1555.78 123.342 Q1553.45 121.235 1549.44 121.235 Q1547.57 121.235 1545.69 121.652 Q1543.84 122.069 1541.89 122.948 L1541.89 105.587 Z" fill="#000000" fill-rule="nonzero" fill-opacity="1" /><polyline clip-path="url(#clip210)" style="stroke:#000000; stroke-linecap:round; stroke-linejoin:round; stroke-width:4; stroke-opacity:1; fill:none" points="1472.76,943.876 1472.76,943.876 1488.76,943.876 1472.76,943.876 1472.76,807.646 1488.76,807.646 1472.76,807.646 1472.76,671.416 1488.76,671.416 1472.76,671.416 1472.76,535.186 1488.76,535.186 1472.76,535.186 1472.76,398.956 1488.76,398.956 1472.76,398.956 1472.76,262.726 1488.76,262.726 1472.76,262.726 1472.76,126.496 1488.76,126.496 1472.76,126.496 "/>
</svg>
